<?xml version="1.0" standalone="no"?>
<!DOCTYPE svg PUBLIC "-//W3C//DTD SVG 1.1//EN" "http://www.w3.org/Graphics/SVG/1.1/DTD/svg11.dtd" >
<svg xmlns="http://www.w3.org/2000/svg" xmlns:xlink="http://www.w3.org/1999/xlink" version="1.1">
<metadata>
Created by FontForge 20201107 at Wed Jan 17 22:15:25 2024
 By 
Copyright (c) 2019 Monotype Imaging Inc. All rights reserved.
</metadata>
<defs>
<font id="HelveticaNowText-ThinItalic" horiz-adv-x="0" >
  <font-face 
    font-family="HelveticaNowText Thin"
    font-weight="265"
    font-style="italic"
    font-stretch="normal"
    units-per-em="2048"
    panose-1="2 11 2 4 3 2 2 9 2 4"
    ascent="1792"
    descent="-256"
    x-height="1057"
    cap-height="1458"
    bbox="-754 -662 3453 2249"
    underline-thickness="102"
    underline-position="-614"
    slope="-12"
    unicode-range="U+000D-FEFF"
  />
<missing-glyph horiz-adv-x="1851" 
d="M1507 0h-1077v1458h1077v-1458zM467 1423v-1388h1003v1388h-1003z" />
    <glyph glyph-name="fi" unicode="fi" horiz-adv-x="1069" 
d="M422 1182l-27 -125h324l-8 -33h-322l-4 -20l-215 -1004h-37l215 1004l4 20h-202l6 33h202l27 125q30 149 104 213q73 63 205 63h111l-8 -35h-103q-114 0 -180 -56q-68 -58 -92 -185zM1016 1360l22 98h37l-22 -98h-37zM764 0h-37l225 1057h37z" />
    <glyph glyph-name="fl" unicode="fl" horiz-adv-x="1069" 
d="M422 1182l-27 -125h324l-8 -33h-322l-4 -20l-215 -1004h-37l215 1004l4 20h-202l6 33h202l27 125q30 149 104 213q73 63 205 63h111l-8 -35h-103q-114 0 -180 -56q-68 -58 -92 -185zM727 0l311 1458h37l-311 -1458h-37z" />
    <glyph glyph-name=".notdef" horiz-adv-x="1851" 
d="M1507 0h-1077v1458h1077v-1458zM467 1423v-1388h1003v1388h-1003z" />
    <glyph glyph-name=".null" 
 />
    <glyph glyph-name="nonmarkingreturn" horiz-adv-x="681" 
 />
    <glyph glyph-name="NULL" 
 />
    <glyph glyph-name="NULL" 
 />
    <glyph glyph-name="CR" unicode="&#xd;" horiz-adv-x="610" 
 />
    <glyph glyph-name="space" unicode=" " horiz-adv-x="610" 
 />
    <glyph glyph-name="exclam" unicode="!" horiz-adv-x="546" 
d="M250 344h-29l144 694l90 420h37l-91 -420zM203 0h-84l18 84h84z" />
    <glyph glyph-name="quotedbl" unicode="&#x22;" horiz-adv-x="829" 
d="M307 893h-35l119 565h35zM715 893h-35l119 565h35z" />
    <glyph glyph-name="numbersign" unicode="#" horiz-adv-x="1359" 
d="M1348 1018l-9 -33h-272l-180 -510h268l-8 -33h-273l-155 -442h-33l156 442h-443l-155 -442h-33l156 442h-269l8 33h273l180 510h-268l8 33h270l156 440h33l-156 -440h442l156 440h33l-156 -440h271zM592 985l-180 -510h442l180 510h-442z" />
    <glyph glyph-name="dollar" unicode="$" horiz-adv-x="1245" 
d="M895 1735l-55 -267q155 -15 246 -100q92 -86 92 -223q0 -26 -7 -66h-34q6 35 6 64q0 139 -100 216t-265 77q-192 0 -321 -97q-127 -96 -127 -264q0 -105 64 -170q63 -64 202 -104l203 -56q142 -39 209 -111q67 -71 67 -194q0 -206 -142 -323q-143 -117 -380 -117h-27
l-61 -295h-35l64 297q-179 15 -279 110q-98 94 -98 267q0 41 2 61h35q-2 -20 -2 -55q0 -170 106 -260t295 -90q224 0 355 106q132 106 132 299q0 108 -61 170q-62 64 -195 101l-198 55q-291 82 -291 307q0 188 139 293q138 104 346 104h25l55 265h35z" />
    <glyph glyph-name="percent" unicode="%" horiz-adv-x="2713" 
d="M627 643q-143 0 -217 77t-74 222q0 74 18 166q96 442 434 442q144 0 216 -75q73 -76 73 -222q0 -77 -18 -168q-96 -442 -432 -442zM627 678q158 0 254 100q97 101 143 314q20 91 20 161q0 265 -258 265q-307 0 -397 -416q-20 -91 -20 -162q0 -262 258 -262zM772 -31h-43
l1235 1520h45zM2030 -14q-291 0 -291 299q0 75 18 166q94 442 434 442q142 0 215 -76q74 -77 74 -221q0 -76 -18 -168q-94 -442 -432 -442zM2030 20q158 0 254 102t141 312q20 91 20 162q0 264 -258 264q-305 0 -395 -416q-20 -91 -20 -161q0 -263 258 -263z" />
    <glyph glyph-name="ampersand" unicode="&#x26;" horiz-adv-x="1511" 
d="M1335 623l37 -2q-69 -209 -233 -373l198 -248h-47l-178 221q-247 -235 -541 -235q-191 0 -300 97t-109 259q0 173 121 279t366 178q-153 192 -153 352q0 144 101 232q104 90 261 90q152 0 243 -79t91 -204q0 -140 -121 -239q-124 -101 -362 -169l409 -508
q155 161 217 349zM858 1438q-146 0 -235 -79q-91 -80 -91 -208q0 -144 154 -342q232 65 351 156q118 90 118 223q0 111 -81 180q-82 70 -216 70zM573 20q285 0 519 228l-420 522q-238 -68 -357 -169q-116 -98 -116 -259q0 -151 100 -236q101 -86 274 -86z" />
    <glyph glyph-name="quotesingle" unicode="'" horiz-adv-x="421" 
d="M307 893h-35l119 565h35z" />
    <glyph glyph-name="parenleft" unicode="(" horiz-adv-x="645" 
d="M326 -418h-33q-150 297 -150 633q0 145 35 338q111 564 520 977h43q-413 -420 -526 -983q-35 -172 -35 -334q0 -327 146 -631z" />
    <glyph glyph-name="parenright" unicode=")" horiz-adv-x="647" 
d="M-39 -418h-45q416 425 528 983q35 172 35 334q0 327 -147 631h35q149 -295 149 -633q0 -145 -35 -338q-111 -562 -520 -977z" />
    <glyph glyph-name="asterisk" unicode="*" horiz-adv-x="1126" 
d="M678 1057l-285 -295l-28 18l290 297l-321 121l16 33l320 -125l75 352h33l-76 -352l367 125l8 -33l-372 -121l159 -297l-30 -18z" />
    <glyph glyph-name="plus" unicode="+" horiz-adv-x="1310" 
d="M672 653h545v-37h-545v-542h-35v542h-545v37h545v545h35v-545z" />
    <glyph glyph-name="comma" unicode="," horiz-adv-x="509" 
d="M33 -305h-15l9 33h14q40 0 61 21q20 20 31 75l37 180l-88 -10l20 98h119l-59 -285q-21 -112 -129 -112z" />
    <glyph glyph-name="hyphen" unicode="-" horiz-adv-x="772" 
d="M666 494h-574l8 36h574z" />
    <glyph glyph-name="period" unicode="." horiz-adv-x="507" 
d="M203 0h-121l20 98h121z" />
    <glyph glyph-name="slash" unicode="/" horiz-adv-x="882" 
d="M47 0h-41l918 1458h41z" />
    <glyph glyph-name="zero" unicode="0" horiz-adv-x="1310" 
d="M557 -12q-364 0 -364 438q0 140 34 311q78 372 229 553q150 180 384 180q362 0 362 -450q0 -142 -33 -299q-144 -733 -612 -733zM559 23q433 0 574 706q32 153 32 293q0 414 -327 414q-437 0 -574 -707q-35 -189 -35 -303q0 -403 330 -403z" />
    <glyph glyph-name="one" unicode="1" horiz-adv-x="899" 
d="M725 1458h41l-311 -1458h-37l297 1401q-85 -93 -217 -158q-135 -66 -252 -78l8 33q125 15 254 84q127 68 217 176z" />
    <glyph glyph-name="two" unicode="2" horiz-adv-x="1310" 
d="M991 0h-907q39 177 171 318t374 260l184 90q199 97 289 202q92 107 92 256q0 140 -90 225q-89 85 -256 85q-194 0 -325 -111q-130 -111 -165 -332l-2 -12h-37l3 14q41 239 180 357t348 118q180 0 280 -94q101 -95 101 -248q0 -162 -96 -274q-96 -113 -301 -213l-183 -90
q-446 -220 -520 -516h866z" />
    <glyph glyph-name="three" unicode="3" horiz-adv-x="1310" 
d="M578 -14q-208 0 -336 98q-129 96 -129 262q0 30 8 76h37q-6 -41 -6 -74q0 -151 115 -238t311 -87q228 0 378 120q150 118 150 318q0 136 -94 215q-95 80 -262 80h-111l6 35h105q193 0 313 104q119 101 119 266q0 126 -92 203q-91 76 -252 76q-196 0 -325 -100
q-127 -99 -165 -273h-37q40 191 178 300q137 108 351 108q172 0 275 -85q104 -86 104 -223q0 -149 -96 -259q-95 -108 -246 -132l-3 -4q128 -22 198 -105q71 -83 71 -206q0 -218 -158 -346q-159 -129 -407 -129z" />
    <glyph glyph-name="four" unicode="4" horiz-adv-x="1310" 
d="M1141 1458l-215 -1007h221l-8 -35h-221l-89 -416h-36l88 416h-760l6 35l983 1007h31zM176 451h713l198 931h-2z" />
    <glyph glyph-name="five" unicode="5" horiz-adv-x="1310" 
d="M539 -33q-183 0 -285 102t-102 279h36q0 -159 91 -253q90 -93 260 -93q237 0 389 158q147 156 147 391q0 158 -89 250t-251 92q-256 0 -424 -223l-47 12l291 776h690l-6 -35h-661l-267 -706l4 -2q166 211 424 211q176 0 275 -102q98 -101 98 -271q0 -257 -160 -420
q-159 -166 -413 -166z" />
    <glyph glyph-name="six" unicode="6" horiz-adv-x="1310" 
d="M854 1438q-261 0 -414 -260q-136 -231 -198 -584q183 324 499 324q174 0 274 -100q99 -99 99 -269q0 -236 -143 -397q-144 -166 -371 -166q-198 0 -300 122q-101 120 -101 341q0 111 24 239q77 384 238 584q162 201 395 201q348 0 348 -365h-35q0 330 -315 330zM737 883
q-326 0 -499 -359q-7 -38 -7 -82q0 -198 98 -310t273 -112q208 0 342 160q133 157 133 371q0 155 -90 243q-91 89 -250 89z" />
    <glyph glyph-name="seven" unicode="7" horiz-adv-x="1310" 
d="M375 0h-41q101 399 344 772q241 369 582 649h-889l8 37h946l-6 -31q-363 -293 -598 -655q-245 -372 -346 -772z" />
    <glyph glyph-name="eight" unicode="8" horiz-adv-x="1308" 
d="M565 -12q-213 0 -335 96q-121 96 -121 262q0 183 120 299q121 117 330 141v5q-120 22 -186 99q-66 76 -66 183q0 188 150 293q150 104 370 104q199 0 310 -84q110 -83 110 -225q0 -158 -104 -256t-289 -121v-4q144 -21 218 -104q75 -84 75 -215q0 -222 -166 -346
q-169 -127 -416 -127zM713 801q231 0 365 92t134 266q0 132 -100 205q-101 74 -285 74q-205 0 -346 -97q-137 -95 -137 -270q0 -127 96 -199q95 -71 273 -71zM565 23q238 0 389 118q154 118 154 320q0 143 -103 224t-296 81q-257 0 -411 -109q-153 -108 -153 -309
q0 -151 111 -238t309 -87z" />
    <glyph glyph-name="nine" unicode="9" horiz-adv-x="1310" 
d="M797 1473q198 0 300 -122q101 -120 101 -341q0 -112 -24 -240q-77 -383 -237 -584q-160 -200 -396 -200q-348 0 -348 364h34q0 -330 316 -330q259 0 413 261q136 233 199 585q-180 -325 -500 -325q-174 0 -273 99t-99 269q0 233 145 400q146 164 369 164zM1159 934
q6 67 6 82q0 200 -97 310q-98 112 -273 112q-208 0 -342 -158q-134 -163 -134 -373q0 -153 91 -242q92 -90 249 -90q163 0 291 95q126 93 209 264z" />
    <glyph glyph-name="colon" unicode=":" horiz-adv-x="507" 
d="M377 823h-121l20 99h121zM203 0h-121l20 98h121z" />
    <glyph glyph-name="semicolon" unicode=";" horiz-adv-x="514" 
d="M379 823h-121l21 99h120zM35 -305h-15l9 33h14q40 0 61 21q20 20 31 75l37 180l-88 -10l20 98h119l-59 -285q-21 -112 -129 -112z" />
    <glyph glyph-name="less" unicode="&#x3c;" horiz-adv-x="1310" 
d="M131 641l1047 471v-37l-1010 -454l1010 -453v-37l-1047 469v41z" />
    <glyph glyph-name="equal" unicode="=" horiz-adv-x="1310" 
d="M1196 840h-1083v37h1083v-37zM1196 391h-1083v37h1083v-37z" />
    <glyph glyph-name="greater" unicode="&#x3e;" horiz-adv-x="1310" 
d="M131 1075v37l1047 -471v-41l-1047 -469v37l1010 453z" />
    <glyph glyph-name="question" unicode="?" horiz-adv-x="1265" 
d="M571 342h-34l8 41q27 132 88 215q61 80 221 158q165 83 245 175q79 91 79 212q0 143 -102 219q-101 76 -281 76q-207 0 -342 -106q-133 -105 -168 -296h-37q39 209 181 322q144 115 366 115q193 0 307 -87q112 -85 112 -241q0 -240 -313 -402l-70 -36q-120 -61 -172 -132
t-79 -196zM526 0h-84l17 84h84z" />
    <glyph glyph-name="at" unicode="@" horiz-adv-x="2209" 
d="M1270 1473q420 0 612 -242t113 -623q-50 -226 -176 -364q-130 -142 -283 -142q-201 0 -162 252q-131 -266 -364 -266q-178 0 -256 131t-29 356q50 225 167 344q118 119 279 119q127 0 202 -74q77 -75 89 -194l56 248h34l-135 -627q-55 -258 127 -258q137 0 254 137
q114 137 160 342q80 365 -103 596q-185 232 -593 232q-375 0 -635 -230q-264 -231 -342 -606q-89 -417 106 -670q194 -251 572 -251q211 0 405 71l-6 -37q-185 -67 -406 -67q-389 0 -596 262q-204 258 -112 694q84 396 356 631q269 236 666 236zM1016 121q147 0 255 123
q106 121 156 354q37 178 -32 291q-73 115 -226 115q-146 0 -254 -113t-155 -322q-47 -213 24 -329q72 -119 232 -119z" />
    <glyph glyph-name="A" unicode="A" horiz-adv-x="1468" 
d="M1274 0h-39l-109 492h-798l-318 -492h-41l949 1468h32zM905 1386l-553 -858h766l-186 854l-6 37z" />
    <glyph glyph-name="B" unicode="B" horiz-adv-x="1517" 
d="M1051 762q276 -50 276 -313q0 -191 -135 -320t-338 -129h-735l311 1458h633q172 0 261 -80t89 -215q0 -156 -99 -264t-263 -137zM1059 1423h-600l-137 -647h608q192 0 321 109q125 107 125 276q0 121 -80 192q-79 70 -237 70zM164 35h690q182 0 309 123q125 119 125 293
q0 141 -91 217q-90 75 -261 75h-623z" />
    <glyph glyph-name="C" unicode="C" horiz-adv-x="1525" 
d="M733 -25q-248 0 -389 162t-141 422q0 93 22 207q72 336 275 526q203 191 489 191q234 0 373 -127t139 -340h-37q-1 200 -130 316q-128 116 -349 116q-272 0 -463 -179q-190 -178 -258 -499q-24 -114 -24 -211q0 -246 133 -397q134 -152 364 -152q243 0 418 160
q156 144 207 322h37q-63 -226 -248 -373q-180 -144 -418 -144z" />
    <glyph glyph-name="D" unicode="D" horiz-adv-x="1517" 
d="M430 1458h453q266 0 404 -135t138 -385q0 -93 -22 -215q-69 -345 -278 -535q-207 -188 -543 -188h-463zM1366 729q23 127 23 211q0 231 -129 357t-381 126h-420l-295 -1388h418q322 0 521 181q200 182 263 513z" />
    <glyph glyph-name="E" unicode="E" horiz-adv-x="1380" 
d="M1386 1458l-8 -35h-919l-135 -641h860l-6 -34h-863l-151 -713h958l-8 -35h-995l311 1458h956z" />
    <glyph glyph-name="F" unicode="F" horiz-adv-x="1269" 
d="M1399 1458l-8 -35h-932l-137 -649h813l-7 -35h-815l-157 -739h-37l311 1458h969z" />
    <glyph glyph-name="G" unicode="G" horiz-adv-x="1701" 
d="M1012 1448q-286 0 -486 -188q-200 -191 -268 -517q-22 -114 -22 -206q0 -244 134 -386q134 -141 375 -141q249 0 445 158q193 157 260 434l16 78h-577l8 37h612l-151 -717h-33l78 383q-96 -194 -270 -301q-175 -107 -390 -107q-255 0 -401 154q-143 150 -143 410
q0 97 22 213q69 335 281 534q209 197 510 197q252 0 395 -124t143 -343h-37q0 203 -134 317q-135 115 -367 115z" />
    <glyph glyph-name="H" unicode="H" horiz-adv-x="1540" 
d="M1329 795l141 663h37l-311 -1458h-37l162 758h-1004l-161 -758h-37l311 1458h37l-141 -663h1003z" />
    <glyph glyph-name="I" unicode="I" horiz-adv-x="499" 
d="M156 0h-37l311 1458h37z" />
    <glyph glyph-name="J" unicode="J" horiz-adv-x="1171" 
d="M442 -25q-167 0 -266 78q-98 77 -98 223q0 45 35 209h37q-33 -133 -33 -209q0 -130 86 -198t239 -68q352 0 432 381l228 1067h37l-228 -1067q-90 -416 -469 -416z" />
    <glyph glyph-name="K" unicode="K" horiz-adv-x="1445" 
d="M1483 1458h57l-778 -604l491 -854h-45l-477 831l-477 -368l-98 -463h-37l311 1458h37l-203 -946z" />
    <glyph glyph-name="L" unicode="L" horiz-adv-x="1267" 
d="M467 1458l-303 -1423h887l-9 -35h-923l311 1458h37z" />
    <glyph glyph-name="M" unicode="M" horiz-adv-x="1857" 
d="M862 106l912 1352h51l-312 -1458h-34l284 1341l23 78l-47 -76l-908 -1343h-30l-334 1343l-12 76l-15 -78l-284 -1341h-37l311 1458h45l336 -1349l12 -66z" />
    <glyph glyph-name="N" unicode="N" horiz-adv-x="1542" 
d="M1176 55l299 1403h34l-311 -1458h-33l-710 1405l-299 -1405h-37l311 1458h33z" />
    <glyph glyph-name="O" unicode="O" horiz-adv-x="1689" 
d="M748 -25q-255 0 -400 160q-145 157 -145 420q0 110 20 201q66 329 283 526q217 201 518 201q262 0 406 -156q143 -155 143 -420q0 -109 -21 -205q-66 -329 -278 -526q-219 -201 -526 -201zM752 10q288 0 495 195q203 191 269 506q20 91 20 196q0 254 -136 397
q-136 144 -380 144q-285 0 -492 -193q-207 -195 -268 -507q-20 -86 -20 -191q0 -246 137 -397q137 -150 375 -150z" />
    <glyph glyph-name="P" unicode="P" horiz-adv-x="1331" 
d="M430 1458h531q177 0 279 -81q101 -80 101 -226q0 -224 -149 -354q-151 -131 -393 -131h-502l-141 -666h-37zM305 700h494q229 0 368 123q138 120 138 326q0 131 -95 203q-93 71 -252 71h-499z" />
    <glyph glyph-name="Q" unicode="Q" horiz-adv-x="1689" 
d="M1552 702q-78 -381 -340 -577l177 -180l-25 -27l-180 186q-192 -129 -436 -129q-255 0 -400 160q-145 157 -145 420q0 110 20 201q68 327 283 526q217 201 518 201q262 0 406 -156q143 -155 143 -420q0 -109 -21 -205zM944 403l242 -251q261 196 330 559q20 91 20 196
q0 254 -136 397q-136 144 -380 144q-288 0 -490 -193q-207 -195 -270 -507q-20 -86 -20 -191q0 -246 137 -397q137 -150 375 -150q226 0 405 121l-237 244z" />
    <glyph glyph-name="R" unicode="R" horiz-adv-x="1503" 
d="M1405 1159q0 -181 -113 -303q-111 -120 -303 -147q118 -18 170 -78q53 -61 53 -170q0 -30 -4 -70l-37 -391h-36l36 385q5 58 5 76q0 127 -76 179t-254 52h-543l-147 -692h-37l311 1458h608q178 0 272 -79q95 -80 95 -220zM311 727h563q220 0 357 119q137 117 137 311
q0 128 -87 197t-247 69h-575z" />
    <glyph glyph-name="S" unicode="S" horiz-adv-x="1376" 
d="M612 -25q-240 0 -370 98q-129 98 -129 292q0 14 4 61h37q-4 -44 -4 -55q0 -180 120 -270q121 -91 344 -91q257 0 407 111t150 315q0 214 -268 269l-282 57q-308 62 -308 305q0 203 156 309q152 107 395 107q210 0 331 -87q122 -87 122 -245q0 -33 -6 -68h-37q6 30 6 64
q0 142 -113 222q-112 79 -305 79q-227 0 -370 -98q-144 -100 -144 -283q0 -211 279 -268l286 -60q293 -60 293 -301q0 -220 -159 -342q-158 -121 -435 -121z" />
    <glyph glyph-name="T" unicode="T" horiz-adv-x="1312" 
d="M289 1458h1112l-8 -35h-539l-303 -1423h-37l303 1423h-536z" />
    <glyph glyph-name="U" unicode="U" horiz-adv-x="1536" 
d="M678 -25q-221 0 -346 92t-125 277q0 66 18 148l205 966h37l-207 -975q-16 -80 -16 -135q0 -172 114 -255q115 -83 320 -83q481 0 582 473l206 975h37l-207 -975q-108 -508 -618 -508z" />
    <glyph glyph-name="V" unicode="V" horiz-adv-x="1374" 
d="M705 238l747 1220h41l-899 -1470h-35l-278 1470h38l228 -1220l37 -207z" />
    <glyph glyph-name="W" unicode="W" horiz-adv-x="1916" 
d="M1378 254l619 1204h39l-754 -1470h-31l-114 1411l-676 -1411h-33l-147 1470h36l119 -1200l19 -209l675 1409h35l99 -1204l14 -205z" />
    <glyph glyph-name="X" unicode="X" horiz-adv-x="1376" 
d="M1399 1458h51l-688 -702l420 -756h-41l-373 672l-31 61l-59 -61l-658 -672h-51l748 760l-391 698h43l340 -612l32 -64l58 62z" />
    <glyph glyph-name="Y" unicode="Y" horiz-adv-x="1370" 
d="M1462 1458h49l-792 -872l-125 -586h-39l127 586l-426 872h41l393 -813l12 -31l25 31z" />
    <glyph glyph-name="Z" unicode="Z" horiz-adv-x="1411" 
d="M416 1458h1003l-8 -35l-1302 -1388h1036l-8 -35h-1086l8 37l1303 1386h-954z" />
    <glyph glyph-name="bracketleft" unicode="[" horiz-adv-x="704" 
d="M385 -418h-354l413 1948h355l-6 -35h-318l-401 -1878h317z" />
    <glyph glyph-name="backslash" unicode="\" horiz-adv-x="882" 
d="M649 0h-35l-295 1458h35z" />
    <glyph glyph-name="bracketright" unicode="]" horiz-adv-x="704" 
d="M272 -418h-358l6 35h324l401 1878h-321l6 35h356z" />
    <glyph glyph-name="asciicircum" unicode="^" horiz-adv-x="1310" 
d="M635 1470h41l436 -1056h-39l-383 929l-6 17q-6 16 -11 30q-3 9 -7.5 20t-7 16.5t-3.5 9.5q-27 -67 -34 -93l-383 -929h-39z" />
    <glyph glyph-name="underscore" unicode="_" horiz-adv-x="1024" 
d="M856 -252h-1024l10 35h1024z" />
    <glyph glyph-name="grave" unicode="`" horiz-adv-x="1024" 
d="M815 1282h-37l-182 307h43z" />
    <glyph glyph-name="a" unicode="a" horiz-adv-x="1183" 
d="M1024 33h33l-6 -33h-31q-116 0 -151 59q-36 59 -7 195l2 12q-144 -291 -475 -291q-153 0 -236 72t-83 191q0 277 385 329l270 37q122 18 177 63q53 44 71 130q28 124 -55 187q-84 63 -256 63q-179 0 -275 -73q-94 -71 -133 -224l-37 2q79 329 451 329q172 0 260 -58
t88 -159q0 -37 -6 -67l-115 -549q-24 -117 4 -166t125 -49zM399 8q351 0 488 371l61 297q-52 -82 -221 -103l-266 -38q-354 -49 -354 -295q0 -107 74 -169q75 -63 218 -63z" />
    <glyph glyph-name="b" unicode="b" horiz-adv-x="1222" 
d="M743 1081q175 0 272 -112t97 -303q0 -66 -16 -158q-46 -249 -189 -392q-141 -141 -350 -141q-163 0 -259 96q-96 95 -112 259l-71 -330h-35l311 1458h37l-152 -702q69 147 194 236t273 89zM1059 514q16 89 16 152q0 176 -90 278q-91 103 -248 103q-181 0 -320 -139
q-139 -138 -188 -380q-16 -86 -16 -145q0 -173 92 -273t252 -100q190 0 324 134q133 133 178 370z" />
    <glyph glyph-name="c" unicode="c" horiz-adv-x="1120" 
d="M492 -25q-170 0 -275 118q-104 117 -104 315q0 81 14 145q50 254 194 391q145 137 357 137q186 0 276 -102q86 -103 86 -244h-36q0 123 -78 219q-79 93 -248 93q-201 0 -335 -131t-179 -369q-14 -62 -14 -139q0 -183 94 -290q94 -108 250 -108q163 0 275 89
q111 88 167 249h37q-57 -174 -179 -274q-122 -99 -302 -99z" />
    <glyph glyph-name="d" unicode="d" horiz-adv-x="1224" 
d="M1040 733l154 725h37l-311 -1458h-35l69 322q-67 -156 -192 -250q-129 -97 -283 -97q-171 0 -272 113t-101 303q0 57 17 148q47 251 190 397q145 145 342 145q167 0 268 -91q100 -90 117 -257zM483 10q183 0 321 138q139 138 191 380q19 84 19 154q0 165 -97 265
t-260 100q-181 0 -321 -140q-136 -140 -176 -372q-15 -84 -15 -144q0 -176 89 -279q88 -102 249 -102z" />
    <glyph glyph-name="e" unicode="e" horiz-adv-x="1173" 
d="M1055 547h-891q-14 -62 -14 -141q0 -181 98 -288q99 -108 260 -108q179 0 293 96t160 216l34 -3q-45 -130 -172 -237q-125 -107 -315 -107q-179 0 -287 118q-108 119 -108 315q0 79 16 155q52 238 205 379q151 139 358 139q179 0 281 -102t102 -274q0 -82 -20 -158z
M692 1047q-187 0 -330 -127q-139 -124 -192 -340h856q14 67 14 122q0 158 -93 251q-94 94 -255 94z" />
    <glyph glyph-name="f" unicode="f" horiz-adv-x="647" 
d="M797 1423h-103q-114 0 -180 -56q-68 -58 -92 -185l-27 -125h324l-8 -33h-322l-4 -20l-215 -1004h-37l215 1004l4 20h-202l8 33h200l27 125q30 149 104 213q73 63 205 63h111z" />
    <glyph glyph-name="g" unicode="g" horiz-adv-x="1226" 
d="M1040 723l72 334h35l-227 -1073q-90 -404 -506 -404q-112 0 -191 30q-80 30 -118 77t-53 89t-15 83h35q2 -70 65 -150q73 -94 283 -94q388 0 465 371l71 331q-69 -152 -195 -247q-127 -95 -276 -95q-177 0 -276 111q-98 110 -98 303q-6 276 153 485t404 207
q166 0 263 -97t109 -261zM489 10q146 0 275 103q125 103 188 252q64 149 64 313q0 170 -95 270q-95 99 -251 99q-240 0 -381 -195q-142 -198 -142 -465q0 -174 90 -276q89 -101 252 -101z" />
    <glyph glyph-name="h" unicode="h" horiz-adv-x="1191" 
d="M741 1081q147 0 225 -74t78 -212q0 -49 -12 -111l-145 -684h-37l145 684q13 65 13 109q0 124 -70 189t-201 65q-175 0 -307 -112q-131 -112 -184 -327l-129 -608h-37l311 1458h37l-143 -676q74 145 191 222t265 77z" />
    <glyph glyph-name="i" unicode="i" horiz-adv-x="419" 
d="M406 1360h-37l22 98h37zM117 0h-37l225 1057h37z" />
    <glyph glyph-name="j" unicode="j" horiz-adv-x="419" 
d="M406 1360h-37l20 98h37zM-211 -418h-59l6 35h53q208 0 254 213l262 1227h37l-264 -1231q-53 -244 -289 -244z" />
    <glyph glyph-name="k" unicode="k" horiz-adv-x="1132" 
d="M1085 1057h54l-557 -420l360 -637h-41l-348 616l-365 -276l-71 -340h-37l311 1458h37l-229 -1071z" />
    <glyph glyph-name="l" unicode="l" horiz-adv-x="421" 
d="M117 0h-37l311 1458h37z" />
    <glyph glyph-name="m" unicode="m" horiz-adv-x="1755" 
d="M1346 1081q129 0 198 -66q70 -67 70 -192q0 -63 -15 -118l-149 -705h-37l150 705q14 62 14 114q0 228 -242 228q-139 0 -254 -109q-113 -107 -163 -305l-136 -633h-37l152 705q12 82 12 114q0 228 -241 228q-146 0 -261 -117q-117 -118 -163 -330l-127 -600h-37l225 1057
h37l-51 -232l-2 -10l-4 -18q67 134 170 210q101 74 223 74q131 0 199 -65q69 -66 69 -193q0 -25 -2 -39q67 144 170 220q104 77 232 77z" />
    <glyph glyph-name="n" unicode="n" horiz-adv-x="1191" 
d="M741 1081q147 0 225 -74t78 -212q0 -45 -12 -111l-145 -684h-37l145 684q13 65 13 109q0 124 -70 189t-201 65q-175 0 -307 -112q-131 -112 -184 -327l-129 -608h-37l225 1057h37l-61 -281q152 305 460 305z" />
    <glyph glyph-name="o" unicode="o" horiz-adv-x="1210" 
d="M514 -25q-185 0 -293 117t-108 314q0 85 14 149q47 244 203 385q153 141 368 141q185 0 293 -115q109 -117 109 -311q0 -57 -17 -151q-45 -247 -197 -387q-154 -142 -372 -142zM514 10q204 0 344 133q143 135 189 367q16 89 16 145q0 182 -99 287t-268 105
q-197 0 -342 -134q-144 -133 -190 -366q-14 -62 -14 -141q0 -183 99 -289q99 -107 265 -107z" />
    <glyph glyph-name="p" unicode="p" horiz-adv-x="1224" 
d="M745 1081q173 0 270 -111q97 -110 97 -304q0 -282 -149 -486q-150 -205 -396 -205q-161 0 -265 93q-102 91 -118 247l-155 -733h-37l313 1475h35l-66 -309q68 149 194 242q124 91 277 91zM569 10q150 0 270 96q119 95 181 247q61 149 55 313q0 176 -89 279
q-88 102 -247 102q-225 0 -377 -207q-151 -211 -151 -465q0 -167 96 -266t262 -99z" />
    <glyph glyph-name="q" unicode="q" horiz-adv-x="1228" 
d="M1044 727l70 330h35l-313 -1475h-37l157 735q-67 -153 -192 -246q-130 -96 -281 -96q-171 0 -272 113q-100 112 -100 303q-8 270 150 480q159 211 396 210q171 0 271 -93q99 -92 116 -261zM485 10q225 -2 383 210t150 462q0 167 -96 266t-263 99q-228 0 -368 -197
q-141 -198 -141 -459q0 -178 88 -279q88 -102 247 -102z" />
    <glyph glyph-name="r" unicode="r" horiz-adv-x="817" 
d="M707 1083q75 0 124 -12l-8 -35q-71 11 -121 11q-161 0 -286 -116t-170 -335h-2l-125 -596h-37l223 1057h35l-55 -264q67 139 178 215q109 75 244 75z" />
    <glyph glyph-name="s" unicode="s" horiz-adv-x="1083" 
d="M459 -25q-181 0 -280 78t-99 217h35q0 -125 91 -192q92 -68 257 -68q184 0 290 77q105 76 105 218q0 90 -56 139q-57 49 -183 70l-138 23q-135 24 -203 79q-69 56 -69 156q0 142 114 221q115 80 300 80q163 0 257 -77q93 -76 93 -210h-37q0 122 -84 188t-234 66
q-169 0 -271 -71q-103 -72 -103 -195q0 -91 61 -137q64 -48 189 -66l137 -22q140 -21 202 -79t62 -163q0 -161 -117 -247q-116 -85 -319 -85z" />
    <glyph glyph-name="t" unicode="t" horiz-adv-x="677" 
d="M403 1024l-4 -20l-168 -783q-8 -50 -8 -76q0 -110 142 -110h120l-6 -35h-121q-174 0 -174 139q0 27 11 80l167 785l5 20h-215l6 33h215l4 16l59 285h37l-59 -285l-4 -16h295l-7 -33h-295z" />
    <glyph glyph-name="u" unicode="u" horiz-adv-x="1191" 
d="M946 449l129 608h37l-225 -1057h-37l61 281q-152 -306 -460 -306q-145 0 -225 75q-79 75 -79 212q0 39 13 111l145 684h37l-145 -684q-13 -65 -13 -109q0 -124 70 -189t201 -65q175 0 307 112q131 112 184 327z" />
    <glyph glyph-name="v" unicode="v" horiz-adv-x="1093" 
d="M467 125l577 932h41l-655 -1057h-41l-217 1057h37l190 -932l17 -94z" />
    <glyph glyph-name="w" unicode="w" horiz-adv-x="1562" 
d="M1049 186l467 871h38l-569 -1057h-35l-88 895l-8 119l-57 -119l-469 -895h-35l-121 1057h37l98 -871l15 -141l67 141l457 871h35l88 -871l12 -137z" />
    <glyph glyph-name="x" unicode="x" horiz-adv-x="1085" 
d="M1020 1057h49l-510 -502l334 -555h-41l-315 535l-543 -535h-49l575 561l-301 496h39l287 -473z" />
    <glyph glyph-name="y" unicode="y" horiz-adv-x="1116" 
d="M422 -8l645 1065h41l-793 -1303q-61 -104 -120 -137q-62 -35 -179 -35h-63l8 35h53q106 0 163 33q56 33 112 123l108 180l-225 1104h37l207 -1020z" />
    <glyph glyph-name="z" unicode="z" horiz-adv-x="1069" 
d="M258 1057h770l-6 -27l-954 -995h776l-8 -35h-828l6 29l953 993h-717z" />
    <glyph glyph-name="braceleft" unicode="{" horiz-adv-x="802" 
d="M483 -420h-135q-170 0 -170 148q0 28 17 116l96 451q18 89 18 119q0 65 -44 95t-146 30l8 34q125 0 186 47q60 46 82 158l111 529q45 223 258 223h133l-6 -35h-129q-181 0 -221 -190l-111 -527q-40 -194 -199 -221v-2q115 -23 115 -137q0 -33 -18 -123l-97 -449
q-16 -80 -16 -108q0 -123 145 -123h129z" />
    <glyph glyph-name="bar" unicode="|" horiz-adv-x="913" 
d="M481 -418h-37v1948h37v-1948z" />
    <glyph glyph-name="braceright" unicode="}" horiz-adv-x="802" 
d="M51 -420h-137l6 35h133q179 0 219 190l111 527q40 194 199 221v2q-115 23 -115 137q0 33 18 123l97 449q16 80 16 108q0 123 -145 123h-129l6 35h135q170 0 170 -148q0 -28 -17 -116l-96 -451q-18 -90 -18 -119q0 -65 44 -95q43 -30 146 -30l-6 -34q-125 0 -186 -47
q-60 -47 -84 -158l-111 -529q-45 -223 -256 -223z" />
    <glyph glyph-name="asciitilde" unicode="~" horiz-adv-x="1310" 
d="M195 504h-33q0 174 69 267t185 93q67 0 119 -34q55 -36 90 -81q11 -13 35 -46t38 -50q38 -47 87 -81q47 -33 110 -33q102 0 162 86q59 84 59 239h33q0 -173 -70 -267q-69 -93 -184 -93q-67 0 -119 34q-53 35 -90 82q-5 6 -32 41.5t-42 53.5q-38 47 -87 81q-47 33 -109 33
q-102 0 -162 -86q-59 -84 -59 -239z" />
    <glyph glyph-name="uni00A0" unicode="&#xa0;" horiz-adv-x="610" 
 />
    <glyph glyph-name="exclamdown" unicode="&#xa1;" horiz-adv-x="546" 
d="M410 973h-84l18 84h84zM94 -401h-37l90 419l152 695h29l-144 -695z" />
    <glyph glyph-name="cent" unicode="&#xa2;" horiz-adv-x="1120" 
d="M678 1047q-201 0 -335 -131t-179 -369q-14 -62 -14 -139q0 -183 94 -290q94 -108 250 -108q163 0 275 89q111 88 167 249h37q-57 -174 -179 -274q-122 -99 -302 -99h-5l-57 -270h-35l58 272q-154 15 -247 131t-93 300q0 81 14 145q50 254 194 391q145 137 357 137h10
l60 283h34l-59 -285q158 -12 238 -107q79 -94 79 -237h-36q0 123 -78 219q-79 93 -248 93z" />
    <glyph glyph-name="sterling" unicode="&#xa3;" horiz-adv-x="1310" 
d="M815 1485q196 0 313 -99t117 -266q0 -25 -2 -41h-37l4 39q0 155 -106 243q-107 89 -291 89q-211 0 -340 -115q-127 -114 -127 -295q0 -68 28 -143q28 -74 103 -195h502l-6 -32h-473q57 -88 57 -195q0 -147 -108 -268q-110 -122 -275 -172h852l-6 -35h-1043l7 35h20
q197 0 358 133q158 134 158 307q0 100 -65 195h-336l6 32h309q-65 106 -96 187q-29 75 -29 153q0 195 142 320q139 123 364 123z" />
    <glyph glyph-name="currency" unicode="&#xa4;" horiz-adv-x="1310" 
d="M1253 1313l-223 -223q133 -139 133 -351q0 -209 -133 -354l223 -223l-22 -23l-223 223q-139 -133 -353 -133q-213 0 -352 133l-223 -223l-23 23l224 223q-134 146 -134 354q0 211 134 351l-224 223l23 22l223 -223q139 133 352 133q214 0 353 -133l223 223zM315 397
q133 -133 340 -133t340 133t133 340t-133 340t-340 133t-340 -133t-133 -340t133 -340z" />
    <glyph glyph-name="yen" unicode="&#xa5;" horiz-adv-x="1310" 
d="M1436 1458h45l-768 -829h485l-8 -35h-502l-51 -242h504l-11 -37h-499l-68 -315h-37l68 315h-502l8 37h500l51 242h-501l10 35h485l-420 829h45l398 -792l12 -29l25 31z" />
    <glyph glyph-name="brokenbar" unicode="&#xa6;" horiz-adv-x="913" 
d="M481 842h-37v688h37v-688zM481 -418h-37v688h37v-688z" />
    <glyph glyph-name="section" unicode="&#xa7;" horiz-adv-x="1310" 
d="M831 1440q-175 0 -279 -78q-103 -78 -103 -209q0 -189 239 -238l164 -34q297 -63 297 -273q0 -116 -88 -197q-89 -81 -234 -108q111 -69 111 -209q0 -144 -116 -233q-115 -88 -302 -88q-170 0 -269 69t-99 193h36q0 -107 90 -168q88 -60 242 -60q174 0 279 78
q104 77 104 207q0 191 -239 240l-166 35q-295 63 -295 272q0 117 88 198q89 81 233 105q-112 69 -112 211q0 145 115 233q116 89 304 89q168 0 268 -71q99 -70 99 -194h-35q0 109 -90 169q-92 61 -242 61zM840 848l-164 37q-56 7 -113 35q-146 -21 -235 -97
q-90 -77 -90 -182q0 -184 274 -244l162 -35q52 -8 106 -34q156 21 243 94q89 74 89 182q0 187 -272 244z" />
    <glyph glyph-name="dieresis" unicode="&#xa8;" horiz-adv-x="1024" 
d="M530 1360h-36l18 98h37zM885 1360h-37l20 98h37z" />
    <glyph glyph-name="copyright" unicode="&#xa9;" horiz-adv-x="1828" 
d="M1479 197q-202 -211 -521 -211q-320 0 -518 211q-202 208 -202 534q0 325 202 533q198 209 518 209q318 0 521 -209q200 -210 200 -533q0 -324 -200 -534zM958 18q301 0 496 201q191 199 191 512q0 308 -191 510q-191 199 -496 199q-304 0 -495 -199q-193 -199 -193 -510
q0 -313 193 -512q191 -201 495 -201zM958 354q-147 0 -228 102t-81 279q0 180 82 278q83 99 230 99q119 0 196 -63q75 -61 90 -160l-33 -6q-15 86 -80 141t-173 55q-135 0 -207 -89q-72 -88 -72 -255q0 -164 73 -257q72 -91 203 -91q98 0 168 53t91 146l32 -4
q-23 -107 -99 -167q-78 -61 -192 -61z" />
    <glyph glyph-name="ordfeminine" unicode="&#xaa;" horiz-adv-x="1003" 
d="M711 1485q256 0 256 -191q0 -26 -13 -98l-94 -434h-31l37 186q-57 -96 -149 -149q-94 -54 -203 -54q-107 0 -170 52q-61 51 -61 137q0 93 72 153q73 60 202 68l356 21l11 45q8 42 8 73q0 82 -53 120t-168 38q-213 0 -291 -152l-33 13q91 172 324 172zM516 778
q134 0 234 77q97 75 141 214l16 76l-344 -21q-116 -6 -181 -56t-65 -132q0 -75 54 -117q53 -41 145 -41z" />
    <glyph glyph-name="guillemotleft" unicode="&#xab;" horiz-adv-x="1472" 
d="M598 23l-10 -43l-402 526l11 45l624 522l-12 -53l-592 -498zM1171 23l-10 -43l-401 526l10 45l625 522l-13 -53l-591 -498z" />
    <glyph glyph-name="logicalnot" unicode="&#xac;" horiz-adv-x="1310" 
d="M1135 240h-35v471h-926v37h961v-508z" />
    <glyph glyph-name="uni00AD" unicode="&#xad;" horiz-adv-x="772" 
d="M666 494h-574l8 36h574z" />
    <glyph glyph-name="registered" unicode="&#xae;" horiz-adv-x="1370" 
d="M428 1331q147 142 356 142q210 0 357 -142q143 -140 143 -344t-143 -344q-145 -141 -357 -141q-210 0 -356 141q-145 141 -145 344t145 344zM784 528q198 0 336 136q135 130 135 323t-135 324q-139 133 -336 133q-199 0 -335 -133q-138 -132 -138 -324q0 -193 138 -325
q137 -134 335 -134zM991 866l6 -100q4 -36 23 -59h-29q-19 25 -20 59l-6 98q-5 58 -34 82q-31 25 -102 25h-202v-264h-29v571h227q84 0 130 -40t46 -114q0 -111 -102 -139q86 -18 92 -119zM627 997h200q148 0 148 127t-150 127h-198v-254z" />
    <glyph glyph-name="overscore" unicode="&#xaf;" horiz-adv-x="1024" 
d="M981 1358h-586l6 33h586z" />
    <glyph glyph-name="degree" unicode="&#xb0;" horiz-adv-x="921" 
d="M831 915q-94 -94 -237 -94q-144 0 -238 94t-94 238q0 146 94 240q95 92 238 92q142 0 237 -92q95 -95 95 -240q0 -143 -95 -238zM381 940q84 -86 213 -86q130 0 213 86q84 84 84 213q0 127 -84 215q-84 84 -213 84t-213 -84q-84 -88 -84 -215q0 -129 84 -213z" />
    <glyph glyph-name="plusminus" unicode="&#xb1;" horiz-adv-x="1310" 
d="M674 1178v-402h543v-37h-543v-399h-37v399h-545v37h545v402h37zM1198 63h-1083v37h1083v-37z" />
    <glyph glyph-name="two.sups" unicode="&#xb2;" horiz-adv-x="966" 
d="M854 762h-635q44 226 363 356l127 53q247 105 247 267q0 83 -59 133q-60 51 -172 51q-270 0 -332 -260h-37q30 146 129 219q100 74 242 74q126 0 196 -59q68 -58 68 -156q0 -188 -266 -295l-129 -53q-277 -114 -332 -297h598z" />
    <glyph glyph-name="three.sups" unicode="&#xb3;" horiz-adv-x="874" 
d="M510 748q-146 0 -224 71q-80 72 -81 195h35q0 -111 70 -172q71 -62 202 -62q147 0 238 71q90 71 90 183q0 84 -61 131t-173 47h-69l8 33h65q123 0 198 56q77 57 77 151q0 80 -63 125t-167 45q-124 0 -202 -56q-81 -58 -103 -159l-35 2q22 112 115 179t227 67
q122 0 192 -52q71 -53 71 -149q0 -83 -58 -144t-151 -79v-2q78 -15 122 -65t44 -128q0 -122 -101 -205t-266 -83z" />
    <glyph glyph-name="acute" unicode="&#xb4;" horiz-adv-x="1024" 
d="M602 1282h-41l242 307h47z" />
    <glyph glyph-name="uni00B5" unicode="&#xb5;" horiz-adv-x="1417" 
d="M342 -418h-37v1475h37v-684q0 -174 86 -269q85 -94 250 -94q185 0 291 121t106 354v572h37v-1057h-37l2 281q-90 -306 -401 -306q-254 0 -336 211h-2l4 -358v-246z" />
    <glyph glyph-name="paragraph" unicode="&#xb6;" horiz-adv-x="1239" 
d="M434 -211h-37l203 938q-377 0 -377 274q0 213 143 335t386 122h452l-356 -1669h-35l348 1634h-379z" />
    <glyph glyph-name="middot" unicode="&#xb7;" horiz-adv-x="503" 
d="M340 672h-117l21 96h116z" />
    <glyph glyph-name="cedilla" unicode="&#xb8;" horiz-adv-x="1024" 
d="M240 -436h-80l6 30h74q215 0 215 138q0 94 -127 94h-86l-17 27l123 147h37l-117 -141h66q77 0 117 -34q41 -35 41 -91q0 -83 -68 -127q-67 -43 -184 -43z" />
    <glyph glyph-name="one.sups" unicode="&#xb9;" horiz-adv-x="630" 
d="M487 762h-32l129 608h-312l9 33h219q50 0 71 14q23 15 33 58l37 161h33z" />
    <glyph glyph-name="ordmasculine" unicode="&#xba;" horiz-adv-x="944" 
d="M561 750q-141 0 -228 88t-87 229q0 179 112 297q112 117 281 117q139 0 224 -88t85 -230q0 -179 -110 -295q-112 -118 -277 -118zM565 782q147 0 248 107q100 101 100 270q0 132 -75 210q-76 79 -201 79q-153 0 -254 -107q-102 -108 -102 -270q0 -132 77 -210
q78 -79 207 -79z" />
    <glyph glyph-name="guillemotright" unicode="&#xbb;" horiz-adv-x="1472" 
d="M698 502l-622 -522l10 53l592 497l-379 500l10 43l400 -526zM1272 502l-623 -522l10 53l592 497l-379 500l11 43l399 -526z" />
    <glyph glyph-name="onequarter" unicode="&#xbc;" horiz-adv-x="2201" 
d="M604 657h-35l129 609h-309l8 32h219q50 0 72 15q23 15 33 57l35 162h35zM508 -31h-45l1237 1520h43zM1702 0h-35l53 244h-530l6 30l657 600h35l-127 -598h154l-6 -32h-156zM1841 827l-602 -551h487l117 549z" />
    <glyph glyph-name="onehalf" unicode="&#xbd;" horiz-adv-x="2308" 
d="M604 657h-35l129 609h-309l8 32h219q50 0 72 15q23 15 33 57l35 162h35zM508 -31h-45l1237 1520h43zM1962 0h-633q43 223 361 356l129 54q245 102 245 266q0 82 -60 133t-169 51q-275 0 -332 -260h-37q30 145 128 219t241 74q129 0 197 -58q69 -59 69 -157
q0 -188 -266 -295l-131 -53q-278 -115 -330 -297h596z" />
    <glyph glyph-name="threequarters" unicode="&#xbe;" horiz-adv-x="2308" 
d="M580 643q-148 0 -227 72t-79 194h35q0 -110 70 -172q68 -61 203 -61q148 0 237 70q90 70 90 184q0 84 -60 131q-61 47 -173 47h-70l8 33h66q123 0 198 56q76 57 76 149q0 83 -62 127q-63 45 -167 45q-123 0 -203 -57t-102 -158l-35 2q24 112 115 179q90 66 225 66
q120 0 193 -53q71 -52 71 -147q0 -83 -58 -144q-59 -62 -151 -80v-2q78 -15 121 -64t43 -128q0 -125 -101 -207t-263 -82zM651 -31h-43l1237 1520h43zM1847 0h-35l52 244h-529l6 30l656 600h37l-127 -598h153l-8 -32h-154zM1985 827l-601 -551h488l117 549z" />
    <glyph glyph-name="questiondown" unicode="&#xbf;" horiz-adv-x="1265" 
d="M807 973h-84l16 84h84zM469 -416q-192 0 -305 86t-113 242q0 130 78 224t236 177l69 37q118 62 171 133q54 72 81 195l6 37h37l-8 -41q-27 -134 -88 -213q-62 -81 -221 -160q-170 -84 -247 -173t-77 -214q0 -143 101 -219t280 -76q207 0 342 106q132 104 170 295h37
q-39 -208 -182 -321q-145 -115 -367 -115z" />
    <glyph glyph-name="Agrave" unicode="&#xc0;" horiz-adv-x="1468" 
d="M825 1991l174 -308h-36l-183 308h45zM1274 0h-39l-109 492h-798l-318 -492h-41l949 1468h30zM905 1386l-553 -858h766l-186 854l-6 37z" />
    <glyph glyph-name="Aacute" unicode="&#xc1;" horiz-adv-x="1468" 
d="M1092 1991h47l-248 -308h-41zM1274 0h-39l-109 492h-798l-318 -492h-41l949 1468h30zM905 1386l-553 -858h766l-186 854l-6 37z" />
    <glyph glyph-name="Acircumflex" unicode="&#xc2;" horiz-adv-x="1468" 
d="M1235 1659l-197 301l-323 -301h-47l354 332h37l217 -332h-41zM-31 0l949 1468h30l326 -1468h-39l-109 492h-798l-318 -492h-41zM905 1386l-553 -858h766l-186 854l-6 37z" />
    <glyph glyph-name="Atilde" unicode="&#xc3;" horiz-adv-x="1468" 
d="M1384 2003h33q-41 -163 -102 -236t-150 -73q-64 0 -104 43q-41 44 -57 95t-54 95q-37 43 -94 43q-142 0 -215 -276h-35q79 309 254 309q65 0 105 -43q41 -44 57 -95q17 -54 53 -96q37 -43 96 -43q70 0 121 66q52 67 92 211zM-31 0l949 1468h30l326 -1468h-39l-109 492
h-798l-318 -492h-41zM905 1386l-553 -858h766l-186 854l-6 37z" />
    <glyph glyph-name="Adieresis" unicode="&#xc4;" horiz-adv-x="1468" 
d="M772 1810h74l-25 -122h-76zM1165 1810h74l-27 -122h-73zM1274 0h-39l-109 492h-798l-318 -492h-41l949 1468h30zM905 1386l-553 -858h766l-186 854l-6 37z" />
    <glyph glyph-name="Aring" unicode="&#xc5;" horiz-adv-x="1468" 
d="M1274 0h-39l-109 492h-798l-318 -492h-41l930 1440q-79 17 -126 74q-48 58 -48 139q0 96 62 158q63 63 159 63t159 -63q62 -62 62 -158q0 -94 -59 -153t-152 -64zM760 1653q0 -79 53 -132t133 -53q81 0 135 51t54 134q0 82 -54 136q-52 52 -135 52q-82 0 -134 -52
t-52 -136zM905 1386l-553 -858h766l-186 854l-6 37z" />
    <glyph glyph-name="AE" unicode="&#xc6;" horiz-adv-x="2324" 
d="M2331 1458l-9 -35h-919l-135 -641h860l-6 -34h-862l-152 -713h960l-10 -35h-995l104 489h-733l-422 -489h-43l1258 1458h1104zM1241 1423l-776 -899h711l190 899h-125z" />
    <glyph glyph-name="Ccedilla" unicode="&#xc7;" horiz-adv-x="1525" 
d="M985 1448q-272 0 -463 -179q-190 -178 -258 -499q-24 -114 -24 -211q0 -246 133 -397q134 -152 364 -152q243 0 418 160q156 144 207 322h37q-63 -226 -248 -373q-180 -144 -418 -144h-24l-107 -129h66q77 0 116 -33q41 -35 41 -92q0 -84 -67 -127t-185 -43h-79l6 31h73
q215 0 215 137q0 95 -126 95h-87l-16 26l115 137q-221 21 -346 181q-125 157 -125 401q0 93 22 207q72 336 275 526q203 191 489 191q234 0 373 -127t139 -340h-37q-1 200 -130 316q-128 116 -349 116z" />
    <glyph glyph-name="Egrave" unicode="&#xc8;" horiz-adv-x="1380" 
d="M823 1991l174 -308h-36l-183 308h45zM1386 1458l-8 -35h-919l-135 -641h860l-6 -34h-863l-151 -713h958l-8 -35h-995l311 1458h956z" />
    <glyph glyph-name="Eacute" unicode="&#xc9;" horiz-adv-x="1380" 
d="M1090 1991h47l-248 -308h-41zM1386 1458l-8 -35h-919l-135 -641h860l-6 -34h-863l-151 -713h958l-8 -35h-995l311 1458h956z" />
    <glyph glyph-name="Ecircumflex" unicode="&#xca;" horiz-adv-x="1380" 
d="M1233 1659l-197 301l-323 -301h-47l354 332h37l217 -332h-41zM1386 1458l-8 -35h-919l-135 -641h860l-6 -34h-863l-151 -713h958l-8 -35h-995l311 1458h956z" />
    <glyph glyph-name="Edieresis" unicode="&#xcb;" horiz-adv-x="1380" 
d="M770 1810h74l-25 -122h-76zM1163 1810h74l-27 -122h-73zM1386 1458l-8 -35h-919l-135 -641h860l-6 -34h-863l-151 -713h958l-8 -35h-995l311 1458h956z" />
    <glyph glyph-name="Igrave" unicode="&#xcc;" horiz-adv-x="499" 
d="M516 1683h-37l-182 308h45zM156 0h-37l311 1458h37z" />
    <glyph glyph-name="Iacute" unicode="&#xcd;" horiz-adv-x="499" 
d="M408 1683h-41l241 308h47zM156 0h-37l311 1458h37z" />
    <glyph glyph-name="Icircumflex" unicode="&#xce;" horiz-adv-x="499" 
d="M233 1659h-47l355 332h37l217 -332h-41l-197 301zM156 0h-37l311 1458h37z" />
    <glyph glyph-name="Idieresis" unicode="&#xcf;" horiz-adv-x="499" 
d="M338 1688h-74l25 122h76zM731 1688h-76l27 122h76zM156 0h-37l311 1458h37z" />
    <glyph glyph-name="Eth" unicode="&#xd0;" horiz-adv-x="1683" 
d="M596 1458h453q266 0 404 -135t138 -385q0 -93 -22 -215q-69 -345 -278 -535q-207 -188 -543 -188h-463l155 727l-352 -2l6 35h352zM1532 729q22 122 22 211q0 231 -129 357t-381 126h-419l-142 -663h449l-6 -35l-449 2l-147 -692h418q321 0 518 181q199 182 266 513z" />
    <glyph glyph-name="Ntilde" unicode="&#xd1;" horiz-adv-x="1542" 
d="M895 1970q-141 0 -215 -276h-33q77 309 252 309q65 0 105 -43q41 -44 57 -95q17 -54 53 -96q37 -43 96 -43q70 0 121 66q52 67 92 211h33q-76 -309 -250 -309q-62 0 -103 40q-44 42 -61 99q-45 137 -147 137zM1176 55l299 1403h34l-311 -1458h-33l-710 1405l-299 -1405
h-37l311 1458h33z" />
    <glyph glyph-name="Ograve" unicode="&#xd2;" horiz-adv-x="1689" 
d="M1065 1686h-37l-182 307h45zM748 -25q-255 0 -400 160q-145 157 -145 420q0 110 20 201q66 329 283 526q217 201 518 201q262 0 406 -156q143 -155 143 -420q0 -109 -21 -205q-66 -329 -278 -526q-219 -201 -526 -201zM752 10q288 0 495 195q203 191 269 506
q20 91 20 196q0 254 -136 397q-136 144 -380 144q-285 0 -492 -193q-207 -195 -268 -507q-20 -86 -20 -191q0 -246 137 -397q137 -150 375 -150z" />
    <glyph glyph-name="Oacute" unicode="&#xd3;" horiz-adv-x="1689" 
d="M956 1686h-41l242 307h47zM748 -25q-255 0 -400 160q-145 157 -145 420q0 110 20 201q66 329 283 526q217 201 518 201q262 0 406 -156q143 -155 143 -420q0 -109 -21 -205q-66 -329 -278 -526q-219 -201 -526 -201zM752 10q288 0 495 195q203 191 269 506q20 91 20 196
q0 254 -136 397q-136 144 -380 144q-285 0 -492 -193q-207 -195 -268 -507q-20 -86 -20 -191q0 -246 137 -397q137 -150 375 -150z" />
    <glyph glyph-name="Ocircumflex" unicode="&#xd4;" horiz-adv-x="1689" 
d="M780 1661h-47l354 332h37l217 -332h-41l-196 301zM748 -25q-255 0 -400 160q-145 157 -145 420q0 110 20 201q66 329 283 526q217 201 518 201q262 0 406 -156q143 -155 143 -420q0 -109 -21 -205q-66 -329 -278 -526q-219 -201 -526 -201zM752 10q288 0 495 195
q203 191 269 506q20 91 20 196q0 254 -136 397q-136 144 -380 144q-285 0 -492 -193q-207 -195 -268 -507q-20 -86 -20 -191q0 -246 137 -397q137 -150 375 -150z" />
    <glyph glyph-name="Otilde" unicode="&#xd5;" horiz-adv-x="1689" 
d="M707 1696h-33q76 309 252 309q64 0 104 -43q41 -44 57 -95t54 -95q37 -43 96 -43q71 0 121 65q52 67 92 211h33q-77 -309 -250 -309q-63 0 -104 40q-43 41 -60 99q-45 137 -147 137q-142 0 -215 -276zM748 -25q-255 0 -400 160q-145 157 -145 420q0 110 20 201
q66 329 283 526q217 201 518 201q262 0 406 -156q143 -155 143 -420q0 -109 -21 -205q-66 -329 -278 -526q-219 -201 -526 -201zM752 10q288 0 495 195q203 191 269 506q20 91 20 196q0 254 -136 397q-136 144 -380 144q-285 0 -492 -193q-207 -195 -268 -507
q-20 -86 -20 -191q0 -246 137 -397q137 -150 375 -150z" />
    <glyph glyph-name="Odieresis" unicode="&#xd6;" horiz-adv-x="1689" 
d="M887 1690h-76l27 122h73zM1278 1690h-74l27 122h74zM748 -25q-255 0 -400 160q-145 157 -145 420q0 110 20 201q66 329 283 526q217 201 518 201q262 0 406 -156q143 -155 143 -420q0 -109 -21 -205q-66 -329 -278 -526q-219 -201 -526 -201zM752 10q288 0 495 195
q203 191 269 506q20 91 20 196q0 254 -136 397q-136 144 -380 144q-285 0 -492 -193q-207 -195 -268 -507q-20 -86 -20 -191q0 -246 137 -397q137 -150 375 -150z" />
    <glyph glyph-name="multiply" unicode="&#xd7;" horiz-adv-x="1310" 
d="M653 610l-458 -460l-25 26l461 459l-461 457l25 26l458 -461l459 461l27 -24l-461 -459l461 -461l-27 -24z" />
    <glyph glyph-name="Oslash" unicode="&#xd8;" horiz-adv-x="1689" 
d="M1655 1460l20 -20l-194 -180q92 -145 92 -353q0 -109 -21 -205q-66 -329 -278 -526q-219 -201 -526 -201q-292 0 -439 209l-203 -186l-18 20l205 189q-90 145 -90 348q0 110 20 201q66 329 283 526q217 201 518 201q289 0 440 -199zM240 557q0 -191 82 -324l1114 1027
q-139 188 -416 188q-285 0 -492 -193q-207 -195 -268 -507q-20 -86 -20 -191zM1536 907q0 195 -84 328l-1116 -1026q137 -199 416 -199q288 0 495 195q203 191 269 506q20 91 20 196z" />
    <glyph glyph-name="Ugrave" unicode="&#xd9;" horiz-adv-x="1536" 
d="M995 1683h-37l-182 308h45zM678 -25q-221 0 -346 92t-125 277q0 66 18 148l205 966h37l-207 -975q-16 -80 -16 -135q0 -172 114 -255q115 -83 320 -83q481 0 582 473l206 975h37l-207 -975q-108 -508 -618 -508z" />
    <glyph glyph-name="Uacute" unicode="&#xda;" horiz-adv-x="1536" 
d="M887 1683h-41l241 308h48zM678 -25q-221 0 -346 92t-125 277q0 66 18 148l205 966h37l-207 -975q-16 -80 -16 -135q0 -172 114 -255q115 -83 320 -83q481 0 582 473l206 975h37l-207 -975q-108 -508 -618 -508z" />
    <glyph glyph-name="Ucircumflex" unicode="&#xdb;" horiz-adv-x="1536" 
d="M711 1659h-47l354 332h37l217 -332h-41l-197 301zM678 -25q-221 0 -346 92t-125 277q0 66 18 148l205 966h37l-207 -975q-16 -80 -16 -135q0 -172 114 -255q115 -83 320 -83q481 0 582 473l206 975h37l-207 -975q-108 -508 -618 -508z" />
    <glyph glyph-name="Udieresis" unicode="&#xdc;" horiz-adv-x="1536" 
d="M817 1688h-76l27 122h74zM1208 1688h-73l26 122h74zM678 -25q-221 0 -346 92t-125 277q0 66 18 148l205 966h37l-207 -975q-16 -80 -16 -135q0 -172 114 -255q115 -83 320 -83q481 0 582 473l206 975h37l-207 -975q-108 -508 -618 -508z" />
    <glyph glyph-name="Yacute" unicode="&#xdd;" horiz-adv-x="1370" 
d="M1044 1991h48l-248 -308h-41zM1462 1458h49l-792 -872l-127 -586h-37l127 586l-426 872h41l393 -813l12 -31l25 31z" />
    <glyph glyph-name="Thorn" unicode="&#xde;" horiz-adv-x="1333" 
d="M401 1153h496q180 0 281 -80q100 -79 100 -227q0 -224 -150 -354q-152 -132 -393 -132h-502l-77 -360h-37l311 1458h37zM240 395h497q231 0 367 123q137 123 137 328q0 129 -93 201q-92 71 -253 71h-500z" />
    <glyph glyph-name="germandbls" unicode="&#xdf;" horiz-adv-x="1232" 
d="M776 801q311 -49 311 -334q0 -209 -157 -338q-156 -129 -402 -129h-168l9 35h163q228 0 373 121q146 122 146 311q0 313 -410 313h-115l6 35h109q212 0 348 92q135 92 135 256q0 132 -92 209q-91 76 -256 76q-172 0 -281 -94t-147 -273l-229 -1081h-39l229 1079
q40 196 161 300t308 104q179 0 281 -84t102 -234q0 -142 -105 -241t-280 -123z" />
    <glyph glyph-name="agrave" unicode="&#xe0;" horiz-adv-x="1183" 
d="M575 1589l175 -307h-37l-183 307h45zM1024 33h33l-6 -33h-31q-116 0 -151 59q-36 59 -7 195l2 12q-144 -291 -475 -291q-153 0 -236 72t-83 191q0 277 385 329l270 37q122 18 177 63q53 44 71 130q28 124 -55 187q-84 63 -256 63q-179 0 -275 -73q-94 -71 -133 -224
l-37 2q79 329 451 329q172 0 260 -58t88 -159q0 -37 -6 -67l-115 -549q-24 -117 4 -166t125 -49zM399 8q351 0 488 371l61 297q-52 -82 -221 -103l-266 -38q-354 -49 -354 -295q0 -107 74 -169q75 -63 218 -63z" />
    <glyph glyph-name="aacute" unicode="&#xe1;" horiz-adv-x="1183" 
d="M842 1589h47l-248 -307h-41zM1024 33h33l-6 -33h-31q-116 0 -151 59q-36 59 -7 195l2 12q-144 -291 -475 -291q-153 0 -236 72t-83 191q0 277 385 329l270 37q122 18 177 63q53 44 71 130q28 124 -55 187q-84 63 -256 63q-179 0 -275 -73q-94 -71 -133 -224l-37 2
q79 329 451 329q172 0 260 -58t88 -159q0 -37 -6 -67l-115 -549q-24 -117 4 -166t125 -49zM399 8q351 0 488 371l61 297q-52 -82 -221 -103l-266 -38q-354 -49 -354 -295q0 -107 74 -169q75 -63 218 -63z" />
    <glyph glyph-name="acircumflex" unicode="&#xe2;" horiz-adv-x="1183" 
d="M987 1257l-196 302l-326 -302h-45l354 332h37l215 -332h-39zM1024 33h33l-6 -33h-31q-116 0 -151 59q-36 59 -7 195l2 12q-144 -291 -475 -291q-153 0 -236 72t-83 191q0 277 385 329l270 37q122 18 177 63q53 44 71 130q28 124 -55 187q-84 63 -256 63q-179 0 -275 -73
q-94 -71 -133 -224l-37 2q79 329 451 329q172 0 260 -58t88 -159q0 -37 -6 -67l-115 -549q-24 -117 4 -166t125 -49zM399 8q351 0 488 371l61 297q-52 -82 -221 -103l-266 -38q-354 -49 -354 -295q0 -107 74 -169q75 -63 218 -63z" />
    <glyph glyph-name="atilde" unicode="&#xe3;" horiz-adv-x="1183" 
d="M602 1569q-139 0 -213 -277h-35q80 310 254 310q117 0 162 -138q45 -139 150 -139q69 0 119 65q51 66 91 212h35q-80 -310 -252 -310q-66 0 -106 43q-41 43 -57 96q-16 51 -54 95q-37 43 -94 43zM1010 797l-115 -549q-24 -117 4 -166t125 -49h33l-6 -33h-31
q-116 0 -151 59q-36 59 -7 195l2 12q-144 -291 -475 -291q-153 0 -236 72t-83 191q0 277 385 329l270 37q122 18 177 63q53 44 71 130q28 124 -55 187q-84 63 -256 63q-179 0 -275 -73q-94 -71 -133 -224l-37 2q79 329 451 329q172 0 260 -58t88 -159q0 -37 -6 -67zM399 8
q351 0 488 371l61 297q-52 -82 -221 -103l-266 -38q-354 -49 -354 -295q0 -107 74 -169q75 -63 218 -63z" />
    <glyph glyph-name="adieresis" unicode="&#xe4;" horiz-adv-x="1183" 
d="M569 1458h37l-20 -98h-37zM926 1458h37l-21 -98h-37zM1024 33h33l-6 -33h-31q-116 0 -151 59q-36 59 -7 195l2 12q-144 -291 -475 -291q-153 0 -236 72t-83 191q0 277 385 329l270 37q122 18 177 63q53 44 71 130q28 124 -55 187q-84 63 -256 63q-179 0 -275 -73
q-94 -71 -133 -224l-37 2q79 329 451 329q172 0 260 -58t88 -159q0 -37 -6 -67l-115 -549q-24 -117 4 -166t125 -49zM399 8q351 0 488 371l61 297q-52 -82 -221 -103l-266 -38q-354 -49 -354 -295q0 -107 74 -169q75 -63 218 -63z" />
    <glyph glyph-name="aring" unicode="&#xe5;" horiz-adv-x="1183" 
d="M924 1286q-62 -61 -160 -61q-97 0 -158 61q-63 62 -63 156q0 97 62 159t159 62t159 -62t62 -159q0 -95 -61 -156zM764 1630q-82 0 -134 -52t-52 -136q0 -79 53 -132t133 -53q81 0 135 51q53 50 53 134q0 83 -53 136q-52 52 -135 52zM1024 33h33l-6 -33h-31
q-116 0 -151 59q-36 59 -7 195l2 12q-144 -291 -475 -291q-153 0 -236 72t-83 191q0 277 385 329l270 37q122 18 177 63q53 44 71 130q28 124 -55 187q-84 63 -256 63q-179 0 -275 -73q-94 -71 -133 -224l-37 2q79 329 451 329q172 0 260 -58t88 -159q0 -37 -6 -67
l-115 -549q-24 -117 4 -166t125 -49zM399 8q351 0 488 371l61 297q-52 -82 -221 -103l-266 -38q-354 -49 -354 -295q0 -107 74 -169q75 -63 218 -63z" />
    <glyph glyph-name="ae" unicode="&#xe6;" horiz-adv-x="1961" 
d="M961 530v-2l-9 -32q-10 -63 -10 -127q0 -169 90 -264t254 -95t277 86q112 82 174 197l37 -2q-54 -118 -187 -219q-132 -97 -305 -97q-170 0 -269 97q-98 97 -104 268q-68 -175 -207 -269q-142 -96 -321 -96q-144 0 -226 77q-81 76 -81 194q0 158 120 246q119 88 316 88
h426l37 178q8 37 8 73q0 216 -307 216q-164 0 -260 -67q-94 -66 -144 -206h-37q94 307 449 307q166 0 250 -62q86 -63 86 -179q0 -31 -6 -68q80 147 207 228t284 81q175 0 271 -99t96 -267q0 -46 -25 -168h-880l-4 -15v-2zM1497 1047q-189 0 -330 -126q-140 -125 -196 -341
h846q16 74 16 127q0 157 -87 248q-87 92 -249 92zM385 8q195 0 334 111q140 111 186 321l23 107h-428q-182 0 -286 -77q-103 -76 -103 -222q0 -102 72 -171t202 -69z" />
    <glyph glyph-name="ccedilla" unicode="&#xe7;" horiz-adv-x="1120" 
d="M678 1047q-201 0 -335 -131t-179 -369q-14 -62 -14 -139q0 -183 94 -290q94 -108 250 -108q163 0 275 89q111 88 167 249h37q-57 -174 -179 -274q-122 -99 -302 -99h-9l-106 -129h65q78 0 117 -33q41 -35 41 -92q0 -83 -68 -127q-67 -43 -184 -43h-80l6 31h74
q215 0 215 137q0 95 -127 95h-86l-16 26l115 137q-153 16 -245 133q-91 115 -91 298q0 81 14 145q50 254 194 391q145 137 357 137q186 0 276 -102q86 -103 86 -244h-36q0 123 -78 219q-79 93 -248 93z" />
    <glyph glyph-name="egrave" unicode="&#xe8;" horiz-adv-x="1173" 
d="M588 1589l174 -307h-37l-182 307h45zM1055 547h-891q-14 -62 -14 -141q0 -181 98 -288q99 -108 260 -108q179 0 293 96t160 216l34 -3q-45 -130 -172 -237q-125 -107 -315 -107q-179 0 -287 118q-108 119 -108 315q0 79 16 155q52 238 205 379q151 139 358 139
q179 0 281 -102t102 -274q0 -82 -20 -158zM692 1047q-187 0 -330 -127q-139 -124 -192 -340h856q14 67 14 122q0 158 -93 251q-94 94 -255 94z" />
    <glyph glyph-name="eacute" unicode="&#xe9;" horiz-adv-x="1173" 
d="M854 1589h47l-248 -307h-41zM1055 547h-891q-14 -62 -14 -141q0 -181 98 -288q99 -108 260 -108q179 0 293 96t160 216l34 -3q-45 -130 -172 -237q-125 -107 -315 -107q-179 0 -287 118q-108 119 -108 315q0 79 16 155q52 238 205 379q151 139 358 139q179 0 281 -102
t102 -274q0 -82 -20 -158zM692 1047q-187 0 -330 -127q-139 -124 -192 -340h856q14 67 14 122q0 158 -93 251q-94 94 -255 94z" />
    <glyph glyph-name="ecircumflex" unicode="&#xea;" horiz-adv-x="1173" 
d="M999 1257l-196 302l-326 -302h-45l354 332h37l215 -332h-39zM1055 547h-891q-14 -62 -14 -141q0 -181 98 -288q99 -108 260 -108q179 0 293 96t160 216l34 -3q-45 -130 -172 -237q-125 -107 -315 -107q-179 0 -287 118q-108 119 -108 315q0 79 16 155q52 238 205 379
q151 139 358 139q179 0 281 -102t102 -274q0 -82 -20 -158zM692 1047q-187 0 -330 -127q-139 -124 -192 -340h856q14 67 14 122q0 158 -93 251q-94 94 -255 94z" />
    <glyph glyph-name="edieresis" unicode="&#xeb;" horiz-adv-x="1173" 
d="M582 1458h36l-20 -98h-37zM938 1458h37l-21 -98h-36zM1055 547h-891q-14 -62 -14 -141q0 -181 98 -288q99 -108 260 -108q179 0 293 96t160 216l34 -3q-45 -130 -172 -237q-125 -107 -315 -107q-179 0 -287 118q-108 119 -108 315q0 79 16 155q52 238 205 379
q151 139 358 139q179 0 281 -102t102 -274q0 -82 -20 -158zM692 1047q-187 0 -330 -127q-139 -124 -192 -340h856q14 67 14 122q0 158 -93 251q-94 94 -255 94z" />
    <glyph glyph-name="igrave" unicode="&#xec;" horiz-adv-x="419" 
d="M391 1282h-37l-182 307h45zM117 0h-37l225 1057h37z" />
    <glyph glyph-name="iacute" unicode="&#xed;" horiz-adv-x="419" 
d="M283 1282h-41l241 307h47zM117 0h-37l225 1057h37z" />
    <glyph glyph-name="icircumflex" unicode="&#xee;" horiz-adv-x="419" 
d="M104 1257h-45l355 332h37l215 -332h-39l-197 302zM117 0h-37l225 1057h37z" />
    <glyph glyph-name="idieresis" unicode="&#xef;" horiz-adv-x="419" 
d="M229 1360h-36l20 98h37zM584 1360h-37l20 98h37zM117 0h-35l223 1057h37z" />
    <glyph glyph-name="eth" unicode="&#xf0;" horiz-adv-x="1155" 
d="M1110 1477l-307 -195q250 -237 250 -563q0 -305 -156 -518q-156 -215 -418 -215q-173 0 -277 101q-106 103 -106 265q0 236 160 410q158 170 391 170q144 0 243 -69q100 -70 124 -193q2 14 2 47q0 317 -246 545l-276 -179l-15 27l269 172q-98 89 -259 174l21 29
q161 -85 270 -182l312 200zM993 522l6 21l5 22q-8 159 -102 246q-94 86 -259 86q-218 0 -364 -158q-146 -163 -146 -385q0 -147 95 -240q96 -94 253 -94q193 0 328 132q133 130 184 370z" />
    <glyph glyph-name="ntilde" unicode="&#xf1;" horiz-adv-x="1191" 
d="M1169 1602h35q-80 -310 -252 -310q-66 0 -106 43q-42 45 -58 96q-17 53 -53 95q-37 43 -94 43q-139 0 -213 -277h-35q80 310 254 310q117 0 162 -138q45 -139 149 -139q70 0 120 65q51 66 91 212zM741 1081q147 0 225 -74t78 -212q0 -45 -12 -111l-145 -684h-37l145 684
q13 65 13 109q0 124 -70 189t-201 65q-175 0 -307 -112q-131 -112 -184 -327l-129 -608h-37l225 1057h37l-61 -281q152 305 460 305z" />
    <glyph glyph-name="ograve" unicode="&#xf2;" horiz-adv-x="1210" 
d="M786 1282h-36l-183 307h45zM514 -25q-185 0 -293 117t-108 314q0 85 14 149q47 244 203 385q153 141 368 141q185 0 293 -115q109 -117 109 -311q0 -57 -17 -151q-45 -247 -197 -387q-154 -142 -372 -142zM514 10q203 0 345 133q143 134 188 367q16 89 16 145
q0 182 -99 287t-268 105q-196 0 -342 -134q-143 -134 -190 -366q-14 -62 -14 -141q0 -183 99 -289q99 -107 265 -107z" />
    <glyph glyph-name="oacute" unicode="&#xf3;" horiz-adv-x="1210" 
d="M678 1282h-41l242 307h47zM514 -25q-185 0 -293 117t-108 314q0 85 14 149q47 244 203 385q153 141 368 141q185 0 293 -115q109 -117 109 -311q0 -57 -17 -151q-45 -247 -197 -387q-154 -142 -372 -142zM514 10q203 0 345 133q143 134 188 367q16 89 16 145
q0 182 -99 287t-268 105q-196 0 -342 -134q-143 -134 -190 -366q-14 -62 -14 -141q0 -183 99 -289q99 -107 265 -107z" />
    <glyph glyph-name="ocircumflex" unicode="&#xf4;" horiz-adv-x="1210" 
d="M502 1257h-45l354 332h37l215 -332h-39l-197 302zM514 -25q-185 0 -293 117t-108 314q0 85 14 149q47 244 203 385q153 141 368 141q185 0 293 -115q109 -117 109 -311q0 -57 -17 -151q-45 -247 -197 -387q-154 -142 -372 -142zM514 10q203 0 345 133q143 134 188 367
q16 89 16 145q0 182 -99 287t-268 105q-196 0 -342 -134q-143 -134 -190 -366q-14 -62 -14 -141q0 -183 99 -289q99 -107 265 -107z" />
    <glyph glyph-name="otilde" unicode="&#xf5;" horiz-adv-x="1210" 
d="M424 1292h-35q80 310 254 310q117 0 162 -138q45 -139 149 -139q70 0 120 65q51 66 91 212h35q-80 -310 -252 -310q-66 0 -106 43q-42 45 -58 96q-17 53 -53 95q-37 43 -94 43q-139 0 -213 -277zM514 -25q-185 0 -293 117t-108 314q0 85 14 149q47 244 203 385
q153 141 368 141q185 0 293 -115q109 -117 109 -311q0 -57 -17 -151q-45 -247 -197 -387q-154 -142 -372 -142zM514 10q203 0 345 133q143 134 188 367q16 89 16 145q0 182 -99 287t-268 105q-196 0 -342 -134q-143 -134 -190 -366q-14 -62 -14 -141q0 -183 99 -289
q99 -107 265 -107z" />
    <glyph glyph-name="odieresis" unicode="&#xf6;" horiz-adv-x="1210" 
d="M623 1360h-37l20 98h37zM979 1360h-37l21 98h36zM514 -25q-185 0 -293 117t-108 314q0 85 14 149q47 244 203 385q153 141 368 141q185 0 293 -115q109 -117 109 -311q0 -57 -17 -151q-45 -247 -197 -387q-154 -142 -372 -142zM514 10q203 0 345 133q143 134 188 367
q16 89 16 145q0 182 -99 287t-268 105q-196 0 -342 -134q-143 -134 -190 -366q-14 -62 -14 -141q0 -183 99 -289q99 -107 265 -107z" />
    <glyph glyph-name="divide" unicode="&#xf7;" horiz-adv-x="1310" 
d="M717 926h-123v102h123v-102zM1202 614h-1093v37h1093v-37zM717 238h-123v102h123v-102z" />
    <glyph glyph-name="oslash" unicode="&#xf8;" horiz-adv-x="1210" 
d="M1159 1081l23 -20l-150 -148q68 -107 68 -258q0 -57 -17 -151q-45 -247 -197 -387q-154 -142 -372 -142q-198 0 -305 131l-137 -133l-23 21l141 137q-77 107 -77 275q0 85 14 149q47 244 203 385q153 141 368 141q208 0 316 -141zM150 406q0 -148 67 -248l770 755
q-99 134 -291 134q-197 0 -342 -134q-144 -133 -190 -366q-14 -62 -14 -141zM1063 655q0 137 -57 232l-770 -754q99 -123 278 -123q204 0 344 133q143 135 189 367q16 89 16 145z" />
    <glyph glyph-name="ugrave" unicode="&#xf9;" horiz-adv-x="1191" 
d="M582 1589l174 -307h-37l-182 307h45zM946 449l129 608h37l-225 -1057h-37l61 281q-152 -306 -460 -306q-145 0 -225 75q-79 75 -79 212q0 39 13 111l145 684h37l-145 -684q-13 -65 -13 -109q0 -124 70 -189t201 -65q175 0 307 112q131 112 184 327z" />
    <glyph glyph-name="uacute" unicode="&#xfa;" horiz-adv-x="1191" 
d="M848 1589h47l-248 -307h-41zM946 449l129 608h37l-225 -1057h-37l61 281q-152 -306 -460 -306q-145 0 -225 75q-79 75 -79 212q0 39 13 111l145 684h37l-145 -684q-13 -65 -13 -109q0 -124 70 -189t201 -65q175 0 307 112q131 112 184 327z" />
    <glyph glyph-name="ucircumflex" unicode="&#xfb;" horiz-adv-x="1191" 
d="M993 1257l-196 302l-326 -302h-45l354 332h37l215 -332h-39zM946 449l129 608h37l-225 -1057h-37l61 281q-152 -306 -460 -306q-145 0 -225 75q-79 75 -79 212q0 39 13 111l145 684h37l-145 -684q-13 -65 -13 -109q0 -124 70 -189t201 -65q175 0 307 112q131 112 184 327
z" />
    <glyph glyph-name="udieresis" unicode="&#xfc;" horiz-adv-x="1191" 
d="M575 1458h37l-20 -98h-37zM932 1458h37l-21 -98h-37zM946 449l129 608h37l-225 -1057h-37l61 281q-152 -306 -460 -306q-145 0 -225 75q-79 75 -79 212q0 39 13 111l145 684h37l-145 -684q-13 -65 -13 -109q0 -124 70 -189t201 -65q175 0 307 112q131 112 184 327z" />
    <glyph glyph-name="yacute" unicode="&#xfd;" horiz-adv-x="1116" 
d="M801 1589h47l-248 -307h-41zM422 -8l645 1065h41l-793 -1301q-60 -103 -120 -139q-67 -35 -179 -35h-63l8 35h53q106 0 163 33q56 33 112 123l108 180l-227 1104h39l207 -1020z" />
    <glyph glyph-name="thorn" unicode="&#xfe;" horiz-adv-x="1226" 
d="M748 1081q172 0 269 -111q97 -110 97 -304q0 -282 -149 -486q-150 -205 -396 -205q-161 0 -265 93q-102 91 -118 247l-155 -733h-37l397 1876h37l-147 -702q70 148 193 236q125 89 274 89zM571 10q150 0 270 96q119 95 181 247q61 149 55 313q0 176 -89 279
q-89 102 -247 102q-225 0 -376 -207q-152 -212 -152 -465q0 -167 96 -266t262 -99z" />
    <glyph glyph-name="ydieresis" unicode="&#xff;" horiz-adv-x="1116" 
d="M528 1458h37l-20 -98h-37zM885 1458h37l-21 -98h-37zM422 -8l645 1065h41l-793 -1301q-60 -103 -120 -139q-67 -35 -179 -35h-63l8 35h53q106 0 163 33q56 33 112 123l108 180l-227 1104h39l207 -1020z" />
    <glyph glyph-name="Amacron" unicode="&#x100;" horiz-adv-x="1468" 
d="M702 1759l7 33h585l-6 -33h-586zM-31 0l949 1468h30l326 -1468h-39l-109 492h-798l-318 -492h-41zM905 1386l-553 -858h766l-186 854l-6 37z" />
    <glyph glyph-name="amacron" unicode="&#x101;" horiz-adv-x="1183" 
d="M459 1391h585l-6 -33h-585zM1024 33h33l-6 -33h-31q-116 0 -151 59q-36 59 -7 195l2 12q-144 -291 -475 -291q-153 0 -236 72t-83 191q0 277 385 329l270 37q122 18 177 63q53 44 71 130q28 124 -55 187q-84 63 -256 63q-179 0 -275 -73q-94 -71 -133 -224l-37 2
q79 329 451 329q172 0 260 -58t88 -159q0 -37 -6 -67l-115 -549q-24 -117 4 -166t125 -49zM399 8q351 0 488 371l61 297q-52 -82 -221 -103l-266 -38q-354 -49 -354 -295q0 -107 74 -169q75 -63 218 -63z" />
    <glyph glyph-name="Abreve" unicode="&#x102;" horiz-adv-x="1468" 
d="M983 1671q-283 0 -283 201q0 23 7 63h32q-6 -30 -6 -59q0 -172 250 -172q276 0 342 231h33q-72 -264 -375 -264zM-31 0l949 1468h30l326 -1468h-39l-109 492h-798l-318 -492h-41zM905 1386l-553 -858h766l-186 854l-6 37z" />
    <glyph glyph-name="abreve" unicode="&#x103;" horiz-adv-x="1183" 
d="M733 1270q-278 0 -278 203q0 27 6 61h31q-5 -58 -5 -59q0 -172 248 -172q280 0 340 231h33q-72 -264 -375 -264zM1010 797l-115 -549q-24 -117 4 -166t125 -49h33l-6 -33h-31q-116 0 -151 59q-36 59 -7 195l2 12q-144 -291 -475 -291q-153 0 -236 72t-83 191
q0 277 385 329l270 37q122 18 177 63q53 44 71 130q28 124 -55 187q-84 63 -256 63q-179 0 -275 -73q-94 -71 -133 -224l-37 2q79 329 451 329q172 0 260 -58t88 -159q0 -37 -6 -67zM399 8q351 0 488 371l61 297q-52 -82 -221 -103l-266 -38q-354 -49 -354 -295
q0 -107 74 -169q75 -63 218 -63z" />
    <glyph glyph-name="Aogonek" unicode="&#x104;" horiz-adv-x="1468" 
d="M932 -264q0 -52 39 -83q40 -32 106 -32h78l-6 -33h-76q-85 0 -131 39q-47 39 -47 107q0 80 63 125q44 34 56 39q4 1 16 8q7 4 29 15q6 3 17 9.5t16 8.5l141 71l-107 482h-798l-318 -492h-41l949 1468h30l326 -1468l-170 -86q-74 -39 -117 -70q-55 -39 -55 -108zM905 1386
l-553 -858h766l-186 854l-6 37z" />
    <glyph glyph-name="aogonek" unicode="&#x105;" horiz-adv-x="1183" 
d="M1051 0l-172 -86q-74 -37 -117 -70q-53 -39 -53 -108q0 -52 39 -83q40 -32 106 -32h78l-6 -33h-76q-85 0 -131 39q-47 39 -47 107q0 80 63 125q44 34 56 39q4 1 16 8q7 4 29 15q6 3 16.5 9.5t15.5 8.5l125 61q-96 8 -127 69q-31 62 -4 185l2 12q-144 -291 -475 -291
q-153 0 -236 72t-83 191q0 277 385 329l270 37q122 18 177 63q53 44 71 130q28 124 -55 187q-84 63 -256 63q-179 0 -275 -73q-94 -71 -133 -224l-37 2q79 329 451 329q172 0 260 -58t88 -159q0 -37 -6 -67l-115 -549q-24 -117 4 -166t125 -49h33zM399 8q351 0 488 371
l61 297q-52 -82 -221 -103l-266 -38q-173 -22 -264 -100q-91 -77 -91 -195q0 -106 75 -169t218 -63z" />
    <glyph glyph-name="Cacute" unicode="&#x106;" horiz-adv-x="1525" 
d="M928 1686h-41l241 307h48zM733 -25q-248 0 -389 162t-141 422q0 93 22 207q72 336 275 526q203 191 489 191q234 0 373 -127t139 -340h-37q-1 200 -130 316q-128 116 -349 116q-272 0 -463 -179q-190 -178 -258 -499q-24 -114 -24 -211q0 -246 133 -397
q134 -152 364 -152q243 0 418 160q156 144 207 322h37q-63 -226 -248 -373q-180 -144 -418 -144z" />
    <glyph glyph-name="cacute" unicode="&#x107;" horiz-adv-x="1120" 
d="M657 1282h-41l242 307h47zM492 -25q-170 0 -275 118q-104 117 -104 315q0 81 14 145q50 254 194 391q145 137 357 137q186 0 276 -102q86 -103 86 -244h-36q0 123 -78 219q-79 93 -248 93q-201 0 -335 -131t-179 -369q-14 -62 -14 -139q0 -183 94 -290q94 -108 250 -108
q163 0 275 89q111 88 167 249h37q-57 -174 -179 -274q-122 -99 -302 -99z" />
    <glyph glyph-name="Ccircumflex" unicode="&#x108;" horiz-adv-x="1525" 
d="M752 1661h-45l354 332h37l215 -332h-39l-197 301zM733 -25q-248 0 -389 162t-141 422q0 93 22 207q72 336 275 526q203 191 489 191q234 0 373 -127t139 -340h-37q-1 200 -130 316q-128 116 -349 116q-272 0 -463 -179q-190 -178 -258 -499q-24 -114 -24 -211
q0 -246 133 -397q134 -152 364 -152q243 0 418 160q156 144 207 322h37q-63 -226 -248 -373q-180 -144 -418 -144z" />
    <glyph glyph-name="ccircumflex" unicode="&#x109;" horiz-adv-x="1120" 
d="M481 1257h-45l355 332h36l215 -332h-38l-197 302zM492 -25q-170 0 -275 118q-104 117 -104 315q0 81 14 145q50 254 194 391q145 137 357 137q186 0 276 -102q86 -103 86 -244h-36q0 123 -78 219q-79 93 -248 93q-201 0 -335 -131t-179 -369q-14 -62 -14 -139
q0 -183 94 -290q94 -108 250 -108q163 0 275 89q111 88 167 249h37q-57 -174 -179 -274q-122 -99 -302 -99z" />
    <glyph glyph-name="Cdotaccent" unicode="&#x10a;" horiz-adv-x="1525" 
d="M1049 1761h-37l22 101h37zM733 -25q-248 0 -389 162t-141 422q0 93 22 207q72 336 275 526q203 191 489 191q234 0 373 -127t139 -340h-37q-1 200 -130 316q-128 116 -349 116q-272 0 -463 -179q-190 -178 -258 -499q-24 -114 -24 -211q0 -246 133 -397
q134 -152 364 -152q243 0 418 160q156 144 207 322h37q-63 -226 -248 -373q-180 -144 -418 -144z" />
    <glyph glyph-name="cdotaccent" unicode="&#x10b;" horiz-adv-x="1120" 
d="M778 1358h-37l23 100h37zM492 -25q-170 0 -275 118q-104 117 -104 315q0 81 14 145q50 254 194 391q145 137 357 137q186 0 276 -102q86 -103 86 -244h-36q0 123 -78 219q-79 93 -248 93q-201 0 -335 -131t-179 -369q-14 -62 -14 -139q0 -183 94 -290q94 -108 250 -108
q163 0 275 89q111 88 167 249h37q-57 -174 -179 -274q-122 -99 -302 -99z" />
    <glyph glyph-name="Ccaron" unicode="&#x10c;" horiz-adv-x="1525" 
d="M1012 1657h-39l-215 332h41l196 -301l324 301h47zM733 -25q-248 0 -389 162t-141 422q0 93 22 207q72 336 275 526q203 191 489 191q234 0 373 -127t139 -340h-37q-1 200 -130 316q-128 116 -349 116q-272 0 -463 -179q-190 -178 -258 -499q-24 -114 -24 -211
q0 -246 133 -397q134 -152 364 -152q243 0 418 160q156 144 207 322h37q-63 -226 -248 -373q-180 -144 -418 -144z" />
    <glyph glyph-name="ccaron" unicode="&#x10d;" horiz-adv-x="1120" 
d="M741 1253h-36l-218 332h41l197 -301l326 301h45zM492 -25q-170 0 -275 118q-104 117 -104 315q0 81 14 145q50 254 194 391q145 137 357 137q186 0 276 -102q86 -103 86 -244h-36q0 123 -78 219q-79 93 -248 93q-201 0 -335 -131t-179 -369q-14 -62 -14 -139
q0 -183 94 -290q94 -108 250 -108q163 0 275 89q111 88 167 249h37q-57 -174 -179 -274q-122 -99 -302 -99z" />
    <glyph glyph-name="Dcaron" unicode="&#x10e;" horiz-adv-x="1517" 
d="M1335 1987l-354 -332h-39l-215 332h41l197 -301l323 301h47zM430 1458h453q266 0 404 -135t138 -385q0 -93 -22 -215q-69 -345 -278 -535q-207 -188 -543 -188h-463zM1366 729q23 127 23 211q0 231 -129 357t-381 126h-420l-295 -1388h418q322 0 521 181q200 182 263 513
z" />
    <glyph glyph-name="dcaron" unicode="&#x10f;" horiz-adv-x="1468" 
d="M1040 733l154 725h37l-311 -1458h-35l69 322q-67 -156 -192 -250q-129 -97 -283 -97q-171 0 -272 113t-101 303q0 57 17 148q47 251 190 397q145 145 342 145q167 0 268 -91q100 -90 117 -257zM1401 1053l225 405h41l-227 -405h-39zM483 10q183 0 321 138
q139 138 191 380q19 84 19 154q0 165 -97 265t-260 100q-181 0 -321 -140q-136 -140 -176 -372q-15 -84 -15 -144q0 -176 89 -279q88 -102 249 -102z" />
    <glyph glyph-name="Dcroat" unicode="&#x110;" horiz-adv-x="1683" 
d="M596 1458h453q266 0 404 -135t138 -385q0 -93 -22 -215q-69 -345 -278 -535q-207 -188 -543 -188h-463l155 727l-352 -2l6 35h352zM1532 729q22 122 22 211q0 231 -129 357t-381 126h-419l-142 -663h449l-6 -35l-449 2l-147 -692h418q321 0 518 181q199 182 266 513z" />
    <glyph glyph-name="dslash" unicode="&#x111;" horiz-adv-x="1495" 
d="M1198 1305h277l-9 -33h-274l-272 -1272h-35l69 322q-67 -156 -192 -250q-129 -97 -283 -97q-171 0 -272 113t-101 303q0 57 17 148q47 251 190 397q145 145 342 145q167 0 268 -91q100 -90 117 -257l115 539h-385l8 33h383l33 153h37zM483 10q183 0 321 138
q139 138 191 380q19 84 19 154q0 165 -97 265t-260 100q-181 0 -321 -140q-136 -140 -176 -372q-15 -84 -15 -144q0 -176 89 -279q88 -102 249 -102z" />
    <glyph glyph-name="Emacron" unicode="&#x112;" horiz-adv-x="1380" 
d="M707 1792h585l-6 -33h-586zM1386 1458l-8 -35h-919l-135 -641h860l-6 -34h-863l-151 -713h958l-8 -35h-995l311 1458h956z" />
    <glyph glyph-name="emacron" unicode="&#x113;" horiz-adv-x="1173" 
d="M471 1391h586l-6 -33h-586zM1055 547h-891q-14 -62 -14 -141q0 -181 98 -288q99 -108 260 -108q179 0 293 96t160 216l34 -3q-45 -130 -172 -237q-125 -107 -315 -107q-179 0 -287 118q-108 119 -108 315q0 79 16 155q52 238 205 379q151 139 358 139q179 0 281 -102
t102 -274q0 -82 -20 -158zM692 1047q-187 0 -330 -127q-139 -124 -192 -340h856q14 67 14 122q0 158 -93 251q-94 94 -255 94z" />
    <glyph glyph-name="Ebreve" unicode="&#x114;" horiz-adv-x="1380" 
d="M981 1671q-283 0 -283 201q0 23 7 63h32q-6 -30 -6 -59q0 -172 250 -172q276 0 342 231h33q-69 -264 -375 -264zM1386 1458l-8 -35h-919l-135 -641h860l-6 -34h-863l-151 -713h958l-8 -35h-995l311 1458h956z" />
    <glyph glyph-name="ebreve" unicode="&#x115;" horiz-adv-x="1173" 
d="M743 1270q-278 0 -278 203q0 27 6 61h31q-4 -47 -4 -59q0 -172 247 -172q280 0 340 231h33q-69 -264 -375 -264zM692 1081q179 0 281 -102t102 -274q0 -82 -20 -158h-891q-14 -62 -14 -141q0 -181 98 -288q99 -108 260 -108q179 0 293 96t160 216l34 -3
q-45 -130 -172 -237q-125 -107 -315 -107q-179 0 -287 118q-108 119 -108 315q0 79 16 155q52 238 205 379q151 139 358 139zM170 580h856q14 67 14 122q0 158 -93 251q-94 94 -255 94q-187 0 -330 -127q-139 -124 -192 -340z" />
    <glyph glyph-name="Edotaccent" unicode="&#x116;" horiz-adv-x="1380" 
d="M995 1860h37l-22 -101h-37zM1386 1458l-8 -35h-919l-135 -641h860l-6 -34h-863l-151 -713h958l-8 -35h-995l311 1458h956z" />
    <glyph glyph-name="edotaccent" unicode="&#x117;" horiz-adv-x="1173" 
d="M760 1458h37l-23 -100h-37zM1055 547h-891q-14 -62 -14 -141q0 -181 98 -288q99 -108 260 -108q179 0 293 96t160 216l34 -3q-45 -130 -172 -237q-125 -107 -315 -107q-179 0 -287 118q-108 119 -108 315q0 79 16 155q52 238 205 379q151 139 358 139q179 0 281 -102
t102 -274q0 -82 -20 -158zM692 1047q-187 0 -330 -127q-139 -124 -192 -340h856q14 67 14 122q0 158 -93 251q-94 94 -255 94z" />
    <glyph glyph-name="Eogonek" unicode="&#x118;" horiz-adv-x="1380" 
d="M1386 1458l-8 -35h-919l-135 -641h860l-6 -34h-863l-151 -713h958l-8 -35l-170 -86q-74 -39 -117 -70q-55 -39 -55 -108q0 -52 39 -83q40 -32 107 -32h77l-6 -33h-76q-85 0 -131 39q-47 39 -47 107q0 79 64 125q46 35 55 39q4 1 16 8q7 4 29 15q6 3 17 9.5t16 8.5l123 61
h-936l311 1458h956z" />
    <glyph glyph-name="eogonek" unicode="&#x119;" horiz-adv-x="1173" 
d="M1055 547h-891q-14 -62 -14 -141q0 -181 98 -288q99 -108 260 -108q179 0 293 96t160 216l34 -3q-30 -92 -105 -176q-74 -83 -177 -127l-162 -82q-72 -34 -117 -69q-55 -39 -55 -109q0 -52 39 -83q38 -31 106 -31h78l-6 -33h-76q-84 0 -131 39t-47 106q0 79 64 125
q47 34 55 39q4 1 16 8q21 12 29 16q6 3 17 9t16 8l43 21q-73 -5 -74 -5q-179 0 -287 118q-108 119 -108 315q0 79 16 155q52 238 205 379q151 139 358 139q179 0 281 -102t102 -274q0 -82 -20 -158zM692 1047q-187 0 -330 -127q-139 -124 -192 -340h856q14 67 14 122
q0 158 -93 251q-94 94 -255 94z" />
    <glyph glyph-name="Ecaron" unicode="&#x11a;" horiz-adv-x="1380" 
d="M1327 1987l-354 -332h-39l-215 332h41l196 -301l324 301h47zM1386 1458l-8 -35h-919l-135 -641h860l-6 -34h-863l-151 -713h958l-8 -35h-995l311 1458h956z" />
    <glyph glyph-name="ecaron" unicode="&#x11b;" horiz-adv-x="1173" 
d="M1092 1585l-355 -332h-37l-217 332h41l197 -301l326 301h45zM692 1081q179 0 281 -102t102 -274q0 -82 -20 -158h-891q-14 -62 -14 -141q0 -181 98 -288q99 -108 260 -108q179 0 293 96t160 216l34 -3q-45 -130 -172 -237q-125 -107 -315 -107q-179 0 -287 118
q-108 119 -108 315q0 79 16 155q52 238 205 379q151 139 358 139zM170 580h856q14 67 14 122q0 158 -93 251q-94 94 -255 94q-187 0 -330 -127q-139 -124 -192 -340z" />
    <glyph glyph-name="Gcircumflex" unicode="&#x11c;" horiz-adv-x="1701" 
d="M1296 1661l-196 301l-326 -301h-45l354 332h37l215 -332h-39zM1012 1448q-286 0 -486 -188q-200 -191 -268 -517q-22 -114 -22 -206q0 -244 134 -386q134 -141 375 -141q249 0 445 158q193 157 260 434l16 78h-577l8 37h612l-151 -717h-33l78 383q-96 -194 -270 -301
q-175 -107 -390 -107q-255 0 -401 154q-143 150 -143 410q0 97 22 213q69 335 281 534q209 197 510 197q252 0 395 -124t143 -343h-37q0 203 -134 317q-135 115 -367 115z" />
    <glyph glyph-name="gcircumflex" unicode="&#x11d;" horiz-adv-x="1226" 
d="M1042 1257l-196 302l-326 -302h-45l354 332h37l215 -332h-39zM1040 723l72 334h35l-227 -1073q-90 -404 -506 -404q-112 0 -191 30q-80 30 -118 77q-37 47 -54 90q-16 42 -16 82h37q2 -70 65 -150q73 -94 283 -94q388 0 465 371l71 331q-69 -152 -195 -247
q-127 -95 -276 -95q-177 0 -276 111q-98 110 -98 303q-6 276 153 485t404 207q166 0 263 -97t109 -261zM489 10q146 0 275 103q125 103 188 252q64 149 64 313q0 170 -95 270q-95 99 -251 99q-240 0 -381 -195q-142 -198 -142 -465q0 -174 90 -276q89 -101 252 -101z" />
    <glyph glyph-name="Gbreve" unicode="&#x11e;" horiz-adv-x="1701" 
d="M1042 1673q-282 0 -282 201q0 30 6 63h33q-6 -30 -6 -59q0 -172 249 -172q276 0 342 231h33q-69 -264 -375 -264zM1012 1448q-286 0 -486 -188q-200 -191 -268 -517q-22 -114 -22 -206q0 -244 134 -386q134 -141 375 -141q249 0 445 158q193 157 260 434l16 78h-577l8 37
h612l-151 -717h-33l78 383q-96 -194 -270 -301q-175 -107 -390 -107q-255 0 -401 154q-143 150 -143 410q0 97 22 213q69 335 281 534q209 197 510 197q252 0 395 -124t143 -343h-37q0 203 -134 317q-135 115 -367 115z" />
    <glyph glyph-name="gbreve" unicode="&#x11f;" horiz-adv-x="1226" 
d="M788 1270q-278 0 -278 203q0 27 6 61h31q-4 -47 -4 -59q0 -172 248 -172q279 0 339 231h33q-69 -264 -375 -264zM1040 723l72 334h35l-227 -1073q-90 -404 -506 -404q-112 0 -191 30q-80 30 -118 77q-37 47 -54 90q-16 42 -16 82h37q2 -70 65 -150q73 -94 283 -94
q388 0 465 371l71 331q-69 -152 -195 -247q-127 -95 -276 -95q-177 0 -276 111q-98 110 -98 303q-6 276 153 485t404 207q166 0 263 -97t109 -261zM489 10q146 0 275 103q125 103 188 252q64 149 64 313q0 170 -95 270q-95 99 -251 99q-240 0 -381 -195q-142 -198 -142 -465
q0 -174 90 -276q89 -101 252 -101z" />
    <glyph glyph-name="Gdotaccent" unicode="&#x120;" horiz-adv-x="1701" 
d="M1057 1862h37l-23 -101h-37zM1012 1448q-286 0 -486 -188q-200 -191 -268 -517q-22 -114 -22 -206q0 -244 134 -386q134 -141 375 -141q249 0 445 158q193 157 260 434l16 78h-577l8 37h612l-151 -717h-33l78 383q-96 -194 -270 -301q-175 -107 -390 -107
q-255 0 -401 154q-143 150 -143 410q0 97 22 213q69 335 281 534q209 197 510 197q252 0 395 -124t143 -343h-37q0 203 -134 317q-135 115 -367 115z" />
    <glyph glyph-name="gdotaccent" unicode="&#x121;" horiz-adv-x="1226" 
d="M803 1458h37l-23 -100h-37zM1040 723l72 334h35l-227 -1073q-90 -404 -506 -404q-112 0 -191 30q-80 30 -118 77q-37 47 -54 90q-16 42 -16 82h37q2 -70 65 -150q73 -94 283 -94q388 0 465 371l71 331q-69 -152 -195 -247q-127 -95 -276 -95q-177 0 -276 111
q-98 110 -98 303q-6 276 153 485t404 207q166 0 263 -97t109 -261zM489 10q146 0 275 103q125 103 188 252q64 149 64 313q0 170 -95 270q-95 99 -251 99q-240 0 -381 -195q-142 -198 -142 -465q0 -174 90 -276q89 -101 252 -101z" />
    <glyph glyph-name="uni0122" unicode="&#x122;" horiz-adv-x="1701" 
d="M1012 1448q-286 0 -486 -188q-200 -191 -268 -517q-22 -114 -22 -206q0 -244 134 -386q134 -141 375 -141q249 0 445 158q193 157 260 434l16 78h-577l8 37h612l-151 -717h-33l78 383q-96 -194 -270 -301q-175 -107 -390 -107q-255 0 -401 154q-143 150 -143 410
q0 97 22 213q69 335 281 534q209 197 510 197q252 0 395 -124t143 -343h-37q0 203 -134 317q-135 115 -367 115zM711 -248l-64 -6l19 80h88l-43 -207q-15 -61 -68 -61h-35l6 28h29q21 0 29 10t14 33z" />
    <glyph glyph-name="uni0123" unicode="&#x123;" horiz-adv-x="1226" 
d="M799 1434l63 6l-18 -80h-88l39 186q12 62 67 62h35l-6 -29h-29q-36 0 -43 -45zM1040 723l72 334h35l-227 -1073q-90 -404 -506 -404q-112 0 -191 30q-80 30 -118 77q-37 47 -54 90q-16 42 -16 82h37q2 -70 65 -150q73 -94 283 -94q388 0 465 371l71 331
q-69 -152 -195 -247q-127 -95 -276 -95q-177 0 -276 111q-98 110 -98 303q-6 276 153 485t404 207q166 0 263 -97t109 -261zM489 10q146 0 275 103q125 103 188 252q64 149 64 313q0 170 -95 270q-95 99 -251 99q-240 0 -381 -195q-142 -198 -142 -465q0 -174 90 -276
q89 -101 252 -101z" />
    <glyph glyph-name="Hcircumflex" unicode="&#x124;" horiz-adv-x="1540" 
d="M1276 1659l-197 301l-325 -301h-45l354 332h37l215 -332h-39zM1329 795l141 663h37l-311 -1458h-37l162 758h-1004l-161 -758h-37l311 1458h37l-141 -663h1003z" />
    <glyph glyph-name="hcircumflex" unicode="&#x125;" horiz-adv-x="1191" 
d="M715 1659l-197 301l-325 -301h-46l355 332h37l215 -332h-39zM741 1081q147 0 225 -74t78 -212q0 -49 -12 -111l-145 -684h-37l145 684q13 65 13 109q0 124 -70 189t-201 65q-175 0 -307 -112q-131 -112 -184 -327l-129 -608h-37l311 1458h37l-143 -676q74 145 191 222
t265 77z" />
    <glyph glyph-name="Hbar" unicode="&#x126;" horiz-adv-x="1540" 
d="M1403 1141l67 317h37l-311 -1458h-37l162 754h-1004l-161 -754h-37l311 1458h37l-68 -317h1004zM391 1104l-67 -316h1003l68 316h-1004z" />
    <glyph glyph-name="hbar" unicode="&#x127;" horiz-adv-x="1308" 
d="M592 1004q117 77 264 77q151 0 227 -75q78 -78 78 -211q0 -49 -12 -111l-145 -684h-37l145 684q12 60 12 109q0 122 -70 188q-71 66 -200 66q-175 0 -307 -112q-133 -113 -185 -327l-129 -608h-36l272 1272h-291l6 33h291l33 153h37l-33 -153h383l-6 -33h-383l-105 -490
q70 143 191 222z" />
    <glyph glyph-name="Itilde" unicode="&#x128;" horiz-adv-x="499" 
d="M156 1694h-35q80 309 254 309q117 0 162 -137q45 -140 149 -140q70 0 120 65q51 66 91 212h35q-80 -309 -252 -309q-67 0 -107 43q-41 44 -57 95q-17 53 -53 95q-37 43 -94 43q-139 0 -213 -276zM156 0h-37l311 1458h37z" />
    <glyph glyph-name="itilde" unicode="&#x129;" horiz-adv-x="419" 
d="M29 1292h-35q80 310 254 310q117 0 162 -138q45 -139 149 -139q70 0 120 65q51 66 91 212h35q-80 -310 -252 -310q-67 0 -107 43t-57 96t-53 95q-37 43 -94 43q-139 0 -213 -277zM117 0h-37l225 1057h37z" />
    <glyph glyph-name="Imacron" unicode="&#x12a;" horiz-adv-x="499" 
d="M805 1759h-586l6 33h586zM156 0h-37l311 1458h37z" />
    <glyph glyph-name="imacron" unicode="&#x12b;" horiz-adv-x="419" 
d="M680 1358h-586l6 33h586zM117 0h-37l225 1057h37z" />
    <glyph glyph-name="Ibreve" unicode="&#x12c;" horiz-adv-x="499" 
d="M500 1671q-283 0 -283 201q0 28 6 63h33q-6 -30 -6 -59q0 -172 250 -172q276 0 342 231h32q-72 -264 -374 -264zM156 0h-37l311 1458h37z" />
    <glyph glyph-name="ibreve" unicode="&#x12d;" horiz-adv-x="419" 
d="M373 1270q-279 0 -279 203q0 27 6 61h31q-4 -47 -4 -59q0 -172 248 -172q280 0 340 231h33q-72 -264 -375 -264zM117 0h-37l225 1057h37z" />
    <glyph glyph-name="Iogonek" unicode="&#x12e;" horiz-adv-x="499" 
d="M156 0l-215 -172q-64 -46 -64 -107q0 -45 37 -72q39 -28 102 -28h60l-8 -33h-62q-78 0 -122 36t-44 93q0 69 72 129l209 164l309 1448h37z" />
    <glyph glyph-name="iogonek" unicode="&#x12f;" horiz-adv-x="419" 
d="M369 1360l22 98h37l-22 -98h-37zM-127 -154l209 164l223 1047h37l-225 -1057l-217 -172q-62 -45 -62 -107q0 -45 37 -72q39 -28 102 -28h58l-6 -33h-62q-79 0 -122 36q-44 36 -44 93q0 73 72 129z" />
    <glyph glyph-name="Idot" unicode="&#x130;" horiz-adv-x="499" 
d="M535 1688h-76l26 122h76zM156 0h-37l311 1458h37z" />
    <glyph glyph-name="dotlessi" unicode="&#x131;" horiz-adv-x="419" 
d="M117 0h-37l225 1057h37z" />
    <glyph glyph-name="IJ" unicode="&#x132;" horiz-adv-x="1652" 
d="M156 0h-37l311 1458h37zM922 -25q-168 0 -267 78q-98 77 -98 223q0 45 35 209h37q-33 -133 -33 -209q0 -130 86 -198t240 -68q352 0 432 381l227 1067h37l-227 -1067q-90 -416 -469 -416z" />
    <glyph glyph-name="ij" unicode="&#x133;" horiz-adv-x="839" 
d="M406 1360h-37l22 98h37zM825 1360h-37l21 98h37zM117 0h-37l225 1057h37zM209 -418h-59l6 35h53q207 0 254 213l262 1227h37l-264 -1231q-53 -244 -289 -244z" />
    <glyph glyph-name="Jcircumflex" unicode="&#x134;" horiz-adv-x="1171" 
d="M903 1659h-45l354 332h37l215 -332h-39l-196 301zM442 -25q-167 0 -266 78q-98 77 -98 223q0 45 35 209h37q-33 -133 -33 -209q0 -130 86 -198t239 -68q352 0 432 381l228 1067h37l-228 -1067q-90 -416 -469 -416z" />
    <glyph glyph-name="jcircumflex" unicode="&#x135;" horiz-adv-x="419" 
d="M104 1257h-45l355 332h37l215 -332h-39l-197 302zM-211 -418h-59l6 35h53q208 0 254 213l262 1227h37l-264 -1231q-53 -244 -289 -244z" />
    <glyph glyph-name="uni0136" unicode="&#x136;" horiz-adv-x="1445" 
d="M1483 1458h57l-778 -604l491 -854h-45l-477 831l-477 -368l-98 -463h-37l311 1458h37l-203 -946zM643 -246l-63 -8l16 82h90l-43 -207q-16 -61 -68 -61h-34l6 28h26q20 0 30 10q8 8 13 33z" />
    <glyph glyph-name="uni0137" unicode="&#x137;" horiz-adv-x="1132" 
d="M1085 1057h54l-557 -420l360 -637h-41l-348 616l-365 -276l-71 -340h-37l311 1458h37l-229 -1071zM494 -246l-64 -8l16 82h91l-43 -207q-15 -61 -68 -61h-35l6 28h27q20 0 30 10q8 8 13 33z" />
    <glyph glyph-name="kgreenlandic" unicode="&#x138;" horiz-adv-x="1132" 
d="M1085 1057h54l-557 -420l360 -637h-41l-348 616l-365 -276l-71 -340h-37l225 1057h37l-143 -670z" />
    <glyph glyph-name="Lacute" unicode="&#x139;" horiz-adv-x="1265" 
d="M631 1991h47l-248 -308h-41zM467 1458l-303 -1423h887l-9 -35h-923l311 1458h37z" />
    <glyph glyph-name="lacute" unicode="&#x13a;" horiz-adv-x="421" 
d="M369 1683h-41l241 308h47zM117 0h-37l311 1458h37z" />
    <glyph glyph-name="uni013B" unicode="&#x13b;" horiz-adv-x="1265" 
d="M467 1458l-303 -1423h887l-9 -35h-923l311 1458h37zM557 -246l-63 -8l16 82h90l-43 -207q-16 -61 -68 -61h-34l6 28h26q20 0 30 10q8 8 13 33z" />
    <glyph glyph-name="uni013C" unicode="&#x13c;" horiz-adv-x="421" 
d="M117 0h-37l311 1458h37zM4 -440h-35l6 28h27q20 0 30 10q8 8 13 33l27 123l-64 -8l17 82h90l-43 -207q-15 -61 -68 -61z" />
    <glyph glyph-name="Lcaron" unicode="&#x13d;" horiz-adv-x="1265" 
d="M430 1458h37l-303 -1423h887l-9 -35h-923zM1028 1458h41l-229 -405h-37z" />
    <glyph glyph-name="lcaron" unicode="&#x13e;" horiz-adv-x="641" 
d="M117 0h-37l311 1458h37zM610 1053h-37l226 405h41z" />
    <glyph glyph-name="Ldot" unicode="&#x13f;" horiz-adv-x="1265" 
d="M467 1458l-303 -1423h887l-9 -35h-923l311 1458h37zM739 807h117l-20 -96h-117z" />
    <glyph glyph-name="ldot" unicode="&#x140;" horiz-adv-x="550" 
d="M117 0h-37l311 1458h37zM522 680h-119l21 96h119z" />
    <glyph glyph-name="Lslash" unicode="&#x141;" horiz-adv-x="1474" 
d="M510 678l-137 -643h887l-9 -35h-923l141 662l-434 -175l16 39l424 168l164 764h37l-160 -747l717 290l-16 -40z" />
    <glyph glyph-name="lslash" unicode="&#x142;" horiz-adv-x="903" 
d="M526 799l348 164l-8 -37l-348 -166l-162 -760h-37l158 741l-342 -163l6 38l344 164l146 678h37z" />
    <glyph glyph-name="Nacute" unicode="&#x143;" horiz-adv-x="1542" 
d="M1130 1991h48l-248 -308h-41zM1176 55l299 1403h34l-311 -1458h-33l-710 1405l-299 -1405h-37l311 1458h33z" />
    <glyph glyph-name="nacute" unicode="&#x144;" horiz-adv-x="1191" 
d="M881 1589h47l-248 -307h-41zM741 1081q147 0 225 -74t78 -212q0 -45 -12 -111l-145 -684h-37l145 684q13 65 13 109q0 124 -70 189t-201 65q-175 0 -307 -112q-131 -112 -184 -327l-129 -608h-37l225 1057h37l-61 -281q152 305 460 305z" />
    <glyph glyph-name="uni0145" unicode="&#x145;" horiz-adv-x="1542" 
d="M1176 55l299 1403h34l-311 -1458h-33l-710 1405l-299 -1405h-37l311 1458h33zM633 -246l-64 -8l17 82h90l-43 -207q-15 -61 -68 -61h-35l7 28h26q20 0 30 10q8 8 13 33z" />
    <glyph glyph-name="uni0146" unicode="&#x146;" horiz-adv-x="1191" 
d="M741 1081q147 0 225 -74t78 -212q0 -45 -12 -111l-145 -684h-37l145 684q13 65 13 109q0 124 -70 189t-201 65q-175 0 -307 -112q-131 -112 -184 -327l-129 -608h-37l225 1057h37l-61 -281q152 305 460 305zM475 -246l-63 -8l16 82h90l-43 -207q-16 -61 -67 -61h-35l6 28
h27q19 0 29 10t14 33z" />
    <glyph glyph-name="Ncaron" unicode="&#x147;" horiz-adv-x="1542" 
d="M1368 1987l-354 -332h-39l-215 332h41l196 -301l324 301h47zM1176 55l299 1403h34l-311 -1458h-33l-710 1405l-299 -1405h-37l311 1458h33z" />
    <glyph glyph-name="ncaron" unicode="&#x148;" horiz-adv-x="1191" 
d="M1118 1585l-354 -332h-37l-217 332h41l197 -301l325 301h45zM741 1081q147 0 225 -74t78 -212q0 -45 -12 -111l-145 -684h-37l145 684q13 65 13 109q0 124 -70 189t-201 65q-175 0 -307 -112q-131 -112 -184 -327l-129 -608h-37l225 1057h37l-61 -281q152 305 460 305z
" />
    <glyph glyph-name="napostrophe" unicode="&#x149;" horiz-adv-x="1519" 
d="M274 1370l21 96h119l-58 -282q-24 -113 -131 -113h-14l8 33h14q41 0 62 21q20 20 31 75l36 180zM1069 1081q146 0 224 -74q79 -75 79 -212q0 -45 -12 -111l-146 -684h-36l145 684q12 57 12 109q0 125 -69 189q-70 65 -201 65q-177 0 -307 -114q-133 -116 -185 -331
l-129 -602h-36l225 1057h37l-62 -281q152 305 461 305z" />
    <glyph glyph-name="Eng" unicode="&#x14a;" horiz-adv-x="1544" 
d="M1475 1458h34l-231 -1093l-113 -531q-55 -252 -299 -252h-53l6 35h55q208 0 254 213l37 176l-710 1391l-297 -1397h-37l309 1458h35l715 -1395z" />
    <glyph glyph-name="eng" unicode="&#x14b;" horiz-adv-x="1191" 
d="M741 1081q147 0 225 -74t78 -212q0 -45 -12 -111l-180 -852q-52 -250 -301 -250h-51l8 35h53q205 0 252 213l182 854q13 65 13 109q0 124 -70 189t-201 65q-175 0 -307 -112q-131 -112 -184 -327l-129 -608h-37l225 1057h37l-61 -281q152 305 460 305z" />
    <glyph glyph-name="Omacron" unicode="&#x14c;" horiz-adv-x="1689" 
d="M1354 1761h-586l6 33h586zM748 -25q-255 0 -400 160q-145 157 -145 420q0 110 20 201q66 329 283 526q217 201 518 201q262 0 406 -156q143 -155 143 -420q0 -109 -21 -205q-66 -329 -278 -526q-219 -201 -526 -201zM752 10q288 0 495 195q203 191 269 506q20 91 20 196
q0 254 -136 397q-136 144 -380 144q-285 0 -492 -193q-207 -195 -268 -507q-20 -86 -20 -191q0 -246 137 -397q137 -150 375 -150z" />
    <glyph glyph-name="omacron" unicode="&#x14d;" horiz-adv-x="1210" 
d="M1075 1358h-586l7 33h585zM514 -25q-185 0 -293 117t-108 314q0 85 14 149q47 244 203 385q153 141 368 141q185 0 293 -115q109 -117 109 -311q0 -57 -17 -151q-45 -247 -197 -387q-154 -142 -372 -142zM514 10q203 0 345 133q143 134 188 367q16 89 16 145
q0 182 -99 287t-268 105q-196 0 -342 -134q-143 -134 -190 -366q-14 -62 -14 -141q0 -183 99 -289q99 -107 265 -107z" />
    <glyph glyph-name="Obreve" unicode="&#x14e;" horiz-adv-x="1689" 
d="M1049 1673q-283 0 -283 201q0 30 6 63h33q-6 -30 -6 -59q0 -172 250 -172q276 0 342 231h32q-72 -264 -374 -264zM748 -25q-255 0 -400 160q-145 157 -145 420q0 110 20 201q66 329 283 526q217 201 518 201q262 0 406 -156q143 -155 143 -420q0 -109 -21 -205
q-66 -329 -278 -526q-219 -201 -526 -201zM752 10q288 0 495 195q203 191 269 506q20 91 20 196q0 254 -136 397q-136 144 -380 144q-285 0 -492 -193q-207 -195 -268 -507q-20 -86 -20 -191q0 -246 137 -397q137 -150 375 -150z" />
    <glyph glyph-name="obreve" unicode="&#x14f;" horiz-adv-x="1210" 
d="M768 1270q-279 0 -279 203q0 21 7 61h30q-4 -47 -4 -59q0 -172 248 -172q280 0 340 231h33q-69 -264 -375 -264zM514 -25q-185 0 -293 117t-108 314q0 85 14 149q47 244 203 385q153 141 368 141q185 0 293 -115q109 -117 109 -311q0 -57 -17 -151q-45 -247 -197 -387
q-154 -142 -372 -142zM514 10q203 0 345 133q143 134 188 367q16 89 16 145q0 182 -99 287t-268 105q-196 0 -342 -134q-143 -134 -190 -366q-14 -62 -14 -141q0 -183 99 -289q99 -107 265 -107z" />
    <glyph glyph-name="Ohungarumlaut" unicode="&#x150;" horiz-adv-x="1689" 
d="M842 1657h-39l225 336h43zM1200 1657h-39l260 336h43zM748 -25q-255 0 -400 160q-145 157 -145 420q0 110 20 201q66 329 283 526q217 201 518 201q262 0 406 -156q143 -155 143 -420q0 -109 -21 -205q-66 -329 -278 -526q-219 -201 -526 -201zM752 10q288 0 495 195
q203 191 269 506q20 91 20 196q0 254 -136 397q-136 144 -380 144q-285 0 -492 -193q-207 -195 -268 -507q-20 -86 -20 -191q0 -246 137 -397q137 -150 375 -150z" />
    <glyph glyph-name="ohungarumlaut" unicode="&#x151;" horiz-adv-x="1210" 
d="M563 1253h-39l226 336h43zM922 1253h-39l260 336h43zM514 -25q-185 0 -293 117t-108 314q0 85 14 149q47 244 203 385q153 141 368 141q185 0 293 -115q109 -117 109 -311q0 -57 -17 -151q-45 -247 -197 -387q-154 -142 -372 -142zM514 10q203 0 345 133q143 134 188 367
q16 89 16 145q0 182 -99 287t-268 105q-196 0 -342 -134q-143 -134 -190 -366q-14 -62 -14 -141q0 -183 99 -289q99 -107 265 -107z" />
    <glyph glyph-name="OE" unicode="&#x152;" horiz-adv-x="2625" 
d="M2634 1458l-8 -35h-920l-135 -641h860l-6 -34h-862l-152 -713h959l-9 -35h-995l94 440q-106 -219 -291 -342t-421 -123q-255 0 -400 160q-145 157 -145 420q0 110 20 201q68 327 283 526q217 201 518 201q247 0 390 -146q142 -145 153 -399l110 520h957zM752 10
q288 0 495 195q203 191 269 506q20 91 20 196q0 254 -136 397q-136 144 -380 144q-288 0 -490 -193q-207 -195 -270 -507q-20 -86 -20 -191q0 -246 137 -397q137 -150 375 -150z" />
    <glyph glyph-name="oe" unicode="&#x153;" horiz-adv-x="2095" 
d="M1978 547h-886l-7 -37q-12 -68 -12 -139q0 -168 92 -265q91 -96 256 -96q290 0 447 283l35 -2q-63 -129 -185 -221q-122 -95 -299 -95t-279 105t-102 285q-78 -179 -219 -284q-142 -106 -315 -106q-183 0 -288 114t-105 314q-7 259 171 471q179 212 431 207
q179 0 283 -101q107 -103 108 -280q74 177 209 279t309 102q176 0 275 -100q100 -102 100 -272q0 -65 -19 -162zM504 10q249 0 405 203q156 201 156 473q0 171 -94 265q-96 96 -260 96q-159 0 -295 -96q-135 -95 -203 -241q-70 -150 -66 -304q0 -184 96 -291
q95 -105 261 -105zM1620 1047q-194 0 -332 -132q-137 -131 -188 -335h848q12 57 12 131q0 152 -89 244t-251 92z" />
    <glyph glyph-name="Racute" unicode="&#x154;" horiz-adv-x="1503" 
d="M1049 1991h47l-248 -308h-41zM1405 1159q0 -181 -113 -303q-111 -120 -303 -147q118 -18 170 -78q53 -61 53 -170q0 -30 -4 -70l-37 -391h-38l38 385q5 58 5 76q0 127 -76 179t-254 52h-543l-147 -692h-37l311 1458h608q178 0 272 -79q95 -80 95 -220zM311 727h563
q220 0 357 119q137 117 137 311q0 128 -87 197t-247 69h-575z" />
    <glyph glyph-name="racute" unicode="&#x155;" horiz-adv-x="817" 
d="M727 1589h47l-248 -307h-41zM707 1083q75 0 124 -12l-8 -35q-71 11 -121 11q-161 0 -286 -116t-170 -335h-2l-125 -596h-37l223 1057h35l-55 -269q68 143 179 219q110 76 243 76z" />
    <glyph glyph-name="uni0156" unicode="&#x156;" horiz-adv-x="1503" 
d="M1405 1159q0 -181 -113 -303q-111 -120 -303 -147q118 -18 170 -78q53 -61 53 -170q0 -30 -4 -70l-37 -391h-38l38 385q5 58 5 76q0 127 -76 179t-254 52h-543l-147 -692h-37l311 1458h608q178 0 272 -79q95 -80 95 -220zM311 727h563q220 0 357 119q137 117 137 311
q0 128 -87 197t-247 69h-575zM645 -246l-63 -8l16 82h90l-43 -207q-15 -61 -67 -61h-35l6 28h26q20 0 30 10q8 8 13 33z" />
    <glyph glyph-name="uni0157" unicode="&#x157;" horiz-adv-x="817" 
d="M707 1083q75 0 124 -12l-8 -35q-71 11 -121 11q-161 0 -286 -116t-170 -335h-2l-125 -596h-37l223 1057h35l-55 -269q68 143 179 219q110 76 243 76zM70 -246l-64 -8l17 82h90l-43 -207q-16 -61 -68 -61h-35l6 28h27q20 0 30 10q8 8 13 33z" />
    <glyph glyph-name="Rcaron" unicode="&#x158;" horiz-adv-x="1503" 
d="M1286 1987l-354 -332h-39l-215 332h41l196 -301l324 301h47zM1405 1159q0 -181 -113 -303q-111 -120 -303 -147q118 -18 170 -78q53 -61 53 -170q0 -30 -4 -70l-37 -391h-38l38 385q5 58 5 76q0 127 -76 179t-254 52h-543l-147 -692h-37l311 1458h608q178 0 272 -79
q95 -80 95 -220zM311 727h563q220 0 357 119q137 117 137 311q0 128 -87 197t-247 69h-575z" />
    <glyph glyph-name="rcaron" unicode="&#x159;" horiz-adv-x="817" 
d="M965 1585l-355 -332h-37l-217 332h41l197 -301l326 301h45zM340 1057l-55 -269q68 143 179 219q110 76 243 76q75 0 124 -12l-8 -35q-71 11 -121 11q-161 0 -286 -116t-170 -335h-2l-125 -596h-37l223 1057h35z" />
    <glyph glyph-name="Sacute" unicode="&#x15a;" horiz-adv-x="1376" 
d="M801 1686h-41l241 307h48zM612 -25q-240 0 -370 98q-129 98 -129 292q0 14 4 61h37q-4 -44 -4 -55q0 -180 120 -270q121 -91 344 -91q257 0 407 111t150 315q0 214 -268 269l-282 57q-308 62 -308 305q0 203 156 309q152 107 395 107q210 0 331 -87q122 -87 122 -245
q0 -33 -6 -68h-37q6 30 6 64q0 142 -113 222q-112 79 -305 79q-227 0 -370 -98q-144 -100 -144 -283q0 -211 279 -268l286 -60q293 -60 293 -301q0 -220 -159 -342q-158 -121 -435 -121z" />
    <glyph glyph-name="sacute" unicode="&#x15b;" horiz-adv-x="1083" 
d="M610 1284h-41l242 307h47zM459 -25q-181 0 -281 78t-100 217h37q0 -125 91 -192q92 -68 257 -68q184 0 290 77q105 76 105 218q0 90 -56 139q-57 49 -183 70l-138 23q-135 24 -203 79q-69 56 -69 156q0 142 114 221q115 80 300 80q163 0 257 -77q93 -76 93 -210h-37
q0 122 -84 188t-234 66q-169 0 -271 -71q-103 -72 -103 -195q0 -91 61 -137q64 -48 189 -66l137 -22q140 -21 202 -79t62 -163q0 -161 -117 -247q-116 -85 -319 -85z" />
    <glyph glyph-name="Scircumflex" unicode="&#x15c;" horiz-adv-x="1376" 
d="M625 1661h-45l354 332h37l215 -332h-39l-197 301zM612 -25q-240 0 -370 98q-129 98 -129 292q0 14 4 61h37q-4 -44 -4 -55q0 -180 120 -270q121 -91 344 -91q257 0 407 111t150 315q0 214 -268 269l-282 57q-308 62 -308 305q0 203 156 309q152 107 395 107
q210 0 331 -87q122 -87 122 -245q0 -33 -6 -68h-37q6 30 6 64q0 142 -113 222q-112 79 -305 79q-227 0 -370 -98q-144 -100 -144 -283q0 -211 279 -268l286 -60q293 -60 293 -301q0 -220 -159 -342q-158 -121 -435 -121z" />
    <glyph glyph-name="scircumflex" unicode="&#x15d;" horiz-adv-x="1083" 
d="M434 1260h-45l354 331h37l215 -331h-39l-196 301zM459 -25q-181 0 -281 78t-100 217h37q0 -125 91 -192q92 -68 257 -68q184 0 290 77q105 76 105 218q0 90 -56 139q-57 49 -183 70l-138 23q-135 24 -203 79q-69 56 -69 156q0 142 114 221q115 80 300 80q163 0 257 -77
q93 -76 93 -210h-37q0 122 -84 188t-234 66q-169 0 -271 -71q-103 -72 -103 -195q0 -91 61 -137q64 -48 189 -66l137 -22q140 -21 202 -79t62 -163q0 -161 -117 -247q-116 -85 -319 -85z" />
    <glyph glyph-name="Scedilla" unicode="&#x15e;" horiz-adv-x="1376" 
d="M864 1483q210 0 331 -87q122 -87 122 -245q0 -33 -6 -68h-37q6 30 6 64q0 142 -113 222q-112 79 -305 79q-227 0 -370 -98q-144 -100 -144 -283q0 -211 279 -268l286 -60q293 -60 293 -301q0 -219 -157 -340t-431 -123l-106 -129h68q76 0 115 -33q40 -34 40 -92
q0 -84 -67 -127t-185 -43h-77l4 31h73q217 0 217 137q0 95 -129 95h-84l-16 26l111 135q-227 6 -349 104q-120 96 -120 286q0 14 4 61h37q-4 -44 -4 -55q0 -180 120 -270q121 -91 344 -91q257 0 407 111t150 315q0 214 -268 269l-282 57q-308 62 -308 305q0 203 156 309
q152 107 395 107z" />
    <glyph glyph-name="scedilla" unicode="&#x15f;" horiz-adv-x="1083" 
d="M618 1040q-169 0 -271 -71q-103 -72 -103 -195q0 -91 61 -137q64 -48 189 -66l137 -22q140 -21 202 -79t62 -163q0 -161 -117 -247q-116 -85 -319 -85h-15l-106 -129h68q76 0 115 -33q40 -34 40 -92q0 -84 -67 -127t-185 -43h-78l5 31h73q217 0 217 137q0 95 -129 95h-84
l-16 26l113 137q-159 11 -245 86q-87 77 -87 207h37q0 -125 91 -192q92 -68 257 -68q184 0 290 77q105 76 105 218q0 90 -56 139t-184 70l-137 23q-135 24 -203 79q-69 56 -69 156q0 142 114 221q115 80 300 80q163 0 257 -77q93 -76 93 -210h-37q0 122 -84 188t-234 66z
" />
    <glyph glyph-name="Scaron" unicode="&#x160;" horiz-adv-x="1376" 
d="M885 1657h-39l-215 332h41l196 -301l324 301h47zM612 -25q-240 0 -370 98q-129 98 -129 292q0 14 4 61h37q-4 -44 -4 -55q0 -180 120 -270q121 -91 344 -91q257 0 407 111t150 315q0 214 -268 269l-282 57q-308 62 -308 305q0 203 156 309q152 107 395 107q210 0 331 -87
q122 -87 122 -245q0 -33 -6 -68h-37q6 30 6 64q0 142 -113 222q-112 79 -305 79q-227 0 -370 -98q-144 -100 -144 -283q0 -211 279 -268l286 -60q293 -60 293 -301q0 -220 -159 -342q-158 -121 -435 -121z" />
    <glyph glyph-name="scaron" unicode="&#x161;" horiz-adv-x="1083" 
d="M694 1255h-37l-217 332h41l197 -301l326 301h45zM459 -25q-181 0 -281 78t-100 217h37q0 -125 91 -192q92 -68 257 -68q184 0 290 77q105 76 105 218q0 90 -56 139q-57 49 -183 70l-138 23q-135 24 -203 79q-69 56 -69 156q0 142 114 221q115 80 300 80q163 0 257 -77
q93 -76 93 -210h-37q0 122 -84 188t-234 66q-169 0 -271 -71q-103 -72 -103 -195q0 -91 61 -137q64 -48 189 -66l137 -22q140 -21 202 -79t62 -163q0 -161 -117 -247q-116 -85 -319 -85z" />
    <glyph glyph-name="uni0162" unicode="&#x162;" horiz-adv-x="1312" 
d="M1401 1458l-8 -35h-539l-303 -1423h2l-117 -141h68q76 0 116 -34q39 -33 39 -91q0 -84 -67 -127t-184 -43h-78l4 30h74q217 0 217 138q0 94 -129 94h-84l-17 27l121 147h-2l303 1423h-536l8 35h1112z" />
    <glyph glyph-name="uni0163" unicode="&#x163;" horiz-adv-x="677" 
d="M403 1024l-4 -20l-168 -783q-8 -50 -8 -76q0 -110 142 -110h120l-6 -35h-121q-15 0 -55 4l-106 -133h65q76 0 116 -33t40 -90q0 -83 -67 -127q-65 -43 -185 -43h-78l6 31h74q215 0 215 137q0 94 -127 94h-86l-16 25l118 147q-88 27 -88 127q0 27 11 80l167 785l5 20h-215
l4 33h217l4 16l59 285h37l-59 -285l-4 -16h295l-7 -33h-295z" />
    <glyph glyph-name="Tcaron" unicode="&#x164;" horiz-adv-x="1312" 
d="M1243 1987l-354 -332h-39l-215 332h41l196 -301l324 301h47zM289 1458h1112l-8 -35h-539l-303 -1423h-37l303 1423h-536z" />
    <glyph glyph-name="tcaron" unicode="&#x165;" horiz-adv-x="677" 
d="M889 1681h41l-230 -405h-36zM473 1358l-59 -285l-4 -16h295l-7 -33h-295l-4 -20l-168 -783q-8 -50 -8 -76q0 -110 142 -110h120l-6 -35h-121q-174 0 -174 139q0 27 11 80l167 785l5 20h-215l4 33h217l4 16l59 285h37z" />
    <glyph glyph-name="Tbar" unicode="&#x166;" horiz-adv-x="1312" 
d="M1401 1458l-8 -35h-539l-141 -661l520 2l-6 -37l-520 2l-156 -729h-37l156 729l-480 -2l7 37l479 -2l141 661h-536l8 35h1112z" />
    <glyph glyph-name="tbar" unicode="&#x167;" horiz-adv-x="718" 
d="M743 1057l-6 -33h-295l-94 -449h297l-8 -32h-297l-68 -322q-10 -49 -10 -76q0 -110 144 -110h118l-6 -35h-121q-172 0 -172 139q0 27 11 80l69 324h-219l8 32h217l95 449h-216l7 33h217l63 301h37l-63 -301h292z" />
    <glyph glyph-name="Utilde" unicode="&#x168;" horiz-adv-x="1536" 
d="M635 1694h-35q80 309 254 309q117 0 162 -137q45 -140 149 -140q70 0 120 65q51 66 91 212h35q-79 -309 -252 -309q-66 0 -106 43q-42 46 -58 95q-17 53 -53 95q-37 43 -94 43q-140 0 -213 -276zM678 -25q-221 0 -346 92t-125 277q0 66 18 148l205 966h37l-207 -975
q-16 -80 -16 -135q0 -172 114 -255q115 -83 320 -83q481 0 582 473l206 975h37l-207 -975q-108 -508 -618 -508z" />
    <glyph glyph-name="utilde" unicode="&#x169;" horiz-adv-x="1191" 
d="M608 1569q-139 0 -213 -277h-35q80 310 254 310q117 0 162 -138q45 -139 150 -139q70 0 120 65q51 66 91 212h34q-80 -310 -251 -310q-67 0 -107 43q-41 43 -57 96q-16 51 -54 95q-37 43 -94 43zM946 449l129 608h37l-225 -1057h-37l61 281q-152 -306 -460 -306
q-145 0 -225 75q-79 75 -79 212q0 39 13 111l145 684h37l-145 -684q-13 -65 -13 -109q0 -124 70 -189t201 -65q175 0 307 112q131 112 184 327z" />
    <glyph glyph-name="Umacron" unicode="&#x16a;" horiz-adv-x="1536" 
d="M1284 1759h-586l7 33h585zM678 -25q-221 0 -346 92t-125 277q0 66 18 148l205 966h37l-207 -975q-16 -80 -16 -135q0 -172 114 -255q115 -83 320 -83q481 0 582 473l206 975h37l-207 -975q-108 -508 -618 -508z" />
    <glyph glyph-name="umacron" unicode="&#x16b;" horiz-adv-x="1191" 
d="M465 1391h586l-7 -33h-585zM946 449l129 608h37l-225 -1057h-37l61 281q-152 -306 -460 -306q-145 0 -225 75q-79 75 -79 212q0 39 13 111l145 684h37l-145 -684q-13 -65 -13 -109q0 -124 70 -189t201 -65q175 0 307 112q131 112 184 327z" />
    <glyph glyph-name="Ubreve" unicode="&#x16c;" horiz-adv-x="1536" 
d="M979 1671q-283 0 -283 201q0 28 6 63h33q-6 -30 -6 -59q0 -172 250 -172q276 0 342 231h33q-72 -264 -375 -264zM678 -25q-221 0 -346 92t-125 277q0 66 18 148l205 966h37l-207 -975q-16 -80 -16 -135q0 -172 114 -255q115 -83 320 -83q481 0 582 473l206 975h37
l-207 -975q-108 -508 -618 -508z" />
    <glyph glyph-name="ubreve" unicode="&#x16d;" horiz-adv-x="1191" 
d="M739 1270q-278 0 -278 203q0 27 6 61h31q-4 -47 -4 -59q0 -172 247 -172q280 0 340 231h33q-69 -264 -375 -264zM946 449l129 608h37l-225 -1057h-37l61 281q-152 -306 -460 -306q-145 0 -225 75q-79 75 -79 212q0 39 13 111l145 684h37l-145 -684q-13 -65 -13 -109
q0 -124 70 -189t201 -65q175 0 307 112q131 112 184 327z" />
    <glyph glyph-name="Uring" unicode="&#x16e;" horiz-adv-x="1536" 
d="M1010 1626q-96 0 -160 62t-64 155q0 95 64 159q62 62 160 62q96 0 157 -62q62 -64 62 -159q0 -93 -63 -155q-64 -62 -156 -62zM1010 1659q81 0 133 52q53 53 53 132q0 84 -52 136q-53 53 -134 53q-83 0 -136 -53t-53 -136q0 -84 53 -134t136 -50zM678 -25q-221 0 -346 92
t-125 277q0 66 18 148l205 966h37l-207 -975q-16 -80 -16 -135q0 -172 114 -255q115 -83 320 -83q481 0 582 473l206 975h37l-207 -975q-108 -508 -618 -508z" />
    <glyph glyph-name="uring" unicode="&#x16f;" horiz-adv-x="1191" 
d="M932 1286q-62 -61 -160 -61q-97 0 -158 61q-63 62 -63 156q0 97 62 159t159 62t159 -62t62 -159q0 -95 -61 -156zM772 1630q-82 0 -134 -52t-52 -136q0 -79 53 -132t133 -53q81 0 135 51t54 134q0 82 -54 136q-52 52 -135 52zM946 449l129 608h37l-225 -1057h-37l61 281
q-152 -306 -460 -306q-145 0 -225 75q-79 75 -79 212q0 39 13 111l145 684h37l-145 -684q-13 -65 -13 -109q0 -124 70 -189t201 -65q175 0 307 112q131 112 184 327z" />
    <glyph glyph-name="Uhungarumlaut" unicode="&#x170;" horiz-adv-x="1536" 
d="M772 1655h-39l225 336h43zM1130 1655h-38l260 336h43zM678 -25q-221 0 -346 92t-125 277q0 66 18 148l205 966h37l-207 -975q-16 -80 -16 -135q0 -172 114 -255q115 -83 320 -83q481 0 582 473l206 975h37l-207 -975q-108 -508 -618 -508z" />
    <glyph glyph-name="uhungarumlaut" unicode="&#x171;" horiz-adv-x="1191" 
d="M719 1589h43l-230 -336h-38zM1112 1589h43l-264 -336h-39zM946 449l129 608h37l-225 -1057h-37l61 281q-152 -306 -460 -306q-145 0 -225 75q-79 75 -79 212q0 39 13 111l145 684h37l-145 -684q-13 -65 -13 -109q0 -124 70 -189t201 -65q175 0 307 112q131 112 184 327z
" />
    <glyph glyph-name="Uogonek" unicode="&#x172;" horiz-adv-x="1536" 
d="M1260 483l206 975h37l-207 -975q-96 -458 -518 -503l-168 -84q-66 -32 -116 -70q-56 -39 -56 -109q0 -51 39 -83q38 -31 107 -31h78l-7 -33h-75q-84 0 -131 39q-48 40 -48 106q0 79 64 125q46 35 55 39q5 1 17 8l28 16q6 3 17 9t16 8l111 55h-31q-221 0 -346 92t-125 277
q0 66 18 148l205 966h37l-207 -975q-16 -80 -16 -135q0 -172 114 -255q115 -83 320 -83q481 0 582 473z" />
    <glyph glyph-name="uogonek" unicode="&#x173;" horiz-adv-x="1191" 
d="M887 0l-201 -102q-74 -38 -104 -69q-31 -33 -37 -93q0 -52 39 -83q40 -32 106 -32h78l-6 -33h-76q-84 0 -130 39t-46 107q0 90 80 141q35 22 86 49l176 88l59 269q-152 -306 -460 -306q-145 0 -225 75q-79 75 -79 212q0 39 13 111l145 684h37l-145 -684q-13 -65 -13 -109
q0 -124 70 -189t201 -65q175 0 307 112q131 112 184 327l129 608h37z" />
    <glyph glyph-name="Wcircumflex" unicode="&#x174;" horiz-adv-x="1916" 
d="M1419 1659l-196 301l-324 -301h-47l354 332h37l217 -332h-41zM1378 254l619 1204h39l-754 -1470h-31l-114 1411l-676 -1411h-33l-147 1470h36l119 -1200l19 -209l675 1409h35l99 -1204l14 -205z" />
    <glyph glyph-name="wcircumflex" unicode="&#x175;" horiz-adv-x="1562" 
d="M1167 1257l-196 302l-326 -302h-45l354 332h37l215 -332h-39zM1049 186l467 871h38l-569 -1057h-35l-88 895l-8 119l-57 -119l-469 -895h-35l-123 1057h39l98 -871l15 -141l67 141l457 871h35l88 -871l12 -137z" />
    <glyph glyph-name="Ycircumflex" unicode="&#x176;" horiz-adv-x="1370" 
d="M1190 1659l-197 301l-323 -301h-47l354 332h37l217 -332h-41zM1462 1458h49l-792 -872l-127 -586h-37l127 586l-426 872h41l393 -813l12 -31l25 31z" />
    <glyph glyph-name="ycircumflex" unicode="&#x177;" horiz-adv-x="1116" 
d="M946 1257l-196 302l-326 -302h-45l354 332h37l215 -332h-39zM422 -8l645 1065h41l-793 -1301q-60 -103 -120 -139q-67 -35 -179 -35h-63l8 35h53q106 0 163 33q56 33 112 123l108 180l-227 1104h39l207 -1020z" />
    <glyph glyph-name="Ydieresis" unicode="&#x178;" horiz-adv-x="1370" 
d="M725 1810h74l-25 -122h-76zM1118 1810h74l-27 -122h-73zM1462 1458h49l-792 -872l-127 -586h-37l127 586l-426 872h41l393 -813l12 -31l25 31z" />
    <glyph glyph-name="Zacute" unicode="&#x179;" horiz-adv-x="1411" 
d="M1065 1991h47l-248 -308h-41zM416 1458h1003l-8 -35l-1302 -1388h1036l-8 -35h-1086l8 37l1303 1386h-954z" />
    <glyph glyph-name="zacute" unicode="&#x17a;" horiz-adv-x="1069" 
d="M807 1589h47l-248 -307h-41zM258 1057h770l-6 -27l-954 -995h776l-8 -35h-828l6 29l953 993h-717z" />
    <glyph glyph-name="Zdotaccent" unicode="&#x17b;" horiz-adv-x="1411" 
d="M971 1860h37l-23 -101h-37zM416 1458h1003l-8 -35l-1302 -1388h1036l-8 -35h-1086l8 37l1303 1386h-954z" />
    <glyph glyph-name="zdotaccent" unicode="&#x17c;" horiz-adv-x="1069" 
d="M713 1458h37l-23 -100h-37zM258 1057h770l-6 -27l-954 -995h776l-8 -35h-828l6 29l953 993h-717z" />
    <glyph glyph-name="Zcaron" unicode="&#x17d;" horiz-adv-x="1411" 
d="M1303 1987l-355 -332h-39l-215 332h41l197 -301l323 301h48zM416 1458h1003l-8 -35l-1302 -1388h1036l-8 -35h-1086l8 37l1303 1386h-954z" />
    <glyph glyph-name="zcaron" unicode="&#x17e;" horiz-adv-x="1069" 
d="M1044 1585l-354 -332h-37l-217 332h41l197 -301l325 301h45zM967 1022h-717l8 35h770l-6 -27l-954 -995h776l-8 -35h-828l6 29z" />
    <glyph glyph-name="uni018F" unicode="&#x18f;" horiz-adv-x="1687" 
d="M1022 1483q261 0 405 -156t144 -420q0 -109 -21 -205q-66 -329 -278 -526q-219 -201 -527 -201q-253 0 -399 160q-145 157 -145 420q0 56 10 150h1300q2 2 2 6q21 96 21 196q0 254 -136 397q-136 144 -380 144q-197 0 -360 -94q-162 -94 -269 -267h-43q111 186 287 291
q175 105 389 105zM750 10q278 0 483 183q203 185 272 477h-1261q-6 -60 -6 -113q0 -246 137 -397q137 -150 375 -150z" />
    <glyph glyph-name="florin" unicode="&#x192;" horiz-adv-x="1310" 
d="M1212 1458h86l-14 -35h-82q-91 0 -151 -48q-59 -47 -109 -165l-164 -405h273l-13 -33h-274l-338 -833q-52 -130 -123 -187q-72 -57 -182 -57h-86l14 35h82q92 0 152 48q58 46 108 165l336 829h-262l12 33h264l166 409q52 130 124 188q69 56 181 56z" />
    <glyph glyph-name="uni01F4" unicode="&#x1f4;" horiz-adv-x="1701" 
d="M1151 1993h47l-248 -307h-41zM1012 1448q-286 0 -486 -188q-200 -191 -268 -517q-22 -114 -22 -206q0 -244 134 -386q134 -141 375 -141q249 0 445 158q193 157 260 434l16 78h-577l8 37h612l-151 -717h-33l78 383q-96 -194 -270 -301q-175 -107 -390 -107
q-255 0 -401 154q-143 150 -143 410q0 97 22 213q69 335 281 534q209 197 510 197q252 0 395 -124t143 -343h-37q0 203 -134 317q-135 115 -367 115z" />
    <glyph glyph-name="uni01F5" unicode="&#x1f5;" horiz-adv-x="1226" 
d="M897 1589h47l-248 -307h-41zM1040 723l72 334h35l-227 -1073q-90 -404 -506 -404q-112 0 -191 30q-80 30 -118 77q-37 47 -54 90q-16 42 -16 82h37q2 -70 65 -150q73 -94 283 -94q388 0 465 371l71 331q-69 -152 -195 -247q-127 -95 -276 -95q-177 0 -276 111
q-98 110 -98 303q-6 276 153 485t404 207q166 0 263 -97t109 -261zM489 10q146 0 275 103q125 103 188 252q64 149 64 313q0 170 -95 270q-95 99 -251 99q-240 0 -381 -195q-142 -198 -142 -465q0 -174 90 -276q89 -101 252 -101z" />
    <glyph glyph-name="Aringacute" unicode="&#x1fa;" horiz-adv-x="1468" 
d="M1180 2249h47l-248 -305h-41zM1274 0h-39l-109 492h-798l-318 -492h-41l930 1440q-82 12 -130 71q-50 61 -50 142q0 96 62 158q63 63 159 63t159 -63q62 -62 62 -158q0 -89 -57 -150q-56 -61 -148 -67zM752 1653q0 -79 54 -132q55 -53 134 -53t134 53q54 53 54 132
q0 83 -53 136q-52 52 -135 52t-135 -52q-53 -53 -53 -136zM905 1386l-553 -858h766l-186 854l-4 43z" />
    <glyph glyph-name="aringacute" unicode="&#x1fb;" horiz-adv-x="1183" 
d="M971 2077h49l-248 -305h-41zM754 1206q-97 0 -160 63q-64 64 -64 156q0 93 64 157q63 63 160 63q93 0 156 -63t63 -157q0 -93 -63 -156t-156 -63zM754 1612q-84 0 -136 -51q-53 -51 -53 -136q0 -84 53 -135q52 -51 136 -51q82 0 134 51t52 135q0 85 -52 136t-134 51z
M1024 33h33l-6 -33h-31q-116 0 -151 59q-36 59 -7 195l2 12q-144 -291 -475 -291q-153 0 -236 72t-83 191q0 277 385 329l270 37q122 18 177 63q53 44 71 130q28 124 -55 187q-84 63 -256 63q-179 0 -275 -73q-94 -71 -133 -224l-37 2q79 329 451 329q172 0 260 -58t88 -159
q0 -37 -6 -67l-115 -549q-24 -117 4 -166t125 -49zM399 8q351 0 488 371l61 297q-52 -82 -221 -103l-266 -38q-354 -49 -354 -295q0 -107 74 -169q75 -63 218 -63z" />
    <glyph glyph-name="AEacute" unicode="&#x1fc;" horiz-adv-x="2324" 
d="M1819 1991h47l-248 -308h-41zM2331 1458l-9 -35h-919l-135 -641h860l-6 -34h-862l-152 -713h960l-10 -35h-995l104 489h-733l-422 -489h-43l1258 1458h1104zM1241 1423l-776 -899h711l190 899h-125z" />
    <glyph glyph-name="aeacute" unicode="&#x1fd;" horiz-adv-x="1961" 
d="M1257 1589h48l-248 -307h-41zM961 530v-2l-9 -32q-10 -63 -10 -127q0 -169 90 -264t254 -95q154 0 269 79q116 80 182 204l37 -2q-54 -118 -187 -219q-132 -97 -305 -97q-170 0 -269 97q-98 97 -104 268q-68 -175 -207 -269q-142 -96 -321 -96q-144 0 -226 77
q-81 76 -81 194q0 158 120 246q119 88 316 88h426l37 178q8 37 8 73q0 216 -307 216q-164 0 -260 -67q-95 -66 -146 -206h-35q94 307 449 307q166 0 250 -62q86 -63 86 -179q0 -31 -6 -68q80 147 207 228t284 81q175 0 271 -99t96 -267q0 -46 -25 -168h-880l-4 -15v-2z
M1497 1047q-189 0 -330 -126q-140 -125 -196 -341h846q16 74 16 127q0 157 -87 248q-87 92 -249 92zM385 8q195 0 334 111q140 111 186 321l23 107h-428q-182 0 -286 -77q-103 -76 -103 -222q0 -102 72 -171t202 -69z" />
    <glyph glyph-name="Oslashacute" unicode="&#x1fe;" horiz-adv-x="1689" 
d="M1157 1993h47l-248 -307h-41zM1655 1460l20 -20l-194 -180q92 -145 92 -353q0 -109 -21 -205q-66 -329 -278 -526q-219 -201 -526 -201q-292 0 -439 209l-203 -186l-18 20l205 189q-90 145 -90 348q0 110 20 201q66 329 283 526q217 201 518 201q289 0 440 -199zM240 557
q0 -191 82 -324l1114 1027q-139 188 -416 188q-285 0 -492 -193q-207 -195 -268 -507q-20 -86 -20 -191zM1536 907q0 195 -84 328l-1116 -1026q137 -199 416 -199q288 0 495 195q203 191 269 506q20 91 20 196z" />
    <glyph glyph-name="oslashacute" unicode="&#x1ff;" horiz-adv-x="1210" 
d="M879 1591h47l-248 -307h-41zM1159 1081l23 -20l-150 -148q68 -107 68 -258q0 -57 -17 -151q-45 -247 -197 -387q-154 -142 -372 -142q-198 0 -305 131l-137 -133l-23 21l141 137q-77 107 -77 275q0 85 14 149q47 244 203 385q153 141 368 141q208 0 316 -141zM150 406
q0 -148 67 -248l770 755q-99 134 -291 134q-196 0 -342 -134q-143 -134 -190 -366q-14 -62 -14 -141zM1063 655q0 137 -57 232l-770 -754q99 -123 278 -123q203 0 345 133q143 134 188 367q16 89 16 145z" />
    <glyph glyph-name="uni0218" unicode="&#x218;" horiz-adv-x="1376" 
d="M612 -25q-240 0 -370 98q-129 98 -129 292q0 14 4 61h37q-4 -44 -4 -55q0 -180 120 -270q121 -91 344 -91q257 0 407 111t150 315q0 214 -268 269l-282 57q-308 62 -308 305q0 203 156 309q152 107 395 107q210 0 331 -87q122 -87 122 -245q0 -33 -6 -68h-37q6 30 6 64
q0 142 -113 222q-112 79 -305 79q-227 0 -370 -98q-144 -100 -144 -283q0 -211 279 -268l286 -60q293 -60 293 -301q0 -220 -159 -342q-158 -121 -435 -121zM514 -453h-35l6 29h27q21 0 30 9q8 8 13 34l27 123l-64 -8l17 82h90l-43 -207q-17 -62 -68 -62z" />
    <glyph glyph-name="uni0219" unicode="&#x219;" horiz-adv-x="1083" 
d="M459 -25q-181 0 -281 78t-100 217h37q0 -125 91 -192q92 -68 257 -68q184 0 290 77q105 76 105 218q0 90 -56 139q-57 49 -183 70l-138 23q-135 24 -203 79q-69 56 -69 156q0 142 114 221q115 80 300 80q163 0 257 -77q93 -76 93 -210h-37q0 122 -84 188t-234 66
q-169 0 -271 -71q-103 -72 -103 -195q0 -91 61 -137q64 -48 189 -66l137 -22q140 -21 202 -79t62 -163q0 -161 -117 -247q-116 -85 -319 -85zM342 -440h-35l6 28h27q20 0 30 10q8 8 13 33l27 123l-64 -8l17 82h90l-43 -207q-16 -61 -68 -61z" />
    <glyph glyph-name="uni021A" unicode="&#x21a;" horiz-adv-x="1312" 
d="M289 1458h1112l-8 -35h-539l-303 -1423h-37l303 1423h-536zM506 -246l-64 -8l17 82h90l-43 -207q-15 -61 -68 -61h-35l7 28h26q20 0 30 10q8 8 13 33z" />
    <glyph glyph-name="uni021B" unicode="&#x21b;" horiz-adv-x="677" 
d="M403 1024l-4 -20l-168 -783q-8 -50 -8 -76q0 -110 142 -110h120l-6 -35h-121q-174 0 -174 139q0 27 11 80l167 785l5 20h-215l4 33h217l4 16l59 285h37l-59 -285l-4 -16h295l-7 -33h-295zM168 -233l-64 -9l17 82h90l-43 -207q-16 -61 -68 -61h-34l6 29h26q21 0 30 9
q8 8 13 34z" />
    <glyph glyph-name="uni0237" unicode="&#x237;" horiz-adv-x="419" 
d="M-211 -418h-59l6 35h53q208 0 254 213l262 1227h37l-264 -1231q-53 -244 -289 -244z" />
    <glyph glyph-name="uni0259" unicode="&#x259;" horiz-adv-x="1173" 
d="M666 1081q179 0 286 -117q109 -120 109 -315q0 -75 -17 -155q-53 -241 -202 -377q-154 -142 -361 -142q-177 0 -280 103t-103 274q0 78 21 158h891q14 62 14 141q0 181 -98 288q-99 108 -260 108q-178 0 -293 -97q-118 -99 -162 -215l-33 2q46 131 172 238
q124 106 316 106zM481 10q188 0 329 126q140 125 191 339h-854q-14 -52 -14 -121q0 -158 93 -251t255 -93z" />
    <glyph glyph-name="h.sups" unicode="&#x2b0;" horiz-adv-x="987" 
d="M705 1475q115 0 176 -57t61 -156q0 -55 -14 -101l-84 -399h-35l88 407q10 54 10 88q0 87 -54 136q-53 49 -153 49q-117 0 -207 -70q-91 -71 -131 -203l-86 -407h-34l204 962h35l-92 -434q102 185 316 185z" />
    <glyph glyph-name="r.sups" unicode="&#x2b3;" horiz-adv-x="679" 
d="M705 1466h75l-6 -32h-74q-255 0 -338 -267l-83 -405h-35l147 696h33l-37 -180q98 188 318 188z" />
    <glyph glyph-name="circumflex" unicode="&#x2c6;" horiz-adv-x="1024" 
d="M410 1257h-48l355 332h37l217 -332h-41l-197 302z" />
    <glyph glyph-name="caron" unicode="&#x2c7;" horiz-adv-x="1024" 
d="M686 1253h-39l-215 332h41l197 -301l325 301h45z" />
    <glyph glyph-name="uni02C9" unicode="&#x2c9;" horiz-adv-x="1024" 
d="M981 1358h-586l6 33h586z" />
    <glyph glyph-name="breve" unicode="&#x2d8;" horiz-adv-x="1024" 
d="M676 1274q-279 0 -279 203q0 26 6 61h31q-4 -47 -4 -59q0 -172 248 -172q280 0 340 231h33q-72 -264 -375 -264z" />
    <glyph glyph-name="dotaccent" unicode="&#x2d9;" horiz-adv-x="1024" 
d="M705 1358h-37l22 100h37z" />
    <glyph glyph-name="ring" unicode="&#x2da;" horiz-adv-x="1024" 
d="M864 1286q-65 -61 -159 -61q-97 0 -158 61q-64 62 -64 156q0 96 63 159q62 62 159 62q96 0 158 -62q63 -63 63 -159q0 -94 -62 -156zM705 1257q81 0 135 51q53 50 53 134q0 83 -53 136q-52 52 -135 52t-135 -52t-52 -136q0 -79 53 -132t134 -53z" />
    <glyph glyph-name="ogonek" unicode="&#x2db;" horiz-adv-x="1024" 
d="M438 -412h-78q-84 0 -130 39t-46 107q0 79 64 125q46 35 55 39l78 41l162 81l18 -20l-170 -86q-74 -37 -117 -70q-53 -39 -53 -108q0 -51 38 -83t106 -32h79z" />
    <glyph glyph-name="tilde" unicode="&#x2dc;" horiz-adv-x="1024" 
d="M338 1298h-35q80 310 254 310q117 0 162 -138q45 -139 149 -139q70 0 120 65q51 66 91 212h35q-80 -310 -252 -310q-66 0 -106 43q-42 45 -58 96q-17 53 -53 95q-37 43 -94 43q-139 0 -213 -277z" />
    <glyph glyph-name="hungarumlaut" unicode="&#x2dd;" horiz-adv-x="1024" 
d="M463 1253h-39l223 336h43zM821 1253h-39l260 336h43z" />
    <glyph glyph-name="s.sups" unicode="&#x2e2;" horiz-adv-x="888" 
d="M526 745q-299 0 -311 220l33 2q12 -191 278 -191q138 0 218 48q79 48 79 137q0 59 -44 92q-43 33 -146 45l-152 20q-190 24 -190 154q0 93 82 145q83 53 221 53q278 0 293 -196l-33 -4q-12 170 -260 170q-126 0 -199 -44q-71 -43 -71 -124q0 -101 165 -123l158 -21
q209 -27 209 -167q0 -101 -89 -158q-90 -58 -241 -58z" />
    <glyph glyph-name="gravecomb" unicode="&#x300;" 
d="M180 1282h-37l-182 307h45z" />
    <glyph glyph-name="acutecomb" unicode="&#x301;" 
d="M72 1282h-41l241 307h47z" />
    <glyph glyph-name="uni0302" unicode="&#x302;" 
d="M-106 1257h-46l355 332h37l215 -332h-39l-197 302z" />
    <glyph glyph-name="tildecomb" unicode="&#x303;" 
d="M-174 1298h-35q80 310 254 310q117 0 162 -138q45 -139 149 -139q70 0 120 65q51 66 91 212h35q-80 -310 -252 -310q-66 0 -106 43q-42 45 -58 96q-17 53 -53 95q-37 43 -94 43q-139 0 -213 -277z" />
    <glyph glyph-name="uni0304" unicode="&#x304;" 
d="M469 1358h-586l6 33h586z" />
    <glyph glyph-name="uni0306" unicode="&#x306;" 
d="M164 1274q-279 0 -279 203q0 26 6 61h31q-4 -47 -4 -59q0 -172 248 -172q280 0 340 231h33q-72 -264 -375 -264z" />
    <glyph glyph-name="uni0307" unicode="&#x307;" 
d="M193 1358h-37l22 100h37z" />
    <glyph glyph-name="uni0308" unicode="&#x308;" 
d="M16 1360h-36l20 98h37zM373 1360h-37l20 98h37z" />
    <glyph glyph-name="uni030A" unicode="&#x30a;" 
d="M352 1286q-65 -61 -159 -61q-97 0 -158 63q-64 62 -64 156t64 158q61 61 158 61q94 0 159 -61q62 -62 62 -158t-62 -158zM193 1257q81 0 135 52q53 51 53 135t-53 135q-52 51 -135 51t-135 -51t-52 -135t52 -135q54 -52 135 -52z" />
    <glyph glyph-name="uni030B" unicode="&#x30b;" 
d="M-43 1253h-39l225 336h43zM315 1253h-39l261 336h43z" />
    <glyph glyph-name="uni030C" unicode="&#x30c;" 
d="M156 1253h-37l-217 332h41l196 -301l326 301h45z" />
    <glyph glyph-name="uni0312" unicode="&#x312;" 
d="M219 1360h-88l39 186q12 62 68 62h34l-6 -29h-28q-36 0 -43 -45l-21 -100l64 6z" />
    <glyph glyph-name="uni0313" unicode="&#x313;" 
d="M168 1360h-37l8 29h27q21 0 30 9q8 8 13 34l22 102l-63 -8l16 82h90l-41 -187q-12 -61 -65 -61z" />
    <glyph glyph-name="dotbelowcomb" unicode="&#x323;" 
d="M-150 -354h-75l26 123h76z" />
    <glyph glyph-name="uni0324" unicode="&#x324;" 
d="M-346 -352h-74l25 123h76zM47 -352h-76l27 123h76z" />
    <glyph glyph-name="uni0325" unicode="&#x325;" 
d="M-37 -545q-61 -61 -158 -61t-159 61q-62 62 -62 158t62 158q62 61 159 61t158 -63q64 -62 64 -156t-64 -158zM-195 -573q83 0 135 51t52 135t-52 135t-135 51t-135 -51q-53 -51 -53 -135t53 -135q52 -51 135 -51z" />
    <glyph glyph-name="uni0326" unicode="&#x326;" 
d="M-207 -440h-35l6 28h27q20 0 30 10q8 8 13 33l27 123l-64 -8l17 80h90l-43 -205q-16 -61 -68 -61z" />
    <glyph glyph-name="uni0327" unicode="&#x327;" 
d="M-238 -436h-77l4 30h73q218 0 218 138q0 94 -130 94h-83l-17 27l121 147h37l-117 -141h68q75 0 115 -34t40 -91q0 -84 -67 -127t-185 -43z" />
    <glyph glyph-name="uni0328" unicode="&#x328;" 
d="M-238 -412h-75q-85 0 -131 39q-48 40 -48 107q0 78 62 125q52 37 57 39l78 41l164 81l18 -20l-170 -86q-67 -32 -118 -70q-54 -42 -54 -108q0 -52 39 -83q40 -32 107 -32h78z" />
    <glyph glyph-name="uni032E" unicode="&#x32e;" 
d="M-209 -477q-278 0 -278 203q0 28 6 61h30q-6 -30 -6 -59q0 -172 248 -172q282 0 342 231h33q-72 -264 -375 -264z" />
    <glyph glyph-name="uni0331" unicode="&#x331;" 
d="M111 -334h-586l6 33h586z" />
    <glyph glyph-name="uni0335" unicode="&#x335;" 
d="M322 745h-549l6 33h549z" />
    <glyph glyph-name="uni0337" unicode="&#x337;" 
d="M588 1055l-1151 -1059l-23 22l1151 1059z" />
    <glyph glyph-name="uni0338" unicode="&#x338;" 
d="M838 1438l-1569 -1442l-23 22l1569 1442z" />
    <glyph glyph-name="uni0394" unicode="&#x394;" horiz-adv-x="1468" 
d="M608 1468h31l635 -1468h-1305zM610 1384l-587 -1349h1198l-584 1349l-12 33z" />
    <glyph glyph-name="uni03A9" unicode="&#x3a9;" horiz-adv-x="1845" 
d="M795 0h-562v35h488v4q-471 246 -471 739q0 326 178 516q179 191 467 191q291 0 467 -189q176 -193 176 -518q0 -488 -465 -739v-4h486v-35h-560v33q502 252 502 745q0 308 -164 492q-167 180 -442 180q-273 0 -440 -180q-168 -180 -168 -492q0 -493 508 -745v-33z" />
    <glyph glyph-name="uni03BC" unicode="&#x3bc;" horiz-adv-x="1417" 
d="M342 -418h-37v1475h37v-684q0 -174 86 -269q85 -94 250 -94q185 0 291 121t106 354v572h37v-1057h-37l2 281q-90 -306 -401 -306q-254 0 -336 211h-2l4 -358v-246z" />
    <glyph glyph-name="pi" unicode="&#x3c0;" horiz-adv-x="1462" 
d="M1329 1057v-35h-295v-772q0 -120 46 -167q46 -48 161 -48h25v-35h-27q-128 0 -185 58q-57 59 -57 194v770h-548v-1022h-35v1022h-256v35h1171z" />
    <glyph glyph-name="d.sups" unicode="&#x1d48;" horiz-adv-x="995" 
d="M924 1257l100 467h33l-205 -962h-33l39 182q-51 -90 -137 -144q-87 -55 -191 -55q-129 0 -209 80q-79 79 -79 219q0 183 116 306q117 125 291 125q115 0 186 -59t89 -159zM532 778q160 0 267 125q106 121 106 287q0 125 -68 189q-70 65 -188 65q-161 0 -266 -117
q-107 -119 -107 -280q0 -127 69 -198t187 -71z" />
    <glyph glyph-name="t.sups" unicode="&#x1d57;" horiz-adv-x="577" 
d="M686 1430h-217l-104 -500q-11 -53 -11 -66q0 -71 103 -71h90l-4 -31h-92q-132 0 -132 98q0 12 11 70l106 500h-198l4 28h200l43 201h33l-43 -201h215z" />
    <glyph glyph-name="Wgrave" unicode="&#x1e80;" horiz-adv-x="1916" 
d="M1010 1991l174 -308h-37l-182 308h45zM1378 254l619 1204h39l-754 -1470h-31l-114 1411l-676 -1411h-33l-147 1470h36l119 -1200l19 -209l675 1409h35l99 -1204l14 -205z" />
    <glyph glyph-name="wgrave" unicode="&#x1e81;" horiz-adv-x="1562" 
d="M756 1589l174 -307h-37l-182 307h45zM1049 186l467 871h38l-569 -1057h-35l-88 895l-8 119l-57 -119l-469 -895h-35l-123 1057h39l98 -871l15 -141l67 141l457 871h35l88 -871l12 -137z" />
    <glyph glyph-name="Wacute" unicode="&#x1e82;" horiz-adv-x="1916" 
d="M1276 1991h47l-248 -308h-41zM1378 254l619 1204h39l-754 -1470h-31l-114 1411l-676 -1411h-33l-147 1470h36l119 -1200l19 -209l675 1409h35l99 -1204l14 -205z" />
    <glyph glyph-name="wacute" unicode="&#x1e83;" horiz-adv-x="1562" 
d="M1022 1589h47l-248 -307h-41zM1049 186l467 871h38l-569 -1057h-35l-88 895l-8 119l-57 -119l-469 -895h-35l-123 1057h39l98 -871l15 -141l67 141l457 871h35l88 -871l12 -137z" />
    <glyph glyph-name="Wdieresis" unicode="&#x1e84;" horiz-adv-x="1916" 
d="M956 1810h74l-24 -122h-76zM1350 1810h73l-26 -122h-74zM1378 254l619 1204h39l-754 -1470h-31l-114 1411l-676 -1411h-33l-147 1470h36l119 -1200l19 -209l675 1409h35l99 -1204l14 -205z" />
    <glyph glyph-name="wdieresis" unicode="&#x1e85;" horiz-adv-x="1562" 
d="M750 1458h36l-20 -98h-37zM1106 1458h37l-21 -98h-37zM1049 186l467 871h38l-569 -1057h-35l-88 895l-8 119l-57 -119l-469 -895h-35l-123 1057h39l98 -871l15 -141l67 141l457 871h35l88 -871l12 -137z" />
    <glyph glyph-name="uni1E9E" unicode="&#x1e9e;" horiz-adv-x="1411" 
d="M1427 1438l-6 -33l-655 -606q61 4 84 4q199 0 309 -82q111 -83 111 -229q0 -225 -164 -371q-162 -144 -426 -144q-127 0 -277 31l7 35q149 -31 274 -31q246 0 397 133q152 134 152 344q0 135 -103 206t-288 71q-83 0 -137 -8l8 35l659 616q-205 25 -430 25
q-255 0 -391 -114q-138 -115 -184 -337l-211 -983h-37l211 983q100 487 618 487q283 0 479 -32z" />
    <glyph glyph-name="Ygrave" unicode="&#x1ef2;" horiz-adv-x="1370" 
d="M778 1991l174 -308h-37l-182 308h45zM1462 1458h49l-792 -872l-127 -586h-37l127 586l-426 872h41l393 -813l12 -31l25 31z" />
    <glyph glyph-name="ygrave" unicode="&#x1ef3;" horiz-adv-x="1116" 
d="M535 1589l174 -307h-37l-183 307h46zM422 -8l645 1065h41l-793 -1301q-60 -103 -120 -139q-67 -35 -179 -35h-63l8 35h53q106 0 163 33q56 33 112 123l108 180l-227 1104h39l207 -1020z" />
    <glyph glyph-name="thinspace" unicode="&#x2009;" horiz-adv-x="419" 
 />
    <glyph glyph-name="uni2011" unicode="&#x2011;" horiz-adv-x="772" 
d="M666 494h-574l8 36h574z" />
    <glyph glyph-name="endash" unicode="&#x2013;" horiz-adv-x="1089" 
d="M983 494h-891l8 36h891z" />
    <glyph glyph-name="emdash" unicode="&#x2014;" horiz-adv-x="1691" 
d="M1585 494h-1493l8 36h1493z" />
    <glyph glyph-name="quoteleft" unicode="&#x2018;" horiz-adv-x="509" 
d="M438 1104h-119l58 282q24 113 129 113h16l-8 -31h-14q-41 0 -62 -21q-19 -19 -32 -75l-35 -182l88 10z" />
    <glyph glyph-name="quoteright" unicode="&#x2019;" horiz-adv-x="509" 
d="M326 1071h-15l6 33h17q40 0 61 21q20 20 31 75l37 180l-88 -10l20 96h119l-59 -282q-21 -113 -129 -113z" />
    <glyph glyph-name="quotesinglbase" unicode="&#x201a;" horiz-adv-x="509" 
d="M33 -305h-15l9 33h14q40 0 61 21q20 20 31 75l37 180l-88 -10l20 98h119l-59 -285q-21 -112 -129 -112z" />
    <glyph glyph-name="quotedblleft" unicode="&#x201c;" horiz-adv-x="776" 
d="M438 1104h-119l58 282q24 113 129 113h16l-8 -31h-14q-41 0 -62 -21q-19 -19 -32 -75l-35 -182l88 10zM705 1104h-121l59 282q23 113 129 113h14l-6 -31h-14q-40 0 -61 -21t-33 -75l-37 -182l90 10z" />
    <glyph glyph-name="quotedblright" unicode="&#x201d;" horiz-adv-x="774" 
d="M324 1067h-15l6 31h17q40 0 61 21q20 20 31 75l37 180l-88 -10l20 98h119l-59 -284q-23 -111 -129 -111zM590 1067h-15l7 31h16q40 0 61 21q20 20 31 75l37 180l-88 -10l20 98h119l-59 -284q-24 -111 -129 -111z" />
    <glyph glyph-name="quotedblbase" unicode="&#x201e;" horiz-adv-x="776" 
d="M33 -305h-15l9 33h14q40 0 61 21q20 20 31 75l37 180l-88 -10l20 98h119l-59 -285q-21 -112 -129 -112zM299 -305h-14l8 33h14q41 0 62 21q19 19 30 75l37 180l-88 -10l21 98h118l-59 -285q-21 -112 -129 -112z" />
    <glyph glyph-name="dagger" unicode="&#x2020;" horiz-adv-x="1341" 
d="M821 1157l422 2l-8 -37l-420 2l-285 -1339h-36l284 1339l-420 -2l9 37l417 -2l125 584h37z" />
    <glyph glyph-name="daggerdbl" unicode="&#x2021;" horiz-adv-x="1343" 
d="M1243 1159l-6 -37l-422 2l-151 -714l421 2l-8 -37l-422 2l-125 -592h-36l124 592l-417 -2l8 37l418 -2l151 714l-418 -2l7 37l417 -2l125 584h37l-125 -584z" />
    <glyph glyph-name="bullet" unicode="&#x2022;" horiz-adv-x="610" 
d="M373 510h-146l33 145h146z" />
    <glyph glyph-name="ellipsis" unicode="&#x2026;" horiz-adv-x="1521" 
d="M201 0h-119l20 98h119zM709 0h-119l20 98h119zM1217 0h-119l20 98h119z" />
    <glyph glyph-name="perthousand" unicode="&#x2030;" horiz-adv-x="3686" 
d="M627 643q-143 0 -217 77t-74 222q0 74 18 166q96 442 434 442q144 0 216 -75q73 -76 73 -222q0 -77 -18 -168q-96 -442 -432 -442zM627 678q158 0 254 100q97 101 143 314q20 91 20 161q0 265 -258 265q-307 0 -397 -416q-20 -91 -20 -162q0 -262 258 -262zM772 -31h-43
l1235 1520h45zM2030 -14q-291 0 -291 299q0 75 18 166q94 442 434 442q142 0 215 -76q74 -77 74 -221q0 -76 -18 -168q-94 -442 -432 -442zM3002 -14q-290 0 -290 299q0 75 18 166q96 442 434 442q142 0 215 -76q74 -77 74 -221q0 -71 -19 -168q-96 -442 -432 -442zM2030 20
q158 0 254 102t141 312q20 91 20 162q0 264 -258 264q-305 0 -395 -416q-20 -91 -20 -161q0 -263 258 -263zM3002 20q158 0 255 102q99 103 143 312q20 91 20 162q0 264 -258 264q-307 0 -397 -416q-21 -96 -21 -161q0 -263 258 -263z" />
    <glyph glyph-name="guilsinglleft" unicode="&#x2039;" horiz-adv-x="899" 
d="M598 23l-10 -43l-402 526l11 45l624 522l-12 -53l-592 -498z" />
    <glyph glyph-name="guilsinglright" unicode="&#x203a;" horiz-adv-x="899" 
d="M698 502l-622 -522l10 53l592 497l-379 500l10 43l400 -526z" />
    <glyph glyph-name="uni203D" unicode="&#x203d;" horiz-adv-x="1265" 
d="M795 1473q193 0 307 -87q112 -85 112 -241q0 -242 -315 -404l-68 -34q-109 -56 -163 -119q-52 -64 -82 -178l-15 -68h-30l114 555l52 238h36l-120 -562q63 98 231 181q171 89 247 177q77 89 77 214q0 140 -103 217q-101 76 -280 76q-207 0 -342 -106q-133 -105 -168 -298
h-37q35 211 178 324q145 115 369 115zM528 0h-84l17 84h84z" />
    <glyph glyph-name="fraction" unicode="&#x2044;" horiz-adv-x="587" 
d="M-260 -31h-43l1237 1520h43z" />
    <glyph glyph-name="zero.sups" unicode="&#x2070;" horiz-adv-x="907" 
d="M518 748q-291 0 -291 299q0 68 19 165q95 443 432 443q291 0 291 -297q0 -72 -21 -168q-96 -442 -430 -442zM518 782q158 0 254 102t141 312q21 96 21 162q0 264 -258 264q-305 0 -395 -416q-21 -96 -21 -162q0 -262 258 -262z" />
    <glyph glyph-name="four.sups" unicode="&#x2074;" horiz-adv-x="847" 
d="M678 762h-35l53 244h-530l6 30l657 600h35l-125 -598h154l-8 -32h-154zM817 1589l-600 -551h488l114 549z" />
    <glyph glyph-name="five.sups" unicode="&#x2075;" horiz-adv-x="874" 
d="M498 741q-124 0 -206 58q-81 57 -99 153l34 9q15 -85 87 -136t186 -51q154 0 256 84q100 82 100 211q0 101 -65 159t-183 58q-179 0 -293 -129l-43 21l187 458h497l-8 -32h-469l-160 -398l3 -2q115 113 292 113q128 0 203 -67q74 -66 74 -177q0 -143 -111 -237
q-113 -95 -282 -95z" />
    <glyph glyph-name="six.sups" unicode="&#x2076;" horiz-adv-x="874" 
d="M539 750q-146 0 -228 85t-82 248q0 233 121 402q122 170 316 170q106 0 183 -56t105 -153l-32 -8q-55 184 -258 184q-171 0 -279 -145q-111 -148 -119 -357q128 203 344 203q127 0 205 -70q76 -69 76 -184q0 -133 -96 -225q-94 -94 -256 -94zM539 782q140 0 229 81
q88 81 88 204q0 104 -68 164q-66 59 -184 59q-228 0 -340 -223q2 -139 74 -212q73 -73 201 -73z" />
    <glyph glyph-name="seven.sups" unicode="&#x2077;" horiz-adv-x="753" 
d="M297 762h-35q63 237 223 456q158 216 396 386h-600l6 32h651l-6 -30q-506 -353 -635 -844z" />
    <glyph glyph-name="eight.sups" unicode="&#x2078;" horiz-adv-x="911" 
d="M522 750q-145 0 -233 64t-88 171q0 99 73 166q74 68 199 86l2 4q-151 46 -151 174q0 108 98 173q100 67 256 67q137 0 216 -52t79 -143q0 -82 -66 -145t-170 -78l-2 -4q183 -47 183 -197q0 -125 -113 -205q-110 -81 -283 -81zM612 1251q144 0 236 58q90 57 90 149
q0 77 -71 121q-70 43 -191 43q-142 0 -230 -57t-88 -150q0 -76 68 -120t186 -44zM524 780q155 0 256 74q103 74 103 182q0 85 -77 135t-214 50q-160 0 -259 -64q-97 -63 -97 -170q0 -93 78 -149q81 -58 210 -58z" />
    <glyph glyph-name="nine.sups" unicode="&#x2079;" horiz-adv-x="874" 
d="M496 748q-109 0 -185 55t-104 153l31 11q28 -92 94 -139q68 -48 164 -48q169 0 280 146q112 148 119 356q-125 -203 -344 -203q-129 0 -205 69t-76 185q0 131 97 228q97 92 256 92q145 0 227 -85t82 -249q0 -232 -119 -401q-122 -170 -317 -170zM555 1112q225 0 342 225
q-1 135 -74 209q-72 74 -200 74q-141 0 -230 -81q-88 -81 -88 -204q0 -104 68 -164q66 -59 182 -59z" />
    <glyph glyph-name="plus.sups" unicode="&#x207a;" horiz-adv-x="1110" 
d="M561 1147h402v-31h-402v-354h-33v354h-399v31h399v356h33v-356z" />
    <glyph glyph-name="minus.sups" unicode="&#x207b;" horiz-adv-x="1079" 
d="M932 1116h-803v31h803v-31z" />
    <glyph glyph-name="parenleft.sups" unicode="&#x207d;" horiz-adv-x="573" 
d="M432 485h-35q-233 443 -18 901q102 223 289 386h39q-186 -161 -293 -382q-105 -218 -105 -444q0 -230 123 -461z" />
    <glyph glyph-name="parenright.sups" unicode="&#x207e;" horiz-adv-x="575" 
d="M162 485h-39q186 161 293 382q104 215 104 444q0 230 -123 461h35q234 -445 21 -902q-107 -227 -291 -385z" />
    <glyph glyph-name="n.sups" unicode="&#x207f;" horiz-adv-x="989" 
d="M707 1475q115 0 176 -57t61 -156q0 -55 -14 -101l-84 -399h-35l88 407q10 54 10 88q0 87 -54 136q-53 49 -153 49q-117 0 -207 -70q-89 -70 -130 -201l-86 -409h-35l147 696h33l-37 -174q101 191 320 191z" />
    <glyph glyph-name="zero.subs" unicode="&#x2080;" horiz-adv-x="907" 
d="M281 -371q-291 0 -291 299q0 75 18 166q95 443 432 443q291 0 291 -297q0 -77 -20 -168q-96 -443 -430 -443zM281 -336q158 0 254 102t141 312q20 91 20 162q0 264 -258 264q-305 0 -395 -416q-20 -91 -20 -162q0 -262 258 -262z" />
    <glyph glyph-name="one.subs" unicode="&#x2081;" horiz-adv-x="630" 
d="M250 -356h-33l129 608h-311l8 33h219q51 0 72 14q23 15 33 57l36 162h33z" />
    <glyph glyph-name="two.subs" unicode="&#x2082;" horiz-adv-x="966" 
d="M616 -356h-634q44 226 362 356l127 53q248 105 248 266q0 83 -60 134t-172 51q-269 0 -331 -260h-37q30 146 129 219q100 74 241 74q126 0 196 -59q69 -58 69 -156q0 -188 -267 -295l-129 -54q-275 -114 -331 -297h598z" />
    <glyph glyph-name="three.subs" unicode="&#x2083;" horiz-adv-x="874" 
d="M272 -371q-144 0 -224 72t-81 195h35q0 -110 71 -172t201 -62q147 0 238 71q90 71 90 183q0 84 -60 131q-61 47 -173 47h-70l8 33h66q122 0 197 56q77 57 77 149q0 83 -62 127q-63 45 -167 45q-124 0 -203 -57q-80 -57 -102 -158l-35 2q22 112 115 179t227 67
q120 0 191 -53t71 -148q0 -85 -57 -145t-152 -78v-2q78 -15 122 -65t44 -128q0 -125 -100 -207t-267 -82z" />
    <glyph glyph-name="four.subs" unicode="&#x2084;" horiz-adv-x="847" 
d="M440 -356h-34l53 243h-531l6 31l658 600h35l-125 -598h153l-8 -33h-153zM580 471l-600 -551h487l115 549z" />
    <glyph glyph-name="five.subs" unicode="&#x2085;" horiz-adv-x="874" 
d="M260 -377q-124 0 -206 58q-81 57 -99 153l35 8q15 -84 87 -135t185 -51q154 0 256 84q100 82 100 211q0 101 -65 159t-182 58q-179 0 -293 -129l-43 20l186 459h498l-8 -33h-469l-160 -397l2 -2q115 113 293 113q128 0 203 -67q73 -66 73 -177q0 -144 -110 -238
q-112 -94 -283 -94z" />
    <glyph glyph-name="six.subs" unicode="&#x2086;" horiz-adv-x="874" 
d="M301 -369q-145 0 -227 85t-82 249q0 233 121 402q122 170 315 170q106 0 183 -56q78 -57 106 -153l-33 -9q-56 185 -258 185q-171 0 -279 -146q-110 -146 -118 -356q123 203 344 203q127 0 205 -70q75 -68 75 -184q0 -131 -96 -227q-96 -93 -256 -93zM301 -336
q141 0 229 81t88 204q0 104 -67 164q-66 59 -184 59q-228 0 -340 -223q2 -141 73 -212q73 -73 201 -73z" />
    <glyph glyph-name="seven.subs" unicode="&#x2087;" horiz-adv-x="753" 
d="M59 -356h-34q63 236 223 455q159 218 395 386h-600l6 33h651l-6 -31q-507 -353 -635 -843z" />
    <glyph glyph-name="eight.subs" unicode="&#x2088;" horiz-adv-x="911" 
d="M285 -369q-145 0 -234 65q-88 64 -88 171q0 98 74 166t199 86l2 4q-152 47 -152 174q0 108 98 173q100 67 256 67q136 0 216 -53q79 -52 79 -142q0 -83 -65 -145q-66 -63 -170 -78l-2 -4q182 -46 182 -197q0 -124 -113 -207q-113 -80 -282 -80zM375 133q145 0 235 57
t90 150q0 78 -70 121t-192 43q-139 0 -229 -58q-88 -57 -88 -149q0 -77 67 -120q68 -44 187 -44zM287 -338q153 0 256 74q102 74 102 182q0 85 -77 135q-76 49 -214 49q-162 0 -259 -63t-97 -170q0 -93 79 -150t210 -57z" />
    <glyph glyph-name="nine.subs" unicode="&#x2089;" horiz-adv-x="874" 
d="M258 -371q-107 0 -184 56t-105 153l31 10q27 -90 94 -138t164 -48q170 0 281 145q110 146 118 357q-125 -203 -344 -203q-127 0 -204 69q-76 69 -76 185q0 131 96 227q98 93 256 93q145 0 227 -85t82 -249q0 -233 -119 -402q-122 -170 -317 -170zM317 -6q225 0 342 225
q-2 136 -73 209q-72 74 -201 74q-141 0 -229 -81t-88 -204q0 -104 67 -164q66 -59 182 -59z" />
    <glyph glyph-name="plus.subs" unicode="&#x208a;" horiz-adv-x="1110" 
d="M334 78h401v-31h-401v-354h-33v354h-399v31h399v356h33v-356z" />
    <glyph glyph-name="minus.subs" unicode="&#x208b;" horiz-adv-x="1079" 
d="M705 47h-803v31h803v-31z" />
    <glyph glyph-name="equal.subs" unicode="&#x208c;" horiz-adv-x="1079" 
d="M705 197h-803v28h803v-28zM705 -102h-803v30h803v-30z" />
    <glyph glyph-name="uni208D" unicode="&#x208d;" horiz-adv-x="573" 
d="M195 -633h-35q-234 444 -19 901q101 221 289 385h39q-186 -161 -293 -382q-104 -215 -104 -443q0 -230 123 -461z" />
    <glyph glyph-name="uni208E" unicode="&#x208e;" horiz-adv-x="573" 
d="M-78 -633h-39q186 161 293 382q105 217 105 444q0 229 -123 460h35q234 -443 20 -901q-107 -227 -291 -385z" />
    <glyph glyph-name="n.subs" unicode="&#x2099;" horiz-adv-x="987" 
d="M467 356q116 0 176 -56q62 -57 62 -157q0 -51 -15 -100l-84 -399h-35l88 407q11 60 11 88q0 85 -55 135t-152 50q-118 0 -208 -70q-89 -70 -130 -201l-86 -409h-35l148 696h32l-37 -174q102 190 320 190z" />
    <glyph glyph-name="Euro" unicode="&#x20ac;" horiz-adv-x="1310" 
d="M1071 1436q-215 0 -384 -130q-168 -129 -263 -368h846l-8 -37h-852q-39 -111 -50 -174q-18 -83 -24 -156h856l-8 -36h-850q-2 -14 -2 -46q0 -223 114 -346t322 -123q167 0 322 70l-9 -39q-151 -65 -317 -65q-221 0 -345 133t-124 375v41h-252l8 36h246q5 69 25 162
q17 79 47 168h-248l8 37h254q99 256 280 395q182 140 410 140q171 0 297 -70l-8 -35q-125 68 -291 68z" />
    <glyph glyph-name="uni20B8" unicode="&#x20b8;" horiz-adv-x="1314" 
d="M283 1423l6 35h1112l-6 -35h-1112zM756 1130h-535l8 35h1112l-8 -35h-540l-240 -1130h-37z" />
    <glyph glyph-name="uni20B9" unicode="&#x20b9;" horiz-adv-x="1310" 
d="M317 1458h1074l-9 -37h-620q90 -38 139 -113q49 -76 49 -175q0 -36 -2 -50h365l-8 -34h-361q-24 -140 -124 -232q-101 -93 -253 -123h-4q108 -8 161 -62q51 -53 62 -186l35 -446h-37l-34 440q-11 142 -72 187q-67 47 -238 47h-290l6 37h274q185 0 316 92q130 91 159 246
h-676l9 34h673q2 14 2 52q0 128 -85 207t-226 79h-293z" />
    <glyph glyph-name="uni20BA" unicode="&#x20ba;" horiz-adv-x="1310" 
d="M1137 504h34q-56 -234 -243 -367q-190 -137 -445 -137h-250l117 561l-327 -155l8 38l329 156l76 350l-330 -155l7 39l331 155l101 469h37l-97 -448l568 266l-9 -37l-567 -268l-74 -353l568 269l-8 -37l-570 -268l-114 -547h208q235 0 414 129q176 125 236 340z" />
    <glyph glyph-name="uni20BC" unicode="&#x20bc;" horiz-adv-x="1310" 
d="M750 1075h14q204 0 297 -71q94 -72 94 -230q0 -81 -20 -178l-129 -596h-37l129 602q22 104 22 172q0 141 -86 204q-84 62 -278 62h-13l-174 -813h-37l175 813h-15q-240 0 -358 -100q-120 -102 -172 -342l-129 -598h-37l129 602q53 254 184 364q130 109 381 109h23l82 383
h36z" />
    <glyph glyph-name="uni20BF" unicode="&#x20bf;" horiz-adv-x="1517" 
d="M1051 762q276 -50 276 -313q0 -191 -135 -320t-338 -129h-68l-61 -295h-35l62 295h-295l-62 -295h-35l62 295h-303l311 1458h303l58 277h34l-57 -277h293l59 277h35l-59 -277q154 -7 236 -88q81 -80 81 -207q0 -156 -99 -264t-263 -137zM1059 1423h-600l-137 -647h608
q192 0 321 109q125 107 125 276q0 121 -80 192q-79 70 -237 70zM164 35h690q182 0 309 123q125 119 125 293q0 141 -91 217q-90 75 -261 75h-623z" />
    <glyph glyph-name="uni2105" unicode="&#x2105;" horiz-adv-x="2641" 
d="M797 -31h-45l1237 1520h43zM678 750q-146 0 -235 84t-89 227q0 167 111 295q111 125 287 125q121 0 203 -67q81 -66 96 -165l-33 -8q-18 90 -86 149q-67 58 -180 58q-164 0 -263 -117q-100 -113 -100 -270q0 -129 79 -204q80 -75 210 -75q184 0 291 174l30 -12
q-113 -194 -321 -194zM1987 -10q-142 0 -229 88t-87 229q0 178 113 297q112 117 280 117q139 0 224 -88q86 -89 86 -230q0 -177 -111 -294q-113 -119 -276 -119zM1989 23q149 0 249 106q101 107 101 270q0 131 -76 210t-203 79q-152 0 -252 -106q-102 -108 -102 -271
q0 -130 77 -210q75 -78 206 -78z" />
    <glyph glyph-name="uni2113" unicode="&#x2113;" horiz-adv-x="1038" 
d="M788 152l25 -27q-121 -139 -301 -139q-131 0 -202 71q-72 72 -72 205v225l-201 -90l-14 33l215 92v668q0 137 68 209q69 74 198 74q282 0 282 -371q0 -246 -127 -367q-69 -69 -155 -119q-59 -34 -230 -112v-242q0 -115 63 -178q64 -64 177 -64q168 0 274 132zM506 1436
q-111 0 -172 -64q-60 -63 -60 -182v-653q269 122 373 233q105 114 105 330q0 336 -246 336z" />
    <glyph glyph-name="uni2116" unicode="&#x2116;" horiz-adv-x="2461" 
d="M2157 1481q139 0 224 -88t85 -230q0 -178 -111 -295q-112 -118 -276 -118q-142 0 -229 88t-87 229q0 178 113 297q114 117 281 117zM463 1458l713 -1403l299 1403h34l-311 -1458h-33l-710 1405l-299 -1405h-37l311 1458h33zM2081 782q149 0 250 107q100 101 100 270
q0 130 -77 210q-76 79 -202 79q-150 0 -251 -107q-103 -109 -103 -270q0 -130 77 -210q76 -79 206 -79z" />
    <glyph glyph-name="uni2117" unicode="&#x2117;" horiz-adv-x="1828" 
d="M440 1264q198 209 518 209q321 0 519 -209q200 -210 200 -533q0 -324 -200 -534q-198 -211 -519 -211q-320 0 -518 211q-202 208 -202 534q0 325 202 533zM958 18q301 0 496 201q191 199 191 512q0 308 -191 510q-191 199 -496 199q-304 0 -495 -199q-193 -199 -193 -510
q0 -313 193 -512q191 -201 495 -201zM737 1120h291q116 0 184 -60t68 -165q0 -106 -68 -169q-66 -62 -186 -62h-256v-316h-33v772zM770 694h256q103 0 163 55q58 54 58 146t-57 143q-58 52 -164 52h-256v-396z" />
    <glyph glyph-name="trademark" unicode="&#x2122;" horiz-adv-x="2129" 
d="M625 676h-33v751h-273v31h580v-31h-274v-751zM1186 676h-33v782h86l311 -756h23l309 756h86v-782h-35v756h-30l-308 -756h-69l-309 756h-31v-756z" />
    <glyph glyph-name="uni2126" unicode="&#x2126;" horiz-adv-x="1845" 
d="M795 0h-562v35h488v4q-471 246 -471 739q0 326 178 516q179 191 467 191q291 0 467 -189q176 -193 176 -518q0 -488 -465 -739v-4h486v-35h-560v33q502 252 502 745q0 308 -164 492q-167 180 -442 180q-273 0 -440 -180q-168 -180 -168 -492q0 -493 508 -745v-33z" />
    <glyph glyph-name="estimated" unicode="&#x212e;" horiz-adv-x="1841" 
d="M920 1470q377 0 600 -223q221 -224 221 -549h-1309q-29 0 -29 -26v-357q0 -62 33 -92q200 -196 484 -196q151 0 286 63t226 172h147q-90 -128 -261 -207q-172 -80 -398 -80q-370 0 -594 209q-226 209 -226 535t224 538q224 213 596 213zM920 1415q-283 0 -484 -201
q-33 -30 -33 -86v-356q0 -27 29 -27h973q29 0 29 27v356q0 56 -33 86q-205 201 -481 201z" />
    <glyph glyph-name="uni2153" unicode="&#x2153;" horiz-adv-x="2336" 
d="M604 657h-35l129 609h-309l8 32h219q50 0 72 15q23 15 33 57l35 162h35zM508 -31h-45l1237 1520h43zM1681 -14q-150 0 -227 70q-78 71 -80 196h37q0 -110 70 -172t200 -62q147 0 239 72q91 72 91 182q0 84 -60 131q-62 48 -173 48h-70l8 32h66q118 0 195 57t77 148
q0 85 -61 128q-62 44 -168 44q-125 0 -203 -56q-80 -57 -102 -159l-35 2q23 113 114 179q93 67 228 67q121 0 191 -52q71 -53 71 -149q0 -84 -57 -144q-58 -61 -152 -79v-2q78 -15 122 -65t44 -128q0 -122 -100 -204q-102 -84 -265 -84z" />
    <glyph glyph-name="uni2154" unicode="&#x2154;" horiz-adv-x="2551" 
d="M893 657h-635q44 224 360 357l130 53q247 105 247 266q0 83 -59 133q-61 52 -172 52q-270 0 -332 -261h-37q30 147 129 220q98 73 242 73q128 0 196 -58t68 -157q0 -188 -266 -295l-129 -53q-277 -114 -332 -297h598zM723 -31h-45l1237 1520h43zM1896 -14q-150 0 -227 70
q-78 71 -80 196h37q0 -110 70 -172t200 -62q148 0 239 72t91 182q0 84 -60 131q-62 48 -173 48h-70l8 32h66q119 0 195 57q77 57 77 148q0 85 -61 128q-62 44 -168 44q-125 0 -203 -56q-79 -57 -102 -159l-35 2q22 112 115 179t227 67q121 0 191 -52q71 -53 71 -149
q0 -84 -57 -144q-58 -61 -152 -79v-2q78 -15 122 -65t44 -128q0 -122 -100 -204q-102 -84 -265 -84z" />
    <glyph glyph-name="uni2155" unicode="&#x2155;" horiz-adv-x="2379" 
d="M604 657h-35l129 609h-309l8 32h219q50 0 72 15q23 15 33 57l35 162h35zM508 -31h-45l1237 1520h43zM1704 -20q-127 0 -208 57t-99 153l35 9q15 -85 87 -136t185 -51q154 0 256 84q100 82 100 211q0 101 -65 159t-183 58q-178 0 -292 -129l-43 21l186 458h498l-9 -32
h-469l-159 -398l2 -2q115 113 293 113q127 0 202 -67q74 -66 74 -177q0 -143 -110 -237q-112 -94 -281 -94z" />
    <glyph glyph-name="uni2156" unicode="&#x2156;" horiz-adv-x="2580" 
d="M893 657h-635q44 224 360 357l130 53q247 105 247 266q0 83 -59 133q-61 52 -172 52q-270 0 -332 -261h-37q30 147 129 220q98 73 242 73q128 0 196 -58t68 -157q0 -188 -266 -295l-129 -53q-277 -114 -332 -297h598zM709 -31h-45l1237 1520h43zM1905 -20q-127 0 -208 57
q-82 58 -100 153l35 9q15 -85 87 -136t186 -51q154 0 256 84q100 82 100 211q0 101 -66 159q-65 58 -182 58q-179 0 -293 -129l-43 21l187 458h497l-8 -32h-469l-160 -398l2 -2q115 113 293 113q128 0 203 -67q74 -66 74 -177q0 -143 -111 -237q-112 -94 -280 -94z" />
    <glyph glyph-name="uni2157" unicode="&#x2157;" horiz-adv-x="2566" 
d="M618 643q-144 0 -224 72t-81 194h35q0 -110 71 -172q70 -61 202 -61q147 0 238 72t91 182q0 86 -60 132q-59 46 -175 46h-70l8 33h66q122 0 197 56q77 57 77 149q0 83 -62 127q-63 45 -167 45q-124 0 -203 -57q-80 -57 -102 -158l-35 2q22 112 115 179q91 66 227 66
q121 0 191 -52q71 -53 71 -148q0 -85 -57 -145q-58 -61 -152 -79v-2q79 -15 122 -64q44 -50 44 -128q0 -123 -100 -205q-102 -84 -267 -84zM692 -31h-43l1235 1520h43zM1888 -20q-127 0 -208 57t-99 153l35 9q15 -85 87 -136t185 -51q154 0 256 84q101 83 101 211
q0 101 -66 159q-65 58 -182 58q-179 0 -293 -129l-43 21l186 458h498l-8 -32h-469l-160 -398l2 -2q115 113 293 113q128 0 203 -67q73 -66 73 -177q0 -143 -110 -237q-107 -94 -281 -94z" />
    <glyph glyph-name="uni2158" unicode="&#x2158;" horiz-adv-x="2641" 
d="M823 657h-35l54 244h-531l6 31l658 600h35l-127 -598h153l-8 -33h-154zM768 -31h-43l1235 1520h43zM963 1485l-603 -551h488l117 549zM1964 -20q-124 0 -207 57q-82 57 -100 153l35 9q15 -85 87 -136t185 -51q154 0 256 84q100 82 100 211q0 101 -65 159t-182 58
q-179 0 -293 -129l-43 21l186 458h498l-8 -32h-469l-160 -398l2 -2q115 113 293 113q124 0 202 -67q76 -66 76 -177q0 -143 -110 -237q-112 -94 -283 -94z" />
    <glyph glyph-name="uni2159" unicode="&#x2159;" horiz-adv-x="2322" 
d="M604 657h-35l129 609h-309l8 32h219q50 0 72 15q23 15 33 57l35 162h35zM508 -31h-45l1237 1520h43zM1686 -12q-146 0 -228 85t-82 249q0 232 121 401q122 170 315 170q108 0 184 -55q77 -56 105 -154l-33 -8q-55 184 -258 184q-170 0 -278 -145q-111 -148 -119 -357
q128 203 344 203q129 0 205 -69t76 -185q0 -133 -96 -225q-94 -94 -256 -94zM1686 20q140 0 229 81q88 81 88 204q0 104 -68 164q-66 59 -184 59q-228 0 -340 -223q1 -139 74 -212t201 -73z" />
    <glyph glyph-name="uni215A" unicode="&#x215a;" horiz-adv-x="2490" 
d="M606 637q-127 0 -208 57t-99 154l35 8q15 -84 87 -135t185 -51q154 0 256 84q101 83 101 211q0 99 -66 158q-67 59 -182 59q-179 0 -293 -129l-43 20l186 459h498l-8 -33h-469l-160 -397l2 -2q113 112 293 112q129 0 203 -66q73 -66 73 -177q0 -143 -110 -238
q-107 -94 -281 -94zM676 -31h-43l1237 1520h43zM1853 -12q-145 0 -227 85t-82 249q0 232 121 401q122 170 315 170q109 0 185 -55q75 -55 104 -154l-31 -8q-27 91 -94 137q-68 47 -164 47q-170 0 -278 -145q-114 -147 -121 -357q128 203 344 203q130 0 205 -68
q76 -69 76 -186q0 -133 -97 -225q-94 -94 -256 -94zM1853 20q141 0 230 81q88 81 88 204q0 104 -68 164q-66 59 -182 59q-225 0 -342 -223q1 -136 75 -211q72 -74 199 -74z" />
    <glyph glyph-name="oneeighth" unicode="&#x215b;" horiz-adv-x="2381" 
d="M604 657h-35l129 609h-309l8 32h219q50 0 72 15q23 15 33 57l35 162h35zM508 -31h-45l1237 1520h43zM1696 -12q-146 0 -234 64t-88 171q0 98 74 166t199 86l2 4q-152 47 -152 174q0 108 98 173q101 67 256 67q137 0 216 -52t79 -143q0 -83 -65 -145q-66 -63 -170 -78
l-2 -4q182 -46 182 -197q0 -124 -113 -204q-112 -82 -282 -82zM1786 489q143 0 235 58q90 57 90 149q0 78 -70 121t-192 43q-141 0 -229 -57t-88 -150q0 -76 67 -119q70 -45 187 -45zM1698 18q153 0 256 74q102 74 102 182q0 86 -77 136q-76 49 -214 49q-160 0 -259 -64
q-97 -63 -97 -170q0 -92 79 -149q81 -58 210 -58z" />
    <glyph glyph-name="threeeighths" unicode="&#x215c;" horiz-adv-x="2566" 
d="M618 643q-144 0 -224 72t-81 194h35q0 -110 71 -172q70 -61 202 -61q147 0 238 72t91 182q0 86 -60 132q-59 46 -175 46h-70l8 33h66q122 0 197 56q77 57 77 149q0 83 -62 127q-63 45 -167 45q-124 0 -203 -57q-80 -57 -102 -158l-35 2q22 112 115 179q91 66 227 66
q121 0 191 -52q71 -53 71 -148q0 -85 -57 -145q-58 -61 -152 -79v-2q79 -15 122 -64q44 -50 44 -128q0 -123 -100 -205q-102 -84 -267 -84zM692 -31h-43l1235 1520h43zM1882 -12q-147 0 -235 64t-88 171q0 99 73 166q74 68 199 86l2 4q-152 47 -152 174q0 107 99 173
q100 67 256 67q138 0 217 -52q80 -53 80 -143q0 -81 -67 -145q-66 -63 -171 -78l-2 -4q182 -46 182 -197q0 -122 -112 -204t-281 -82zM1970 489q146 0 238 58q90 57 90 149q0 78 -72 121q-71 43 -192 43q-141 0 -230 -57q-88 -57 -88 -150q0 -75 68 -119q70 -45 186 -45z
M1882 18q153 0 256 74t103 182q0 86 -77 136q-76 49 -214 49q-160 0 -259 -64q-98 -63 -98 -170q0 -92 79 -149q81 -58 210 -58z" />
    <glyph glyph-name="fiveeighths" unicode="&#x215d;" horiz-adv-x="2551" 
d="M606 637q-127 0 -208 57t-99 154l35 8q15 -84 87 -135t185 -51q154 0 256 84q101 83 101 211q0 99 -66 158q-67 59 -182 59q-179 0 -293 -129l-43 20l186 459h498l-8 -33h-469l-160 -397l2 -2q113 112 293 112q129 0 203 -66q73 -66 73 -177q0 -143 -110 -238
q-107 -94 -281 -94zM676 -31h-43l1237 1520h43zM1866 -12q-148 0 -236 64t-88 171q0 99 75 166q76 68 200 86l2 4q-152 47 -152 174q0 108 98 173q100 67 254 67q138 0 217 -52q80 -53 80 -143q0 -82 -66 -145t-171 -78l-2 -4q182 -46 182 -197q0 -121 -113 -204
q-112 -82 -280 -82zM1954 489q145 0 237 58q90 57 90 149q0 78 -70 121t-192 43q-141 0 -230 -57t-89 -150q0 -76 67 -119q70 -45 187 -45zM1866 18q153 0 256 74q102 74 102 182q0 87 -76 136t-213 49q-160 0 -259 -64q-97 -63 -97 -170q0 -92 79 -149q81 -58 208 -58z" />
    <glyph glyph-name="seveneighths" unicode="&#x215e;" horiz-adv-x="2289" 
d="M457 657h-37q63 237 223 456q159 218 395 386h-600l6 33h652l-6 -31q-506 -353 -633 -844zM414 -31h-43l1237 1520h43zM1604 -12q-149 0 -235 64q-87 64 -87 171q0 98 74 166t198 86l2 4q-151 46 -151 174q0 108 98 173q101 67 254 67q138 0 217 -52q80 -53 80 -143
q0 -82 -66 -145t-171 -78l-2 -4q184 -45 184 -197q0 -124 -113 -204q-112 -82 -282 -82zM1694 489q143 0 235 58q90 57 90 149q0 78 -70 121t-192 43q-142 0 -229 -56q-88 -57 -88 -151q0 -75 66 -119q68 -45 188 -45zM1606 18q150 0 256 74q102 74 102 182q0 86 -77 136
q-76 49 -214 49q-160 0 -259 -64q-97 -63 -97 -170q0 -92 79 -149q81 -58 210 -58z" />
    <glyph glyph-name="arrowleft" unicode="&#x2190;" horiz-adv-x="2048" 
d="M381 748h1427v-37h-1427l541 -711h-45l-553 729l553 729h45z" />
    <glyph glyph-name="arrowup" unicode="&#x2191;" horiz-adv-x="2048" 
d="M375 930l729 553l729 -553v-45l-340 258l-371 287v-1430h-37v1430l-370 -287l-340 -258v45z" />
    <glyph glyph-name="arrowright" unicode="&#x2192;" horiz-adv-x="2048" 
d="M1214 1458h46l550 -729l-550 -729h-46l256 340l285 371h-1427v37h1427l-285 370z" />
    <glyph glyph-name="arrowdown" unicode="&#x2193;" horiz-adv-x="2048" 
d="M1049 31l710 542v-45l-729 -553l-729 553v45l711 -542v1427h37v-1427z" />
    <glyph glyph-name="arrowboth" unicode="&#x2194;" horiz-adv-x="2660" 
d="M1827 1458h43l553 -729l-553 -729h-43l256 340l284 371h-1986l541 -711h-45l-553 729l553 729h45l-541 -710h1986l-284 370z" />
    <glyph glyph-name="arrowupdn" unicode="&#x2195;" horiz-adv-x="2271" 
d="M1225 -188l710 540v-45l-729 -553l-729 553v45l711 -540v2082l-713 -540v45l729 553l729 -553v-45l-708 540v-2082z" />
    <glyph glyph-name="uni2196" unicode="&#x2196;" horiz-adv-x="2058" 
d="M438 1335l1309 -1310l-25 -25l-1310 1313l4 -180v-1121h-37v1356h1356v-37h-1119z" />
    <glyph glyph-name="uni2197" unicode="&#x2197;" horiz-adv-x="2048" 
d="M381 1331v37h1356v-1356h-37v1121l4 178l-1309 -1311l-26 25l1308 1310l-178 -4h-1118z" />
    <glyph glyph-name="uni2198" unicode="&#x2198;" horiz-adv-x="2058" 
d="M1706 236v1120h37v-1356h-1354v37h1116l181 -4l-1311 1310l26 25l1311 -1313z" />
    <glyph glyph-name="uni2199" unicode="&#x2199;" horiz-adv-x="2048" 
d="M1745 1343l-1309 -1310l178 4h1119v-37h-1356v1356h37v-1120l-4 -179l1308 1311z" />
    <glyph glyph-name="partialdiff" unicode="&#x2202;" horiz-adv-x="1323" 
d="M674 1470q483 0 483 -731q0 -367 -119 -560q-118 -191 -346 -191q-189 0 -303 127q-115 129 -115 325q0 202 114 324q114 121 304 121q287 0 424 -267q4 88 4 117q0 701 -446 701q-158 0 -301 -70l-15 33q157 71 316 71zM694 20q367 0 418 537q-61 143 -171 218t-247 75
q-171 0 -277 -112t-106 -296q0 -186 105 -303q101 -119 278 -119z" />
    <glyph glyph-name="uni2206" unicode="&#x2206;" horiz-adv-x="1468" 
d="M608 1468h31l635 -1468h-1305zM610 1384l-587 -1349h1198l-584 1349l-12 33z" />
    <glyph glyph-name="product" unicode="&#x220f;" horiz-adv-x="1939" 
d="M430 1458h1077v-1876h-37v1841h-1003v-1841h-37v1876z" />
    <glyph glyph-name="summation" unicode="&#x2211;" horiz-adv-x="1777" 
d="M1081 530l-688 -911h1010v-37h-1055v35l688 913l-663 893v35h1007v-37h-962z" />
    <glyph glyph-name="minus" unicode="&#x2212;" horiz-adv-x="1310" 
d="M1196 616h-1083v37h1083v-37z" />
    <glyph glyph-name="uni2215" unicode="&#x2215;" horiz-adv-x="587" 
d="M-260 -31h-43l1237 1520h43z" />
    <glyph glyph-name="uni2219" unicode="&#x2219;" horiz-adv-x="532" 
d="M334 510h-146l33 145h144z" />
    <glyph glyph-name="radical" unicode="&#x221a;" horiz-adv-x="1310" 
d="M745 -418h-47l-292 778l-261 -104l-12 33l293 117l293 -781l467 1905h37z" />
    <glyph glyph-name="infinity" unicode="&#x221e;" horiz-adv-x="1691" 
d="M475 389q-141 0 -223 90q-82 89 -82 234q0 144 82 232q83 89 223 89q115 0 210 -66q94 -66 200 -229q109 165 200 229q95 66 209 66q142 0 225 -90q83 -91 83 -231q0 -143 -83 -234q-83 -90 -225 -90q-114 0 -209 66q-94 66 -200 227q-105 -158 -201 -227
q-92 -66 -209 -66zM475 424q112 0 198 64t189 223q-106 157 -193 223q-86 65 -194 65q-124 0 -196 -81q-74 -83 -74 -207q0 -122 74 -205q73 -82 196 -82zM1294 424q123 0 198 82t75 205q0 125 -75 207q-74 81 -198 81q-107 0 -194 -65q-88 -66 -193 -223q103 -159 191 -223
t196 -64z" />
    <glyph glyph-name="integral" unicode="&#x222b;" horiz-adv-x="1310" 
d="M418 -418h-43v35h41q111 0 166 56t55 186v1392q0 279 256 279h43v-35h-41q-111 0 -166 -56t-55 -186v-1392q0 -279 -256 -279z" />
    <glyph glyph-name="approxequal" unicode="&#x2248;" horiz-adv-x="1310" 
d="M195 709h-33q0 174 69 267t185 93q67 0 119 -34q53 -35 90 -82q10 -12 34.5 -45t38.5 -50q38 -46 87 -81q49 -34 110 -34q102 0 162 86q59 84 59 240h33q0 -173 -70 -267q-69 -93 -184 -93q-69 0 -119 33q-53 35 -90 82q-9 12 -34.5 45t-39.5 51q-36 44 -87 80
q-49 34 -109 34q-101 0 -161 -87t-60 -238zM195 231h-33q0 175 69 268t185 93q67 0 119 -34q53 -34 90 -81q14 -17 38.5 -50t34.5 -45q37 -47 87 -82q49 -34 110 -34q101 0 161 87t60 239h33q0 -173 -70 -267t-184 -94q-67 0 -119 34q-52 35 -90 81q-15 18 -42 53.5
t-32 41.5q-37 47 -87 82q-49 34 -109 34q-102 0 -162 -86q-59 -84 -59 -240z" />
    <glyph glyph-name="notequal" unicode="&#x2260;" horiz-adv-x="1310" 
d="M1196 877v-37h-438l-183 -412h621v-37h-637l-190 -426l-31 10l184 416h-409v37h428l182 412h-610v37h626l205 458l31 -10l-201 -448h422z" />
    <glyph glyph-name="lessequal" unicode="&#x2264;" horiz-adv-x="1310" 
d="M115 764l1083 395v-39l-1040 -377l1040 -374v-39l-1083 393v41zM1198 63h-1083v37h1083v-37z" />
    <glyph glyph-name="greaterequal" unicode="&#x2265;" horiz-adv-x="1310" 
d="M115 1120v39l1083 -395v-41l-1083 -393v39l1040 374zM1198 63h-1083v37h1083v-37z" />
    <glyph glyph-name="uni2460" unicode="&#x2460;" horiz-adv-x="2459" 
d="M2023 63q-289 -286 -739 -286t-739 286q-293 287 -293 719q0 434 293 721q291 285 739 285t739 -285q293 -287 293 -721q0 -432 -293 -719zM1284 -188q431 0 713 276q282 273 282 694t-282 697q-284 274 -713 274q-433 0 -713 -274q-282 -274 -282 -697q0 -422 282 -696
q280 -274 713 -274zM1356 342h-35v608h-309v33h219q47 0 67 14q22 15 23 58v162h35v-875z" />
    <glyph glyph-name="uni2461" unicode="&#x2461;" horiz-adv-x="2459" 
d="M2023 63q-289 -286 -739 -286t-739 286q-293 287 -293 719q0 434 293 721q291 285 739 285t739 -285q293 -287 293 -721q0 -432 -293 -719zM1284 -188q431 0 713 276q282 273 282 694t-282 697q-284 274 -713 274q-433 0 -713 -274q-282 -274 -282 -697q0 -422 282 -696
q280 -274 713 -274zM1610 375h-633q0 220 289 356l116 55q104 50 147 104q44 55 44 128q0 94 -73 156q-71 61 -202 61q-270 0 -276 -260h-37q1 145 85 219q83 74 228 74q141 0 226 -71q84 -71 84 -179q0 -84 -48 -146q-48 -61 -161 -114l-115 -56q-253 -121 -268 -294h594
v-33z" />
    <glyph glyph-name="uni2462" unicode="&#x2462;" horiz-adv-x="2459" 
d="M2023 63q-289 -286 -739 -286t-739 286q-293 287 -293 719q0 434 293 721q291 285 739 285t739 -285q293 -287 293 -721q0 -432 -293 -719zM1284 -188q431 0 713 276q282 273 282 694t-282 697q-284 274 -713 274q-433 0 -713 -274q-282 -274 -282 -697q0 -422 282 -696
q280 -274 713 -274zM1307 340q-153 0 -247 74q-93 74 -93 192h34q0 -104 83 -169q82 -64 223 -64q138 0 216 59q79 60 79 164q0 95 -75 152t-202 57h-68v33h68q110 0 169 52q60 52 60 134q0 86 -72 138q-71 52 -190 52q-124 0 -192 -56q-70 -58 -70 -159h-35q0 113 81 181
q80 67 216 67q134 0 215 -59q82 -60 82 -162q0 -75 -43 -128q-45 -56 -119 -73v-4q96 -17 152 -79q57 -63 57 -148q0 -115 -90 -184q-91 -70 -239 -70z" />
    <glyph glyph-name="uni2463" unicode="&#x2463;" horiz-adv-x="2459" 
d="M2023 63q-289 -286 -739 -286t-739 286q-293 287 -293 719q0 434 293 721q291 285 739 285t739 -285q293 -287 293 -721q0 -432 -293 -719zM1284 -188q431 0 713 276q282 273 282 694t-282 697q-284 274 -713 274q-433 0 -713 -274q-282 -274 -282 -697q0 -422 282 -696
q280 -274 713 -274zM1458 356h-35v246h-530v31l530 598h35v-598h154v-31h-154v-246zM1421 1182l-485 -549h487v549h-2z" />
    <glyph glyph-name="uni2464" unicode="&#x2464;" horiz-adv-x="2459" 
d="M2023 63q-289 -286 -739 -286t-739 286q-293 287 -293 719q0 434 293 721q291 285 739 285t739 -285q293 -287 293 -721q0 -432 -293 -719zM1284 -188q431 0 713 276q282 273 282 694t-282 697q-284 274 -713 274q-433 0 -713 -274q-282 -274 -282 -697q0 -422 282 -696
q280 -274 713 -274zM1290 344q-131 0 -218 57t-111 154l34 8q21 -82 101 -133t194 -51q138 0 221 71q82 70 82 187q0 114 -79 183t-214 69q-178 0 -268 -123l-47 10l90 465h498v-33h-471l-74 -397l2 -2q89 113 273 113q148 0 237 -79q90 -80 90 -206q0 -128 -93 -211
q-92 -82 -247 -82z" />
    <glyph glyph-name="uni2465" unicode="&#x2465;" horiz-adv-x="2459" 
d="M2023 63q-289 -286 -739 -286t-739 286q-293 287 -293 719q0 434 293 721q291 285 739 285t739 -285q293 -287 293 -721q0 -432 -293 -719zM1284 -188q431 0 713 276q282 273 282 694t-282 697q-284 274 -713 274q-433 0 -713 -274q-282 -274 -282 -697q0 -422 282 -696
q280 -274 713 -274zM1313 348q-350 0 -350 422q0 483 350 483q239 0 291 -213l-33 -8q-47 189 -258 189q-313 0 -318 -465q44 75 128 121q83 45 192 45q144 0 230 -77q85 -76 85 -204q0 -129 -88 -211t-229 -82zM1313 381q127 0 205 72q77 71 77 186q0 113 -75 181
q-76 69 -205 69q-112 0 -195 -50q-81 -49 -121 -134q12 -158 94 -242q81 -82 220 -82z" />
    <glyph glyph-name="uni2466" unicode="&#x2466;" horiz-adv-x="2459" 
d="M2023 63q-289 -286 -739 -286t-739 286q-293 287 -293 719q0 434 293 721q291 285 739 285t739 -285q293 -287 293 -721q0 -432 -293 -719zM1284 -188q431 0 713 276q282 273 282 694t-282 697q-284 274 -713 274q-433 0 -713 -274q-282 -274 -282 -697q0 -422 282 -696
q280 -274 713 -274zM1194 315h-35q15 240 128 457q114 219 310 385h-598v33h652v-31q-433 -353 -457 -844z" />
    <glyph glyph-name="uni2467" unicode="&#x2467;" horiz-adv-x="2459" 
d="M2023 63q-289 -286 -739 -286t-739 286q-293 287 -293 719q0 434 293 721q291 285 739 285t739 -285q293 -287 293 -721q0 -432 -293 -719zM1284 -188q431 0 713 276q282 273 282 694t-282 697q-284 274 -713 274q-433 0 -713 -274q-282 -274 -282 -697q0 -422 282 -696
q280 -274 713 -274zM1540 414q-100 -72 -256 -72t-256 72q-98 68 -98 188q0 88 58 147q57 59 163 80v5q-89 16 -138 69q-50 53 -50 127q0 98 87 158q86 59 234 59q149 0 235 -59q87 -60 87 -158q0 -71 -51 -125q-50 -53 -138 -71v-5q106 -21 162 -80q57 -60 57 -147
q0 -116 -96 -188zM1075 895q76 -49 209 -49t209 49q76 45 76 131q0 90 -76 139t-209 49q-134 0 -210 -49q-77 -50 -77 -137t78 -133zM1284 375q148 0 232 62q86 63 86 167q0 101 -84 155t-234 54q-154 0 -236 -55q-83 -56 -83 -154q0 -104 86 -167q84 -62 233 -62z" />
    <glyph glyph-name="uni2468" unicode="&#x2468;" horiz-adv-x="2459" 
d="M2023 63q-289 -286 -739 -286t-739 286q-293 287 -293 719q0 434 293 721q291 285 739 285t739 -285q293 -287 293 -721q0 -432 -293 -719zM1284 -188q431 0 713 276q282 273 282 694t-282 697q-284 274 -713 274q-433 0 -713 -274q-282 -274 -282 -697q0 -422 282 -696
q280 -274 713 -274zM1282 336q-240 0 -293 213l35 6q45 -186 256 -186q316 0 317 462q-44 -72 -128 -118q-83 -45 -191 -45q-145 0 -230 76t-85 204q0 129 88 211t229 82q352 0 352 -424q0 -234 -89 -358q-89 -123 -261 -123zM1278 700q110 0 195 51q80 48 120 134
q-12 158 -93 241q-81 82 -220 82q-128 0 -205 -71q-78 -72 -78 -187q0 -112 76 -181q77 -69 205 -69z" />
    <glyph glyph-name="uni24EA" unicode="&#x24ea;" horiz-adv-x="2459" 
d="M2023 63q-289 -286 -739 -286t-739 286q-293 287 -293 719q0 434 293 721q291 285 739 285t739 -285q293 -287 293 -721q0 -432 -293 -719zM1284 -188q431 0 713 276q282 273 282 694t-282 697q-284 274 -713 274q-433 0 -713 -274q-282 -274 -282 -697q0 -422 282 -696
q280 -274 713 -274zM1636 795q0 -455 -352 -455t-352 455q0 452 352 452t352 -452zM1284 375q315 0 315 420q0 419 -315 419q-317 0 -317 -419q0 -420 317 -420z" />
    <glyph glyph-name="uni24FF" unicode="&#x24ff;" horiz-adv-x="2459" 
d="M2023 63q-289 -286 -739 -286t-739 286q-293 287 -293 719q0 434 293 721q291 285 739 285t739 -285q293 -287 293 -721q0 -432 -293 -719zM932 795q0 -455 352 -455t352 455q0 452 -352 452t-352 -452zM1284 375q-317 0 -317 420q0 419 317 419q315 0 315 -419
q0 -420 -315 -420z" />
    <glyph glyph-name="filledbox" unicode="&#x25a0;" horiz-adv-x="2709" 
d="M2327 -180h-1860v1818h1860v-1818z" />
    <glyph glyph-name="uni25A1" unicode="&#x25a1;" horiz-adv-x="2709" 
d="M2327 -180h-1860v1818h1860v-1818zM504 1604v-1749h1786v1749h-1786z" />
    <glyph glyph-name="lozenge" unicode="&#x25ca;" horiz-adv-x="1124" 
d="M588 1458h37l426 -729l-426 -729h-37l-428 729zM201 729l405 -694l406 694l-406 694z" />
    <glyph glyph-name="circle" unicode="&#x25cb;" horiz-adv-x="2459" 
d="M2023 63q-289 -286 -739 -286t-739 286q-293 287 -293 719q0 434 293 721q291 285 739 285t739 -285q293 -287 293 -721q0 -432 -293 -719zM1284 -188q431 0 713 276q282 273 282 694t-282 697q-284 274 -713 274q-433 0 -713 -274q-282 -274 -282 -697q0 -422 282 -696
q280 -274 713 -274z" />
    <glyph glyph-name="uni25CF" unicode="&#x25cf;" horiz-adv-x="2459" 
d="M2023 63q-289 -286 -739 -286t-739 286q-293 287 -293 719q0 434 293 721q291 285 739 285t739 -285q293 -287 293 -721q0 -432 -293 -719z" />
    <glyph glyph-name="uni2776" unicode="&#x2776;" horiz-adv-x="2459" 
d="M2023 63q-289 -286 -739 -286t-739 286q-293 287 -293 719q0 434 293 721q291 285 739 285t739 -285q293 -287 293 -721q0 -432 -293 -719zM1319 952v-608h35v875h-35v-162q0 -43 -21 -58q-20 -14 -69 -14h-219v-33h309z" />
    <glyph glyph-name="uni2777" unicode="&#x2777;" horiz-adv-x="2459" 
d="M545 1503q291 285 739 285t739 -285q293 -287 293 -721q0 -432 -293 -719q-289 -286 -739 -286t-739 286q-293 287 -293 719q0 434 293 721zM977 375h633v33h-594q15 173 268 294l115 56q113 53 161 114q48 62 48 146q0 108 -84 179q-85 71 -226 71q-145 0 -228 -74
q-84 -74 -85 -219h37q6 260 276 260q131 0 202 -61q73 -62 73 -156q0 -73 -44 -128q-43 -54 -147 -104l-116 -55q-289 -136 -289 -356z" />
    <glyph glyph-name="uni2778" unicode="&#x2778;" horiz-adv-x="2459" 
d="M2023 63q-289 -286 -739 -286t-739 286q-293 287 -293 719q0 434 293 721q291 285 739 285t739 -285q293 -287 293 -721q0 -432 -293 -719zM1292 340q149 0 240 70q90 69 90 184q0 85 -57 148q-56 62 -152 79v4q74 17 119 73q43 53 43 128q0 102 -82 162q-81 59 -215 59
q-136 0 -216 -67q-81 -68 -81 -181h35q0 102 69 159q68 56 193 56q118 0 189 -52q73 -53 73 -138q0 -82 -60 -134q-59 -52 -169 -52h-68v-33h68q126 0 201 -57t75 -152q0 -104 -79 -164q-78 -59 -216 -59q-140 0 -222 64q-83 65 -83 169h-35q0 -118 94 -192t246 -74z" />
    <glyph glyph-name="uni2779" unicode="&#x2779;" horiz-adv-x="2459" 
d="M2023 63q-289 -286 -739 -286t-739 286q-293 287 -293 719q0 434 293 721q291 285 739 285t739 -285q293 -287 293 -721q0 -432 -293 -719zM1403 621v-244h35v244h153v32h-153v598h-35l-531 -600v-30h531zM1403 653h-488l486 549h2v-549z" />
    <glyph glyph-name="uni277A" unicode="&#x277a;" horiz-adv-x="2459" 
d="M545 1503q291 285 739 285t739 -285q293 -287 293 -721q0 -432 -293 -719q-289 -286 -739 -286t-739 286q-293 287 -293 719q0 434 293 721zM1292 344q153 0 245 82q93 83 93 211q0 129 -89 207q-88 78 -236 78q-182 0 -273 -115l-2 4l74 397h471v33h-498l-90 -465
l47 -10q85 121 269 121q134 0 214 -68q78 -66 78 -184q0 -117 -82 -186q-84 -70 -221 -70q-114 0 -194 51t-101 133l-32 -8q24 -94 110 -153q85 -58 217 -58z" />
    <glyph glyph-name="uni277B" unicode="&#x277b;" horiz-adv-x="2459" 
d="M2023 63q-289 -286 -739 -286t-739 286q-293 287 -293 719q0 434 293 721q291 285 739 285t739 -285q293 -287 293 -721q0 -432 -293 -719zM1317 348q141 0 229 82t88 211q0 125 -85 203t-230 78q-109 0 -192 -45q-84 -46 -128 -121q0 465 318 465q209 0 256 -189l35 8
q-52 213 -293 213q-350 0 -350 -483q0 -422 352 -422zM1317 381q-137 0 -219 82t-97 242q41 85 123 134q83 50 195 50q129 0 205 -69q75 -68 75 -181q0 -115 -77 -186q-78 -72 -205 -72z" />
    <glyph glyph-name="uni277C" unicode="&#x277c;" horiz-adv-x="2459" 
d="M2023 63q-289 -286 -739 -286t-739 286q-293 287 -293 719q0 434 293 721q291 285 739 285t739 -285q293 -287 293 -721q0 -432 -293 -719zM1161 322h35q22 489 455 843v31h-652v-33h600q-198 -168 -312 -386q-114 -217 -126 -455z" />
    <glyph glyph-name="uni277D" unicode="&#x277d;" horiz-adv-x="2459" 
d="M2023 63q-289 -286 -739 -286t-739 286q-293 287 -293 719q0 434 293 721q291 285 739 285t739 -285q293 -287 293 -721q0 -432 -293 -719zM1028 414q101 -72 256 -72q156 0 256 72q96 72 96 188q0 87 -57 147q-56 59 -162 80v5q88 18 138 71q51 54 51 125q0 98 -87 158
q-86 59 -235 59q-148 0 -234 -59q-87 -60 -87 -158q0 -74 50 -127q49 -53 138 -69v-5q-106 -21 -163 -80q-58 -59 -58 -147q0 -120 98 -188zM1493 895q-76 -49 -209 -49t-209 49q-78 46 -78 133t77 137q76 49 210 49q133 0 209 -49t76 -139q0 -86 -76 -131zM1284 375
q-149 0 -233 62q-86 63 -86 167q0 98 83 154q82 55 236 55q150 0 234 -54t84 -155q0 -104 -86 -167q-84 -62 -232 -62z" />
    <glyph glyph-name="uni277E" unicode="&#x277e;" horiz-adv-x="2459" 
d="M2023 63q-289 -286 -739 -286t-739 286q-293 287 -293 719q0 434 293 721q291 285 739 285t739 -285q293 -287 293 -721q0 -432 -293 -719zM1288 344q350 0 350 481q0 424 -350 424q-141 0 -229 -82t-88 -213q0 -125 85 -201q86 -77 230 -77q109 0 192 44t128 120
q-1 -463 -318 -463q-213 0 -258 186l-33 -6q53 -213 291 -213zM1286 709q-129 0 -205 67q-75 66 -75 180q0 117 77 188q79 73 205 73q139 0 220 -82q82 -84 94 -242q-40 -85 -121 -134q-83 -50 -195 -50z" />
    <glyph glyph-name="uni2E18" unicode="&#x2e18;" horiz-adv-x="1265" 
d="M737 1057h84l-16 -84h-84zM981 23h37q-38 -212 -180 -324q-145 -115 -369 -115q-192 0 -305 86t-113 242q0 240 316 403l67 35q110 56 160 117q52 62 80 168l18 80h33l-117 -555l-49 -238h-37l49 238l70 319q-63 -93 -229 -178q-170 -84 -248 -174t-78 -215
q0 -141 103 -217t280 -76q212 0 345 106q132 105 167 298z" />
    <glyph glyph-name="uniF8FF" unicode="&#xf8ff;" horiz-adv-x="2234" 
d="M846 1427q-44 50 -133 50q-99 0 -156 -65q-57 -64 -57 -189v-303h-19v778h19v-363q45 162 215 162q96 0 147 -57q49 -50 49 -154v-366h-20v364q0 98 -45 143zM1706 1698h18v-778h-18v778zM1522 1075h18q-21 -75 -78 -121q-58 -47 -149 -47q-117 0 -185 81q-67 80 -67 216
q0 134 66 213q66 80 180 80q111 0 178 -75q67 -74 67 -193v-17h-471v-4v-6q0 -127 63 -202q62 -74 169 -74q158 0 209 149zM1307 1479q-99 0 -159 -69q-61 -70 -67 -181h451q-1 111 -62 181q-60 69 -163 69zM1569 281q-118 0 -185 80t-67 217q0 134 66 213t180 79
q111 0 178 -74t67 -194v-16h-471v-4v-7q0 -126 63 -201t169 -75q158 0 209 150h18q-21 -75 -78 -121q-58 -47 -149 -47zM1036 309l17 51l207 496h20l-233 -563h-21l-235 563h22l203 -496q1 -4 10 -26t10 -25zM1563 852q-99 0 -159 -69q-61 -70 -67 -181h451q-1 111 -62 181
q-60 69 -163 69zM618 375h-28v63h28v-63zM301 383v-160h158v-16h-158v-430q0 -99 92 -99h66v-18h-68q-110 0 -110 113v434h-115v16h115v160h20zM1020 217q-107 0 -168 -73q-59 -71 -59 -201q0 -129 60 -203t167 -74q84 0 138 48q55 49 65 130h20q-11 -92 -69 -143
q-61 -53 -154 -53q-117 0 -181 79q-65 80 -65 216t65 216q64 79 181 79q97 0 157 -55q59 -54 66 -132h-20q-6 69 -61 118q-54 48 -142 48zM1819 -340h-19q-24 68 -24 150q-45 -162 -232 -162q-94 0 -143 43t-49 112q0 136 174 160l137 19q65 7 89 31t24 71v2q0 58 -49 96
q-47 37 -138 37q-95 0 -138 -36q-44 -36 -54 -111h-19q17 164 211 164q101 0 153 -40t52 -110v-276q0 -64 25 -150zM614 -340h-20v563h20v-563zM1546 -336q197 0 230 199v155q-22 -42 -109 -53l-139 -20q-156 -21 -156 -142q0 -61 45 -100t129 -39z" />
    <glyph glyph-name="uniFEFF" unicode="&#xfeff;" 
 />
    <glyph glyph-name="null" 
 />
    <glyph glyph-name="Adieresis.ss01" horiz-adv-x="1468" 
d="M801 1696q-24 0 -39 15q-14 14 -14 38q0 51 53 51q51 0 51 -52t-51 -52zM1225 1712q-23 -27 -57 -12q-33 14 -33 49q0 22 15 37q14 14 38 14q51 0 51 -51q0 -23 -14 -37zM1274 0h-39l-109 492h-798l-318 -492h-41l949 1468h30zM905 1386l-553 -858h766l-186 854l-6 37z
" />
    <glyph glyph-name="Cdotaccent.ss01" horiz-adv-x="1525" 
d="M1030 1698q-24 0 -39 15q-14 14 -14 38q0 51 53 51q51 0 51 -52t-51 -52zM733 -25q-248 0 -389 162t-141 422q0 93 22 207q72 336 275 526q203 191 489 191q234 0 373 -127t139 -340h-37q-1 200 -130 316q-128 116 -349 116q-272 0 -463 -179q-190 -178 -258 -499
q-24 -114 -24 -211q0 -246 133 -397q134 -152 364 -152q243 0 418 160q156 144 207 322h37q-63 -226 -248 -373q-180 -144 -418 -144z" />
    <glyph glyph-name="Edieresis.ss01" horiz-adv-x="1380" 
d="M797 1696q-24 0 -39 15t-15 38q0 51 54 51q51 0 51 -52t-51 -52zM1221 1712q-23 -27 -57 -12t-34 49q0 21 16 37q14 14 38 14q51 0 51 -51q0 -23 -14 -37zM1386 1458l-8 -35h-919l-135 -641h860l-6 -34h-863l-151 -713h958l-8 -35h-995l311 1458h956z" />
    <glyph glyph-name="Edotaccent.ss01" horiz-adv-x="1380" 
d="M969 1696q-22 0 -37 15q-14 14 -14 38q0 51 51 51q35 0 48 -25q14 -26 0 -53q-13 -26 -48 -26zM1386 1458l-8 -35h-919l-135 -641h860l-6 -34h-863l-151 -713h958l-8 -35h-995l311 1458h956z" />
    <glyph glyph-name="uni0122.ss01" horiz-adv-x="1701" 
d="M1012 1448q-286 0 -486 -188q-200 -191 -268 -517q-22 -114 -22 -206q0 -244 134 -386q134 -141 375 -141q249 0 445 158q193 157 260 434l16 78h-577l8 37h612l-151 -717h-33l78 383q-96 -194 -270 -301q-175 -107 -390 -107q-255 0 -401 154q-143 150 -143 410
q0 97 22 213q69 335 281 534q209 197 510 197q252 0 395 -124t143 -343h-37q0 203 -134 317q-135 115 -367 115zM698 -164q21 0 34 -13t13 -34q0 -12 -8 -49l-24 -121q-16 -61 -84 -61h-21l6 28h13q46 0 57 41l27 121q-11 -4 -25 -4q-16 0 -28 12q-11 11 -11 29q0 51 51 51z
" />
    <glyph glyph-name="Gdotaccent.ss01" horiz-adv-x="1701" 
d="M1053 1698q-24 0 -39 15t-15 38q0 51 54 51q33 0 46 -26q14 -27 0 -53q-13 -25 -46 -25zM1012 1448q-286 0 -486 -188q-200 -191 -268 -517q-22 -114 -22 -206q0 -244 134 -386q134 -141 375 -141q249 0 445 158q193 157 260 434l16 78h-577l8 37h612l-151 -717h-33
l78 383q-96 -194 -270 -301q-175 -107 -390 -107q-255 0 -401 154q-143 150 -143 410q0 97 22 213q69 335 281 534q209 197 510 197q252 0 395 -124t143 -343h-37q0 203 -134 317q-135 115 -367 115z" />
    <glyph glyph-name="Idieresis.ss01" horiz-adv-x="499" 
d="M317 1696q-23 0 -38 15t-15 38q0 51 53 51q33 0 45 -25q12 -26 0 -53q-12 -26 -45 -26zM702 1696q-33 0 -45 26q-12 27 0 53q12 25 45 25q54 0 54 -51q0 -23 -15 -38t-39 -15zM156 0h-37l311 1458h37z" />
    <glyph glyph-name="Idotaccent.ss01" horiz-adv-x="499" 
d="M551 1712q-27 -27 -61 -12q-33 14 -33 49q0 51 53 51q36 0 51 -32q15 -31 -10 -56zM156 0h-37l311 1458h37z" />
    <glyph glyph-name="uni0136.ss01" horiz-adv-x="1445" 
d="M1483 1458h57l-778 -604l491 -854h-45l-477 831l-477 -368l-98 -463h-37l311 1458h37l-203 -946zM629 -164q47 0 47 -47q0 -15 -8 -47l-25 -123q-16 -59 -84 -59h-20l6 28h12q46 0 57 41l27 121q-11 -4 -25 -4q-38 0 -38 39q0 51 51 51z" />
    <glyph glyph-name="uni013B.ss01" horiz-adv-x="1265" 
d="M467 1458l-303 -1423h887l-9 -35h-923l311 1458h37zM543 -164q47 0 47 -47q0 -15 -8 -47l-25 -123q-16 -59 -84 -59h-20l6 28h12q46 0 57 41l27 121q-11 -4 -25 -4q-38 0 -38 39q0 51 51 51z" />
    <glyph glyph-name="Ldot.ss01" horiz-adv-x="1265" 
d="M467 1458l-303 -1423h887l-9 -35h-923l311 1458h37zM825 721q-22 -20 -52 -11t-37 34q-8 26 14 51q22 20 51 11t37 -35t-13 -50z" />
    <glyph glyph-name="uni0145.ss01" horiz-adv-x="1542" 
d="M1176 55l299 1403h34l-311 -1458h-33l-710 1405l-299 -1405h-37l311 1458h33zM618 -164q48 0 48 -47q0 -11 -9 -47l-24 -123q-16 -59 -84 -59h-21l7 28h12q46 0 57 41l27 121q-11 -4 -25 -4q-39 0 -39 39q0 51 51 51z" />
    <glyph glyph-name="Odieresis.ss01" horiz-adv-x="1689" 
d="M864 1698q-24 0 -39 15q-14 14 -14 38q0 51 53 51q33 0 46 -26q14 -27 0 -53q-13 -25 -46 -25zM1288 1714q-22 -27 -56 -12t-34 49q0 22 15 37q14 14 38 14q52 0 52 -51q0 -22 -15 -37zM748 -25q-255 0 -400 160q-145 157 -145 420q0 110 20 201q66 329 283 526
q217 201 518 201q262 0 406 -156q143 -155 143 -420q0 -109 -21 -205q-66 -329 -278 -526q-219 -201 -526 -201zM752 10q288 0 495 195q203 191 269 506q20 91 20 196q0 254 -136 397q-136 144 -380 144q-285 0 -492 -193q-207 -195 -268 -507q-20 -86 -20 -191
q0 -246 137 -397q137 -150 375 -150z" />
    <glyph glyph-name="uni0156.ss01" horiz-adv-x="1503" 
d="M1405 1159q0 -181 -113 -303q-111 -120 -303 -147q118 -18 170 -78q53 -61 53 -170q0 -30 -4 -70l-37 -391h-38l38 385q5 58 5 76q0 127 -76 179t-254 52h-543l-147 -692h-37l311 1458h608q178 0 272 -79q95 -80 95 -220zM311 727h563q220 0 357 119q137 117 137 311
q0 128 -87 197t-247 69h-575zM631 -164q47 0 47 -47q0 -15 -8 -47l-25 -123q-16 -59 -84 -59h-20l6 28h12q46 0 57 41l27 121q-11 -4 -25 -4q-38 0 -38 39q0 51 51 51z" />
    <glyph glyph-name="uni0218.ss01" horiz-adv-x="1376" 
d="M864 1483q210 0 331 -87q122 -87 122 -245q0 -33 -6 -68h-37q6 30 6 64q0 142 -113 222q-112 79 -305 79q-227 0 -370 -98q-144 -100 -144 -283q0 -211 279 -268l286 -60q293 -60 293 -301q0 -220 -159 -342q-158 -121 -435 -121q-240 0 -370 98q-129 98 -129 292
q0 14 4 61h37q-4 -44 -4 -55q0 -180 120 -270q121 -91 344 -91q257 0 407 111t150 315q0 214 -268 269l-282 57q-308 62 -308 305q0 203 156 309q152 107 395 107zM567 -176q47 0 47 -47q0 -15 -8 -47l-24 -123q-16 -60 -84 -60h-21l6 29h13q46 0 57 41l27 121
q-11 -4 -25 -4q-39 0 -39 39q0 51 51 51z" />
    <glyph glyph-name="uni021A.ss01" horiz-adv-x="1312" 
d="M289 1458h1112l-8 -35h-539l-303 -1423h-37l303 1423h-536zM492 -164q47 0 47 -47q0 -11 -9 -47l-24 -123q-16 -59 -84 -59h-21l7 28h12q46 0 57 41l27 121q-11 -4 -25 -4q-39 0 -39 39q0 51 52 51z" />
    <glyph glyph-name="Udieresis.ss01" horiz-adv-x="1536" 
d="M797 1696q-24 0 -39 15t-15 38q0 51 54 51q51 0 51 -52t-51 -52zM1221 1712q-23 -27 -57 -12t-34 49q0 21 16 37q14 14 38 14q51 0 51 -51q0 -23 -14 -37zM678 -25q-221 0 -346 92t-125 277q0 66 18 148l205 966h37l-207 -975q-16 -80 -16 -135q0 -172 114 -255
q115 -83 320 -83q481 0 582 473l206 975h37l-207 -975q-108 -508 -618 -508z" />
    <glyph glyph-name="Wdieresis.ss01" horiz-adv-x="1916" 
d="M983 1696q-24 0 -39 15q-14 14 -14 38q0 51 53 51q33 0 46 -25q14 -26 0 -53q-13 -26 -46 -26zM1407 1712q-22 -27 -56 -12t-34 49q0 22 15 37q14 14 38 14q51 0 51 -51q0 -23 -14 -37zM1378 254l619 1204h39l-754 -1470h-31l-114 1411l-676 -1411h-33l-147 1470h36
l119 -1200l19 -209l675 1409h35l99 -1204l14 -205z" />
    <glyph glyph-name="Ydieresis.ss01" horiz-adv-x="1370" 
d="M754 1696q-24 0 -39 15t-15 38q0 51 54 51q33 0 46 -25q14 -26 0 -53q-13 -26 -46 -26zM1178 1712q-22 -27 -57 -12q-34 15 -34 49q0 21 16 37q14 14 38 14q51 0 51 -51q0 -23 -14 -37zM1462 1458h49l-792 -872l-127 -586h-37l127 586l-426 872h41l393 -813l12 -31l25 31
z" />
    <glyph glyph-name="Zdotaccent.ss01" horiz-adv-x="1411" 
d="M967 1696q-24 0 -39 15t-15 38q0 51 54 51q33 0 46 -25q14 -26 0 -53q-13 -26 -46 -26zM416 1458h1003l-8 -35l-1302 -1388h1036l-8 -35h-1086l8 37l1303 1386h-954z" />
    <glyph glyph-name="G.ss03" horiz-adv-x="1644" 
d="M1032 1450q-284 0 -497 -193q-209 -191 -281 -528q-25 -119 -25 -211q0 -239 131 -375q131 -135 369 -135q284 0 479 189q192 186 260 485h-594l9 35h628q-68 -351 -278 -545q-214 -197 -504 -197q-255 0 -396 143q-140 141 -140 396q0 100 24 221q79 352 295 549
q219 199 520 199q242 0 378 -127q135 -127 140 -340h-37q-4 198 -130 316q-125 118 -351 118z" />
    <glyph glyph-name="uni01F4.ss03" horiz-adv-x="1644" 
d="M1196 2015h47l-248 -307h-41zM1032 1450q-284 0 -497 -193q-209 -191 -281 -528q-25 -119 -25 -211q0 -239 131 -375q131 -135 369 -135q284 0 479 189q192 186 260 485h-594l9 35h628q-68 -351 -278 -545q-214 -197 -504 -197q-255 0 -396 143q-140 141 -140 396
q0 100 24 221q79 352 295 549q219 199 520 199q242 0 378 -127q135 -127 140 -340h-37q-4 198 -130 316q-125 118 -351 118z" />
    <glyph glyph-name="Gbreve.ss03" horiz-adv-x="1644" 
d="M1085 1696q-278 0 -278 202q0 28 6 62h31q-4 -47 -4 -59q0 -172 247 -172q280 0 340 231h33q-72 -264 -375 -264zM1032 1450q-284 0 -497 -193q-209 -191 -281 -528q-25 -119 -25 -211q0 -239 131 -375q131 -135 369 -135q284 0 479 189q192 186 260 485h-594l9 35h628
q-68 -351 -278 -545q-214 -197 -504 -197q-255 0 -396 143q-140 141 -140 396q0 100 24 221q79 352 295 549q219 199 520 199q242 0 378 -127q135 -127 140 -340h-37q-4 198 -130 316q-125 118 -351 118z" />
    <glyph glyph-name="Gcircumflex.ss03" horiz-adv-x="1644" 
d="M1341 1683l-196 302l-326 -302h-45l354 332h37l215 -332h-39zM1032 1450q-284 0 -497 -193q-209 -191 -281 -528q-25 -119 -25 -211q0 -239 131 -375q131 -135 369 -135q284 0 479 189q192 186 260 485h-594l9 35h628q-68 -351 -278 -545q-214 -197 -504 -197
q-255 0 -396 143q-140 141 -140 396q0 100 24 221q79 352 295 549q219 199 520 199q242 0 378 -127q135 -127 140 -340h-37q-4 198 -130 316q-125 118 -351 118z" />
    <glyph glyph-name="uni0122.ss03" horiz-adv-x="1644" 
d="M1032 1450q-284 0 -497 -193q-209 -191 -281 -528q-25 -119 -25 -211q0 -239 131 -375q131 -135 369 -135q284 0 479 189q192 186 260 485h-594l9 35h628q-68 -351 -278 -545q-214 -197 -504 -197q-255 0 -396 143q-140 141 -140 396q0 100 24 221q79 352 295 549
q219 199 520 199q242 0 378 -127q135 -127 140 -340h-37q-4 198 -130 316q-125 118 -351 118zM713 -236l-64 -6l19 80h88l-43 -207q-12 -61 -68 -61h-35l6 29h29q21 0 30 9q8 8 13 34z" />
    <glyph glyph-name="Gdotaccent.ss03" horiz-adv-x="1644" 
d="M1102 1884h37l-23 -100h-37zM1032 1450q-284 0 -497 -193q-209 -191 -281 -528q-25 -119 -25 -211q0 -239 131 -375q131 -135 369 -135q284 0 479 189q192 186 260 485h-594l9 35h628q-68 -351 -278 -545q-214 -197 -504 -197q-255 0 -396 143q-140 141 -140 396
q0 100 24 221q79 352 295 549q219 199 520 199q242 0 378 -127q135 -127 140 -340h-37q-4 198 -130 316q-125 118 -351 118z" />
    <glyph glyph-name="uni0122.ss01.ss03" horiz-adv-x="1644" 
d="M1032 1450q-284 0 -497 -193q-209 -191 -281 -528q-25 -119 -25 -211q0 -239 131 -375q131 -135 369 -135q284 0 479 189q192 186 260 485h-594l9 35h628q-68 -351 -278 -545q-214 -197 -504 -197q-255 0 -396 143q-140 141 -140 396q0 100 24 221q79 352 295 549
q219 199 520 199q242 0 378 -127q135 -127 140 -340h-37q-4 198 -130 316q-125 118 -351 118zM700 -152q21 0 34 -13q14 -14 14 -34q0 -8 -9 -49l-24 -121q-15 -61 -84 -61h-21l6 29h15q46 0 57 41l25 122q-8 -6 -25 -6q-15 0 -28 13q-11 11 -11 28q0 51 51 51z" />
    <glyph glyph-name="Gdotaccent.ss01.ss03" horiz-adv-x="1644" 
d="M1098 1720q-23 0 -39 16q-15 15 -15 38q0 51 54 51q32 0 46 -26q13 -25 0 -52q-14 -27 -46 -27zM1032 1450q-284 0 -497 -193q-209 -191 -281 -528q-25 -119 -25 -211q0 -239 131 -375q131 -135 369 -135q284 0 479 189q192 186 260 485h-594l9 35h628
q-68 -351 -278 -545q-214 -197 -504 -197q-255 0 -396 143q-140 141 -140 396q0 100 24 221q79 352 295 549q219 199 520 199q242 0 378 -127q135 -127 140 -340h-37q-4 198 -130 316q-125 118 -351 118z" />
    <glyph glyph-name="R.ss04" horiz-adv-x="1372" 
d="M1362 1114q0 -205 -145 -338q-151 -136 -375 -137l325 -639h-39l-327 639h-508l-137 -639h-37l311 1458h547q185 0 285 -91t100 -253zM299 674h532q218 0 355 125q139 123 139 311q0 151 -89 232t-263 81h-514z" />
    <glyph glyph-name="Racute.ss04" horiz-adv-x="1372" 
d="M1034 1991h47l-247 -308h-41zM1362 1114q0 -205 -145 -338q-151 -136 -375 -137l325 -639h-39l-327 639h-508l-137 -639h-37l311 1458h547q185 0 285 -91t100 -253zM299 674h532q218 0 355 125q139 123 139 311q0 151 -89 232t-263 81h-514z" />
    <glyph glyph-name="Rcaron.ss04" horiz-adv-x="1372" 
d="M1272 1987l-354 -332h-37l-217 332h41l196 -301l326 301h45zM1362 1114q0 -205 -145 -338q-151 -136 -375 -137l325 -639h-39l-327 639h-508l-137 -639h-37l311 1458h547q185 0 285 -91t100 -253zM299 674h532q218 0 355 125q139 123 139 311q0 151 -89 232t-263 81h-514
z" />
    <glyph glyph-name="uni0156.ss04" horiz-adv-x="1372" 
d="M1362 1114q0 -205 -145 -338q-151 -136 -375 -137l325 -639h-39l-327 639h-508l-137 -639h-37l311 1458h547q185 0 285 -91t100 -253zM299 674h532q218 0 355 125q139 123 139 311q0 151 -89 232t-263 81h-514zM584 -246l-64 -8l17 82h90l-43 -207q-15 -61 -68 -61h-35
l6 28h27q20 0 30 10q8 8 13 33z" />
    <glyph glyph-name="uni0156.ss01.ss04" horiz-adv-x="1372" 
d="M1362 1114q0 -205 -145 -338q-151 -136 -375 -137l325 -639h-39l-327 639h-508l-137 -639h-37l311 1458h547q185 0 285 -91t100 -253zM299 674h532q218 0 355 125q139 123 139 311q0 151 -89 232t-263 81h-514zM569 -164q47 0 47 -47q0 -15 -8 -47l-24 -123
q-16 -59 -84 -59h-21l6 28h13q46 0 57 41l27 121q-11 -4 -25 -4q-39 0 -39 39q0 51 51 51z" />
    <glyph glyph-name="i.loclTRK" horiz-adv-x="419" 
d="M406 1360h-37l22 98h37zM117 0h-37l225 1057h37z" />
    <glyph glyph-name="adieresis.ss01" horiz-adv-x="1183" 
d="M600 1370q-27 -27 -59 -12q-33 15 -33 49q0 51 53 51t53 -51q0 -23 -14 -37zM948 1354q-23 0 -38 15t-15 38q0 24 15 39q14 14 38 14q53 0 53 -53q0 -24 -14 -38q-15 -15 -39 -15zM1024 33h33l-6 -33h-31q-116 0 -151 59q-36 59 -7 195l2 12q-144 -291 -475 -291
q-153 0 -236 72t-83 191q0 277 385 329l270 37q122 18 177 63q53 44 71 130q28 124 -55 187q-84 63 -256 63q-179 0 -275 -73q-94 -71 -133 -224l-37 2q79 329 451 329q172 0 260 -58t88 -159q0 -37 -6 -67l-115 -549q-24 -117 4 -166t125 -49zM399 8q351 0 488 371l61 297
q-52 -82 -221 -103l-266 -38q-354 -49 -354 -295q0 -107 74 -169q75 -63 218 -63z" />
    <glyph glyph-name="cdotaccent.ss01" horiz-adv-x="1120" 
d="M811 1370q-27 -24 -58 -11q-32 14 -32 48q0 53 51 53q24 0 38 -14q15 -15 15 -39q0 -23 -14 -37zM492 -25q-170 0 -275 118q-104 117 -104 315q0 81 14 145q50 254 194 391q145 137 357 137q186 0 276 -102q86 -103 86 -244h-36q0 123 -78 219q-79 93 -248 93
q-201 0 -335 -131t-179 -369q-14 -62 -14 -139q0 -183 94 -290q94 -108 250 -108q163 0 275 89q111 88 167 249h37q-57 -174 -179 -274q-122 -99 -302 -99z" />
    <glyph glyph-name="edieresis.ss01" horiz-adv-x="1173" 
d="M612 1370q-27 -27 -59 -12q-33 15 -33 49q0 51 53 51q54 0 54 -51q0 -22 -15 -37zM961 1354q-23 0 -38 15q-16 16 -16 38q0 23 16 39q14 14 38 14q53 0 53 -53q0 -23 -15 -38t-38 -15zM1055 547h-891q-14 -62 -14 -141q0 -181 98 -288q99 -108 260 -108q179 0 293 96
t160 216l34 -3q-45 -130 -172 -237q-125 -107 -315 -107q-179 0 -287 118q-108 119 -108 315q0 79 16 155q52 238 205 379q151 139 358 139q179 0 281 -102t102 -274q0 -82 -20 -158zM692 1047q-187 0 -330 -127q-139 -124 -192 -340h856q14 67 14 122q0 158 -93 251
q-94 94 -255 94z" />
    <glyph glyph-name="edotaccent.ss01" horiz-adv-x="1173" 
d="M807 1370q-27 -24 -58 -11q-32 14 -32 48q0 53 51 53q24 0 38 -14q15 -15 15 -39q0 -23 -14 -37zM1055 547h-891q-14 -62 -14 -141q0 -181 98 -288q99 -108 260 -108q179 0 293 96t160 216l34 -3q-45 -130 -172 -237q-125 -107 -315 -107q-179 0 -287 118
q-108 119 -108 315q0 79 16 155q52 238 205 379q151 139 358 139q179 0 281 -102t102 -274q0 -82 -20 -158zM692 1047q-187 0 -330 -127q-139 -124 -192 -340h856q14 67 14 122q0 158 -93 251q-94 94 -255 94z" />
    <glyph glyph-name="uni0123.ss01" horiz-adv-x="1226" 
d="M811 1352q-47 0 -47 47q0 12 8 49l21 92q12 62 81 62h23l-8 -29h-12q-47 0 -58 -41l-18 -92q11 4 22 4q16 0 28 -12q11 -11 11 -29q0 -51 -51 -51zM1040 723l72 334h35l-227 -1073q-90 -404 -506 -404q-112 0 -191 30q-80 30 -118 77q-37 47 -54 90q-16 42 -16 82h37
q2 -70 65 -150q73 -94 283 -94q388 0 465 371l71 331q-69 -152 -195 -247q-127 -95 -276 -95q-177 0 -276 111q-98 110 -98 303q-6 276 153 485t404 207q166 0 263 -97t109 -261zM489 10q146 0 275 103q125 103 188 252q64 149 64 313q0 170 -95 270q-95 99 -251 99
q-240 0 -381 -195q-142 -198 -142 -465q0 -174 90 -276q89 -101 252 -101z" />
    <glyph glyph-name="gdotaccent.ss01" horiz-adv-x="1226" 
d="M850 1370q-27 -24 -58 -11q-32 14 -32 48q0 53 51 53q24 0 38 -14q15 -15 15 -39q0 -23 -14 -37zM1040 723l72 334h35l-227 -1073q-90 -404 -506 -404q-112 0 -191 30q-80 30 -118 77q-37 47 -54 90q-16 42 -16 82h37q2 -70 65 -150q73 -94 283 -94q388 0 465 371l71 331
q-69 -152 -195 -247q-127 -95 -276 -95q-177 0 -276 111q-98 110 -98 303q-6 276 153 485t404 207q166 0 263 -97t109 -261zM489 10q146 0 275 103q125 103 188 252q64 149 64 313q0 170 -95 270q-95 99 -251 99q-240 0 -381 -195q-142 -198 -142 -465q0 -174 90 -276
q89 -101 252 -101z" />
    <glyph glyph-name="i.ss01" horiz-adv-x="419" 
d="M436 1370q-27 -27 -59 -12q-33 15 -33 49q0 51 53 51q54 0 54 -51q0 -22 -15 -37zM117 0h-37l225 1057h37z" />
    <glyph glyph-name="idieresis.ss01" horiz-adv-x="419" 
d="M205 1354q-24 0 -39 15q-14 14 -14 38q0 53 53 53q24 0 38 -14q15 -15 15 -39q0 -23 -15 -38t-38 -15zM590 1354q-22 0 -37 15q-14 14 -14 38q0 53 51 53q53 0 53 -53q0 -24 -14 -38q-15 -15 -39 -15zM117 0h-37l225 1057h37z" />
    <glyph glyph-name="i.loclTRK.ss01" horiz-adv-x="419" 
d="M436 1370q-27 -27 -59 -12q-33 15 -33 49q0 51 53 51q54 0 54 -51q0 -22 -15 -37zM117 0h-37l225 1057h37z" />
    <glyph glyph-name="ij.ss01" horiz-adv-x="839" 
d="M436 1370q-27 -27 -59 -12q-33 15 -33 49q0 51 53 51q54 0 54 -51q0 -22 -15 -37zM819 1354q-24 0 -39 15q-14 14 -14 38q0 53 53 53q51 0 51 -53q0 -24 -14 -38q-15 -15 -37 -15zM117 0h-37l225 1057h37zM209 -418h-59l6 35h53q207 0 254 213l262 1227h37l-264 -1231
q-53 -244 -289 -244z" />
    <glyph glyph-name="iogonek.ss01" horiz-adv-x="419" 
d="M360 1446q25 25 58 11q33 -13 33 -50q0 -51 -54 -51q-53 0 -53 51q0 23 16 39zM-127 -154l209 164l223 1047h37l-225 -1057l-217 -172q-62 -45 -62 -107q0 -45 37 -72q39 -28 102 -28h58l-6 -33h-62q-79 0 -122 36q-44 36 -44 93q0 73 72 129z" />
    <glyph glyph-name="j.ss01" horiz-adv-x="419" 
d="M399 1354q-24 0 -39 15q-14 14 -14 38q0 53 53 53q52 0 52 -53q0 -23 -15 -38t-37 -15zM-211 -418h-59l6 35h53q208 0 254 213l262 1227h37l-264 -1231q-53 -244 -289 -244z" />
    <glyph glyph-name="uni0137.ss01" horiz-adv-x="1132" 
d="M1085 1057h54l-557 -420l360 -637h-41l-348 616l-365 -276l-71 -340h-37l311 1458h37l-229 -1071zM479 -164q47 0 47 -47q0 -15 -8 -47l-24 -123q-16 -59 -84 -59h-21l6 28h13q46 0 57 41l27 121q-11 -4 -25 -4q-39 0 -39 39q0 51 51 51z" />
    <glyph glyph-name="uni013C.ss01" horiz-adv-x="421" 
d="M80 0l311 1458h37l-311 -1458h-37zM57 -164q47 0 47 -47q0 -15 -8 -47l-24 -123q-16 -59 -84 -59h-21l6 28h13q46 0 57 41l27 121q-11 -4 -25 -4q-39 0 -39 39q0 51 51 51z" />
    <glyph glyph-name="ldot.ss01" horiz-adv-x="550" 
d="M117 0h-37l311 1458h37zM516 690q-23 -20 -54 -11q-30 9 -36 35q-6 27 14 50q22 20 53 11q29 -9 37 -35q8 -27 -14 -50z" />
    <glyph glyph-name="napostrophe.ss01" horiz-adv-x="1656" 
d="M444 1468q56 0 56 -51q0 -18 -8 -55l-39 -182q-12 -55 -37 -80t-72 -25h-12l6 31h10q34 0 49 15q14 14 25 59l39 188h-19q-59 0 -59 49q0 51 61 51zM1206 1081q149 0 227 -75t78 -211q0 -45 -12 -111l-147 -684h-37l147 684q11 75 11 109q0 124 -70 189t-201 65
q-176 0 -307 -114q-132 -115 -184 -331l-129 -602h-37l225 1057h37l-59 -283q70 148 187 227q119 80 271 80z" />
    <glyph glyph-name="uni0146.ss01" horiz-adv-x="1191" 
d="M741 1081q147 0 225 -74t78 -212q0 -45 -12 -111l-145 -684h-37l145 684q13 65 13 109q0 124 -70 189t-201 65q-175 0 -307 -112q-131 -112 -184 -327l-129 -608h-37l225 1057h37l-61 -281q152 305 460 305zM461 -164q47 0 47 -47q0 -15 -8 -47l-25 -123q-16 -59 -84 -59
h-20l6 28h12q46 0 57 41l27 121q-11 -4 -24 -4q-39 0 -39 39q0 51 51 51z" />
    <glyph glyph-name="odieresis.ss01" horiz-adv-x="1210" 
d="M637 1370q-27 -27 -59 -12q-33 15 -33 49q0 51 53 51t53 -51q0 -23 -14 -37zM985 1354q-23 0 -38 15t-15 38q0 24 15 39q14 14 38 14q53 0 53 -53q0 -24 -14 -38q-15 -15 -39 -15zM514 -25q-185 0 -293 117t-108 314q0 85 14 149q47 244 203 385q153 141 368 141
q185 0 293 -115q109 -117 109 -311q0 -57 -17 -151q-45 -247 -197 -387q-154 -142 -372 -142zM514 10q203 0 345 133q143 134 188 367q16 89 16 145q0 182 -99 287t-268 105q-196 0 -342 -134q-143 -134 -190 -366q-14 -62 -14 -141q0 -183 99 -289q99 -107 265 -107z" />
    <glyph glyph-name="uni0157.ss01" horiz-adv-x="817" 
d="M707 1083q75 0 124 -12l-8 -35q-71 11 -121 11q-161 0 -286 -116t-170 -335h-2l-125 -596h-37l223 1057h35l-55 -269q68 143 179 219q110 76 243 76zM55 -164q47 0 47 -47q0 -15 -8 -47l-24 -123q-16 -59 -84 -59h-21l6 28h13q46 0 57 41l27 121q-11 -4 -25 -4
q-39 0 -39 39q0 51 51 51z" />
    <glyph glyph-name="uni0219.ss01" horiz-adv-x="1083" 
d="M618 1040q-169 0 -271 -71q-103 -72 -103 -195q0 -91 61 -137q64 -48 189 -66l137 -22q140 -21 202 -79t62 -163q0 -161 -117 -247q-116 -85 -319 -85q-181 0 -281 78t-100 217h37q0 -125 91 -192q92 -68 257 -68q184 0 290 77q105 76 105 218q0 90 -56 139t-184 70
l-137 23q-135 24 -203 79q-69 56 -69 156q0 142 114 221q115 80 300 80q163 0 257 -77q93 -76 93 -210h-37q0 122 -84 188t-234 66zM397 -164q47 0 47 -47q0 -15 -8 -47l-24 -123q-16 -59 -84 -59h-21l6 28h13q46 0 57 41l25 119q-8 -2 -23 -2q-39 0 -39 39q0 51 51 51z" />
    <glyph glyph-name="uni021B.ss01" horiz-adv-x="677" 
d="M403 1024l-4 -20l-168 -783q-8 -50 -8 -76q0 -110 142 -110h120l-6 -35h-121q-174 0 -174 139q0 27 11 80l167 785l5 20h-215l4 33h217l4 16l59 285h37l-59 -285l-4 -16h295l-7 -33h-295zM154 -152q47 0 47 -47q0 -15 -8 -47l-25 -123q-16 -59 -84 -59h-21l7 29h12
q46 0 57 41l27 120q-11 -4 -25 -4q-39 0 -39 39q0 51 52 51z" />
    <glyph glyph-name="udieresis.ss01" horiz-adv-x="1191" 
d="M606 1370q-27 -27 -59 -12q-33 15 -33 49q0 51 53 51q54 0 54 -51q0 -22 -15 -37zM954 1354q-23 0 -38 15t-15 38q0 24 15 39q14 14 38 14q54 0 54 -53q0 -23 -15 -38t-39 -15zM946 449l129 608h37l-225 -1057h-37l61 281q-152 -306 -460 -306q-145 0 -225 75
q-79 75 -79 212q0 39 13 111l145 684h37l-145 -684q-13 -65 -13 -109q0 -124 70 -189t201 -65q175 0 307 112q131 112 184 327z" />
    <glyph glyph-name="wdieresis.ss01" horiz-adv-x="1562" 
d="M780 1370q-27 -27 -59 -12q-33 15 -33 49q0 51 53 51q54 0 54 -51q0 -22 -15 -37zM1128 1354q-22 0 -37 15q-16 16 -16 38q0 23 16 39q14 14 37 14q54 0 54 -53q0 -23 -15 -38t-39 -15zM1049 186l467 871h38l-569 -1057h-35l-88 895l-8 119l-57 -119l-469 -895h-35
l-123 1057h39l98 -871l15 -141l67 141l457 871h35l88 -871l12 -137z" />
    <glyph glyph-name="ydieresis.ss01" horiz-adv-x="1116" 
d="M559 1370q-27 -27 -59 -12q-33 15 -33 49q0 51 53 51t53 -51q0 -23 -14 -37zM907 1354q-23 0 -38 15t-15 38q0 24 15 39q14 14 38 14q54 0 54 -53q0 -23 -15 -38t-39 -15zM422 -8l645 1065h41l-793 -1301q-60 -103 -120 -139q-67 -35 -179 -35h-63l8 35h53q106 0 163 33
q56 33 112 123l108 180l-227 1104h39l207 -1020z" />
    <glyph glyph-name="zdotaccent.ss01" horiz-adv-x="1069" 
d="M760 1370q-28 -24 -59 -11t-31 48q0 53 51 53q24 0 38 -14q15 -15 15 -39q0 -23 -14 -37zM258 1057h770l-6 -27l-954 -995h776l-8 -35h-828l6 29l953 993h-717z" />
    <glyph glyph-name="a.ss02" horiz-adv-x="1220" 
d="M1040 756l66 301h35l-226 -1057h-34l65 313q-77 -155 -206 -245q-133 -93 -283 -93q-166 0 -259 104q-94 105 -94 283q0 285 166 502q162 217 416 217q161 0 249 -86q87 -85 105 -239zM465 10q235 0 391 211q154 210 154 473q0 170 -87 262q-88 93 -241 93
q-237 0 -387 -205q-152 -208 -152 -475q0 -169 84 -264t238 -95z" />
    <glyph glyph-name="aacute.ss02" horiz-adv-x="1220" 
d="M858 1589h47l-248 -307h-41zM1040 756l66 301h35l-226 -1057h-34l65 313q-77 -155 -206 -245q-133 -93 -283 -93q-166 0 -259 104q-94 105 -94 283q0 285 166 502q162 217 416 217q161 0 249 -86q87 -85 105 -239zM465 10q235 0 391 211q154 210 154 473q0 170 -87 262
q-88 93 -241 93q-237 0 -387 -205q-152 -208 -152 -475q0 -169 84 -264t238 -95z" />
    <glyph glyph-name="abreve.ss02" horiz-adv-x="1220" 
d="M750 1270q-279 0 -279 203q0 27 6 61h31q-4 -47 -4 -59q0 -172 248 -172q280 0 340 231h32q-72 -264 -374 -264zM1040 756l66 301h35l-226 -1057h-34l65 313q-77 -155 -206 -245q-133 -93 -283 -93q-166 0 -259 104q-94 105 -94 283q0 285 166 502q162 217 416 217
q161 0 249 -86q87 -85 105 -239zM465 10q235 0 391 211q154 210 154 473q0 170 -87 262q-88 93 -241 93q-237 0 -387 -205q-152 -208 -152 -475q0 -169 84 -264t238 -95z" />
    <glyph glyph-name="acircumflex.ss02" horiz-adv-x="1220" 
d="M1004 1257l-197 302l-326 -302h-45l355 332h36l215 -332h-38zM1040 756l66 301h35l-226 -1057h-34l65 313q-77 -155 -206 -245q-133 -93 -283 -93q-166 0 -259 104q-94 105 -94 283q0 285 166 502q162 217 416 217q161 0 249 -86q87 -85 105 -239zM465 10q235 0 391 211
q154 210 154 473q0 170 -87 262q-88 93 -241 93q-237 0 -387 -205q-152 -208 -152 -475q0 -169 84 -264t238 -95z" />
    <glyph glyph-name="adieresis.ss02" horiz-adv-x="1220" 
d="M586 1458h37l-21 -98h-37zM942 1458h37l-21 -98h-36zM1040 756l66 301h35l-226 -1057h-34l65 313q-77 -155 -206 -245q-133 -93 -283 -93q-166 0 -259 104q-94 105 -94 283q0 285 166 502q162 217 416 217q161 0 249 -86q87 -85 105 -239zM465 10q235 0 391 211
q154 210 154 473q0 170 -87 262q-88 93 -241 93q-237 0 -387 -205q-152 -208 -152 -475q0 -169 84 -264t238 -95z" />
    <glyph glyph-name="agrave.ss02" horiz-adv-x="1220" 
d="M592 1589l174 -307h-37l-182 307h45zM1040 756l66 301h35l-226 -1057h-34l65 313q-77 -155 -206 -245q-133 -93 -283 -93q-166 0 -259 104q-94 105 -94 283q0 285 166 502q162 217 416 217q161 0 249 -86q87 -85 105 -239zM465 10q235 0 391 211q154 210 154 473
q0 170 -87 262q-88 93 -241 93q-237 0 -387 -205q-152 -208 -152 -475q0 -169 84 -264t238 -95z" />
    <glyph glyph-name="amacron.ss02" horiz-adv-x="1220" 
d="M475 1391h586l-6 -33h-586zM1040 756l66 301h35l-226 -1057h-34l65 313q-77 -155 -206 -245q-133 -93 -283 -93q-166 0 -259 104q-94 105 -94 283q0 285 166 502q162 217 416 217q161 0 249 -86q87 -85 105 -239zM465 10q235 0 391 211q154 210 154 473q0 170 -87 262
q-88 93 -241 93q-237 0 -387 -205q-152 -208 -152 -475q0 -169 84 -264t238 -95z" />
    <glyph glyph-name="aogonek.ss02" horiz-adv-x="1228" 
d="M924 0l-215 -172q-64 -46 -64 -107q0 -45 37 -72q39 -28 102 -28h60l-8 -33h-62q-78 0 -122 36t-44 93q0 69 72 129l211 166l65 310q-72 -146 -196 -234t-277 -88q-171 0 -272 108q-100 107 -100 285q0 177 67 332q67 158 197 258q128 98 284 98q167 0 271 -97
q103 -96 114 -259l70 332h35zM487 35q230 0 381 196q150 195 150 451q0 166 -96 265q-97 100 -263 100q-221 1 -369 -201q-149 -203 -143 -453q0 -160 92 -260q91 -98 248 -98z" />
    <glyph glyph-name="aring.ss02" horiz-adv-x="1220" 
d="M940 1286q-62 -61 -160 -61q-96 0 -157 61q-64 62 -64 156q0 96 63 159q62 62 158 62q97 0 159 -62t62 -159q0 -95 -61 -156zM780 1630q-82 0 -134 -52t-52 -136q0 -79 53 -132t133 -53q81 0 135 51t54 134q0 82 -54 136q-52 52 -135 52zM1040 756l66 301h35l-226 -1057
h-34l65 313q-77 -155 -206 -245q-133 -93 -283 -93q-166 0 -259 104q-94 105 -94 283q0 285 166 502q162 217 416 217q161 0 249 -86q87 -85 105 -239zM465 10q235 0 391 211q154 210 154 473q0 170 -87 262q-88 93 -241 93q-237 0 -387 -205q-152 -208 -152 -475
q0 -169 84 -264t238 -95z" />
    <glyph glyph-name="aringacute.ss02" horiz-adv-x="1220" 
d="M989 2077h47l-248 -305h-40zM932 1270q-64 -62 -160 -62t-158 62q-63 62 -63 155q0 97 62 159q63 63 159 63t159 -63q62 -62 62 -159q0 -94 -61 -155zM772 1614q-82 0 -134 -52t-52 -137q0 -79 53 -132q52 -52 133 -52q82 0 135 50q54 51 54 134t-54 137q-52 52 -135 52z
M1040 756l66 301h35l-226 -1057h-34l65 313q-77 -155 -206 -245q-133 -93 -283 -93q-166 0 -259 104q-94 105 -94 283q0 285 166 502q162 217 416 217q161 0 249 -86q87 -85 105 -239zM465 10q235 0 391 211q154 210 154 473q0 170 -87 262q-88 93 -241 93q-237 0 -387 -205
q-152 -208 -152 -475q0 -169 84 -264t238 -95z" />
    <glyph glyph-name="atilde.ss02" horiz-adv-x="1220" 
d="M618 1569q-138 0 -212 -277h-35q80 310 254 310q116 0 161 -138q45 -139 150 -139q70 0 120 65q51 66 91 212h35q-80 -310 -252 -310q-67 0 -107 43q-41 43 -57 96q-17 53 -53 95q-37 43 -95 43zM1040 756l66 301h35l-226 -1057h-34l65 313q-77 -155 -206 -245
q-133 -93 -283 -93q-166 0 -259 104q-94 105 -94 283q0 285 166 502q162 217 416 217q161 0 249 -86q87 -85 105 -239zM465 10q235 0 391 211q154 210 154 473q0 170 -87 262q-88 93 -241 93q-237 0 -387 -205q-152 -208 -152 -475q0 -169 84 -264t238 -95z" />
    <glyph glyph-name="adieresis.ss01.ss02" horiz-adv-x="1220" 
d="M616 1370q-27 -27 -59 -12q-33 15 -33 49q0 51 54 51q53 0 53 -51q0 -22 -15 -37zM965 1354q-23 0 -38 15q-16 16 -16 38q0 23 16 39q14 14 38 14q53 0 53 -53q0 -24 -14 -38q-15 -15 -39 -15zM1040 756l66 301h35l-226 -1057h-34l65 313q-77 -155 -206 -245
q-133 -93 -283 -93q-166 0 -259 104q-94 105 -94 283q0 285 166 502q162 217 416 217q161 0 249 -86q87 -85 105 -239zM465 10q235 0 391 211q154 210 154 473q0 170 -87 262q-88 93 -241 93q-237 0 -387 -205q-152 -208 -152 -475q0 -169 84 -264t238 -95z" />
    <glyph glyph-name="uni021B.ss01.ss05" horiz-adv-x="638" 
d="M451 1057h256l-7 -33h-256l-217 -1024h-37l218 1024h-256l4 33h258l63 301h37zM168 -164q47 0 47 -47q0 -15 -8 -47l-25 -123q-16 -59 -84 -59h-20l6 28h12q47 0 58 41l26 121q-11 -4 -24 -4q-39 0 -39 39q0 51 51 51z" />
    <glyph glyph-name="udieresis.ss01.ss05" horiz-adv-x="1191" 
d="M606 1370q-27 -27 -59 -12q-33 15 -33 49q0 51 53 51q54 0 54 -51q0 -22 -15 -37zM954 1354q-23 0 -38 15t-15 38q0 24 15 39q14 14 38 14q54 0 54 -53q0 -23 -15 -38t-39 -15zM946 449l129 608h37l-225 -1057h-37l61 281q-152 -306 -460 -306q-145 0 -225 75
q-79 75 -79 212q0 39 13 111l145 684h37l-145 -684q-13 -65 -13 -109q0 -124 70 -189t201 -65q175 0 307 112q131 112 184 327z" />
    <glyph glyph-name="t.ss05" horiz-adv-x="638" 
d="M451 1057h256l-7 -33h-256l-217 -1024h-37l218 1024h-256l6 33h256l63 301h37z" />
    <glyph glyph-name="tbar.ss05" horiz-adv-x="638" 
d="M707 1057l-7 -33h-256l-102 -479h256l-6 -33h-256l-109 -512h-37l109 512h-256l6 33h256l103 479h-256l6 33h256l63 301h37l-63 -301h256z" />
    <glyph glyph-name="tcaron.ss05" horiz-adv-x="655" 
d="M670 1276l223 405h41l-227 -405h-37zM477 1358h37l-63 -301h256l-7 -33h-256l-217 -1024h-37l218 1024h-256l4 33h258z" />
    <glyph glyph-name="uni0163.ss05" horiz-adv-x="638" 
d="M707 1057l-7 -33h-256l-217 -1024h2l-116 -141h67q76 0 116 -34t40 -91q0 -83 -68 -127q-67 -43 -184 -43h-78l4 30h74q217 0 217 138q0 94 -129 94h-84l-16 27l121 147h-3l218 1024h-256l4 33h258l63 301h37l-63 -301h256z" />
    <glyph glyph-name="uni021B.ss05" horiz-adv-x="638" 
d="M451 1057h256l-7 -33h-256l-217 -1024h-37l218 1024h-256l4 33h258l63 301h37zM182 -246l-63 -8l16 82h90l-43 -207q-15 -61 -67 -61h-35l6 28h27q19 0 29 10t14 33z" />
    <glyph glyph-name="udieresis.ss01.ss06" horiz-adv-x="1193" 
d="M606 1370q-27 -27 -59 -12q-33 15 -33 49q0 51 53 51q54 0 54 -51q0 -22 -15 -37zM954 1354q-23 0 -38 15t-15 38q0 24 15 39q14 14 38 14q54 0 54 -53q0 -23 -15 -38t-39 -15zM492 -14q-163 0 -252 74q-90 75 -90 214q0 50 12 105l143 678h37l-143 -678
q-13 -55 -13 -103q0 -124 80 -190t228 -66q174 0 288 93q112 91 150 266l143 678h37l-143 -684q-39 -187 -163 -287t-314 -100z" />
    <glyph glyph-name="u.ss06" horiz-adv-x="1193" 
d="M492 -14q-163 0 -252 74q-90 75 -90 214q0 50 12 105l143 678h37l-143 -678q-13 -55 -13 -103q0 -124 80 -190t228 -66q174 0 288 93q112 91 150 266l143 678h37l-143 -684q-39 -187 -163 -287t-314 -100z" />
    <glyph glyph-name="uacute.ss06" horiz-adv-x="1193" 
d="M647 1282h-41l242 307h47zM492 -14q-163 0 -252 74q-90 75 -90 214q0 50 12 105l143 678h37l-143 -678q-13 -55 -13 -103q0 -124 80 -190t228 -66q174 0 288 93q112 91 150 266l143 678h37l-143 -684q-39 -187 -163 -287t-314 -100z" />
    <glyph glyph-name="ubreve.ss06" horiz-adv-x="1193" 
d="M739 1270q-278 0 -278 203q0 27 6 61h31q-4 -47 -4 -59q0 -172 247 -172q280 0 340 231h33q-69 -264 -375 -264zM492 -14q-163 0 -252 74q-90 75 -90 214q0 50 12 105l143 678h37l-143 -678q-13 -55 -13 -103q0 -124 80 -190t228 -66q174 0 288 93q112 91 150 266
l143 678h37l-143 -684q-39 -187 -163 -287t-314 -100z" />
    <glyph glyph-name="ucircumflex.ss06" horiz-adv-x="1193" 
d="M471 1257h-45l354 332h37l215 -332h-39l-196 302zM492 -14q-163 0 -252 74q-90 75 -90 214q0 50 12 105l143 678h37l-143 -678q-13 -55 -13 -103q0 -124 80 -190t228 -66q174 0 288 93q112 91 150 266l143 678h37l-143 -684q-39 -187 -163 -287t-314 -100z" />
    <glyph glyph-name="udieresis.ss06" horiz-adv-x="1193" 
d="M592 1360h-37l20 98h37zM948 1360h-37l21 98h37zM492 -14q-163 0 -252 74q-90 75 -90 214q0 50 12 105l143 678h37l-143 -678q-13 -55 -13 -103q0 -124 80 -190t228 -66q174 0 288 93q112 91 150 266l143 678h37l-143 -684q-39 -187 -163 -287t-314 -100z" />
    <glyph glyph-name="ugrave.ss06" horiz-adv-x="1193" 
d="M756 1282h-37l-182 307h45zM492 -14q-163 0 -252 74q-90 75 -90 214q0 50 12 105l143 678h37l-143 -678q-13 -55 -13 -103q0 -124 80 -190t228 -66q174 0 288 93q112 91 150 266l143 678h37l-143 -684q-39 -187 -163 -287t-314 -100z" />
    <glyph glyph-name="uhungarumlaut.ss06" horiz-adv-x="1193" 
d="M532 1253h-38l225 336h43zM891 1253h-39l260 336h43zM492 -14q-163 0 -252 74q-90 75 -90 214q0 50 12 105l143 678h37l-143 -678q-13 -55 -13 -103q0 -124 80 -190t228 -66q174 0 288 93q112 91 150 266l143 678h37l-143 -684q-39 -187 -163 -287t-314 -100z" />
    <glyph glyph-name="umacron.ss06" horiz-adv-x="1193" 
d="M1044 1358h-585l6 33h586zM492 -14q-163 0 -252 74q-90 75 -90 214q0 50 12 105l143 678h37l-143 -678q-13 -55 -13 -103q0 -124 80 -190t228 -66q174 0 288 93q112 91 150 266l143 678h37l-143 -684q-39 -187 -163 -287t-314 -100z" />
    <glyph glyph-name="uogonek.ss06" horiz-adv-x="1193" 
d="M932 379l143 678h37l-143 -684q-63 -304 -336 -371l-162 -82q-72 -34 -117 -69q-55 -39 -55 -109q0 -52 39 -83q40 -32 106 -32h78l-6 -32h-76q-86 0 -131 38q-47 39 -47 107q0 79 64 125q46 35 55 39l78 41l86 43q-14 -2 -53 -2q-163 0 -252 74q-90 75 -90 214
q0 50 12 105l143 678h37l-143 -678q-13 -55 -13 -103q0 -124 80 -190t228 -66q174 0 288 93q112 91 150 266z" />
    <glyph glyph-name="uring.ss06" horiz-adv-x="1193" 
d="M932 1286q-62 -61 -160 -61q-97 0 -158 61q-63 62 -63 156q0 97 62 159t159 62t159 -62t62 -159q0 -95 -61 -156zM772 1257q81 0 135 51t54 134q0 82 -54 136q-52 52 -135 52q-82 0 -134 -52t-52 -136q0 -79 53 -132t133 -53zM492 -14q-163 0 -252 74q-90 75 -90 214
q0 50 12 105l143 678h37l-143 -678q-13 -55 -13 -103q0 -124 80 -190t228 -66q174 0 288 93q112 91 150 266l143 678h37l-143 -684q-39 -187 -163 -287t-314 -100z" />
    <glyph glyph-name="utilde.ss06" horiz-adv-x="1193" 
d="M395 1292h-35q80 310 254 310q117 0 162 -138q45 -139 150 -139q70 0 120 65q51 66 91 212h34q-80 -310 -251 -310q-67 0 -107 43q-41 43 -57 96q-16 51 -54 95q-37 43 -94 43q-139 0 -213 -277zM492 -14q-163 0 -252 74q-90 75 -90 214q0 50 12 105l143 678h37
l-143 -678q-13 -55 -13 -103q0 -124 80 -190t228 -66q174 0 288 93q112 91 150 266l143 678h37l-143 -684q-39 -187 -163 -287t-314 -100z" />
    <glyph glyph-name="ydieresis.ss01.ss07" horiz-adv-x="1116" 
d="M559 1370q-27 -27 -59 -12q-33 15 -33 49q0 51 53 51t53 -51q0 -23 -14 -37zM907 1354q-23 0 -38 15t-15 38q0 24 15 39q14 14 38 14q54 0 54 -53q0 -23 -15 -38t-39 -15zM422 -8l645 1065h41l-897 -1475h-39l225 369l-227 1106h39l207 -1020q6 -24 6 -45z" />
    <glyph glyph-name="y.ss07" horiz-adv-x="1116" 
d="M422 -8l645 1065h41l-897 -1475h-39l225 369l-225 1106h37l207 -1020q6 -24 6 -45z" />
    <glyph glyph-name="yacute.ss07" horiz-adv-x="1116" 
d="M801 1589h47l-248 -307h-41zM422 -8l645 1065h41l-897 -1475h-39l225 369l-227 1106h39l207 -1020q6 -24 6 -45z" />
    <glyph glyph-name="ycircumflex.ss07" horiz-adv-x="1116" 
d="M946 1257l-196 302l-326 -302h-45l354 332h37l215 -332h-39zM422 -8l645 1065h41l-897 -1475h-39l225 369l-227 1106h39l207 -1020q6 -24 6 -45z" />
    <glyph glyph-name="ydieresis.ss07" horiz-adv-x="1116" 
d="M528 1458h37l-20 -98h-37zM885 1458h37l-21 -98h-37zM422 -8l645 1065h41l-897 -1475h-39l225 369l-227 1106h39l207 -1020q6 -24 6 -45z" />
    <glyph glyph-name="ygrave.ss07" horiz-adv-x="1116" 
d="M535 1589l174 -307h-37l-183 307h46zM422 -8l645 1065h41l-897 -1475h-39l225 369l-227 1106h39l207 -1020q6 -24 6 -45z" />
    <glyph glyph-name="l.ss08" horiz-adv-x="581" 
d="M408 0h-117q-174 0 -174 139q0 35 10 84l264 1235h37l-264 -1235q-10 -49 -10 -78q0 -110 143 -110h117z" />
    <glyph glyph-name="lacute.ss08" horiz-adv-x="581" 
d="M369 1683h-41l241 308h47zM408 0h-117q-174 0 -174 139q0 35 10 84l264 1235h37l-264 -1235q-10 -49 -10 -78q0 -110 143 -110h117z" />
    <glyph glyph-name="lcaron.ss08" horiz-adv-x="641" 
d="M408 0h-117q-174 0 -174 139q0 35 10 84l264 1235h37l-264 -1235q-10 -49 -10 -78q0 -110 143 -110h117zM610 1053h-37l226 405h41z" />
    <glyph glyph-name="uni013C.ss08" horiz-adv-x="581" 
d="M408 0h-117q-174 0 -174 139q0 35 10 84l264 1235h37l-264 -1235q-10 -49 -10 -78q0 -110 143 -110h117zM4 -440h-35l6 28h27q20 0 30 10q8 8 13 33l27 123l-64 -8l17 82h90l-43 -207q-15 -61 -68 -61z" />
    <glyph glyph-name="ldot.ss08" horiz-adv-x="550" 
d="M408 0h-117q-174 0 -174 139q0 35 10 84l264 1235h37l-264 -1235q-10 -49 -10 -78q0 -110 143 -110h117zM522 680h-119l21 96h119z" />
    <glyph glyph-name="lslash.ss08" horiz-adv-x="903" 
d="M866 926l-346 -164l-114 -539q-11 -53 -11 -78q0 -110 144 -110h116l-8 -35h-117q-174 0 -174 139q0 31 11 84l110 518l-342 -163l6 38l344 164l146 678h37l-140 -657l346 162z" />
    <glyph glyph-name="uni013C.ss01.ss08" horiz-adv-x="581" 
d="M154 145q0 -110 143 -110h117l-6 -35h-117q-174 0 -174 139q0 35 10 84l264 1235h37l-264 -1235q-10 -49 -10 -78zM57 -164q47 0 47 -47q0 -15 -8 -47l-24 -123q-16 -59 -84 -59h-21l6 28h13q46 0 57 41l27 121q-11 -4 -25 -4q-39 0 -39 39q0 51 51 51z" />
    <glyph glyph-name="ldot.ss01.ss08" horiz-adv-x="550" 
d="M408 0h-117q-174 0 -174 139q0 35 10 84l264 1235h37l-264 -1235q-10 -49 -10 -78q0 -110 143 -110h117zM516 690q-23 -20 -54 -11q-30 9 -36 35q-6 27 14 50q22 20 53 11q29 -9 37 -35q8 -27 -14 -50z" />
    <glyph glyph-name="fi.ss01" horiz-adv-x="1069" 
d="M1008 1446q24 24 57 11t33 -50q0 -51 -54 -51q-53 0 -53 51q0 22 17 39zM422 1182l-27 -125h324l-8 -33h-322l-4 -20l-215 -1004h-37l215 1004l4 20h-202l6 33h202l27 125q30 149 104 213q73 63 205 63h111l-8 -35h-103q-114 0 -180 -56q-68 -58 -92 -185zM764 0h-37
l225 1057h37z" />
    <glyph glyph-name="fl.ss08" horiz-adv-x="1228" 
d="M422 1182l-27 -125h324l-8 -33h-322l-4 -20l-215 -1004h-37l215 1004l4 20h-202l6 33h202l27 125q30 149 104 213q73 63 205 63h111l-8 -35h-103q-114 0 -180 -56q-68 -58 -92 -185zM801 145q0 -110 143 -110h117l-6 -35h-117q-174 0 -174 139q0 35 10 84l264 1235h37
l-264 -1235q-10 -49 -10 -78z" />
    <glyph glyph-name="ordfeminine.ss02" horiz-adv-x="995" 
d="M924 1257l43 203h32l-147 -698h-33l39 182q-51 -90 -137 -144q-87 -55 -191 -55q-129 0 -209 80q-79 79 -79 219q0 183 116 306q117 125 291 125q115 0 186 -59t89 -159zM532 778q160 0 267 125q106 121 106 287q0 125 -68 189q-70 65 -188 65q-161 0 -266 -117
q-107 -119 -107 -280q0 -127 69 -198t187 -71z" />
    <glyph glyph-name="t.sups.ss05" horiz-adv-x="577" 
d="M504 1458h227l-6 -28h-227l-142 -668h-34l141 668h-225l4 28h227l43 201h35z" />
    <glyph glyph-name="zero.ss09" horiz-adv-x="2709" 
d="M2327 -180h-1860v1818h1860v-1818zM1044 768q0 -455 353 -455q352 0 352 455q0 453 -352 453q-353 0 -353 -453zM1714 768q0 -420 -317 -420q-318 0 -318 420t318 420q317 0 317 -420z" />
    <glyph glyph-name="one.ss09" horiz-adv-x="2709" 
d="M2327 -180h-1860v1818h1860v-1818zM1434 918v-609h34v875h-34v-162q0 -42 -21 -57t-70 -15h-219v-32h310z" />
    <glyph glyph-name="two.ss09" horiz-adv-x="2709" 
d="M467 -180v1818h1860v-1818h-1860zM1079 328h635v32h-596q15 174 268 297l117 54q110 52 159 113q48 60 48 147q0 108 -83 179t-226 71t-226 -74q-84 -74 -85 -219h36q6 260 275 260q129 0 202 -62q72 -62 72 -155q0 -73 -44 -128t-144 -104l-119 -55q-289 -139 -289 -356
z" />
    <glyph glyph-name="three.ss09" horiz-adv-x="2709" 
d="M2327 -180h-1860v1818h1860v-1818zM1407 307q149 0 240 70q90 69 90 184q0 86 -59 150t-152 80v2q75 18 119 72q43 53 43 128q0 102 -81 162q-80 59 -214 59q-140 0 -219 -67q-80 -68 -80 -180h34q1 100 72 158q69 57 193 57q115 0 188 -53q72 -53 72 -138
q0 -81 -61 -134q-59 -52 -169 -52h-65v-33h65q129 0 204 -57t75 -152q0 -104 -79 -164q-78 -59 -216 -59q-141 0 -223 63t-84 170h-35q0 -116 94 -191q95 -75 248 -75z" />
    <glyph glyph-name="four.ss09" horiz-adv-x="2709" 
d="M2327 -180h-1860v1818h1860v-1818zM1550 571v-243h35v243h154v33h-154v598h-35l-530 -600v-31h530zM1550 604h-487l485 549h2v-549z" />
    <glyph glyph-name="five.ss09" horiz-adv-x="2709" 
d="M467 -180v1818h1860v-1818h-1860zM1397 305q154 0 247 81t93 212q0 129 -88 207q-89 78 -240 78q-177 0 -272 -113l-2 2l75 397h471v33h-497l-90 -465l45 -10q90 123 270 123q135 0 214 -69t79 -183q0 -116 -83 -187t-222 -71q-115 0 -194 51q-78 50 -99 133l-35 -8
q24 -96 112 -154q87 -57 216 -57z" />
    <glyph glyph-name="six.ss09" horiz-adv-x="2709" 
d="M2327 -180h-1860v1818h1860v-1818zM1430 322q142 0 229 81q88 82 88 213q0 126 -85 202q-86 77 -230 77q-109 0 -192 -44t-128 -120q0 463 318 463q211 0 256 -186l34 6q-52 213 -293 213q-350 0 -350 -482q0 -423 353 -423zM1430 354q-140 0 -221 82t-93 242
q40 85 121 134q83 50 195 50q128 0 204 -67t76 -181q0 -115 -78 -187q-79 -73 -204 -73z" />
    <glyph glyph-name="seven.ss09" horiz-adv-x="2709" 
d="M2327 -180h-1860v1818h1860v-1818zM1272 328h35q24 490 456 843v31h-651v-33h598q-196 -166 -310 -385q-113 -217 -128 -456z" />
    <glyph glyph-name="eight.ss09" horiz-adv-x="2709" 
d="M2327 -180h-1860v1818h1860v-1818zM1143 387q96 -72 254 -72q155 0 256 72q98 71 98 188q0 88 -58 147q-59 60 -163 81v4q89 18 139 71q49 52 49 126q0 97 -87 157t-234 60q-148 0 -235 -60t-87 -157q0 -74 50 -127t139 -70v-4q-105 -21 -162 -81q-58 -61 -58 -147
q0 -116 99 -188zM1606 866q-77 -49 -209 -49t-209 49q-76 49 -76 135q0 88 77 138q76 49 208 49q133 0 209 -49q75 -49 75 -140q0 -84 -75 -133zM1397 346q-147 0 -232 63q-86 63 -86 166q0 100 83 156q82 55 235 55q149 0 234 -55t85 -156q0 -103 -86 -166t-233 -63z" />
    <glyph glyph-name="nine.ss09" horiz-adv-x="2709" 
d="M2327 -180h-1860v1818h1860v-1818zM1395 307q173 0 261 123q89 124 89 361q0 421 -352 421q-142 0 -230 -82t-88 -210q0 -125 85 -203q86 -78 231 -78q109 0 191 45q84 46 128 121q0 -465 -317 -465q-210 0 -256 188l-35 -8q52 -213 293 -213zM1391 672q-130 0 -205 68
q-76 69 -76 182q0 114 78 186t205 72q139 0 220 -82t93 -242q-40 -85 -121 -134q-83 -50 -194 -50z" />
    </font>
</defs>
</svg>
