<?xml version="1.0" standalone="no"?>
<!DOCTYPE svg PUBLIC "-//W3C//DTD SVG 1.1//EN" "http://www.w3.org/Graphics/SVG/1.1/DTD/svg11.dtd" >
<svg xmlns="http://www.w3.org/2000/svg" xmlns:xlink="http://www.w3.org/1999/xlink" version="1.1">
<metadata>
Created by FontForge 20201107 at Sun Apr 14 21:27:57 2019
 By 
Copyright (c) 2019 Monotype Imaging Inc. All rights reserved.
</metadata>
<defs>
<font id="HelveticaNowText-BoldItalic" horiz-adv-x="0" >
  <font-face 
    font-family="HelveticaNowText Bold"
    font-weight="700"
    font-style="italic"
    font-stretch="normal"
    units-per-em="1000"
    panose-1="2 11 9 4 3 2 2 9 2 4"
    ascent="875"
    descent="-125"
    x-height="516"
    cap-height="712"
    bbox="-368 -350 1623 1109"
    underline-thickness="50"
    underline-position="-250"
    slope="-12"
    unicode-range="U+000D-FEFF"
  />
<missing-glyph horiz-adv-x="886" 
d="M751 0h-574v712h574v-712zM325 580v-448h278v448h-278z" />
    <glyph glyph-name="fi" unicode="fi" horiz-adv-x="597" 
d="M380 516l-22 -104l-97 3l-88 -415h-141l85 395l4 20l-73 -3l22 104l72 -3l7 34q18 86 63.5 125.5t126.5 39.5h83l-24 -113h-38q-60 0 -72 -59l-6 -27zM465 584l28 128h141l-28 -128h-141zM482 0h-141l110 516h141z" />
    <glyph glyph-name="fl" unicode="fl" horiz-adv-x="597" 
d="M380 516l-22 -104l-97 3l-88 -415h-141l85 395l4 20l-73 -3l22 104l72 -3l7 34q18 86 63.5 125.5t126.5 39.5h83l-24 -113h-38q-60 0 -72 -59l-6 -27zM341 0l152 712h141l-152 -712h-141z" />
    <glyph glyph-name=".notdef" horiz-adv-x="886" 
d="M751 0h-574v712h574v-712zM325 580v-448h278v448h-278z" />
    <glyph glyph-name=".null" 
 />
    <glyph glyph-name="nonmarkingreturn" horiz-adv-x="333" 
 />
    <glyph glyph-name="NULL" 
 />
    <glyph glyph-name="NULL" 
 />
    <glyph glyph-name="CR" unicode="&#xd;" horiz-adv-x="250" 
 />
    <glyph glyph-name="space" unicode=" " horiz-adv-x="250" 
 />
    <glyph glyph-name="exclam" unicode="!" horiz-adv-x="312" 
d="M187 234h-71l24 297l39 181h148l-39 -181zM177 0h-152l32 150h152z" />
    <glyph glyph-name="quotedbl" unicode="&#x22;" horiz-adv-x="480" 
d="M225 423h-130l62 291h130zM455 423h-130l62 291h130z" />
    <glyph glyph-name="numbersign" unicode="#" horiz-adv-x="737" 
d="M761 557l-25 -116l-126 3l-58 -165l112 2l-24 -115l-127 3l-59 -169h-116l60 170h-149l-60 -170h-114l59 168l-113 -2l24 115l128 -3l58 166l-114 -3l25 116l128 -3l56 158h114l-56 -159h149l56 159h116l-55 -157zM346 445l-59 -168h149l59 168h-149z" />
    <glyph glyph-name="dollar" unicode="$" horiz-adv-x="683" 
d="M675 490h-141q1 5 1 14q0 41 -37 64.5t-99 23.5q-60 0 -94 -22.5t-34 -61.5q0 -54 66 -70l128 -33q159 -41 159 -172q0 -107 -73.5 -166.5t-208.5 -65.5l-31 -145h-110l32 150q-91 14 -142.5 63t-51.5 125q0 18 3 37h143q-1 -5 -1 -19q0 -45 34 -69t97 -24q155 0 155 90
q0 28 -20.5 44t-70.5 29l-109 30q-70 18 -111 63.5t-41 110.5q0 102 69 160.5t195 64.5l29 136h110l-30 -142q88 -15 136.5 -65t48.5 -127q0 -17 -1 -23z" />
    <glyph glyph-name="percent" unicode="%" horiz-adv-x="1234" 
d="M286 276q-75 0 -117 45t-42 123q0 28 8 71q21 109 72.5 161.5t140.5 52.5q72 0 113 -45.5t41 -123.5q0 -34 -6 -65q-44 -219 -210 -219zM393 -15h-112l602 742h110zM289 358q81 0 109 144q6 30 6 61q0 84 -62 84q-82 0 -110 -144q-7 -32 -7 -63q0 -82 64 -82zM932 -16
q-75 0 -117 45t-42 123q0 28 8 71q21 109 72.5 161.5t140.5 52.5q72 0 113 -45.5t41 -123.5q0 -34 -6 -65q-44 -219 -210 -219zM935 66q81 0 109 144q6 30 6 61q0 84 -62 84q-82 0 -110 -144q-7 -32 -7 -63q0 -82 64 -82z" />
    <glyph glyph-name="ampersand" unicode="&#x26;" horiz-adv-x="731" 
d="M563 383h142q-30 -114 -135 -230l90 -154h-163l-35 61q-99 -75 -208 -75q-96 0 -153 48.5t-57 129.5q0 154 221 243l-3 6q-42 74 -42 136q0 76 62 129q61 52 149 52q80 0 129 -43q50 -44 50 -105q0 -57 -44.5 -111t-125.5 -95l65 -112q35 51 58 120zM419 613
q-28 0 -46.5 -18t-18.5 -44t34 -87q88 43 88 97q0 24 -16 38t-41 14zM280 107q61 0 125 53l-88 155q-122 -56 -122 -132q0 -35 22.5 -55.5t62.5 -20.5z" />
    <glyph glyph-name="quotesingle" unicode="'" horiz-adv-x="250" 
d="M225 423h-130l62 291h130z" />
    <glyph glyph-name="parenleft" unicode="(" horiz-adv-x="359" 
d="M221 -204h-127q-70 161 -70 330q0 74 15 151q56 278 237 470h147q-196 -236 -244 -480q-16 -80 -16 -164q0 -154 58 -307z" />
    <glyph glyph-name="parenright" unicode=")" horiz-adv-x="359" 
d="M89 -204h-147q196 236 244 480q16 80 16 164q0 154 -58 307h127q70 -161 70 -330q0 -75 -15 -151q-56 -278 -237 -470z" />
    <glyph glyph-name="asterisk" unicode="*" horiz-adv-x="537" 
d="M313 441l-109 -123l-78 61l118 109l-128 35l55 100l121 -53l23 142h103l-39 -142l139 53l15 -100l-143 -35l76 -109l-94 -61z" />
    <glyph glyph-name="plus" unicode="+" horiz-adv-x="660" 
d="M415 371h210v-120h-210v-215h-130v215h-210v120h210v214h130v-214z" />
    <glyph glyph-name="comma" unicode="," horiz-adv-x="283" 
d="M-21 -159h-8l14 64h8q83 0 97 74l4 21h-89l32 150h163l-36 -168q-30 -141 -185 -141z" />
    <glyph glyph-name="hyphen" unicode="-" horiz-adv-x="380" 
d="M322 222h-280l26 122h280z" />
    <glyph glyph-name="period" unicode="." horiz-adv-x="285" 
d="M170 0h-165l32 150h165z" />
    <glyph glyph-name="slash" unicode="/" horiz-adv-x="499" 
d="M123 0h-153l448 712h153z" />
    <glyph glyph-name="zero" unicode="0" horiz-adv-x="660" 
d="M295 -16q-112 0 -178 74t-66 201q0 60 13 116q37 178 122 265.5t226 87.5q112 0 176 -72t64 -196q0 -59 -13 -115q-39 -184 -122 -272.5t-222 -88.5zM304 109q71 0 116.5 59.5t72.5 186.5q13 59 13 109q0 139 -105 139q-71 0 -118 -59.5t-73 -184.5q-13 -59 -13 -110
q0 -140 107 -140z" />
    <glyph glyph-name="one" unicode="1" horiz-adv-x="459" 
d="M306 0h-148l103 485h-180l21 99h53q70 0 114 35q35 28 55 84l3 9h131z" />
    <glyph glyph-name="two" unicode="2" horiz-adv-x="660" 
d="M547 0h-535q16 87 65 152.5t142 121.5l157 95q55 34 81 68.5t26 81.5q0 41 -24.5 63.5t-64.5 22.5q-104 0 -129 -123l-4 -20h-143l3 15q24 122 97.5 186.5t190.5 64.5q101 0 168 -56q65 -57 65 -143q0 -80 -48.5 -141.5t-145.5 -118.5l-138 -80q-66 -37 -75 -65h338z" />
    <glyph glyph-name="three" unicode="3" horiz-adv-x="660" 
d="M295 -17q-112 0 -182 59q-70 58 -70 157q0 21 3 43h145q-3 -16 -3 -30q0 -50 29.5 -78.5t82.5 -28.5q66 0 103.5 34.5t37.5 91.5q0 85 -107 85h-52l23 110h46q56 0 90.5 28.5t34.5 78.5q0 35 -23 55t-64 20q-109 0 -135 -116h-140q48 236 291 236q107 0 166 -49
q60 -49 60 -123q0 -63 -37 -109t-103 -67v-2q49 -15 79 -55t30 -94q0 -112 -85 -179t-220 -67z" />
    <glyph glyph-name="four" unicode="4" horiz-adv-x="660" 
d="M611 712l-94 -443h107l-26 -119h-107l-32 -150h-145l32 150h-329l33 153l395 409h166zM176 269h196l56 260h-3z" />
    <glyph glyph-name="five" unicode="5" horiz-adv-x="660" 
d="M284 -16q-110 0 -178 57q-69 55 -69 148l147 12q3 -43 32.5 -67t78.5 -24q68 0 115 41q46 40 46 102q0 46 -30 74.5t-83 28.5q-64 0 -123 -43l-127 28l129 371h434l-27 -130h-313l-49 -139l2 -1q61 39 135 39q84 0 142 -60q57 -60 57 -152q0 -131 -88 -207
q-89 -78 -231 -78z" />
    <glyph glyph-name="six" unicode="6" horiz-adv-x="660" 
d="M405 486q92 0 151 -60q59 -62 59 -154q0 -125 -85 -207t-214 -82q-123 0 -192 77q-69 76 -69 207q0 41 8 94q64 367 358 367q103 0 163.5 -53.5t65.5 -143.5h-140q-2 36 -29 57.5t-70 21.5q-149 0 -198 -214q83 90 192 90zM320 107q66 0 107 48q40 47 40 110
q0 49 -26.5 76.5t-75.5 27.5q-58 0 -102 -36t-57 -93q-3 -14 -3 -25q0 -48 32.5 -78t84.5 -30z" />
    <glyph glyph-name="seven" unicode="7" horiz-adv-x="660" 
d="M285 0h-169q71 303 362 579h-344l29 133h528l-26 -123q-168 -161 -251 -290q-82 -129 -129 -299z" />
    <glyph glyph-name="eight" unicode="8" horiz-adv-x="660" 
d="M304 -16q-123 0 -199 59q-75 59 -75 150q0 75 47.5 126.5t132.5 76.5l1 4q-35 21 -55.5 55.5t-20.5 74.5q0 96 75 147q74 51 195 51q108 0 174 -48q65 -48 65 -123q0 -62 -40 -108q-40 -48 -96 -66l-1 -4q102 -45 102 -154q0 -111 -84 -175q-85 -66 -221 -66zM372 432
q60 0 96 29t36 77q0 35 -28.5 55.5t-78.5 20.5q-60 0 -94.5 -27.5t-34.5 -75.5q0 -37 27.5 -58t76.5 -21zM313 99q68 0 109 37t41 97q0 44 -33 68t-93 24q-74 0 -117.5 -34t-43.5 -93q0 -44 38 -71.5t99 -27.5z" />
    <glyph glyph-name="nine" unicode="9" horiz-adv-x="660" 
d="M384 721q123 0 192 -77q69 -76 69 -207q0 -41 -8 -94q-64 -367 -358 -367q-103 0 -163.5 53.5t-65.5 143.5h140q2 -36 29 -57.5t70 -21.5q149 0 198 214q-83 -90 -192 -90q-93 0 -151 61q-59 61 -59 153q0 125 85 207t214 82zM335 335q58 0 102 36t57 93q3 13 3 25
q0 48 -32.5 78t-84.5 30q-66 0 -107 -48q-40 -47 -40 -110q0 -49 26.5 -76.5t75.5 -27.5z" />
    <glyph glyph-name="colon" unicode=":" horiz-adv-x="285" 
d="M245 351h-165l32 150h165zM170 0h-165l32 150h165z" />
    <glyph glyph-name="semicolon" unicode=";" horiz-adv-x="285" 
d="M245 351h-165l32 150h165zM-21 -159h-8l14 64h8q83 0 97 74l4 21h-89l32 150h163l-36 -168q-30 -141 -185 -141z" />
    <glyph glyph-name="less" unicode="&#x3c;" horiz-adv-x="660" 
d="M72 368l557 192v-140l-385 -117l385 -116v-140l-557 191v130z" />
    <glyph glyph-name="equal" unicode="=" horiz-adv-x="660" 
d="M620 369h-540v120h540v-120zM620 130h-540v120h540v-120z" />
    <glyph glyph-name="greater" unicode="&#x3e;" horiz-adv-x="660" 
d="M72 420v140l557 -192v-130l-557 -191v140l385 116z" />
    <glyph glyph-name="question" unicode="?" horiz-adv-x="589" 
d="M359 234h-134l6 27q12 54 40 88t89 66q55 28 77.5 51.5t22.5 57.5q0 39 -28.5 59t-77.5 20q-100 0 -128 -103h-147q59 228 290 228q109 0 176 -50q66 -50 66 -132q0 -113 -124 -183l-54 -31q-36 -21 -50.5 -38.5t-20.5 -45.5zM319 0h-152l32 150h152z" />
    <glyph glyph-name="at" unicode="@" horiz-adv-x="1109" 
d="M623 729q139 2 244 -52.5t152 -154.5t19 -223q-24 -110 -93 -181q-70 -70 -170 -70q-93 0 -128 60q-66 -60 -155 -60q-86 0 -134 66q-48 64 -25 174q21 102 87 160q64 58 143 58q85 0 132 -71l25 54h99l-58 -263q-18 -86 42 -86q45 0 80.5 45t50.5 118q32 150 -52 240
q-86 89 -259 89q-172 0 -283 -90q-112 -92 -143 -244q-37 -175 54 -274t264 -99q108 0 217 38l-20 -102q-101 -32 -205 -32q-226 0 -343 137t-71 353q39 186 183 298q142 112 347 112zM529 148q83 0 115 87l15 66q3 49 -19.5 77t-67.5 28q-96 0 -121 -124q-14 -65 7.5 -99.5
t70.5 -34.5z" />
    <glyph glyph-name="A" unicode="A" horiz-adv-x="719" 
d="M639 0h-153l-17 148h-258l-79 -148h-162l400 712h174zM324 358l-47 -88h179l-10 88l-18 205z" />
    <glyph glyph-name="B" unicode="B" horiz-adv-x="702" 
d="M530 381q52 -17 78.5 -56.5t26.5 -92.5q0 -106 -77 -169q-78 -63 -201 -63h-332l152 712h320q87 0 135.5 -41t48.5 -111q0 -69 -39.5 -115.5t-111.5 -63.5zM451 592h-152l-33 -155h150q53 0 83.5 26.5t30.5 67.5q0 61 -79 61zM200 125h158q62 0 97 31.5t35 85.5
q0 35 -24 55t-68 20h-157z" />
    <glyph glyph-name="C" unicode="C" horiz-adv-x="693" 
d="M331 -23q-131 0 -207 81q-76 79 -76 214q0 48 12 103q34 165 140 260q104 93 250 93q101 0 175 -49q87 -57 87 -203h-139q0 57 -35.5 90.5t-98.5 33.5q-89 0 -149 -62.5t-84 -172.5q-10 -43 -10 -86q0 -83 37.5 -128.5t108.5 -45.5q65 0 111.5 35t68.5 93h141
q-31 -119 -121 -188q-89 -68 -211 -68z" />
    <glyph glyph-name="D" unicode="D" horiz-adv-x="713" 
d="M177 712h246q140 0 213 -69.5t73 -197.5q0 -43 -11 -104q-66 -341 -382 -341h-291zM550 356q10 47 10 92q0 75 -39.5 109.5t-127.5 34.5h-94l-99 -467h114q102 0 157 54t79 177z" />
    <glyph glyph-name="E" unicode="E" horiz-adv-x="648" 
d="M695 712l-27 -125h-370l-33 -154h333l-27 -127h-333l-38 -181h380l-27 -125h-528l152 712h518z" />
    <glyph glyph-name="F" unicode="F" horiz-adv-x="589" 
d="M680 712l-28 -132h-355l-33 -153h310l-28 -132h-310l-63 -295h-148l152 712h503z" />
    <glyph glyph-name="G" unicode="G" horiz-adv-x="757" 
d="M407 385h297l-82 -385h-96l-6 73q-75 -89 -209 -89q-117 0 -190 78q-73 77 -73 209q0 48 10 95q34 168 146 266q110 96 252 96q123 0 194 -64t71 -177l-146 -9q0 58 -32.5 90t-94.5 32q-92 0 -156 -67t-87 -174q-9 -42 -9 -85q0 -81 37.5 -125t109.5 -44q70 0 125 41
t82 115h-169z" />
    <glyph glyph-name="H" unicode="H" horiz-adv-x="734" 
d="M544 437l59 275h148l-152 -712h-148l65 305h-278l-65 -305h-148l152 712h148l-59 -275h278z" />
    <glyph glyph-name="I" unicode="I" horiz-adv-x="308" 
d="M173 0h-148l152 712h148z" />
    <glyph glyph-name="J" unicode="J" horiz-adv-x="590" 
d="M243 -16q-97 0 -153.5 45t-56.5 123q0 27 20 115h140q-18 -72 -18 -98q0 -57 75 -57q43 0 67 21.5t34 68.5l108 510h148l-108 -508q-46 -220 -256 -220z" />
    <glyph glyph-name="K" unicode="K" horiz-adv-x="707" 
d="M567 712h199l-336 -295l217 -417h-173l-164 327l-81 -65l-56 -262h-148l152 712h148l-58 -273z" />
    <glyph glyph-name="L" unicode="L" horiz-adv-x="590" 
d="M325 712l-124 -580h347l-28 -132h-495l152 712h148z" />
    <glyph glyph-name="M" unicode="M" horiz-adv-x="860" 
d="M463 294l198 418h216l-152 -712h-138l57 267l91 348l-95 -215l-189 -400h-151l-19 402l-5 214l-57 -349l-57 -267h-137l152 712h203l22 -413l-2 -147z" />
    <glyph glyph-name="N" unicode="N" horiz-adv-x="735" 
d="M505 249l99 463h148l-152 -712h-135l-194 464l-98 -464h-148l152 712h135z" />
    <glyph glyph-name="O" unicode="O" horiz-adv-x="746" 
d="M336 -23q-130 0 -208 80q-79 79 -79 214q0 52 10 99q33 165 143 263q110 96 256 96q126 0 204 -78q77 -79 77 -211q0 -49 -10 -96q-36 -178 -139.5 -272.5t-253.5 -94.5zM348 105q86 0 149 69t87 183q7 32 7 69q0 82 -39.5 128.5t-110.5 46.5q-88 0 -152 -67
q-66 -69 -85 -177q-8 -48 -8 -79q0 -82 39 -127.5t113 -45.5z" />
    <glyph glyph-name="P" unicode="P" horiz-adv-x="626" 
d="M177 712h268q99 0 156.5 -52t57.5 -139q0 -129 -82 -201q-83 -72 -224 -72h-127l-53 -248h-148zM253 373h104q72 0 114 35t42 97q0 40 -25 61t-71 21h-119z" />
    <glyph glyph-name="Q" unicode="Q" horiz-adv-x="746" 
d="M739 440q0 -49 -10 -96q-35 -163 -124 -257l57 -58l-100 -88l-53 75q-76 -39 -173 -39q-130 0 -208 80q-79 79 -79 214q0 52 10 99q33 165 143 263q110 96 256 96q126 0 204 -78q77 -79 77 -211zM196 278q0 -82 39 -127.5t113 -45.5q39 0 75 15l-63 64l100 88l54 -78
q50 67 70 163q7 32 7 69q0 82 -39.5 128.5t-110.5 46.5q-88 0 -152 -67q-66 -69 -85 -177q-8 -48 -8 -79z" />
    <glyph glyph-name="R" unicode="R" horiz-adv-x="692" 
d="M692 544q0 -83 -45.5 -135.5t-130.5 -69.5q77 -26 77 -121q0 -3 -2 -39l-14 -179h-145l15 163q2 34 2 37q0 42 -21.5 59t-68.5 17h-127l-59 -276h-148l152 712h308q104 0 155.5 -45.5t51.5 -122.5zM258 396h138q66 0 105.5 33.5t39.5 89.5q0 69 -95 69h-147z" />
    <glyph glyph-name="S" unicode="S" horiz-adv-x="681" 
d="M306 -23q-124 0 -196.5 54t-72.5 151q0 18 3 39h143q-1 -5 -1 -20q0 -50 34 -76.5t97 -26.5q72 0 111.5 25.5t39.5 73.5q0 30 -20 45.5t-71 31.5l-105 32q-71 22 -111.5 69t-40.5 115q0 114 77 176t216 62q121 0 191.5 -56t70.5 -154q0 -19 -1 -24h-142q1 5 1 15
q0 47 -34 72.5t-94 25.5q-62 0 -97 -25.5t-35 -68.5q0 -53 66 -72l124 -35q160 -45 160 -183q0 -119 -82 -182.5t-231 -63.5z" />
    <glyph glyph-name="T" unicode="T" horiz-adv-x="616" 
d="M117 712h575l-28 -132h-213l-124 -580h-148l124 580h-214z" />
    <glyph glyph-name="U" unicode="U" horiz-adv-x="713" 
d="M317 -23q-117 0 -183 51t-66 143q0 26 6 58l103 483h148l-105 -495q-4 -15 -4 -33q0 -79 109 -79q128 0 152 112l105 495h148l-105 -493q-53 -242 -308 -242z" />
    <glyph glyph-name="V" unicode="V" horiz-adv-x="673" 
d="M420 402l161 310h164l-387 -712h-146l-90 712h150l30 -309l11 -235z" />
    <glyph glyph-name="W" unicode="W" horiz-adv-x="971" 
d="M716 356l170 356h157l-355 -712h-142l-13 486l-206 -486h-144l-61 712h147l21 -356l4 -143l57 143l156 356h141l9 -356l-4 -142z" />
    <glyph glyph-name="X" unicode="X" horiz-adv-x="682" 
d="M567 712h171l-288 -342l152 -370h-158l-71 209l-15 68l-45 -69l-162 -208h-181l320 382l-139 330h155l58 -164l18 -80l51 78z" />
    <glyph glyph-name="Y" unicode="Y" horiz-adv-x="656" 
d="M565 712h170l-329 -436l-59 -276h-148l59 277l-143 435h152l61 -221l19 -99l61 99z" />
    <glyph glyph-name="Z" unicode="Z" horiz-adv-x="702" 
d="M179 712h564l-25 -115l-492 -471h392l-27 -126h-590l26 115l492 471h-367z" />
    <glyph glyph-name="bracketleft" unicode="[" horiz-adv-x="384" 
d="M246 -204h-264l202 951h264l-23 -110h-128l-156 -731h128z" />
    <glyph glyph-name="backslash" unicode="\" horiz-adv-x="499" 
d="M411 0h-137l-144 712h137z" />
    <glyph glyph-name="bracketright" unicode="]" horiz-adv-x="386" 
d="M208 -204h-266l23 110h130l156 731h-128l23 110h264z" />
    <glyph glyph-name="asciicircum" unicode="^" horiz-adv-x="660" 
d="M278 712h144l170 -516h-142l-47 155q-25 84 -51 204q-16 -70 -52 -204l-43 -155h-149z" />
    <glyph glyph-name="underscore" unicode="_" horiz-adv-x="500" 
d="M412 -154h-500l17 79h500z" />
    <glyph glyph-name="grave" unicode="`" horiz-adv-x="500" 
d="M422 571h-84l-96 141h162z" />
    <glyph glyph-name="a" unicode="a" horiz-adv-x="557" 
d="M328 528q94 0 143.5 -35.5t49.5 -103.5q0 -24 -7 -53l-49 -228q-9 -40 -9 -69q0 -23 6 -39h-131v58q-64 -73 -168 -73q-74 0 -118.5 37t-44.5 98q0 145 193 178l184 32l4 22q3 16 3 25q0 51 -74 51q-44 0 -68 -15.5t-37 -52.5l-128 4q22 85 83 124.5t168 39.5zM217 89
q43 0 79 25.5t51 69.5l12 58l-136 -26q-80 -15 -80 -74q0 -53 74 -53z" />
    <glyph glyph-name="b" unicode="b" horiz-adv-x="593" 
d="M393 529q78 0 125.5 -56t47.5 -149q0 -39 -8 -79q-26 -124 -94.5 -192.5t-164.5 -68.5q-49 0 -88 23.5t-59 67.5l-21 -75h-126l152 712h141l-52 -243q57 60 147 60zM425 257q4 19 4 44q0 51 -23.5 79.5t-66.5 28.5q-52 0 -91.5 -40.5t-52.5 -109.5q-4 -19 -4 -45
q0 -51 25 -80t68 -29q52 0 90 40.5t51 111.5z" />
    <glyph glyph-name="c" unicode="c" horiz-adv-x="548" 
d="M242 -17q-101 0 -158 56.5t-57 154.5q0 40 7 72q23 123 100 193t189 70q103 0 156.5 -51t53.5 -142h-137q-5 83 -84 83q-52 0 -91 -43.5t-53 -119.5q-6 -32 -6 -58q0 -105 85 -105q75 0 115 85h140q-32 -93 -99.5 -144t-160.5 -51z" />
    <glyph glyph-name="d" unicode="d" horiz-adv-x="593" 
d="M433 450l56 262h141l-152 -712h-125l8 60q-61 -76 -157 -76q-80 0 -128.5 56t-48.5 152q0 39 9 84q22 116 92 185q70 68 163 68q96 0 142 -79zM254 104q51 0 91 43t53 112q4 17 4 43q0 51 -25 79.5t-68 28.5q-52 0 -90 -40t-51 -111q-4 -20 -4 -47q0 -49 24 -78.5
t66 -29.5z" />
    <glyph glyph-name="e" unicode="e" horiz-adv-x="583" 
d="M542 216h-377q-1 -5 -1 -20q0 -48 26.5 -75.5t73.5 -27.5q72 0 112 66l138 -10q-79 -166 -257 -166q-108 0 -168 63t-60 161q0 38 8 73q26 116 104 182.5t190 66.5q103 0 163.5 -57t60.5 -158q0 -49 -13 -98zM322 426q-48 0 -85 -30t-54 -84h233q1 4 1 18
q0 45 -25.5 70.5t-69.5 25.5z" />
    <glyph glyph-name="f" unicode="f" horiz-adv-x="336" 
d="M398 599h-38q-60 0 -72 -59l-6 -27l98 3l-22 -104l-97 3l-88 -415h-141l85 395l4 20l-73 -3l22 104l72 -3l7 34q18 86 63.5 125.5t126.5 39.5h83z" />
    <glyph glyph-name="g" unicode="g" horiz-adv-x="593" 
d="M443 446l20 70h125l-111 -522q-24 -108 -87.5 -159t-182.5 -51q-220 0 -220 174h130q0 -69 96 -69q56 0 83.5 24t39.5 79l15 71q-63 -63 -146 -63q-79 0 -127.5 55t-48.5 147q-3 130 74 229t194 98q102 0 146 -83zM254 120q67 0 111 59q42 59 42 134q0 48 -24.5 75.5
t-66.5 27.5q-68 0 -108 -60q-42 -60 -42 -140q0 -45 23 -70.5t65 -25.5z" />
    <glyph glyph-name="h" unicode="h" horiz-adv-x="578" 
d="M395 529q68 0 106.5 -38.5t38.5 -105.5q0 -25 -6 -52l-71 -333h-141l65 307q5 25 5 38q0 57 -60 57q-45 0 -79.5 -34t-47.5 -92l-59 -276h-141l152 712h141l-56 -264q63 81 153 81z" />
    <glyph glyph-name="i" unicode="i" horiz-adv-x="261" 
d="M270 584h-141l28 128h141zM146 0h-141l110 516h141z" />
    <glyph glyph-name="j" unicode="j" horiz-adv-x="261" 
d="M270 584h-141l27 128h141zM-33 -204h-92l26 124h36q29 0 42 9t18 32l118 555h141l-122 -574q-17 -81 -53.5 -113.5t-113.5 -32.5z" />
    <glyph glyph-name="k" unicode="k" horiz-adv-x="572" 
d="M426 516h182l-251 -213l145 -303h-155l-101 224l-64 -54l-36 -170h-141l152 712h141l-82 -382z" />
    <glyph glyph-name="l" unicode="l" horiz-adv-x="261" 
d="M146 0h-141l152 712h141z" />
    <glyph glyph-name="m" unicode="m" horiz-adv-x="865" 
d="M687 529q63 0 101 -39t38 -103q0 -26 -5 -49l-71 -338h-141l67 317q3 15 3 28q0 57 -54 57q-40 0 -72 -32t-45 -86l-60 -284h-141l67 317q3 15 3 28q0 57 -54 57q-39 0 -70.5 -31.5t-45.5 -84.5l-60 -286h-141l109 516h138l-11 -62q58 75 145 75q51 0 87 -26.5t47 -72.5
q61 99 166 99z" />
    <glyph glyph-name="n" unicode="n" horiz-adv-x="578" 
d="M395 529q68 0 106.5 -38.5t38.5 -105.5q0 -25 -6 -52l-71 -333h-141l65 307q5 25 5 38q0 57 -60 57q-43 0 -77 -31.5t-48 -85.5l-60 -285h-141l109 516h138l-12 -69q63 82 154 82z" />
    <glyph glyph-name="o" unicode="o" horiz-adv-x="592" 
d="M256 -17q-103 0 -165 62q-63 61 -63 161q0 28 6 60q23 118 104 190q80 73 201 73q103 0 164 -61q60 -62 60 -159q0 -30 -6 -63q-24 -123 -103 -193t-198 -70zM264 93q61 0 104.5 44.5t54.5 118.5q3 22 3 42q0 57 -26 89t-74 32q-59 0 -101.5 -44t-56.5 -119
q-5 -32 -5 -48q0 -54 26.5 -84.5t74.5 -30.5z" />
    <glyph glyph-name="p" unicode="p" horiz-adv-x="594" 
d="M389 529q81 0 129 -55t48 -150q0 -133 -74 -237q-73 -103 -190 -103q-98 0 -143 79l-56 -267h-141l153 720h125l-8 -61q62 74 157 74zM284 105q64 0 105 60q40 58 40 139q0 49 -23.5 77t-66.5 28q-65 0 -106 -60q-42 -60 -42 -135q0 -51 25 -80t68 -29z" />
    <glyph glyph-name="q" unicode="q" horiz-adv-x="594" 
d="M440 438l23 78h125l-151 -712h-141l51 239q-59 -59 -142 -59q-80 0 -128.5 56t-48.5 152q-3 132 73 235t191 102q105 0 148 -91zM255 104q65 0 107 62q41 62 41 136q0 51 -25 79.5t-68 28.5q-67 0 -106 -59q-39 -60 -39 -139q0 -49 24 -78.5t66 -29.5z" />
    <glyph glyph-name="r" unicode="r" horiz-adv-x="399" 
d="M370 534q28 0 46 -7l-27 -130q-15 3 -30 3q-127 0 -159 -149l-53 -251h-141l109 516h134l-11 -65q53 83 132 83z" />
    <glyph glyph-name="s" unicode="s" horiz-adv-x="540" 
d="M233 -19q-103 0 -158 45.5t-55 127.5l128 5q0 -80 97 -80q48 0 74 15.5t26 43.5q0 20 -13 31t-45 19l-85 21q-62 16 -95.5 52t-33.5 87q0 86 62.5 133.5t167.5 47.5q93 0 146 -44.5t53 -120.5l-124 -4q0 34 -22.5 52.5t-62.5 18.5q-39 0 -62 -16t-23 -45q0 -38 53 -49
l81 -18q138 -31 138 -140q0 -90 -65 -136t-182 -46z" />
    <glyph glyph-name="t" unicode="t" horiz-adv-x="352" 
d="M260 415l-9 -44l-43 -200q-4 -17 -4 -27q0 -31 40 -31h47l-24 -113h-82q-129 0 -129 104q0 16 5 41l49 229l9 41l-71 -3l22 104l70 -3l10 47l24 115h141l-24 -114l-10 -48l96 3l-22 -104z" />
    <glyph glyph-name="u" unicode="u" horiz-adv-x="578" 
d="M371 231l60 285h141l-109 -516h-138l12 69q-63 -82 -154 -82q-68 0 -106.5 38.5t-38.5 105.5q0 25 6 52l71 333h141l-65 -307q-5 -25 -5 -38q0 -57 60 -57q43 0 77 31.5t48 85.5z" />
    <glyph glyph-name="v" unicode="v" horiz-adv-x="509" 
d="M316 361l81 155h147l-280 -516h-144l-60 516h143l12 -155l7 -224z" />
    <glyph glyph-name="w" unicode="w" horiz-adv-x="772" 
d="M547 287l106 229h154l-263 -516h-137l-13 287l-2 58l-23 -58l-131 -287h-135l-43 516h136l14 -229l3 -113l45 113l107 229h125l10 -227l3 -115z" />
    <glyph glyph-name="x" unicode="x" horiz-adv-x="548" 
d="M411 516h161l-221 -247l127 -269h-150l-64 169l-133 -169h-171l252 274l-117 242h148l56 -145z" />
    <glyph glyph-name="y" unicode="y" horiz-adv-x="551" 
d="M246 155l184 361h156l-326 -600q-37 -66 -77.5 -93t-103.5 -27h-118l26 120h68q58 0 82 44l10 18l-87 538h143l39 -290z" />
    <glyph glyph-name="z" unicode="z" horiz-adv-x="490" 
d="M107 516h403l-25 -115l-325 -290h274l-24 -111h-445l24 113l332 292h-238z" />
    <glyph glyph-name="braceleft" unicode="{" horiz-adv-x="423" 
d="M284 -204h-123q-49 0 -75.5 25t-26.5 70q0 22 4 39l39 181q9 43 9 53q0 57 -78 60l22 100q92 3 110 88l43 201q13 59 57 96.5t99 37.5h123l-24 -110h-60q-54 0 -67 -61l-38 -181q-22 -108 -129 -119v-3q82 -10 82 -83q0 -20 -10 -66l-34 -157q-3 -12 -3 -21q0 -40 45 -40
h59z" />
    <glyph glyph-name="bar" unicode="|" horiz-adv-x="503" 
d="M325 -204h-141v951h141v-951z" />
    <glyph glyph-name="braceright" unicode="}" horiz-adv-x="425" 
d="M67 -204h-125l24 110h62q54 0 67 61l38 181q22 108 129 119v3q-82 10 -82 83q0 20 10 66l34 157q3 12 3 21q0 40 -45 40h-59l24 110h123q49 0 75.5 -25t26.5 -70q0 -22 -4 -39l-39 -181q-9 -44 -9 -53q0 -57 78 -60l-22 -100q-92 -3 -110 -88l-43 -201q-13 -59 -57 -96.5
t-99 -37.5z" />
    <glyph glyph-name="asciitilde" unicode="~" horiz-adv-x="660" 
d="M207 236h-120q0 196 150 196q55 0 119 -30q63 -31 91 -31q25 0 35.5 14.5t10.5 46.5h120q0 -196 -150 -196q-55 0 -117 31q-64 30 -93 30q-25 0 -35.5 -13.5t-10.5 -47.5z" />
    <glyph glyph-name="uni00A0" unicode="&#xa0;" horiz-adv-x="250" 
 />
    <glyph glyph-name="exclamdown" unicode="&#xa1;" horiz-adv-x="312" 
d="M255 366h-152l32 150h152zM131 -204h-148l40 184l103 302h71l-26 -302z" />
    <glyph glyph-name="cent" unicode="&#xa2;" horiz-adv-x="548" 
d="M247 93q75 0 115 85h140q-29 -83 -86.5 -133t-136.5 -60l-27 -129h-110l28 136q-69 18 -106 71t-37 131q0 40 7 72q21 113 87 181t163 80l30 139h110l-31 -144q68 -16 104 -64t36 -122h-137q-5 83 -84 83q-52 0 -91 -43.5t-53 -119.5q-6 -32 -6 -58q0 -105 85 -105z" />
    <glyph glyph-name="sterling" unicode="&#xa3;" horiz-adv-x="660" 
d="M651 504h-142q1 4 1 18q0 39 -30.5 62t-80.5 23q-51 0 -81 -23t-30 -64q0 -64 99 -136l208 6l-27 -125l-123 6q2 -18 2 -21q0 -34 -24.5 -67.5t-66.5 -57.5h233l-26 -125h-580l26 125h59q113 0 169 37q56 38 56 82q0 15 -7 28l-247 -7l27 125l145 -6q-76 58 -76 140
q0 92 75 148q76 56 195 56q114 0 183 -51q68 -51 68 -130q0 -15 -5 -43z" />
    <glyph glyph-name="currency" unicode="&#xa4;" horiz-adv-x="660" 
d="M673 589l-99 -95q35 -62 35 -135t-35 -135l99 -95l-93 -93l-96 100q-59 -33 -134 -33t-134 33l-96 -100l-93 93l99 95q-35 62 -35 135t35 135l-99 95l93 93l96 -100q59 33 134 33t134 -33l96 100zM250 255q38 -39 100 -39q64 0 101 39q37 38 37 104t-37 104
q-38 39 -101 39q-62 0 -100 -39q-38 -40 -38 -104t38 -104z" />
    <glyph glyph-name="yen" unicode="&#xa5;" horiz-adv-x="660" 
d="M574 712h163l-251 -332h132l-23 -110h-191l-16 -77h190l-23 -110h-190l-18 -83h-148l18 83h-189l23 110h189l16 77h-188l23 110h135l-109 332h159l59 -227l17 -92l64 104z" />
    <glyph glyph-name="brokenbar" unicode="&#xa6;" horiz-adv-x="503" 
d="M325 411h-141v336h141v-336zM325 -204h-141v336h141v-336z" />
    <glyph glyph-name="section" unicode="&#xa7;" horiz-adv-x="608" 
d="M333 514l101 -25q148 -36 148 -169q0 -116 -132 -174q36 -39 36 -97q0 -81 -65 -131t-167 -50q-98 0 -154.5 43t-56.5 120h127q0 -30 24.5 -47t64.5 -17q42 0 70 18.5t28 50.5q0 44 -62 59l-101 25q-148 36 -148 169q0 115 132 174q-36 39 -36 97q0 81 65 131t167 50
q98 0 154.5 -43t56.5 -120h-127q0 30 -24.5 47t-64.5 17q-42 0 -70 -18.5t-28 -50.5q0 -42 62 -59zM329 211l13 -3q113 29 113 100q0 53 -77 71l-79 19l-13 3q-113 -29 -113 -100q0 -53 77 -71z" />
    <glyph glyph-name="dieresis" unicode="&#xa8;" horiz-adv-x="500" 
d="M284 584h-141l28 128h141zM495 584h-141l28 128h141z" />
    <glyph glyph-name="copyright" unicode="&#xa9;" horiz-adv-x="841" 
d="M711 90q-106 -106 -270 -106q-163 0 -269 106q-107 105 -107 266q0 163 106 268q107 105 270 105t270 -105q106 -105 106 -268q0 -161 -106 -266zM441 75q123 0 201 80t78 202q0 124 -78 203q-79 79 -201 79t-200 -79q-79 -79 -79 -203q0 -123 79 -202q78 -80 200 -80z
M444 166q-81 0 -127 50.5t-46 140.5q0 92 45.5 141.5t127.5 49.5q60 0 101.5 -28.5t57.5 -82.5l-91 -20q-16 45 -66 45q-75 0 -75 -105q0 -104 75 -104q51 0 67 46l90 -20q-35 -113 -159 -113z" />
    <glyph glyph-name="ordfeminine" unicode="&#xaa;" horiz-adv-x="504" 
d="M346 725q170 0 170 -101q0 -18 -8 -60l-40 -192h-108l-1 36q-47 -44 -126 -44q-60 0 -93.5 25t-33.5 72q0 49 38.5 78.5t108.5 34.5l143 11q4 17 4 28q0 38 -64 38q-58 0 -75 -36l-112 17q33 93 197 93zM278 439q36 0 63.5 17.5t37.5 49.5l5 21l-101 -8q-56 -5 -56 -43
q0 -37 51 -37z" />
    <glyph glyph-name="guillemotleft" unicode="&#xab;" horiz-adv-x="707" 
d="M307 147l-33 -157l-227 208l25 118l315 208l-37 -173l-162 -102zM623 147l-33 -157l-227 208l25 118l315 208l-37 -173l-162 -102z" />
    <glyph glyph-name="logicalnot" unicode="&#xac;" horiz-adv-x="660" 
d="M620 117h-130v187h-410v120h540v-307z" />
    <glyph glyph-name="uni00AD" unicode="&#xad;" horiz-adv-x="380" 
d="M322 222h-280l26 122h280z" />
    <glyph glyph-name="registered" unicode="&#xae;" horiz-adv-x="620" 
d="M163 652q78 75 191 75t191 -75q78 -76 78 -186q0 -109 -78 -184q-77 -76 -191 -76t-191 76q-78 75 -78 184q0 110 78 186zM210 324q58 -57 144 -57t145 57q58 57 58 142q0 86 -58 143q-59 57 -145 57t-145 -57q-58 -57 -58 -143q0 -85 59 -142zM467 402l2 -34
q1 -22 10 -29h-81q-6 11 -7 29l-2 28q-1 17 -7.5 23t-22.5 6h-33v-86h-78v258h127q46 0 71.5 -20.5t25.5 -57.5q0 -38 -35 -58q28 -15 30 -59zM326 534v-50h38q27 0 27 25t-27 25h-38z" />
    <glyph glyph-name="overscore" unicode="&#xaf;" horiz-adv-x="500" 
d="M505 606h-363l23 105h363z" />
    <glyph glyph-name="degree" unicode="&#xb0;" horiz-adv-x="445" 
d="M287 379q-79 0 -132 53t-53 133t53 133q52 52 132 52q82 0 134 -52t52 -133t-52 -133q-53 -53 -134 -53zM287 473q40 0 65 26t25 66t-25 65.5t-65 25.5q-39 0 -64 -25.5t-25 -65.5t25 -66t64 -26z" />
    <glyph glyph-name="plusminus" unicode="&#xb1;" horiz-adv-x="660" 
d="M415 625v-164h205v-120h-205v-165h-130v165h-205v120h205v164h130zM620 -23h-540v120h540v-120z" />
    <glyph glyph-name="two.sups" unicode="&#xb2;" horiz-adv-x="433" 
d="M406 372h-330q15 78 45 122t82 68l109 51q60 29 60 67q0 44 -60 44q-64 0 -75 -60h-101q13 70 62.5 107t127.5 37q69 0 108.5 -31t39.5 -84q0 -86 -111 -140l-112 -54q-32 -16 -40 -39h214z" />
    <glyph glyph-name="three.sups" unicode="&#xb3;" horiz-adv-x="446" 
d="M264 356q-75 0 -117 35.5t-48 100.5l96 11q5 -63 71 -63q37 0 59 17t22 44q0 45 -68 45h-24l18 83h27q35 0 55.5 14t20.5 37q0 44 -63 44q-68 0 -81 -52l-94 17q16 56 63 87.5t120 31.5q70 0 113 -29.5t43 -79.5q0 -38 -25 -66.5t-68 -39.5l-1 -1q66 -18 66 -89
q0 -63 -51 -105t-134 -42z" />
    <glyph glyph-name="acute" unicode="&#xb4;" horiz-adv-x="500" 
d="M317 571h-94l47 141h172z" />
    <glyph glyph-name="uni00B5" unicode="&#xb5;" horiz-adv-x="688" 
d="M256 -203h-141v719h141v-307q0 -95 75 -95q45 0 73 34.5t28 91.5v276h141v-516h-138l-2 70q-17 -39 -51 -60.5t-76 -21.5q-38 0 -73 19l-2 -2l25 -115v-93z" />
    <glyph glyph-name="paragraph" unicode="&#xb6;" horiz-adv-x="685" 
d="M298 -103h-120l97 430q-99 0 -152.5 40.5t-53.5 113.5q0 115 76.5 173t217.5 58h339l-174 -815h-120l148 695h-110z" />
    <glyph glyph-name="middot" unicode="&#xb7;" horiz-adv-x="273" 
d="M218 284h-152l32 150h152z" />
    <glyph glyph-name="cedilla" unicode="&#xb8;" horiz-adv-x="500" 
d="M102 -251h-59l14 64h40q62 0 62 34q0 22 -33 22h-17l-36 52l67 79h85l-50 -57h11q38 0 60.5 -21.5t22.5 -58.5q0 -52 -47 -83t-120 -31z" />
    <glyph glyph-name="one.sups" unicode="&#xb9;" horiz-adv-x="297" 
d="M260 372h-101l59 269h-106l15 75h30q85 0 100 67l2 9h91z" />
    <glyph glyph-name="ordmasculine" unicode="&#xba;" horiz-adv-x="472" 
d="M278 366q-88 0 -136.5 40.5t-48.5 113.5q0 95 60 149t163 54q88 0 136 -40t48 -113q0 -96 -59.5 -150t-162.5 -54zM287 451q43 0 68.5 29t25.5 80q0 37 -19.5 57.5t-54.5 20.5q-43 0 -69 -29t-26 -79q0 -37 20 -58t55 -21z" />
    <glyph glyph-name="guillemotright" unicode="&#xbb;" horiz-adv-x="705" 
d="M317 198l-314 -208l37 174l162 102l-119 102l34 156l225 -208zM632 198l-314 -208l37 174l162 102l-119 102l34 156l225 -208z" />
    <glyph glyph-name="onequarter" unicode="&#xbc;" horiz-adv-x="1089" 
d="M281 -15h-112l602 742h110zM293 292h-101l59 269h-106l15 75h30q85 0 100 67l2 9h91zM886 0h-95l17 76l-215 -3l17 80l253 267h113l-56 -260l69 3l-19 -90l-67 3zM854 303l-132 -141l103 -2l31 142z" />
    <glyph glyph-name="onehalf" unicode="&#xbd;" horiz-adv-x="1088" 
d="M281 -15h-112l602 742h110zM293 292h-101l59 269h-106l15 75h30q85 0 100 67l2 9h91zM950 0h-330q15 78 45 122t82 68l109 51q60 29 60 67q0 44 -60 44q-64 0 -75 -60h-101q13 70 62.5 107t127.5 37q69 0 108.5 -31t39.5 -84q0 -86 -111 -140l-112 -54q-32 -16 -40 -39
h214z" />
    <glyph glyph-name="threequarters" unicode="&#xbe;" horiz-adv-x="1155" 
d="M261 276q-75 0 -117 35.5t-48 100.5l96 11q4 -63 71 -63q37 0 59 17t22 44q0 45 -68 45h-24l18 83h27q35 0 55.5 14t20.5 37q0 44 -63 44q-68 0 -81 -52l-94 17q16 56 63 87.5t120 31.5q70 0 113 -29.5t43 -79.5q0 -38 -25 -66.5t-68 -39.5l-1 -1q66 -18 66 -89
q0 -63 -51 -105t-134 -42zM367 -15h-112l602 742h110zM972 0h-95l17 76l-215 -3l17 80l253 267h113l-56 -260l69 3l-19 -90l-67 3zM940 303l-132 -141l103 -2l31 142z" />
    <glyph glyph-name="questiondown" unicode="&#xbf;" horiz-adv-x="589" 
d="M390 366h-152l32 150h152zM220 -212q-109 0 -176 50q-66 50 -66 132q0 113 124 183l54 31q36 21 50.5 38.5t20.5 45.5l3 14h134l-6 -27q-12 -54 -40 -88t-89 -66q-55 -28 -77.5 -51.5t-22.5 -57.5q0 -39 28.5 -59t77.5 -20q100 0 128 103h147q-58 -228 -290 -228z" />
    <glyph glyph-name="Agrave" unicode="&#xc0;" horiz-adv-x="719" 
d="M499 908l18 -141h-84l-96 141h162zM639 0h-153l-17 148h-258l-79 -148h-162l400 712h174zM324 358l-47 -88h179l-10 88l-18 205z" />
    <glyph glyph-name="Aacute" unicode="&#xc1;" horiz-adv-x="719" 
d="M432 908h172l-125 -141h-94zM639 0h-153l-17 148h-258l-79 -148h-162l400 712h174zM324 358l-47 -88h179l-10 88l-18 205z" />
    <glyph glyph-name="Acircumflex" unicode="&#xc2;" horiz-adv-x="719" 
d="M533 777l-42 82l-78 -82h-132l152 147h130l88 -147h-118zM-30 0l400 712h174l95 -712h-153l-17 148h-258l-79 -148h-162zM324 358l-47 -88h179l-10 88l-18 205z" />
    <glyph glyph-name="Atilde" unicode="&#xc3;" horiz-adv-x="719" 
d="M617 960h108q-37 -178 -156 -178q-39 0 -79 27q-41 26 -66 26q-42 0 -53 -53h-108q39 178 156 178q38 0 79 -26q40 -27 66 -27q42 0 53 53zM-30 0l400 712h174l95 -712h-153l-17 148h-258l-79 -148h-162zM324 358l-47 -88h179l-10 88l-18 205z" />
    <glyph glyph-name="Adieresis" unicode="&#xc4;" horiz-adv-x="719" 
d="M326 908h141l-28 -128h-141zM509 780l28 128h141l-28 -128h-141zM-30 0l400 712h174l95 -712h-153l-17 148h-258l-79 -148h-162zM324 358l-47 -88h179l-10 88l-18 205z" />
    <glyph glyph-name="Aring" unicode="&#xc5;" horiz-adv-x="719" 
d="M639 0h-153l-17 148h-258l-79 -148h-162l379 675q-43 40 -43 107q0 64 42 106t106 42t106 -42t42 -106q0 -72 -52 -115zM505 834q-19 20 -50 20t-51 -20t-20 -52t20 -51t51 -19t50 19t19 51t-19 52zM324 358l-47 -88h179l-10 88l-18 205z" />
    <glyph glyph-name="AE" unicode="&#xc6;" horiz-adv-x="1145" 
d="M1192 712l-27 -125h-370l-33 -154h333l-27 -127h-333l-38 -181h380l-27 -125h-528l38 179h-280l-146 -179h-164l581 712h641zM609 584l-228 -280h206l60 280h-38z" />
    <glyph glyph-name="Ccedilla" unicode="&#xc7;" horiz-adv-x="693" 
d="M342 105q65 0 111.5 35t68.5 93h141q-32 -119 -119 -186q-90 -69 -207 -70l-30 -34h11q38 0 60.5 -21.5t22.5 -58.5q0 -52 -47 -83t-120 -31h-59l14 64h40q62 0 62 34q0 22 -33 22h-17l-36 52l54 63q-99 21 -155 97.5t-56 190.5q0 48 12 103q34 165 140 260
q104 93 250 93q101 0 175 -49q87 -57 87 -203h-139q0 57 -35.5 90.5t-98.5 33.5q-89 0 -149 -62.5t-84 -172.5q-10 -43 -10 -86q0 -83 37.5 -128.5t108.5 -45.5z" />
    <glyph glyph-name="Egrave" unicode="&#xc8;" horiz-adv-x="648" 
d="M472 908l18 -141h-84l-96 141h162zM695 712l-27 -125h-370l-33 -154h333l-27 -127h-333l-38 -181h380l-27 -125h-528l152 712h518z" />
    <glyph glyph-name="Eacute" unicode="&#xc9;" horiz-adv-x="648" 
d="M405 908h172l-125 -141h-94zM695 712l-27 -125h-370l-33 -154h333l-27 -127h-333l-38 -181h380l-27 -125h-528l152 712h518z" />
    <glyph glyph-name="Ecircumflex" unicode="&#xca;" horiz-adv-x="648" 
d="M506 777l-42 82l-78 -82h-132l152 147h130l88 -147h-118zM695 712l-27 -125h-370l-33 -154h333l-27 -127h-333l-38 -181h380l-27 -125h-528l152 712h518z" />
    <glyph glyph-name="Edieresis" unicode="&#xcb;" horiz-adv-x="648" 
d="M299 908h141l-28 -128h-141zM510 908h141l-28 -128h-141zM695 712l-27 -125h-370l-33 -154h333l-27 -127h-333l-38 -181h380l-27 -125h-528l152 712h518z" />
    <glyph glyph-name="Igrave" unicode="&#xcc;" horiz-adv-x="308" 
d="M308 767h-84l-96 141h162zM173 0h-148l152 712h148z" />
    <glyph glyph-name="Iacute" unicode="&#xcd;" horiz-adv-x="308" 
d="M270 767h-94l47 141h172zM173 0h-148l152 712h148z" />
    <glyph glyph-name="Icircumflex" unicode="&#xce;" horiz-adv-x="308" 
d="M204 777h-132l152 147h130l88 -147h-118l-42 82zM173 0h-148l152 712h148z" />
    <glyph glyph-name="Idieresis" unicode="&#xcf;" horiz-adv-x="308" 
d="M230 780h-141l28 128h141zM441 780h-141l28 128h141zM173 0h-148l152 712h148z" />
    <glyph glyph-name="Eth" unicode="&#xd0;" horiz-adv-x="770" 
d="M234 712h246q140 0 213 -69.5t73 -197.5q0 -43 -11 -104q-66 -341 -382 -341h-291l65 305l-123 -5l26 121l121 -5zM607 356q10 47 10 92q0 75 -39.5 109.5t-127.5 34.5h-94l-37 -175l151 4l-26 -121l-149 4l-38 -179h114q102 0 157 54t79 177z" />
    <glyph glyph-name="Ntilde" unicode="&#xd1;" horiz-adv-x="735" 
d="M429 835q-42 0 -53 -53h-108q39 178 156 178q38 0 79 -26q41 -27 66 -27q42 0 53 53h108q-37 -178 -156 -178q-38 0 -79 27q-41 26 -66 26zM505 249l99 463h148l-152 -712h-135l-194 464l-98 -464h-148l152 712h135z" />
    <glyph glyph-name="Ograve" unicode="&#xd2;" horiz-adv-x="746" 
d="M506 767h-84l-96 141h162zM336 -23q-130 0 -208 80q-79 79 -79 214q0 52 10 99q33 165 143 263q110 96 256 96q126 0 204 -78q77 -79 77 -211q0 -49 -10 -96q-36 -178 -139.5 -272.5t-253.5 -94.5zM348 105q86 0 149 69t87 183q7 32 7 69q0 82 -39.5 128.5t-110.5 46.5
q-88 0 -152 -67q-66 -69 -85 -177q-8 -48 -8 -79q0 -82 39 -127.5t113 -45.5z" />
    <glyph glyph-name="Oacute" unicode="&#xd3;" horiz-adv-x="746" 
d="M468 767h-94l47 141h172zM336 -23q-130 0 -208 80q-79 79 -79 214q0 52 10 99q33 165 143 263q110 96 256 96q126 0 204 -78q77 -79 77 -211q0 -49 -10 -96q-36 -178 -139.5 -272.5t-253.5 -94.5zM348 105q86 0 149 69t87 183q7 32 7 69q0 82 -39.5 128.5t-110.5 46.5
q-88 0 -152 -67q-66 -69 -85 -177q-8 -48 -8 -79q0 -82 39 -127.5t113 -45.5z" />
    <glyph glyph-name="Ocircumflex" unicode="&#xd4;" horiz-adv-x="746" 
d="M402 777h-132l152 147h130l88 -147h-118l-42 82zM336 -23q-130 0 -208 80q-79 79 -79 214q0 52 10 99q33 165 143 263q110 96 256 96q126 0 204 -78q77 -79 77 -211q0 -49 -10 -96q-36 -178 -139.5 -272.5t-253.5 -94.5zM348 105q86 0 149 69t87 183q7 32 7 69
q0 82 -39.5 128.5t-110.5 46.5q-88 0 -152 -67q-66 -69 -85 -177q-8 -48 -8 -79q0 -82 39 -127.5t113 -45.5z" />
    <glyph glyph-name="Otilde" unicode="&#xd5;" horiz-adv-x="746" 
d="M360 782h-108q39 178 156 178q38 0 79 -26q41 -27 66 -27q42 0 53 53h108q-37 -178 -156 -178q-38 0 -79 27q-41 26 -66 26q-42 0 -53 -53zM336 -23q-130 0 -208 80q-79 79 -79 214q0 52 10 99q33 165 143 263q110 96 256 96q126 0 204 -78q77 -79 77 -211q0 -49 -10 -96
q-36 -178 -139.5 -272.5t-253.5 -94.5zM348 105q86 0 149 69t87 183q7 32 7 69q0 82 -39.5 128.5t-110.5 46.5q-88 0 -152 -67q-66 -69 -85 -177q-8 -48 -8 -79q0 -82 39 -127.5t113 -45.5z" />
    <glyph glyph-name="Odieresis" unicode="&#xd6;" horiz-adv-x="746" 
d="M428 780h-141l28 128h141zM639 780h-141l28 128h141zM336 -23q-130 0 -208 80q-79 79 -79 214q0 52 10 99q33 165 143 263q110 96 256 96q126 0 204 -78q77 -79 77 -211q0 -49 -10 -96q-36 -178 -139.5 -272.5t-253.5 -94.5zM348 105q86 0 149 69t87 183q7 32 7 69
q0 82 -39.5 128.5t-110.5 46.5q-88 0 -152 -67q-66 -69 -85 -177q-8 -48 -8 -79q0 -82 39 -127.5t113 -45.5z" />
    <glyph glyph-name="multiply" unicode="&#xd7;" horiz-adv-x="660" 
d="M350 226l-191 -192l-86 85l192 192l-192 192l85 85l192 -192l193 192l84 -85l-192 -192l192 -192l-85 -85z" />
    <glyph glyph-name="Oslash" unicode="&#xd8;" horiz-adv-x="746" 
d="M717 743l63 -53l-82 -86q41 -70 41 -164q0 -49 -10 -96q-36 -178 -139.5 -272.5t-253.5 -94.5q-111 0 -185 58l-80 -83l-63 53l88 91q-47 74 -47 175q0 52 10 99q33 165 143 263q110 96 256 96q112 0 186 -62zM196 278q0 -38 9 -68l339 352q-41 39 -103 39
q-88 0 -152 -67q-66 -69 -85 -177q-8 -48 -8 -79zM584 357q15 74 0 129l-335 -349q38 -32 99 -32q86 0 149 69t87 183z" />
    <glyph glyph-name="Ugrave" unicode="&#xd9;" horiz-adv-x="713" 
d="M500 767h-84l-96 141h162zM317 -23q-117 0 -183 51t-66 143q0 26 6 58l103 483h148l-105 -495q-4 -15 -4 -33q0 -79 109 -79q128 0 152 112l105 495h148l-105 -493q-53 -242 -308 -242z" />
    <glyph glyph-name="Uacute" unicode="&#xda;" horiz-adv-x="713" 
d="M462 767h-94l47 141h172zM317 -23q-117 0 -183 51t-66 143q0 26 6 58l103 483h148l-105 -495q-4 -15 -4 -33q0 -79 109 -79q128 0 152 112l105 495h148l-105 -493q-53 -242 -308 -242z" />
    <glyph glyph-name="Ucircumflex" unicode="&#xdb;" horiz-adv-x="713" 
d="M396 777h-132l152 147h130l88 -147h-118l-42 82zM317 -23q-117 0 -183 51t-66 143q0 26 6 58l103 483h148l-105 -495q-4 -15 -4 -33q0 -79 109 -79q128 0 152 112l105 495h148l-105 -493q-53 -242 -308 -242z" />
    <glyph glyph-name="Udieresis" unicode="&#xdc;" horiz-adv-x="713" 
d="M422 780h-141l28 128h141zM633 780h-141l28 128h141zM317 -23q-117 0 -183 51t-66 143q0 26 6 58l103 483h148l-105 -495q-4 -15 -4 -33q0 -79 109 -79q128 0 152 112l105 495h148l-105 -493q-53 -242 -308 -242z" />
    <glyph glyph-name="Yacute" unicode="&#xdd;" horiz-adv-x="656" 
d="M397 908h172l-125 -141h-94zM565 712h170l-329 -436l-59 -276h-148l59 277l-143 435h152l61 -221l19 -99l61 99z" />
    <glyph glyph-name="Thorn" unicode="&#xde;" horiz-adv-x="630" 
d="M301 601h125q99 0 156.5 -52t57.5 -139q0 -129 -82 -201t-224 -72h-132l-29 -137h-148l152 712h148zM229 262h109q72 0 114 35t42 97q0 40 -25 61t-71 21h-123z" />
    <glyph glyph-name="germandbls" unicode="&#xdf;" horiz-adv-x="594" 
d="M145 0h-140l109 511q24 111 85 162t168 51q109 0 168.5 -44.5t59.5 -119.5q0 -58 -37 -101t-102 -61v-2q99 -38 99 -145q0 -106 -81 -178q-82 -73 -203 -73h-43l23 110h27q61 0 96 36.5t35 94.5q0 83 -85 83h-27l23 110h13q53 0 85 29.5t32 75.5q0 75 -85 75
q-90 0 -109 -91z" />
    <glyph glyph-name="agrave" unicode="&#xe0;" horiz-adv-x="557" 
d="M371 712l18 -141h-84l-96 141h162zM328 528q94 0 143.5 -35.5t49.5 -103.5q0 -24 -7 -53l-49 -228q-9 -40 -9 -69q0 -23 6 -39h-131v58q-64 -73 -168 -73q-74 0 -118.5 37t-44.5 98q0 145 193 178l184 32l4 22q3 16 3 25q0 51 -74 51q-44 0 -68 -15.5t-37 -52.5l-128 4
q22 85 83 124.5t168 39.5zM217 89q43 0 79 25.5t51 69.5l12 58l-136 -26q-80 -15 -80 -74q0 -53 74 -53z" />
    <glyph glyph-name="aacute" unicode="&#xe1;" horiz-adv-x="557" 
d="M304 712h172l-125 -141h-94zM328 528q94 0 143.5 -35.5t49.5 -103.5q0 -24 -7 -53l-49 -228q-9 -40 -9 -69q0 -23 6 -39h-131v58q-64 -73 -168 -73q-74 0 -118.5 37t-44.5 98q0 145 193 178l184 32l4 22q3 16 3 25q0 51 -74 51q-44 0 -68 -15.5t-37 -52.5l-128 4
q22 85 83 124.5t168 39.5zM217 89q43 0 79 25.5t51 69.5l12 58l-136 -26q-80 -15 -80 -74q0 -53 74 -53z" />
    <glyph glyph-name="acircumflex" unicode="&#xe2;" horiz-adv-x="557" 
d="M405 581l-42 82l-78 -82h-132l152 147h130l88 -147h-118zM328 528q94 0 143.5 -35.5t49.5 -103.5q0 -24 -7 -53l-49 -228q-9 -40 -9 -69q0 -23 6 -39h-131v58q-64 -73 -168 -73q-74 0 -118.5 37t-44.5 98q0 145 193 178l184 32l4 22q3 16 3 25q0 51 -74 51
q-44 0 -68 -15.5t-37 -52.5l-128 4q22 85 83 124.5t168 39.5zM217 89q43 0 79 25.5t51 69.5l12 58l-136 -26q-80 -15 -80 -74q0 -53 74 -53z" />
    <glyph glyph-name="atilde" unicode="&#xe3;" horiz-adv-x="557" 
d="M489 764h108q-37 -178 -156 -178q-39 0 -79 27q-41 26 -66 26q-42 0 -53 -53h-108q39 178 156 178q38 0 79 -26q40 -27 66 -27q42 0 53 53zM328 528q94 0 143.5 -35.5t49.5 -103.5q0 -24 -7 -53l-49 -228q-9 -40 -9 -69q0 -23 6 -39h-131v58q-64 -73 -168 -73
q-74 0 -118.5 37t-44.5 98q0 145 193 178l184 32l4 22q3 16 3 25q0 51 -74 51q-44 0 -68 -15.5t-37 -52.5l-128 4q22 85 83 124.5t168 39.5zM217 89q43 0 79 25.5t51 69.5l12 58l-136 -26q-80 -15 -80 -74q0 -53 74 -53z" />
    <glyph glyph-name="adieresis" unicode="&#xe4;" horiz-adv-x="557" 
d="M198 712h141l-28 -128h-141zM381 584l28 128h141l-28 -128h-141zM328 528q94 0 143.5 -35.5t49.5 -103.5q0 -24 -7 -53l-49 -228q-9 -40 -9 -69q0 -23 6 -39h-131v58q-64 -73 -168 -73q-74 0 -118.5 37t-44.5 98q0 145 193 178l184 32l4 22q3 16 3 25q0 51 -74 51
q-44 0 -68 -15.5t-37 -52.5l-128 4q22 85 83 124.5t168 39.5zM217 89q43 0 79 25.5t51 69.5l12 58l-136 -26q-80 -15 -80 -74q0 -53 74 -53z" />
    <glyph glyph-name="aring" unicode="&#xe5;" horiz-adv-x="557" 
d="M481 613q-42 -42 -106 -42t-106 42q-42 41 -42 105t42 106t106 42t106 -42t42 -106t-42 -105zM426 770q-20 20 -51 20t-50 -20t-19 -52t19 -51t50 -19t51 19t20 51t-20 52zM328 528q94 0 143.5 -35.5t49.5 -103.5q0 -24 -7 -53l-49 -228q-9 -40 -9 -69q0 -23 6 -39h-131
v58q-64 -73 -168 -73q-74 0 -118.5 37t-44.5 98q0 145 193 178l184 32l4 22q3 16 3 25q0 51 -74 51q-44 0 -68 -15.5t-37 -52.5l-128 4q22 85 83 124.5t168 39.5zM217 89q43 0 79 25.5t51 69.5l12 58l-136 -26q-80 -15 -80 -74q0 -53 74 -53z" />
    <glyph glyph-name="ae" unicode="&#xe6;" horiz-adv-x="914" 
d="M872 215h-373q-2 -24 -2 -25q0 -47 25 -72.5t71 -25.5q73 0 112 64l135 -16q-89 -158 -267 -158q-147 0 -187 108q-82 -105 -223 -105q-79 0 -122 33t-43 91q0 86 63 139q64 53 161 53h150l8 37q5 23 5 35q0 55 -77 55q-79 0 -103 -68l-128 2q49 166 247 166
q135 0 166 -75q85 76 203 76q95 0 145 -51t50 -145q0 -55 -16 -118zM657 426q-49 0 -86 -32.5t-55 -92.5h229q2 18 2 28q0 48 -23.5 72.5t-66.5 24.5zM209 89q52 0 91 31.5t51 85.5l3 11h-115q-48 0 -74 -23t-26 -56q0 -23 18.5 -36t51.5 -13z" />
    <glyph glyph-name="ccedilla" unicode="&#xe7;" horiz-adv-x="548" 
d="M247 93q75 0 115 85h140q-31 -90 -96 -141t-154 -54l-35 -40h11q38 0 60.5 -21.5t22.5 -58.5q0 -52 -47 -83t-120 -31h-59l14 64h40q62 0 62 34q0 22 -33 22h-17l-36 52l59 70q-71 17 -109 70.5t-38 132.5q0 40 7 72q23 123 100 193t189 70q103 0 156.5 -51t53.5 -142
h-137q-5 83 -84 83q-52 0 -91 -43.5t-53 -119.5q-6 -32 -6 -58q0 -105 85 -105z" />
    <glyph glyph-name="egrave" unicode="&#xe8;" horiz-adv-x="583" 
d="M386 712l18 -141h-84l-96 141h162zM542 216h-377q-1 -5 -1 -20q0 -48 26.5 -75.5t73.5 -27.5q72 0 112 66l138 -10q-79 -166 -257 -166q-108 0 -168 63t-60 161q0 38 8 73q26 116 104 182.5t190 66.5q103 0 163.5 -57t60.5 -158q0 -49 -13 -98zM322 426q-48 0 -85 -30
t-54 -84h233q1 4 1 18q0 45 -25.5 70.5t-69.5 25.5z" />
    <glyph glyph-name="eacute" unicode="&#xe9;" horiz-adv-x="583" 
d="M319 712h172l-125 -141h-94zM542 216h-377q-1 -5 -1 -20q0 -48 26.5 -75.5t73.5 -27.5q72 0 112 66l138 -10q-79 -166 -257 -166q-108 0 -168 63t-60 161q0 38 8 73q26 116 104 182.5t190 66.5q103 0 163.5 -57t60.5 -158q0 -49 -13 -98zM322 426q-48 0 -85 -30t-54 -84
h233q1 4 1 18q0 45 -25.5 70.5t-69.5 25.5z" />
    <glyph glyph-name="ecircumflex" unicode="&#xea;" horiz-adv-x="583" 
d="M420 581l-42 82l-78 -82h-132l152 147h130l88 -147h-118zM542 216h-377q-1 -5 -1 -20q0 -48 26.5 -75.5t73.5 -27.5q72 0 112 66l138 -10q-79 -166 -257 -166q-108 0 -168 63t-60 161q0 38 8 73q26 116 104 182.5t190 66.5q103 0 163.5 -57t60.5 -158q0 -49 -13 -98z
M322 426q-48 0 -85 -30t-54 -84h233q1 4 1 18q0 45 -25.5 70.5t-69.5 25.5z" />
    <glyph glyph-name="edieresis" unicode="&#xeb;" horiz-adv-x="583" 
d="M213 712h141l-28 -128h-141zM424 712h141l-28 -128h-141zM331 529q103 0 163.5 -57t60.5 -158q0 -49 -13 -98h-377q-1 -5 -1 -20q0 -48 26.5 -75.5t73.5 -27.5q72 0 112 66l138 -10q-79 -166 -257 -166q-108 0 -168 63t-60 161q0 38 8 73q26 116 104 182.5t190 66.5z
M322 426q-48 0 -85 -30t-54 -84h233q1 4 1 18q0 45 -25.5 70.5t-69.5 25.5z" />
    <glyph glyph-name="igrave" unicode="&#xec;" horiz-adv-x="261" 
d="M243 571h-84l-96 141h162zM146 0h-141l110 516h141z" />
    <glyph glyph-name="iacute" unicode="&#xed;" horiz-adv-x="261" 
d="M205 571h-94l47 141h172zM146 0h-141l110 516h141z" />
    <glyph glyph-name="icircumflex" unicode="&#xee;" horiz-adv-x="261" 
d="M139 581h-132l152 147h130l88 -147h-118l-42 82zM146 0h-141l110 516h141z" />
    <glyph glyph-name="idieresis" unicode="&#xef;" horiz-adv-x="261" 
d="M165 584h-141l28 128h141zM376 584h-141l28 128h141zM146 0h-141l110 516h141z" />
    <glyph glyph-name="eth" unicode="&#xf0;" horiz-adv-x="573" 
d="M524 747l36 -84l-100 -48q91 -106 91 -252q3 -160 -85 -269.5t-234 -109.5q-96 0 -154 53q-57 53 -57 136q0 119 76 202q77 83 189 83q88 0 132 -48q-14 81 -77 144l-115 -65l-35 76l86 41q-29 19 -69 38l75 103q68 -33 118 -74zM250 94q56 0 96 39t55 113l3 15
q-2 35 -32 61t-73 26q-62 0 -101 -48t-39 -112q0 -43 24.5 -68.5t66.5 -25.5z" />
    <glyph glyph-name="ntilde" unicode="&#xf1;" horiz-adv-x="578" 
d="M503 764h108q-37 -178 -156 -178q-39 0 -79 27q-41 26 -66 26q-42 0 -53 -53h-108q39 178 156 178q38 0 79 -26q40 -27 66 -27q42 0 53 53zM395 529q68 0 106.5 -38.5t38.5 -105.5q0 -25 -6 -52l-71 -333h-141l65 307q5 25 5 38q0 57 -60 57q-43 0 -77 -31.5t-48 -85.5
l-60 -285h-141l109 516h138l-12 -69q63 82 154 82z" />
    <glyph glyph-name="ograve" unicode="&#xf2;" horiz-adv-x="592" 
d="M409 571h-84l-96 141h162zM256 -17q-103 0 -165 62q-63 61 -63 161q0 28 6 60q23 118 104 190q80 73 201 73q103 0 164 -61q60 -62 60 -159q0 -30 -6 -63q-24 -123 -103 -193t-198 -70zM264 93q61 0 104.5 44.5t54.5 118.5q3 22 3 42q0 57 -26 89t-74 32
q-59 0 -101.5 -44t-56.5 -119q-5 -32 -5 -48q0 -54 26.5 -84.5t74.5 -30.5z" />
    <glyph glyph-name="oacute" unicode="&#xf3;" horiz-adv-x="592" 
d="M371 571h-94l47 141h172zM256 -17q-103 0 -165 62q-63 61 -63 161q0 28 6 60q23 118 104 190q80 73 201 73q103 0 164 -61q60 -62 60 -159q0 -30 -6 -63q-24 -123 -103 -193t-198 -70zM264 93q61 0 104.5 44.5t54.5 118.5q3 22 3 42q0 57 -26 89t-74 32q-59 0 -101.5 -44
t-56.5 -119q-5 -32 -5 -48q0 -54 26.5 -84.5t74.5 -30.5z" />
    <glyph glyph-name="ocircumflex" unicode="&#xf4;" horiz-adv-x="592" 
d="M305 581h-132l152 147h130l88 -147h-118l-42 82zM256 -17q-103 0 -165 62q-63 61 -63 161q0 28 6 60q23 118 104 190q80 73 201 73q103 0 164 -61q60 -62 60 -159q0 -30 -6 -63q-24 -123 -103 -193t-198 -70zM264 93q61 0 104.5 44.5t54.5 118.5q3 22 3 42q0 57 -26 89
t-74 32q-59 0 -101.5 -44t-56.5 -119q-5 -32 -5 -48q0 -54 26.5 -84.5t74.5 -30.5z" />
    <glyph glyph-name="otilde" unicode="&#xf5;" horiz-adv-x="592" 
d="M263 586h-108q39 178 156 178q38 0 79 -26q40 -27 66 -27q42 0 53 53h108q-37 -178 -156 -178q-39 0 -79 27q-41 26 -66 26q-42 0 -53 -53zM256 -17q-103 0 -165 62q-63 61 -63 161q0 28 6 60q23 118 104 190q80 73 201 73q103 0 164 -61q60 -62 60 -159q0 -30 -6 -63
q-24 -123 -103 -193t-198 -70zM264 93q61 0 104.5 44.5t54.5 118.5q3 22 3 42q0 57 -26 89t-74 32q-59 0 -101.5 -44t-56.5 -119q-5 -32 -5 -48q0 -54 26.5 -84.5t74.5 -30.5z" />
    <glyph glyph-name="odieresis" unicode="&#xf6;" horiz-adv-x="592" 
d="M331 584h-141l28 128h141zM542 584h-141l28 128h141zM256 -17q-103 0 -165 62q-63 61 -63 161q0 28 6 60q23 118 104 190q80 73 201 73q103 0 164 -61q60 -62 60 -159q0 -30 -6 -63q-24 -123 -103 -193t-198 -70zM264 93q61 0 104.5 44.5t54.5 118.5q3 22 3 42
q0 57 -26 89t-74 32q-59 0 -101.5 -44t-56.5 -119q-5 -32 -5 -48q0 -54 26.5 -84.5t74.5 -30.5z" />
    <glyph glyph-name="divide" unicode="&#xf7;" horiz-adv-x="660" 
d="M423 440h-145v145h145v-145zM640 247h-580v120h580v-120zM423 29h-145v145h145v-145z" />
    <glyph glyph-name="oslash" unicode="&#xf8;" horiz-adv-x="592" 
d="M546 534l51 -54l-61 -56q27 -50 27 -115q0 -30 -6 -63q-24 -123 -103 -193t-198 -70q-88 0 -147 46l-56 -52l-51 54l58 53q-32 53 -32 122q0 28 6 60q23 118 104 190q80 73 201 73q89 0 150 -48zM163 208q0 -4 2 -26l229 212q-25 25 -68 25q-59 0 -101.5 -44t-56.5 -119
q-5 -32 -5 -48zM426 298q0 18 -1 23l-225 -208q26 -20 64 -20q61 0 104.5 44.5t54.5 118.5q3 22 3 42z" />
    <glyph glyph-name="ugrave" unicode="&#xf9;" horiz-adv-x="578" 
d="M373 712l18 -141h-84l-96 141h162zM371 231l60 285h141l-109 -516h-138l12 69q-63 -82 -154 -82q-68 0 -106.5 38.5t-38.5 105.5q0 25 6 52l71 333h141l-65 -307q-5 -25 -5 -38q0 -57 60 -57q43 0 77 31.5t48 85.5z" />
    <glyph glyph-name="uacute" unicode="&#xfa;" horiz-adv-x="578" 
d="M306 712h172l-125 -141h-94zM371 231l60 285h141l-109 -516h-138l12 69q-63 -82 -154 -82q-68 0 -106.5 38.5t-38.5 105.5q0 25 6 52l71 333h141l-65 -307q-5 -25 -5 -38q0 -57 60 -57q43 0 77 31.5t48 85.5z" />
    <glyph glyph-name="ucircumflex" unicode="&#xfb;" horiz-adv-x="578" 
d="M407 581l-42 82l-78 -82h-132l152 147h130l88 -147h-118zM371 231l60 285h141l-109 -516h-138l12 69q-63 -82 -154 -82q-68 0 -106.5 38.5t-38.5 105.5q0 25 6 52l71 333h141l-65 -307q-5 -25 -5 -38q0 -57 60 -57q43 0 77 31.5t48 85.5z" />
    <glyph glyph-name="udieresis" unicode="&#xfc;" horiz-adv-x="578" 
d="M200 712h141l-28 -128h-141zM411 712h141l-28 -128h-141zM371 231l60 285h141l-109 -516h-138l12 69q-63 -82 -154 -82q-68 0 -106.5 38.5t-38.5 105.5q0 25 6 52l71 333h141l-65 -307q-5 -25 -5 -38q0 -57 60 -57q43 0 77 31.5t48 85.5z" />
    <glyph glyph-name="yacute" unicode="&#xfd;" horiz-adv-x="551" 
d="M298 712h172l-125 -141h-94zM246 155l184 361h156l-326 -600q-37 -66 -77.5 -93t-103.5 -27h-118l26 120h68q58 0 82 44l10 18l-87 538h143l39 -290z" />
    <glyph glyph-name="thorn" unicode="&#xfe;" horiz-adv-x="595" 
d="M390 529q81 0 129 -55t48 -150q3 -131 -73.5 -236t-190.5 -104q-98 0 -143 79l-56 -267h-141l194 916h141l-51 -241q58 58 143 58zM285 105q65 0 105 60q40 58 40 139q0 49 -23.5 77t-66.5 28q-66 0 -106 -60q-42 -60 -42 -135q0 -51 25 -80t68 -29z" />
    <glyph glyph-name="ydieresis" unicode="&#xff;" horiz-adv-x="551" 
d="M192 712h141l-28 -128h-141zM403 712h141l-28 -128h-141zM246 155l184 361h156l-326 -600q-37 -66 -77.5 -93t-103.5 -27h-118l26 120h68q58 0 82 44l10 18l-87 538h143l39 -290z" />
    <glyph glyph-name="Amacron" unicode="&#x100;" horiz-adv-x="719" 
d="M298 802l23 105h363l-23 -105h-363zM-30 0l400 712h174l95 -712h-153l-17 148h-258l-79 -148h-162zM324 358l-47 -88h179l-10 88l-18 205z" />
    <glyph glyph-name="amacron" unicode="&#x101;" horiz-adv-x="557" 
d="M170 606l23 105h363l-23 -105h-363zM328 528q94 0 143.5 -35.5t49.5 -103.5q0 -24 -7 -53l-49 -228q-9 -40 -9 -69q0 -23 6 -39h-131v58q-64 -73 -168 -73q-74 0 -118.5 37t-44.5 98q0 145 193 178l184 32l4 22q3 16 3 25q0 51 -74 51q-44 0 -68 -15.5t-37 -52.5l-128 4
q22 85 83 124.5t168 39.5zM217 89q43 0 79 25.5t51 69.5l12 58l-136 -26q-80 -15 -80 -74q0 -53 74 -53z" />
    <glyph glyph-name="Abreve" unicode="&#x102;" horiz-adv-x="719" 
d="M481 768q-157 0 -157 116q0 27 4 46h84q-1 -4 -1 -16q0 -54 78 -54q91 0 107 70h88q-21 -84 -67.5 -123t-135.5 -39zM-30 0l400 712h174l95 -712h-153l-17 148h-258l-79 -148h-162zM324 358l-47 -88h179l-10 88l-18 205z" />
    <glyph glyph-name="abreve" unicode="&#x103;" horiz-adv-x="557" 
d="M353 572q-157 0 -157 116q0 27 4 46h84q-1 -4 -1 -16q0 -54 78 -54q91 0 107 70h88q-21 -84 -67.5 -123t-135.5 -39zM328 528q94 0 143.5 -35.5t49.5 -103.5q0 -24 -7 -53l-49 -228q-9 -40 -9 -69q0 -23 6 -39h-131v58q-64 -73 -168 -73q-74 0 -118.5 37t-44.5 98
q0 145 193 178l184 32l4 22q3 16 3 25q0 51 -74 51q-44 0 -68 -15.5t-37 -52.5l-128 4q22 85 83 124.5t168 39.5zM217 89q43 0 79 25.5t51 69.5l12 58l-136 -26q-80 -15 -80 -74q0 -53 74 -53z" />
    <glyph glyph-name="Aogonek" unicode="&#x104;" horiz-adv-x="719" 
d="M530 -103q0 -31 44 -31h36l-18 -87h-83q-51 0 -81 23t-30 61q0 37 20.5 60.5t73.5 55.5l34 21h-40l-17 148h-258l-79 -148h-162l400 712h174l95 -712l-61 -44q-31 -22 -39.5 -32.5t-8.5 -26.5zM324 358l-47 -88h179l-10 88l-18 205z" />
    <glyph glyph-name="aogonek" unicode="&#x105;" horiz-adv-x="557" 
d="M328 528q94 0 143.5 -35.5t49.5 -103.5q0 -24 -7 -53l-49 -228q-9 -40 -9 -69q0 -23 6 -39l-61 -44q-31 -22 -39.5 -32.5t-8.5 -26.5q0 -31 44 -31h36l-18 -87h-83q-51 0 -81 23t-30 61q0 37 20.5 60.5t73.5 55.5l16 10v69q-64 -73 -168 -73q-74 0 -118.5 37t-44.5 98
q0 145 193 178l184 32l4 22q3 16 3 25q0 51 -74 51q-44 0 -68 -15.5t-37 -52.5l-128 4q22 85 83 124.5t168 39.5zM217 89q43 0 79 25.5t51 69.5l12 58l-136 -26q-80 -15 -80 -74q0 -53 74 -53z" />
    <glyph glyph-name="Cacute" unicode="&#x106;" horiz-adv-x="693" 
d="M458 767h-94l47 141h172zM331 -23q-131 0 -207 81q-76 79 -76 214q0 48 12 103q34 165 140 260q104 93 250 93q101 0 175 -49q87 -57 87 -203h-139q0 57 -35.5 90.5t-98.5 33.5q-89 0 -149 -62.5t-84 -172.5q-10 -43 -10 -86q0 -83 37.5 -128.5t108.5 -45.5
q65 0 111.5 35t68.5 93h141q-31 -119 -121 -188q-89 -68 -211 -68z" />
    <glyph glyph-name="cacute" unicode="&#x107;" horiz-adv-x="548" 
d="M348 571h-94l47 141h172zM242 -17q-101 0 -158 56.5t-57 154.5q0 40 7 72q23 123 100 193t189 70q103 0 156.5 -51t53.5 -142h-137q-5 83 -84 83q-52 0 -91 -43.5t-53 -119.5q-6 -32 -6 -58q0 -105 85 -105q75 0 115 85h140q-32 -93 -99.5 -144t-160.5 -51z" />
    <glyph glyph-name="Ccircumflex" unicode="&#x108;" horiz-adv-x="693" 
d="M392 777h-132l152 147h130l88 -147h-118l-42 82zM331 -23q-131 0 -207 81q-76 79 -76 214q0 48 12 103q34 165 140 260q104 93 250 93q101 0 175 -49q87 -57 87 -203h-139q0 57 -35.5 90.5t-98.5 33.5q-89 0 -149 -62.5t-84 -172.5q-10 -43 -10 -86q0 -83 37.5 -128.5
t108.5 -45.5q65 0 111.5 35t68.5 93h141q-31 -119 -121 -188q-89 -68 -211 -68z" />
    <glyph glyph-name="ccircumflex" unicode="&#x109;" horiz-adv-x="548" 
d="M282 581h-132l152 147h130l88 -147h-118l-42 82zM242 -17q-101 0 -158 56.5t-57 154.5q0 40 7 72q23 123 100 193t189 70q103 0 156.5 -51t53.5 -142h-137q-5 83 -84 83q-52 0 -91 -43.5t-53 -119.5q-6 -32 -6 -58q0 -105 85 -105q75 0 115 85h140q-32 -93 -99.5 -144
t-160.5 -51z" />
    <glyph glyph-name="Cdotaccent" unicode="&#x10a;" horiz-adv-x="693" 
d="M524 780h-141l27 128h141zM331 -23q-131 0 -207 81q-76 79 -76 214q0 48 12 103q34 165 140 260q104 93 250 93q101 0 175 -49q87 -57 87 -203h-139q0 57 -35.5 90.5t-98.5 33.5q-89 0 -149 -62.5t-84 -172.5q-10 -43 -10 -86q0 -83 37.5 -128.5t108.5 -45.5
q65 0 111.5 35t68.5 93h141q-31 -119 -121 -188q-89 -68 -211 -68z" />
    <glyph glyph-name="cdotaccent" unicode="&#x10b;" horiz-adv-x="548" 
d="M414 584h-141l27 128h141zM242 -17q-101 0 -158 56.5t-57 154.5q0 40 7 72q23 123 100 193t189 70q103 0 156.5 -51t53.5 -142h-137q-5 83 -84 83q-52 0 -91 -43.5t-53 -119.5q-6 -32 -6 -58q0 -105 85 -105q75 0 115 85h140q-32 -93 -99.5 -144t-160.5 -51z" />
    <glyph glyph-name="Ccaron" unicode="&#x10c;" horiz-adv-x="693" 
d="M514 767h-130l-88 147h116l42 -82l78 82h134zM331 -23q-131 0 -207 81q-76 79 -76 214q0 48 12 103q34 165 140 260q104 93 250 93q101 0 175 -49q87 -57 87 -203h-139q0 57 -35.5 90.5t-98.5 33.5q-89 0 -149 -62.5t-84 -172.5q-10 -43 -10 -86q0 -83 37.5 -128.5
t108.5 -45.5q65 0 111.5 35t68.5 93h141q-31 -119 -121 -188q-89 -68 -211 -68z" />
    <glyph glyph-name="ccaron" unicode="&#x10d;" horiz-adv-x="548" 
d="M404 571h-130l-88 147h116l42 -82l78 82h134zM242 -17q-101 0 -158 56.5t-57 154.5q0 40 7 72q23 123 100 193t189 70q103 0 156.5 -51t53.5 -142h-137q-5 83 -84 83q-52 0 -91 -43.5t-53 -119.5q-6 -32 -6 -58q0 -105 85 -105q75 0 115 85h140q-32 -93 -99.5 -144
t-160.5 -51z" />
    <glyph glyph-name="Dcaron" unicode="&#x10e;" horiz-adv-x="713" 
d="M662 914l-152 -147h-130l-88 147h116l42 -82l78 82h134zM177 712h246q140 0 213 -69.5t73 -197.5q0 -43 -11 -104q-66 -341 -382 -341h-291zM550 356q10 47 10 92q0 75 -39.5 109.5t-127.5 34.5h-94l-99 -467h114q102 0 157 54t79 177z" />
    <glyph glyph-name="dcaron" unicode="&#x10f;" horiz-adv-x="810" 
d="M433 450l56 262h141l-152 -712h-125l8 60q-61 -76 -157 -76q-80 0 -128.5 56t-48.5 152q0 39 9 84q22 116 92 185q70 68 163 68q96 0 142 -79zM662 494l95 218h150l-136 -218h-109zM254 104q51 0 91 43t53 112q4 17 4 43q0 51 -25 79.5t-68 28.5q-52 0 -90 -40t-51 -111
q-4 -20 -4 -47q0 -49 24 -78.5t66 -29.5z" />
    <glyph glyph-name="Dcroat" unicode="&#x110;" horiz-adv-x="770" 
d="M234 712h246q140 0 213 -69.5t73 -197.5q0 -43 -11 -104q-66 -341 -382 -341h-291l65 305l-123 -5l26 121l121 -5zM607 356q10 47 10 92q0 75 -39.5 109.5t-127.5 34.5h-94l-37 -175l151 4l-26 -121l-149 4l-38 -179h114q102 0 157 54t79 177z" />
    <glyph glyph-name="dslash" unicode="&#x111;" horiz-adv-x="726" 
d="M626 691l95 3l-23 -111l-94 3l-126 -586h-125l8 60q-61 -76 -157 -76q-80 0 -128.5 56t-48.5 152q0 39 9 84q22 116 92 185q70 68 163 68q95 0 142 -80l30 137l-121 -3l23 111l120 -3l9 41h141zM254 104q51 0 91 43t53 112q4 17 4 43q0 51 -25 79.5t-68 28.5
q-52 0 -90 -40t-51 -111q-4 -20 -4 -47q0 -49 24 -78.5t66 -29.5z" />
    <glyph glyph-name="Emacron" unicode="&#x112;" horiz-adv-x="648" 
d="M294 907h363l-23 -105h-363zM695 712l-27 -125h-370l-33 -154h333l-27 -127h-333l-38 -181h380l-27 -125h-528l152 712h518z" />
    <glyph glyph-name="emacron" unicode="&#x113;" horiz-adv-x="583" 
d="M208 711h363l-23 -105h-363zM331 529q103 0 163.5 -57t60.5 -158q0 -49 -13 -98h-377q-1 -5 -1 -20q0 -48 26.5 -75.5t73.5 -27.5q72 0 112 66l138 -10q-79 -166 -257 -166q-108 0 -168 63t-60 161q0 38 8 73q26 116 104 182.5t190 66.5zM322 426q-48 0 -85 -30t-54 -84
h233q1 4 1 18q0 45 -25.5 70.5t-69.5 25.5z" />
    <glyph glyph-name="Ebreve" unicode="&#x114;" horiz-adv-x="648" 
d="M454 768q-157 0 -157 116q0 27 4 46h84q-1 -4 -1 -16q0 -54 78 -54q91 0 107 70h88q-21 -84 -67 -123t-136 -39zM695 712l-27 -125h-370l-33 -154h333l-27 -127h-333l-38 -181h380l-27 -125h-528l152 712h518z" />
    <glyph glyph-name="ebreve" unicode="&#x115;" horiz-adv-x="583" 
d="M368 572q-157 0 -157 116q0 27 4 46h84q-1 -4 -1 -16q0 -54 78 -54q91 0 107 70h88q-21 -84 -67 -123t-136 -39zM331 529q103 0 163.5 -57t60.5 -158q0 -49 -13 -98h-377q-1 -5 -1 -20q0 -48 26.5 -75.5t73.5 -27.5q72 0 112 66l138 -10q-79 -166 -257 -166
q-108 0 -168 63t-60 161q0 38 8 73q26 116 104 182.5t190 66.5zM322 426q-48 0 -85 -30t-54 -84h233q1 4 1 18q0 45 -25.5 70.5t-69.5 25.5z" />
    <glyph glyph-name="Edotaccent" unicode="&#x116;" horiz-adv-x="648" 
d="M404 908h141l-27 -128h-141zM695 712l-27 -125h-370l-33 -154h333l-27 -127h-333l-38 -181h380l-27 -125h-528l152 712h518z" />
    <glyph glyph-name="edotaccent" unicode="&#x117;" horiz-adv-x="583" 
d="M318 712h141l-27 -128h-141zM542 216h-377q-1 -5 -1 -20q0 -48 26.5 -75.5t73.5 -27.5q72 0 112 66l138 -10q-79 -166 -257 -166q-108 0 -168 63t-60 161q0 38 8 73q26 116 104 182.5t190 66.5q103 0 163.5 -57t60.5 -158q0 -49 -13 -98zM322 426q-48 0 -85 -30t-54 -84
h233q1 4 1 18q0 45 -25.5 70.5t-69.5 25.5z" />
    <glyph glyph-name="Eogonek" unicode="&#x118;" horiz-adv-x="648" 
d="M695 712l-27 -125h-370l-33 -154h333l-27 -127h-333l-38 -181h380l-27 -125l-61 -44q-31 -22 -39.5 -32.5t-8.5 -26.5q0 -31 44 -31h36l-18 -87h-83q-51 0 -81 23t-30 61q0 37 20.5 60.5t73.5 55.5l34 21h-415l152 712h518z" />
    <glyph glyph-name="eogonek" unicode="&#x119;" horiz-adv-x="583" 
d="M542 216h-377q-1 -5 -1 -20q0 -48 26.5 -75.5t73.5 -27.5q72 0 112 66l138 -10q-53 -108 -144 -145l-60 -43q-31 -22 -39.5 -32.5t-8.5 -26.5q0 -31 44 -31h36l-18 -87h-83q-51 0 -81 23t-30 61q0 37 20.5 60.5t73.5 55.5l1 1q-92 10 -144 70.5t-52 151.5q0 38 8 73
q26 116 104 182.5t190 66.5q103 0 163.5 -57t60.5 -158q0 -49 -13 -98zM322 426q-48 0 -85 -30t-54 -84h233q1 4 1 18q0 45 -25.5 70.5t-69.5 25.5z" />
    <glyph glyph-name="Ecaron" unicode="&#x11a;" horiz-adv-x="648" 
d="M660 914l-152 -147h-130l-88 147h116l42 -82l78 82h134zM695 712l-27 -125h-370l-33 -154h333l-27 -127h-333l-38 -181h380l-27 -125h-528l152 712h518z" />
    <glyph glyph-name="ecaron" unicode="&#x11b;" horiz-adv-x="583" 
d="M574 718l-152 -147h-130l-88 147h116l42 -82l78 82h134zM331 529q103 0 163.5 -57t60.5 -158q0 -49 -13 -98h-377q-1 -5 -1 -20q0 -48 26.5 -75.5t73.5 -27.5q72 0 112 66l138 -10q-79 -166 -257 -166q-108 0 -168 63t-60 161q0 38 8 73q26 116 104 182.5t190 66.5z
M322 426q-48 0 -85 -30t-54 -84h233q1 4 1 18q0 45 -25.5 70.5t-69.5 25.5z" />
    <glyph glyph-name="Gcircumflex" unicode="&#x11c;" horiz-adv-x="757" 
d="M520 777l-42 82l-78 -82h-132l152 147h130l88 -147h-118zM407 385h297l-82 -385h-96l-6 73q-75 -89 -209 -89q-117 0 -190 78q-73 77 -73 209q0 48 10 95q34 168 146 266q110 96 252 96q123 0 194 -64t71 -177l-146 -9q0 58 -32.5 90t-94.5 32q-92 0 -156 -67t-87 -174
q-9 -42 -9 -85q0 -81 37.5 -125t109.5 -44q70 0 125 41t82 115h-169z" />
    <glyph glyph-name="gcircumflex" unicode="&#x11d;" horiz-adv-x="593" 
d="M426 581l-42 82l-78 -82h-132l152 147h130l88 -147h-118zM443 446l20 70h125l-111 -522q-24 -108 -87.5 -159t-182.5 -51q-220 0 -220 174h130q0 -69 96 -69q56 0 83.5 24t39.5 79l15 71q-63 -63 -146 -63q-79 0 -127.5 55t-48.5 147q-3 130 74 229t194 98q102 0 146 -83
zM254 120q67 0 111 59q42 59 42 134q0 48 -24.5 75.5t-66.5 27.5q-68 0 -108 -60q-42 -60 -42 -140q0 -45 23 -70.5t65 -25.5z" />
    <glyph glyph-name="Gbreve" unicode="&#x11e;" horiz-adv-x="757" 
d="M468 768q-157 0 -157 116q0 27 4 46h84q-1 -4 -1 -16q0 -54 78 -54q91 0 107 70h88q-21 -84 -67 -123t-136 -39zM407 385h297l-82 -385h-96l-6 73q-75 -89 -209 -89q-117 0 -190 78q-73 77 -73 209q0 48 10 95q34 168 146 266q110 96 252 96q123 0 194 -64t71 -177
l-146 -9q0 58 -32.5 90t-94.5 32q-92 0 -156 -67t-87 -174q-9 -42 -9 -85q0 -81 37.5 -125t109.5 -44q70 0 125 41t82 115h-169z" />
    <glyph glyph-name="gbreve" unicode="&#x11f;" horiz-adv-x="593" 
d="M374 572q-157 0 -157 116q0 27 4 46h84q-1 -4 -1 -16q0 -54 78 -54q91 0 107 70h88q-21 -84 -67 -123t-136 -39zM443 446l20 70h125l-111 -522q-24 -108 -87.5 -159t-182.5 -51q-220 0 -220 174h130q0 -69 96 -69q56 0 83.5 24t39.5 79l15 71q-63 -63 -146 -63
q-79 0 -127.5 55t-48.5 147q-3 130 74 229t194 98q102 0 146 -83zM254 120q67 0 111 59q42 59 42 134q0 48 -24.5 75.5t-66.5 27.5q-68 0 -108 -60q-42 -60 -42 -140q0 -45 23 -70.5t65 -25.5z" />
    <glyph glyph-name="Gdotaccent" unicode="&#x120;" horiz-adv-x="757" 
d="M418 908h141l-27 -128h-141zM407 385h297l-82 -385h-96l-6 73q-75 -89 -209 -89q-117 0 -190 78q-73 77 -73 209q0 48 10 95q34 168 146 266q110 96 252 96q123 0 194 -64t71 -177l-146 -9q0 58 -32.5 90t-94.5 32q-92 0 -156 -67t-87 -174q-9 -42 -9 -85
q0 -81 37.5 -125t109.5 -44q70 0 125 41t82 115h-169z" />
    <glyph glyph-name="gdotaccent" unicode="&#x121;" horiz-adv-x="593" 
d="M324 712h141l-27 -128h-141zM443 446l20 70h125l-111 -522q-24 -108 -87.5 -159t-182.5 -51q-220 0 -220 174h130q0 -69 96 -69q56 0 83.5 24t39.5 79l15 71q-63 -63 -146 -63q-79 0 -127.5 55t-48.5 147q-3 130 74 229t194 98q102 0 146 -83zM254 120q67 0 111 59
q42 59 42 134q0 48 -24.5 75.5t-66.5 27.5q-68 0 -108 -60q-42 -60 -42 -140q0 -45 23 -70.5t65 -25.5z" />
    <glyph glyph-name="uni0122" unicode="&#x122;" horiz-adv-x="757" 
d="M407 385h297l-82 -385h-96l-6 73q-75 -89 -209 -89q-117 0 -190 78q-73 77 -73 209q0 48 10 95q34 168 146 266q110 96 252 96q123 0 194 -64t71 -177l-146 -9q0 58 -32.5 90t-94.5 32q-92 0 -156 -67t-87 -174q-9 -42 -9 -85q0 -81 37.5 -125t109.5 -44q70 0 125 41
t82 115h-169zM299 -164l-102 -9l22 103h157l-31 -148q-10 -49 -39.5 -71t-83.5 -22h-54l12 51h54q25 0 36.5 9t16.5 32z" />
    <glyph glyph-name="uni0123" unicode="&#x123;" horiz-adv-x="593" 
d="M367 678l101 9l-22 -103h-157l24 112q10 49 39.5 71t83.5 22h54l-12 -51h-54q-25 0 -36.5 -9t-16.5 -32zM443 446l20 70h125l-111 -522q-24 -108 -87.5 -159t-182.5 -51q-220 0 -220 174h130q0 -69 96 -69q56 0 83.5 24t39.5 79l15 71q-63 -63 -146 -63q-79 0 -127.5 55
t-48.5 147q-3 130 74 229t194 98q102 0 146 -83zM254 120q67 0 111 59q42 59 42 134q0 48 -24.5 75.5t-66.5 27.5q-68 0 -108 -60q-42 -60 -42 -140q0 -45 23 -70.5t65 -25.5z" />
    <glyph glyph-name="Hcircumflex" unicode="&#x124;" horiz-adv-x="734" 
d="M537 777l-42 82l-78 -82h-132l152 147h130l88 -147h-118zM544 437l59 275h148l-152 -712h-148l65 305h-278l-65 -305h-148l152 712h148l-59 -275h278z" />
    <glyph glyph-name="hcircumflex" unicode="&#x125;" horiz-adv-x="578" 
d="M301 777l-42 82l-78 -82h-132l152 147h130l88 -147h-118zM395 529q68 0 106.5 -38.5t38.5 -105.5q0 -25 -6 -52l-71 -333h-141l65 307q5 25 5 38q0 57 -60 57q-45 0 -79.5 -34t-47.5 -92l-59 -276h-141l152 712h141l-56 -264q63 81 153 81z" />
    <glyph glyph-name="Hbar" unicode="&#x126;" horiz-adv-x="734" 
d="M587 637l16 75h148l-152 -712h-148l63 293h-278l-63 -293h-148l152 712h148l-16 -75h278zM281 507l-18 -84h278l18 84h-278z" />
    <glyph glyph-name="hbar" unicode="&#x127;" horiz-adv-x="598" 
d="M415 529q68 0 106.5 -38.5t38.5 -105.5q0 -25 -6 -52l-71 -333h-141l65 307q5 25 5 38q0 57 -60 57q-45 0 -79.5 -34t-47.5 -92l-59 -276h-141l121 567l-71 -2l23 104l69 -2l10 45h141l-10 -46l131 3l-23 -104l-129 3l-25 -120q63 81 153 81z" />
    <glyph glyph-name="Itilde" unicode="&#x128;" horiz-adv-x="308" 
d="M162 782h-108q39 178 156 178q38 0 79 -26q41 -27 66 -27q42 0 53 53h108q-37 -178 -156 -178q-38 0 -79 27q-41 26 -66 26q-42 0 -53 -53zM173 0h-148l152 712h148z" />
    <glyph glyph-name="itilde" unicode="&#x129;" horiz-adv-x="261" 
d="M97 586h-108q39 178 156 178q38 0 79 -26q40 -27 66 -27q42 0 53 53h108q-37 -178 -156 -178q-39 0 -79 27q-41 26 -66 26q-42 0 -53 -53zM146 0h-141l110 516h141z" />
    <glyph glyph-name="Imacron" unicode="&#x12a;" horiz-adv-x="308" 
d="M452 802h-363l23 105h363zM173 0h-148l152 712h148z" />
    <glyph glyph-name="imacron" unicode="&#x12b;" horiz-adv-x="261" 
d="M387 606h-363l23 105h363zM146 0h-141l110 516h141z" />
    <glyph glyph-name="Ibreve" unicode="&#x12c;" horiz-adv-x="308" 
d="M272 768q-157 0 -157 116q0 27 4 46h84q-1 -4 -1 -16q0 -54 78 -54q91 0 107 70h88q-21 -84 -67 -123t-136 -39zM173 0h-148l152 712h148z" />
    <glyph glyph-name="ibreve" unicode="&#x12d;" horiz-adv-x="261" 
d="M207 572q-157 0 -157 116q0 27 4 46h84q-1 -4 -1 -16q0 -54 78 -54q91 0 107 70h88q-21 -84 -67.5 -123t-135.5 -39zM146 0h-141l110 516h141z" />
    <glyph glyph-name="Iogonek" unicode="&#x12e;" horiz-adv-x="308" 
d="M173 0l-78 -72q-16 -15 -16 -32q0 -13 11 -21.5t29 -8.5h28l-18 -87h-73q-52 0 -81.5 22.5t-29.5 60.5q0 52 57 92l65 46h-42l152 712h148z" />
    <glyph glyph-name="iogonek" unicode="&#x12f;" horiz-adv-x="261" 
d="M129 584l28 128h141l-28 -128h-141zM40 0h-35l110 516h141l-110 -516l-78 -72q-16 -15 -16 -32q0 -13 11 -21.5t29 -8.5h28l-18 -87h-73q-52 0 -81.5 22.5t-29.5 60.5q0 52 57 92z" />
    <glyph glyph-name="Idot" unicode="&#x130;" horiz-adv-x="308" 
d="M336 780h-141l27 128h141zM173 0h-148l152 712h148z" />
    <glyph glyph-name="dotlessi" unicode="&#x131;" horiz-adv-x="261" 
d="M146 0h-141l110 516h141z" />
    <glyph glyph-name="IJ" unicode="&#x132;" horiz-adv-x="888" 
d="M173 0h-148l152 712h148zM541 -16q-97 0 -153.5 45t-56.5 123q0 27 20 115h140q-18 -72 -18 -98q0 -57 75 -57q43 0 67 21.5t34 68.5l108 510h148l-108 -508q-46 -220 -256 -220z" />
    <glyph glyph-name="ij" unicode="&#x133;" horiz-adv-x="522" 
d="M270 584h-141l28 128h141zM531 584h-141l27 128h141zM146 0h-141l110 516h141zM228 -204h-92l26 124h36q29 0 42 9t18 32l118 555h141l-122 -574q-17 -81 -53.5 -113.5t-113.5 -32.5z" />
    <glyph glyph-name="Jcircumflex" unicode="&#x134;" horiz-adv-x="590" 
d="M486 777h-132l152 147h130l88 -147h-118l-42 82zM243 -16q-97 0 -153.5 45t-56.5 123q0 27 20 115h140q-18 -72 -18 -98q0 -57 75 -57q43 0 67 21.5t34 68.5l108 510h148l-108 -508q-46 -220 -256 -220z" />
    <glyph glyph-name="jcircumflex" unicode="&#x135;" horiz-adv-x="261" 
d="M139 581h-132l152 147h130l88 -147h-118l-42 82zM-33 -204h-92l26 124h36q29 0 42 9t18 32l118 555h141l-122 -574q-17 -81 -53.5 -113.5t-113.5 -32.5z" />
    <glyph glyph-name="uni0136" unicode="&#x136;" horiz-adv-x="707" 
d="M567 712h199l-336 -295l217 -417h-173l-164 327l-81 -65l-56 -262h-148l152 712h148l-58 -273zM315 -154l-102 -9l22 103h157l-31 -148q-10 -49 -39.5 -71t-83.5 -22h-54l12 51h54q25 0 36.5 9t16.5 32z" />
    <glyph glyph-name="uni0137" unicode="&#x137;" horiz-adv-x="572" 
d="M426 516h182l-251 -213l145 -303h-155l-101 224l-64 -54l-36 -170h-141l152 712h141l-82 -382zM229 -154l-102 -9l22 103h157l-31 -148q-10 -49 -39.5 -71t-83.5 -22h-54l12 51h54q25 0 36.5 9t16.5 32z" />
    <glyph glyph-name="kgreenlandic" unicode="&#x138;" horiz-adv-x="572" 
d="M426 516h182l-251 -213l145 -303h-155l-101 224l-64 -54l-36 -170h-141l110 516h141l-40 -186z" />
    <glyph glyph-name="Lacute" unicode="&#x139;" horiz-adv-x="590" 
d="M223 908h172l-125 -141h-94zM325 712l-124 -580h347l-28 -132h-495l152 712h148z" />
    <glyph glyph-name="lacute" unicode="&#x13a;" horiz-adv-x="261" 
d="M247 767h-94l47 141h172zM146 0h-141l152 712h141z" />
    <glyph glyph-name="uni013B" unicode="&#x13b;" horiz-adv-x="590" 
d="M325 712l-124 -580h347l-28 -132h-495l152 712h148zM271 -154l-102 -9l22 103h157l-31 -148q-10 -49 -39.5 -71t-83.5 -22h-54l12 51h54q25 0 36.5 9t16.5 32z" />
    <glyph glyph-name="uni013C" unicode="&#x13c;" horiz-adv-x="261" 
d="M146 0h-141l152 712h141zM-13 -301h-54l12 51h54q25 0 36.5 9t16.5 32l12 55l-102 -9l22 103h157l-31 -148q-10 -49 -39.5 -71t-83.5 -22z" />
    <glyph glyph-name="Lcaron" unicode="&#x13d;" horiz-adv-x="590" 
d="M177 712h148l-124 -580h347l-28 -132h-495zM475 712h150l-136 -218h-109z" />
    <glyph glyph-name="lcaron" unicode="&#x13e;" horiz-adv-x="475" 
d="M146 0h-141l152 712h141zM436 494h-109l95 218h150z" />
    <glyph glyph-name="Ldot" unicode="&#x13f;" horiz-adv-x="590" 
d="M325 712l-124 -580h347l-28 -132h-495l152 712h148zM390 481h152l-32 -150h-152z" />
    <glyph glyph-name="ldot" unicode="&#x140;" horiz-adv-x="422" 
d="M146 0h-141l152 712h141zM412 285h-152l32 150h152z" />
    <glyph glyph-name="Lslash" unicode="&#x141;" horiz-adv-x="690" 
d="M617 443l-272 -104l-44 -207h347l-28 -132h-495l59 276l-181 -73l54 125l150 56l70 328h148l-57 -265l303 121z" />
    <glyph glyph-name="lslash" unicode="&#x142;" horiz-adv-x="424" 
d="M330 468l120 63l-28 -131l-118 -55l-74 -345h-141l57 266l-126 -66l28 131l124 57l69 324h141z" />
    <glyph glyph-name="Nacute" unicode="&#x143;" horiz-adv-x="735" 
d="M437 908h172l-125 -141h-94zM505 249l99 463h148l-152 -712h-135l-194 464l-98 -464h-148l152 712h135z" />
    <glyph glyph-name="nacute" unicode="&#x144;" horiz-adv-x="578" 
d="M318 712h172l-125 -141h-94zM395 529q68 0 106.5 -38.5t38.5 -105.5q0 -25 -6 -52l-71 -333h-141l65 307q5 25 5 38q0 57 -60 57q-43 0 -77 -31.5t-48 -85.5l-60 -285h-141l109 516h138l-12 -69q63 82 154 82z" />
    <glyph glyph-name="uni0145" unicode="&#x145;" horiz-adv-x="735" 
d="M505 249l99 463h148l-152 -712h-135l-194 464l-98 -464h-148l152 712h135zM301 -154l-102 -9l22 103h157l-31 -148q-10 -49 -39.5 -71t-83.5 -22h-54l12 51h54q25 0 36.5 9t16.5 32z" />
    <glyph glyph-name="uni0146" unicode="&#x146;" horiz-adv-x="578" 
d="M395 529q68 0 106.5 -38.5t38.5 -105.5q0 -25 -6 -52l-71 -333h-141l65 307q5 25 5 38q0 57 -60 57q-43 0 -77 -31.5t-48 -85.5l-60 -285h-141l109 516h138l-12 -69q63 82 154 82zM221 -154l-102 -9l22 103h157l-31 -148q-10 -49 -39.5 -71t-83.5 -22h-54l12 51h54
q25 0 36.5 9t16.5 32z" />
    <glyph glyph-name="Ncaron" unicode="&#x147;" horiz-adv-x="735" 
d="M692 914l-152 -147h-130l-88 147h116l42 -82l78 82h134zM505 249l99 463h148l-152 -712h-135l-194 464l-98 -464h-148l152 712h135z" />
    <glyph glyph-name="ncaron" unicode="&#x148;" horiz-adv-x="578" 
d="M573 718l-152 -147h-130l-88 147h116l42 -82l78 82h134zM395 529q68 0 106.5 -38.5t38.5 -105.5q0 -25 -6 -52l-71 -333h-141l65 307q5 25 5 38q0 57 -60 57q-43 0 -77 -31.5t-48 -85.5l-60 -285h-141l109 516h138l-12 -69q63 82 154 82z" />
    <glyph glyph-name="napostrophe" unicode="&#x149;" horiz-adv-x="830" 
d="M95 562l32 150h163l-36 -168q-30 -141 -185 -141h-8l14 64h8q83 0 97 74l4 21h-89zM647 529q68 0 106.5 -38.5t38.5 -105.5q0 -25 -6 -52l-71 -333h-141l65 307q5 25 5 38q0 57 -60 57q-43 0 -77 -31.5t-48 -85.5l-60 -285h-141l109 516h138l-12 -69q63 82 154 82z" />
    <glyph glyph-name="Eng" unicode="&#x14a;" horiz-adv-x="736" 
d="M604 712h148l-139 -656l-24 -114q-17 -78 -55.5 -112t-111.5 -34h-99l26 124h36q29 0 42 9t18 32l9 44l-183 452l-97 -457h-148l151 712h145l185 -458z" />
    <glyph glyph-name="eng" unicode="&#x14b;" horiz-adv-x="578" 
d="M395 529q68 0 106.5 -38.5t38.5 -105.5q0 -25 -6 -52l-83 -391q-16 -78 -55 -112t-112 -34h-92l26 124h36q29 0 42 8.5t18 32.5l73 346q5 25 5 38q0 57 -60 57q-43 0 -77 -31.5t-48 -85.5l-60 -285h-141l109 516h138l-12 -69q63 82 154 82z" />
    <glyph glyph-name="Omacron" unicode="&#x14c;" horiz-adv-x="746" 
d="M650 802h-363l23 105h363zM336 -23q-130 0 -208 80q-79 79 -79 214q0 52 10 99q33 165 143 263q110 96 256 96q126 0 204 -78q77 -79 77 -211q0 -49 -10 -96q-36 -178 -139.5 -272.5t-253.5 -94.5zM348 105q86 0 149 69t87 183q7 32 7 69q0 82 -39.5 128.5t-110.5 46.5
q-88 0 -152 -67q-66 -69 -85 -177q-8 -48 -8 -79q0 -82 39 -127.5t113 -45.5z" />
    <glyph glyph-name="omacron" unicode="&#x14d;" horiz-adv-x="592" 
d="M553 606h-363l23 105h363zM256 -17q-103 0 -165 62q-63 61 -63 161q0 28 6 60q23 118 104 190q80 73 201 73q103 0 164 -61q60 -62 60 -159q0 -30 -6 -63q-24 -123 -103 -193t-198 -70zM264 93q61 0 104.5 44.5t54.5 118.5q3 22 3 42q0 57 -26 89t-74 32
q-59 0 -101.5 -44t-56.5 -119q-5 -32 -5 -48q0 -54 26.5 -84.5t74.5 -30.5z" />
    <glyph glyph-name="Obreve" unicode="&#x14e;" horiz-adv-x="746" 
d="M470 768q-157 0 -157 116q0 27 4 46h84q-1 -4 -1 -16q0 -54 78 -54q91 0 107 70h88q-21 -84 -67 -123t-136 -39zM336 -23q-130 0 -208 80q-79 79 -79 214q0 52 10 99q33 165 143 263q110 96 256 96q126 0 204 -78q77 -79 77 -211q0 -49 -10 -96q-36 -178 -139.5 -272.5
t-253.5 -94.5zM348 105q86 0 149 69t87 183q7 32 7 69q0 82 -39.5 128.5t-110.5 46.5q-88 0 -152 -67q-66 -69 -85 -177q-8 -48 -8 -79q0 -82 39 -127.5t113 -45.5z" />
    <glyph glyph-name="obreve" unicode="&#x14f;" horiz-adv-x="592" 
d="M373 572q-157 0 -157 116q0 27 4 46h84q-1 -4 -1 -16q0 -54 78 -54q91 0 107 70h88q-21 -84 -67.5 -123t-135.5 -39zM256 -17q-103 0 -165 62q-63 61 -63 161q0 28 6 60q23 118 104 190q80 73 201 73q103 0 164 -61q60 -62 60 -159q0 -30 -6 -63q-24 -123 -103 -193
t-198 -70zM264 93q61 0 104.5 44.5t54.5 118.5q3 22 3 42q0 57 -26 89t-74 32q-59 0 -101.5 -44t-56.5 -119q-5 -32 -5 -48q0 -54 26.5 -84.5t74.5 -30.5z" />
    <glyph glyph-name="Ohungarumlaut" unicode="&#x150;" horiz-adv-x="746" 
d="M392 767h-94l57 156h153zM592 767h-94l67 156h152zM336 -23q-130 0 -208 80q-79 79 -79 214q0 52 10 99q33 165 143 263q110 96 256 96q126 0 204 -78q77 -79 77 -211q0 -49 -10 -96q-36 -178 -139.5 -272.5t-253.5 -94.5zM348 105q86 0 149 69t87 183q7 32 7 69
q0 82 -39.5 128.5t-110.5 46.5q-88 0 -152 -67q-66 -69 -85 -177q-8 -48 -8 -79q0 -82 39 -127.5t113 -45.5z" />
    <glyph glyph-name="ohungarumlaut" unicode="&#x151;" horiz-adv-x="592" 
d="M295 571h-94l57 156h153zM495 571h-94l67 156h152zM256 -17q-103 0 -165 62q-63 61 -63 161q0 28 6 60q23 118 104 190q80 73 201 73q103 0 164 -61q60 -62 60 -159q0 -30 -6 -63q-24 -123 -103 -193t-198 -70zM264 93q61 0 104.5 44.5t54.5 118.5q3 22 3 42q0 57 -26 89
t-74 32q-59 0 -101.5 -44t-56.5 -119q-5 -32 -5 -48q0 -54 26.5 -84.5t74.5 -30.5z" />
    <glyph glyph-name="OE" unicode="&#x152;" horiz-adv-x="1131" 
d="M1178 712l-27 -125h-370l-33 -154h333l-27 -127h-333l-38 -181h380l-27 -125h-528l13 59q-92 -82 -209 -82q-116 0 -189 78q-75 78 -75 211q0 52 10 99q33 164 140 265q106 99 239 99q137 0 205 -101l18 84h518zM347 105q86 0 149 69t87 183q7 32 7 69q0 82 -39.5 128.5
t-110.5 46.5q-88 0 -152 -67q-66 -69 -85 -177q-8 -48 -8 -79q0 -82 39 -127.5t113 -45.5z" />
    <glyph glyph-name="oe" unicode="&#x153;" horiz-adv-x="983" 
d="M941 216h-375q-1 -6 -1 -26q0 -47 25 -72.5t71 -25.5q74 0 114 67l138 -10q-89 -167 -262 -167q-126 0 -188 83q-85 -82 -203 -82q-104 0 -168 61q-65 62 -65 157q0 134 94 231q93 97 224 97q122 0 185 -84q88 84 207 84q98 0 159 -55t61 -150q0 -54 -16 -108zM725 426
q-48 0 -84 -30.5t-55 -83.5h229q1 4 1 18q0 46 -24 71t-67 25zM266 93q75 0 121 66q45 66 45 150q0 51 -26.5 80.5t-74.5 29.5q-73 0 -120 -65q-47 -67 -47 -146q0 -55 27 -85t75 -30z" />
    <glyph glyph-name="Racute" unicode="&#x154;" horiz-adv-x="692" 
d="M400 908h172l-125 -141h-94zM692 544q0 -83 -45.5 -135.5t-130.5 -69.5q77 -26 77 -121q0 -3 -2 -39l-14 -179h-145l15 163q2 34 2 37q0 42 -21.5 59t-68.5 17h-127l-59 -276h-148l152 712h308q104 0 155.5 -45.5t51.5 -122.5zM258 396h138q66 0 105.5 33.5t39.5 89.5
q0 69 -95 69h-147z" />
    <glyph glyph-name="racute" unicode="&#x155;" horiz-adv-x="399" 
d="M235 712h172l-125 -141h-94zM370 534q28 0 46 -7l-27 -130q-15 3 -30 3q-127 0 -159 -149l-53 -251h-141l109 516h134l-11 -65q53 83 132 83z" />
    <glyph glyph-name="uni0156" unicode="&#x156;" horiz-adv-x="692" 
d="M692 544q0 -83 -45.5 -135.5t-130.5 -69.5q77 -26 77 -121q0 -3 -2 -39l-14 -179h-145l15 163q2 34 2 37q0 42 -21.5 59t-68.5 17h-127l-59 -276h-148l152 712h308q104 0 155.5 -45.5t51.5 -122.5zM258 396h138q66 0 105.5 33.5t39.5 89.5q0 69 -95 69h-147zM295 -154
l-102 -9l22 103h157l-31 -148q-10 -49 -39.5 -71t-83.5 -22h-54l12 51h54q25 0 36.5 9t16.5 32z" />
    <glyph glyph-name="uni0157" unicode="&#x157;" horiz-adv-x="399" 
d="M370 534q28 0 46 -7l-27 -130q-15 3 -30 3q-127 0 -159 -149l-53 -251h-141l109 516h134l-11 -65q53 83 132 83zM62 -154l-102 -9l22 103h157l-31 -148q-10 -49 -39.5 -71t-83.5 -22h-54l12 51h54q25 0 36.5 9t16.5 32z" />
    <glyph glyph-name="Rcaron" unicode="&#x158;" horiz-adv-x="692" 
d="M655 914l-152 -147h-130l-88 147h116l42 -82l78 82h134zM692 544q0 -83 -45.5 -135.5t-130.5 -69.5q77 -26 77 -121q0 -3 -2 -39l-14 -179h-145l15 163q2 34 2 37q0 42 -21.5 59t-68.5 17h-127l-59 -276h-148l152 712h308q104 0 155.5 -45.5t51.5 -122.5zM258 396h138
q66 0 105.5 33.5t39.5 89.5q0 69 -95 69h-147z" />
    <glyph glyph-name="rcaron" unicode="&#x159;" horiz-adv-x="399" 
d="M490 718l-152 -147h-130l-88 147h116l42 -82l78 82h134zM249 516l-11 -65q53 83 132 83q28 0 46 -7l-27 -130q-15 3 -30 3q-127 0 -159 -149l-53 -251h-141l109 516h134z" />
    <glyph glyph-name="Sacute" unicode="&#x15a;" horiz-adv-x="681" 
d="M433 767h-94l47 141h172zM306 -23q-124 0 -196.5 54t-72.5 151q0 18 3 39h143q-1 -5 -1 -20q0 -50 34 -76.5t97 -26.5q72 0 111.5 25.5t39.5 73.5q0 30 -20 45.5t-71 31.5l-105 32q-71 22 -111.5 69t-40.5 115q0 114 77 176t216 62q121 0 191.5 -56t70.5 -154
q0 -19 -1 -24h-142q1 5 1 15q0 47 -34 72.5t-94 25.5q-62 0 -97 -25.5t-35 -68.5q0 -53 66 -72l124 -35q160 -45 160 -183q0 -119 -82 -182.5t-231 -63.5z" />
    <glyph glyph-name="sacute" unicode="&#x15b;" horiz-adv-x="540" 
d="M348 571h-94l47 141h172zM233 -19q-103 0 -158 45.5t-55 127.5l128 5q0 -80 97 -80q48 0 74 15.5t26 43.5q0 20 -13 31t-45 19l-85 21q-62 16 -95.5 52t-33.5 87q0 86 62.5 133.5t167.5 47.5q93 0 146 -44.5t53 -120.5l-124 -4q0 34 -22.5 52.5t-62.5 18.5q-39 0 -62 -16
t-23 -45q0 -38 53 -49l81 -18q138 -31 138 -140q0 -90 -65 -136t-182 -46z" />
    <glyph glyph-name="Scircumflex" unicode="&#x15c;" horiz-adv-x="681" 
d="M367 777h-132l152 147h130l88 -147h-118l-42 82zM306 -23q-124 0 -196.5 54t-72.5 151q0 18 3 39h143q-1 -5 -1 -20q0 -50 34 -76.5t97 -26.5q72 0 111.5 25.5t39.5 73.5q0 30 -20 45.5t-71 31.5l-105 32q-71 22 -111.5 69t-40.5 115q0 114 77 176t216 62
q121 0 191.5 -56t70.5 -154q0 -19 -1 -24h-142q1 5 1 15q0 47 -34 72.5t-94 25.5q-62 0 -97 -25.5t-35 -68.5q0 -53 66 -72l124 -35q160 -45 160 -183q0 -119 -82 -182.5t-231 -63.5z" />
    <glyph glyph-name="scircumflex" unicode="&#x15d;" horiz-adv-x="540" 
d="M282 581h-132l152 147h130l88 -147h-118l-42 82zM233 -19q-103 0 -158 45.5t-55 127.5l128 5q0 -80 97 -80q48 0 74 15.5t26 43.5q0 20 -13 31t-45 19l-85 21q-62 16 -95.5 52t-33.5 87q0 86 62.5 133.5t167.5 47.5q93 0 146 -44.5t53 -120.5l-124 -4q0 34 -22.5 52.5
t-62.5 18.5q-39 0 -62 -16t-23 -45q0 -38 53 -49l81 -18q138 -31 138 -140q0 -90 -65 -136t-182 -46z" />
    <glyph glyph-name="Scedilla" unicode="&#x15e;" horiz-adv-x="681" 
d="M670 494h-142q1 5 1 15q0 47 -34 72.5t-94 25.5q-62 0 -97 -25.5t-35 -68.5q0 -53 66 -72l124 -35q160 -45 160 -183q0 -112 -72 -174.5t-204 -70.5l-40 -46h11q38 0 60.5 -21.5t22.5 -58.5q0 -52 -47 -83t-120 -31h-59l14 64h40q62 0 62 34q0 22 -33 22h-17l-36 52
l59 69q-104 10 -163.5 62.5t-59.5 140.5q0 18 3 39h143q-1 -5 -1 -20q0 -50 34 -76.5t97 -26.5q72 0 111.5 25.5t39.5 73.5q0 30 -20 45.5t-71 31.5l-105 32q-71 22 -111.5 69t-40.5 115q0 114 77 176t216 62q121 0 191.5 -56t70.5 -154q0 -19 -1 -24z" />
    <glyph glyph-name="scedilla" unicode="&#x15f;" horiz-adv-x="540" 
d="M261 321l81 -18q138 -31 138 -140q0 -80 -53 -126t-149 -54l-44 -50h11q38 0 60.5 -21.5t22.5 -58.5q0 -52 -47 -83t-120 -31h-59l14 64h40q62 0 62 34q0 22 -33 22h-17l-36 52l61 72q-84 8 -128.5 52t-44.5 119l128 5q0 -80 97 -80q48 0 74 15.5t26 43.5q0 20 -13 31
t-45 19l-85 21q-62 16 -95.5 52t-33.5 87q0 86 62.5 133.5t167.5 47.5q93 0 146 -44.5t53 -120.5l-124 -4q0 34 -22.5 52.5t-62.5 18.5q-39 0 -62 -16t-23 -45q0 -38 53 -49z" />
    <glyph glyph-name="Scaron" unicode="&#x160;" horiz-adv-x="681" 
d="M489 767h-130l-88 147h116l42 -82l78 82h134zM306 -23q-124 0 -196.5 54t-72.5 151q0 18 3 39h143q-1 -5 -1 -20q0 -50 34 -76.5t97 -26.5q72 0 111.5 25.5t39.5 73.5q0 30 -20 45.5t-71 31.5l-105 32q-71 22 -111.5 69t-40.5 115q0 114 77 176t216 62q121 0 191.5 -56
t70.5 -154q0 -19 -1 -24h-142q1 5 1 15q0 47 -34 72.5t-94 25.5q-62 0 -97 -25.5t-35 -68.5q0 -53 66 -72l124 -35q160 -45 160 -183q0 -119 -82 -182.5t-231 -63.5z" />
    <glyph glyph-name="scaron" unicode="&#x161;" horiz-adv-x="540" 
d="M404 571h-130l-88 147h116l42 -82l78 82h134zM233 -19q-103 0 -158 45.5t-55 127.5l128 5q0 -80 97 -80q48 0 74 15.5t26 43.5q0 20 -13 31t-45 19l-85 21q-62 16 -95.5 52t-33.5 87q0 86 62.5 133.5t167.5 47.5q93 0 146 -44.5t53 -120.5l-124 -4q0 34 -22.5 52.5
t-62.5 18.5q-39 0 -62 -16t-23 -45q0 -38 53 -49l81 -18q138 -31 138 -140q0 -90 -65 -136t-182 -46z" />
    <glyph glyph-name="uni0162" unicode="&#x162;" horiz-adv-x="616" 
d="M451 580l-124 -580h-27l-50 -57h11q38 0 60.5 -21.5t22.5 -58.5q0 -52 -47 -83t-120 -31h-59l14 64h40q62 0 62 34q0 22 -33 22h-17l-36 52l67 79h-36l124 580h-214l28 132h575l-28 -132h-213z" />
    <glyph glyph-name="uni0163" unicode="&#x163;" horiz-adv-x="352" 
d="M260 415l-9 -44l-43 -200q-4 -17 -4 -27q0 -31 40 -31h47l-24 -113h-78l-39 -45h11q38 0 60.5 -21.5t22.5 -58.5q0 -52 -47 -83t-120 -31h-59l14 64h40q62 0 62 34q0 22 -33 22h-17l-36 52l67 79q-59 24 -59 92q0 16 5 41l49 229l9 41l-71 -3l22 104l70 -3l10 47l24 115
h141l-24 -114l-10 -48l96 3l-22 -104z" />
    <glyph glyph-name="Tcaron" unicode="&#x164;" horiz-adv-x="616" 
d="M632 914l-152 -147h-130l-88 147h116l42 -82l78 82h134zM117 712h575l-28 -132h-213l-124 -580h-148l124 580h-214z" />
    <glyph glyph-name="tcaron" unicode="&#x165;" horiz-adv-x="419" 
d="M347 571l95 218h150l-136 -218h-109zM315 675l-24 -114l-10 -48l96 3l-22 -104l-95 3l-9 -44l-43 -200q-4 -17 -4 -27q0 -31 40 -31h47l-24 -113h-82q-129 0 -129 104q0 16 5 41l49 229l9 41l-71 -3l22 104l70 -3l10 47l24 115h141z" />
    <glyph glyph-name="Tbar" unicode="&#x166;" horiz-adv-x="616" 
d="M692 712l-28 -132h-213l-39 -180l193 4l-28 -132l-191 4l-59 -276h-148l59 276l-191 -4l28 132l189 -4l39 180h-214l28 132h575z" />
    <glyph glyph-name="tbar" unicode="&#x167;" horiz-adv-x="368" 
d="M393 516l-22 -104l-95 3l-21 -99l95 3l-22 -104l-94 3l-10 -47q-4 -17 -4 -27q0 -31 40 -31h47l-24 -113h-82q-129 0 -129 104q0 16 5 41l15 73l-71 -3l22 104l71 -3l20 98l-70 -2l22 104l70 -3l34 162h141l-34 -162z" />
    <glyph glyph-name="Utilde" unicode="&#x168;" horiz-adv-x="713" 
d="M354 782h-108q39 178 156 178q38 0 79 -26q41 -27 66 -27q42 0 53 53h108q-37 -178 -156 -178q-38 0 -79 27q-41 26 -66 26q-42 0 -53 -53zM317 -23q-117 0 -183 51t-66 143q0 26 6 58l103 483h148l-105 -495q-4 -15 -4 -33q0 -79 109 -79q128 0 152 112l105 495h148
l-105 -493q-53 -242 -308 -242z" />
    <glyph glyph-name="utilde" unicode="&#x169;" horiz-adv-x="578" 
d="M298 639q-42 0 -53 -53h-108q39 178 156 178q38 0 79 -26q40 -27 66 -27q42 0 53 53h108q-37 -178 -156 -178q-39 0 -79 27q-41 26 -66 26zM371 231l60 285h141l-109 -516h-138l12 69q-63 -82 -154 -82q-68 0 -106.5 38.5t-38.5 105.5q0 25 6 52l71 333h141l-65 -307
q-5 -25 -5 -38q0 -57 60 -57q43 0 77 31.5t48 85.5z" />
    <glyph glyph-name="Umacron" unicode="&#x16a;" horiz-adv-x="713" 
d="M644 802h-363l23 105h363zM317 -23q-117 0 -183 51t-66 143q0 26 6 58l103 483h148l-105 -495q-4 -15 -4 -33q0 -79 109 -79q128 0 152 112l105 495h148l-105 -493q-53 -242 -308 -242z" />
    <glyph glyph-name="umacron" unicode="&#x16b;" horiz-adv-x="578" 
d="M195 711h363l-23 -105h-363zM371 231l60 285h141l-109 -516h-138l12 69q-63 -82 -154 -82q-68 0 -106.5 38.5t-38.5 105.5q0 25 6 52l71 333h141l-65 -307q-5 -25 -5 -38q0 -57 60 -57q43 0 77 31.5t48 85.5z" />
    <glyph glyph-name="Ubreve" unicode="&#x16c;" horiz-adv-x="713" 
d="M464 768q-157 0 -157 116q0 27 4 46h84q-1 -4 -1 -16q0 -54 78 -54q91 0 107 70h88q-21 -84 -67 -123t-136 -39zM317 -23q-117 0 -183 51t-66 143q0 26 6 58l103 483h148l-105 -495q-4 -15 -4 -33q0 -79 109 -79q128 0 152 112l105 495h148l-105 -493q-53 -242 -308 -242
z" />
    <glyph glyph-name="ubreve" unicode="&#x16d;" horiz-adv-x="578" 
d="M355 572q-157 0 -157 116q0 27 4 46h84q-1 -4 -1 -16q0 -54 78 -54q91 0 107 70h88q-21 -84 -67.5 -123t-135.5 -39zM371 231l60 285h141l-109 -516h-138l12 69q-63 -82 -154 -82q-68 0 -106.5 38.5t-38.5 105.5q0 25 6 52l71 333h141l-65 -307q-5 -25 -5 -38
q0 -57 60 -57q43 0 77 31.5t48 85.5z" />
    <glyph glyph-name="Uring" unicode="&#x16e;" horiz-adv-x="713" 
d="M582 809q-42 -42 -106 -42t-106 42q-42 41 -42 105t42 106t106 42t106 -42t42 -106t-42 -105zM426 863q20 -19 51 -19t50 19t19 51t-19 52t-50 20t-51 -20t-20 -52t20 -51zM317 -23q-117 0 -183 51t-66 143q0 26 6 58l103 483h148l-105 -495q-4 -15 -4 -33q0 -79 109 -79
q128 0 152 112l105 495h148l-105 -493q-53 -242 -308 -242z" />
    <glyph glyph-name="uring" unicode="&#x16f;" horiz-adv-x="578" 
d="M483 613q-42 -42 -106 -42t-106 42q-42 41 -42 105t42 106t106 42t106 -42t42 -106t-42 -105zM428 770q-20 20 -51 20t-50 -20t-19 -52t19 -51t50 -19t51 19t20 51t-20 52zM371 231l60 285h141l-109 -516h-138l12 69q-63 -82 -154 -82q-68 0 -106.5 38.5t-38.5 105.5
q0 25 6 52l71 333h141l-65 -307q-5 -25 -5 -38q0 -57 60 -57q43 0 77 31.5t48 85.5z" />
    <glyph glyph-name="Uhungarumlaut" unicode="&#x170;" horiz-adv-x="713" 
d="M386 767h-94l57 156h153zM586 767h-94l67 156h152zM317 -23q-117 0 -183 51t-66 143q0 26 6 58l103 483h148l-105 -495q-4 -15 -4 -33q0 -79 109 -79q128 0 152 112l105 495h148l-105 -493q-53 -242 -308 -242z" />
    <glyph glyph-name="uhungarumlaut" unicode="&#x171;" horiz-adv-x="578" 
d="M240 727h153l-116 -156h-94zM602 727l-125 -156h-94l67 156h152zM371 231l60 285h141l-109 -516h-138l12 69q-63 -82 -154 -82q-68 0 -106.5 38.5t-38.5 105.5q0 25 6 52l71 333h141l-65 -307q-5 -25 -5 -38q0 -57 60 -57q43 0 77 31.5t48 85.5z" />
    <glyph glyph-name="Uogonek" unicode="&#x172;" horiz-adv-x="713" 
d="M477 217l105 495h148l-105 -493q-40 -192 -209 -231l-59 -43q-31 -22 -39.5 -32.5t-8.5 -26.5q0 -31 44 -31h36l-18 -87h-83q-51 0 -81 23t-30 61q0 37 20.5 60.5t73.5 55.5l16 10q-103 6 -161 56.5t-58 136.5q0 26 6 58l103 483h148l-105 -495q-4 -15 -4 -33
q0 -79 109 -79q128 0 152 112z" />
    <glyph glyph-name="uogonek" unicode="&#x173;" horiz-adv-x="578" 
d="M463 0l-61 -44q-31 -22 -39.5 -32.5t-8.5 -26.5q0 -31 44 -31h36l-18 -87h-83q-51 0 -81 23t-30 61q0 30 14 50q14 19 22 26q12 11 29 22q16 11 17 11q8 8 38 23l8 5h-25l12 69q-63 -82 -154 -82q-68 0 -106.5 38.5t-38.5 105.5q0 25 6 52l71 333h141l-65 -307
q-5 -25 -5 -38q0 -57 60 -57q43 0 77 31.5t48 85.5l60 285h141z" />
    <glyph glyph-name="Wcircumflex" unicode="&#x174;" horiz-adv-x="971" 
d="M637 777l-42 82l-78 -82h-132l152 147h130l88 -147h-118zM716 356l170 356h157l-355 -712h-142l-13 486l-206 -486h-144l-61 712h147l21 -356l4 -143l57 143l156 356h141l9 -356l-4 -142z" />
    <glyph glyph-name="wcircumflex" unicode="&#x175;" horiz-adv-x="772" 
d="M507 581l-42 82l-78 -82h-132l152 147h130l88 -147h-118zM547 287l106 229h154l-263 -516h-137l-13 287l-2 58l-23 -58l-131 -287h-135l-43 516h136l14 -229l3 -113l45 113l107 229h125l10 -227l3 -115z" />
    <glyph glyph-name="Ycircumflex" unicode="&#x176;" horiz-adv-x="656" 
d="M498 777l-42 82l-78 -82h-132l152 147h130l88 -147h-118zM565 712h170l-329 -436l-59 -276h-148l59 277l-143 435h152l61 -221l19 -99l61 99z" />
    <glyph glyph-name="ycircumflex" unicode="&#x177;" horiz-adv-x="551" 
d="M399 581l-42 82l-78 -82h-132l152 147h130l88 -147h-118zM246 155l184 361h156l-326 -600q-37 -66 -77.5 -93t-103.5 -27h-118l26 120h68q58 0 82 44l10 18l-87 538h143l39 -290z" />
    <glyph glyph-name="Ydieresis" unicode="&#x178;" horiz-adv-x="656" 
d="M291 908h141l-28 -128h-141zM502 908h141l-28 -128h-141zM565 712h170l-329 -436l-59 -276h-148l59 277l-143 435h152l61 -221l19 -99l61 99z" />
    <glyph glyph-name="Zacute" unicode="&#x179;" horiz-adv-x="702" 
d="M420 908h172l-125 -141h-94zM179 712h564l-25 -115l-492 -471h392l-27 -126h-590l26 115l492 471h-367z" />
    <glyph glyph-name="zacute" unicode="&#x17a;" horiz-adv-x="490" 
d="M280 712h172l-125 -141h-94zM107 516h403l-25 -115l-325 -290h274l-24 -111h-445l24 113l332 292h-238z" />
    <glyph glyph-name="Zdotaccent" unicode="&#x17b;" horiz-adv-x="702" 
d="M419 908h141l-27 -128h-141zM179 712h564l-25 -115l-492 -471h392l-27 -126h-590l26 115l492 471h-367z" />
    <glyph glyph-name="zdotaccent" unicode="&#x17c;" horiz-adv-x="490" 
d="M279 712h141l-27 -128h-141zM107 516h403l-25 -115l-325 -290h274l-24 -111h-445l24 113l332 292h-238z" />
    <glyph glyph-name="Zcaron" unicode="&#x17d;" horiz-adv-x="702" 
d="M675 914l-152 -147h-130l-88 147h116l42 -82l78 82h134zM179 712h564l-25 -115l-492 -471h392l-27 -126h-590l26 115l492 471h-367z" />
    <glyph glyph-name="zcaron" unicode="&#x17e;" horiz-adv-x="490" 
d="M535 718l-152 -147h-130l-88 147h116l42 -82l78 82h134zM321 405h-238l24 111h403l-25 -115l-325 -290h274l-24 -111h-445l24 113z" />
    <glyph glyph-name="uni018F" unicode="&#x18f;" horiz-adv-x="745" 
d="M457 729q126 0 204 -78q77 -79 77 -211q0 -49 -10 -96q-36 -178 -139.5 -272.5t-253.5 -94.5q-130 0 -208 80q-79 79 -79 214q0 48 14 115h525q3 23 3 40q0 82 -39.5 128.5t-110.5 46.5q-94 0 -160 -76h-166q55 97 145 150.5t198 53.5zM347 105q68 0 122.5 42t85.5 115
h-360q4 -75 43 -116t109 -41z" />
    <glyph glyph-name="florin" unicode="&#x192;" horiz-adv-x="660" 
d="M601 712h74l-50 -123h-31q-58 0 -82 -59l-39 -95l81 2l-42 -104l-79 2l-136 -335q-32 -80 -92 -122.5t-140 -42.5h-73l51 123h29q58 0 82 59l129 319l-88 -3l42 104l86 -3l46 113q32 80 92 122.5t140 42.5z" />
    <glyph glyph-name="uni01F4" unicode="&#x1f4;" horiz-adv-x="757" 
d="M419 908h172l-125 -141h-94zM407 385h297l-82 -385h-96l-6 73q-75 -89 -209 -89q-117 0 -190 78q-73 77 -73 209q0 48 10 95q34 168 146 266q110 96 252 96q123 0 194 -64t71 -177l-146 -9q0 58 -32.5 90t-94.5 32q-92 0 -156 -67t-87 -174q-9 -42 -9 -85
q0 -81 37.5 -125t109.5 -44q70 0 125 41t82 115h-169z" />
    <glyph glyph-name="uni01F5" unicode="&#x1f5;" horiz-adv-x="593" 
d="M325 712h172l-125 -141h-94zM443 446l20 70h125l-111 -522q-24 -108 -87.5 -159t-182.5 -51q-220 0 -220 174h130q0 -69 96 -69q56 0 83.5 24t39.5 79l15 71q-63 -63 -146 -63q-79 0 -127.5 55t-48.5 147q-3 130 74 229t194 98q102 0 146 -83zM254 120q67 0 111 59
q42 59 42 134q0 48 -24.5 75.5t-66.5 27.5q-68 0 -108 -60q-42 -60 -42 -140q0 -45 23 -70.5t65 -25.5z" />
    <glyph glyph-name="Aringacute" unicode="&#x1fa;" horiz-adv-x="719" 
d="M479 1109h172l-125 -141h-94zM607 783q0 -77 -57 -118l89 -665h-153l-17 148h-258l-79 -148h-162l381 679q-40 41 -40 104q0 64 42 106t106 42t106 -42t42 -106zM510 835q-20 19 -51 19t-50 -19t-19 -51.5t19 -51.5t50 -19t51 19t20 51.5t-20 51.5zM324 358l-47 -88h179
l-10 88l-18 205z" />
    <glyph glyph-name="aringacute" unicode="&#x1fb;" horiz-adv-x="557" 
d="M378 1042h172l-125 -141h-94zM268 822q42 42 106 42t106 -42t42 -106t-42 -105q-42 -42 -106 -42t-106 42q-42 41 -42 105t42 106zM324 665q20 -19 51 -19t50 19t19 51t-19 52t-50 20t-51 -20t-20 -52t20 -51zM328 528q94 0 143.5 -35.5t49.5 -103.5q0 -24 -7 -53
l-49 -228q-9 -40 -9 -69q0 -23 6 -39h-131v58q-64 -73 -168 -73q-74 0 -118.5 37t-44.5 98q0 145 193 178l184 32l4 22q3 16 3 25q0 51 -74 51q-44 0 -68 -15.5t-37 -52.5l-128 4q22 85 83 124.5t168 39.5zM217 89q43 0 79 25.5t51 69.5l12 58l-136 -26q-80 -15 -80 -74
q0 -53 74 -53z" />
    <glyph glyph-name="AEacute" unicode="&#x1fc;" horiz-adv-x="1145" 
d="M808 908h172l-125 -141h-94zM1192 712l-27 -125h-370l-33 -154h333l-27 -127h-333l-38 -181h380l-27 -125h-528l38 179h-280l-146 -179h-164l581 712h641zM609 584l-228 -280h206l60 280h-38z" />
    <glyph glyph-name="aeacute" unicode="&#x1fd;" horiz-adv-x="914" 
d="M486 712h172l-125 -141h-94zM872 215h-373q-2 -24 -2 -25q0 -47 25 -72.5t71 -25.5q73 0 112 64l135 -16q-89 -158 -267 -158q-147 0 -187 108q-82 -105 -223 -105q-79 0 -122 33t-43 91q0 86 63 139q64 53 161 53h150l8 37q5 23 5 35q0 55 -77 55q-79 0 -103 -68l-128 2
q49 166 247 166q135 0 166 -75q85 76 203 76q95 0 145 -51t50 -145q0 -55 -16 -118zM657 426q-49 0 -86 -32.5t-55 -92.5h229q2 18 2 28q0 48 -23.5 72.5t-66.5 24.5zM209 89q52 0 91 31.5t51 85.5l3 11h-115q-48 0 -74 -23t-26 -56q0 -23 18.5 -36t51.5 -13z" />
    <glyph glyph-name="Oslashacute" unicode="&#x1fe;" horiz-adv-x="746" 
d="M421 908h172l-125 -141h-94zM717 743l63 -53l-82 -86q41 -70 41 -164q0 -49 -10 -96q-36 -178 -139.5 -272.5t-253.5 -94.5q-111 0 -185 58l-80 -83l-63 53l88 91q-47 74 -47 175q0 52 10 99q33 165 143 263q110 96 256 96q112 0 186 -62zM196 278q0 -38 9 -68l339 352
q-41 39 -103 39q-88 0 -152 -67q-66 -69 -85 -177q-8 -48 -8 -79zM584 357q15 74 0 129l-335 -349q38 -32 99 -32q86 0 149 69t87 183z" />
    <glyph glyph-name="oslashacute" unicode="&#x1ff;" horiz-adv-x="592" 
d="M324 712h172l-125 -141h-94zM546 534l51 -54l-61 -56q27 -50 27 -115q0 -30 -6 -63q-24 -123 -103 -193t-198 -70q-88 0 -147 46l-56 -52l-51 54l58 53q-32 53 -32 122q0 28 6 60q23 118 104 190q80 73 201 73q89 0 150 -48zM163 208q0 -4 2 -26l229 212q-25 25 -68 25
q-59 0 -101.5 -44t-56.5 -119q-5 -32 -5 -48zM426 298q0 18 -1 23l-225 -208q26 -20 64 -20q61 0 104.5 44.5t54.5 118.5q3 22 3 42z" />
    <glyph glyph-name="uni0218" unicode="&#x218;" horiz-adv-x="681" 
d="M306 -23q-124 0 -196.5 54t-72.5 151q0 18 3 39h143q-1 -5 -1 -20q0 -50 34 -76.5t97 -26.5q72 0 111.5 25.5t39.5 73.5q0 30 -20 45.5t-71 31.5l-105 32q-71 22 -111.5 69t-40.5 115q0 114 77 176t216 62q121 0 191.5 -56t70.5 -154q0 -19 -1 -24h-142q1 5 1 15
q0 47 -34 72.5t-94 25.5q-62 0 -97 -25.5t-35 -68.5q0 -53 66 -72l124 -35q160 -45 160 -183q0 -119 -82 -182.5t-231 -63.5zM217 -312h-54l12 51h54q25 0 36.5 9t16.5 32l12 55l-102 -9l22 103h157l-31 -148q-10 -49 -39.5 -71t-83.5 -22z" />
    <glyph glyph-name="uni0219" unicode="&#x219;" horiz-adv-x="540" 
d="M233 -19q-103 0 -158 45.5t-55 127.5l128 5q0 -80 97 -80q48 0 74 15.5t26 43.5q0 20 -13 31t-45 19l-85 21q-62 16 -95.5 52t-33.5 87q0 86 62.5 133.5t167.5 47.5q93 0 146 -44.5t53 -120.5l-124 -4q0 34 -22.5 52.5t-62.5 18.5q-39 0 -62 -16t-23 -45q0 -38 53 -49
l81 -18q138 -31 138 -140q0 -90 -65 -136t-182 -46zM150 -301h-54l12 51h54q25 0 36.5 9t16.5 32l12 55l-102 -9l22 103h157l-31 -148q-10 -49 -39.5 -71t-83.5 -22z" />
    <glyph glyph-name="uni021A" unicode="&#x21a;" horiz-adv-x="616" 
d="M117 712h575l-28 -132h-213l-124 -580h-148l124 580h-214zM241 -154l-102 -9l22 103h157l-31 -148q-10 -49 -39.5 -71t-83.5 -22h-54l12 51h54q25 0 36.5 9t16.5 32z" />
    <glyph glyph-name="uni021B" unicode="&#x21b;" horiz-adv-x="352" 
d="M260 415l-9 -44l-43 -200q-4 -17 -4 -27q0 -31 40 -31h47l-24 -113h-82q-129 0 -129 104q0 16 5 41l49 229l9 41l-71 -3l22 104l70 -3l10 47l24 115h141l-24 -114l-10 -48l96 3l-22 -104zM100 -154l-102 -9l22 103h157l-31 -148q-10 -49 -39.5 -71t-83.5 -22h-54l12 51
h54q25 0 36.5 9t16.5 32z" />
    <glyph glyph-name="uni0237" unicode="&#x237;" horiz-adv-x="261" 
d="M-33 -204h-92l26 124h36q29 0 42 9t18 32l118 555h141l-122 -574q-17 -81 -53.5 -113.5t-113.5 -32.5z" />
    <glyph glyph-name="uni0259" unicode="&#x259;" horiz-adv-x="583" 
d="M326 533q108 0 168 -63t60 -161q0 -38 -8 -73q-26 -116 -104 -182.5t-190 -66.5q-103 0 -163.5 57t-60.5 158q0 49 13 98h377q1 5 1 20q0 48 -26.5 75.5t-73.5 27.5q-71 0 -112 -66l-138 10q79 166 257 166zM261 90q48 0 85 30t54 84h-233q-1 -4 -1 -18q0 -45 25.5 -70.5
t69.5 -25.5z" />
    <glyph glyph-name="h.sups" unicode="&#x2b0;" horiz-adv-x="481" 
d="M380 724q51 0 82.5 -27t31.5 -77q0 -14 -5 -42l-44 -206h-116l34 160q10 47 10 59q0 44 -48 44q-64 0 -85 -74l-40 -189h-116l100 470h116l-35 -164q52 46 115 46z" />
    <glyph glyph-name="r.sups" unicode="&#x2b3;" horiz-adv-x="359" 
d="M385 722h32l-23 -111h-36q-53 0 -81.5 -17t-40.5 -57l-35 -165h-116l72 340h101l-6 -69q27 46 56.5 62.5t76.5 16.5z" />
    <glyph glyph-name="circumflex" unicode="&#x2c6;" horiz-adv-x="500" 
d="M266 581h-132l152 147h130l88 -147h-118l-42 82z" />
    <glyph glyph-name="caron" unicode="&#x2c7;" horiz-adv-x="500" 
d="M381 571h-130l-88 147h116l42 -82l78 82h134z" />
    <glyph glyph-name="uni02C9" unicode="&#x2c9;" horiz-adv-x="500" 
d="M505 606h-363l23 105h363z" />
    <glyph glyph-name="breve" unicode="&#x2d8;" horiz-adv-x="500" 
d="M326 572q-157 0 -157 116q0 27 4 46h84q-1 -4 -1 -16q0 -54 78 -54q91 0 107 70h88q-21 -84 -67 -123t-136 -39z" />
    <glyph glyph-name="dotaccent" unicode="&#x2d9;" horiz-adv-x="500" 
d="M390 584h-141l27 128h141z" />
    <glyph glyph-name="ring" unicode="&#x2da;" horiz-adv-x="500" 
d="M454 613q-42 -42 -106 -42t-106 42q-42 41 -42 105t42 106t106 42t106 -42t42 -106t-42 -105zM298 667q20 -19 51 -19t50 19t19 51t-19 52t-50 20t-51 -20t-20 -52t20 -51z" />
    <glyph glyph-name="ogonek" unicode="&#x2db;" horiz-adv-x="500" 
d="M255 -221h-83q-51 0 -81 23t-30 61q0 37 20.5 60.5t73.5 55.5l59 36l88 -15l-61 -44q-31 -22 -39.5 -32.5t-8.5 -26.5q0 -31 44 -31h36z" />
    <glyph glyph-name="tilde" unicode="&#x2dc;" horiz-adv-x="500" 
d="M224 626h-108q39 178 156 178q38 0 79 -26q41 -27 66 -27q42 0 53 53h108q-37 -178 -156 -178q-38 0 -79 27q-41 26 -66 26q-42 0 -53 -53z" />
    <glyph glyph-name="hungarumlaut" unicode="&#x2dd;" horiz-adv-x="500" 
d="M238 571h-94l57 156h153zM438 571h-94l67 156h152z" />
    <glyph glyph-name="s.sups" unicode="&#x2e2;" horiz-adv-x="422" 
d="M264 362q-79 0 -126.5 31.5t-57.5 89.5l118 3q4 -23 21 -33t55 -10q59 0 59 33q0 23 -37 27l-73 11q-107 17 -107 95q0 54 43 84.5t121 30.5q156 0 170 -111h-110q-4 36 -67 36q-50 0 -50 -28q0 -19 27 -23l73 -11q113 -17 113 -101q0 -57 -45.5 -90.5t-126.5 -33.5z" />
    <glyph glyph-name="gravecomb" unicode="&#x300;" 
d="M112 571h-84l-96 141h162z" />
    <glyph glyph-name="acutecomb" unicode="&#x301;" 
d="M74 571h-94l47 141h172z" />
    <glyph glyph-name="uni0302" unicode="&#x302;" 
d="M9 581h-132l152 147h130l88 -147h-118l-42 82z" />
    <glyph glyph-name="tildecomb" unicode="&#x303;" 
d="M-26 626h-108q39 178 156 178q38 0 79 -26q41 -27 66 -27q42 0 53 53h108q-37 -178 -156 -178q-38 0 -79 27q-41 26 -66 26q-42 0 -53 -53z" />
    <glyph glyph-name="uni0304" unicode="&#x304;" 
d="M255 606h-363l23 105h363z" />
    <glyph glyph-name="uni0306" unicode="&#x306;" 
d="M76 572q-157 0 -157 116q0 27 4 46h84q-1 -4 -1 -16q0 -54 78 -54q91 0 107 70h88q-21 -84 -67 -123t-136 -39z" />
    <glyph glyph-name="uni0307" unicode="&#x307;" 
d="M140 584h-141l27 128h141z" />
    <glyph glyph-name="uni0308" unicode="&#x308;" 
d="M34 584h-141l28 128h141zM245 584h-141l28 128h141z" />
    <glyph glyph-name="uni030A" unicode="&#x30a;" 
d="M204 613q-42 -42 -106 -42t-106 42q-42 41 -42 105t42 106t106 42t106 -42t42 -106t-42 -105zM48 667q20 -19 50.5 -19t50.5 19q19 19 19 51t-19 52t-50 20t-51 -20t-20 -52t20 -51z" />
    <glyph glyph-name="uni030B" unicode="&#x30b;" 
d="M-2 571h-94l57 156h153zM198 571h-94l67 156h152z" />
    <glyph glyph-name="uni030C" unicode="&#x30c;" 
d="M130 571h-130l-88 147h116l42 -82l78 82h134z" />
    <glyph glyph-name="uni0312" unicode="&#x312;" 
d="M148 584h-157l24 112q10 49 39.5 71t83.5 22h54l-12 -51h-54q-25 0 -36.5 -9t-16.5 -32l-4 -19l101 9z" />
    <glyph glyph-name="uni0313" unicode="&#x313;" 
d="M45 584h-54l12 51h54q25 0 36.5 9t16.5 32l4 19l-101 -9l22 103h157l-24 -112q-10 -49 -39.5 -71t-83.5 -22z" />
    <glyph glyph-name="dotbelowcomb" unicode="&#x323;" 
d="M-26 -196h-141l27 128h141z" />
    <glyph glyph-name="uni0324" unicode="&#x324;" 
d="M-132 -196h-141l28 128h141zM79 -196h-141l28 128h141z" />
    <glyph glyph-name="uni0325" unicode="&#x325;" 
d="M8 -308q-42 -42 -106 -42t-106 42t-42 106t42 105q42 42 106 42t106 -42q42 -41 42 -105t-42 -106zM-149 -254q19 -20 50 -20t51 20t20 52t-20 51t-51 19t-50 -19t-19 -51t19 -52z" />
    <glyph glyph-name="uni0326" unicode="&#x326;" 
d="M-144 -301h-54l12 51h54q25 0 36.5 9t16.5 32l12 55l-102 -9l22 103h157l-31 -148q-10 -49 -39.5 -71t-83.5 -22z" />
    <glyph glyph-name="uni0327" unicode="&#x327;" 
d="M-131 -251h-59l14 64h40q62 0 62 34q0 22 -33 22h-17l-36 52l67 79h85l-50 -57h11q38 0 60.5 -21.5t22.5 -58.5q0 -52 -47 -83t-120 -31z" />
    <glyph glyph-name="uni0328" unicode="&#x328;" 
d="M-102 -221h-83q-51 0 -81 23t-30 61q0 37 20.5 60.5t73.5 55.5l59 36l88 -15l-61 -44q-31 -22 -39.5 -32.5t-8.5 -26.5q0 -31 44 -31h36z" />
    <glyph glyph-name="uni032E" unicode="&#x32e;" 
d="M-92 -218q-157 0 -157 116q0 27 4 46h84q-1 -4 -1 -16q0 -54 78 -54q91 0 107 70h88q-21 -84 -67 -123t-136 -39z" />
    <glyph glyph-name="uni0331" unicode="&#x331;" 
d="M85 -195h-363l23 105h363z" />
    <glyph glyph-name="uni0335" unicode="&#x335;" 
d="M15 326l-156 -5l22 104l154 -5l154 5l-22 -104z" />
    <glyph glyph-name="uni0337" unicode="&#x337;" 
d="M302 510l-542 -564l-62 59l542 564z" />
    <glyph glyph-name="uni0338" unicode="&#x338;" 
d="M404 684l-709 -738l-63 59l709 738z" />
    <glyph glyph-name="uni0394" unicode="&#x394;" horiz-adv-x="719" 
d="M222 712h171l246 -712h-669zM244 358l-77 -236h274l-76 236l-60 205z" />
    <glyph glyph-name="uni03A9" unicode="&#x3a9;" horiz-adv-x="843" 
d="M376 0h-305v120h134v2q-132 96 -132 271q0 149 93 243q92 93 245 93q155 0 246 -93q92 -95 92 -243q0 -177 -130 -271v-2h134v-120h-304v113q152 77 152 265q0 109 -50.5 166t-139.5 57q-88 0 -139 -57t-51 -166q0 -187 155 -265v-113z" />
    <glyph glyph-name="uni03BC" unicode="&#x3bc;" horiz-adv-x="688" 
d="M256 -203h-141v719h141v-307q0 -95 75 -95q45 0 73 34.5t28 91.5v276h141v-516h-138l-2 70q-17 -39 -51 -60.5t-76 -21.5q-38 0 -73 19l-2 -2l25 -115v-93z" />
    <glyph glyph-name="pi" unicode="&#x3c0;" horiz-adv-x="762" 
d="M703 516v-130h-119v-199q0 -37 15.5 -52.5t51.5 -15.5h26v-119h-53q-171 0 -171 182v204h-138v-386h-131v386h-114v130h633z" />
    <glyph glyph-name="d.sups" unicode="&#x1d48;" horiz-adv-x="461" 
d="M373 672l36 170h115l-99 -470h-109l5 42q-53 -56 -121 -56q-53 0 -82.5 36.5t-29.5 99.5q0 92 57 163q55 70 133 70q64 0 95 -55zM258 456q37 0 64 35t27 79q0 30 -14 47.5t-38 17.5q-35 0 -61 -35q-26 -37 -26 -83q0 -61 48 -61z" />
    <glyph glyph-name="t.sups" unicode="&#x1d57;" horiz-adv-x="303" 
d="M352 630l-74 2l-24 -115q-6 -30 -6 -37q0 -22 34 -22h32l-18 -86h-92q-38 0 -59.5 16.5t-21.5 47.5q0 18 10 64l28 132l-67 -2l18 83l66 -2l22 103h117l-22 -103l75 2z" />
    <glyph glyph-name="Wgrave" unicode="&#x1e80;" horiz-adv-x="971" 
d="M603 908l18 -141h-84l-96 141h162zM716 356l170 356h157l-355 -712h-142l-13 486l-206 -486h-144l-61 712h147l21 -356l4 -143l57 143l156 356h141l9 -356l-4 -142z" />
    <glyph glyph-name="wgrave" unicode="&#x1e81;" horiz-adv-x="772" 
d="M473 712l18 -141h-84l-96 141h162zM547 287l106 229h154l-263 -516h-137l-13 287l-2 58l-23 -58l-131 -287h-135l-43 516h136l14 -229l3 -113l45 113l107 229h125l10 -227l3 -115z" />
    <glyph glyph-name="Wacute" unicode="&#x1e82;" horiz-adv-x="971" 
d="M536 908h172l-125 -141h-94zM716 356l170 356h157l-355 -712h-142l-13 486l-206 -486h-144l-61 712h147l21 -356l4 -143l57 143l156 356h141l9 -356l-4 -142z" />
    <glyph glyph-name="wacute" unicode="&#x1e83;" horiz-adv-x="772" 
d="M406 712h172l-125 -141h-94zM547 287l106 229h154l-263 -516h-137l-13 287l-2 58l-23 -58l-131 -287h-135l-43 516h136l14 -229l3 -113l45 113l107 229h125l10 -227l3 -115z" />
    <glyph glyph-name="Wdieresis" unicode="&#x1e84;" horiz-adv-x="971" 
d="M430 908h141l-28 -128h-141zM641 908h141l-28 -128h-141zM716 356l170 356h157l-355 -712h-142l-13 486l-206 -486h-144l-61 712h147l21 -356l4 -143l57 143l156 356h141l9 -356l-4 -142z" />
    <glyph glyph-name="wdieresis" unicode="&#x1e85;" horiz-adv-x="772" 
d="M300 712h141l-28 -128h-141zM511 712h141l-28 -128h-141zM547 287l106 229h154l-263 -516h-137l-13 287l-2 58l-23 -58l-131 -287h-135l-43 516h136l14 -229l3 -113l45 113l107 229h125l10 -227l3 -115z" />
    <glyph glyph-name="uni1E9E" unicode="&#x1e9e;" horiz-adv-x="736" 
d="M767 718l-24 -111l-190 -182q71 -15 109 -56.5t38 -102.5q0 -120 -93 -196q-94 -77 -238 -77q-48 0 -99 9l26 121q45 -8 88 -8q73 0 116 33.5t43 91.5q0 37 -30.5 57t-87.5 20q-13 0 -59 -2l21 98l193 193q-48 5 -105 5q-93 0 -141.5 -40.5t-64.5 -121.5l-95 -449h-149
l95 448q30 140 128 214t251 74q125 0 268 -18z" />
    <glyph glyph-name="Ygrave" unicode="&#x1ef2;" horiz-adv-x="656" 
d="M464 908l18 -141h-84l-96 141h162zM565 712h170l-329 -436l-59 -276h-148l59 277l-143 435h152l61 -221l19 -99l61 99z" />
    <glyph glyph-name="ygrave" unicode="&#x1ef3;" horiz-adv-x="551" 
d="M365 712l18 -141h-84l-96 141h162zM246 155l184 361h156l-326 -600q-37 -66 -77.5 -93t-103.5 -27h-118l26 120h68q58 0 82 44l10 18l-87 538h143l39 -290z" />
    <glyph glyph-name="thinspace" unicode="&#x2009;" horiz-adv-x="261" 
 />
    <glyph glyph-name="uni2011" unicode="&#x2011;" horiz-adv-x="380" 
d="M322 222h-280l26 122h280z" />
    <glyph glyph-name="endash" unicode="&#x2013;" horiz-adv-x="535" 
d="M477 222h-435l26 122h435z" />
    <glyph glyph-name="emdash" unicode="&#x2014;" horiz-adv-x="829" 
d="M771 222h-729l26 122h729z" />
    <glyph glyph-name="quoteleft" unicode="&#x2018;" horiz-adv-x="283" 
d="M254 403h-163l36 168q30 141 185 141h8l-14 -64h-8q-83 0 -97 -74l-4 -21h89z" />
    <glyph glyph-name="quoteright" unicode="&#x2019;" horiz-adv-x="283" 
d="M99 403h-8l14 64h8q83 0 97 74l4 21h-89l32 150h163l-36 -168q-30 -141 -185 -141z" />
    <glyph glyph-name="quotesinglbase" unicode="&#x201a;" horiz-adv-x="283" 
d="M-21 -159h-8l14 64h8q83 0 97 74l4 21h-89l32 150h163l-36 -168q-30 -141 -185 -141z" />
    <glyph glyph-name="quotedblleft" unicode="&#x201c;" horiz-adv-x="495" 
d="M254 403h-163l36 168q30 141 185 141h8l-14 -64h-8q-83 0 -97 -74l-4 -21h89zM466 403h-163l36 168q30 141 185 141h8l-14 -64h-8q-83 0 -97 -74l-4 -21h89z" />
    <glyph glyph-name="quotedblright" unicode="&#x201d;" horiz-adv-x="495" 
d="M99 403h-8l14 64h8q83 0 97 74l4 21h-89l32 150h163l-36 -168q-30 -141 -185 -141zM311 403h-8l14 64h8q83 0 97 74l4 21h-89l32 150h163l-36 -168q-30 -141 -185 -141z" />
    <glyph glyph-name="quotedblbase" unicode="&#x201e;" horiz-adv-x="495" 
d="M-21 -159h-8l14 64h8q83 0 97 74l4 21h-89l32 150h163l-36 -168q-30 -141 -185 -141zM191 -159h-8l14 64h8q83 0 97 74l4 21h-89l32 150h163l-36 -168q-30 -141 -185 -141z" />
    <glyph glyph-name="dagger" unicode="&#x2020;" horiz-adv-x="643" 
d="M463 614l177 5l-27 -125l-174 6l-129 -605h-130l129 605l-179 -6l27 125l176 -5l50 236h130z" />
    <glyph glyph-name="daggerdbl" unicode="&#x2021;" horiz-adv-x="644" 
d="M640 619l-27 -125l-174 6l-54 -250l178 5l-27 -125l-175 6l-51 -241h-130l51 241l-178 -6l27 125l175 -5l54 250l-179 -6l27 125l176 -5l50 236h130l-50 -236z" />
    <glyph glyph-name="bullet" unicode="&#x2022;" horiz-adv-x="423" 
d="M322 157h-263l55 260h263z" />
    <glyph glyph-name="ellipsis" unicode="&#x2026;" horiz-adv-x="855" 
d="M170 0h-165l32 150h165zM455 0h-165l32 150h165zM740 0h-165l32 150h165z" />
    <glyph glyph-name="perthousand" unicode="&#x2030;" horiz-adv-x="1709" 
d="M286 276q-75 0 -117 45t-42 123q0 28 8 71q21 109 72.5 161.5t140.5 52.5q72 0 113 -45.5t41 -123.5q0 -34 -6 -65q-44 -219 -210 -219zM393 -15h-112l602 742h110zM289 358q81 0 109 144q6 30 6 61q0 84 -62 84q-82 0 -110 -144q-7 -32 -7 -63q0 -82 64 -82zM932 -16
q-75 0 -117 45t-42 123q0 28 8 71q21 109 72.5 161.5t140.5 52.5q72 0 113 -45.5t41 -123.5q0 -34 -6 -65q-44 -219 -210 -219zM1407 -16q-75 0 -117 45t-42 123q0 28 8 71q21 109 72.5 161.5t140.5 52.5q72 0 113 -45.5t41 -123.5q0 -34 -6 -65q-43 -219 -210 -219zM935 66
q81 0 109 144q6 30 6 61q0 84 -62 84q-82 0 -110 -144q-7 -32 -7 -63q0 -82 64 -82zM1410 66q80 0 109 144q6 30 6 61q0 84 -62 84q-81 0 -110 -144q-7 -32 -7 -63q0 -82 64 -82z" />
    <glyph glyph-name="guilsinglleft" unicode="&#x2039;" horiz-adv-x="391" 
d="M307 147l-33 -157l-227 208l25 118l315 208l-37 -173l-162 -102z" />
    <glyph glyph-name="guilsinglright" unicode="&#x203a;" horiz-adv-x="390" 
d="M317 198l-314 -208l37 174l162 102l-119 102l34 156l225 -208z" />
    <glyph glyph-name="uni203D" unicode="&#x203d;" horiz-adv-x="624" 
d="M385 728q121 0 190.5 -49.5t69.5 -138.5q0 -117 -134 -182l-48 -23q-61 -30 -87 -57q-21 -21 -28 -44h-91l18 221l15 67h148l-15 -67l-11 -32l1 1h1q83 41 83 102q0 77 -122 77q-71 0 -106.5 -26t-45.5 -87h-145q42 238 307 238zM329 0h-152l32 150h152z" />
    <glyph glyph-name="fraction" unicode="&#x2044;" horiz-adv-x="374" 
d="M-36 -15h-112l602 742h110z" />
    <glyph glyph-name="zero.sups" unicode="&#x2070;" horiz-adv-x="426" 
d="M253 356q-75 0 -117 45t-42 123q0 28 8 71q21 109 72.5 161.5t140.5 52.5q72 0 113 -45.5t41 -123.5q0 -34 -6 -65q-43 -219 -210 -219zM256 438q80 0 109 144q6 30 6 61q0 84 -62 84q-81 0 -110 -144q-7 -32 -7 -63q0 -82 64 -82z" />
    <glyph glyph-name="four.sups" unicode="&#x2074;" horiz-adv-x="447" 
d="M368 372h-95l17 76l-215 -3l17 80l253 267h113l-56 -260l69 3l-19 -90l-67 3zM336 675l-132 -141l103 -2l31 142z" />
    <glyph glyph-name="five.sups" unicode="&#x2075;" horiz-adv-x="445" 
d="M249 356q-62 0 -105 26.5t-58 71.5l103 30q17 -41 69 -41q40 0 64 20.5t24 52.5q0 53 -65 53q-43 0 -72 -26l-88 28l94 228h280l-22 -88h-207l-35 -80l2 -1q43 22 91 22q58 0 94.5 -35t36.5 -92q0 -72 -57 -120q-56 -49 -149 -49z" />
    <glyph glyph-name="six.sups" unicode="&#x2076;" horiz-adv-x="461" 
d="M272 356q-78 0 -118.5 43.5t-40.5 127.5q0 114 63 198q63 83 170 83q58 0 96 -26t53 -69l-101 -13q-10 31 -57 31q-86 0 -116 -122q43 52 118 52q61 0 98.5 -33t37.5 -90q0 -76 -57 -129q-58 -53 -146 -53zM279 438q39 0 66 26.5t27 62.5q0 26 -18 41.5t-48 15.5
q-40 0 -67 -25.5t-27 -61.5q0 -27 18.5 -43t48.5 -16z" />
    <glyph glyph-name="seven.sups" unicode="&#x2077;" horiz-adv-x="403" 
d="M238 372h-106q43 175 217 337h-213l19 90h323l-18 -83q-97 -84 -145 -162q-52 -80 -77 -182z" />
    <glyph glyph-name="eight.sups" unicode="&#x2078;" horiz-adv-x="473" 
d="M274 356q-83 0 -132.5 34.5t-49.5 89.5q0 44 31 78t81 44l1 3q-48 24 -48 76q0 56 50.5 91.5t133.5 35.5q73 0 116.5 -29t43.5 -76q0 -35 -24 -62.5t-61 -35.5l-1 -3q66 -27 66 -94t-57 -109q-56 -43 -150 -43zM317 632q37 0 61 17.5t24 43.5q0 40 -64 40
q-38 0 -62 -16.5t-24 -43.5q0 -19 17.5 -30t47.5 -11zM278 431q44 0 72.5 21t28.5 53q0 53 -79 53q-45 0 -74 -20.5t-29 -51.5q0 -26 22 -40.5t59 -14.5z" />
    <glyph glyph-name="nine.sups" unicode="&#x2079;" horiz-adv-x="461" 
d="M253 357q-58 0 -96 26t-53 69l101 13q10 -31 57 -31q86 0 116 122q-43 -52 -118 -52q-61 0 -98.5 33t-37.5 90q0 77 57 129q58 53 146 53q78 0 118.5 -43.5t40.5 -127.5q0 -114 -63 -197q-63 -84 -170 -84zM293 581q40 0 67 25.5t27 61.5q0 27 -18.5 43t-48.5 16
q-39 0 -66 -26.5t-27 -62.5q0 -26 18 -41.5t48 -15.5z" />
    <glyph glyph-name="plus.sups" unicode="&#x207a;" horiz-adv-x="438" 
d="M249 593h144v-75h-144v-146h-75v146h-142v75h142v148h75v-148z" />
    <glyph glyph-name="minus.sups" unicode="&#x207b;" horiz-adv-x="436" 
d="M391 522h-359v74h359v-74z" />
    <glyph glyph-name="parenleft.sups" unicode="&#x207d;" horiz-adv-x="304" 
d="M261 237h-117q-36 93 -36 199q0 118 44.5 231.5t125.5 197.5h117q-153 -206 -153 -461q0 -90 19 -167z" />
    <glyph glyph-name="parenright.sups" unicode="&#x207e;" horiz-adv-x="304" 
d="M151 237h-117q153 205 153 461q0 90 -19 167h117q36 -93 36 -199q0 -118 -44.5 -231.5t-125.5 -197.5z" />
    <glyph glyph-name="n.sups" unicode="&#x207f;" horiz-adv-x="482" 
d="M381 724q51 0 82.5 -27t31.5 -77q0 -14 -5 -42l-44 -206h-116l34 160q10 47 10 59q0 44 -48 44q-65 0 -86 -78l-39 -185h-116l72 340h101l-8 -49q58 61 131 61z" />
    <glyph glyph-name="zero.subs" unicode="&#x2080;" horiz-adv-x="426" 
d="M137 -191q-75 0 -117 45t-42 123q0 28 8 71q21 109 72.5 161.5t140.5 52.5q72 0 113 -45.5t41 -123.5q0 -33 -6 -65q-43 -219 -210 -219zM140 -109q80 0 109 144q6 30 6 61q0 84 -62 84q-81 0 -110 -144q-7 -32 -7 -63q0 -82 64 -82z" />
    <glyph glyph-name="one.subs" unicode="&#x2081;" horiz-adv-x="297" 
d="M144 -175h-101l59 269h-106l15 75h30q85 0 100 67l2 9h91z" />
    <glyph glyph-name="two.subs" unicode="&#x2082;" horiz-adv-x="433" 
d="M290 -175h-330q15 78 45 122t82 68l109 51q60 28 60 67q0 44 -60 44q-64 0 -75 -60h-101q13 70 62.5 107t127.5 37q69 0 108.5 -31t39.5 -84q0 -86 -111 -140l-112 -54q-32 -16 -40 -39h214z" />
    <glyph glyph-name="three.subs" unicode="&#x2083;" horiz-adv-x="446" 
d="M148 -191q-75 0 -117 35.5t-48 100.5l96 11q5 -63 71 -63q37 0 59 17t22 44q0 45 -68 45h-24l18 83h27q35 0 55.5 14t20.5 37q0 44 -63 44q-68 0 -81 -52l-94 17q16 56 63 87.5t120 31.5q70 0 113 -29.5t43 -79.5q0 -38 -25 -66.5t-68 -39.5l-1 -1q66 -18 66 -89
q0 -63 -51 -105t-134 -42z" />
    <glyph glyph-name="four.subs" unicode="&#x2084;" horiz-adv-x="447" 
d="M252 -175h-95l17 76l-215 -3l17 80l253 267h113l-56 -260l69 3l-19 -90l-67 3zM220 128l-132 -141l103 -2l31 142z" />
    <glyph glyph-name="five.subs" unicode="&#x2085;" horiz-adv-x="445" 
d="M133 -191q-62 0 -105 26.5t-58 71.5l103 30q17 -41 69 -41q40 0 64 20.5t24 52.5q0 53 -65 53q-43 0 -72 -26l-88 28l94 228h280l-22 -88h-207l-35 -80l2 -1q43 22 91 22q58 0 94.5 -35t36.5 -92q0 -72 -57 -121q-57 -48 -149 -48z" />
    <glyph glyph-name="six.subs" unicode="&#x2086;" horiz-adv-x="461" 
d="M156 -191q-78 0 -118.5 43.5t-40.5 127.5q0 114 63 198q63 83 170 83q58 0 96 -26t53 -69l-101 -13q-10 31 -57 31q-86 0 -116 -122q43 52 118 52q61 0 98.5 -33t37.5 -90q0 -77 -57 -129q-58 -53 -146 -53zM163 -109q39 0 66 26.5t27 62.5q0 26 -18 41.5t-48 15.5
q-40 0 -67 -25.5t-27 -61.5q0 -27 18.5 -43t48.5 -16z" />
    <glyph glyph-name="seven.subs" unicode="&#x2087;" horiz-adv-x="403" 
d="M122 -175h-106q43 175 217 337h-213l19 90h323l-18 -83q-97 -84 -145 -162q-52 -83 -77 -182z" />
    <glyph glyph-name="eight.subs" unicode="&#x2088;" horiz-adv-x="473" 
d="M158 -191q-83 0 -132.5 34.5t-49.5 89.5q0 44 31 78t81 44l1 3q-48 24 -48 76q0 56 50.5 91.5t133.5 35.5q73 0 116.5 -29t43.5 -76q0 -35 -24 -62.5t-61 -35.5l-1 -3q66 -27 66 -94t-57 -110q-57 -42 -150 -42zM201 85q37 0 61 17.5t24 43.5q0 40 -64 40
q-38 0 -62 -16.5t-24 -43.5q0 -19 17.5 -30t47.5 -11zM162 -116q44 0 72.5 21t28.5 53q0 53 -79 53q-45 0 -74 -20.5t-29 -51.5q0 -26 22 -40.5t59 -14.5z" />
    <glyph glyph-name="nine.subs" unicode="&#x2089;" horiz-adv-x="461" 
d="M137 -190q-58 0 -96 26t-53 69l101 13q10 -31 57 -31q86 0 116 122q-43 -52 -118 -52q-61 0 -98.5 33t-37.5 90q0 76 57 129q58 53 146 53q78 0 118.5 -43.5t40.5 -127.5q0 -114 -63 -198q-63 -83 -170 -83zM177 34q40 0 67 25.5t27 61.5q0 27 -18.5 43t-48.5 16
q-39 0 -66 -26.5t-27 -62.5q0 -26 18 -41.5t48 -15.5z" />
    <glyph glyph-name="plus.subs" unicode="&#x208a;" horiz-adv-x="438" 
d="M139 76h144v-75h-144v-146h-75v146h-142v75h142v148h75v-148z" />
    <glyph glyph-name="minus.subs" unicode="&#x208b;" horiz-adv-x="436" 
d="M281 5h-359v74h359v-74z" />
    <glyph glyph-name="equal.subs" unicode="&#x208c;" horiz-adv-x="436" 
d="M281 90h-359v73h359v-73zM281 -86h-359v74h359v-74z" />
    <glyph glyph-name="uni208D" unicode="&#x208d;" horiz-adv-x="304" 
d="M145 -310h-117q-36 93 -36 199q0 118 44.5 231.5t125.5 197.5h117q-153 -206 -153 -461q0 -90 19 -167z" />
    <glyph glyph-name="uni208E" unicode="&#x208e;" horiz-adv-x="304" 
d="M34 -310h-117q153 206 153 461q0 90 -19 167h117q36 -93 36 -199q0 -118 -44.5 -231.5t-125.5 -197.5z" />
    <glyph glyph-name="n.subs" unicode="&#x2099;" horiz-adv-x="481" 
d="M264 176q51 0 82.5 -27t31.5 -77q0 -14 -5 -42l-44 -206h-116l34 160q10 47 10 59q0 44 -48 44q-65 0 -86 -78l-39 -185h-116l72 340h101l-8 -49q58 61 131 61z" />
    <glyph glyph-name="Euro" unicode="&#x20ac;" horiz-adv-x="660" 
d="M581 600q-144 0 -212 -98h302l-22 -103h-327q-9 -29 -15 -58q-1 -6 -5 -27h329l-22 -103h-311q8 -52 46 -75.5t111 -23.5q65 0 138 17l-30 -130q-65 -15 -126 -15q-122 0 -195.5 59.5t-87.5 167.5h-125l22 103h103q3 27 9 51q1 8 8 34h-102l22 103h120q55 108 149 167
t213 59q66 0 143 -23l-29 -120q-49 15 -106 15z" />
    <glyph glyph-name="uni20B8" unicode="&#x20b8;" horiz-adv-x="616" 
d="M89 580l28 132h575l-28 -132h-575zM256 360h-214l28 132h575l-28 -132h-213l-77 -360h-148z" />
    <glyph glyph-name="uni20B9" unicode="&#x20b9;" horiz-adv-x="660" 
d="M716 712l-21 -100h-198q16 -28 17 -65h167l-21 -100h-163q-35 -81 -152 -107q42 -12 62.5 -41.5t25.5 -86.5l17 -212h-152l-7 195q-1 54 -21 71q-19 16 -78 16h-147l21 100h162q81 0 122 65h-270l21 100h276v8q0 57 -69 57h-193l21 100h580z" />
    <glyph glyph-name="uni20BA" unicode="&#x20ba;" horiz-adv-x="660" 
d="M502 255h142q-36 -123 -127 -189t-225 -66h-196l34 159l-150 -70l25 126l154 72l18 89l-151 -71l25 126l153 72l44 209h148l-28 -132l216 102l-24 -126l-219 -103l-19 -88l216 101l-24 -126l-220 -104l-22 -104h26q79 0 128.5 29.5t75.5 93.5z" />
    <glyph glyph-name="uni20BC" unicode="&#x20bc;" horiz-adv-x="660" 
d="M495 712l-39 -182q193 -9 193 -176q0 -38 -10 -81l-58 -273h-138l65 302q5 30 5 43q0 34 -19 49t-63 17l-66 -310h-137l66 309q-104 -10 -126 -120l-62 -290h-138l63 295q49 231 288 236l39 181h137z" />
    <glyph glyph-name="uni20BF" unicode="&#x20bf;" horiz-adv-x="702" 
d="M530 381q52 -17 78.5 -56.5t26.5 -92.5q0 -91 -58.5 -151.5t-158.5 -75.5l-31 -149h-110l31 144h-85l-31 -144h-110l31 144h-88l152 712h87l28 135h110l-28 -135h85l28 135h110l-30 -143q56 -15 85 -52t29 -92q0 -69 -39.5 -115.5t-111.5 -63.5zM451 592h-152l-33 -155
h150q53 0 83.5 26.5t30.5 67.5q0 61 -79 61zM200 125h158q62 0 97 31.5t35 85.5q0 35 -24 55t-68 20h-157z" />
    <glyph glyph-name="uni2105" unicode="&#x2105;" horiz-adv-x="1255" 
d="M406 -15h-112l602 742h110zM449 403q-56 -37 -137 -37q-80 0 -126 40t-46 114q0 88 63 146q63 57 162 57q75 0 120.5 -32.5t52.5 -94.5l-120 -15q0 58 -63 58q-49 0 -72.5 -32t-23.5 -83q0 -74 69 -74q30 0 49 15t34 49l118 -17q-22 -57 -80 -94zM933 -14
q-88 0 -136.5 40.5t-48.5 113.5q0 95 60 149t163 54q88 0 136 -40t48 -113q0 -96 -59.5 -150t-162.5 -54zM942 71q43 0 68.5 29t25.5 80q0 37 -19.5 57.5t-54.5 20.5q-43 0 -69 -29t-26 -79q0 -37 20 -58t55 -21z" />
    <glyph glyph-name="uni2113" unicode="&#x2113;" horiz-adv-x="563" 
d="M312 99q46 0 95 43l64 -89q-76 -71 -174 -71q-73 0 -120 40.5t-47 108.5v44l-72 -33l-45 105l117 47v271q0 77 45.5 120t128.5 43q90 0 138.5 -50t48.5 -141q0 -119 -53.5 -191.5t-177.5 -117.5v-72q0 -27 14 -42t38 -15zM306 616q-21 0 -33.5 -13t-12.5 -35v-212
q57 35 79 70.5t22 92.5q0 97 -55 97z" />
    <glyph glyph-name="uni2116" unicode="&#x2116;" horiz-adv-x="1181" 
d="M1025 723q88 0 136 -40t48 -113q0 -96 -59.5 -150t-162.5 -54q-88 0 -136.5 40.5t-48.5 113.5q0 95 60 149t163 54zM312 712l193 -463l99 463h148l-152 -712h-135l-194 464l-98 -464h-148l152 712h135zM996 451q43 0 68.5 29t25.5 80q0 37 -19.5 57.5t-54.5 20.5
q-43 0 -69 -29t-26 -79q0 -37 20 -58t55 -21z" />
    <glyph glyph-name="uni2117" unicode="&#x2117;" horiz-adv-x="841" 
d="M171 624q107 105 270 105t270 -105q106 -105 106 -268q0 -161 -106 -266q-106 -106 -270 -106q-163 0 -269 106q-107 105 -107 266q0 163 106 268zM441 74q123 0 201 80t78 202q0 124 -78 203q-79 79 -201 79t-200 -79q-79 -79 -79 -203q0 -123 79 -202q78 -80 200 -80z
M316 547h158q62 0 98 -36.5t36 -97.5q0 -62 -38 -98.5t-101 -36.5h-53v-108h-100v377zM416 363h39q53 0 53 50q0 49 -51 49h-41v-99z" />
    <glyph glyph-name="trademark" unicode="&#x2122;" horiz-adv-x="1081" 
d="M361 330h-110v287h-122v95h353v-95h-121v-287zM637 330h-100v382h182l65 -296h8l61 296h183v-382h-100v296h-8l-61 -296h-158l-64 296h-8v-296z" />
    <glyph glyph-name="uni2126" unicode="&#x2126;" horiz-adv-x="843" 
d="M376 0h-305v120h134v2q-132 96 -132 271q0 149 93 243q92 93 245 93q155 0 246 -93q92 -95 92 -243q0 -177 -130 -271v-2h134v-120h-304v113q152 77 152 265q0 109 -50.5 166t-139.5 57q-88 0 -139 -57t-51 -166q0 -187 155 -265v-113z" />
    <glyph glyph-name="estimated" unicode="&#x212e;" horiz-adv-x="911" 
d="M161 623q109 105 295 105q185 0 295 -110q109 -110 109 -272h-646q-14 0 -14 -13v-176q0 -32 16 -47q98 -96 240 -96q74 0 141.5 31.5t110.5 83.5h73q-44 -62 -128.5 -102t-196.5 -40q-182 0 -294 104q-112 103 -112 265q0 160 111 267zM456 700q-142 0 -240 -98
q-16 -15 -16 -44v-176q0 -13 14 -13h481q14 0 14 13v176q0 29 -16 44q-100 98 -237 98z" />
    <glyph glyph-name="uni2153" unicode="&#x2153;" horiz-adv-x="1109" 
d="M281 -15h-112l602 742h110zM293 292h-101l59 269h-106l15 75h30q85 0 100 67l2 9h91zM814 -16q-75 0 -117 35.5t-48 100.5l96 11q5 -63 71 -63q37 0 59 17t22 44q0 45 -68 45h-24l18 83h27q35 0 55.5 14t20.5 37q0 44 -63 44q-68 0 -81 -52l-94 17q16 56 63 87.5
t120 31.5q70 0 113 -29.5t43 -79.5q0 -38 -25 -66.5t-68 -39.5l-1 -1q66 -18 66 -89q0 -63 -51 -105t-134 -42z" />
    <glyph glyph-name="uni2154" unicode="&#x2154;" horiz-adv-x="1237" 
d="M419 292h-330q15 78 45 122t82 68l109 51q60 29 60 67q0 44 -60 44q-65 0 -75 -60h-101q13 70 62.5 107t127.5 37q69 0 108.5 -31t39.5 -84q0 -86 -111 -140l-112 -54q-32 -16 -40 -39h214zM409 -15h-112l602 742h110zM942 -16q-75 0 -117 35.5t-48 100.5l96 11
q5 -63 71 -63q37 0 59 17t22 44q0 45 -68 45h-24l18 83h27q35 0 55.5 14t20.5 37q0 44 -63 44q-68 0 -81 -52l-94 17q16 56 63 87.5t120 31.5q70 0 113 -29.5t43 -79.5q0 -38 -25 -66.5t-68 -39.5l-1 -1q66 -18 66 -89q0 -63 -51 -105t-134 -42z" />
    <glyph glyph-name="uni2155" unicode="&#x2155;" horiz-adv-x="1137" 
d="M281 -15h-112l602 742h110zM293 292h-101l59 269h-106l15 75h30q85 0 100 67l2 9h91zM825 -16q-62 0 -105 26.5t-58 71.5l103 30q17 -41 69 -41q40 0 64 20.5t24 52.5q0 53 -65 53q-43 0 -72 -26l-88 28l94 228h280l-22 -88h-207l-35 -80l2 -1q43 22 91 22q58 0 94.5 -35
t36.5 -92q0 -72 -57 -120q-56 -49 -149 -49z" />
    <glyph glyph-name="uni2156" unicode="&#x2156;" horiz-adv-x="1259" 
d="M419 292h-330q15 78 45 122t82 68l109 51q60 29 60 67q0 44 -60 44q-65 0 -75 -60h-101q13 70 62.5 107t127.5 37q69 0 108.5 -31t39.5 -84q0 -86 -111 -140l-112 -54q-32 -16 -40 -39h214zM403 -15h-112l602 742h110zM947 -16q-62 0 -105 26.5t-58 71.5l103 30
q17 -41 69 -41q40 0 64 20.5t24 52.5q0 53 -65 53q-43 0 -72 -26l-88 28l94 228h280l-22 -88h-207l-35 -80l2 -1q43 22 91 22q58 0 94.5 -35t36.5 -92q0 -72 -57 -120q-56 -49 -149 -49z" />
    <glyph glyph-name="uni2157" unicode="&#x2157;" horiz-adv-x="1243" 
d="M281 276q-75 0 -117 35.5t-48 100.5l96 11q4 -63 71 -63q37 0 59 17t22 44q0 45 -68 45h-24l18 83h27q35 0 55.5 14t20.5 37q0 44 -63 44q-68 0 -81 -52l-94 17q16 56 63 87.5t120 31.5q70 0 113 -29.5t43 -79.5q0 -38 -25 -66.5t-68 -39.5l-1 -1q66 -18 66 -89
q0 -63 -51 -105t-134 -42zM387 -15h-112l602 742h110zM931 -16q-62 0 -105 26.5t-58 71.5l103 30q17 -41 69 -41q40 0 64 20.5t24 52.5q0 53 -65 53q-43 0 -72 -26l-88 28l94 228h280l-22 -88h-207l-35 -80l2 -1q43 22 91 22q58 0 94.5 -35t36.5 -92q0 -72 -57 -120
q-56 -49 -149 -49z" />
    <glyph glyph-name="uni2158" unicode="&#x2158;" horiz-adv-x="1279" 
d="M423 -15h-112l602 742h110zM396 292h-95l17 76l-215 -3l17 80l253 267h113l-56 -260l69 3l-19 -90l-67 3zM364 595l-132 -141l103 -2l31 142zM967 -16q-62 0 -105 26.5t-58 71.5l103 30q17 -41 69 -41q40 0 64 20.5t24 52.5q0 53 -65 53q-43 0 -72 -26l-88 28l94 228h280
l-22 -88h-207l-35 -80l2 -1q43 22 91 22q58 0 94.5 -35t36.5 -92q0 -72 -57 -120q-56 -49 -149 -49z" />
    <glyph glyph-name="uni2159" unicode="&#x2159;" horiz-adv-x="1109" 
d="M281 -15h-112l602 742h110zM293 292h-101l59 269h-106l15 75h30q85 0 100 67l2 9h91zM803 -16q-78 0 -118.5 43.5t-40.5 127.5q0 114 63 198q63 83 170 83q58 0 96 -26t53 -69l-101 -13q-10 31 -57 31q-86 0 -116 -122q43 52 118 52q61 0 98.5 -33t37.5 -90
q0 -76 -57 -129q-58 -53 -146 -53zM810 66q39 0 66 26.5t27 62.5q0 26 -18 41.5t-48 15.5q-40 0 -67 -25.5t-27 -61.5q0 -27 18.5 -43t48.5 -16z" />
    <glyph glyph-name="uni215A" unicode="&#x215a;" horiz-adv-x="1206" 
d="M378 -15h-112l602 742h110zM268 276q-62 0 -105 26.5t-58 71.5l103 30q17 -41 69 -41q40 0 64 20.5t24 52.5q0 53 -65 53q-43 0 -72 -26l-88 28l94 228h280l-22 -88h-207l-35 -80l2 -1q43 22 91 22q58 0 94.5 -35t36.5 -92q0 -72 -57 -120q-56 -49 -149 -49zM900 -16
q-78 0 -118.5 43.5t-40.5 127.5q0 114 63 198q63 83 170 83q58 0 96 -26t53 -69l-101 -13q-10 31 -57 31q-86 0 -116 -122q43 52 118 52q61 0 98.5 -33t37.5 -90q0 -76 -57 -129q-58 -53 -146 -53zM907 66q39 0 66 26.5t27 62.5q0 26 -18 41.5t-48 15.5q-40 0 -67 -25.5
t-27 -61.5q0 -27 18.5 -43t48.5 -16z" />
    <glyph glyph-name="oneeighth" unicode="&#x215b;" horiz-adv-x="1133" 
d="M281 -15h-112l602 742h110zM293 292h-101l59 269h-106l15 75h30q85 0 100 67l2 9h91zM817 -16q-83 0 -132.5 34.5t-49.5 89.5q0 44 31 78t81 44l1 3q-48 24 -48 76q0 56 50.5 91.5t133.5 35.5q73 0 116.5 -29t43.5 -76q0 -35 -24 -62.5t-61 -35.5l-1 -3q66 -27 66 -94
t-57 -109q-56 -43 -150 -43zM860 260q37 0 61 17.5t24 43.5q0 40 -64 40q-38 0 -62 -16.5t-24 -43.5q0 -19 17.5 -30t47.5 -11zM821 59q44 0 72.5 21t28.5 53q0 53 -79 53q-45 0 -74 -20.5t-29 -51.5q0 -26 22 -40.5t59 -14.5z" />
    <glyph glyph-name="threeeighths" unicode="&#x215c;" horiz-adv-x="1239" 
d="M281 276q-75 0 -117 35.5t-48 100.5l96 11q4 -63 71 -63q37 0 59 17t22 44q0 45 -68 45h-24l18 83h27q35 0 55.5 14t20.5 37q0 44 -63 44q-68 0 -81 -52l-94 17q16 56 63 87.5t120 31.5q70 0 113 -29.5t43 -79.5q0 -38 -25 -66.5t-68 -39.5l-1 -1q66 -18 66 -89
q0 -63 -51 -105t-134 -42zM387 -15h-112l602 742h110zM923 -16q-83 0 -132.5 34.5t-49.5 89.5q0 44 31 78t81 44l1 3q-48 24 -48 76q0 56 50.5 91.5t133.5 35.5q73 0 116.5 -29t43.5 -76q0 -35 -24 -62.5t-61 -35.5l-1 -3q66 -27 66 -94t-57 -109q-56 -43 -150 -43zM966 260
q37 0 61 17.5t24 43.5q0 40 -64 40q-38 0 -62 -16.5t-24 -43.5q0 -19 17.5 -30t47.5 -11zM927 59q44 0 72.5 21t28.5 53q0 53 -79 53q-45 0 -74 -20.5t-29 -51.5q0 -26 22 -40.5t59 -14.5z" />
    <glyph glyph-name="fiveeighths" unicode="&#x215d;" horiz-adv-x="1230" 
d="M378 -15h-112l602 742h110zM268 276q-62 0 -105 26.5t-58 71.5l103 30q17 -41 69 -41q40 0 64 20.5t24 52.5q0 53 -65 53q-43 0 -72 -26l-88 28l94 228h280l-22 -88h-207l-35 -80l2 -1q43 22 91 22q58 0 94.5 -35t36.5 -92q0 -72 -57 -120q-56 -49 -149 -49zM914 -16
q-83 0 -132.5 34.5t-49.5 89.5q0 44 31 78t81 44l1 3q-48 24 -48 76q0 56 50.5 91.5t133.5 35.5q73 0 116.5 -29t43.5 -76q0 -35 -24 -62.5t-61 -35.5l-1 -3q66 -27 66 -94t-57 -109q-56 -43 -150 -43zM957 260q37 0 61 17.5t24 43.5q0 40 -64 40q-38 0 -62 -16.5t-24 -43.5
q0 -19 17.5 -30t47.5 -11zM918 59q44 0 72.5 21t28.5 53q0 53 -79 53q-45 0 -74 -20.5t-29 -51.5q0 -26 22 -40.5t59 -14.5z" />
    <glyph glyph-name="seveneighths" unicode="&#x215e;" horiz-adv-x="1120" 
d="M268 -15h-112l602 742h110zM261 292h-106q43 175 217 337h-213l19 90h323l-18 -83q-97 -84 -145 -162q-52 -80 -77 -182zM804 -16q-83 0 -132.5 34.5t-49.5 89.5q0 44 31 78t81 44l1 3q-48 24 -48 76q0 56 50.5 91.5t133.5 35.5q73 0 116.5 -29t43.5 -76q0 -35 -24 -62.5
t-61 -35.5l-1 -3q66 -27 66 -94t-57 -109q-56 -43 -150 -43zM847 260q37 0 61 17.5t24 43.5q0 40 -64 40q-38 0 -62 -16.5t-24 -43.5q0 -19 17.5 -30t47.5 -11zM808 59q44 0 72.5 21t28.5 53q0 53 -79 53q-45 0 -74 -20.5t-29 -51.5q0 -26 22 -40.5t59 -14.5z" />
    <glyph glyph-name="arrowleft" unicode="&#x2190;" horiz-adv-x="1000" 
d="M349 423h529v-135h-527l98 -123l124 -165h-155l-269 356l269 356h155l-124 -164z" />
    <glyph glyph-name="arrowup" unicode="&#x2191;" horiz-adv-x="1000" 
d="M170 460l356 269l357 -269v-155l-165 124l-122 97v-526h-141v525l-120 -96l-165 -124v155z" />
    <glyph glyph-name="arrowright" unicode="&#x2192;" horiz-adv-x="999" 
d="M468 712h155l269 -356l-269 -356h-155l124 165l98 123h-527v135h529l-100 125z" />
    <glyph glyph-name="arrowdown" unicode="&#x2193;" horiz-adv-x="1000" 
d="M585 186l122 97l165 124v-155l-357 -269l-356 269v155l165 -124l120 -96v525h141v-526z" />
    <glyph glyph-name="arrowboth" unicode="&#x2194;" horiz-adv-x="1363" 
d="M832 712h155l269 -356l-269 -356h-155l124 165l98 123h-703l98 -123l124 -165h-155l-269 356l269 356h155l-124 -164l-100 -125h707l-100 125z" />
    <glyph glyph-name="arrowupdn" unicode="&#x2195;" horiz-adv-x="1088" 
d="M632 2l125 100l164 124v-155l-356 -269l-356 269v155l165 -124l123 -98v705l-124 -99l-165 -124v155l356 269l356 -269v-155l-164 124l-124 99v-707z" />
    <glyph glyph-name="uni2196" unicode="&#x2196;" horiz-adv-x="1040" 
d="M428 540l459 -443l-100 -97l-453 445l7 -178v-218h-135v619h631v-135h-230z" />
    <glyph glyph-name="uni2197" unicode="&#x2197;" horiz-adv-x="1000" 
d="M206 533v135h631v-619h-135v218l7 178l-453 -445l-100 97l459 443l-179 -7h-230z" />
    <glyph glyph-name="uni2198" unicode="&#x2198;" horiz-adv-x="1041" 
d="M732 401v218h135v-619h-631v135h230l179 -7l-459 443l100 97l453 -445z" />
    <glyph glyph-name="uni2199" unicode="&#x2199;" horiz-adv-x="1001" 
d="M877 571l-459 -443l179 7h230v-135h-631v619h135v-218l-7 -178l453 445z" />
    <glyph glyph-name="partialdiff" unicode="&#x2202;" horiz-adv-x="633" 
d="M313 721q147 0 218 -88.5t71 -274.5q0 -370 -275 -370q-115 0 -181 63t-66 176q0 110 61.5 173t167.5 63q91 0 151 -51q-9 100 -47 144.5t-111 44.5q-52 0 -136 -29l-40 113q104 36 187 36zM331 108q109 0 127 149q-20 40 -55 63t-76 23q-47 0 -76 -31t-29 -87
q0 -55 28 -86t81 -31z" />
    <glyph glyph-name="uni2206" unicode="&#x2206;" horiz-adv-x="719" 
d="M222 712h171l246 -712h-669zM244 358l-77 -236h274l-76 236l-60 205z" />
    <glyph glyph-name="product" unicode="&#x220f;" horiz-adv-x="929" 
d="M177 712h574v-916h-148v784h-278v-784h-148v916z" />
    <glyph glyph-name="summation" unicode="&#x2211;" horiz-adv-x="828" 
d="M132 712h576v-126h-391l274 -327l-280 -337h384v-126h-576v113l295 356l-282 334v113z" />
    <glyph glyph-name="minus" unicode="&#x2212;" horiz-adv-x="660" 
d="M620 247h-540v120h540v-120z" />
    <glyph glyph-name="uni2215" unicode="&#x2215;" horiz-adv-x="374" 
d="M-36 -15h-112l602 742h110z" />
    <glyph glyph-name="uni2219" unicode="&#x2219;" horiz-adv-x="383" 
d="M302 157h-263l55 260h263z" />
    <glyph glyph-name="radical" unicode="&#x221a;" horiz-adv-x="660" 
d="M491 -204h-181l-102 287l-114 -45l-44 120l241 90l100 -303l164 802h134z" />
    <glyph glyph-name="infinity" unicode="&#x221e;" horiz-adv-x="806" 
d="M234 158q-82 0 -130 49.5t-48 136.5t48 136.5t130 49.5q54 0 96 -24.5t91 -82.5q49 58 91 82.5t96 24.5q82 0 130 -49.5t48 -136.5t-48 -136.5t-130 -49.5q-54 0 -96 24.5t-91 82.5q-49 -58 -91 -82.5t-96 -24.5zM605 267q33 0 52 20.5t19 56.5q0 38 -19 59t-52 21
q-51 0 -110 -80q56 -77 110 -77zM237 264q51 0 110 80q-56 77 -110 77q-33 0 -52 -20.5t-19 -56.5q0 -38 19 -59t52 -21z" />
    <glyph glyph-name="integral" unicode="&#x222b;" horiz-adv-x="660" 
d="M255 -204h-64v113h29q59 0 59 59v614q0 80 42.5 122.5t122.5 42.5h64v-113h-29q-59 0 -59 -59v-614q0 -80 -42.5 -122.5t-122.5 -42.5z" />
    <glyph glyph-name="approxequal" unicode="&#x2248;" horiz-adv-x="660" 
d="M207 344h-120q0 196 150 196q55 0 119 -30q63 -31 91 -31q25 0 35.5 14.5t10.5 46.5h120q0 -196 -150 -196q-55 0 -117 31q-64 30 -93 30q-25 0 -35.5 -13.5t-10.5 -47.5zM207 94h-120q0 196 150 196q55 0 119 -30q63 -31 91 -31q25 0 35.5 14.5t10.5 46.5h120
q0 -196 -150 -196q-55 0 -117 31q-64 30 -93 30q-25 0 -35.5 -13.5t-10.5 -47.5z" />
    <glyph glyph-name="notequal" unicode="&#x2260;" horiz-adv-x="660" 
d="M620 489v-120h-196l-53 -119h249v-120h-303l-75 -169l-79 42l57 127h-140v120h193l53 119h-246v120h300l79 178l79 -42l-61 -136h143z" />
    <glyph glyph-name="lessequal" unicode="&#x2264;" horiz-adv-x="660" 
d="M72 458l557 162v-140l-387 -87l387 -86v-140l-557 161v130zM629 0h-558v120h558v-120z" />
    <glyph glyph-name="greaterequal" unicode="&#x2265;" horiz-adv-x="660" 
d="M72 480v140l557 -162v-130l-557 -161v140l387 86zM629 0h-558v120h558v-120z" />
    <glyph glyph-name="uni2460" unicode="&#x2460;" horiz-adv-x="1102" 
d="M938 31q-141 -140 -361 -140t-361 140q-143 140 -143 351q0 212 143 352q142 139 361 139t361 -139q143 -140 143 -352q0 -211 -143 -351zM319 126q102 -102 258 -102q155 0 259 102q102 100 102 256q0 155 -102 257q-104 101 -259 101t-258 -101q-103 -102 -103 -257
q0 -156 103 -256zM649 172h-100v275h-106v75h30q37 0 60 18t23 50v9h93v-427z" />
    <glyph glyph-name="uni2461" unicode="&#x2461;" horiz-adv-x="1102" 
d="M938 31q-141 -140 -361 -140t-361 140q-143 140 -143 351q0 212 143 352q142 139 361 139t361 -139q143 -140 143 -352q0 -211 -143 -351zM319 126q102 -102 258 -102q155 0 259 102q102 100 102 256q0 155 -102 257q-104 101 -259 101t-258 -101q-103 -102 -103 -257
q0 -156 103 -256zM745 176h-330q0 74 20 117t68 70l97 54q46 25 46 59q0 24 -18 38t-50 14q-64 0 -69 -60h-96q1 71 44 107.5t122 36.5q77 0 122 -36.5t45 -97.5q0 -76 -83 -121l-100 -54q-29 -17 -32 -39h214v-88z" />
    <glyph glyph-name="uni2462" unicode="&#x2462;" horiz-adv-x="1102" 
d="M938 31q-141 -140 -361 -140t-361 140q-143 140 -143 351q0 212 143 352q142 139 361 139t361 -139q143 -140 143 -352q0 -211 -143 -351zM319 126q102 -102 258 -102q155 0 259 102q102 100 102 256q0 155 -102 257q-104 101 -259 101t-258 -101q-103 -102 -103 -257
q0 -156 103 -256zM705 193q-46 -37 -128 -37q-81 0 -126 39q-46 37 -49 108h96q4 -63 79 -63q74 0 74 54q0 52 -78 52h-35v83h38q65 0 65 46q0 23 -18.5 36t-50.5 13q-65 0 -71 -52h-96q4 66 47.5 101t120.5 35t121 -33t44 -88q0 -72 -71 -92v-1q38 -9 61.5 -37.5
t23.5 -67.5q0 -58 -47 -96z" />
    <glyph glyph-name="uni2463" unicode="&#x2463;" horiz-adv-x="1102" 
d="M938 31q-141 -140 -361 -140t-361 140q-143 140 -143 351q0 212 143 352q142 139 361 139t361 -139q143 -140 143 -352q0 -211 -143 -351zM319 126q102 -102 258 -102q155 0 259 102q102 100 102 256q0 155 -102 257q-104 101 -259 101t-258 -101q-103 -102 -103 -257
q0 -156 103 -256zM688 172h-95v78l-215 -3v81l197 271h113v-265l69 3v-90l-69 3v-78zM591 480l-103 -144l105 -2v146h-2z" />
    <glyph glyph-name="uni2464" unicode="&#x2464;" horiz-adv-x="1102" 
d="M938 31q-141 -140 -361 -140t-361 140q-143 140 -143 351q0 212 143 352q142 139 361 139t361 -139q143 -140 143 -352q0 -211 -143 -351zM319 126q102 -102 258 -102q155 0 259 102q102 100 102 256q0 155 -102 257q-104 101 -259 101t-258 -101q-103 -102 -103 -257
q0 -156 103 -256zM582 158q-67 0 -112 30t-58 82l100 12q17 -41 71 -41q36 0 55 17t19 48q0 32 -19.5 49.5t-53.5 17.5q-40 0 -68 -28l-96 12l38 244h271v-86h-201l-15 -84l2 -1q41 24 92 24q67 0 109 -39t42 -104q0 -67 -48.5 -110t-127.5 -43z" />
    <glyph glyph-name="uni2465" unicode="&#x2465;" horiz-adv-x="1102" 
d="M938 31q-141 -140 -361 -140t-361 140q-143 140 -143 351q0 212 143 352q142 139 361 139t361 -139q143 -140 143 -352q0 -211 -143 -351zM319 126q102 -102 258 -102q155 0 259 102q102 100 102 256q0 155 -102 257q-104 101 -259 101t-258 -101q-103 -102 -103 -257
q0 -156 103 -256zM589 156q-94 0 -144.5 58.5t-50.5 164.5q0 112 48.5 170.5t142.5 58.5q64 0 107 -26t55 -69l-101 -13q-16 31 -64 31q-85 0 -90 -122q40 52 117 52q69 0 111.5 -42t42.5 -108q0 -69 -48 -112t-126 -43zM585 238q36 0 56.5 21.5t20.5 53.5t-21 51.5
t-56 19.5q-36 0 -57.5 -20.5t-21.5 -52.5q0 -33 22.5 -53t56.5 -20z" />
    <glyph glyph-name="uni2466" unicode="&#x2466;" horiz-adv-x="1102" 
d="M938 31q-141 -140 -361 -140t-361 140q-143 140 -143 351q0 212 143 352q142 139 361 139t361 -139q143 -140 143 -352q0 -211 -143 -351zM319 126q102 -102 258 -102q155 0 259 102q102 100 102 256q0 155 -102 257q-104 101 -259 101t-258 -101q-103 -102 -103 -257
q0 -156 103 -256zM602 152h-106q4 172 145 337h-213v90h323v-83q-75 -81 -110 -161q-35 -79 -39 -183z" />
    <glyph glyph-name="uni2467" unicode="&#x2467;" horiz-adv-x="1102" 
d="M938 31q-141 -140 -361 -140t-361 140q-143 140 -143 351q0 212 143 352q142 139 361 139t361 -139q143 -140 143 -352q0 -211 -143 -351zM319 126q102 -102 258 -102q155 0 259 102q102 100 102 256q0 155 -102 257q-104 101 -259 101t-258 -101q-103 -102 -103 -257
q0 -156 103 -256zM578 156q-90 0 -141 36.5t-51 100.5q0 41 23 69.5t63 39.5v3q-28 11 -46 36t-18 54q0 53 44.5 83t125.5 30q80 0 124.5 -30.5t44.5 -82.5q0 -32 -18 -56.5t-46 -33.5v-3q40 -11 63 -39.5t23 -69.5q0 -64 -50.5 -100.5t-140.5 -36.5zM525 446q21 -14 53 -14
t53 14q20 14 20.5 37.5t-19.5 36.5q-19 13 -54 13t-54 -13q-20 -14 -20 -37t21 -37zM513 249q24 -18 65 -18t65 18q24 17 24 46q0 30 -23.5 46.5t-65.5 16.5t-66 -16.5t-24 -46.5t25 -46z" />
    <glyph glyph-name="uni2468" unicode="&#x2468;" horiz-adv-x="1102" 
d="M938 31q-141 -140 -361 -140t-361 140q-143 140 -143 351q0 212 143 352q142 139 361 139t361 -139q143 -140 143 -352q0 -211 -143 -351zM319 126q102 -102 258 -102q155 0 259 102q102 100 102 256q0 155 -102 257q-104 101 -259 101t-258 -101q-103 -102 -103 -257
q0 -156 103 -256zM579 156q-64 0 -107 26t-55 69l101 13q16 -31 64 -31q85 0 90 122q-40 -52 -117 -52q-69 0 -111.5 42t-42.5 108q0 69 48 112t126 43q94 0 144.5 -58.5t50.5 -164.5q0 -112 -48.5 -170.5t-142.5 -58.5zM579 380q36 0 57.5 20.5t21.5 52.5q0 33 -22.5 53
t-56.5 20q-36 0 -56.5 -21.5t-20.5 -53.5t21 -51.5t56 -19.5z" />
    <glyph glyph-name="uni24EA" unicode="&#x24ea;" horiz-adv-x="1102" 
d="M938 31q-141 -140 -361 -140t-361 140q-143 140 -143 351q0 212 143 352q142 139 361 139t361 -139q143 -140 143 -352q0 -211 -143 -351zM319 126q102 -102 258 -102q155 0 259 102q102 100 102 256q0 155 -102 257q-104 101 -259 101t-258 -101q-103 -102 -103 -257
q0 -156 103 -256zM716 216q-48 -60 -139 -60t-138 60q-48 60 -48 169q0 108 48 166t138 58t138 -58t48 -166t-47 -169zM500 383q0 -136 77 -136t77 136q0 71 -18.5 103t-58.5 32t-58.5 -32t-18.5 -103z" />
    <glyph glyph-name="uni24FF" unicode="&#x24ff;" horiz-adv-x="1102" 
d="M938 31q-141 -140 -361 -140t-361 140q-143 140 -143 351q0 212 143 352q142 139 361 139t361 -139q143 -140 143 -352q0 -211 -143 -351zM439 216q47 -60 138 -60t139 60q47 61 47 169t-48 166t-138 58t-138 -58t-48 -166q0 -109 48 -169zM654 383q0 -136 -77 -136
t-77 136q0 71 18.5 103t58.5 32t58.5 -32t18.5 -103z" />
    <glyph glyph-name="filledbox" unicode="&#x25a0;" horiz-adv-x="1257" 
d="M1103 -88h-908v888h908v-888z" />
    <glyph glyph-name="uni25A1" unicode="&#x25a1;" horiz-adv-x="1257" 
d="M1103 -88h-908v888h908v-888zM339 667v-622h620v622h-620z" />
    <glyph glyph-name="lozenge" unicode="&#x25ca;" horiz-adv-x="614" 
d="M235 712h186l174 -356l-174 -356h-186l-174 356zM200 356l128 -276l128 276l-128 276z" />
    <glyph glyph-name="circle" unicode="&#x25cb;" horiz-adv-x="1102" 
d="M938 31q-141 -140 -361 -140t-361 140q-143 140 -143 351q0 212 143 352q142 139 361 139t361 -139q143 -140 143 -352q0 -211 -143 -351zM319 126q102 -102 258 -102q155 0 259 102q102 100 102 256q0 155 -102 257q-104 101 -259 101t-258 -101q-103 -102 -103 -257
q0 -156 103 -256z" />
    <glyph glyph-name="uni25CF" unicode="&#x25cf;" horiz-adv-x="1102" 
d="M938 31q-141 -140 -361 -140t-361 140q-143 140 -143 351q0 212 143 352q142 139 361 139t361 -139q143 -140 143 -352q0 -211 -143 -351z" />
    <glyph glyph-name="uni2776" unicode="&#x2776;" horiz-adv-x="1102" 
d="M938 31q-141 -140 -361 -140t-361 140q-143 140 -143 351q0 212 143 352q142 139 361 139t361 -139q143 -140 143 -352q0 -211 -143 -351zM543 447v-275h100v427h-93v-9q0 -32 -23 -50t-60 -18h-30v-75h106z" />
    <glyph glyph-name="uni2777" unicode="&#x2777;" horiz-adv-x="1102" 
d="M216 734q142 139 361 139t361 -139q143 -140 143 -352q0 -211 -143 -351q-141 -140 -361 -140t-361 140q-143 140 -143 351q0 212 143 352zM740 176v88h-214q3 22 32 39l100 54q83 45 83 121q0 61 -45 97.5t-122 36.5q-79 0 -122 -36.5t-44 -107.5h96q4 60 69 60
q32 0 50 -14t18 -38q0 -34 -46 -59l-97 -54q-48 -27 -68 -70t-20 -117h330z" />
    <glyph glyph-name="uni2778" unicode="&#x2778;" horiz-adv-x="1102" 
d="M938 31q-141 -140 -361 -140t-361 140q-143 140 -143 351q0 212 143 352q142 139 361 139t361 -139q143 -140 143 -352q0 -211 -143 -351zM451 195q45 -39 126 -39q82 0 128 37q47 38 47 96q0 39 -23.5 67.5t-61.5 37.5v1q71 20 71 92q0 55 -44 88t-121 33t-120.5 -35
t-47.5 -101h96q6 52 71 52q32 0 50.5 -13t18.5 -36q0 -46 -65 -46h-38v-83h35q78 0 78 -52q0 -54 -74 -54q-75 0 -79 63h-96q3 -71 49 -108z" />
    <glyph glyph-name="uni2779" unicode="&#x2779;" horiz-adv-x="1102" 
d="M938 31q-141 -140 -361 -140t-361 140q-143 140 -143 351q0 212 143 352q142 139 361 139t361 -139q143 -140 143 -352q0 -211 -143 -351zM585 255v-78h95v78l69 -3v90l-69 -3v265h-113l-197 -271v-81zM585 339l-105 2l103 144h2v-146z" />
    <glyph glyph-name="uni277A" unicode="&#x277a;" horiz-adv-x="1102" 
d="M216 734q142 139 361 139t361 -139q143 -140 143 -352q0 -211 -143 -351q-141 -140 -361 -140t-361 140q-143 140 -143 351q0 212 143 352zM583 153q79 0 127.5 43t48.5 110q0 65 -42 104t-109 39q-52 0 -92 -24l-2 1l15 84h201v86h-271l-38 -244l96 -12q28 28 68 28
q34 0 53.5 -17.5t19.5 -49.5q0 -31 -19 -48t-55 -17q-54 0 -71 41l-100 -12q13 -52 58 -82t112 -30z" />
    <glyph glyph-name="uni277B" unicode="&#x277b;" horiz-adv-x="1102" 
d="M938 31q-141 -140 -361 -140t-361 140q-143 140 -143 351q0 212 143 352q142 139 361 139t361 -139q143 -140 143 -352q0 -211 -143 -351zM589 156q78 0 126 43t48 112q0 66 -42.5 108t-111.5 42q-77 0 -117 -52q5 122 90 122q48 0 64 -31l101 13q-12 43 -55 69t-107 26
q-94 0 -142.5 -58.5t-48.5 -170.5q0 -106 50.5 -164.5t144.5 -58.5zM585 238q-34 0 -56.5 20t-22.5 53q0 32 21.5 52.5t57.5 20.5q35 0 56 -19.5t21 -51.5t-20.5 -53.5t-56.5 -21.5z" />
    <glyph glyph-name="uni277C" unicode="&#x277c;" horiz-adv-x="1102" 
d="M938 31q-141 -140 -361 -140t-361 140q-143 140 -143 351q0 212 143 352q142 139 361 139t361 -139q143 -140 143 -352q0 -211 -143 -351zM495 152h106q5 104 39 183q35 80 110 161v83h-323v-90h213q-141 -165 -145 -337z" />
    <glyph glyph-name="uni277D" unicode="&#x277d;" horiz-adv-x="1102" 
d="M938 31q-141 -140 -361 -140t-361 140q-143 140 -143 351q0 212 143 352q142 139 361 139t361 -139q143 -140 143 -352q0 -211 -143 -351zM578 156q90 0 140.5 36.5t50.5 100.5q0 41 -23 69.5t-63 39.5v3q28 9 46 33.5t18 56.5q0 52 -44.5 82.5t-124.5 30.5
q-81 0 -125.5 -30t-44.5 -83q0 -29 18 -54t46 -36v-3q-40 -11 -63 -39.5t-23 -69.5q0 -64 51 -100.5t141 -36.5zM631 446q-21 -14 -53 -14t-53 14t-21 37t20 36.5t54 13.5q35 0 54 -13q20 -13 19.5 -36.5t-20.5 -37.5zM643 249q-24 -18 -65 -18t-65 18q-25 16 -25 46
t24 46.5t66 16.5t65.5 -16.5t23.5 -46.5q0 -29 -24 -46z" />
    <glyph glyph-name="uni277E" unicode="&#x277e;" horiz-adv-x="1102" 
d="M938 31q-141 -140 -361 -140t-361 140q-143 140 -143 351q0 212 143 352q142 139 361 139t361 -139q143 -140 143 -352q0 -211 -143 -351zM577 156q94 0 142.5 58.5t48.5 170.5q0 106 -50.5 164.5t-144.5 58.5q-78 0 -126 -43t-48 -112q0 -66 42.5 -108t111.5 -42
q77 0 117 52q-5 -122 -90 -122q-48 0 -64 31l-101 -13q12 -43 55 -69t107 -26zM577 380q-35 0 -56 19.5t-21 51.5t20.5 53.5t56.5 21.5q34 0 56.5 -20t22.5 -53q0 -32 -21.5 -52.5t-57.5 -20.5z" />
    <glyph glyph-name="uni2E18" unicode="&#x2e18;" horiz-adv-x="624" 
d="M295 516h152l-32 -150h-152zM401 26h145q-42 -238 -307 -238q-121 0 -190.5 49.5t-69.5 138.5q0 117 134 182l48 23q62 30 88 57q19 19 27 44h91l-18 -221l-15 -67h-148l15 67l11 32l-1 -1h-1q-83 -41 -83 -102q0 -77 122 -77q71 0 106.5 26t45.5 87z" />
    <glyph glyph-name="uniF8FF" unicode="&#xf8ff;" horiz-adv-x="1069" 
d="M391 449v164q0 50 -40 50q-24 0 -39 -18t-15 -49v-147h-75v380h75v-142q27 44 79 44q40 0 66 -27q24 -26 24 -77v-178h-75zM810 829h75v-380h-75v380zM643 439q-66 0 -104.5 41t-38.5 108q0 63 37 103t98 40q64 0 102.5 -41.5t38.5 -112.5v-13h-200q4 -31 21 -48.5
t44 -17.5q39 0 54 35l74 -5q-27 -89 -126 -89zM680 660q-26 27 -65 12t-39 -57h123q-3 29 -19 45zM761 425q64 0 102.5 -41.5t38.5 -112.5v-13h-200q4 -31 21 -48.5t44 -17.5q39 0 54 35l74 -5q-27 -89 -126 -89q-66 0 -104.5 41t-38.5 108q0 63 37 103t98 40zM463 143
l-91 275h79l23 -82q11 -39 28 -109q16 71 27 109l25 82h76l-91 -275h-76zM806 354q-26 27 -65 12t-39 -57h123q-3 29 -19 45zM326 145h-75v69h75v-69zM161 194v-86l51 1v-55l-51 1v-135q0 -26 26 -26h25v-60h-49q-42 0 -60 18t-18 59v144l-37 -1v55l37 -1v86h76zM491 57
q-61 0 -61 -86q0 -87 61 -87q39 0 53 45h73q-8 -49 -41.5 -76.5t-85.5 -27.5q-61 0 -96.5 39.5t-35.5 106.5q0 66 35.5 105.5t96.5 39.5q53 0 86.5 -27t40.5 -76h-73q-14 44 -53 44zM889 13v-121q0 -41 10 -58h-76q-2 8 -3.5 17.5t-1.5 10.5q-30 -36 -85 -36q-43 0 -69.5 23
t-26.5 61q0 66 84 83l96 19v20q0 30 -46 30q-44 0 -50 -36l-68 1q7 88 117 88q119 0 119 -102zM326 -166h-75v275h75v-275zM754 -119q28 0 45.5 17t17.5 46v20l-70 -15q-36 -7 -36 -35q0 -33 43 -33z" />
    <glyph glyph-name="uniFEFF" unicode="&#xfeff;" 
 />
    <glyph glyph-name="null" 
 />
    <glyph glyph-name="Adieresis.ss01" horiz-adv-x="719" 
d="M429 806q-23 -24 -59 -24t-59 24q-23 23 -23 58q0 36 23 59t59 23t59 -23t23 -59q0 -35 -23 -58zM555 923q23 23 59 23t59 -23t23 -59q0 -35 -23 -58.5t-59 -23.5t-59 23.5t-23 58.5q0 36 23 59zM-30 0l400 712h174l95 -712h-153l-17 148h-258l-79 -148h-162zM324 358
l-47 -88h179l-10 88l-18 205z" />
    <glyph glyph-name="Cdotaccent.ss01" horiz-adv-x="693" 
d="M530 806q-23 -24 -59 -24t-59 24q-23 23 -23 58q0 36 23 59t59 23t59 -23t23 -59q0 -35 -23 -58zM331 -23q-131 0 -207 81q-76 79 -76 214q0 48 12 103q34 165 140 260q104 93 250 93q101 0 175 -49q87 -57 87 -203h-139q0 57 -35.5 90.5t-98.5 33.5q-89 0 -149 -62.5
t-84 -172.5q-10 -43 -10 -86q0 -83 37.5 -128.5t108.5 -45.5q65 0 111.5 35t68.5 93h141q-31 -119 -121 -188q-89 -68 -211 -68z" />
    <glyph glyph-name="Edieresis.ss01" horiz-adv-x="648" 
d="M402 806q-23 -24 -59 -24t-59 24q-23 23 -23 58q0 36 23 59t59 23t59 -23t23 -59q0 -35 -23 -58zM646 806q-23 -24 -59 -24t-59 24q-23 23 -23 58q0 36 23 59t59 23t59 -23t23 -59q0 -35 -23 -58zM695 712l-27 -125h-370l-33 -154h333l-27 -127h-333l-38 -181h380
l-27 -125h-528l152 712h518z" />
    <glyph glyph-name="Edotaccent.ss01" horiz-adv-x="648" 
d="M519 806q-23 -24 -59 -24t-59 24q-23 23 -23 58q0 36 23 59t59 23t59 -23t23 -59q0 -35 -23 -58zM695 712l-27 -125h-370l-33 -154h333l-27 -127h-333l-38 -181h380l-27 -125h-528l152 712h518z" />
    <glyph glyph-name="uni0122.ss01" horiz-adv-x="757" 
d="M407 385h297l-82 -385h-96l-6 73q-75 -89 -209 -89q-117 0 -190 78q-73 77 -73 209q0 48 10 95q34 168 146 266q110 96 252 96q123 0 194 -64t71 -177l-146 -9q0 58 -32.5 90t-94.5 32q-92 0 -156 -67t-87 -174q-9 -42 -9 -85q0 -81 37.5 -125t109.5 -44q70 0 125 41
t82 115h-169zM211 -85q25 19 69 19t69 -21q25 -19 25 -56q0 -23 -3 -37l-5 -21q-12 -47 -53.5 -74t-98.5 -27h-47l13 59h42q64 0 74 49l1 6q-21 -8 -40 -8q-71 0 -71 63q0 30 25 48z" />
    <glyph glyph-name="Gdotaccent.ss01" horiz-adv-x="757" 
d="M538 806q-23 -24 -59 -24t-59 24q-23 23 -23 58q0 36 23 59t59 23t59 -23t23 -59q0 -35 -23 -58zM407 385h297l-82 -385h-96l-6 73q-75 -89 -209 -89q-117 0 -190 78q-73 77 -73 209q0 48 10 95q34 168 146 266q110 96 252 96q123 0 194 -64t71 -177l-146 -9
q0 58 -32.5 90t-94.5 32q-92 0 -156 -67t-87 -174q-9 -42 -9 -85q0 -81 37.5 -125t109.5 -44q70 0 125 41t82 115h-169z" />
    <glyph glyph-name="Idieresis.ss01" horiz-adv-x="308" 
d="M220 806q-23 -24 -59 -24t-59 24q-23 23 -23 58q0 36 23 59t59 23t59 -23t23 -59q0 -35 -23 -58zM464 806q-23 -24 -59 -24t-59 24q-23 23 -23 58q0 36 23 59t59 23t59 -23t23 -59q0 -35 -23 -58zM173 0h-148l152 712h148z" />
    <glyph glyph-name="Idotaccent.ss01" horiz-adv-x="308" 
d="M342 806q-23 -24 -59 -24t-59 24q-23 23 -23 58q0 36 23 59t59 23t59 -23t23 -59q0 -35 -23 -58zM173 0h-148l152 712h148z" />
    <glyph glyph-name="uni0136.ss01" horiz-adv-x="707" 
d="M567 712h199l-336 -295l217 -417h-173l-164 327l-81 -65l-56 -262h-148l152 712h148l-58 -273zM225 -85q25 19 69 19t69 -21q25 -19 25 -56q0 -23 -3 -37l-5 -21q-12 -47 -53.5 -74t-98.5 -27h-47l13 59h42q64 0 74 49l1 6q-21 -8 -40 -8q-71 0 -71 63q0 30 25 48z" />
    <glyph glyph-name="uni013B.ss01" horiz-adv-x="590" 
d="M325 712l-124 -580h347l-28 -132h-495l152 712h148zM181 -85q25 19 69 19t69 -21q25 -19 25 -56q0 -23 -3 -37l-5 -21q-12 -47 -53.5 -74t-98.5 -27h-47l13 59h42q64 0 74 49l1 6q-21 -8 -40 -8q-71 0 -71 63q0 30 25 48z" />
    <glyph glyph-name="Ldot.ss01" horiz-adv-x="590" 
d="M177 712h148l-124 -580h347l-28 -132h-495zM528 334q-25 -25 -66 -25q-40 0 -65 25q-25 24 -25 62t25 63q25 24 65 24t66 -24q26 -25 26 -63t-26 -62z" />
    <glyph glyph-name="uni0145.ss01" horiz-adv-x="735" 
d="M505 249l99 463h148l-152 -712h-135l-194 464l-98 -464h-148l152 712h135zM211 -85q25 19 69 19t69 -21q25 -19 25 -56q0 -23 -3 -37l-5 -21q-12 -47 -53.5 -74t-98.5 -27h-47l13 59h42q64 0 74 49l1 6q-21 -8 -40 -8q-71 0 -71 63q0 30 25 48z" />
    <glyph glyph-name="Odieresis.ss01" horiz-adv-x="746" 
d="M418 806q-23 -24 -59 -24t-59 24q-23 23 -23 58q0 36 23 59t59 23t59 -23t23 -59q0 -35 -23 -58zM662 806q-23 -24 -59 -24t-59 24q-23 23 -23 58q0 36 23 59t59 23t59 -23t23 -59q0 -35 -23 -58zM336 -23q-130 0 -208 80q-79 79 -79 214q0 52 10 99q33 165 143 263
q110 96 256 96q126 0 204 -78q77 -79 77 -211q0 -49 -10 -96q-36 -178 -139.5 -272.5t-253.5 -94.5zM348 105q86 0 149 69t87 183q7 32 7 69q0 82 -39.5 128.5t-110.5 46.5q-88 0 -152 -67q-66 -69 -85 -177q-8 -48 -8 -79q0 -82 39 -127.5t113 -45.5z" />
    <glyph glyph-name="uni0156.ss01" horiz-adv-x="692" 
d="M692 544q0 -83 -45.5 -135.5t-130.5 -69.5q77 -26 77 -121q0 -3 -2 -39l-14 -179h-145l15 163q2 34 2 37q0 42 -21.5 59t-68.5 17h-127l-59 -276h-148l152 712h308q104 0 155.5 -45.5t51.5 -122.5zM258 396h138q66 0 105.5 33.5t39.5 89.5q0 69 -95 69h-147zM205 -85
q25 19 69 19t69 -21q25 -19 25 -56q0 -23 -3 -37l-5 -21q-12 -47 -53.5 -74t-98.5 -27h-47l13 59h42q64 0 74 49l1 6q-21 -8 -40 -8q-71 0 -71 63q0 30 25 48z" />
    <glyph glyph-name="uni0218.ss01" horiz-adv-x="681" 
d="M670 494h-142q1 5 1 15q0 47 -34 72.5t-94 25.5q-62 0 -97 -25.5t-35 -68.5q0 -53 66 -72l124 -35q160 -45 160 -183q0 -119 -82 -182.5t-231 -63.5q-124 0 -196.5 54t-72.5 151q0 18 3 39h143q-1 -5 -1 -20q0 -50 34 -76.5t97 -26.5q72 0 111.5 25.5t39.5 73.5
q0 30 -20 45.5t-71 31.5l-105 32q-71 22 -111.5 69t-40.5 115q0 114 77 176t216 62q121 0 191.5 -56t70.5 -154q0 -19 -1 -24zM204 -96q25 19 69 19q43 0 69 -21q25 -19 25 -56q0 -24 -3 -37l-5 -21q-12 -47 -53.5 -74t-98.5 -27h-47l13 59h42q64 0 74 49l1 6q-21 -8 -40 -8
q-71 0 -71 63q0 30 25 48z" />
    <glyph glyph-name="uni021A.ss01" horiz-adv-x="616" 
d="M117 712h575l-28 -132h-213l-124 -580h-148l124 580h-214zM151 -85q25 19 69 19t69 -21q25 -19 25 -56q0 -23 -3 -37l-5 -21q-12 -47 -53.5 -74t-98.5 -27h-47l13 59h42q64 0 74 49l1 6q-21 -8 -40 -8q-71 0 -71 63q0 30 25 48z" />
    <glyph glyph-name="Udieresis.ss01" horiz-adv-x="713" 
d="M412 806q-23 -24 -59 -24t-59 24q-23 23 -23 58q0 36 23 59t59 23t59 -23t23 -59q0 -35 -23 -58zM656 806q-23 -24 -59 -24t-59 24q-23 23 -23 58q0 36 23 59t59 23t59 -23t23 -59q0 -35 -23 -58zM317 -23q-117 0 -183 51t-66 143q0 26 6 58l103 483h148l-105 -495
q-4 -15 -4 -33q0 -79 109 -79q128 0 152 112l105 495h148l-105 -493q-53 -242 -308 -242z" />
    <glyph glyph-name="Wdieresis.ss01" horiz-adv-x="971" 
d="M533 806q-23 -24 -59 -24t-59 24q-23 23 -23 58q0 36 23 59t59 23t59 -23t23 -59q0 -35 -23 -58zM777 806q-23 -24 -59 -24t-59 24q-23 23 -23 58q0 36 23 59t59 23t59 -23t23 -59q0 -35 -23 -58zM716 356l170 356h157l-355 -712h-142l-13 486l-206 -486h-144l-61 712
h147l21 -356l4 -143l57 143l156 356h141l9 -356l-4 -142z" />
    <glyph glyph-name="Ydieresis.ss01" horiz-adv-x="656" 
d="M394 806q-23 -24 -59 -24t-59 24q-23 23 -23 58q0 36 23 59t59 23t59 -23t23 -59q0 -35 -23 -58zM638 806q-23 -24 -59 -24t-59 24q-23 23 -23 58q0 36 23 59t59 23t59 -23t23 -59q0 -35 -23 -58zM565 712h170l-329 -436l-59 -276h-148l59 277l-143 435h152l61 -221
l19 -99l61 99z" />
    <glyph glyph-name="Zdotaccent.ss01" horiz-adv-x="702" 
d="M539 806q-23 -24 -59 -24t-59 24q-23 23 -23 58q0 36 23 59t59 23t59 -23t23 -59q0 -35 -23 -58zM179 712h564l-25 -115l-492 -471h392l-27 -126h-590l26 115l492 471h-367z" />
    <glyph glyph-name="G.ss03" horiz-adv-x="727" 
d="M540 261h-171l26 124h323q-30 -188 -133 -294q-104 -107 -262 -107q-131 0 -204 73.5t-73 202.5q0 51 12 108q36 168 142 265q105 96 261 96q126 0 194.5 -65t68.5 -188h-139q0 61 -33.5 93t-96.5 32q-93 0 -160.5 -67t-93.5 -189q-10 -41 -10 -85q0 -148 143 -148
q146 0 206 149z" />
    <glyph glyph-name="uni01F4.ss03" horiz-adv-x="727" 
d="M446 925h172l-125 -141h-94zM540 261h-171l26 124h323q-30 -188 -133 -294q-104 -107 -262 -107q-131 0 -204 73.5t-73 202.5q0 51 12 108q36 168 142 265q105 96 261 96q126 0 194.5 -65t68.5 -188h-139q0 61 -33.5 93t-96.5 32q-93 0 -160.5 -67t-93.5 -189
q-10 -41 -10 -85q0 -148 143 -148q146 0 206 149z" />
    <glyph glyph-name="Gbreve.ss03" horiz-adv-x="727" 
d="M495 785q-157 0 -157 116q0 27 4 46h84q-1 -4 -1 -16q0 -54 78 -54q91 0 107 70h88q-21 -84 -67.5 -123t-135.5 -39zM540 261h-171l26 124h323q-30 -188 -133 -294q-104 -107 -262 -107q-131 0 -204 73.5t-73 202.5q0 51 12 108q36 168 142 265q105 96 261 96
q126 0 194.5 -65t68.5 -188h-139q0 61 -33.5 93t-96.5 32q-93 0 -160.5 -67t-93.5 -189q-10 -41 -10 -85q0 -148 143 -148q146 0 206 149z" />
    <glyph glyph-name="Gcircumflex.ss03" horiz-adv-x="727" 
d="M547 794l-42 82l-78 -82h-132l152 147h130l88 -147h-118zM540 261h-171l26 124h323q-30 -188 -133 -294q-104 -107 -262 -107q-131 0 -204 73.5t-73 202.5q0 51 12 108q36 168 142 265q105 96 261 96q126 0 194.5 -65t68.5 -188h-139q0 61 -33.5 93t-96.5 32
q-93 0 -160.5 -67t-93.5 -189q-10 -41 -10 -85q0 -148 143 -148q146 0 206 149z" />
    <glyph glyph-name="uni0122.ss03" horiz-adv-x="727" 
d="M540 261h-171l26 124h323q-30 -188 -133 -294q-104 -107 -262 -107q-131 0 -204 73.5t-73 202.5q0 51 12 108q36 168 142 265q105 96 261 96q126 0 194.5 -65t68.5 -188h-139q0 61 -33.5 93t-96.5 32q-93 0 -160.5 -67t-93.5 -189q-10 -41 -10 -85q0 -148 143 -148
q146 0 206 149zM291 -154l-102 -9l22 103h157l-31 -148q-10 -49 -39.5 -71t-83.5 -22h-54l12 51h54q25 0 36.5 9t16.5 32z" />
    <glyph glyph-name="Gdotaccent.ss03" horiz-adv-x="727" 
d="M445 925h141l-27 -128h-141zM540 261h-171l26 124h323q-30 -188 -133 -294q-104 -107 -262 -107q-131 0 -204 73.5t-73 202.5q0 51 12 108q36 168 142 265q105 96 261 96q126 0 194.5 -65t68.5 -188h-139q0 61 -33.5 93t-96.5 32q-93 0 -160.5 -67t-93.5 -189
q-10 -41 -10 -85q0 -148 143 -148q146 0 206 149z" />
    <glyph glyph-name="uni0122.ss01.ss03" horiz-adv-x="727" 
d="M540 261h-171l26 124h323q-30 -188 -133 -294q-104 -107 -262 -107q-131 0 -204 73.5t-73 202.5q0 51 12 108q36 168 142 265q105 96 261 96q126 0 194.5 -65t68.5 -188h-139q0 61 -33.5 93t-96.5 32q-93 0 -160.5 -67t-93.5 -189q-10 -41 -10 -85q0 -148 143 -148
q146 0 206 149zM201 -85q25 19 69 19t69 -21q25 -19 25 -56q0 -23 -3 -37l-5 -21q-12 -47 -53.5 -74t-98.5 -27h-47l13 59h42q64 0 74 49l1 6q-21 -8 -40 -8q-71 0 -71 63q0 30 25 48z" />
    <glyph glyph-name="Gdotaccent.ss01.ss03" horiz-adv-x="727" 
d="M565 823q-23 -24 -59 -24t-59 24q-23 23 -23 58q0 36 23 59t59 23t59 -23t23 -59q0 -35 -23 -58zM540 261h-171l26 124h323q-30 -188 -133 -294q-104 -107 -262 -107q-131 0 -204 73.5t-73 202.5q0 51 12 108q36 168 142 265q105 96 261 96q126 0 194.5 -65t68.5 -188
h-139q0 61 -33.5 93t-96.5 32q-93 0 -160.5 -67t-93.5 -189q-10 -41 -10 -85q0 -148 143 -148q146 0 206 149z" />
    <glyph glyph-name="R.ss04" horiz-adv-x="683" 
d="M700 524q0 -86 -54.5 -151t-147.5 -91l120 -282h-153l-110 269h-125l-57 -269h-148l152 712h299q108 0 166 -49.5t58 -138.5zM257 393h159q62 0 99.5 31.5t37.5 82.5q0 38 -23.5 59t-68.5 21h-163z" />
    <glyph glyph-name="Racute.ss04" horiz-adv-x="683" 
d="M414 908h172l-125 -141h-94zM700 524q0 -86 -54.5 -151t-147.5 -91l120 -282h-153l-110 269h-125l-57 -269h-148l152 712h299q108 0 166 -49.5t58 -138.5zM257 393h159q62 0 99.5 31.5t37.5 82.5q0 38 -23.5 59t-68.5 21h-163z" />
    <glyph glyph-name="Rcaron.ss04" horiz-adv-x="683" 
d="M669 914l-152 -147h-130l-88 147h116l42 -82l78 82h134zM700 524q0 -86 -54.5 -151t-147.5 -91l120 -282h-153l-110 269h-125l-57 -269h-148l152 712h299q108 0 166 -49.5t58 -138.5zM257 393h159q62 0 99.5 31.5t37.5 82.5q0 38 -23.5 59t-68.5 21h-163z" />
    <glyph glyph-name="uni0156.ss04" horiz-adv-x="683" 
d="M700 524q0 -86 -54.5 -151t-147.5 -91l120 -282h-153l-110 269h-125l-57 -269h-148l152 712h299q108 0 166 -49.5t58 -138.5zM257 393h159q62 0 99.5 31.5t37.5 82.5q0 38 -23.5 59t-68.5 21h-163zM298 -154l-102 -9l22 103h157l-31 -148q-10 -49 -39.5 -71t-83.5 -22
h-54l12 51h54q25 0 36.5 9t16.5 32z" />
    <glyph glyph-name="uni0156.ss01.ss04" horiz-adv-x="683" 
d="M700 524q0 -86 -54.5 -151t-147.5 -91l120 -282h-153l-110 269h-125l-57 -269h-148l152 712h299q108 0 166 -49.5t58 -138.5zM257 393h159q62 0 99.5 31.5t37.5 82.5q0 38 -23.5 59t-68.5 21h-163zM208 -85q25 19 69 19q43 0 69 -21q25 -19 25 -56q0 -23 -3 -37l-5 -21
q-12 -47 -53.5 -74t-98.5 -27h-47l13 59h42q64 0 74 49l1 6q-21 -8 -40 -8q-71 0 -71 63q0 30 25 48z" />
    <glyph glyph-name="i.loclTRK" horiz-adv-x="261" 
d="M270 584h-141l28 128h141zM146 0h-141l110 516h141z" />
    <glyph glyph-name="adieresis.ss01" horiz-adv-x="557" 
d="M300 603q-23 -24 -59 -24t-59 24q-23 23 -23 58q0 36 23 59t59 23t59 -23t23 -59q0 -35 -23 -58zM426 720q23 23 59 23t59 -23t23 -59q0 -35 -23 -58.5t-59 -23.5t-59 23.5t-23 58.5q0 36 23 59zM328 528q94 0 143.5 -35.5t49.5 -103.5q0 -24 -7 -53l-49 -228
q-9 -40 -9 -69q0 -23 6 -39h-131v58q-64 -73 -168 -73q-74 0 -118.5 37t-44.5 98q0 145 193 178l184 32l4 22q3 16 3 25q0 51 -74 51q-44 0 -68 -15.5t-37 -52.5l-128 4q22 85 83 124.5t168 39.5zM217 89q43 0 79 25.5t51 69.5l12 58l-136 -26q-80 -15 -80 -74q0 -53 74 -53
z" />
    <glyph glyph-name="cdotaccent.ss01" horiz-adv-x="548" 
d="M417 603q-23 -24 -59 -24t-59 24q-23 23 -23 58q0 36 23 59t59 23t59 -23t23 -59q0 -35 -23 -58zM242 -17q-101 0 -158 56.5t-57 154.5q0 40 7 72q23 123 100 193t189 70q103 0 156.5 -51t53.5 -142h-137q-5 83 -84 83q-52 0 -91 -43.5t-53 -119.5q-6 -32 -6 -58
q0 -105 85 -105q75 0 115 85h140q-32 -93 -99.5 -144t-160.5 -51z" />
    <glyph glyph-name="edieresis.ss01" horiz-adv-x="583" 
d="M315 603q-23 -24 -59 -24t-59 24q-23 23 -23 58q0 36 23 59t59 23t59 -23t23 -59q0 -35 -23 -58zM441 720q23 23 59 23t59 -23t23 -59q0 -35 -23 -58.5t-59 -23.5t-59 23.5t-23 58.5q0 36 23 59zM331 529q103 0 163.5 -57t60.5 -158q0 -49 -13 -98h-377q-1 -5 -1 -20
q0 -48 26.5 -75.5t73.5 -27.5q72 0 112 66l138 -10q-79 -166 -257 -166q-108 0 -168 63t-60 161q0 38 8 73q26 116 104 182.5t190 66.5zM322 426q-48 0 -85 -30t-54 -84h233q1 4 1 18q0 45 -25.5 70.5t-69.5 25.5z" />
    <glyph glyph-name="edotaccent.ss01" horiz-adv-x="583" 
d="M435 603q-23 -24 -59 -24t-59 24q-23 23 -23 58q0 36 23 59t59 23t59 -23t23 -59q0 -35 -23 -58zM542 216h-377q-1 -5 -1 -20q0 -48 26.5 -75.5t73.5 -27.5q72 0 112 66l138 -10q-79 -166 -257 -166q-108 0 -168 63t-60 161q0 38 8 73q26 116 104 182.5t190 66.5
q103 0 163.5 -57t60.5 -158q0 -49 -13 -98zM322 426q-48 0 -85 -30t-54 -84h233q1 4 1 18q0 45 -25.5 70.5t-69.5 25.5z" />
    <glyph glyph-name="uni0123.ss01" horiz-adv-x="593" 
d="M380 580q-41 0 -63.5 18.5t-22.5 51.5q0 20 3 34l4 19q9 42 47.5 67t91.5 25h42l-11 -54h-38q-59 0 -68 -45l-1 -5q14 7 37 7q65 0 65 -57q0 -28 -23 -44.5t-63 -16.5zM443 446l20 70h125l-111 -522q-24 -108 -87.5 -159t-182.5 -51q-220 0 -220 174h130q0 -69 96 -69
q56 0 83.5 24t39.5 79l15 71q-63 -63 -146 -63q-79 0 -127.5 55t-48.5 147q-3 130 74 229t194 98q102 0 146 -83zM254 120q67 0 111 59q42 59 42 134q0 48 -24.5 75.5t-66.5 27.5q-68 0 -108 -60q-42 -60 -42 -140q0 -45 23 -70.5t65 -25.5z" />
    <glyph glyph-name="gdotaccent.ss01" horiz-adv-x="593" 
d="M441 603q-23 -24 -59 -24t-59 24q-23 23 -23 58q0 36 23 59t59 23t59 -23t23 -59q0 -35 -23 -58zM443 446l20 70h125l-111 -522q-24 -108 -87.5 -159t-182.5 -51q-220 0 -220 174h130q0 -69 96 -69q56 0 83.5 24t39.5 79l15 71q-63 -63 -146 -63q-79 0 -127.5 55
t-48.5 147q-3 130 74 229t194 98q102 0 146 -83zM254 120q67 0 111 59q42 59 42 134q0 48 -24.5 75.5t-66.5 27.5q-68 0 -108 -60q-42 -60 -42 -140q0 -45 23 -70.5t65 -25.5z" />
    <glyph glyph-name="i.ss01" horiz-adv-x="261" 
d="M274 602q-22 -22 -57 -22t-58 22t-23 57t23 58t58 23t57 -23t22 -58t-22 -57zM146 0h-141l110 516h141z" />
    <glyph glyph-name="idieresis.ss01" horiz-adv-x="261" 
d="M154 603q-23 -24 -59 -24t-59 24q-23 23 -23 58q0 36 23 59t59 23t59 -23t23 -59q0 -35 -23 -58zM398 603q-23 -24 -59 -24t-59 24q-23 23 -23 58q0 36 23 59t59 23t59 -23t23 -59q0 -35 -23 -58zM146 0h-141l110 516h141z" />
    <glyph glyph-name="i.loclTRK.ss01" horiz-adv-x="261" 
d="M274 602q-22 -22 -57 -22t-58 22t-23 57t23 58t58 23t57 -23t22 -58t-22 -57zM146 0h-141l110 516h141z" />
    <glyph glyph-name="ij.ss01" horiz-adv-x="522" 
d="M535 603q-23 -23 -58 -23t-57 23t-22 58t22 57t57 22t58 -22t23 -57t-23 -58zM274 602q-22 -22 -57 -22t-58 22t-23 57t23 58t58 23t57 -23t22 -58t-22 -57zM146 0h-141l110 516h141zM228 -204h-92l26 124h36q29 0 42 9t18 32l118 555h141l-122 -574
q-17 -81 -53.5 -113.5t-113.5 -32.5z" />
    <glyph glyph-name="iogonek.ss01" horiz-adv-x="261" 
d="M159 717q23 23 58 23t57 -23t22 -58t-22 -57t-57 -22t-58 22t-23 57t23 58zM40 0h-35l110 516h141l-110 -516l-78 -72q-16 -15 -16 -32q0 -13 11 -21.5t29 -8.5h28l-18 -87h-73q-52 0 -81.5 22.5t-29.5 60.5q0 52 57 92z" />
    <glyph glyph-name="j.ss01" horiz-adv-x="261" 
d="M274 603q-22 -23 -57 -23t-58 23t-23 58t23 57t58 22t57 -22t22 -57t-22 -58zM-33 -204h-92l26 124h36q29 0 42 9t18 32l118 555h141l-122 -574q-17 -81 -53.5 -113.5t-113.5 -32.5z" />
    <glyph glyph-name="uni0137.ss01" horiz-adv-x="572" 
d="M426 516h182l-251 -213l145 -303h-155l-101 224l-64 -54l-36 -170h-141l152 712h141l-82 -382zM139 -85q25 19 69 19t69 -21q25 -19 25 -56q0 -23 -3 -37l-5 -21q-12 -47 -53.5 -74t-98.5 -27h-47l13 59h42q64 0 74 49l1 6q-21 -8 -40 -8q-71 0 -71 63q0 30 25 48z" />
    <glyph glyph-name="uni013C.ss01" horiz-adv-x="261" 
d="M5 0l152 712h141l-152 -712h-141zM-26 -85q25 19 69 19q43 0 69 -21q25 -19 25 -56q0 -23 -3 -37l-5 -21q-12 -47 -53.5 -74t-98.5 -27h-47l13 59h42q64 0 74 49l1 6q-21 -8 -40 -8q-71 0 -71 63q0 30 25 48z" />
    <glyph glyph-name="ldot.ss01" horiz-adv-x="461" 
d="M146 0h-141l152 712h141zM439 298q-25 -25 -66 -25q-40 0 -65 25q-26 24 -26 62t26 63q26 24 65 24q41 0 66 -24q25 -25 25 -63t-25 -62z" />
    <glyph glyph-name="napostrophe.ss01" horiz-adv-x="878" 
d="M317 581l-7 -32q-13 -63 -61.5 -100t-122.5 -37h-8l14 64h8q82 0 97 74l1 5h-11q-39 0 -62 22t-23 57q0 40 26.5 67.5t68.5 27.5t65 -25t23 -67q0 -16 -8 -56zM695 529q68 0 106.5 -38.5t38.5 -105.5q0 -25 -6 -52l-71 -333h-141l65 307q5 25 5 38q0 57 -60 57
q-43 0 -77 -31.5t-48 -85.5l-60 -285h-141l109 516h138l-12 -69q63 82 154 82z" />
    <glyph glyph-name="uni0146.ss01" horiz-adv-x="578" 
d="M395 529q68 0 106.5 -38.5t38.5 -105.5q0 -25 -6 -52l-71 -333h-141l65 307q5 25 5 38q0 57 -60 57q-43 0 -77 -31.5t-48 -85.5l-60 -285h-141l109 516h138l-12 -69q63 82 154 82zM131 -85q25 19 69 19t69 -21q25 -19 25 -56q0 -23 -3 -37l-5 -21q-12 -47 -53.5 -74
t-98.5 -27h-47l13 59h42q64 0 74 49l1 6q-21 -8 -40 -8q-71 0 -71 63q0 30 25 48z" />
    <glyph glyph-name="odieresis.ss01" horiz-adv-x="592" 
d="M320 603q-23 -24 -59 -24t-59 24q-23 23 -23 58q0 36 23 59t59 23t59 -23t23 -59q0 -35 -23 -58zM564 603q-23 -24 -59 -24t-59 24q-23 23 -23 58q0 36 23 59t59 23t59 -23t23 -59q0 -35 -23 -58zM256 -17q-103 0 -165 62q-63 61 -63 161q0 28 6 60q23 118 104 190
q80 73 201 73q103 0 164 -61q60 -62 60 -159q0 -30 -6 -63q-24 -123 -103 -193t-198 -70zM264 93q61 0 104.5 44.5t54.5 118.5q3 22 3 42q0 57 -26 89t-74 32q-59 0 -101.5 -44t-56.5 -119q-5 -32 -5 -48q0 -54 26.5 -84.5t74.5 -30.5z" />
    <glyph glyph-name="uni0157.ss01" horiz-adv-x="399" 
d="M370 534q28 0 46 -7l-27 -130q-15 3 -30 3q-127 0 -159 -149l-53 -251h-141l109 516h134l-11 -65q53 83 132 83zM-28 -85q25 19 69 19q43 0 69 -21q25 -19 25 -56q0 -23 -3 -37l-5 -21q-12 -47 -53.5 -74t-98.5 -27h-47l13 59h42q64 0 74 49l1 6q-21 -8 -40 -8
q-71 0 -71 63q0 30 25 48z" />
    <glyph glyph-name="uni0219.ss01" horiz-adv-x="540" 
d="M261 321l81 -18q138 -31 138 -140q0 -90 -65 -136t-182 -46q-103 0 -158 45.5t-55 127.5l128 5q0 -80 97 -80q48 0 74 15.5t26 43.5q0 20 -13 31t-45 19l-85 21q-62 16 -95.5 52t-33.5 87q0 86 62.5 133.5t167.5 47.5q93 0 146 -44.5t53 -120.5l-124 -4q0 34 -22.5 52.5
t-62.5 18.5q-39 0 -62 -16t-23 -45q0 -38 53 -49zM137 -85q25 19 69 19t69 -21q25 -19 25 -56q0 -23 -3 -37l-5 -21q-12 -47 -53.5 -74t-98.5 -27h-47l13 59h42q64 0 74 49l1 6q-21 -8 -40 -8q-71 0 -71 63q0 30 25 48z" />
    <glyph glyph-name="uni021B.ss01" horiz-adv-x="352" 
d="M260 415l-9 -44l-43 -200q-4 -17 -4 -27q0 -31 40 -31h47l-24 -113h-82q-129 0 -129 104q0 16 5 41l49 229l9 41l-71 -3l22 104l70 -3l10 47l24 115h141l-24 -114l-10 -48l96 3l-22 -104zM10 -85q25 19 69 19q43 0 69 -21q25 -19 25 -56q0 -23 -3 -37l-5 -21
q-12 -47 -53.5 -74t-98.5 -27h-47l13 59h42q64 0 74 49l1 6q-21 -8 -40 -8q-71 0 -71 63q0 30 25 48z" />
    <glyph glyph-name="udieresis.ss01" horiz-adv-x="578" 
d="M302 603q-23 -24 -59 -24t-59 24q-23 23 -23 58q0 36 23 59t59 23t59 -23t23 -59q0 -35 -23 -58zM546 603q-23 -24 -59 -24t-59 24q-23 23 -23 58q0 36 23 59t59 23t59 -23t23 -59q0 -35 -23 -58zM371 231l60 285h141l-109 -516h-138l12 69q-63 -82 -154 -82
q-68 0 -106.5 38.5t-38.5 105.5q0 25 6 52l71 333h141l-65 -307q-5 -25 -5 -38q0 -57 60 -57q43 0 77 31.5t48 85.5z" />
    <glyph glyph-name="wdieresis.ss01" horiz-adv-x="772" 
d="M402 603q-23 -24 -59 -24t-59 24q-23 23 -23 58q0 36 23 59t59 23t59 -23t23 -59q0 -35 -23 -58zM646 603q-23 -24 -59 -24t-59 24q-23 23 -23 58q0 36 23 59t59 23t59 -23t23 -59q0 -35 -23 -58zM547 287l106 229h154l-263 -516h-137l-13 287l-2 58l-23 -58l-131 -287
h-135l-43 516h136l14 -229l3 -113l45 113l107 229h125l10 -227l3 -115z" />
    <glyph glyph-name="ydieresis.ss01" horiz-adv-x="551" 
d="M294 603q-23 -24 -59 -24t-59 24q-23 23 -23 58q0 36 23 59t59 23t59 -23t23 -59q0 -35 -23 -58zM538 603q-23 -24 -59 -24t-59 24q-23 23 -23 58q0 36 23 59t59 23t59 -23t23 -59q0 -35 -23 -58zM246 155l184 361h156l-326 -600q-37 -66 -77.5 -93t-103.5 -27h-118
l26 120h68q58 0 82 44l10 18l-87 538h143l39 -290z" />
    <glyph glyph-name="zdotaccent.ss01" horiz-adv-x="490" 
d="M396 603q-23 -24 -59 -24t-59 24q-23 23 -23 58q0 36 23 59t59 23t59 -23t23 -59q0 -35 -23 -58zM107 516h403l-25 -115l-325 -290h274l-24 -111h-445l24 113l332 292h-238z" />
    <glyph glyph-name="a.ss02" horiz-adv-x="597" 
d="M450 455l18 61h124l-110 -516h-124l10 70q-61 -82 -170 -82q-82 0 -128.5 49t-46.5 137q0 89 36 170q36 79 104 132q67 52 151 52q103 0 136 -73zM254 96q74 0 116 69q42 68 42 158q0 97 -90 97q-74 0 -115 -68q-42 -69 -42 -159q0 -97 89 -97z" />
    <glyph glyph-name="aacute.ss02" horiz-adv-x="597" 
d="M321 712h172l-125 -141h-94zM450 455l18 61h124l-110 -516h-124l10 70q-61 -82 -170 -82q-82 0 -128.5 49t-46.5 137q0 89 36 170q36 79 104 132q67 52 151 52q103 0 136 -73zM254 96q74 0 116 69q42 68 42 158q0 97 -90 97q-74 0 -115 -68q-42 -69 -42 -159
q0 -97 89 -97z" />
    <glyph glyph-name="abreve.ss02" horiz-adv-x="597" 
d="M370 572q-157 0 -157 116q0 27 4 46h84q-1 -4 -1 -16q0 -54 78 -54q91 0 107 70h88q-21 -84 -67 -123t-136 -39zM450 455l18 61h124l-110 -516h-124l10 70q-61 -82 -170 -82q-82 0 -128.5 49t-46.5 137q0 89 36 170q36 79 104 132q67 52 151 52q103 0 136 -73zM254 96
q74 0 116 69q42 68 42 158q0 97 -90 97q-74 0 -115 -68q-42 -69 -42 -159q0 -97 89 -97z" />
    <glyph glyph-name="acircumflex.ss02" horiz-adv-x="597" 
d="M422 581l-42 82l-78 -82h-132l152 147h130l88 -147h-118zM450 455l18 61h124l-110 -516h-124l10 70q-61 -82 -170 -82q-82 0 -128.5 49t-46.5 137q0 89 36 170q36 79 104 132q67 52 151 52q103 0 136 -73zM254 96q74 0 116 69q42 68 42 158q0 97 -90 97q-74 0 -115 -68
q-42 -69 -42 -159q0 -97 89 -97z" />
    <glyph glyph-name="adieresis.ss02" horiz-adv-x="597" 
d="M215 712h141l-28 -128h-141zM426 712h141l-28 -128h-141zM450 455l18 61h124l-110 -516h-124l10 70q-61 -82 -170 -82q-82 0 -128.5 49t-46.5 137q0 89 36 170q36 79 104 132q67 52 151 52q103 0 136 -73zM254 96q74 0 116 69q42 68 42 158q0 97 -90 97q-74 0 -115 -68
q-42 -69 -42 -159q0 -97 89 -97z" />
    <glyph glyph-name="agrave.ss02" horiz-adv-x="597" 
d="M388 712l18 -141h-84l-96 141h162zM450 455l18 61h124l-110 -516h-124l10 70q-61 -82 -170 -82q-82 0 -128.5 49t-46.5 137q0 89 36 170q36 79 104 132q67 52 151 52q103 0 136 -73zM254 96q74 0 116 69q42 68 42 158q0 97 -90 97q-74 0 -115 -68q-42 -69 -42 -159
q0 -97 89 -97z" />
    <glyph glyph-name="amacron.ss02" horiz-adv-x="597" 
d="M210 711h363l-23 -105h-363zM450 455l18 61h124l-110 -516h-124l10 70q-61 -82 -170 -82q-82 0 -128.5 49t-46.5 137q0 89 36 170q36 79 104 132q67 52 151 52q103 0 136 -73zM254 96q74 0 116 69q42 68 42 158q0 97 -90 97q-74 0 -115 -68q-42 -69 -42 -159
q0 -97 89 -97z" />
    <glyph glyph-name="aogonek.ss02" horiz-adv-x="595" 
d="M477 0l-78 -72q-16 -15 -16 -32q0 -13 11 -21.5t29 -8.5h28l-18 -87h-73q-52 0 -81.5 22.5t-29.5 60.5q0 52 57 92l76 54l-12 82q-66 -92 -171 -92q-76 0 -123 55t-47 148q0 130 73 228q72 99 184 99q110 0 152 -97l25 85h124zM257 108q65 0 107 60q41 61 41 134
q0 51 -25 82t-68 31q-65 0 -105 -61t-40 -142q0 -46 24.5 -75t65.5 -29z" />
    <glyph glyph-name="aring.ss02" horiz-adv-x="597" 
d="M498 613q-42 -42 -106 -42t-106 42q-42 41 -42 105t42 106t106 42t106 -42t42 -106t-42 -105zM443 770q-19 20 -50 20t-51 -20t-20 -52t20 -51q19 -19 50.5 -19t50.5 19t19 51t-19 52zM450 455l18 61h124l-110 -516h-124l10 70q-61 -82 -170 -82q-82 0 -128.5 49
t-46.5 137q0 89 36 170q36 79 104 132q67 52 151 52q103 0 136 -73zM254 96q74 0 116 69q42 68 42 158q0 97 -90 97q-74 0 -115 -68q-42 -69 -42 -159q0 -97 89 -97z" />
    <glyph glyph-name="aringacute.ss02" horiz-adv-x="597" 
d="M406 1042h172l-125 -141h-94zM489 608q-42 -42 -106 -42t-106 42q-42 40 -42 105q0 64 42 106t106 42t106 -42t42 -106q0 -65 -42 -105zM434 765q-20 19 -51 19t-50 -19t-19 -51.5t19 -51.5t50 -19t51 19t20 51.5t-20 51.5zM450 455l18 61h124l-110 -516h-124l10 70
q-61 -82 -170 -82q-82 0 -128.5 49t-46.5 137q0 89 36 170q36 79 104 132q67 52 151 52q103 0 136 -73zM254 96q74 0 116 69q42 68 42 158q0 97 -90 97q-74 0 -115 -68q-42 -69 -42 -159q0 -97 89 -97z" />
    <glyph glyph-name="atilde.ss02" horiz-adv-x="597" 
d="M313 639q-42 0 -53 -53h-108q39 178 156 178q38 0 79 -26q41 -27 66 -27q42 0 53 53h108q-37 -178 -156 -178q-39 0 -79 27q-41 26 -66 26zM450 455l18 61h124l-110 -516h-124l10 70q-61 -82 -170 -82q-82 0 -128.5 49t-46.5 137q0 89 36 170q36 79 104 132q67 52 151 52
q103 0 136 -73zM254 96q74 0 116 69q42 68 42 158q0 97 -90 97q-74 0 -115 -68q-42 -69 -42 -159q0 -97 89 -97z" />
    <glyph glyph-name="adieresis.ss01.ss02" horiz-adv-x="597" 
d="M317 603q-23 -24 -59 -24t-59 24q-23 23 -23 58q0 36 23 59t59 23t59 -23t23 -59q0 -35 -23 -58zM561 603q-23 -24 -59 -24t-59 24q-23 23 -23 58q0 36 23 59t59 23t59 -23t23 -59q0 -35 -23 -58zM450 455l18 61h124l-110 -516h-124l10 70q-61 -82 -170 -82
q-82 0 -128.5 49t-46.5 137q0 89 36 170q36 79 104 132q67 52 151 52q103 0 136 -73zM254 96q74 0 116 69q42 68 42 158q0 97 -90 97q-74 0 -115 -68q-42 -69 -42 -159q0 -97 89 -97z" />
    <glyph glyph-name="uni021B.ss01.ss05" horiz-adv-x="337" 
d="M294 513l83 3l-22 -104l-83 3l-88 -415h-141l88 415l-83 -3l22 104l83 -3l34 162h141zM12 -85q25 19 69 19q43 0 69 -21q25 -19 25 -56q0 -23 -3 -37l-5 -21q-12 -47 -53.5 -74t-98.5 -27h-47l13 59h42q64 0 74 49l1 6q-21 -8 -40 -8q-71 0 -71 63q0 30 25 48z" />
    <glyph glyph-name="udieresis.ss01.ss05" horiz-adv-x="578" 
d="M302 603q-23 -24 -59 -24t-59 24q-23 23 -23 58q0 36 23 59t59 23t59 -23t23 -59q0 -35 -23 -58zM546 603q-23 -24 -59 -24t-59 24q-23 23 -23 58q0 36 23 59t59 23t59 -23t23 -59q0 -35 -23 -58zM371 231l60 285h141l-109 -516h-138l12 69q-63 -82 -154 -82
q-68 0 -106.5 38.5t-38.5 105.5q0 25 6 52l71 333h141l-65 -307q-5 -25 -5 -38q0 -57 60 -57q43 0 77 31.5t48 85.5z" />
    <glyph glyph-name="t.ss05" horiz-adv-x="337" 
d="M294 513l83 3l-22 -104l-83 3l-88 -415h-141l88 415l-83 -3l22 104l83 -3l34 162h141z" />
    <glyph glyph-name="tbar.ss05" horiz-adv-x="337" 
d="M377 516l-22 -104l-83 3l-29 -137l86 3l-22 -104l-85 3l-38 -180h-141l38 180l-82 -3l22 104l81 -3l29 137l-83 -3l22 104l83 -3l34 162h141l-34 -162z" />
    <glyph glyph-name="tcaron.ss05" horiz-adv-x="447" 
d="M357 571l95 218h150l-136 -218h-109zM187 675h141l-34 -162l83 3l-22 -104l-83 3l-88 -415h-141l88 415l-83 -3l22 104l83 -3z" />
    <glyph glyph-name="uni0163.ss05" horiz-adv-x="337" 
d="M272 415l-88 -415h-23l-50 -57h11q38 0 60.5 -21.5t22.5 -58.5q0 -52 -47 -83t-120 -31h-59l14 64h40q62 0 62 34q0 22 -33 22h-17l-36 52l67 79h-33l88 415l-83 -3l22 104l83 -3l34 162h141l-34 -162l83 3l-22 -104z" />
    <glyph glyph-name="uni021B.ss05" horiz-adv-x="337" 
d="M294 513l83 3l-22 -104l-83 3l-88 -415h-141l88 415l-83 -3l22 104l83 -3l34 162h141zM102 -154l-102 -9l22 103h157l-31 -148q-10 -49 -39.5 -71t-83.5 -22h-54l12 51h54q25 0 36.5 9t16.5 32z" />
    <glyph glyph-name="udieresis.ss01.ss06" horiz-adv-x="578" 
d="M302 603q-23 -24 -59 -24t-59 24q-23 23 -23 58q0 36 23 59t59 23t59 -23t23 -59q0 -35 -23 -58zM546 603q-23 -24 -59 -24t-59 24q-23 23 -23 58q0 36 23 59t59 23t59 -23t23 -59q0 -35 -23 -58zM250 -13q-97 0 -152.5 42.5t-55.5 119.5q0 24 6 51l67 316h141l-68 -320
q-4 -15 -4 -32q0 -67 76 -67q44 0 68 22.5t35 72.5l69 324h141l-69 -326q-42 -203 -254 -203z" />
    <glyph glyph-name="u.ss06" horiz-adv-x="578" 
d="M250 -13q-97 0 -152.5 42.5t-55.5 119.5q0 24 6 51l67 316h141l-68 -320q-4 -15 -4 -32q0 -67 76 -67q44 0 68 22.5t35 72.5l69 324h141l-69 -326q-42 -203 -254 -203z" />
    <glyph glyph-name="uacute.ss06" horiz-adv-x="578" 
d="M353 571h-94l47 141h172zM250 -13q-97 0 -152.5 42.5t-55.5 119.5q0 24 6 51l67 316h141l-68 -320q-4 -15 -4 -32q0 -67 76 -67q44 0 68 22.5t35 72.5l69 324h141l-69 -326q-42 -203 -254 -203z" />
    <glyph glyph-name="ubreve.ss06" horiz-adv-x="578" 
d="M355 572q-157 0 -157 116q0 27 4 46h84q-1 -4 -1 -16q0 -54 78 -54q91 0 107 70h88q-21 -84 -67.5 -123t-135.5 -39zM250 -13q-97 0 -152.5 42.5t-55.5 119.5q0 24 6 51l67 316h141l-68 -320q-4 -15 -4 -32q0 -67 76 -67q44 0 68 22.5t35 72.5l69 324h141l-69 -326
q-42 -203 -254 -203z" />
    <glyph glyph-name="ucircumflex.ss06" horiz-adv-x="578" 
d="M287 581h-132l152 147h130l88 -147h-118l-42 82zM250 -13q-97 0 -152.5 42.5t-55.5 119.5q0 24 6 51l67 316h141l-68 -320q-4 -15 -4 -32q0 -67 76 -67q44 0 68 22.5t35 72.5l69 324h141l-69 -326q-42 -203 -254 -203z" />
    <glyph glyph-name="udieresis.ss06" horiz-adv-x="578" 
d="M313 584h-141l28 128h141zM524 584h-141l28 128h141zM250 -13q-97 0 -152.5 42.5t-55.5 119.5q0 24 6 51l67 316h141l-68 -320q-4 -15 -4 -32q0 -67 76 -67q44 0 68 22.5t35 72.5l69 324h141l-69 -326q-42 -203 -254 -203z" />
    <glyph glyph-name="ugrave.ss06" horiz-adv-x="578" 
d="M391 571h-84l-96 141h162zM250 -13q-97 0 -152.5 42.5t-55.5 119.5q0 24 6 51l67 316h141l-68 -320q-4 -15 -4 -32q0 -67 76 -67q44 0 68 22.5t35 72.5l69 324h141l-69 -326q-42 -203 -254 -203z" />
    <glyph glyph-name="uhungarumlaut.ss06" horiz-adv-x="578" 
d="M277 571h-94l57 156h153zM477 571h-94l67 156h152zM250 -13q-97 0 -152.5 42.5t-55.5 119.5q0 24 6 51l67 316h141l-68 -320q-4 -15 -4 -32q0 -67 76 -67q44 0 68 22.5t35 72.5l69 324h141l-69 -326q-42 -203 -254 -203z" />
    <glyph glyph-name="umacron.ss06" horiz-adv-x="578" 
d="M535 606h-363l23 105h363zM250 -13q-97 0 -152.5 42.5t-55.5 119.5q0 24 6 51l67 316h141l-68 -320q-4 -15 -4 -32q0 -67 76 -67q44 0 68 22.5t35 72.5l69 324h141l-69 -326q-42 -203 -254 -203z" />
    <glyph glyph-name="uogonek.ss06" horiz-adv-x="578" 
d="M363 192l69 324h141l-69 -326q-32 -149 -157 -189l-59 -43q-31 -22 -39.5 -32.5t-8.5 -26.5q0 -31 44 -31h36l-18 -87h-83q-51 0 -81 23t-30 61q0 37 20.5 60.5t73.5 55.5l12 8q-81 7 -126.5 48.5t-45.5 111.5q0 24 6 51l67 316h141l-68 -320q-4 -15 -4 -32q0 -67 76 -67
q44 0 68 22.5t35 72.5z" />
    <glyph glyph-name="uring.ss06" horiz-adv-x="578" 
d="M483 613q-42 -42 -106 -42t-106 42q-42 41 -42 105t42 106t106 42t106 -42t42 -106t-42 -105zM327 667q19 -19 50 -19t51 19t20 51t-20 52t-51 20t-50 -20t-19 -52t19 -51zM250 -13q-97 0 -152.5 42.5t-55.5 119.5q0 24 6 51l67 316h141l-68 -320q-4 -15 -4 -32
q0 -67 76 -67q44 0 68 22.5t35 72.5l69 324h141l-69 -326q-42 -203 -254 -203z" />
    <glyph glyph-name="utilde.ss06" horiz-adv-x="578" 
d="M245 586h-108q39 178 156 178q38 0 79 -26q40 -27 66 -27q42 0 53 53h108q-37 -178 -156 -178q-39 0 -79 27q-41 26 -66 26q-42 0 -53 -53zM250 -13q-97 0 -152.5 42.5t-55.5 119.5q0 24 6 51l67 316h141l-68 -320q-4 -15 -4 -32q0 -67 76 -67q44 0 68 22.5t35 72.5
l69 324h141l-69 -326q-42 -203 -254 -203z" />
    <glyph glyph-name="ydieresis.ss01.ss07" horiz-adv-x="551" 
d="M291 603q-23 -24 -59 -24t-59 24q-23 23 -23 58q0 36 23 59t59 23t59 -23t23 -59q0 -35 -23 -58zM535 603q-23 -24 -59 -24t-59 24q-23 23 -23 58q0 36 23 59t59 23t59 -23t23 -59q0 -35 -23 -58zM252 162l182 354h152l-398 -720h-141l100 177l-87 543h153l33 -290z" />
    <glyph glyph-name="y.ss07" horiz-adv-x="551" 
d="M252 162l182 354h152l-398 -720h-141l100 177l-87 543h153l33 -290z" />
    <glyph glyph-name="yacute.ss07" horiz-adv-x="551" 
d="M295 712h172l-125 -141h-94zM252 162l182 354h152l-398 -720h-141l100 177l-87 543h153l33 -290z" />
    <glyph glyph-name="ycircumflex.ss07" horiz-adv-x="551" 
d="M396 581l-42 82l-78 -82h-132l152 147h130l88 -147h-118zM252 162l182 354h152l-398 -720h-141l100 177l-87 543h153l33 -290z" />
    <glyph glyph-name="ydieresis.ss07" horiz-adv-x="551" 
d="M189 712h141l-28 -128h-141zM400 712h141l-28 -128h-141zM252 162l182 354h152l-398 -720h-141l100 177l-87 543h153l33 -290z" />
    <glyph glyph-name="ygrave.ss07" horiz-adv-x="551" 
d="M362 712l18 -141h-84l-96 141h162zM252 162l182 354h152l-398 -720h-141l100 177l-87 543h153l33 -290z" />
    <glyph glyph-name="l.ss08" horiz-adv-x="312" 
d="M232 0h-72q-129 0 -129 104q0 16 5 41l121 567h141l-115 -541q-4 -17 -4 -27q0 -31 40 -31h37z" />
    <glyph glyph-name="lacute.ss08" horiz-adv-x="312" 
d="M247 767h-94l47 141h172zM232 0h-72q-129 0 -129 104q0 16 5 41l121 567h141l-115 -541q-4 -17 -4 -27q0 -31 40 -31h37z" />
    <glyph glyph-name="lcaron.ss08" horiz-adv-x="475" 
d="M232 0h-72q-129 0 -129 104q0 16 5 41l121 567h141l-115 -541q-4 -17 -4 -27q0 -31 40 -31h37zM436 494h-109l95 218h150z" />
    <glyph glyph-name="uni013C.ss08" horiz-adv-x="312" 
d="M232 0h-72q-129 0 -129 104q0 16 5 41l121 567h141l-115 -541q-4 -17 -4 -27q0 -31 40 -31h37zM-13 -301h-54l12 51h54q25 0 36.5 9t16.5 32l12 55l-102 -9l22 103h157l-31 -148q-10 -49 -39.5 -71t-83.5 -22z" />
    <glyph glyph-name="ldot.ss08" horiz-adv-x="422" 
d="M232 0h-72q-129 0 -129 104q0 16 5 41l121 567h141l-115 -541q-4 -17 -4 -27q0 -31 40 -31h37zM412 285h-152l32 150h152z" />
    <glyph glyph-name="lslash.ss08" horiz-adv-x="424" 
d="M422 400l-118 -55l-37 -174q-4 -17 -4 -27q0 -31 40 -31h37l-24 -113h-72q-129 0 -129 104q0 16 5 41l26 121l-126 -66l28 131l124 57l69 324h141l-52 -244l120 63z" />
    <glyph glyph-name="uni013C.ss01.ss08" horiz-adv-x="312" 
d="M179 144q0 -31 40 -31h37l-24 -113h-72q-129 0 -129 104q0 16 5 41l121 567h141l-115 -541q-4 -17 -4 -27zM-26 -85q25 19 69 19q43 0 69 -21q25 -19 25 -56q0 -23 -3 -37l-5 -21q-12 -47 -53.5 -74t-98.5 -27h-47l13 59h42q64 0 74 49l1 6q-21 -8 -40 -8q-71 0 -71 63
q0 30 25 48z" />
    <glyph glyph-name="ldot.ss01.ss08" horiz-adv-x="461" 
d="M232 0h-72q-129 0 -129 104q0 16 5 41l121 567h141l-115 -541q-4 -17 -4 -27q0 -31 40 -31h37zM439 298q-25 -25 -66 -25q-40 0 -65 25q-26 24 -26 62t26 63q26 24 65 24q41 0 66 -24q25 -25 25 -63t-25 -62z" />
    <glyph glyph-name="fi.ss01" horiz-adv-x="597" 
d="M495 717q23 23 58 23t57 -23t22 -58t-22 -57t-57 -22t-58 22t-23 57t23 58zM380 516l-22 -104l-97 3l-88 -415h-141l85 395l4 20l-73 -3l22 104l72 -3l7 34q18 86 63.5 125.5t126.5 39.5h83l-24 -113h-38q-60 0 -72 -59l-6 -27zM482 0h-141l110 516h141z" />
    <glyph glyph-name="fl.ss08" horiz-adv-x="648" 
d="M282 513l98 3l-22 -104l-97 3l-88 -415h-141l85 395l4 20l-73 -3l22 104l72 -3l7 34q18 86 63.5 125.5t126.5 39.5h83l-24 -113h-38q-60 0 -72 -59zM515 144q0 -31 40 -31h37l-24 -113h-72q-129 0 -129 104q0 16 5 41l121 567h141l-115 -541q-4 -17 -4 -27z" />
    <glyph glyph-name="ordfeminine.ss02" horiz-adv-x="461" 
d="M375 668l13 45h109l-72 -341h-109l5 42q-53 -56 -121 -56q-53 0 -82.5 36.5t-29.5 99.5q0 92 57 163q55 70 133 70q65 0 97 -59zM258 456q37 0 64 35t27 79q0 30 -14 47.5t-38 17.5q-35 0 -61 -35q-26 -37 -26 -83q0 -61 48 -61z" />
    <glyph glyph-name="t.sups.ss05" horiz-adv-x="298" 
d="M304 711l76 2l-18 -83l-75 2l-55 -260h-117l55 260l-76 -2l18 83l75 -2l22 103h117z" />
    <glyph glyph-name="zero.ss09" horiz-adv-x="1257" 
d="M1103 -88h-908v888h908v-888zM511 199q47 -60 138 -60t139 60q47 61 47 169t-48 166t-138 58t-138 -58t-48 -166q0 -109 48 -169zM726 366q0 -136 -77 -136t-77 136q0 71 18.5 103t58.5 32t58.5 -32t18.5 -103z" />
    <glyph glyph-name="one.ss09" horiz-adv-x="1257" 
d="M1103 -88h-908v888h908v-888zM620 430v-275h100v427h-93v-9q0 -32 -23 -50t-60 -18h-30v-75h106z" />
    <glyph glyph-name="two.ss09" horiz-adv-x="1257" 
d="M195 -88v888h908v-888h-908zM813 160v88h-214q3 22 32 39l100 54q83 45 83 121q0 61 -45 97.5t-122 36.5q-79 0 -122 -36.5t-44 -107.5h96q5 60 69 60q32 0 50 -14t18 -38q0 -34 -46 -59l-97 -54q-48 -27 -68 -70t-20 -117h330z" />
    <glyph glyph-name="three.ss09" horiz-adv-x="1257" 
d="M1103 -88h-908v888h908v-888zM523 178q45 -39 126 -39q82 0 128 37q47 38 47 96q0 39 -23.5 67.5t-61.5 37.5v1q71 20 71 92q0 55 -44 88t-121 33t-120.5 -35t-47.5 -101h96q6 52 71 52q32 0 50.5 -13t18.5 -36q0 -46 -65 -46h-38v-83h35q78 0 78 -52q0 -54 -74 -54
q-75 0 -79 63h-96q3 -71 49 -108z" />
    <glyph glyph-name="four.ss09" horiz-adv-x="1257" 
d="M1103 -88h-908v888h908v-888zM671 230v-78h95v78l69 -3v90l-69 -3v265h-113l-197 -271v-81zM671 314l-105 2l103 144h2v-146z" />
    <glyph glyph-name="five.ss09" horiz-adv-x="1257" 
d="M195 -88v888h908v-888h-908zM646 134q79 0 127.5 43t48.5 110q0 65 -42 104t-109 39q-51 0 -92 -24l-2 1l15 84h201v86h-271l-38 -244l96 -12q28 28 68 28q34 0 53.5 -17.5t19.5 -49.5q0 -31 -19 -48t-55 -17q-54 0 -71 41l-100 -12q13 -52 58 -82t112 -30z" />
    <glyph glyph-name="six.ss09" horiz-adv-x="1257" 
d="M1103 -88h-908v888h908v-888zM665 139q78 0 126 43t48 112q0 66 -42.5 108t-111.5 42q-77 0 -117 -52q5 122 90 122q48 0 64 -31l101 13q-12 43 -55 69t-107 26q-94 0 -142.5 -58.5t-48.5 -170.5q0 -106 50.5 -164.5t144.5 -58.5zM661 221q-34 0 -56.5 20t-22.5 53
q0 32 21.5 52.5t57.5 20.5q35 0 56 -19.5t21 -51.5t-20.5 -53.5t-56.5 -21.5z" />
    <glyph glyph-name="seven.ss09" horiz-adv-x="1257" 
d="M1103 -88h-908v888h908v-888zM560 145h106q4 103 39 183t110 161v83h-323v-90h213q-141 -165 -145 -337z" />
    <glyph glyph-name="eight.ss09" horiz-adv-x="1257" 
d="M1103 -88h-908v888h908v-888zM650 139q90 0 140.5 36.5t50.5 100.5q0 41 -23 69.5t-63 39.5v3q28 9 46 33.5t18 56.5q0 52 -44.5 82.5t-124.5 30.5q-81 0 -125.5 -30t-44.5 -83q0 -29 18 -54t46 -36v-3q-40 -11 -63 -39.5t-23 -69.5q0 -64 51 -100.5t141 -36.5zM703 429
q-21 -14 -53 -14t-53 14t-21 37t20 36.5t54 13.5q35 0 54 -13q20 -13 19.5 -36.5t-20.5 -37.5zM715 232q-24 -18 -65 -18t-65 18q-25 16 -25 46t24 46.5t66 16.5t65.5 -16.5t23.5 -46.5t-24 -46z" />
    <glyph glyph-name="nine.ss09" horiz-adv-x="1257" 
d="M1103 -88h-908v888h908v-888zM640 139q94 0 142.5 58.5t48.5 170.5q0 106 -50.5 164.5t-144.5 58.5q-78 0 -126 -43t-48 -112q0 -66 42.5 -108t111.5 -42q77 0 117 52q-5 -122 -90 -122q-48 0 -64 31l-101 -13q12 -43 55 -69t107 -26zM640 363q-35 0 -56 19.5t-21 51.5
t20.5 53.5t56.5 21.5q34 0 56.5 -20t22.5 -53q0 -32 -21.5 -52.5t-57.5 -20.5z" />
    <glyph glyph-name="zero.ss10" horiz-adv-x="1257" 
d="M1103 -88h-908v888h908v-888zM339 667v-622h620v622h-620zM788 199q-48 -60 -139 -60t-138 60q-48 60 -48 169q0 108 48 166t138 58t138 -58t48 -166t-47 -169zM572 366q0 -136 77 -136t77 136q0 71 -18.5 103t-58.5 32t-58.5 -32t-18.5 -103z" />
    <glyph glyph-name="one.ss10" horiz-adv-x="1257" 
d="M1103 -88h-908v888h908v-888zM339 667v-622h620v622h-620zM720 155h-100v275h-106v75h30q37 0 60 18t23 50v9h93v-427z" />
    <glyph glyph-name="two.ss10" horiz-adv-x="1257" 
d="M1103 -88h-908v888h908v-888zM339 667v-622h620v622h-620zM815 150h-330q0 74 20 117t68 70l97 54q46 25 46 59q0 24 -18 38t-50 14q-64 0 -69 -60h-96q1 71 44 107.5t122 36.5q77 0 122 -36.5t45 -97.5q0 -76 -83 -121l-100 -54q-29 -17 -32 -39h214v-88z" />
    <glyph glyph-name="three.ss10" horiz-adv-x="1257" 
d="M1103 -88h-908v888h908v-888zM339 667v-622h620v622h-620zM776 174q-46 -37 -128 -37q-81 0 -126 39q-46 37 -49 108h96q5 -63 79 -63t74 54q0 52 -78 52h-35v83h38q65 0 65 46q0 23 -18.5 36t-50.5 13q-65 0 -71 -52h-96q4 66 47.5 101t120.5 35t121 -33t44 -88
q0 -72 -71 -92v-1q38 -9 61.5 -37.5t23.5 -67.5q0 -58 -47 -96z" />
    <glyph glyph-name="four.ss10" horiz-adv-x="1257" 
d="M1103 -88h-908v888h908v-888zM339 667v-622h620v622h-620zM765 151h-95v78l-215 -3v81l197 271h113v-265l69 3v-90l-69 3v-78zM668 459l-103 -144l105 -2v146h-2z" />
    <glyph glyph-name="five.ss10" horiz-adv-x="1257" 
d="M1103 -88h-908v888h908v-888zM339 667v-622h620v622h-620zM647 134q-67 0 -112 30t-58 82l100 12q17 -41 71 -41q36 0 55 17t19 48q0 32 -19.5 49.5t-53.5 17.5q-40 0 -68 -28l-96 12l38 244h271v-86h-201l-15 -84l2 -1q40 24 92 24q67 0 109 -39t42 -104
q0 -67 -48.5 -110t-127.5 -43z" />
    <glyph glyph-name="six.ss10" horiz-adv-x="1257" 
d="M1103 -88h-908v888h908v-888zM339 667v-622h620v622h-620zM664 134q-94 0 -144.5 58.5t-50.5 164.5q0 112 48.5 170.5t142.5 58.5q64 0 107 -26t55 -69l-101 -13q-16 31 -64 31q-85 0 -90 -122q40 52 117 52q69 0 111.5 -42t42.5 -108q0 -69 -48 -112t-126 -43zM660 216
q36 0 56.5 21.5t20.5 53.5t-21 51.5t-56 19.5q-36 0 -57.5 -20.5t-21.5 -52.5q0 -33 22.5 -53t56.5 -20z" />
    <glyph glyph-name="seven.ss10" horiz-adv-x="1257" 
d="M1103 -88h-908v888h908v-888zM339 667v-622h620v622h-620zM673 145h-106q4 172 145 337h-213v90h323v-83q-75 -81 -110 -161q-34 -80 -39 -183z" />
    <glyph glyph-name="eight.ss10" horiz-adv-x="1257" 
d="M1103 -88h-908v888h908v-888zM339 667v-622h620v622h-620zM650 134q-90 0 -141 36.5t-51 100.5q0 41 23 69.5t63 39.5v3q-28 11 -46 36t-18 54q0 53 44.5 83t125.5 30q80 0 124.5 -30.5t44.5 -82.5q0 -32 -18 -56.5t-46 -33.5v-3q40 -11 63 -39.5t23 -69.5
q0 -64 -50.5 -100.5t-140.5 -36.5zM597 424q21 -14 53 -14t53 14q20 14 20.5 37.5t-19.5 36.5q-19 13 -54 13t-54 -13q-20 -14 -20 -37t21 -37zM585 227q24 -18 65 -18t65 18q24 17 24 46q0 30 -23.5 46.5t-65.5 16.5t-66 -16.5t-24 -46.5t25 -46z" />
    <glyph glyph-name="nine.ss10" horiz-adv-x="1257" 
d="M1103 -88h-908v888h908v-888zM339 667v-622h620v622h-620zM642 136q-64 0 -107 26t-55 69l101 13q16 -31 64 -31q85 0 90 122q-40 -52 -117 -52q-69 0 -111.5 42t-42.5 108q0 69 48 112t126 43q94 0 144.5 -58.5t50.5 -164.5q0 -112 -48.5 -170.5t-142.5 -58.5zM642 360
q36 0 57.5 20.5t21.5 52.5q0 33 -22.5 53t-56.5 20q-36 0 -56.5 -21.5t-20.5 -53.5t21 -51.5t56 -19.5z" />
    <glyph glyph-name="zero.zero" horiz-adv-x="660" 
d="M412 728q112 0 176 -72t64 -196q0 -59 -13 -115q-39 -184 -122 -272.5t-222 -88.5q-112 0 -178 74t-66 201q0 60 13 116q37 178 122 265.5t226 87.5zM210 359q-13 -59 -13 -110q0 -34 8 -66l257 401q-22 19 -61 19q-71 0 -118 -59.5t-73 -184.5zM493 355q13 59 13 109
q0 34 -8 63l-256 -400q24 -18 62 -18q71 0 116.5 59.5t72.5 186.5z" />
    <glyph glyph-name="zero.dnom" horiz-adv-x="426" 
d="M174 -16q-75 0 -117 45t-42 123q0 28 8 71q21 109 72.5 161.5t140.5 52.5q72 0 113 -45.5t41 -123.5q0 -34 -6 -65q-44 -219 -210 -219zM177 66q81 0 109 144q6 30 6 61q0 84 -62 84q-82 0 -110 -144q-7 -32 -7 -63q0 -82 64 -82z" />
    <glyph glyph-name="one.dnom" horiz-adv-x="297" 
d="M181 0h-101l59 269h-106l15 75h30q85 0 100 67l2 9h91z" />
    <glyph glyph-name="two.dnom" horiz-adv-x="433" 
d="M327 0h-330q15 78 45 122t82 68l109 51q60 29 60 67q0 44 -60 44q-65 0 -75 -60h-101q13 70 62.5 107t127.5 37q69 0 108.5 -31t39.5 -84q0 -86 -111 -140l-112 -54q-32 -16 -40 -39h214z" />
    <glyph glyph-name="three.dnom" horiz-adv-x="446" 
d="M185 -16q-75 0 -117 35.5t-48 100.5l96 11q4 -63 71 -63q37 0 59 17t22 44q0 45 -68 45h-24l18 83h27q35 0 55.5 14t20.5 37q0 44 -63 44q-68 0 -81 -52l-94 17q16 56 63 87.5t120 31.5q70 0 113 -29.5t43 -79.5q0 -38 -25 -66.5t-68 -39.5l-1 -1q66 -18 66 -89
q0 -63 -51 -105t-134 -42z" />
    <glyph glyph-name="four.dnom" horiz-adv-x="447" 
d="M289 0h-95l17 76l-215 -3l17 80l253 267h113l-56 -260l69 3l-19 -90l-67 3zM257 303l-132 -141l103 -2l31 142z" />
    <glyph glyph-name="five.dnom" horiz-adv-x="445" 
d="M170 -16q-62 0 -105 26.5t-58 71.5l103 30q17 -41 69 -41q40 0 64 20.5t24 52.5q0 53 -65 53q-43 0 -72 -26l-88 28l94 228h280l-22 -88h-207l-35 -80l2 -1q43 22 91 22q58 0 94.5 -35t36.5 -92q0 -72 -57 -120q-56 -49 -149 -49z" />
    <glyph glyph-name="six.dnom" horiz-adv-x="461" 
d="M193 -16q-78 0 -118.5 43.5t-40.5 127.5q0 114 63 198q63 83 170 83q58 0 96 -26t53 -69l-101 -13q-10 31 -57 31q-86 0 -116 -122q43 52 118 52q61 0 98.5 -33t37.5 -90q0 -76 -57 -129q-58 -53 -146 -53zM200 66q39 0 66 26.5t27 62.5q0 26 -18 41.5t-48 15.5
q-40 0 -67 -25.5t-27 -61.5q0 -27 18.5 -43t48.5 -16z" />
    <glyph glyph-name="seven.dnom" horiz-adv-x="403" 
d="M159 0h-106q43 175 217 337h-213l19 90h323l-18 -83q-97 -84 -145 -162q-52 -80 -77 -182z" />
    <glyph glyph-name="eight.dnom" horiz-adv-x="473" 
d="M195 -16q-83 0 -132.5 34.5t-49.5 89.5q0 44 31 78t81 44l1 3q-48 24 -48 76q0 56 50.5 91.5t133.5 35.5q73 0 116.5 -29t43.5 -76q0 -35 -24 -62.5t-61 -35.5l-1 -3q66 -27 66 -94t-57 -109q-56 -43 -150 -43zM238 260q37 0 61 17.5t24 43.5q0 40 -64 40
q-38 0 -62 -16.5t-24 -43.5q0 -19 17.5 -30t47.5 -11zM199 59q44 0 72.5 21t28.5 53q0 53 -79 53q-45 0 -74 -20.5t-29 -51.5q0 -26 22 -40.5t59 -14.5z" />
    <glyph glyph-name="nine.dnom" horiz-adv-x="461" 
d="M174 -15q-58 0 -96 26t-53 69l101 13q10 -31 57 -31q86 0 116 122q-43 -52 -118 -52q-61 0 -98.5 33t-37.5 90q0 77 57 129q58 53 146 53q78 0 118.5 -43.5t40.5 -127.5q0 -114 -63 -197q-63 -84 -170 -84zM214 209q40 0 67 25.5t27 61.5q0 27 -18.5 43t-48.5 16
q-39 0 -66 -26.5t-27 -62.5q0 -26 18 -41.5t48 -15.5z" />
    <glyph glyph-name="zero.numr" horiz-adv-x="426" 
d="M236 276q-75 0 -117 45t-42 123q0 28 8 71q21 109 72.5 161.5t140.5 52.5q72 0 113 -45.5t41 -123.5q0 -34 -6 -65q-44 -219 -210 -219zM239 358q81 0 109 144q6 30 6 61q0 84 -62 84q-82 0 -110 -144q-7 -32 -7 -63q0 -82 64 -82z" />
    <glyph glyph-name="one.numr" horiz-adv-x="297" 
d="M243 292h-101l59 269h-106l15 75h30q85 0 100 67l2 9h91z" />
    <glyph glyph-name="two.numr" horiz-adv-x="433" 
d="M389 292h-330q15 78 45 122t82 68l109 51q60 29 60 67q0 44 -60 44q-65 0 -75 -60h-101q13 70 62.5 107t127.5 37q69 0 108.5 -31t39.5 -84q0 -86 -111 -140l-112 -54q-32 -16 -40 -39h214z" />
    <glyph glyph-name="three.numr" horiz-adv-x="446" 
d="M247 276q-75 0 -117 35.5t-48 100.5l96 11q4 -63 71 -63q37 0 59 17t22 44q0 45 -68 45h-24l18 83h27q35 0 55.5 14t20.5 37q0 44 -63 44q-68 0 -81 -52l-94 17q16 56 63 87.5t120 31.5q70 0 113 -29.5t43 -79.5q0 -38 -25 -66.5t-68 -39.5l-1 -1q66 -18 66 -89
q0 -63 -51 -105t-134 -42z" />
    <glyph glyph-name="four.numr" horiz-adv-x="447" 
d="M351 292h-95l17 76l-215 -3l17 80l253 267h113l-56 -260l69 3l-19 -90l-67 3zM319 595l-132 -141l103 -2l31 142z" />
    <glyph glyph-name="five.numr" horiz-adv-x="445" 
d="M232 276q-62 0 -105 26.5t-58 71.5l103 30q17 -41 69 -41q40 0 64 20.5t24 52.5q0 53 -65 53q-43 0 -72 -26l-88 28l94 228h280l-22 -88h-207l-35 -80l2 -1q43 22 91 22q58 0 94.5 -35t36.5 -92q0 -72 -57 -120q-56 -49 -149 -49z" />
    <glyph glyph-name="six.numr" horiz-adv-x="461" 
d="M255 276q-78 0 -118.5 43.5t-40.5 127.5q0 114 63 198q63 83 170 83q58 0 96 -26t53 -69l-101 -13q-10 31 -57 31q-86 0 -116 -122q43 52 118 52q61 0 98.5 -33t37.5 -90q0 -76 -57 -129q-58 -53 -146 -53zM262 358q39 0 66 26.5t27 62.5q0 26 -18 41.5t-48 15.5
q-40 0 -67 -25.5t-27 -61.5q0 -27 18.5 -43t48.5 -16z" />
    <glyph glyph-name="seven.numr" horiz-adv-x="403" 
d="M221 292h-106q43 175 217 337h-213l19 90h323l-18 -83q-97 -84 -145 -162q-52 -80 -77 -182z" />
    <glyph glyph-name="eight.numr" horiz-adv-x="473" 
d="M257 276q-83 0 -132.5 34.5t-49.5 89.5q0 44 31 78t81 44l1 3q-48 24 -48 76q0 56 50.5 91.5t133.5 35.5q73 0 116.5 -29t43.5 -76q0 -35 -24 -62.5t-61 -35.5l-1 -3q66 -27 66 -94t-57 -109q-56 -43 -150 -43zM300 552q37 0 61 17.5t24 43.5q0 40 -64 40
q-38 0 -62 -16.5t-24 -43.5q0 -19 17.5 -30t47.5 -11zM261 351q44 0 72.5 21t28.5 53q0 53 -79 53q-45 0 -74 -20.5t-29 -51.5q0 -26 22 -40.5t59 -14.5z" />
    <glyph glyph-name="nine.numr" horiz-adv-x="461" 
d="M236 277q-58 0 -96 26t-53 69l101 13q10 -31 57 -31q86 0 116 122q-43 -52 -118 -52q-61 0 -98.5 33t-37.5 90q0 77 57 129q58 53 146 53q78 0 118.5 -43.5t40.5 -127.5q0 -114 -63 -197q-63 -84 -170 -84zM276 501q40 0 67 25.5t27 61.5q0 27 -18.5 43t-48.5 16
q-39 0 -66 -26.5t-27 -62.5q0 -26 18 -41.5t48 -15.5z" />
    <glyph glyph-name="zero.tf" horiz-adv-x="660" 
d="M295 -16q-112 0 -178 74t-66 201q0 60 13 116q37 178 122 265.5t226 87.5q112 0 176 -72t64 -196q0 -59 -13 -115q-39 -184 -122 -272.5t-222 -88.5zM304 109q71 0 116.5 59.5t72.5 186.5q13 59 13 109q0 139 -105 139q-71 0 -118 -59.5t-73 -184.5q-13 -59 -13 -110
q0 -140 107 -140z" />
    <glyph glyph-name="one.tf" horiz-adv-x="660" 
d="M518 712l-124 -580h179l-28 -132h-506l28 132h179l75 353h-180l21 99h53q70 0 114 35q35 28 55 84l3 9h131z" />
    <glyph glyph-name="two.tf" horiz-adv-x="660" 
d="M547 0h-535q16 87 65 152.5t142 121.5l157 95q55 34 81 68.5t26 81.5q0 41 -24.5 63.5t-64.5 22.5q-104 0 -129 -123l-4 -20h-143l3 15q24 122 97.5 186.5t190.5 64.5q101 0 168 -56q65 -57 65 -143q0 -80 -48.5 -141.5t-145.5 -118.5l-138 -80q-66 -37 -75 -65h338z" />
    <glyph glyph-name="three.tf" horiz-adv-x="660" 
d="M295 -17q-112 0 -182 59q-70 58 -70 157q0 21 3 43h145q-3 -16 -3 -30q0 -50 29.5 -78.5t82.5 -28.5q66 0 103.5 34.5t37.5 91.5q0 85 -107 85h-52l23 110h46q56 0 90.5 28.5t34.5 78.5q0 35 -23 55t-64 20q-109 0 -135 -116h-140q48 236 291 236q107 0 166 -49
q60 -49 60 -123q0 -63 -37 -109t-103 -67v-2q49 -15 79 -55t30 -94q0 -112 -85 -179t-220 -67z" />
    <glyph glyph-name="four.tf" horiz-adv-x="660" 
d="M611 712l-94 -443h107l-26 -119h-107l-32 -150h-145l32 150h-329l33 153l395 409h166zM176 269h196l56 260h-3z" />
    <glyph glyph-name="five.tf" horiz-adv-x="660" 
d="M283 -16q-110 0 -178 57q-69 55 -69 148l147 12q3 -43 32.5 -67t78.5 -24q68 0 115 41q46 40 46 102q0 46 -30 74.5t-83 28.5q-64 0 -123 -43l-127 28l129 371h434l-27 -130h-313l-49 -139l2 -1q62 39 135 39q83 0 142 -60q57 -60 57 -152q0 -131 -88 -207
q-88 -78 -231 -78z" />
    <glyph glyph-name="six.tf" horiz-adv-x="660" 
d="M405 486q92 0 151 -60q59 -62 59 -154q0 -125 -85 -207t-214 -82q-123 0 -192 77q-69 76 -69 207q0 41 8 94q64 367 358 367q103 0 163.5 -53.5t65.5 -143.5h-140q-2 36 -29 57.5t-70 21.5q-149 0 -198 -214q83 90 192 90zM320 107q66 0 107 48q40 47 40 110
q0 49 -26.5 76.5t-75.5 27.5q-58 0 -102 -36t-57 -93q-3 -14 -3 -25q0 -48 32.5 -78t84.5 -30z" />
    <glyph glyph-name="seven.tf" horiz-adv-x="660" 
d="M285 0h-169q71 303 362 579h-344l29 133h528l-26 -123q-168 -161 -251 -290q-82 -129 -129 -299z" />
    <glyph glyph-name="eight.tf" horiz-adv-x="660" 
d="M305 -16q-123 0 -199 59q-75 59 -75 150q0 75 47.5 126.5t132.5 76.5l1 4q-35 21 -55.5 55.5t-20.5 74.5q0 94 73 146t197 52q108 0 174 -48q65 -48 65 -123q0 -62 -40 -108q-41 -48 -96 -66l-1 -4q102 -45 102 -154q0 -111 -84 -175q-86 -66 -221 -66zM373 432
q60 0 96 29t36 77q0 35 -28.5 55.5t-78.5 20.5q-60 0 -94.5 -27.5t-34.5 -75.5q0 -37 27.5 -58t76.5 -21zM314 99q68 0 109 37t41 97q0 44 -33 68t-93 24q-74 0 -117.5 -34t-43.5 -93q0 -44 38 -71.5t99 -27.5z" />
    <glyph glyph-name="nine.tf" horiz-adv-x="660" 
d="M383 721q123 0 192 -77q69 -76 69 -207q0 -41 -8 -94q-64 -367 -358 -367q-103 0 -163.5 53.5t-65.5 143.5h140q2 -36 29 -57.5t70 -21.5q149 0 198 214q-82 -90 -192 -90q-93 0 -151 61q-59 61 -59 153q0 125 85 207t214 82zM334 335q58 0 102 36t57 93q3 13 3 25
q0 48 -32.5 78t-84.5 30q-67 0 -107 -48q-40 -47 -40 -110q0 -49 26.5 -76.5t75.5 -27.5z" />
    <glyph glyph-name="zero.tf.zero" horiz-adv-x="660" 
d="M412 728q112 0 176 -72t64 -196q0 -59 -13 -115q-39 -184 -122 -272.5t-222 -88.5q-112 0 -178 74t-66 201q0 60 13 116q37 178 122 265.5t226 87.5zM210 359q-13 -59 -13 -110q0 -34 8 -66l257 401q-22 19 -61 19q-71 0 -118 -59.5t-73 -184.5zM493 355q13 59 13 109
q0 34 -8 63l-256 -400q24 -18 62 -18q71 0 116.5 59.5t72.5 186.5z" />
    <glyph glyph-name="period.ss01" horiz-adv-x="306" 
d="M179 9q-25 -25 -66 -25q-40 0 -65 25q-26 24 -26 62t26 63q26 24 65 24q41 0 66 -24q25 -25 25 -63t-25 -62z" />
    <glyph glyph-name="comma.ss01" horiz-adv-x="309" 
d="M116 158q42 0 65 -25t23 -67q0 -16 -8 -56l-7 -32q-13 -63 -61.5 -100t-122.5 -37h-8l14 64h8q82 0 97 74l1 5h-11q-39 0 -62 22t-23 57q0 40 26.5 67.5t68.5 27.5z" />
    <glyph glyph-name="colon.ss01" horiz-adv-x="285" 
d="M256 367q-25 -25 -66 -25q-40 0 -65 25q-25 24 -25 62t25 63q25 24 65 24t66 -24q26 -25 26 -63t-26 -62zM179 9q-25 -25 -66 -25q-40 0 -65 25q-26 24 -26 62t26 63q26 24 65 24q41 0 66 -24q25 -25 25 -63t-25 -62z" />
    <glyph glyph-name="semicolon.ss01" horiz-adv-x="285" 
d="M125 492q25 24 65 24t66 -24q26 -25 26 -63t-26 -62q-25 -25 -66 -25q-40 0 -65 25q-25 24 -25 62t25 63zM117 158q42 0 65 -25t23 -67q0 -16 -8 -56l-7 -32q-13 -63 -61.5 -100t-122.5 -37h-8l14 64h8q82 0 97 74l1 5h-11q-39 0 -62 22t-23 57q0 40 26.5 67.5t68.5 27.5
z" />
    <glyph glyph-name="ellipsis.ss01" horiz-adv-x="918" 
d="M179 9q-25 -25 -66 -25q-40 0 -65 25q-26 24 -26 62t26 63q26 24 65 24q41 0 66 -24q25 -25 25 -63t-25 -62zM485 9q-25 -25 -66 -25q-40 0 -65 25q-26 24 -26 62t26 63q26 24 65 24q41 0 66 -24q25 -25 25 -63t-25 -62zM791 9q-25 -25 -66 -25q-40 0 -65 25
q-26 24 -26 62t26 63q26 24 65 24q41 0 66 -24q25 -25 25 -63t-25 -62z" />
    <glyph glyph-name="exclam.ss01" horiz-adv-x="282" 
d="M153 234h-71l24 297l38 181h148l-38 -181zM145 7q-25 -23 -63 -23t-62 23q-25 22 -25 60q0 36 24.5 59.5t62.5 23.5t62.5 -23.5t24.5 -59.5q0 -37 -24 -60z" />
    <glyph glyph-name="exclamdown.ss01" horiz-adv-x="282" 
d="M226 387q-25 -24 -63 -24t-62 24q-25 22 -25 59t24.5 60t62.5 23t62.5 -23t24.5 -60q0 -36 -24 -59zM98 -204h-148l39 181l101 297h71l-24 -297z" />
    <glyph glyph-name="question.ss01" horiz-adv-x="589" 
d="M359 234h-134l6 27q12 54 40 88t89 66q55 28 77.5 51.5t22.5 57.5q0 39 -28.5 59t-77.5 20q-100 0 -128 -103h-147q59 228 290 228q109 0 176 -50q66 -50 66 -132q0 -113 -124 -183l-54 -31q-36 -21 -50.5 -38.5t-20.5 -45.5zM330 7q-25 -23 -63 -23t-62 23
q-25 22 -25 60q0 36 24.5 59.5t62.5 23.5t62.5 -23.5t24.5 -59.5q0 -37 -24 -60z" />
    <glyph glyph-name="questiondown.ss01" horiz-adv-x="589" 
d="M385 387q-25 -24 -63 -24t-62 24q-25 22 -25 59t24.5 60t62.5 23t62.5 -23t24.5 -60q0 -36 -24 -59zM219 -215q-109 0 -176 50q-66 49 -66 132q0 113 124 183l54 31q36 21 50.5 38.5t20.5 45.5l3 14h134l-6 -27q-12 -54 -40 -88t-89 -66q-55 -28 -77.5 -51.5t-22.5 -57.5
q0 -39 28.5 -59t77.5 -20q100 0 128 103h147q-59 -228 -290 -228z" />
    <glyph glyph-name="periodcentered.ss01" horiz-adv-x="307" 
d="M241 298q-25 -25 -66 -25q-40 0 -65 25q-26 24 -26 62t26 63q25 24 65 24q41 0 66 -24q25 -25 25 -63t-25 -62z" />
    <glyph glyph-name="bullet.ss01" horiz-adv-x="442" 
d="M227 134q-69 0 -113.5 42.5t-44.5 108.5t44.5 108.5t113.5 42.5q68 0 113 -42q44 -44 44 -109q0 -66 -44 -108q-44 -43 -113 -43z" />
    <glyph glyph-name="uni203D.ss01" horiz-adv-x="624" 
d="M385 728q121 0 190.5 -49.5t69.5 -138.5q0 -117 -134 -182l-48 -23q-61 -30 -87 -57q-21 -21 -28 -44h-91l18 221l15 67h148l-15 -67l-11 -32l1 1h1q83 41 83 102q0 77 -122 77q-71 0 -106.5 -26t-45.5 -87h-145q42 238 307 238zM205 127q24 23 62 23t63 -23
q24 -24 24 -60q0 -37 -24.5 -60t-62.5 -23t-62.5 23t-24.5 60q0 36 25 60z" />
    <glyph glyph-name="uni2E18.ss01" horiz-adv-x="624" 
d="M413 387q-25 -24 -63 -24t-62 24q-25 22 -25 59t24.5 60t62.5 23t62.5 -23t24.5 -60q0 -36 -24 -59zM401 26h145q-42 -238 -307 -238q-121 0 -190.5 49.5t-69.5 138.5q0 117 134 182l48 23q62 30 88 57q19 19 27 44h91l-18 -221l-15 -67h-148l15 67l11 32l-1 -1h-1
q-83 -41 -83 -102q0 -77 122 -77q71 0 106.5 26t45.5 87z" />
    <glyph glyph-name="period.tf.ss01" horiz-adv-x="660" 
d="M356 9q-25 -25 -66 -25q-40 0 -65 25q-25 24 -25 62t25 63q25 24 65 24t66 -24q26 -25 26 -63t-26 -62z" />
    <glyph glyph-name="comma.tf.ss01" horiz-adv-x="660" 
d="M292 158q42 0 65 -25t23 -67q0 -16 -8 -56l-7 -32q-13 -63 -61.5 -100t-122.5 -37h-8l14 64h8q82 0 97 74l1 5h-11q-39 0 -62 22t-23 57q0 40 26.5 67.5t68.5 27.5z" />
    <glyph glyph-name="colon.tf.ss01" horiz-adv-x="660" 
d="M433 367q-25 -25 -66 -25q-40 0 -65 25q-26 24 -26 62t26 63q26 24 65 24q41 0 66 -24q25 -25 25 -63t-25 -62zM356 9q-25 -25 -66 -25q-40 0 -65 25q-25 24 -25 62t25 63q25 24 65 24t66 -24q26 -25 26 -63t-26 -62z" />
    <glyph glyph-name="semicolon.tf.ss01" horiz-adv-x="660" 
d="M300 492q26 24 65 24q41 0 66 -24q25 -25 25 -63t-25 -62q-25 -25 -66 -25q-40 0 -65 25q-26 24 -26 62t26 63zM292 158q42 0 65 -25t23 -67q0 -16 -8 -56l-7 -32q-13 -63 -61.5 -100t-122.5 -37h-8l14 64h8q82 0 97 74l1 5h-11q-39 0 -62 22t-23 57q0 40 26.5 67.5
t68.5 27.5z" />
    <glyph glyph-name="period.tf" horiz-adv-x="660" 
d="M358 0h-165l32 150h165z" />
    <glyph glyph-name="comma.tf" horiz-adv-x="660" 
d="M168 -159h-8l14 64h8q83 0 97 74l4 21h-89l32 150h163l-36 -168q-30 -141 -185 -141z" />
    <glyph glyph-name="colon.tf" horiz-adv-x="660" 
d="M433 351h-165l32 150h165zM358 0h-165l32 150h165z" />
    <glyph glyph-name="semicolon.tf" horiz-adv-x="660" 
d="M433 351h-165l32 150h165zM167 -159h-8l14 64h8q83 0 97 74l4 21h-89l32 150h163l-36 -168q-30 -141 -185 -141z" />
    <glyph glyph-name="parenleft.case" horiz-adv-x="319" 
d="M231 -35h-150q-44 112 -44 232q0 71 18 159q44 217 193 391h150q-139 -184 -182 -393q-18 -87 -18 -171q0 -114 33 -218z" />
    <glyph glyph-name="parenright.case" horiz-adv-x="319" 
d="M113 -35h-150q139 184 182 393q18 87 18 171q0 115 -33 218h150q44 -112 44 -232q0 -71 -18 -159q-44 -217 -193 -391z" />
    <glyph glyph-name="braceleft.case" horiz-adv-x="411" 
d="M308 -35h-111q-102 0 -102 80q0 15 8 55l20 93q8 43 8 49q0 54 -83 54l26 122q55 0 80.5 21t35.5 66l27 128q25 114 146 114h111l-26 -125h-37q-50 0 -60 -51l-20 -92q-24 -111 -136 -121v-2q89 -11 89 -85q0 -22 -7 -49l-14 -61q-7 -29 -7 -40q0 -31 42 -31h36z" />
    <glyph glyph-name="braceright.case" horiz-adv-x="410" 
d="M89 -35h-111l26 125h37q50 0 60 51l20 92q24 111 136 121v2q-89 11 -89 85q0 22 7 49l14 61q7 29 7 40q0 31 -42 31h-36l26 125h111q102 0 102 -80q0 -15 -8 -55l-20 -93q-8 -43 -8 -49q0 -54 83 -54l-26 -122q-55 0 -80.5 -21t-35.5 -66l-27 -128q-26 -114 -146 -114z
" />
    <glyph glyph-name="bracketleft.case" horiz-adv-x="388" 
d="M285 -35h-267l166 782h267l-26 -125h-120l-114 -532h120z" />
    <glyph glyph-name="bracketright.case" horiz-adv-x="387" 
d="M245 -35h-267l26 125h120l114 532h-120l26 125h267z" />
    <glyph glyph-name="hyphen.case" horiz-adv-x="380" 
d="M339 302h-280l26 122h280z" />
    <glyph glyph-name="endash.case" horiz-adv-x="535" 
d="M494 302h-435l26 122h435z" />
    <glyph glyph-name="emdash.case" horiz-adv-x="829" 
d="M788 302h-729l26 122h729z" />
    <glyph glyph-name="hyphen.tf" horiz-adv-x="660" 
d="M462 222h-280l26 122h280z" />
    <glyph glyph-name="guillemotleft.case" horiz-adv-x="707" 
d="M326 237l-33 -157l-227 208l25 118l315 208l-37 -173l-162 -102zM642 237l-33 -157l-227 208l25 118l315 208l-37 -173l-162 -102z" />
    <glyph glyph-name="guillemotright.case" horiz-adv-x="706" 
d="M337 288l-314 -208l37 174l162 102l-119 102l34 156l225 -208zM652 288l-314 -208l37 174l162 102l-119 102l34 156l225 -208z" />
    </font>
</defs>
</svg>
