<?xml version="1.0" standalone="no"?>
<!DOCTYPE svg PUBLIC "-//W3C//DTD SVG 1.1//EN" "http://www.w3.org/Graphics/SVG/1.1/DTD/svg11.dtd" >
<svg xmlns="http://www.w3.org/2000/svg" xmlns:xlink="http://www.w3.org/1999/xlink" version="1.1">
<metadata>
Created by FontForge 20201107 at Wed Jan 17 22:15:23 2024
 By 
Copyright (c) 2019 Monotype Imaging Inc. All rights reserved.
</metadata>
<defs>
<font id="HelveticaNowText-MediumItalic" horiz-adv-x="1331" >
  <font-face 
    font-family="HelveticaNowText Medium"
    font-weight="500"
    font-style="italic"
    font-stretch="normal"
    units-per-em="2048"
    panose-1="2 11 6 4 3 2 2 9 2 4"
    ascent="1792"
    descent="-256"
    x-height="1057"
    cap-height="1458"
    bbox="-762 -713 3361 2271"
    underline-thickness="102"
    underline-position="-614"
    slope="-12"
    unicode-range="U+000D-FEFF"
  />
<missing-glyph horiz-adv-x="1822" 
d="M1538 0h-1165v1458h1165v-1458zM621 1239v-1020h667v1020h-667z" />
    <glyph glyph-name="fi" unicode="fi" horiz-adv-x="1226" 
d="M786 1057l-38 -180l-218 8l-18 -78l-170 -807h-240l174 817l15 66l-160 -6l37 180l158 -6l20 92q34 165 123 240t252 75h151l-43 -194h-92q-67 0 -103 -30q-35 -29 -50 -97l-19 -86zM997 1225l52 233h239l-51 -233h-240zM977 0h-240l226 1057h239z" />
    <glyph glyph-name="fl" unicode="fl" horiz-adv-x="1236" 
d="M786 1057l-38 -180l-218 8l-18 -78l-170 -807h-240l174 817l15 66l-160 -6l37 180l158 -6l20 92q34 165 123 240t252 75h151l-43 -194h-92q-67 0 -103 -30q-35 -29 -50 -97l-19 -86zM741 0l312 1458h239l-311 -1458h-240z" />
    <glyph glyph-name=".notdef" horiz-adv-x="1822" 
d="M1538 0h-1165v1458h1165v-1458zM621 1239v-1020h667v1020h-667z" />
    <glyph glyph-name=".null" horiz-adv-x="0" 
 />
    <glyph glyph-name="nonmarkingreturn" horiz-adv-x="681" 
 />
    <glyph glyph-name="NULL" horiz-adv-x="0" 
 />
    <glyph glyph-name="NULL" horiz-adv-x="0" 
 />
    <glyph glyph-name="CR" unicode="&#xd;" horiz-adv-x="532" 
 />
    <glyph glyph-name="space" unicode=" " horiz-adv-x="532" 
 />
    <glyph glyph-name="exclam" unicode="!" horiz-adv-x="610" 
d="M338 414h-113l70 649l84 395h248l-84 -395zM324 0h-263l56 258h262z" />
    <glyph glyph-name="quotedbl" unicode="&#x22;" horiz-adv-x="944" 
d="M436 879h-217l123 581h217zM877 879h-218l123 581h217z" />
    <glyph glyph-name="numbersign" unicode="#" horiz-adv-x="1449" 
d="M1487 1110l-43 -197l-250 7l-131 -371l227 6l-41 -195l-252 7l-129 -367h-196l131 369h-326l-131 -369h-192l129 367l-232 -7l41 195l256 -6l129 371l-231 -7l43 197l254 -6l125 354h194l-127 -356h326l127 356h196l-124 -354zM672 922l-131 -375h325l131 375h-325z" />
    <glyph glyph-name="dollar" unicode="$" horiz-adv-x="1329" 
d="M1294 1020h-227q2 14 2 29q0 98 -74 152q-73 54 -204 54q-143 0 -220 -56t-77 -159q0 -118 159 -159l236 -60q313 -79 313 -348q0 -218 -145 -339t-406 -132l-63 -297h-195l66 305q-179 30 -275 132t-96 268q0 5 1 10q0 2 0.5 5.5t1 9t0.5 9.5q1 11 1 33h232
q-2 -20 -2 -45q0 -231 290 -231q164 0 255 61t91 178q0 68 -44 107t-156 69l-193 52q-148 39 -230 126q-83 88 -83 216q0 200 136 318q135 117 378 128l57 279h195l-62 -289q159 -30 250 -130q90 -99 90 -251q0 -29 -2 -45z" />
    <glyph glyph-name="percent" unicode="%" horiz-adv-x="2580" 
d="M594 594q-154 0 -237 87q-83 88 -83 245q0 68 17 153q95 443 444 443q150 0 234 -87t84 -241q0 -50 -17 -152q-90 -448 -442 -448zM811 -31h-213l1231 1520h211zM600 752q100 0 159 74q60 75 93 237q16 74 16 133q0 168 -141 168q-99 0 -159 -75t-93 -236
q-16 -74 -16 -138q0 -163 141 -163zM1942 -33q-156 0 -239 87q-83 88 -83 245q0 69 18 154q94 442 443 442q151 0 234 -87q83 -88 83 -241q0 -75 -16 -151q-89 -449 -440 -449zM1948 125q188 0 250 309q16 76 16 135q0 168 -141 168q-100 0 -159 -74q-60 -75 -93 -237
q-17 -79 -17 -137q0 -164 144 -164z" />
    <glyph glyph-name="ampersand" unicode="&#x26;" horiz-adv-x="1546" 
d="M1200 723h236q-62 -216 -244 -426l201 -299h-285l-92 139q-218 -168 -459 -168q-204 0 -325 103q-119 101 -119 274q0 321 442 483q-94 149 -94 285q0 165 125 272t311 107q160 0 261 -85q102 -86 102 -218q0 -126 -100 -238q-98 -110 -283 -188l198 -295q74 99 125 254z
M879 1294q-82 0 -134 -52q-53 -53 -53 -126q0 -76 84 -203q252 102 252 244q0 63 -42 100q-41 37 -107 37zM600 172q164 0 309 125l-252 379q-297 -111 -297 -307q0 -93 63 -145q62 -52 177 -52z" />
    <glyph glyph-name="quotesingle" unicode="'" horiz-adv-x="503" 
d="M436 879h-217l123 581h217z" />
    <glyph glyph-name="parenleft" unicode="(" horiz-adv-x="722" 
d="M434 -418h-211q-141 324 -141 666q0 152 31 319q111 562 489 963h246q-399 -482 -498 -983q-35 -189 -35 -338q0 -302 119 -627z" />
    <glyph glyph-name="parenright" unicode=")" horiz-adv-x="722" 
d="M133 -418h-248q400 479 500 983q33 164 33 338q0 307 -117 627h209q143 -316 143 -666q0 -172 -32 -319q-111 -560 -488 -963z" />
    <glyph glyph-name="asterisk" unicode="*" horiz-adv-x="1105" 
d="M649 944l-223 -254l-139 105l245 231l-266 82l96 170l250 -111l52 291h178l-76 -291l291 111l28 -174l-305 -80l156 -229l-162 -105z" />
    <glyph glyph-name="plus" unicode="+" 
d="M795 739h454v-207h-454v-458h-215v458h-455v207h455v459h215v-459z" />
    <glyph glyph-name="comma" unicode="," horiz-adv-x="610" 
d="M-2 -309h-18l26 121h19q76 0 117 35q42 36 59 116l8 41l-164 -4l55 258h295l-65 -305q-27 -128 -112 -195t-220 -67z" />
    <glyph glyph-name="hyphen" unicode="-" horiz-adv-x="778" 
d="M657 440h-573l45 211h573z" />
    <glyph glyph-name="period" unicode="." horiz-adv-x="583" 
d="M322 0h-285l53 258h287z" />
    <glyph glyph-name="slash" unicode="/" horiz-adv-x="991" 
d="M209 0h-260l917 1458h260z" />
    <glyph glyph-name="zero" unicode="0" 
d="M584 -29q-211 0 -330 139t-119 384q0 124 29 266q78 375 242 551t434 176q208 0 325 -135t117 -381q0 -122 -29 -264q-74 -376 -236 -555q-164 -181 -433 -181zM602 182q151 0 250 131q99 130 156 414q30 150 30 258q0 291 -217 291q-156 0 -255 -131q-99 -130 -156 -412
q-29 -150 -29 -258q0 -293 221 -293z" />
    <glyph glyph-name="one" unicode="1" horiz-adv-x="929" 
d="M588 0h-248l217 1024h-375l37 174h94q149 0 244 66q75 54 131 174l8 20h203z" />
    <glyph glyph-name="two" unicode="2" 
d="M1081 0h-1042q39 186 143 319q105 135 297 246l303 178q128 72 186 148t58 182q0 95 -56 147t-153 52q-249 0 -305 -287l-6 -33h-242l6 31q46 238 196 370q148 130 376 130q192 0 321 -109q123 -111 123 -282q0 -164 -94 -288q-95 -125 -287 -233l-246 -139
q-128 -72 -181 -118q-55 -47 -75 -101h723z" />
    <glyph glyph-name="three" unicode="3" 
d="M588 -33q-228 0 -363 117q-137 117 -137 313q0 39 6 82h244q-4 -47 -4 -59q0 -117 68 -179q69 -63 198 -63q159 0 251 82q93 82 93 213q0 191 -237 191h-132l41 196h101q135 0 214 66t79 180q0 170 -211 170q-252 0 -312 -262h-239q102 471 581 471q201 0 320 -96
t119 -250q0 -129 -77 -224q-75 -93 -212 -137v-6q107 -27 166 -105t59 -194q0 -228 -172 -367q-173 -139 -444 -139z" />
    <glyph glyph-name="four" unicode="4" 
d="M1208 1458l-198 -928h227l-43 -204h-227l-70 -326h-246l70 326h-668l53 245l852 887h250zM338 530h428l123 568h-6z" />
    <glyph glyph-name="five" unicode="5" 
d="M569 -33q-215 0 -342 114t-127 306l244 12q1 -108 66 -166q63 -57 174 -57q158 0 260 105q98 104 98 260q0 107 -61 167t-174 60q-144 0 -273 -109l-225 31l278 768h822l-45 -219h-623l-129 -350l4 -2q121 88 281 88q177 0 284 -117q109 -123 109 -299q0 -265 -172 -428
q-175 -164 -449 -164z" />
    <glyph glyph-name="six" unicode="6" 
d="M799 973q181 0 293 -117q112 -118 112 -299q0 -256 -166 -422t-424 -166q-225 0 -350 145t-125 394q0 94 23 221q146 762 698 762q194 0 308 -108t118 -285h-233q-4 88 -61 140q-56 52 -152 52q-314 0 -426 -499q157 182 385 182zM629 176q148 0 239 109q88 106 88 258
q0 109 -58 170t-163 61q-127 0 -223 -81t-125 -212q-6 -27 -6 -59q0 -113 66 -179q67 -67 182 -67z" />
    <glyph glyph-name="seven" unicode="7" 
d="M512 0h-274q206 732 788 1233h-739l49 225h1055l-43 -201q-335 -279 -529 -569q-194 -294 -307 -688z" />
    <glyph glyph-name="eight" unicode="8" 
d="M592 -33q-230 0 -377 115q-147 114 -147 295q0 158 98 271q99 114 268 159l2 4q-151 90 -151 262q0 199 151 307q151 107 395 107q205 0 332 -96t127 -246q0 -124 -78 -223t-202 -144v-4q97 -38 152 -119t55 -190q0 -234 -175 -365q-175 -133 -450 -133zM748 872
q142 0 224 66q83 66 83 182q0 79 -64 125q-63 45 -176 45q-144 0 -224 -62q-81 -63 -81 -177q0 -85 62 -131q65 -48 176 -48zM608 164q163 0 261 85q100 86 100 222q0 98 -74 155q-72 56 -207 56q-167 0 -270 -80t-103 -215q0 -103 79 -163q80 -60 214 -60z" />
    <glyph glyph-name="nine" unicode="9" 
d="M801 1483q225 0 350 -145t125 -394q0 -100 -21 -221q-145 -762 -698 -762q-196 0 -310 108t-118 285h233q4 -88 61 -140q56 -52 152 -52q313 0 426 500q-157 -183 -385 -183q-179 0 -290 117q-113 115 -113 299q0 256 166 422q162 166 422 166zM680 678q127 0 223 81
t125 212q6 27 6 59q0 113 -66 179q-67 67 -182 67q-144 0 -235 -109q-90 -108 -90 -258q0 -109 57 -170t162 -61z" />
    <glyph glyph-name="colon" unicode=":" horiz-adv-x="583" 
d="M489 782h-286l55 258h285zM322 0h-285l53 258h287z" />
    <glyph glyph-name="semicolon" unicode=";" horiz-adv-x="626" 
d="M500 782h-287l55 258h285zM10 -309h-18l26 121h19q143 0 176 151l8 41l-162 -4l56 258h293l-66 -305q-27 -128 -112 -195t-220 -67z" />
    <glyph glyph-name="less" unicode="&#x3c;" 
d="M123 737l1130 410v-238l-868 -288l868 -287v-238l-1130 408v233z" />
    <glyph glyph-name="equal" unicode="=" 
d="M1235 766h-1096v205h1096v-205zM1235 297h-1096v205h1096v-205z" />
    <glyph glyph-name="greater" unicode="&#x3e;" 
d="M123 909v238l1130 -410v-233l-1130 -408v238l868 287z" />
    <glyph glyph-name="question" unicode="?" horiz-adv-x="1243" 
d="M694 422h-227l12 59q28 127 92 205q67 80 207 148q127 63 177 117q53 58 53 136q0 95 -69 145q-70 50 -189 50q-256 0 -318 -254h-242q113 461 578 461q217 0 352 -103q133 -102 133 -272q0 -231 -260 -375l-127 -69q-82 -45 -112 -88q-33 -48 -56 -138zM625 0h-263
l54 258h262z" />
    <glyph glyph-name="at" unicode="@" horiz-adv-x="2260" 
d="M1282 1493q427 0 668 -244q237 -248 155 -635q-49 -224 -184 -368q-136 -148 -332 -148q-198 0 -260 142q-136 -142 -321 -142q-175 0 -271 133q-94 130 -47 355q43 204 178 325q136 121 299 121q175 0 265 -139l38 108h187l-117 -538q-46 -201 92 -201q97 0 173 100
q77 101 110 259q67 312 -107 503t-530 191q-351 0 -586 -191q-231 -190 -303 -510q-76 -360 113 -575q189 -213 538 -213q220 0 439 76l-37 -187q-205 -65 -424 -65q-444 0 -678 280q-233 278 -141 713q84 386 374 619q293 231 709 231zM1067 274q188 0 266 213l33 144
q6 106 -43 165q-49 60 -145 60q-106 0 -179 -75t-102 -210q-30 -142 14 -219q45 -78 156 -78z" />
    <glyph glyph-name="A" unicode="A" horiz-adv-x="1478" 
d="M1311 0h-254l-51 365h-572l-205 -365h-276l848 1458h289zM754 936l-203 -363h426l-49 363l-27 285z" />
    <glyph glyph-name="B" unicode="B" horiz-adv-x="1464" 
d="M1096 774q211 -76 211 -297q0 -219 -156 -348t-406 -129h-684l312 1458h641q180 0 280 -84q101 -84 101 -227q0 -136 -79 -233q-79 -96 -220 -140zM940 1251h-365l-79 -383h362q128 0 204 66q77 66 77 170q0 147 -199 147zM354 211h394q148 0 231 76q84 77 84 207
q0 170 -219 170h-393z" />
    <glyph glyph-name="C" unicode="C" horiz-adv-x="1466" 
d="M694 -41q-261 0 -413 164q-150 162 -150 434q0 95 25 207q72 339 284 530q213 195 508 195q226 0 377 -121q150 -123 150 -373h-238q-5 130 -85 203q-82 74 -220 74q-197 0 -339 -142q-141 -141 -192 -387q-20 -84 -20 -178q0 -183 86 -286t246 -103q151 0 264 86
q112 85 168 242h241q-72 -256 -256 -400q-188 -145 -436 -145z" />
    <glyph glyph-name="D" unicode="D" horiz-adv-x="1468" 
d="M373 1458h501q276 0 417 -140q143 -141 143 -400q0 -89 -23 -216q-137 -702 -799 -702h-551zM1161 729q21 96 21 193q0 170 -88 249q-89 80 -277 80h-242l-221 -1040h258q231 0 364 125t185 393z" />
    <glyph glyph-name="E" unicode="E" horiz-adv-x="1347" 
d="M1419 1458l-47 -211h-797l-81 -387h727l-45 -213h-730l-92 -436h820l-46 -211h-1067l312 1458h1046z" />
    <glyph glyph-name="F" unicode="F" horiz-adv-x="1218" 
d="M1386 1458l-47 -219h-766l-81 -385h651l-47 -219h-652l-135 -635h-248l312 1458h1013z" />
    <glyph glyph-name="G" unicode="G" horiz-adv-x="1609" 
d="M872 784h553l-4 -12l70 12l-168 -784h-168l-6 164q-174 -197 -461 -197q-247 0 -401 160q-156 157 -156 428q0 96 25 207q69 336 295 534q223 195 524 195q252 0 400 -128q147 -128 147 -353l-244 -11q0 134 -82 204q-83 71 -231 71q-210 0 -363 -148
q-152 -147 -203 -395q-18 -96 -18 -172q0 -180 91 -281q92 -102 261 -102q168 0 294 98q130 101 192 277l4 22h-396z" />
    <glyph glyph-name="H" unicode="H" horiz-adv-x="1511" 
d="M1163 877l125 581h250l-311 -1458h-250l141 657h-667l-142 -657h-248l312 1458h248l-125 -581h667z" />
    <glyph glyph-name="I" unicode="I" horiz-adv-x="595" 
d="M309 0h-248l312 1458h248z" />
    <glyph glyph-name="J" unicode="J" horiz-adv-x="1171" 
d="M473 -29q-186 0 -296 89q-109 88 -109 247q0 74 36 215h240q-35 -148 -35 -194q0 -140 174 -140q195 0 242 220l223 1050h248l-223 -1052q-90 -435 -500 -435z" />
    <glyph glyph-name="K" unicode="K" horiz-adv-x="1460" 
d="M1227 1458h342l-715 -602l459 -856h-289l-373 707l-231 -187l-111 -520h-248l312 1458h248l-136 -633z" />
    <glyph glyph-name="L" unicode="L" horiz-adv-x="1218" 
d="M621 1458l-265 -1239h736l-48 -219h-983l312 1458h248z" />
    <glyph glyph-name="M" unicode="M" horiz-adv-x="1785" 
d="M932 475l520 983h358l-311 -1458h-229l162 752l131 522l-174 -367l-480 -907h-245l-103 911l-24 357l-86 -516l-162 -752h-228l312 1458h336l112 -973l6 -235z" />
    <glyph glyph-name="N" unicode="N" horiz-adv-x="1515" 
d="M1071 385l227 1073h242l-311 -1458h-238l-459 1067l-227 -1067h-244l312 1458h235z" />
    <glyph glyph-name="O" unicode="O" horiz-adv-x="1591" 
d="M719 -41q-265 0 -424 164q-162 162 -162 434q0 107 21 197q72 338 292 534q223 201 523 201q259 0 417 -160q158 -163 158 -430q0 -106 -20 -192q-69 -351 -283 -549q-214 -199 -522 -199zM735 176q199 0 346 152q148 154 199 403q14 62 14 150q0 181 -94 285
q-95 106 -256 106q-201 0 -352 -148q-149 -147 -195 -393q-16 -96 -16 -162q0 -184 94 -288q95 -105 260 -105z" />
    <glyph glyph-name="P" unicode="P" horiz-adv-x="1310" 
d="M373 1458h561q198 0 309 -98q113 -99 113 -268q0 -250 -158 -393q-157 -142 -430 -142h-340l-119 -557h-248zM473 768h307q151 0 240 82q90 82 90 219q0 178 -217 178h-318z" />
    <glyph glyph-name="Q" unicode="Q" horiz-adv-x="1589" 
d="M1524 707q-68 -347 -279 -545l135 -127l-166 -154l-137 162q-164 -84 -358 -84q-265 0 -424 164q-162 162 -162 434q0 107 21 197q72 338 292 534q223 201 523 201q259 0 417 -160q158 -163 158 -430q0 -106 -20 -192zM381 569q0 -184 94 -288q95 -105 260 -105
q97 0 180 37l-129 119l164 155l133 -157q145 151 197 401q14 62 14 150q0 181 -94 285q-95 106 -256 106q-201 0 -352 -148q-149 -147 -195 -393q-16 -96 -16 -162z" />
    <glyph glyph-name="R" unicode="R" horiz-adv-x="1445" 
d="M1421 1122q0 -160 -94 -273q-95 -114 -254 -149q162 -50 162 -237q0 -17 -4 -72l-35 -391h-246l37 362q4 55 4 72q0 90 -43 126t-147 36h-365l-127 -596h-248l312 1458h643q197 0 301 -91t104 -245zM481 803h350q153 0 245 77q91 76 91 205q0 162 -217 162h-375z" />
    <glyph glyph-name="S" unicode="S" horiz-adv-x="1388" 
d="M627 -39q-253 0 -398 112q-143 110 -143 318q0 43 4 72h238q-4 -33 -4 -49q0 -122 82 -186t231 -64q172 0 269 67q98 68 98 191q0 73 -48 115q-47 41 -163 69l-207 56q-154 39 -242 130t-88 228q0 222 160 347q158 124 434 124q233 0 369 -110q135 -109 135 -302
q0 -35 -2 -49h-236q2 14 2 33q0 106 -75 166q-74 59 -212 59q-152 0 -238 -64q-87 -64 -87 -173q0 -123 168 -162l252 -64q329 -84 329 -368q0 -238 -168 -367t-460 -129z" />
    <glyph glyph-name="T" unicode="T" horiz-adv-x="1284" 
d="M254 1458h1171l-47 -219h-460l-265 -1239h-247l264 1239h-463z" />
    <glyph glyph-name="U" unicode="U" horiz-adv-x="1476" 
d="M655 -41q-236 0 -370 103q-135 104 -135 288q0 54 12 115l211 993h248l-215 -1009q-9 -36 -9 -76q0 -197 269 -197q315 0 372 273l215 1009h248l-213 -1003q-108 -496 -633 -496z" />
    <glyph glyph-name="V" unicode="V" horiz-adv-x="1394" 
d="M811 627l449 831h276l-811 -1458h-260l-201 1458h254l100 -829l25 -353z" />
    <glyph glyph-name="W" unicode="W" horiz-adv-x="1982" 
d="M1479 659l383 799h264l-723 -1458h-236l-53 1130l-506 -1130h-241l-103 1458h242l39 -799l6 -309l135 312l369 796h250l36 -799v-309z" />
    <glyph glyph-name="X" unicode="X" horiz-adv-x="1406" 
d="M1219 1458h294l-614 -700l338 -758h-268l-193 481l-33 111l-81 -113l-402 -479h-307l682 776l-318 682h267l170 -403l34 -119l84 115z" />
    <glyph glyph-name="Y" unicode="Y" horiz-adv-x="1378" 
d="M1243 1458h295l-707 -876l-122 -582h-248l123 582l-338 876h260l186 -524l41 -158l105 158z" />
    <glyph glyph-name="Z" unicode="Z" horiz-adv-x="1419" 
d="M375 1458h1106l-43 -194l-1061 -1049h854l-47 -215h-1176l47 211l1049 1032h-774z" />
    <glyph glyph-name="bracketleft" unicode="[" horiz-adv-x="724" 
d="M436 -418h-463l414 1948h463l-41 -195h-234l-331 -1558h233z" />
    <glyph glyph-name="backslash" unicode="\" horiz-adv-x="991" 
d="M803 0h-234l-295 1458h234z" />
    <glyph glyph-name="bracketright" unicode="]" horiz-adv-x="729" 
d="M354 -418h-469l43 195h238l332 1558h-234l41 195h463z" />
    <glyph glyph-name="asciicircum" unicode="^" 
d="M561 1458h242l377 -1057h-248l-154 461q-42 136 -94 363q-66 -253 -98 -363l-144 -461h-247z" />
    <glyph glyph-name="underscore" unicode="_" horiz-adv-x="1024" 
d="M844 -315h-1024l35 161h1024z" />
    <glyph glyph-name="grave" unicode="`" horiz-adv-x="1024" 
d="M864 1180h-159l-201 303h284z" />
    <glyph glyph-name="a" unicode="a" horiz-adv-x="1153" 
d="M678 1083q188 0 286 -70q99 -71 99 -200q0 -31 -12 -94l-103 -475q-18 -82 -18 -156q0 -50 12 -88h-227v129q-134 -158 -363 -158q-148 0 -236 75q-89 75 -89 202q0 149 107 240q109 92 304 122l330 49q19 1 39 13l12 63q6 39 6 49q0 121 -178 121q-102 0 -160 -38
t-88 -128l-223 9q90 335 502 335zM446 152q106 0 186 59q80 60 109 156l29 139l-16 -4l-285 -47q-199 -33 -199 -174q0 -129 176 -129z" />
    <glyph glyph-name="b" unicode="b" horiz-adv-x="1224" 
d="M784 1081q169 0 269 -113t100 -302q0 -77 -14 -150q-51 -252 -193 -399q-141 -146 -344 -146q-112 0 -195 56t-122 151l-43 -178h-211l311 1458h240l-109 -510q123 133 311 133zM907 539q8 46 8 100q0 115 -55 176q-56 62 -153 62q-123 0 -212 -91t-122 -251
q-11 -53 -11 -109q0 -116 60 -182t162 -66q121 0 208 97q86 97 115 264z" />
    <glyph glyph-name="c" unicode="c" horiz-adv-x="1134" 
d="M827 74q-139 -105 -331 -105q-193 0 -308 115q-116 112 -116 313q0 84 14 146q50 253 208 396q159 144 382 144q200 0 308 -102t108 -283h-232q-2 193 -203 193q-125 0 -216 -98q-92 -100 -122 -271q-12 -63 -12 -119q0 -115 53 -179q52 -62 152 -62q194 0 279 205h235
q-61 -190 -199 -293z" />
    <glyph glyph-name="d" unicode="d" horiz-adv-x="1224" 
d="M922 905l118 553h240l-311 -1458h-211l24 141q-134 -170 -338 -170q-168 0 -270 114t-102 306q0 65 16 154q46 245 188 391q141 145 338 145q216 0 308 -176zM518 176q120 0 212 93q92 94 122 255q10 64 10 107q0 117 -59 182q-60 66 -162 66q-121 0 -207 -97
q-87 -98 -117 -264q-8 -50 -8 -104q0 -110 56 -174t153 -64z" />
    <glyph glyph-name="e" unicode="e" horiz-adv-x="1193" 
d="M1096 463h-785q-4 -59 -4 -68q0 -108 62 -172q61 -63 170 -63q181 0 280 172l225 -21q-79 -169 -210 -255q-134 -87 -308 -87q-214 0 -331 125q-119 125 -119 322q0 79 16 149q53 238 209 379q157 139 379 139q206 0 324 -112t118 -314q0 -99 -26 -194zM670 899
q-114 0 -199 -72q-87 -73 -125 -198h545q2 14 2 43q0 111 -59 169t-164 58z" />
    <glyph glyph-name="f" unicode="f" horiz-adv-x="710" 
d="M829 1264h-92q-67 0 -103 -30q-35 -29 -50 -97l-19 -86l221 6l-38 -180l-218 8l-18 -78l-170 -807h-240l174 817l15 66l-160 -6l37 180l158 -6l20 92q34 165 123 240t252 75h151z" />
    <glyph glyph-name="g" unicode="g" horiz-adv-x="1224" 
d="M942 887l41 170h211l-221 -1047q-50 -234 -182 -343q-133 -109 -367 -109q-213 0 -326 83q-112 82 -112 246l225 4q4 -151 221 -151q252 0 303 246l33 151q-135 -147 -317 -147q-172 0 -274 112q-101 111 -101 301q0 273 153 476q151 202 394 202q111 0 193 -52
q83 -53 126 -142zM518 195q158 0 254 135q96 137 96 313q0 115 -57 178q-58 64 -158 64q-151 0 -247 -140q-95 -140 -95 -325q0 -105 55 -166q53 -59 152 -59z" />
    <glyph glyph-name="h" unicode="h" horiz-adv-x="1200" 
d="M799 1083q144 0 224 -77q81 -78 81 -211q0 -36 -10 -99l-150 -696h-239l139 662q10 49 10 75q0 133 -147 133q-107 0 -190 -69q-84 -70 -118 -197l-129 -604h-239l311 1458h240l-115 -536q130 161 332 161z" />
    <glyph glyph-name="i" unicode="i" horiz-adv-x="518" 
d="M526 1225h-239l51 233h240zM266 0h-239l225 1057h240z" />
    <glyph glyph-name="j" unicode="j" horiz-adv-x="518" 
d="M526 1225h-239l49 233h239zM-98 -418h-142l43 207h62q65 0 97 24q32 25 44 85l246 1159h240l-248 -1168q-37 -169 -111 -238q-73 -69 -231 -69z" />
    <glyph glyph-name="k" unicode="k" horiz-adv-x="1163" 
d="M897 1057h311l-514 -420l307 -637h-260l-233 506l-156 -127l-82 -379h-239l311 1458h240l-172 -809z" />
    <glyph glyph-name="l" unicode="l" horiz-adv-x="526" 
d="M270 0h-239l311 1458h240z" />
    <glyph glyph-name="m" unicode="m" horiz-adv-x="1771" 
d="M1395 1083q131 0 206 -74q76 -75 76 -204q0 -37 -10 -96l-149 -709h-240l145 686q7 35 7 55q0 129 -130 129q-94 0 -167 -69q-73 -68 -111 -201l-129 -600h-240l146 686q6 30 6 55q0 129 -129 129q-97 0 -175 -78q-80 -80 -110 -227l-119 -565h-239l223 1057h231
l-30 -142q125 168 317 168q105 0 176 -52t94 -144q130 196 351 196z" />
    <glyph glyph-name="n" unicode="n" horiz-adv-x="1200" 
d="M799 1083q144 0 224 -77q81 -78 81 -211q0 -40 -10 -99l-150 -696h-239l139 662q10 49 10 75q0 133 -147 133q-112 0 -196 -74q-86 -76 -116 -214l-123 -582h-239l223 1057h231l-32 -152q139 178 344 178z" />
    <glyph glyph-name="o" unicode="o" horiz-adv-x="1220" 
d="M524 -31q-207 0 -328 121q-122 122 -122 324q0 77 14 133q45 239 213 389q162 147 399 147q206 0 326 -119q121 -120 121 -321q0 -61 -12 -133q-51 -257 -211 -399t-400 -142zM541 162q139 0 235 99q97 100 125 269q10 63 10 99q0 124 -60 193t-173 69q-136 0 -232 -99
q-97 -100 -127 -266q-10 -64 -10 -106q0 -122 61 -191q60 -67 171 -67z" />
    <glyph glyph-name="p" unicode="p" horiz-adv-x="1226" 
d="M780 1081q170 0 272 -111q101 -110 101 -304q0 -272 -152 -484q-153 -211 -391 -211q-214 0 -309 174l-119 -563h-239l313 1475h211l-27 -144q130 168 340 168zM584 178q150 0 241 141q90 144 90 324q0 111 -55 172q-56 62 -153 62q-154 0 -250 -138q-95 -137 -95 -313
q0 -116 60 -182t162 -66z" />
    <glyph glyph-name="q" unicode="q" horiz-adv-x="1226" 
d="M940 872l45 185h211l-311 -1467h-240l109 514q-127 -133 -308 -133q-168 0 -270 114t-102 306q0 275 153 483q151 207 389 207q115 0 200 -55t124 -154zM520 176q154 0 250 139q94 136 94 316q0 117 -59 182q-60 66 -162 66q-151 0 -242 -142q-90 -145 -90 -323
q0 -110 56 -174t153 -64z" />
    <glyph glyph-name="r" unicode="r" horiz-adv-x="802" 
d="M770 1090q42 0 78 -11l-49 -225q-30 6 -64 6q-125 0 -217 -80t-129 -225l-117 -555h-239l223 1057h225l-32 -176q125 209 321 209z" />
    <glyph glyph-name="s" unicode="s" horiz-adv-x="1071" 
d="M459 -33q-209 0 -313 91q-105 92 -105 266l221 6q0 -187 217 -187q114 0 177 42t63 116q0 45 -30 71t-97 42l-178 43q-127 30 -195 101q-67 70 -67 171q0 171 122 262q124 92 332 92q186 0 290 -89q103 -88 103 -246l-217 -5q0 77 -51 121q-50 43 -145 43t-151 -37
t-56 -104q0 -89 123 -113l174 -39q274 -60 274 -274q0 -181 -131 -277t-360 -96z" />
    <glyph glyph-name="t" unicode="t" horiz-adv-x="745" 
d="M522 885l-18 -90l-105 -490q-8 -29 -8 -49q0 -61 86 -61h117l-43 -195h-170q-238 0 -238 193q0 23 11 83l110 521l19 86l-152 -6l37 180l151 -6l19 94l51 237h240l-51 -235l-21 -96l219 6l-37 -180z" />
    <glyph glyph-name="u" unicode="u" horiz-adv-x="1200" 
d="M805 475l123 582h239l-223 -1057h-231l32 152q-140 -179 -344 -179q-143 0 -224 78t-81 211q0 39 10 98l150 697h240l-142 -662q-8 -37 -8 -76q0 -133 148 -133q110 0 195 75q86 76 116 214z" />
    <glyph glyph-name="v" unicode="v" horiz-adv-x="1060" 
d="M614 596l250 461h250l-592 -1057h-241l-154 1057h246l53 -461l20 -379z" />
    <glyph glyph-name="w" unicode="w" horiz-adv-x="1581" 
d="M1112 518l260 539h260l-553 -1057h-235l-23 608l-4 183l-76 -183l-278 -608h-238l-98 1057h233l37 -539l9 -246l100 246l250 539h231l21 -537l4 -244z" />
    <glyph glyph-name="x" unicode="x" horiz-adv-x="1128" 
d="M872 1057h281l-467 -506l285 -551h-260l-170 389l-330 -389h-297l535 565l-259 492h256l150 -332z" />
    <glyph glyph-name="y" unicode="y" horiz-adv-x="1116" 
d="M479 266l426 791h262l-712 -1245q-77 -132 -150 -181t-194 -49h-191l45 203h119q66 0 105 25q38 24 77 92l51 88l-190 1067h244l100 -660z" />
    <glyph glyph-name="z" unicode="z" horiz-adv-x="1048" 
d="M229 1057h828l-37 -176l-725 -691h606l-41 -190h-901l39 182l721 684h-531z" />
    <glyph glyph-name="braceleft" unicode="{" horiz-adv-x="821" 
d="M532 -418h-200q-197 0 -197 170q0 38 12 98l80 369q19 87 19 115q0 129 -172 133l39 184q208 4 247 201l93 428q27 118 103 184t192 66h200l-43 -195h-104q-107 0 -131 -112l-82 -387q-53 -245 -279 -275v-4q170 -29 170 -192q0 -45 -18 -134l-70 -323q-10 -49 -10 -62
q0 -71 88 -71h104z" />
    <glyph glyph-name="bar" unicode="|" horiz-adv-x="1001" 
d="M627 -418h-240v1948h240v-1948z" />
    <glyph glyph-name="braceright" unicode="}" horiz-adv-x="825" 
d="M88 -418h-203l43 193h109q107 0 131 112l82 387q53 245 278 275v4q-170 29 -170 195q0 38 19 131l69 323q11 53 11 64q0 69 -88 69h-105l41 195h199q198 0 198 -170q0 -40 -12 -100l-80 -369q-18 -84 -18 -113q0 -132 172 -133l-41 -184q-207 -5 -246 -201l-92 -430
q-27 -120 -104 -183q-79 -65 -193 -65z" />
    <glyph glyph-name="asciitilde" unicode="~" 
d="M358 494h-204q0 380 297 380q81 2 170 -38q86 -38 169 -82q76 -40 117 -39q107 0 107 159h207q0 -188 -78 -284t-221 -96q-138 0 -254 81q-124 80 -201 80q-109 0 -109 -161z" />
    <glyph glyph-name="uni00A0" unicode="&#xa0;" horiz-adv-x="532" 
 />
    <glyph glyph-name="exclamdown" unicode="&#xa1;" horiz-adv-x="610" 
d="M494 799h-263l56 258h262zM227 -410h-247l86 398l206 655h115l-74 -655z" />
    <glyph glyph-name="cent" unicode="&#xa2;" horiz-adv-x="1134" 
d="M512 162q194 0 279 205h235q-56 -173 -173 -274q-119 -102 -284 -120l-57 -268h-195l58 277q-141 33 -222 142q-81 110 -81 273q0 84 14 146q45 232 185 373q140 142 339 163l60 285h194l-63 -293q141 -29 216 -126t75 -247h-232q-2 193 -203 193q-125 0 -216 -98
q-92 -100 -122 -271q-12 -63 -12 -119q0 -115 53 -179q52 -62 152 -62z" />
    <glyph glyph-name="sterling" unicode="&#xa3;" 
d="M1288 1047h-233q2 10 2 34q0 94 -70 147q-68 52 -182 52q-123 0 -198 -69t-75 -179q0 -116 140 -262l450 12l-43 -207l-313 11q8 -26 8 -62q0 -93 -59 -174q-60 -82 -166 -139h596l-45 -211h-1141l43 211h72q202 0 329 90q123 89 123 207q0 45 -18 78l-428 -11l45 207
l276 -10q-120 123 -120 268q0 197 151 324q151 125 387 125q214 0 346 -103q129 -105 129 -266q0 -34 -6 -73z" />
    <glyph glyph-name="currency" unicode="&#xa4;" 
d="M1319 1217l-197 -189q82 -124 82 -293t-82 -293l197 -188l-152 -150l-188 197q-124 -82 -293 -82q-163 0 -293 82l-188 -197l-150 150l197 188q-84 130 -84 293t84 293l-197 189l150 149l188 -197q130 82 293 82q169 0 293 -82l188 197zM461 502q82 -88 225 -88
q142 0 227 88q84 90 84 233q0 144 -84 234q-85 88 -227 88q-143 0 -225 -88q-84 -90 -84 -234q0 -143 84 -233z" />
    <glyph glyph-name="yen" unicode="&#xa5;" 
d="M1231 1458h278l-553 -690h304l-41 -195h-420l-35 -167h418l-43 -195h-416l-45 -211h-248l45 211h-416l43 195h414l35 167h-412l41 195h307l-268 690h275l182 -532l39 -148l108 166z" />
    <glyph glyph-name="brokenbar" unicode="&#xa6;" horiz-adv-x="1001" 
d="M627 842h-240v688h240v-688zM627 -418h-240v688h240v-688z" />
    <glyph glyph-name="section" unicode="&#xa7;" horiz-adv-x="1280" 
d="M709 1024l200 -61q281 -80 281 -322q0 -239 -270 -350q53 -79 53 -174q0 -165 -127 -267q-127 -100 -332 -100q-186 0 -293 85q-108 86 -108 233h217q0 -65 53 -103q52 -37 141 -37q102 0 166 47t64 125q0 103 -140 144l-200 59q-279 83 -279 324q0 239 271 350
q-54 80 -54 172q0 166 129 268q125 101 330 101q184 0 293 -86q108 -86 108 -234h-219q0 68 -52 105q-50 36 -140 36q-102 0 -166 -47t-64 -125q0 -104 138 -143zM760 408q104 28 158 82q57 57 57 131q0 112 -162 157l-176 53q-4 1 -76 27q-97 -26 -154 -82t-57 -129
q0 -111 162 -160l174 -53q52 -17 74 -26z" />
    <glyph glyph-name="dieresis" unicode="&#xa8;" horiz-adv-x="1024" 
d="M563 1225h-239l51 233h239zM997 1225h-239l51 233h240z" />
    <glyph glyph-name="copyright" unicode="&#xa9;" horiz-adv-x="1789" 
d="M936 -33q-334 0 -551 217q-219 214 -219 545q0 335 217 549q220 215 553 215q337 0 555 -215q217 -214 217 -549q0 -331 -217 -545q-217 -217 -555 -217zM936 123q264 0 432 172q168 168 168 436q0 266 -168 436q-170 170 -432 170q-260 0 -430 -170q-170 -175 -170 -436
q0 -266 170 -436q169 -172 430 -172zM940 346q-161 0 -252 101q-92 103 -92 284q0 183 91 284t253 101q255 0 315 -225l-159 -31q-34 105 -154 105q-174 0 -174 -234q0 -231 174 -231q122 0 156 108l157 -33q-61 -229 -315 -229z" />
    <glyph glyph-name="ordfeminine" unicode="&#xaa;" horiz-adv-x="1019" 
d="M700 1485q160 0 243 -53t83 -154q0 -29 -16 -121l-84 -395h-176l2 82q-112 -99 -269 -99q-114 0 -182 54q-65 52 -65 145q0 99 76 160t208 72l299 24q10 44 10 64q0 79 -145 79q-130 0 -170 -71l-186 45q94 168 372 168zM549 889q78 0 145 38q64 37 86 89l15 67l-213 -18
q-140 -12 -140 -96q0 -80 107 -80z" />
    <glyph glyph-name="guillemotleft" unicode="&#xab;" horiz-adv-x="1431" 
d="M614 238l-53 -258l-442 436l47 221l627 436l-64 -291l-395 -272zM1225 238l-54 -258l-442 436l47 221l627 436l-64 -291l-395 -272z" />
    <glyph glyph-name="logicalnot" unicode="&#xac;" 
d="M1221 240h-215v395h-852v205h1067v-600z" />
    <glyph glyph-name="uni00AD" unicode="&#xad;" horiz-adv-x="778" 
d="M657 440h-573l45 211h573z" />
    <glyph glyph-name="registered" unicode="&#xae;" horiz-adv-x="1286" 
d="M367 1341q153 148 372 148q221 0 375 -148q152 -152 152 -362q0 -214 -152 -361q-150 -149 -375 -149q-222 0 -372 147q-154 148 -154 363q0 214 154 362zM739 580q171 0 289 114q117 112 117 285t-117 285q-118 114 -289 114t-290 -114q-117 -112 -117 -285t117 -285
q119 -114 290 -114zM952 864l6 -73q5 -47 23 -70h-131q-14 20 -16 70l-5 55q-1 37 -17 53q-14 14 -50 14h-103v-192h-127v524h242q91 0 140 -40q51 -42 51 -111q0 -84 -76 -121q58 -23 63 -109zM659 1141v-125h107q70 0 70 61q0 64 -74 64h-103z" />
    <glyph glyph-name="overscore" unicode="&#xaf;" horiz-adv-x="1024" 
d="M1014 1247h-701l39 180h701z" />
    <glyph glyph-name="degree" unicode="&#xb0;" horiz-adv-x="921" 
d="M590 776q-157 0 -262 105t-105 264q0 157 105 262q104 104 262 104q160 0 264 -104t104 -262q0 -157 -102 -264q-105 -105 -266 -105zM590 944q89 0 142 56q54 57 54 145q0 87 -54 143q-54 55 -142 55q-84 0 -139 -55q-56 -56 -56 -143t56 -145q55 -56 139 -56z" />
    <glyph glyph-name="plusminus" unicode="&#xb1;" 
d="M795 1231v-338h450v-205h-450v-338h-215v338h-451v205h451v338h215zM1235 -25h-1096v207h1096v-207z" />
    <glyph glyph-name="two.sups" unicode="&#xb2;" horiz-adv-x="884" 
d="M829 762h-675q29 155 94 244q66 90 180 141l211 94q143 63 143 154q0 104 -135 104q-146 0 -176 -145h-186q28 145 127 223t256 78q136 0 220 -64q83 -63 83 -172q0 -184 -248 -295l-182 -86q-117 -52 -138 -114h461z" />
    <glyph glyph-name="three.sups" unicode="&#xb3;" horiz-adv-x="913" 
d="M532 729q-300 0 -327 277l182 20q1 -143 156 -143q87 0 137 40q51 41 51 103q0 98 -149 98h-60l33 158h61q78 0 124 33t46 88q0 98 -141 98q-148 0 -182 -121l-178 29q30 113 130 180q99 66 249 66q138 0 225 -61q86 -60 86 -158q0 -80 -51 -140q-50 -59 -138 -82l-2 -2
q63 -17 98 -64q36 -48 36 -116q0 -131 -107 -217t-279 -86z" />
    <glyph glyph-name="acute" unicode="&#xb4;" horiz-adv-x="1024" 
d="M643 1180h-180l137 303h305z" />
    <glyph glyph-name="uni00B5" unicode="&#xb5;" horiz-adv-x="1425" 
d="M496 -416h-240v1473h240v-662q0 -209 182 -209q113 0 182 77q70 78 70 218v576h239v-1057h-231v150q-45 -86 -122 -130q-80 -45 -177 -45q-109 0 -186 60l-4 -4l47 -256v-191z" />
    <glyph glyph-name="paragraph" unicode="&#xb6;" horiz-adv-x="1316" 
d="M555 -211h-205l203 913q-183 0 -282 78t-99 219q0 219 145 339t396 120h628l-356 -1669h-205l312 1464h-226z" />
    <glyph glyph-name="middot" unicode="&#xb7;" horiz-adv-x="559" 
d="M426 600h-262l55 258h262z" />
    <glyph glyph-name="cedilla" unicode="&#xb8;" horiz-adv-x="1024" 
d="M209 -510h-92l24 123h68q147 0 147 76q0 53 -73 53h-60l-67 100l133 158h157l-104 -121h23q86 0 133 -44t47 -118q0 -107 -92 -167q-91 -60 -244 -60z" />
    <glyph glyph-name="one.sups" unicode="&#xb9;" horiz-adv-x="610" 
d="M516 762h-182l125 579h-215l28 138h68q159 0 192 123l11 26h159z" />
    <glyph glyph-name="ordmasculine" unicode="&#xba;" horiz-adv-x="962" 
d="M567 750q-167 0 -262 85q-96 85 -96 232q0 187 121 301q119 113 315 113q167 0 261 -84q95 -84 95 -232q0 -188 -118 -302q-117 -113 -316 -113zM584 901q97 0 156 67t59 183q0 85 -45 132q-45 46 -125 46q-103 0 -160 -67q-57 -68 -57 -183q0 -85 45 -132
q45 -46 127 -46z" />
    <glyph glyph-name="guillemotright" unicode="&#xbb;" horiz-adv-x="1429" 
d="M651 416l-624 -436l61 292l397 273l-280 270l55 258l438 -436zM1262 416l-625 -436l61 292l398 273l-281 270l55 258l439 -436z" />
    <glyph glyph-name="onequarter" unicode="&#xbc;" horiz-adv-x="2203" 
d="M592 627h-184l124 579h-213l29 137h66q160 0 194 123l8 29h160zM549 -31h-213l1231 1520h211zM1769 0h-176l39 178l-432 -6l31 152l524 542h199l-115 -542l148 6l-33 -158l-146 6zM1726 655l-311 -327l248 -4l70 329z" />
    <glyph glyph-name="onehalf" unicode="&#xbd;" horiz-adv-x="2213" 
d="M592 627h-184l124 579h-213l29 137h66q160 0 194 123l8 29h160zM549 -31h-213l1231 1520h211zM1921 0h-676q52 285 277 385l211 94q143 63 143 154q0 104 -137 104q-146 0 -174 -145h-189q28 145 127 223t256 78q136 0 220 -64q83 -63 83 -172q0 -184 -247 -295l-183 -86
q-113 -50 -135 -114h459z" />
    <glyph glyph-name="threequarters" unicode="&#xbe;" horiz-adv-x="2357" 
d="M547 594q-149 0 -231 72q-83 73 -95 204l180 21q6 -143 156 -143q87 0 138 39q53 41 53 104q0 100 -150 100h-59l32 156h62q78 0 124 34t46 87q0 100 -141 100q-150 0 -183 -123l-178 29q30 113 130 180q99 66 249 66q138 0 225 -61q86 -60 86 -156q0 -80 -51 -140
q-50 -59 -137 -82l-2 -4q61 -16 97 -64t36 -116q0 -132 -107 -218q-106 -85 -280 -85zM733 -31h-213l1231 1520h211zM1954 0h-176l39 178l-433 -6l31 152l524 542h199l-115 -542l148 6l-33 -158l-145 6zM1911 655l-312 -327l248 -4l70 329z" />
    <glyph glyph-name="questiondown" unicode="&#xbf;" horiz-adv-x="1243" 
d="M825 799h-262l55 258h263zM475 -432q-219 0 -352 102t-133 273q0 230 260 374l125 70q81 46 113 90q33 46 55 135l6 23h227l-14 -60q-27 -126 -91 -205t-206 -147q-125 -62 -177 -118t-52 -136q0 -95 67 -144q68 -50 189 -50q256 0 319 254h242q-114 -461 -578 -461z" />
    <glyph glyph-name="Agrave" unicode="&#xc0;" horiz-adv-x="1478" 
d="M983 1884l76 -303h-160l-201 303h285zM1311 0h-254l-51 365h-572l-205 -365h-276l848 1458h289zM754 936l-203 -363h426l-49 363l-27 285z" />
    <glyph glyph-name="Aacute" unicode="&#xc1;" horiz-adv-x="1478" 
d="M942 1884h307l-264 -303h-180zM1311 0h-254l-51 365h-572l-205 -365h-276l848 1458h289zM754 936l-203 -363h426l-49 363l-27 285z" />
    <glyph glyph-name="Acircumflex" unicode="&#xc2;" horiz-adv-x="1478" 
d="M1108 1591l-94 187l-172 -187h-242l309 310h234l178 -310h-213zM-47 0l848 1458h289l221 -1458h-254l-51 365h-572l-205 -365h-276zM754 936l-203 -363h426l-49 363l-27 285z" />
    <glyph glyph-name="Atilde" unicode="&#xc3;" horiz-adv-x="1478" 
d="M1272 1952h184q-73 -340 -309 -340q-69 0 -118 35q-48 35 -87 69q-40 35 -84 35q-87 0 -121 -139h-184q73 340 309 340q79 0 166 -70t125 -70q84 0 119 140zM-47 0l848 1458h289l221 -1458h-254l-51 365h-572l-205 -365h-276zM754 936l-203 -363h426l-49 363l-27 285z
" />
    <glyph glyph-name="Adieresis" unicode="&#xc4;" horiz-adv-x="1478" 
d="M694 1851h240l-51 -233h-240zM1077 1618l51 233h240l-51 -233h-240zM-47 0l848 1458h289l221 -1458h-254l-51 365h-572l-205 -365h-276zM754 936l-203 -363h426l-49 363l-27 285z" />
    <glyph glyph-name="Aring" unicode="&#xc5;" horiz-adv-x="1478" 
d="M1311 0h-254l-51 365h-572l-205 -365h-276l801 1376q-107 86 -107 230q0 127 84 211t211 84q128 0 210 -84q83 -85 83 -211q0 -169 -131 -246zM942 1757q-65 0 -106 -41t-41 -110q0 -67 41 -108q40 -40 106 -40q63 0 106 41q42 41 42 107q0 67 -42 109t-106 42zM754 936
l-203 -363h426l-49 363l-27 285z" />
    <glyph glyph-name="AE" unicode="&#xc6;" horiz-adv-x="2332" 
d="M2402 1458l-45 -211h-798l-82 -387h727l-45 -213h-729l-93 -436h820l-46 -211h-1067l80 375h-596l-305 -375h-270l1190 1458h1259zM1239 1247l-543 -665h473l142 665h-72z" />
    <glyph glyph-name="Ccedilla" unicode="&#xc7;" horiz-adv-x="1466" 
d="M713 176q151 0 264 86q112 85 168 242h241q-67 -249 -247 -393q-184 -146 -424 -152l-70 -80h23q86 0 133 -44t47 -118q0 -107 -92 -167t-244 -60h-92l24 123h68q147 0 147 76q0 53 -73 53h-60l-67 100l108 129q-207 39 -321 195q-115 157 -115 391q0 95 25 207
q72 339 284 530q213 195 508 195q226 0 377 -121q150 -123 150 -373h-238q-5 130 -85 203q-82 74 -220 74q-197 0 -339 -142q-141 -141 -192 -387q-20 -84 -20 -178q0 -183 86 -286t246 -103z" />
    <glyph glyph-name="Egrave" unicode="&#xc8;" horiz-adv-x="1347" 
d="M936 1884l76 -303h-160l-201 303h285zM1419 1458l-47 -211h-797l-81 -387h727l-45 -213h-730l-92 -436h820l-46 -211h-1067l312 1458h1046z" />
    <glyph glyph-name="Eacute" unicode="&#xc9;" horiz-adv-x="1347" 
d="M895 1884h307l-264 -303h-180zM1419 1458l-47 -211h-797l-81 -387h727l-45 -213h-730l-92 -436h820l-46 -211h-1067l312 1458h1046z" />
    <glyph glyph-name="Ecircumflex" unicode="&#xca;" horiz-adv-x="1347" 
d="M1063 1591l-94 187l-172 -187h-242l309 310h234l178 -310h-213zM1419 1458l-47 -211h-797l-81 -387h727l-45 -213h-730l-92 -436h820l-46 -211h-1067l312 1458h1046z" />
    <glyph glyph-name="Edieresis" unicode="&#xcb;" horiz-adv-x="1347" 
d="M649 1851h240l-51 -233h-240zM1083 1851h240l-51 -233h-240zM1419 1458l-47 -211h-797l-81 -387h727l-45 -213h-730l-92 -436h820l-46 -211h-1067l312 1458h1046z" />
    <glyph glyph-name="Igrave" unicode="&#xcc;" horiz-adv-x="595" 
d="M608 1581h-159l-201 303h284zM309 0h-248l312 1458h248z" />
    <glyph glyph-name="Iacute" unicode="&#xcd;" horiz-adv-x="595" 
d="M535 1581h-181l138 303h307zM309 0h-248l312 1458h248z" />
    <glyph glyph-name="Icircumflex" unicode="&#xce;" horiz-adv-x="595" 
d="M391 1591h-241l309 310h233l178 -310h-213l-94 187zM309 0h-248l312 1458h248z" />
    <glyph glyph-name="Idieresis" unicode="&#xcf;" horiz-adv-x="595" 
d="M430 1618h-240l52 233h239zM866 1618h-239l51 233h240zM309 0h-248l312 1458h248z" />
    <glyph glyph-name="Eth" unicode="&#xd0;" horiz-adv-x="1617" 
d="M522 1458h502q273 0 415 -142t142 -398q0 -94 -22 -216q-137 -702 -797 -702h-551l137 643l-270 -10l45 209l266 -11zM1309 729q22 116 22 193q0 170 -88 249q-89 80 -276 80h-242l-88 -420l346 11l-45 -209l-342 10l-92 -432h258q231 0 363 126q133 127 184 392z" />
    <glyph glyph-name="Ntilde" unicode="&#xd1;" horiz-adv-x="1515" 
d="M868 1751q-86 0 -120 -139h-185q73 340 309 340q64 0 117 -35q49 -32 95 -70q43 -35 79 -35q84 0 119 140h184q-73 -340 -309 -340q-69 0 -118 35q-48 35 -87 69q-40 35 -84 35zM1071 385l227 1073h242l-311 -1458h-238l-459 1067l-227 -1067h-244l312 1458h235z" />
    <glyph glyph-name="Ograve" unicode="&#xd2;" horiz-adv-x="1591" 
d="M1065 1593h-160l-200 303h284zM719 -41q-265 0 -424 164q-162 162 -162 434q0 107 21 197q72 338 292 534q223 201 523 201q259 0 417 -160q158 -163 158 -430q0 -106 -20 -192q-69 -351 -283 -549q-214 -199 -522 -199zM735 176q199 0 346 152q148 154 199 403
q14 62 14 150q0 181 -94 285q-95 106 -256 106q-201 0 -352 -148q-149 -147 -195 -393q-16 -96 -16 -162q0 -184 94 -288q95 -105 260 -105z" />
    <glyph glyph-name="Oacute" unicode="&#xd3;" horiz-adv-x="1591" 
d="M991 1593h-180l137 303h307zM719 -41q-265 0 -424 164q-162 162 -162 434q0 107 21 197q72 338 292 534q223 201 523 201q259 0 417 -160q158 -163 158 -430q0 -106 -20 -192q-69 -351 -283 -549q-214 -199 -522 -199zM735 176q199 0 346 152q148 154 199 403
q14 62 14 150q0 181 -94 285q-95 106 -256 106q-201 0 -352 -148q-149 -147 -195 -393q-16 -96 -16 -162q0 -184 94 -288q95 -105 260 -105z" />
    <glyph glyph-name="Ocircumflex" unicode="&#xd4;" horiz-adv-x="1591" 
d="M848 1604h-242l309 309h234l178 -309h-213l-94 186zM719 -41q-265 0 -424 164q-162 162 -162 434q0 107 21 197q72 338 292 534q223 201 523 201q259 0 417 -160q158 -163 158 -430q0 -106 -20 -192q-69 -351 -283 -549q-214 -199 -522 -199zM735 176q199 0 346 152
q148 154 199 403q14 62 14 150q0 181 -94 285q-95 106 -256 106q-201 0 -352 -148q-149 -147 -195 -393q-16 -96 -16 -162q0 -184 94 -288q95 -105 260 -105z" />
    <glyph glyph-name="Otilde" unicode="&#xd5;" horiz-adv-x="1591" 
d="M743 1624h-184q73 340 309 340q64 0 117 -35q55 -36 95 -69q43 -35 79 -35q85 0 119 139h184q-73 -340 -309 -340q-69 0 -118 35q-42 30 -87 70q-38 34 -84 34q-87 0 -121 -139zM719 -41q-265 0 -424 164q-162 162 -162 434q0 107 21 197q72 338 292 534q223 201 523 201
q260 0 418 -160q157 -161 157 -430q0 -106 -20 -192q-69 -351 -283 -549q-214 -199 -522 -199zM735 176q199 0 346 152q148 154 199 403q14 62 14 150q0 181 -94 285q-95 106 -256 106q-201 0 -352 -148q-149 -147 -195 -393q-16 -96 -16 -162q0 -184 94 -288
q95 -105 260 -105z" />
    <glyph glyph-name="Odieresis" unicode="&#xd6;" horiz-adv-x="1591" 
d="M889 1630h-240l51 234h240zM1323 1630h-240l52 234h239zM719 -41q-265 0 -424 164q-162 162 -162 434q0 107 21 197q72 338 292 534q223 201 523 201q259 0 417 -160q158 -163 158 -430q0 -106 -20 -192q-69 -351 -283 -549q-214 -199 -522 -199zM735 176q199 0 346 152
q148 154 199 403q14 62 14 150q0 181 -94 285q-95 106 -256 106q-201 0 -352 -148q-149 -147 -195 -393q-16 -96 -16 -162q0 -184 94 -288q95 -105 260 -105z" />
    <glyph glyph-name="multiply" unicode="&#xd7;" 
d="M686 494l-403 -406l-142 143l404 406l-404 403l140 142l405 -406l408 406l141 -142l-406 -403l406 -408l-143 -141z" />
    <glyph glyph-name="Oslash" unicode="&#xd8;" horiz-adv-x="1591" 
d="M1528 1503l106 -98l-174 -172q84 -144 84 -334q0 -106 -20 -192q-69 -351 -283 -549q-214 -199 -522 -199q-251 0 -406 143l-172 -168l-108 99l186 184q-86 146 -86 340q0 107 21 197q72 338 292 534q223 201 523 201q244 0 399 -143zM381 569q0 -90 25 -170l788 775
q-95 98 -250 98q-201 0 -352 -148q-149 -147 -195 -393q-16 -96 -16 -162zM1294 881q0 94 -24 163l-787 -772q91 -96 252 -96q199 0 346 152q148 154 199 403q14 62 14 150z" />
    <glyph glyph-name="Ugrave" unicode="&#xd9;" horiz-adv-x="1476" 
d="M1026 1581h-160l-200 303h284zM655 -41q-236 0 -370 103q-135 104 -135 288q0 54 12 115l211 993h248l-215 -1009q-9 -36 -9 -76q0 -197 269 -197q315 0 372 273l215 1009h248l-213 -1003q-108 -496 -633 -496z" />
    <glyph glyph-name="Uacute" unicode="&#xda;" horiz-adv-x="1476" 
d="M952 1581h-180l137 303h308zM655 -41q-236 0 -370 103q-135 104 -135 288q0 54 12 115l211 993h248l-215 -1009q-9 -36 -9 -76q0 -197 269 -197q315 0 372 273l215 1009h248l-213 -1003q-108 -496 -633 -496z" />
    <glyph glyph-name="Ucircumflex" unicode="&#xdb;" horiz-adv-x="1476" 
d="M811 1591h-242l310 310h233l178 -310h-213l-94 187zM655 -41q-236 0 -370 103q-135 104 -135 288q0 54 12 115l211 993h248l-215 -1009q-9 -36 -9 -76q0 -197 269 -197q315 0 372 273l215 1009h248l-213 -1003q-108 -496 -633 -496z" />
    <glyph glyph-name="Udieresis" unicode="&#xdc;" horiz-adv-x="1476" 
d="M852 1618h-240l52 233h239zM1286 1618h-239l51 233h239zM655 -41q-236 0 -370 103q-135 104 -135 288q0 54 12 115l211 993h248l-215 -1009q-9 -36 -9 -76q0 -197 269 -197q315 0 372 273l215 1009h248l-213 -1003q-108 -496 -633 -496z" />
    <glyph glyph-name="Yacute" unicode="&#xdd;" horiz-adv-x="1378" 
d="M885 1884h307l-264 -303h-180zM1243 1458h295l-707 -876l-122 -582h-248l123 582l-338 876h260l186 -524l41 -158l105 158z" />
    <glyph glyph-name="Thorn" unicode="&#xde;" horiz-adv-x="1316" 
d="M567 1210h322q198 0 309 -98q113 -99 113 -268q0 -251 -160 -393t-430 -142h-346l-66 -309h-248l312 1458h248zM420 520h315q153 0 241 81q89 81 89 218q0 178 -219 178h-324z" />
    <glyph glyph-name="germandbls" unicode="&#xdf;" horiz-adv-x="1232" 
d="M268 0h-237l223 1047q46 225 171 330q126 106 339 106q211 0 323 -88q113 -89 113 -238q0 -117 -73 -210q-71 -90 -203 -134v-4q209 -74 209 -309q0 -221 -170 -361q-169 -139 -431 -139h-98l41 193h90q146 0 234 82t88 214q0 197 -219 197h-86l39 193h59q128 0 203 65
t75 170q0 85 -52 131q-53 47 -150 47q-212 0 -258 -213z" />
    <glyph glyph-name="agrave" unicode="&#xe0;" horiz-adv-x="1153" 
d="M717 1483l76 -303h-160l-201 303h285zM678 1083q188 0 286 -70q99 -71 99 -200q0 -31 -12 -94l-103 -475q-18 -82 -18 -156q0 -50 12 -88h-227v129q-134 -158 -363 -158q-148 0 -236 75q-89 75 -89 202q0 149 107 240q109 92 304 122l330 49q19 1 39 13l12 63q6 39 6 49
q0 121 -178 121q-102 0 -160 -38t-88 -128l-223 9q90 335 502 335zM446 152q106 0 186 59q80 60 109 156l29 139l-16 -4l-285 -47q-199 -33 -199 -174q0 -129 176 -129z" />
    <glyph glyph-name="aacute" unicode="&#xe1;" horiz-adv-x="1153" 
d="M676 1483h307l-264 -303h-180zM678 1083q188 0 286 -70q99 -71 99 -200q0 -31 -12 -94l-103 -475q-18 -82 -18 -156q0 -50 12 -88h-227v129q-134 -158 -363 -158q-148 0 -236 75q-89 75 -89 202q0 149 107 240q109 92 304 122l330 49q19 1 39 13l12 63q6 39 6 49
q0 121 -178 121q-102 0 -160 -38t-88 -128l-223 9q90 335 502 335zM446 152q106 0 186 59q80 60 109 156l29 139l-16 -4l-285 -47q-199 -33 -199 -174q0 -129 176 -129z" />
    <glyph glyph-name="acircumflex" unicode="&#xe2;" horiz-adv-x="1153" 
d="M844 1190l-94 186l-172 -186h-242l309 309h234l178 -309h-213zM678 1083q188 0 286 -70q99 -71 99 -200q0 -31 -12 -94l-103 -475q-18 -82 -18 -156q0 -50 12 -88h-227v129q-134 -158 -363 -158q-148 0 -236 75q-89 75 -89 202q0 149 107 240q109 92 304 122l330 49
q19 1 39 13l12 63q6 39 6 49q0 121 -178 121q-102 0 -160 -38t-88 -128l-223 9q90 335 502 335zM446 152q106 0 186 59q80 60 109 156l29 139l-16 -4l-285 -47q-199 -33 -199 -174q0 -129 176 -129z" />
    <glyph glyph-name="atilde" unicode="&#xe3;" horiz-adv-x="1153" 
d="M571 1350q-88 0 -118 -140h-185q69 340 307 340q81 0 166 -69q87 -70 125 -70q85 0 119 139h184q-73 -340 -309 -340q-69 0 -118 35q-42 30 -87 70q-40 35 -84 35zM678 1083q188 0 286 -70q99 -71 99 -200q0 -31 -12 -94l-103 -475q-18 -82 -18 -156q0 -50 12 -88h-227
v129q-134 -158 -363 -158q-148 0 -236 75q-89 75 -89 202q0 149 107 240q109 92 304 122l330 49q19 1 39 13l12 63q6 39 6 49q0 121 -178 121q-102 0 -160 -38t-88 -128l-223 9q90 335 502 335zM446 152q106 0 186 59q80 60 109 156l29 139l-16 -4l-285 -47
q-199 -33 -199 -174q0 -129 176 -129z" />
    <glyph glyph-name="adieresis" unicode="&#xe4;" horiz-adv-x="1153" 
d="M430 1458h240l-52 -233h-239zM866 1458h240l-51 -233h-240zM678 1083q188 0 286 -70q99 -71 99 -200q0 -31 -12 -94l-103 -475q-18 -82 -18 -156q0 -50 12 -88h-227v129q-134 -158 -363 -158q-148 0 -236 75q-89 75 -89 202q0 149 107 240q109 92 304 122l330 49
q19 1 39 13l12 63q6 39 6 49q0 121 -178 121q-102 0 -160 -38t-88 -128l-223 9q90 335 502 335zM446 152q106 0 186 59q80 60 109 156l29 139l-16 -4l-285 -47q-199 -33 -199 -174q0 -129 176 -129z" />
    <glyph glyph-name="aring" unicode="&#xe5;" horiz-adv-x="1153" 
d="M983 1266q-82 -82 -211 -82q-127 0 -211 84t-84 207q0 127 85 211q84 83 210 83q128 0 211 -83q82 -82 82 -211q0 -127 -82 -209zM879 1585q-47 39 -106 41q-60 2 -105 -41q-47 -44 -43 -110q0 -67 42 -107q43 -41 105 -41q63 0 106 41q42 40 42 107q0 69 -41 110z
M678 1083q188 0 286 -70q99 -71 99 -200q0 -31 -12 -94l-103 -475q-18 -82 -18 -156q0 -50 12 -88h-227v129q-134 -158 -363 -158q-148 0 -236 75q-89 75 -89 202q0 149 107 240q109 92 304 122l330 49q19 1 39 13l12 63q6 39 6 49q0 121 -178 121q-102 0 -160 -38t-88 -128
l-223 9q90 335 502 335zM446 152q106 0 186 59q80 60 109 156l29 139l-16 -4l-285 -47q-199 -33 -199 -174q0 -129 176 -129z" />
    <glyph glyph-name="ae" unicode="&#xe6;" horiz-adv-x="1878" 
d="M1780 461h-779q-6 -39 -6 -76q0 -111 59 -168q58 -57 165 -57q183 0 282 170l223 -27q-86 -160 -228 -247t-316 -87q-289 0 -369 221q-175 -219 -461 -219q-154 0 -239 69q-86 69 -86 187q0 180 131 285q132 104 336 104h307l18 89q10 49 10 71q0 129 -184 129
q-182 0 -242 -164l-223 2q100 340 506 340q270 0 330 -157q169 157 405 157q191 0 292 -101t101 -288q0 -106 -32 -233zM1366 899q-116 0 -204 -74q-87 -73 -126 -209h539q4 29 4 56q0 227 -213 227zM422 152q119 0 213 73q95 74 119 191h2l8 45l-275 -4q-105 -1 -165 -51
t-60 -130q0 -56 42 -91q40 -33 116 -33z" />
    <glyph glyph-name="ccedilla" unicode="&#xe7;" horiz-adv-x="1134" 
d="M512 162q194 0 279 205h235q-60 -183 -190 -286q-132 -105 -314 -112l-78 -90h23q86 0 133 -44t47 -118q0 -107 -92 -167q-91 -60 -244 -60h-92l25 123h67q148 0 148 76q0 53 -74 53h-59l-68 100l119 140q-143 33 -224 142q-81 110 -81 273q0 84 14 146q50 253 208 396
q159 144 382 144q200 0 308 -102t108 -283h-232q-2 193 -203 193q-125 0 -216 -98q-92 -100 -122 -271q-12 -63 -12 -119q0 -115 53 -179q52 -62 152 -62z" />
    <glyph glyph-name="egrave" unicode="&#xe8;" horiz-adv-x="1193" 
d="M748 1483l75 -303h-159l-201 303h285zM1096 463h-785q-4 -59 -4 -68q0 -108 62 -172q61 -63 170 -63q181 0 280 172l225 -21q-79 -169 -210 -255q-134 -87 -308 -87q-214 0 -331 125q-119 125 -119 322q0 79 16 149q53 238 209 379q157 139 379 139q206 0 324 -112
t118 -314q0 -99 -26 -194zM670 899q-114 0 -199 -72q-87 -73 -125 -198h545q2 14 2 43q0 111 -59 169t-164 58z" />
    <glyph glyph-name="eacute" unicode="&#xe9;" horiz-adv-x="1193" 
d="M707 1483h307l-264 -303h-181zM1096 463h-785q-4 -59 -4 -68q0 -108 62 -172q61 -63 170 -63q181 0 280 172l225 -21q-79 -169 -210 -255q-134 -87 -308 -87q-214 0 -331 125q-119 125 -119 322q0 79 16 149q53 238 209 379q157 139 379 139q206 0 324 -112t118 -314
q0 -99 -26 -194zM670 899q-114 0 -199 -72q-87 -73 -125 -198h545q2 14 2 43q0 111 -59 169t-164 58z" />
    <glyph glyph-name="ecircumflex" unicode="&#xea;" horiz-adv-x="1193" 
d="M872 1190l-94 186l-172 -186h-241l309 309h233l178 -309h-213zM1096 463h-785q-4 -59 -4 -68q0 -108 62 -172q61 -63 170 -63q181 0 280 172l225 -21q-79 -169 -210 -255q-134 -87 -308 -87q-214 0 -331 125q-119 125 -119 322q0 79 16 149q53 238 209 379
q157 139 379 139q206 0 324 -112t118 -314q0 -99 -26 -194zM670 899q-114 0 -199 -72q-87 -73 -125 -198h545q2 14 2 43q0 111 -59 169t-164 58z" />
    <glyph glyph-name="edieresis" unicode="&#xeb;" horiz-adv-x="1193" 
d="M461 1458h239l-51 -233h-239zM897 1458h240l-52 -233h-239zM680 1083q206 0 324 -112t118 -314q0 -99 -26 -194h-785q-4 -59 -4 -68q0 -108 62 -172q61 -63 170 -63q181 0 280 172l225 -21q-79 -169 -210 -255q-134 -87 -308 -87q-214 0 -331 125q-119 125 -119 322
q0 79 16 149q53 238 209 379q157 139 379 139zM670 899q-114 0 -199 -72q-87 -73 -125 -198h545q2 14 2 43q0 111 -59 169t-164 58z" />
    <glyph glyph-name="igrave" unicode="&#xec;" horiz-adv-x="518" 
d="M483 1180h-159l-201 303h285zM266 0h-239l225 1057h240z" />
    <glyph glyph-name="iacute" unicode="&#xed;" horiz-adv-x="518" 
d="M410 1180h-181l138 303h307zM266 0h-239l225 1057h240z" />
    <glyph glyph-name="icircumflex" unicode="&#xee;" horiz-adv-x="518" 
d="M266 1190h-241l309 309h233l178 -309h-213l-94 186zM266 0h-239l225 1057h240z" />
    <glyph glyph-name="idieresis" unicode="&#xef;" horiz-adv-x="518" 
d="M309 1225h-239l51 233h239zM743 1225h-239l51 233h240zM266 0h-239l225 1057h240z" />
    <glyph glyph-name="eth" unicode="&#xf0;" horiz-adv-x="1179" 
d="M1079 1542l74 -147l-248 -129q209 -232 209 -537q0 -325 -168 -543q-170 -219 -463 -219q-192 0 -307 109q-117 108 -117 276q0 237 158 412q156 172 389 172q194 0 283 -113q-24 178 -176 336l-217 -139l-72 129l184 100q-68 50 -153 97l125 161q130 -67 223 -143z
M510 160q128 0 219 90q93 91 127 260l8 37q-4 88 -70 142t-169 54q-144 0 -234 -108q-92 -107 -92 -256q0 -101 55 -160t156 -59z" />
    <glyph glyph-name="ntilde" unicode="&#xf1;" horiz-adv-x="1200" 
d="M608 1350q-89 0 -119 -140h-184q69 340 307 340q80 0 166 -69q87 -70 125 -70q85 0 119 139h184q-73 -340 -309 -340q-69 0 -118 35q-42 30 -87 70q-40 35 -84 35zM799 1083q144 0 224 -77q81 -78 81 -211q0 -40 -10 -99l-150 -696h-239l139 662q10 49 10 75
q0 133 -147 133q-112 0 -196 -74q-86 -76 -116 -214l-123 -582h-239l223 1057h231l-32 -152q139 178 344 178z" />
    <glyph glyph-name="ograve" unicode="&#xf2;" horiz-adv-x="1220" 
d="M838 1180h-160l-201 303h285zM524 -31q-207 0 -328 121q-122 122 -122 324q0 77 14 133q45 239 213 389q162 147 399 147q206 0 326 -119q121 -120 121 -321q0 -61 -12 -133q-51 -257 -211 -399t-400 -142zM541 162q139 0 235 99q97 100 125 269q10 63 10 99
q0 124 -60 193t-173 69q-136 0 -232 -99q-97 -100 -127 -266q-10 -64 -10 -106q0 -122 61 -191q60 -67 171 -67z" />
    <glyph glyph-name="oacute" unicode="&#xf3;" horiz-adv-x="1220" 
d="M764 1180h-180l137 303h307zM524 -31q-207 0 -328 121q-122 122 -122 324q0 77 14 133q45 239 213 389q162 147 399 147q206 0 326 -119q121 -120 121 -321q0 -61 -12 -133q-51 -257 -211 -399t-400 -142zM541 162q139 0 235 99q97 100 125 269q10 63 10 99
q0 124 -60 193t-173 69q-136 0 -232 -99q-97 -100 -127 -266q-10 -64 -10 -106q0 -122 61 -191q60 -67 171 -67z" />
    <glyph glyph-name="ocircumflex" unicode="&#xf4;" horiz-adv-x="1220" 
d="M621 1190h-242l309 309h234l178 -309h-213l-94 186zM524 -31q-207 0 -328 121q-122 122 -122 324q0 77 14 133q45 239 213 389q162 147 399 147q206 0 326 -119q121 -120 121 -321q0 -61 -12 -133q-51 -257 -211 -399t-400 -142zM541 162q139 0 235 99q97 100 125 269
q10 63 10 99q0 124 -60 193t-173 69q-136 0 -232 -99q-97 -100 -127 -266q-10 -64 -10 -106q0 -122 61 -191q60 -67 171 -67z" />
    <glyph glyph-name="otilde" unicode="&#xf5;" horiz-adv-x="1220" 
d="M496 1210h-185q69 340 308 340q64 0 116 -34q49 -32 95 -70q43 -35 79 -35q85 0 119 139h184q-73 -340 -309 -340q-69 0 -118 35q-42 30 -87 70q-40 35 -84 35q-88 0 -118 -140zM524 -31q-207 0 -328 121q-122 122 -122 324q0 77 14 133q45 239 213 389q162 147 399 147
q206 0 326 -119q121 -120 121 -321q0 -61 -12 -133q-51 -257 -211 -399t-400 -142zM541 162q139 0 235 99q97 100 125 269q10 63 10 99q0 124 -60 193t-173 69q-136 0 -232 -99q-97 -100 -127 -266q-10 -64 -10 -106q0 -122 61 -191q60 -67 171 -67z" />
    <glyph glyph-name="odieresis" unicode="&#xf6;" horiz-adv-x="1220" 
d="M664 1225h-240l51 233h240zM1100 1225h-240l51 233h240zM524 -31q-207 0 -328 121q-122 122 -122 324q0 77 14 133q45 239 213 389q162 147 399 147q206 0 326 -119q121 -120 121 -321q0 -61 -12 -133q-51 -257 -211 -399t-400 -142zM541 162q139 0 235 99
q97 100 125 269q10 63 10 99q0 124 -60 193t-173 69q-136 0 -232 -99q-97 -100 -127 -266q-10 -64 -10 -106q0 -122 61 -191q60 -67 171 -67z" />
    <glyph glyph-name="divide" unicode="&#xf7;" 
d="M817 909h-258v262h258v-262zM1276 522h-1178v217h1178v-217zM817 90h-258v262h258v-262z" />
    <glyph glyph-name="oslash" unicode="&#xf8;" horiz-adv-x="1220" 
d="M1130 1090l95 -97l-131 -121q53 -103 53 -229q0 -61 -12 -133q-51 -257 -211 -399t-400 -142q-184 0 -301 99l-112 -105l-95 96l119 111q-61 107 -61 244q0 77 14 133q45 239 213 389q162 147 399 147q190 0 310 -104zM309 420q0 -50 8 -82l529 489q-58 64 -168 64
q-136 0 -232 -99q-97 -100 -127 -266q-10 -64 -10 -106zM911 629q0 35 -6 69l-522 -483q61 -53 158 -53q139 0 235 99q97 100 125 269q10 63 10 99z" />
    <glyph glyph-name="ugrave" unicode="&#xf9;" horiz-adv-x="1200" 
d="M727 1483l76 -303h-160l-201 303h285zM805 475l123 582h239l-223 -1057h-231l32 152q-140 -179 -344 -179q-143 0 -224 78t-81 211q0 39 10 98l150 697h240l-142 -662q-8 -37 -8 -76q0 -133 148 -133q110 0 195 75q86 76 116 214z" />
    <glyph glyph-name="uacute" unicode="&#xfa;" horiz-adv-x="1200" 
d="M686 1483h307l-264 -303h-180zM805 475l123 582h239l-223 -1057h-231l32 152q-140 -179 -344 -179q-143 0 -224 78t-81 211q0 39 10 98l150 697h240l-142 -662q-8 -37 -8 -76q0 -133 148 -133q110 0 195 75q86 76 116 214z" />
    <glyph glyph-name="ucircumflex" unicode="&#xfb;" horiz-adv-x="1200" 
d="M852 1190l-94 186l-172 -186h-242l309 309h234l178 -309h-213zM805 475l123 582h239l-223 -1057h-231l32 152q-140 -179 -344 -179q-143 0 -224 78t-81 211q0 39 10 98l150 697h240l-142 -662q-8 -37 -8 -76q0 -133 148 -133q110 0 195 75q86 76 116 214z" />
    <glyph glyph-name="udieresis" unicode="&#xfc;" horiz-adv-x="1200" 
d="M440 1458h240l-51 -233h-240zM877 1458h239l-51 -233h-240zM805 475l123 582h239l-223 -1057h-231l32 152q-140 -179 -344 -179q-143 0 -224 78t-81 211q0 39 10 98l150 697h240l-142 -662q-8 -37 -8 -76q0 -133 148 -133q110 0 195 75q86 76 116 214z" />
    <glyph glyph-name="yacute" unicode="&#xfd;" horiz-adv-x="1116" 
d="M645 1483h307l-264 -303h-180zM479 266l426 791h262l-712 -1245q-77 -132 -150 -181t-194 -49h-191l45 203h119q66 0 105 25q38 24 77 92l51 88l-190 1067h244l100 -660z" />
    <glyph glyph-name="thorn" unicode="&#xfe;" horiz-adv-x="1228" 
d="M782 1081q170 0 272 -111q101 -110 101 -304q0 -273 -151 -484q-153 -211 -392 -211q-214 0 -309 174l-119 -563h-239l397 1876h240l-107 -508q125 131 307 131zM586 178q150 0 241 141q91 146 91 324q0 110 -56 172t-153 62q-154 0 -250 -138q-94 -136 -94 -313
q0 -117 59 -182q60 -66 162 -66z" />
    <glyph glyph-name="ydieresis" unicode="&#xff;" horiz-adv-x="1116" 
d="M399 1458h240l-51 -233h-240zM836 1458h239l-51 -233h-240zM479 266l426 791h262l-712 -1245q-77 -132 -150 -181t-194 -49h-191l45 203h119q66 0 105 25q38 24 77 92l51 88l-190 1067h244l100 -660z" />
    <glyph glyph-name="Amacron" unicode="&#x100;" horiz-adv-x="1478" 
d="M639 1649l39 180h700l-39 -180h-700zM-47 0l848 1458h289l221 -1458h-254l-51 365h-572l-205 -365h-276zM754 936l-203 -363h426l-49 363l-27 285z" />
    <glyph glyph-name="amacron" unicode="&#x101;" horiz-adv-x="1153" 
d="M373 1247l39 180h700l-39 -180h-700zM678 1083q188 0 286 -70q99 -71 99 -200q0 -31 -12 -94l-103 -475q-18 -82 -18 -156q0 -50 12 -88h-227v129q-134 -158 -363 -158q-148 0 -236 75q-89 75 -89 202q0 149 107 240q109 92 304 122l330 49q19 1 39 13l12 63q6 39 6 49
q0 121 -178 121q-102 0 -160 -38t-88 -128l-223 9q90 335 502 335zM446 152q106 0 186 59q80 60 109 156l29 139l-16 -4l-285 -47q-199 -33 -199 -174q0 -129 176 -129z" />
    <glyph glyph-name="Abreve" unicode="&#x102;" horiz-adv-x="1478" 
d="M991 1583q-305 0 -305 225q0 38 6 82h150q-2 -10 -2 -32q0 -117 166 -117q190 0 227 149h153q-39 -156 -131 -232q-91 -75 -264 -75zM-47 0l848 1458h289l221 -1458h-254l-51 365h-572l-205 -365h-276zM754 936l-203 -363h426l-49 363l-27 285z" />
    <glyph glyph-name="abreve" unicode="&#x103;" horiz-adv-x="1153" 
d="M727 1182q-305 0 -305 225q0 45 8 82h148q-3 -15 -3 -35q0 -117 164 -117q192 0 230 152h153q-39 -158 -131 -233q-90 -74 -264 -74zM678 1083q188 0 286 -70q99 -71 99 -200q0 -31 -12 -94l-103 -475q-18 -82 -18 -156q0 -50 12 -88h-227v129q-134 -158 -363 -158
q-148 0 -236 75q-89 75 -89 202q0 149 107 240q109 92 304 122l330 49q19 1 39 13l12 63q6 39 6 49q0 121 -178 121q-102 0 -160 -38t-88 -128l-223 9q90 335 502 335zM446 152q106 0 186 59q80 60 109 156l29 139l-16 -4l-285 -47q-199 -33 -199 -174q0 -129 176 -129z" />
    <glyph glyph-name="Aogonek" unicode="&#x104;" horiz-adv-x="1478" 
d="M1071 -211q0 -65 88 -65h80l-33 -156h-143q-105 0 -163 45t-58 119q0 73 44 123q43 49 150 106l70 39h-49l-51 365h-572l-205 -365h-276l848 1458h289l221 -1458l-140 -92q-57 -38 -78 -63q-22 -27 -22 -56zM754 936l-203 -363h426l-49 363l-27 285z" />
    <glyph glyph-name="aogonek" unicode="&#x105;" horiz-adv-x="1153" 
d="M678 1083q188 0 286 -70q99 -71 99 -200q0 -31 -12 -94l-103 -475q-18 -82 -18 -156q0 -50 12 -88h-2l-139 -92q-59 -39 -79 -63q-22 -27 -22 -56q0 -65 88 -65h80l-32 -156h-144q-104 0 -163 45q-58 45 -58 119q0 73 44 123q42 48 151 106l49 27v141
q-134 -158 -363 -158q-148 0 -236 75q-89 75 -89 202q0 149 107 240q109 92 304 122l330 49q19 1 39 13l12 63q6 39 6 49q0 121 -178 121q-102 0 -160 -38t-88 -128l-223 9q90 335 502 335zM446 152q106 0 186 59q80 60 109 156l29 139l-16 -4l-285 -47q-199 -33 -199 -174
q0 -129 176 -129z" />
    <glyph glyph-name="Cacute" unicode="&#x106;" horiz-adv-x="1466" 
d="M965 1593h-181l138 303h307zM694 -41q-261 0 -413 164q-150 162 -150 434q0 95 25 207q72 339 284 530q213 195 508 195q226 0 377 -121q150 -123 150 -373h-238q-5 130 -85 203q-82 74 -220 74q-197 0 -339 -142q-141 -141 -192 -387q-20 -84 -20 -178q0 -183 86 -286
t246 -103q151 0 264 86q112 85 168 242h241q-72 -256 -256 -400q-188 -145 -436 -145z" />
    <glyph glyph-name="cacute" unicode="&#x107;" horiz-adv-x="1134" 
d="M733 1180h-180l137 303h307zM827 74q-139 -105 -331 -105q-193 0 -308 115q-116 112 -116 313q0 84 14 146q50 253 208 396q159 144 382 144q200 0 308 -102t108 -283h-232q-2 193 -203 193q-125 0 -216 -98q-92 -100 -122 -271q-12 -63 -12 -119q0 -115 53 -179
q52 -62 152 -62q194 0 279 205h235q-61 -190 -199 -293z" />
    <glyph glyph-name="Ccircumflex" unicode="&#x108;" horiz-adv-x="1466" 
d="M823 1604h-241l309 309h233l179 -309h-213l-95 186zM694 -41q-261 0 -413 164q-150 162 -150 434q0 95 25 207q72 339 284 530q213 195 508 195q226 0 377 -121q150 -123 150 -373h-238q-5 130 -85 203q-82 74 -220 74q-197 0 -339 -142q-141 -141 -192 -387
q-20 -84 -20 -178q0 -183 86 -286t246 -103q151 0 264 86q112 85 168 242h241q-72 -256 -256 -400q-188 -145 -436 -145z" />
    <glyph glyph-name="ccircumflex" unicode="&#x109;" horiz-adv-x="1134" 
d="M592 1190h-242l309 309h234l178 -309h-213l-94 186zM827 74q-139 -105 -331 -105q-193 0 -308 115q-116 112 -116 313q0 84 14 146q50 253 208 396q159 144 382 144q200 0 308 -102t108 -283h-232q-2 193 -203 193q-125 0 -216 -98q-92 -100 -122 -271q-12 -63 -12 -119
q0 -115 53 -179q52 -62 152 -62q194 0 279 205h235q-61 -190 -199 -293z" />
    <glyph glyph-name="Cdotaccent" unicode="&#x10a;" horiz-adv-x="1466" 
d="M1083 1638h-239l49 234h240zM694 -41q-261 0 -413 164q-150 162 -150 434q0 95 25 207q72 339 284 530q213 195 508 195q226 0 377 -121q150 -123 150 -373h-238q-5 130 -85 203q-82 74 -220 74q-197 0 -339 -142q-141 -141 -192 -387q-20 -84 -20 -178q0 -183 86 -286
t246 -103q151 0 264 86q112 85 168 242h241q-72 -256 -256 -400q-188 -145 -436 -145z" />
    <glyph glyph-name="cdotaccent" unicode="&#x10b;" horiz-adv-x="1134" 
d="M852 1225h-240l50 233h239zM827 74q-139 -105 -331 -105q-193 0 -308 115q-116 112 -116 313q0 84 14 146q50 253 208 396q159 144 382 144q200 0 308 -102t108 -283h-232q-2 193 -203 193q-125 0 -216 -98q-92 -100 -122 -271q-12 -63 -12 -119q0 -115 53 -179
q52 -62 152 -62q194 0 279 205h235q-61 -190 -199 -293z" />
    <glyph glyph-name="Ccaron" unicode="&#x10c;" horiz-adv-x="1466" 
d="M1063 1593h-234l-178 310h215l92 -187l172 187h242zM694 -41q-261 0 -413 164q-150 162 -150 434q0 95 25 207q72 339 284 530q213 195 508 195q226 0 377 -121q150 -123 150 -373h-238q-5 130 -85 203q-82 74 -220 74q-197 0 -339 -142q-141 -141 -192 -387
q-20 -84 -20 -178q0 -183 86 -286t246 -103q151 0 264 86q112 85 168 242h241q-72 -256 -256 -400q-188 -145 -436 -145z" />
    <glyph glyph-name="ccaron" unicode="&#x10d;" horiz-adv-x="1134" 
d="M831 1180h-231l-178 309h213l92 -186l174 186h240zM827 74q-139 -105 -331 -105q-193 0 -308 115q-116 112 -116 313q0 84 14 146q50 253 208 396q159 144 382 144q200 0 308 -102t108 -283h-232q-2 193 -203 193q-125 0 -216 -98q-92 -100 -122 -271q-12 -63 -12 -119
q0 -115 53 -179q52 -62 152 -62q194 0 279 205h235q-61 -190 -199 -293z" />
    <glyph glyph-name="Dcaron" unicode="&#x10e;" horiz-adv-x="1468" 
d="M1329 1890l-309 -309h-234l-178 309h215l92 -186l172 186h242zM373 1458h501q276 0 417 -140q143 -141 143 -400q0 -89 -23 -216q-137 -702 -799 -702h-551zM1161 729q21 96 21 193q0 170 -88 249q-89 80 -277 80h-242l-221 -1040h258q231 0 364 125t185 393z" />
    <glyph glyph-name="dcaron" unicode="&#x10f;" horiz-adv-x="1615" 
d="M922 905l118 553h240l-311 -1458h-211l24 141q-134 -170 -338 -170q-168 0 -270 114t-102 306q0 65 16 154q46 245 188 391q141 145 338 145q216 0 308 -176zM1358 1032l190 426h267l-273 -426h-184zM518 176q120 0 212 93q92 94 122 255q10 64 10 107q0 117 -59 182
q-60 66 -162 66q-121 0 -207 -97q-87 -98 -117 -264q-8 -50 -8 -104q0 -110 56 -174t153 -64z" />
    <glyph glyph-name="Dcroat" unicode="&#x110;" horiz-adv-x="1617" 
d="M522 1458h502q273 0 415 -142t142 -398q0 -94 -22 -216q-137 -702 -797 -702h-551l137 643l-270 -10l45 209l266 -11zM1309 729q22 116 22 193q0 170 -88 249q-89 80 -276 80h-242l-88 -420l346 11l-45 -209l-342 10l-92 -432h258q231 0 363 126q133 127 184 392z" />
    <glyph glyph-name="dslash" unicode="&#x111;" horiz-adv-x="1486" 
d="M1264 1384l209 7l-41 -187l-205 6l-258 -1210h-211l24 141q-134 -170 -338 -170q-168 0 -270 114t-102 306q0 65 16 154q46 245 188 391q141 145 338 145q216 0 308 -176l65 305l-285 -6l41 187l281 -7l20 95h240zM518 176q120 0 212 93q92 94 122 255q10 64 10 107
q0 117 -59 182q-60 66 -162 66q-121 0 -207 -97q-87 -98 -117 -264q-8 -50 -8 -104q0 -110 56 -174t153 -64z" />
    <glyph glyph-name="Emacron" unicode="&#x112;" horiz-adv-x="1347" 
d="M631 1829h700l-39 -180h-700zM1419 1458l-47 -211h-797l-81 -387h727l-45 -213h-730l-92 -436h820l-46 -211h-1067l312 1458h1046z" />
    <glyph glyph-name="emacron" unicode="&#x113;" horiz-adv-x="1193" 
d="M440 1427h701l-39 -180h-701zM680 1083q206 0 324 -112t118 -314q0 -99 -26 -194h-785q-4 -59 -4 -68q0 -108 62 -172q61 -63 170 -63q181 0 280 172l225 -21q-79 -169 -210 -255q-134 -87 -308 -87q-214 0 -331 125q-119 125 -119 322q0 79 16 149q53 238 209 379
q157 139 379 139zM670 899q-114 0 -199 -72q-87 -73 -125 -198h545q2 14 2 43q0 111 -59 169t-164 58z" />
    <glyph glyph-name="Ebreve" unicode="&#x114;" horiz-adv-x="1347" 
d="M944 1583q-305 0 -305 225q0 38 6 82h150q-2 -10 -2 -32q0 -117 165 -117q191 0 228 149h153q-39 -156 -131 -232q-92 -75 -264 -75zM1419 1458l-47 -211h-797l-81 -387h727l-45 -213h-730l-92 -436h820l-46 -211h-1067l312 1458h1046z" />
    <glyph glyph-name="ebreve" unicode="&#x115;" horiz-adv-x="1193" 
d="M756 1182q-305 0 -305 225q0 45 8 82h147q-2 -10 -2 -35q0 -117 164 -117q191 0 229 152h154q-39 -158 -131 -233q-90 -74 -264 -74zM680 1083q206 0 324 -112t118 -314q0 -99 -26 -194h-785q-4 -59 -4 -68q0 -108 62 -172q61 -63 170 -63q181 0 280 172l225 -21
q-79 -169 -210 -255q-134 -87 -308 -87q-214 0 -331 125q-119 125 -119 322q0 79 16 149q53 238 209 379q157 139 379 139zM670 899q-114 0 -199 -72q-87 -73 -125 -198h545q2 14 2 43q0 111 -59 169t-164 58z" />
    <glyph glyph-name="Edotaccent" unicode="&#x116;" horiz-adv-x="1347" 
d="M866 1860h240l-49 -234h-240zM1419 1458l-47 -211h-797l-81 -387h727l-45 -213h-730l-92 -436h820l-46 -211h-1067l312 1458h1046z" />
    <glyph glyph-name="edotaccent" unicode="&#x117;" horiz-adv-x="1193" 
d="M678 1458h240l-50 -233h-239zM1096 463h-785q-4 -59 -4 -68q0 -108 62 -172q61 -63 170 -63q181 0 280 172l225 -21q-79 -169 -210 -255q-134 -87 -308 -87q-214 0 -331 125q-119 125 -119 322q0 79 16 149q53 238 209 379q157 139 379 139q206 0 324 -112t118 -314
q0 -99 -26 -194zM670 899q-114 0 -199 -72q-87 -73 -125 -198h545q2 14 2 43q0 111 -59 169t-164 58z" />
    <glyph glyph-name="Eogonek" unicode="&#x118;" horiz-adv-x="1347" 
d="M1419 1458l-47 -211h-797l-81 -387h727l-45 -213h-730l-92 -436h820l-46 -211l-139 -92q-59 -39 -79 -63q-21 -26 -21 -56q0 -65 88 -65h80l-33 -156h-143q-105 0 -163 45q-59 45 -59 119q0 73 44 123q42 48 151 106l70 39h-863l312 1458h1046z" />
    <glyph glyph-name="eogonek" unicode="&#x119;" horiz-adv-x="1193" 
d="M1096 463h-785q-4 -59 -4 -68q0 -108 62 -172q61 -63 170 -63q181 0 280 172l225 -21q-106 -222 -299 -301l-127 -84q-59 -39 -78 -62q-22 -27 -22 -57q0 -65 88 -65h80l-33 -156h-143q-104 0 -163 45q-58 45 -58 119q0 72 42 121q41 49 138 100q-186 18 -290 139
q-103 119 -103 306q0 79 16 149q53 238 209 379q157 139 379 139q206 0 324 -112t118 -314q0 -99 -26 -194zM670 899q-114 0 -199 -72q-87 -73 -125 -198h545q2 14 2 43q0 111 -59 169t-164 58z" />
    <glyph glyph-name="Ecaron" unicode="&#x11a;" horiz-adv-x="1347" 
d="M1346 1890l-310 -309h-233l-178 309h215l92 -186l172 186h242zM1419 1458l-47 -211h-797l-81 -387h727l-45 -213h-730l-92 -436h820l-46 -211h-1067l312 1458h1046z" />
    <glyph glyph-name="ecaron" unicode="&#x11b;" horiz-adv-x="1193" 
d="M1155 1489l-309 -309h-232l-178 309h213l92 -186l174 186h240zM680 1083q206 0 324 -112t118 -314q0 -99 -26 -194h-785q-4 -59 -4 -68q0 -108 62 -172q61 -63 170 -63q181 0 280 172l225 -21q-79 -169 -210 -255q-134 -87 -308 -87q-214 0 -331 125q-119 125 -119 322
q0 79 16 149q53 238 209 379q157 139 379 139zM670 899q-114 0 -199 -72q-87 -73 -125 -198h545q2 14 2 43q0 111 -59 169t-164 58z" />
    <glyph glyph-name="Gcircumflex" unicode="&#x11c;" horiz-adv-x="1609" 
d="M1120 1608l-94 186l-172 -186h-242l310 309h233l178 -309h-213zM872 784h553l-4 -12l70 12l-168 -784h-168l-6 164q-174 -197 -461 -197q-247 0 -401 160q-156 157 -156 428q0 96 25 207q69 336 295 534q223 195 524 195q252 0 400 -128q147 -128 147 -353l-244 -11
q0 134 -82 204q-83 71 -231 71q-210 0 -363 -148q-152 -147 -203 -395q-18 -96 -18 -172q0 -180 91 -281q92 -102 261 -102q168 0 294 98q130 101 192 277l4 22h-396z" />
    <glyph glyph-name="gcircumflex" unicode="&#x11d;" horiz-adv-x="1224" 
d="M883 1190l-95 186l-172 -186h-241l309 309h234l178 -309h-213zM942 887l41 170h211l-221 -1047q-50 -234 -182 -343q-133 -109 -367 -109q-213 0 -326 83q-112 82 -112 246l225 4q4 -151 221 -151q252 0 303 246l33 151q-135 -147 -317 -147q-172 0 -274 112
q-101 111 -101 301q0 273 153 476q151 202 394 202q111 0 193 -52q83 -53 126 -142zM518 195q158 0 254 135q96 137 96 313q0 115 -57 178q-58 64 -158 64q-151 0 -247 -140q-95 -140 -95 -325q0 -105 55 -166q53 -59 152 -59z" />
    <glyph glyph-name="Gbreve" unicode="&#x11e;" horiz-adv-x="1609" 
d="M1004 1599q-306 0 -306 226q0 31 7 82h149q-2 -10 -2 -33q0 -117 166 -117q190 0 227 150h154q-39 -158 -131 -233t-264 -75zM872 784h553l-4 -12l70 12l-168 -784h-168l-6 164q-174 -197 -461 -197q-247 0 -401 160q-156 157 -156 428q0 96 25 207q69 336 295 534
q223 195 524 195q252 0 400 -128q147 -128 147 -353l-244 -11q0 134 -82 204q-83 71 -231 71q-210 0 -363 -148q-152 -147 -203 -395q-18 -96 -18 -172q0 -180 91 -281q92 -102 261 -102q168 0 294 98q130 101 192 277l4 22h-396z" />
    <glyph glyph-name="gbreve" unicode="&#x11f;" horiz-adv-x="1224" 
d="M766 1182q-305 0 -305 225q0 45 8 82h147q-2 -10 -2 -35q0 -117 164 -117q192 0 230 152h153q-39 -158 -131 -233q-90 -74 -264 -74zM942 887l41 170h211l-221 -1047q-50 -234 -182 -343q-133 -109 -367 -109q-213 0 -326 83q-112 82 -112 246l225 4q4 -151 221 -151
q252 0 303 246l33 151q-135 -147 -317 -147q-172 0 -274 112q-101 111 -101 301q0 273 153 476q151 202 394 202q111 0 193 -52q83 -53 126 -142zM518 195q158 0 254 135q96 137 96 313q0 115 -57 178q-58 64 -158 64q-151 0 -247 -140q-95 -140 -95 -325q0 -105 55 -166
q53 -59 152 -59z" />
    <glyph glyph-name="Gdotaccent" unicode="&#x120;" horiz-adv-x="1609" 
d="M926 1876h239l-49 -234h-239zM872 784h553l-4 -12l70 12l-168 -784h-168l-6 164q-174 -197 -461 -197q-247 0 -401 160q-156 157 -156 428q0 96 25 207q69 336 295 534q223 195 524 195q252 0 400 -128q147 -128 147 -353l-244 -11q0 134 -82 204q-83 71 -231 71
q-210 0 -363 -148q-152 -147 -203 -395q-18 -96 -18 -172q0 -180 91 -281q92 -102 261 -102q168 0 294 98q130 101 192 277l4 22h-396z" />
    <glyph glyph-name="gdotaccent" unicode="&#x121;" horiz-adv-x="1224" 
d="M688 1458h240l-49 -233h-240zM942 887l41 170h211l-221 -1047q-50 -234 -182 -343q-133 -109 -367 -109q-213 0 -326 83q-112 82 -112 246l225 4q4 -151 221 -151q252 0 303 246l33 151q-135 -147 -317 -147q-172 0 -274 112q-101 111 -101 301q0 273 153 476
q151 202 394 202q111 0 193 -52q83 -53 126 -142zM518 195q158 0 254 135q96 137 96 313q0 115 -57 178q-58 64 -158 64q-151 0 -247 -140q-95 -140 -95 -325q0 -105 55 -166q53 -59 152 -59z" />
    <glyph glyph-name="uni0122" unicode="&#x122;" horiz-adv-x="1609" 
d="M872 784h553l-4 -12l70 12l-168 -784h-168l-6 164q-174 -197 -461 -197q-247 0 -401 160q-156 157 -156 428q0 96 25 207q69 336 295 534q223 195 524 195q252 0 400 -128q147 -128 147 -353l-244 -11q0 134 -82 204q-83 71 -231 71q-210 0 -363 -148
q-152 -147 -203 -395q-18 -96 -18 -172q0 -180 91 -281q92 -102 261 -102q168 0 294 98q130 101 192 277l4 22h-396zM662 -317l-177 -13l39 185h277l-58 -267q-34 -166 -221 -166h-88l21 95h86q47 0 70 17q25 19 32 60z" />
    <glyph glyph-name="uni0123" unicode="&#x123;" horiz-adv-x="1224" 
d="M762 1397l174 12l-39 -184h-274l49 229q35 164 221 164h88l-20 -92h-89q-46 0 -69 -18q-24 -19 -31 -60zM942 887l41 170h211l-221 -1047q-50 -234 -182 -343q-133 -109 -367 -109q-213 0 -326 83q-112 82 -112 246l225 4q4 -151 221 -151q252 0 303 246l33 151
q-135 -147 -317 -147q-172 0 -274 112q-101 111 -101 301q0 273 153 476q151 202 394 202q111 0 193 -52q83 -53 126 -142zM518 195q158 0 254 135q96 137 96 313q0 115 -57 178q-58 64 -158 64q-151 0 -247 -140q-95 -140 -95 -325q0 -105 55 -166q53 -59 152 -59z" />
    <glyph glyph-name="Hcircumflex" unicode="&#x124;" horiz-adv-x="1511" 
d="M1116 1591l-94 187l-172 -187h-242l310 310h233l178 -310h-213zM1163 877l125 581h250l-311 -1458h-250l141 657h-667l-142 -657h-248l312 1458h248l-125 -581h667z" />
    <glyph glyph-name="hcircumflex" unicode="&#x125;" horiz-adv-x="1200" 
d="M623 1591l-95 187l-172 -187h-241l309 310h233l179 -310h-213zM799 1083q144 0 224 -77q81 -78 81 -211q0 -36 -10 -99l-150 -696h-239l139 662q10 49 10 75q0 133 -147 133q-107 0 -190 -69q-84 -70 -118 -197l-129 -604h-239l311 1458h240l-115 -536q130 161 332 161z
" />
    <glyph glyph-name="Hbar" unicode="&#x126;" horiz-adv-x="1511" 
d="M1245 1255l43 203h250l-311 -1458h-250l131 612h-668l-131 -612h-248l312 1458h248l-43 -203h667zM530 1038l-45 -209h668l45 209h-668z" />
    <glyph glyph-name="hbar" unicode="&#x127;" horiz-adv-x="1261" 
d="M858 1083q146 0 226 -76q81 -77 81 -212q0 -47 -12 -99l-147 -696h-240l139 662q10 49 10 75q0 133 -147 133q-106 0 -188 -67q-81 -66 -119 -195l-129 -608h-240l254 1192l-186 -6l39 180l184 -6l20 98h240l-20 -100l288 8l-39 -180l-286 8l-58 -272q130 161 330 161z
" />
    <glyph glyph-name="Itilde" unicode="&#x128;" horiz-adv-x="595" 
d="M266 1612h-184q69 340 307 340q64 0 117 -35q49 -32 95 -70q43 -35 79 -35q84 0 119 140h184q-73 -340 -309 -340q-69 0 -118 35q-48 35 -87 69q-40 35 -84 35q-89 0 -119 -139zM309 0h-248l312 1458h248z" />
    <glyph glyph-name="itilde" unicode="&#x129;" horiz-adv-x="518" 
d="M141 1210h-184q69 340 307 340q80 0 166 -69q87 -70 125 -70q85 0 119 139h184q-73 -340 -309 -340q-69 0 -118 35q-42 30 -87 70q-40 35 -84 35q-89 0 -119 -140zM266 0h-239l225 1057h240z" />
    <glyph glyph-name="Imacron" unicode="&#x12a;" horiz-adv-x="595" 
d="M889 1649h-701l39 180h701zM309 0h-248l312 1458h248z" />
    <glyph glyph-name="imacron" unicode="&#x12b;" horiz-adv-x="518" 
d="M762 1247h-701l39 180h701zM266 0h-239l225 1057h240z" />
    <glyph glyph-name="Ibreve" unicode="&#x12c;" horiz-adv-x="595" 
d="M541 1583q-305 0 -305 225q0 38 6 82h149q-2 -10 -2 -32q0 -117 166 -117q190 0 227 149h154q-39 -156 -131 -232q-91 -75 -264 -75zM309 0h-248l312 1458h248z" />
    <glyph glyph-name="ibreve" unicode="&#x12d;" horiz-adv-x="518" 
d="M416 1182q-305 0 -305 225q0 45 8 82h147q-2 -10 -2 -35q0 -117 164 -117q191 0 229 152h154q-39 -158 -131 -233q-90 -74 -264 -74zM266 0h-239l225 1057h240z" />
    <glyph glyph-name="Iogonek" unicode="&#x12e;" horiz-adv-x="595" 
d="M309 0l-166 -143q-39 -33 -39 -70q0 -63 80 -63h70l-35 -156h-131q-100 0 -158 44q-57 44 -57 120q0 101 104 174l138 94h-54l312 1458h248z" />
    <glyph glyph-name="iogonek" unicode="&#x12f;" horiz-adv-x="518" 
d="M287 1225l51 233h240l-52 -233h-239zM72 0h-45l225 1057h240l-226 -1057l-166 -143q-41 -35 -41 -70q0 -28 23 -46q21 -17 59 -17h68l-33 -156h-131q-100 0 -158 44q-57 44 -57 120q0 101 104 174z" />
    <glyph glyph-name="Idot" unicode="&#x130;" horiz-adv-x="595" 
d="M649 1618h-239l51 233h239zM309 0h-248l312 1458h248z" />
    <glyph glyph-name="dotlessi" unicode="&#x131;" horiz-adv-x="518" 
d="M266 0h-239l225 1057h240z" />
    <glyph glyph-name="IJ" unicode="&#x132;" horiz-adv-x="1751" 
d="M309 0h-248l312 1458h248zM1053 -29q-186 0 -296 89t-110 247q0 70 37 215h240q-35 -148 -35 -194q0 -140 174 -140q195 0 242 220l223 1050h248l-224 -1052q-90 -435 -499 -435z" />
    <glyph glyph-name="ij" unicode="&#x133;" horiz-adv-x="1034" 
d="M526 1225h-239l51 233h240zM1044 1225h-239l49 233h240zM266 0h-239l225 1057h240zM420 -418h-141l43 207h61q65 0 97 24q32 25 44 85l246 1159h240l-248 -1168q-37 -169 -111 -238q-73 -69 -231 -69z" />
    <glyph glyph-name="Jcircumflex" unicode="&#x134;" horiz-adv-x="1171" 
d="M967 1591h-242l309 310h234l178 -310h-213l-94 187zM473 -29q-186 0 -296 89q-109 88 -109 247q0 74 36 215h240q-35 -148 -35 -194q0 -140 174 -140q195 0 242 220l223 1050h248l-223 -1052q-90 -435 -500 -435z" />
    <glyph glyph-name="jcircumflex" unicode="&#x135;" horiz-adv-x="518" 
d="M264 1190h-241l309 309h233l178 -309h-213l-94 186zM-98 -418h-142l43 207h62q65 0 97 24q32 25 44 85l246 1159h240l-248 -1168q-37 -169 -111 -238q-73 -69 -231 -69z" />
    <glyph glyph-name="uni0136" unicode="&#x136;" horiz-adv-x="1460" 
d="M1227 1458h342l-715 -602l459 -856h-289l-373 707l-231 -187l-111 -520h-248l312 1458h248l-136 -633zM645 -301l-176 -12l39 184h274l-55 -266q-37 -166 -221 -166h-88l20 94h86q49 0 70 17q24 19 31 61z" />
    <glyph glyph-name="uni0137" unicode="&#x137;" horiz-adv-x="1163" 
d="M897 1057h311l-514 -420l307 -637h-260l-233 506l-156 -127l-82 -379h-239l311 1458h240l-172 -809zM473 -301l-176 -12l39 184h274l-55 -266q-37 -166 -221 -166h-88l20 94h86q49 0 70 17q24 19 31 61z" />
    <glyph glyph-name="kgreenlandic" unicode="&#x138;" horiz-adv-x="1163" 
d="M897 1057h311l-514 -420l307 -637h-260l-233 506l-158 -127l-80 -379h-239l225 1057h240l-86 -408z" />
    <glyph glyph-name="Lacute" unicode="&#x139;" horiz-adv-x="1218" 
d="M514 1884h307l-264 -303h-180zM621 1458l-265 -1239h736l-48 -219h-983l312 1458h248z" />
    <glyph glyph-name="lacute" unicode="&#x13a;" horiz-adv-x="526" 
d="M500 1581h-181l138 303h307zM270 0h-239l311 1458h240z" />
    <glyph glyph-name="uni013B" unicode="&#x13b;" horiz-adv-x="1218" 
d="M621 1458l-265 -1239h736l-48 -219h-983l312 1458h248zM553 -301l-176 -12l39 184h274l-55 -266q-37 -166 -221 -166h-88l20 94h86q49 0 70 17q23 18 30 61z" />
    <glyph glyph-name="uni013C" unicode="&#x13c;" horiz-adv-x="526" 
d="M270 0h-239l311 1458h240zM-14 -561h-88l20 94h86q49 0 70 17q23 18 30 61l21 88l-176 -12l39 184h274l-55 -266q-37 -166 -221 -166z" />
    <glyph glyph-name="Lcaron" unicode="&#x13d;" horiz-adv-x="1218" 
d="M373 1458h248l-265 -1239h736l-48 -219h-983zM934 1458h268l-274 -426h-183z" />
    <glyph glyph-name="lcaron" unicode="&#x13e;" horiz-adv-x="909" 
d="M270 0h-239l311 1458h240zM836 1032h-185l191 426h266z" />
    <glyph glyph-name="Ldot" unicode="&#x13f;" horiz-adv-x="1218" 
d="M621 1458l-265 -1239h736l-48 -219h-983l312 1458h248zM762 924h262l-55 -258h-262z" />
    <glyph glyph-name="ldot" unicode="&#x140;" horiz-adv-x="815" 
d="M270 0h-239l311 1458h240zM788 602h-262l56 258h262z" />
    <glyph glyph-name="Lslash" unicode="&#x141;" horiz-adv-x="1447" 
d="M1278 911l-596 -235l-96 -457h735l-49 -219h-981l121 567l-381 -157l92 215l328 127l151 706h248l-127 -598l649 266z" />
    <glyph glyph-name="lslash" unicode="&#x142;" horiz-adv-x="884" 
d="M653 934l265 135l-52 -227l-256 -117l-155 -725h-240l127 594l-274 -141l49 227l268 121l141 657h240z" />
    <glyph glyph-name="Nacute" unicode="&#x143;" horiz-adv-x="1515" 
d="M950 1884h307l-264 -303h-180zM1071 385l227 1073h242l-311 -1458h-238l-459 1067l-227 -1067h-244l312 1458h235z" />
    <glyph glyph-name="nacute" unicode="&#x144;" horiz-adv-x="1200" 
d="M715 1483h307l-264 -303h-180zM799 1083q144 0 224 -77q81 -78 81 -211q0 -40 -10 -99l-150 -696h-239l139 662q10 49 10 75q0 133 -147 133q-112 0 -196 -74q-86 -76 -116 -214l-123 -582h-239l223 1057h231l-32 -152q139 178 344 178z" />
    <glyph glyph-name="uni0145" unicode="&#x145;" horiz-adv-x="1515" 
d="M1071 385l227 1073h242l-311 -1458h-238l-459 1067l-227 -1067h-244l312 1458h235zM625 -301l-176 -12l38 184h275l-55 -266q-37 -166 -222 -166h-88l21 94h86q48 0 69 17q24 19 31 61z" />
    <glyph glyph-name="uni0146" unicode="&#x146;" horiz-adv-x="1200" 
d="M799 1083q144 0 224 -77q81 -78 81 -211q0 -40 -10 -99l-150 -696h-239l139 662q10 49 10 75q0 133 -147 133q-112 0 -196 -74q-86 -76 -116 -214l-123 -582h-239l223 1057h231l-32 -152q139 178 344 178zM473 -301l-176 -12l39 184h274l-55 -266q-37 -166 -221 -166h-88
l20 94h86q49 0 70 17q24 19 31 61z" />
    <glyph glyph-name="Ncaron" unicode="&#x147;" horiz-adv-x="1515" 
d="M1403 1890l-309 -309h-234l-178 309h215l92 -186l172 186h242zM1071 385l227 1073h242l-311 -1458h-238l-459 1067l-227 -1067h-244l312 1458h235z" />
    <glyph glyph-name="ncaron" unicode="&#x148;" horiz-adv-x="1200" 
d="M1163 1489l-309 -309h-231l-179 309h213l93 -186l174 186h239zM799 1083q144 0 224 -77q81 -78 81 -211q0 -40 -10 -99l-150 -696h-239l139 662q10 49 10 75q0 133 -147 133q-112 0 -196 -74q-86 -76 -116 -214l-123 -582h-239l223 1057h231l-32 -152q139 178 344 178z
" />
    <glyph glyph-name="napostrophe" unicode="&#x149;" horiz-adv-x="1662" 
d="M266 1444h295l-65 -305q-27 -128 -112 -195t-220 -67h-19l27 120h18q144 0 177 152l8 43l-164 -6zM1262 1083q144 0 224 -77q81 -78 81 -211q0 -35 -11 -99l-149 -696h-240l142 662q8 37 8 75q0 133 -148 133q-111 0 -195 -74q-86 -76 -116 -214l-123 -582h-239l223 1057
h231l-32 -152q139 178 344 178z" />
    <glyph glyph-name="Eng" unicode="&#x14a;" horiz-adv-x="1517" 
d="M1298 1458h242l-280 -1323l-52 -246q-34 -163 -117 -235t-241 -72h-139l45 207h69q69 0 99 24q31 25 43 85l24 108l-459 1061l-225 -1067h-244l310 1458h254l450 -1046z" />
    <glyph glyph-name="eng" unicode="&#x14b;" horiz-adv-x="1200" 
d="M799 1083q144 0 224 -77q81 -78 81 -211q0 -40 -10 -99l-172 -807q-33 -163 -118 -235q-86 -72 -245 -72h-121l43 207h60q67 0 98 23q30 22 45 86l160 764q10 49 10 75q0 133 -147 133q-112 0 -196 -74q-86 -76 -116 -214l-123 -582h-239l223 1057h231l-32 -152
q139 178 344 178z" />
    <glyph glyph-name="Omacron" unicode="&#x14c;" horiz-adv-x="1591" 
d="M1346 1661h-701l39 180h700zM719 -41q-265 0 -424 164q-162 162 -162 434q0 107 21 197q72 338 292 534q223 201 523 201q259 0 417 -160q158 -163 158 -430q0 -106 -20 -192q-69 -351 -283 -549q-214 -199 -522 -199zM735 176q199 0 346 152q148 154 199 403
q14 62 14 150q0 181 -94 285q-95 106 -256 106q-201 0 -352 -148q-149 -147 -195 -393q-16 -96 -16 -162q0 -184 94 -288q95 -105 260 -105z" />
    <glyph glyph-name="omacron" unicode="&#x14d;" horiz-adv-x="1220" 
d="M1116 1247h-700l39 180h700zM524 -31q-207 0 -328 121q-122 122 -122 324q0 77 14 133q45 239 213 389q162 147 399 147q206 0 326 -119q121 -120 121 -321q0 -61 -12 -133q-51 -257 -211 -399t-400 -142zM541 162q139 0 235 99q97 100 125 269q10 63 10 99
q0 124 -60 193t-173 69q-136 0 -232 -99q-97 -100 -127 -266q-10 -64 -10 -106q0 -122 61 -191q60 -67 171 -67z" />
    <glyph glyph-name="Obreve" unicode="&#x14e;" horiz-adv-x="1591" 
d="M997 1595q-305 0 -305 226q0 39 6 82h150q-2 -10 -2 -33q0 -117 166 -117q190 0 227 150h154q-39 -158 -131 -233t-265 -75zM719 -41q-265 0 -424 164q-162 162 -162 434q0 107 21 197q72 338 292 534q223 201 523 201q259 0 417 -160q158 -163 158 -430q0 -106 -20 -192
q-69 -351 -283 -549q-214 -199 -522 -199zM735 176q199 0 346 152q148 154 199 403q14 62 14 150q0 181 -94 285q-95 106 -256 106q-201 0 -352 -148q-149 -147 -195 -393q-16 -96 -16 -162q0 -184 94 -288q95 -105 260 -105z" />
    <glyph glyph-name="obreve" unicode="&#x14f;" horiz-adv-x="1220" 
d="M770 1182q-305 0 -305 225q0 45 8 82h148q-3 -15 -3 -35q0 -117 164 -117q192 0 230 152h153q-39 -158 -131 -233q-90 -74 -264 -74zM524 -31q-207 0 -328 121q-122 122 -122 324q0 77 14 133q45 239 213 389q162 147 399 147q206 0 326 -119q121 -120 121 -321
q0 -61 -12 -133q-51 -257 -211 -399t-400 -142zM541 162q139 0 235 99q97 100 125 269q10 63 10 99q0 124 -60 193t-173 69q-136 0 -232 -99q-97 -100 -127 -266q-10 -64 -10 -106q0 -122 61 -191q60 -67 171 -67z" />
    <glyph glyph-name="Ohungarumlaut" unicode="&#x150;" horiz-adv-x="1591" 
d="M842 1593h-176l149 324h268zM1239 1593h-178l162 324h268zM719 -41q-265 0 -424 164q-162 162 -162 434q0 107 21 197q72 338 292 534q223 201 523 201q259 0 417 -160q158 -163 158 -430q0 -106 -20 -192q-69 -351 -283 -549q-214 -199 -522 -199zM735 176
q199 0 346 152q148 154 199 403q14 62 14 150q0 181 -94 285q-95 106 -256 106q-201 0 -352 -148q-149 -147 -195 -393q-16 -96 -16 -162q0 -184 94 -288q95 -105 260 -105z" />
    <glyph glyph-name="ohungarumlaut" unicode="&#x151;" horiz-adv-x="1220" 
d="M616 1180h-178l152 323h268zM1014 1180h-178l161 323h267zM524 -31q-207 0 -328 121q-122 122 -122 324q0 77 14 133q45 239 213 389q162 147 399 147q206 0 326 -119q121 -120 121 -321q0 -61 -12 -133q-51 -257 -211 -399t-400 -142zM541 162q139 0 235 99
q97 100 125 269q10 63 10 99q0 124 -60 193t-173 69q-136 0 -232 -99q-97 -100 -127 -266q-10 -64 -10 -106q0 -122 61 -191q60 -67 171 -67z" />
    <glyph glyph-name="OE" unicode="&#x152;" horiz-adv-x="2412" 
d="M2482 1458l-45 -211h-799l-82 -387h728l-46 -213h-729l-92 -436h819l-45 -211h-1067l33 156q-197 -197 -467 -197q-247 0 -403 162q-156 157 -156 430q0 107 21 197q69 330 290 536q217 205 502 205q314 0 447 -246l45 215h1046zM735 176q198 0 344 152q148 154 199 403
q16 70 16 150q0 181 -94 285q-95 106 -258 106q-199 0 -350 -148q-152 -152 -195 -393q-16 -96 -16 -162q0 -184 94 -288q95 -105 260 -105z" />
    <glyph glyph-name="oe" unicode="&#x153;" horiz-adv-x="2021" 
d="M1923 463h-782q-4 -59 -4 -76q0 -111 58 -169t167 -58q184 0 283 172l227 -21q-178 -342 -531 -342q-272 0 -385 191q-180 -191 -432 -191q-202 0 -327 119t-125 315q0 279 186 480q184 200 455 200q128 0 226 -49q101 -50 155 -137q174 186 430 186q197 0 314 -107
q118 -108 118 -298q0 -108 -33 -215zM1507 899q-113 0 -199 -72t-130 -198h536q6 30 6 63q0 99 -55 153t-158 54zM541 162q166 0 272 149q105 147 105 336q0 117 -60 180q-61 64 -170 64q-167 0 -272 -146q-107 -145 -107 -323q0 -124 61 -193q60 -67 171 -67z" />
    <glyph glyph-name="Racute" unicode="&#x154;" horiz-adv-x="1445" 
d="M877 1884h307l-264 -303h-181zM1421 1122q0 -160 -94 -273q-95 -114 -254 -149q162 -50 162 -237q0 -17 -4 -72l-35 -391h-246l37 362q4 55 4 72q0 90 -43 126t-147 36h-365l-127 -596h-248l312 1458h643q197 0 301 -91t104 -245zM481 803h350q153 0 245 77q91 76 91 205
q0 162 -217 162h-375z" />
    <glyph glyph-name="racute" unicode="&#x155;" horiz-adv-x="802" 
d="M545 1483h307l-264 -303h-180zM481 1057l-32 -176q125 209 321 209q42 0 78 -11l-49 -225q-30 6 -64 6q-125 0 -217 -80t-129 -225l-117 -555h-239l223 1057h225z" />
    <glyph glyph-name="uni0156" unicode="&#x156;" horiz-adv-x="1445" 
d="M1421 1122q0 -160 -94 -273q-95 -114 -254 -149q162 -50 162 -237q0 -17 -4 -72l-35 -391h-246l37 362q4 55 4 72q0 90 -43 126t-147 36h-365l-127 -596h-248l312 1458h643q197 0 301 -91t104 -245zM481 803h350q153 0 245 77q91 76 91 205q0 162 -217 162h-375z
M616 -301l-176 -12l39 184h275l-56 -266q-37 -166 -221 -166h-88l21 94h86q48 0 69 17q24 19 31 61z" />
    <glyph glyph-name="uni0157" unicode="&#x157;" horiz-adv-x="802" 
d="M770 1090q42 0 78 -11l-49 -225q-30 6 -64 6q-125 0 -217 -80t-129 -225l-117 -555h-239l223 1057h225l-32 -176q125 209 321 209zM121 -301l-176 -12l39 184h274l-55 -266q-37 -166 -221 -166h-88l20 94h86q49 0 70 17q23 18 30 61z" />
    <glyph glyph-name="Rcaron" unicode="&#x158;" horiz-adv-x="1445" 
d="M1327 1890l-309 -309h-234l-178 309h215l92 -186l172 186h242zM1421 1122q0 -160 -94 -273q-95 -114 -254 -149q162 -50 162 -237q0 -17 -4 -72l-35 -391h-246l37 362q4 55 4 72q0 90 -43 126t-147 36h-365l-127 -596h-248l312 1458h643q197 0 301 -91t104 -245zM481 803
h350q153 0 245 77q91 76 91 205q0 162 -217 162h-375z" />
    <glyph glyph-name="rcaron" unicode="&#x159;" horiz-adv-x="802" 
d="M993 1489l-309 -309h-231l-179 309h213l93 -186l174 186h239zM481 1057l-32 -176q125 209 321 209q42 0 78 -11l-49 -225q-30 6 -64 6q-125 0 -217 -80t-129 -225l-117 -555h-239l223 1057h225z" />
    <glyph glyph-name="Sacute" unicode="&#x15a;" horiz-adv-x="1388" 
d="M883 1597h-181l138 304h307zM627 -39q-253 0 -398 112q-143 110 -143 318q0 43 4 72h238q-4 -33 -4 -49q0 -122 82 -186t231 -64q172 0 269 67q98 68 98 191q0 73 -48 115q-47 41 -163 69l-207 56q-154 39 -242 130t-88 228q0 222 160 347q158 124 434 124
q233 0 369 -110q135 -109 135 -302q0 -35 -2 -49h-236q2 14 2 33q0 106 -75 166q-74 59 -212 59q-152 0 -238 -64q-87 -64 -87 -173q0 -123 168 -162l252 -64q329 -84 329 -368q0 -238 -168 -367t-460 -129z" />
    <glyph glyph-name="sacute" unicode="&#x15b;" horiz-adv-x="1071" 
d="M684 1192h-180l137 303h307zM459 -33q-209 0 -313 91q-105 92 -105 266l221 6q0 -187 217 -187q114 0 177 42t63 116q0 45 -30 71t-97 42l-178 43q-127 30 -195 101q-67 70 -67 171q0 171 122 262q124 92 332 92q186 0 290 -89q103 -88 103 -246l-217 -5q0 77 -51 121
q-50 43 -145 43t-151 -37t-56 -104q0 -89 123 -113l174 -39q274 -60 274 -274q0 -181 -131 -277t-360 -96z" />
    <glyph glyph-name="Scircumflex" unicode="&#x15c;" horiz-adv-x="1388" 
d="M739 1608h-241l309 309h233l179 -309h-213l-95 186zM627 -39q-253 0 -398 112q-143 110 -143 318q0 43 4 72h238q-4 -33 -4 -49q0 -122 82 -186t231 -64q172 0 269 67q98 68 98 191q0 73 -48 115q-47 41 -163 69l-207 56q-154 39 -242 130t-88 228q0 222 160 347
q158 124 434 124q233 0 369 -110q135 -109 135 -302q0 -35 -2 -49h-236q2 14 2 33q0 106 -75 166q-74 59 -212 59q-152 0 -238 -64q-87 -64 -87 -173q0 -123 168 -162l252 -64q329 -84 329 -368q0 -238 -168 -367t-460 -129z" />
    <glyph glyph-name="scircumflex" unicode="&#x15d;" horiz-adv-x="1071" 
d="M543 1202h-242l309 309h234l178 -309h-213l-94 187zM459 -33q-209 0 -313 91q-105 92 -105 266l221 6q0 -187 217 -187q114 0 177 42t63 116q0 45 -30 71t-97 42l-178 43q-127 30 -195 101q-67 70 -67 171q0 171 122 262q124 92 332 92q186 0 290 -89q103 -88 103 -246
l-217 -5q0 77 -51 121q-50 43 -145 43t-151 -37t-56 -104q0 -89 123 -113l174 -39q274 -60 274 -274q0 -181 -131 -277t-360 -96z" />
    <glyph glyph-name="Scedilla" unicode="&#x15e;" horiz-adv-x="1388" 
d="M1352 1030h-236q2 14 2 33q0 106 -75 166q-74 59 -212 59q-152 0 -238 -64q-87 -64 -87 -173q0 -123 168 -162l252 -64q329 -84 329 -368q0 -227 -151 -354q-152 -128 -418 -140l-90 -102h22q87 0 134 -44t47 -118q0 -104 -92 -166q-91 -61 -242 -61h-94l26 122h66
q147 0 147 76q0 54 -73 54h-58l-69 100l118 141q-211 21 -326 130q-116 110 -116 296q0 43 4 72h238q-4 -33 -4 -49q0 -122 82 -186t231 -64q172 0 269 67q98 68 98 191q0 73 -48 115q-47 41 -163 69l-207 56q-154 39 -242 130t-88 228q0 222 160 347q158 124 434 124
q233 0 369 -110q135 -109 135 -302q0 -35 -2 -49z" />
    <glyph glyph-name="scedilla" unicode="&#x15f;" horiz-adv-x="1071" 
d="M502 653l174 -39q274 -60 274 -274q0 -170 -114 -265q-115 -96 -320 -106l-88 -100h23q86 0 133 -44t47 -118q0 -104 -92 -166q-91 -61 -242 -61h-94l26 123h66q147 0 147 75q0 54 -73 54h-58l-69 100l118 141q-319 43 -319 351l221 6q0 -187 217 -187q114 0 177 42
t63 116q0 45 -30 71t-97 42l-178 43q-127 30 -195 101q-67 70 -67 171q0 171 122 262q124 92 332 92q186 0 290 -89q103 -88 103 -246l-217 -5q0 77 -51 121q-50 43 -145 43t-151 -37t-56 -104q0 -89 123 -113z" />
    <glyph glyph-name="Scaron" unicode="&#x160;" horiz-adv-x="1388" 
d="M981 1597h-233l-179 310h215l93 -187l172 187h241zM627 -39q-253 0 -398 112q-143 110 -143 318q0 43 4 72h238q-4 -33 -4 -49q0 -122 82 -186t231 -64q172 0 269 67q98 68 98 191q0 73 -48 115q-47 41 -163 69l-207 56q-154 39 -242 130t-88 228q0 222 160 347
q158 124 434 124q233 0 369 -110q135 -109 135 -302q0 -35 -2 -49h-236q2 14 2 33q0 106 -75 166q-74 59 -212 59q-152 0 -238 -64q-87 -64 -87 -173q0 -123 168 -162l252 -64q329 -84 329 -368q0 -238 -168 -367t-460 -129z" />
    <glyph glyph-name="scaron" unicode="&#x161;" horiz-adv-x="1071" 
d="M782 1192h-231l-178 309h213l92 -186l174 186h240zM459 -33q-209 0 -313 91q-105 92 -105 266l221 6q0 -187 217 -187q114 0 177 42t63 116q0 45 -30 71t-97 42l-178 43q-127 30 -195 101q-67 70 -67 171q0 171 122 262q124 92 332 92q186 0 290 -89q103 -88 103 -246
l-217 -5q0 77 -51 121q-50 43 -145 43t-151 -37t-56 -104q0 -89 123 -113l174 -39q274 -60 274 -274q0 -181 -131 -277t-360 -96z" />
    <glyph glyph-name="uni0162" unicode="&#x162;" horiz-adv-x="1284" 
d="M918 1239l-265 -1239h-37l-106 -121h22q87 0 134 -44t47 -118q0 -104 -92 -166q-91 -61 -242 -61h-94l26 123h66q147 0 147 76q0 53 -73 53h-58l-69 100l133 158h-51l264 1239h-463l47 219h1171l-47 -219h-460z" />
    <glyph glyph-name="uni0163" unicode="&#x163;" horiz-adv-x="745" 
d="M522 885l-18 -90l-105 -490q-8 -29 -8 -49q0 -61 86 -61h117l-43 -195h-168l-84 -96h23q87 0 133 -43q47 -44 47 -119q0 -105 -92 -165t-242 -60h-94l26 121h66q147 0 147 77q0 52 -73 52h-58l-69 102l133 156q-103 44 -103 168q0 23 11 83l110 521l19 86l-152 -6l37 180
l151 -6l19 94l51 237h240l-51 -235l-21 -96l219 6l-37 -180z" />
    <glyph glyph-name="Tcaron" unicode="&#x164;" horiz-adv-x="1284" 
d="M1286 1890l-309 -309h-234l-178 309h215l92 -186l172 186h242zM254 1458h1171l-47 -219h-460l-265 -1239h-247l264 1239h-463z" />
    <glyph glyph-name="tcaron" unicode="&#x165;" horiz-adv-x="813" 
d="M692 1171l191 428h266l-272 -428h-185zM629 1382l-51 -235l-21 -96l219 6l-37 -180l-217 8l-18 -90l-105 -490q-8 -29 -8 -49q0 -61 86 -61h117l-43 -195h-170q-238 0 -238 193q0 23 11 83l110 521l19 86l-152 -6l37 180l151 -6l19 94l51 237h240z" />
    <glyph glyph-name="Tbar" unicode="&#x166;" horiz-adv-x="1284" 
d="M1425 1458l-47 -219h-460l-91 -420l424 8l-47 -219l-420 8l-131 -616h-247l131 616l-418 -8l47 219l414 -8l90 420h-463l47 219h1171z" />
    <glyph glyph-name="tbar" unicode="&#x167;" horiz-adv-x="774" 
d="M805 1057l-39 -180l-217 8l-53 -248l219 6l-39 -180l-215 6l-35 -164q-6 -35 -6 -49q0 -61 84 -61h117l-41 -195h-170q-240 0 -240 193q0 29 10 83l41 193l-153 -6l38 180l152 -6l51 246l-151 -6l39 180l149 -6l70 331h239l-71 -331z" />
    <glyph glyph-name="Utilde" unicode="&#x168;" horiz-adv-x="1476" 
d="M686 1612h-184q69 340 307 340q79 0 166 -70t125 -70q84 0 119 140h184q-73 -340 -309 -340q-69 0 -118 35q-48 35 -87 69q-40 35 -84 35q-89 0 -119 -139zM655 -41q-236 0 -370 103q-135 104 -135 288q0 54 12 115l211 993h248l-215 -1009q-9 -36 -9 -76
q0 -197 269 -197q315 0 372 273l215 1009h248l-213 -1003q-108 -496 -633 -496z" />
    <glyph glyph-name="utilde" unicode="&#x169;" horiz-adv-x="1200" 
d="M580 1350q-89 0 -119 -140h-185q69 340 308 340q80 0 166 -69q87 -70 125 -70q84 0 118 139h185q-73 -340 -310 -340q-68 0 -117 35q-42 30 -87 70q-40 35 -84 35zM805 475l123 582h239l-223 -1057h-231l32 152q-140 -179 -344 -179q-143 0 -224 78t-81 211q0 34 11 98
l149 697h240l-142 -662q-8 -37 -8 -76q0 -133 148 -133q110 0 195 75q86 76 116 214z" />
    <glyph glyph-name="Umacron" unicode="&#x16a;" horiz-adv-x="1476" 
d="M1307 1649h-701l39 180h701zM655 -41q-236 0 -370 103q-135 104 -135 288q0 54 12 115l211 993h248l-215 -1009q-9 -36 -9 -76q0 -197 269 -197q315 0 372 273l215 1009h248l-213 -1003q-108 -496 -633 -496z" />
    <glyph glyph-name="umacron" unicode="&#x16b;" horiz-adv-x="1200" 
d="M420 1427h700l-39 -180h-700zM805 475l123 582h239l-223 -1057h-231l32 152q-140 -179 -344 -179q-143 0 -224 78t-81 211q0 39 10 98l150 697h240l-142 -662q-8 -37 -8 -76q0 -133 148 -133q110 0 195 75q86 76 116 214z" />
    <glyph glyph-name="Ubreve" unicode="&#x16c;" horiz-adv-x="1476" 
d="M958 1583q-305 0 -305 225q0 38 6 82h150q-2 -10 -2 -32q0 -117 166 -117q190 0 227 149h154q-39 -156 -131 -232q-91 -75 -265 -75zM655 -41q-236 0 -370 103q-135 104 -135 288q0 54 12 115l211 993h248l-215 -1009q-9 -36 -9 -76q0 -197 269 -197q315 0 372 273
l215 1009h248l-213 -1003q-108 -496 -633 -496z" />
    <glyph glyph-name="ubreve" unicode="&#x16d;" horiz-adv-x="1200" 
d="M735 1182q-305 0 -305 225q0 45 8 82h148q-2 -10 -2 -35q0 -117 164 -117q191 0 229 152h153q-39 -158 -131 -233q-90 -74 -264 -74zM805 475l123 582h239l-223 -1057h-231l32 152q-140 -179 -344 -179q-143 0 -224 78t-81 211q0 39 10 98l150 697h240l-142 -662
q-8 -37 -8 -76q0 -133 148 -133q110 0 195 75q86 76 116 214z" />
    <glyph glyph-name="Uring" unicode="&#x16e;" horiz-adv-x="1476" 
d="M1196 1667q-82 -82 -211 -82q-127 0 -211 84t-84 207q0 127 85 211t210 84q127 0 211 -84q82 -82 82 -211q0 -127 -82 -209zM881 1769q46 -38 105 -40q61 -2 105 40q47 44 42 107q0 68 -42 110t-106 42q-63 0 -105 -42t-42 -110q0 -67 43 -107zM655 -41q-236 0 -370 103
q-135 104 -135 288q0 54 12 115l211 993h248l-215 -1009q-9 -36 -9 -76q0 -197 269 -197q315 0 372 273l215 1009h248l-213 -1003q-108 -496 -633 -496z" />
    <glyph glyph-name="uring" unicode="&#x16f;" horiz-adv-x="1200" 
d="M993 1266q-82 -82 -211 -82q-127 0 -211 84t-84 207q0 127 84 211q83 83 211 83t211 -83q82 -82 82 -211q0 -127 -82 -209zM889 1585q-47 39 -106 41q-60 2 -105 -41q-47 -44 -43 -110q0 -67 42 -107q43 -41 105 -41q63 0 106 41q42 40 42 107q0 69 -41 110zM805 475
l123 582h239l-223 -1057h-231l32 152q-140 -179 -344 -179q-143 0 -224 78t-81 211q0 39 10 98l150 697h240l-142 -662q-8 -37 -8 -76q0 -133 148 -133q110 0 195 75q86 76 116 214z" />
    <glyph glyph-name="Uhungarumlaut" unicode="&#x170;" horiz-adv-x="1476" 
d="M805 1581h-176l149 324h269zM1202 1581h-178l162 324h268zM655 -41q-236 0 -370 103q-135 104 -135 288q0 54 12 115l211 993h248l-215 -1009q-9 -36 -9 -76q0 -197 269 -197q315 0 372 273l215 1009h248l-213 -1003q-108 -496 -633 -496z" />
    <glyph glyph-name="uhungarumlaut" unicode="&#x171;" horiz-adv-x="1200" 
d="M555 1503h268l-241 -323h-179zM1229 1503l-250 -323h-178l162 323h266zM805 475l123 582h239l-223 -1057h-231l32 152q-140 -179 -344 -179q-143 0 -224 78t-81 211q0 39 10 98l150 697h240l-142 -662q-8 -37 -8 -76q0 -133 148 -133q110 0 195 75q86 76 116 214z" />
    <glyph glyph-name="Uogonek" unicode="&#x172;" horiz-adv-x="1476" 
d="M1038 449l215 1009h248l-213 -1003q-89 -423 -485 -486l-115 -75q-59 -39 -79 -63q-21 -25 -21 -56q0 -66 88 -66h80l-33 -155h-143q-104 0 -163 45t-59 118t44 123q43 49 151 107l27 14q-206 17 -318 118q-112 102 -112 271q0 54 12 115l211 993h248l-215 -1009
q-9 -36 -9 -76q0 -197 269 -197q315 0 372 273z" />
    <glyph glyph-name="uogonek" unicode="&#x173;" horiz-adv-x="1200" 
d="M944 0l-139 -92q-59 -39 -79 -63q-21 -25 -21 -56q0 -65 88 -65h79l-32 -156h-144q-104 0 -162 45q-59 45 -59 119q0 88 68 145q58 47 153 103l39 20h-22l32 152q-140 -179 -344 -179q-143 0 -224 78t-81 211q0 39 10 98l150 697h240l-142 -662q-8 -37 -8 -76
q0 -133 148 -133q110 0 195 75q86 76 116 214l123 582h239z" />
    <glyph glyph-name="Wcircumflex" unicode="&#x174;" horiz-adv-x="1982" 
d="M1315 1591l-94 187l-172 -187h-242l309 310h234l178 -310h-213zM1479 659l383 799h264l-723 -1458h-236l-53 1130l-506 -1130h-241l-103 1458h242l39 -799l6 -309l135 312l369 796h250l36 -799v-309z" />
    <glyph glyph-name="wcircumflex" unicode="&#x175;" horiz-adv-x="1581" 
d="M1042 1190l-94 186l-172 -186h-241l309 309h233l178 -309h-213zM1112 518l260 539h260l-553 -1057h-235l-23 608l-4 183l-76 -183l-278 -608h-238l-98 1057h233l37 -539l9 -246l100 246l250 539h231l21 -537l4 -244z" />
    <glyph glyph-name="Ycircumflex" unicode="&#x176;" horiz-adv-x="1378" 
d="M1053 1591l-95 187l-172 -187h-241l309 310h233l179 -310h-213zM1243 1458h295l-707 -876l-122 -582h-248l123 582l-338 876h260l186 -524l41 -158l105 158z" />
    <glyph glyph-name="ycircumflex" unicode="&#x177;" horiz-adv-x="1116" 
d="M813 1190l-94 186l-172 -186h-242l309 309h234l178 -309h-213zM479 266l426 791h262l-712 -1245q-77 -132 -150 -181t-194 -49h-191l45 203h119q66 0 105 25q38 24 77 92l51 88l-190 1067h244l100 -660z" />
    <glyph glyph-name="Ydieresis" unicode="&#x178;" horiz-adv-x="1378" 
d="M639 1851h240l-52 -233h-239zM1073 1851h240l-51 -233h-240zM1243 1458h295l-707 -876l-122 -582h-248l123 582l-338 876h260l186 -524l41 -158l105 158z" />
    <glyph glyph-name="Zacute" unicode="&#x179;" horiz-adv-x="1419" 
d="M903 1884h307l-264 -303h-180zM375 1458h1106l-43 -194l-1061 -1049h854l-47 -215h-1176l47 211l1049 1032h-774z" />
    <glyph glyph-name="zacute" unicode="&#x17a;" horiz-adv-x="1048" 
d="M639 1483h307l-264 -303h-180zM229 1057h828l-37 -176l-725 -691h606l-41 -190h-901l39 182l721 684h-531z" />
    <glyph glyph-name="Zdotaccent" unicode="&#x17b;" horiz-adv-x="1419" 
d="M874 1860h240l-49 -234h-240zM375 1458h1106l-43 -194l-1061 -1049h854l-47 -215h-1176l47 211l1049 1032h-774z" />
    <glyph glyph-name="zdotaccent" unicode="&#x17c;" horiz-adv-x="1048" 
d="M610 1458h240l-49 -233h-240zM229 1057h828l-37 -176l-725 -691h606l-41 -190h-901l39 182l721 684h-531z" />
    <glyph glyph-name="Zcaron" unicode="&#x17d;" horiz-adv-x="1419" 
d="M1354 1890l-310 -309h-233l-178 309h215l92 -186l172 186h242zM375 1458h1106l-43 -194l-1061 -1049h854l-47 -215h-1176l47 211l1049 1032h-774z" />
    <glyph glyph-name="zcaron" unicode="&#x17e;" horiz-adv-x="1048" 
d="M1090 1489l-310 -309h-231l-178 309h213l92 -186l174 186h240zM719 866h-531l41 191h828l-37 -176l-725 -691h606l-41 -190h-901l39 182z" />
    <glyph glyph-name="uni018F" unicode="&#x18f;" horiz-adv-x="1589" 
d="M967 1489q260 0 417 -160q158 -163 158 -430q0 -106 -20 -192q-69 -351 -283 -549q-214 -199 -522 -199q-265 0 -424 164q-162 162 -162 434q0 105 27 223h1128q6 56 6 101q0 181 -94 285q-95 106 -256 106q-237 0 -395 -197h-279q113 198 295 305q185 109 404 109z
M473 281q96 -105 260 -105q166 0 297 107q129 102 201 286h-852q0 -187 94 -288z" />
    <glyph glyph-name="florin" unicode="&#x192;" 
d="M1221 1458h137l-84 -203h-68q-68 0 -109 -31q-42 -32 -71 -106l-100 -246l188 7l-72 -181l-184 7l-291 -713q-125 -314 -436 -314h-139l86 203h67q65 0 108 32t71 103l280 689l-198 -7l73 181l195 -7l110 273q124 313 437 313z" />
    <glyph glyph-name="uni01F4" unicode="&#x1f4;" horiz-adv-x="1609" 
d="M954 1901h308l-265 -304h-180zM872 784h553l-4 -12l70 12l-168 -784h-168l-6 164q-174 -197 -461 -197q-247 0 -401 160q-156 157 -156 428q0 96 25 207q69 336 295 534q223 195 524 195q252 0 400 -128q147 -128 147 -353l-244 -11q0 134 -82 204q-83 71 -231 71
q-210 0 -363 -148q-152 -147 -203 -395q-18 -96 -18 -172q0 -180 91 -281q92 -102 261 -102q168 0 294 98q130 101 192 277l4 22h-396z" />
    <glyph glyph-name="uni01F5" unicode="&#x1f5;" horiz-adv-x="1224" 
d="M717 1483h307l-264 -303h-180zM942 887l41 170h211l-221 -1047q-50 -234 -182 -343q-133 -109 -367 -109q-213 0 -326 83q-112 82 -112 246l225 4q4 -151 221 -151q252 0 303 246l33 151q-135 -147 -317 -147q-172 0 -274 112q-101 111 -101 301q0 273 153 476
q151 202 394 202q111 0 193 -52q83 -53 126 -142zM518 195q158 0 254 135q96 137 96 313q0 115 -57 178q-58 64 -158 64q-151 0 -247 -140q-95 -140 -95 -325q0 -105 55 -166q53 -59 152 -59z" />
    <glyph glyph-name="Aringacute" unicode="&#x1fa;" horiz-adv-x="1478" 
d="M1036 2271h307l-260 -299h-180zM1245 1608q0 -173 -139 -252l205 -1356h-254l-51 365h-572l-205 -365h-276l805 1384q-99 86 -99 224q0 126 83 211q82 84 210 84t210 -84q83 -85 83 -211zM952 1759q-63 0 -105 -42t-42 -109q0 -66 42 -107q43 -41 105 -41q67 0 107 40
q41 41 41 108q0 69 -41 110t-107 41zM754 936l-203 -363h426l-49 363l-27 289z" />
    <glyph glyph-name="aringacute" unicode="&#x1fb;" horiz-adv-x="1153" 
d="M840 2144h305l-264 -301h-179zM977 1257q-81 -81 -211 -81q-127 0 -211 84t-84 206q0 128 84 210q85 83 211 83q129 0 211 -82t82 -211q0 -127 -82 -209zM872 1575q-47 40 -105 41q-60 2 -105 -41q-48 -45 -44 -109q0 -66 42 -106q43 -41 106 -41q62 0 105 41
q42 40 42 106q0 68 -41 109zM678 1083q188 0 286 -70q99 -71 99 -200q0 -31 -12 -94l-103 -475q-18 -82 -18 -156q0 -50 12 -88h-227v129q-134 -158 -363 -158q-148 0 -236 75q-89 75 -89 202q0 149 107 240q109 92 304 122l330 49q19 1 39 13l12 63q6 39 6 49
q0 121 -178 121q-102 0 -160 -38t-88 -128l-223 9q90 335 502 335zM446 152q106 0 186 59q80 60 109 156l29 139l-16 -4l-285 -47q-199 -33 -199 -174q0 -129 176 -129z" />
    <glyph glyph-name="AEacute" unicode="&#x1fc;" horiz-adv-x="2332" 
d="M1675 1884h307l-264 -303h-180zM2402 1458l-45 -211h-798l-82 -387h727l-45 -213h-729l-93 -436h820l-46 -211h-1067l80 375h-596l-305 -375h-270l1190 1458h1259zM1239 1247l-543 -665h473l142 665h-72z" />
    <glyph glyph-name="aeacute" unicode="&#x1fd;" horiz-adv-x="1878" 
d="M1051 1483h307l-264 -303h-181zM1780 461h-779q-6 -39 -6 -76q0 -111 59 -168q58 -57 165 -57q183 0 282 170l223 -27q-86 -160 -228 -247t-316 -87q-289 0 -369 221q-175 -219 -461 -219q-154 0 -239 69q-86 69 -86 187q0 180 131 285q132 104 336 104h307l18 89
q10 49 10 71q0 129 -184 129q-182 0 -242 -164l-223 2q100 340 506 340q270 0 330 -157q169 157 405 157q191 0 292 -101t101 -288q0 -106 -32 -233zM1366 899q-116 0 -204 -74q-87 -73 -126 -209h539q4 29 4 56q0 227 -213 227zM422 152q119 0 213 73q95 74 119 191h2l8 45
l-275 -4q-105 -1 -165 -51t-60 -130q0 -56 42 -91q40 -33 116 -33z" />
    <glyph glyph-name="Oslashacute" unicode="&#x1fe;" horiz-adv-x="1591" 
d="M948 1896h307l-264 -303h-180zM1528 1503l106 -98l-174 -172q84 -144 84 -334q0 -106 -20 -192q-69 -351 -283 -549q-214 -199 -522 -199q-251 0 -406 143l-172 -168l-108 99l186 184q-86 146 -86 340q0 107 21 197q72 338 292 534q223 201 523 201q244 0 399 -143z
M381 569q0 -90 25 -170l788 775q-95 98 -250 98q-201 0 -352 -148q-149 -147 -195 -393q-16 -96 -16 -162zM1294 881q0 94 -24 163l-787 -772q91 -96 252 -96q199 0 346 152q148 154 199 403q14 62 14 150z" />
    <glyph glyph-name="oslashacute" unicode="&#x1ff;" horiz-adv-x="1220" 
d="M723 1495h307l-264 -303h-180zM1130 1090l95 -97l-131 -121q53 -103 53 -229q0 -61 -12 -133q-51 -257 -211 -399t-400 -142q-184 0 -301 99l-112 -105l-95 96l119 111q-61 107 -61 244q0 77 14 133q45 239 213 389q162 147 399 147q190 0 310 -104zM309 420q0 -50 8 -82
l529 489q-58 64 -168 64q-136 0 -232 -99q-97 -100 -127 -266q-10 -64 -10 -106zM911 629q0 35 -6 69l-522 -483q61 -53 158 -53q139 0 235 99q97 100 125 269q10 63 10 99z" />
    <glyph glyph-name="uni0218" unicode="&#x218;" horiz-adv-x="1388" 
d="M627 -39q-253 0 -398 112q-143 110 -143 318q0 43 4 72h238q-4 -33 -4 -49q0 -122 82 -186t231 -64q172 0 269 67q98 68 98 191q0 73 -48 115q-47 41 -163 69l-207 56q-154 39 -242 130t-88 228q0 222 160 347q158 124 434 124q233 0 369 -110q135 -109 135 -302
q0 -35 -2 -49h-236q2 14 2 33q0 106 -75 166q-74 59 -212 59q-152 0 -238 -64q-87 -64 -87 -173q0 -123 168 -162l252 -64q329 -84 329 -368q0 -238 -168 -367t-460 -129zM451 -580h-89l21 95h86q49 0 70 17q23 18 30 60l21 89l-176 -13l39 185h274l-55 -267
q-37 -166 -221 -166z" />
    <glyph glyph-name="uni0219" unicode="&#x219;" horiz-adv-x="1071" 
d="M459 -33q-209 0 -313 91q-105 92 -105 266l221 6q0 -187 217 -187q114 0 177 42t63 116q0 45 -30 71t-97 42l-178 43q-127 30 -195 101q-67 70 -67 171q0 171 122 262q124 92 332 92q186 0 290 -89q103 -88 103 -246l-217 -5q0 77 -51 121q-50 43 -145 43t-151 -37
t-56 -104q0 -89 123 -113l174 -39q274 -60 274 -274q0 -181 -131 -277t-360 -96zM285 -561h-88l20 94h86q48 0 71 17q25 19 32 61l18 88l-176 -12l39 184h276l-57 -266q-37 -166 -221 -166z" />
    <glyph glyph-name="uni021A" unicode="&#x21a;" horiz-adv-x="1284" 
d="M254 1458h1171l-47 -219h-460l-265 -1239h-247l264 1239h-463zM504 -301l-176 -12l39 184h274l-55 -266q-37 -166 -221 -166h-89l21 94h86q49 0 70 17q23 18 30 61z" />
    <glyph glyph-name="uni021B" unicode="&#x21b;" horiz-adv-x="745" 
d="M522 885l-18 -90l-105 -490q-8 -29 -8 -49q0 -61 86 -61h117l-43 -195h-170q-238 0 -238 193q0 23 11 83l110 521l19 86l-152 -6l37 180l151 -6l19 94l51 237h240l-51 -235l-21 -96l219 6l-37 -180zM207 -293l-176 -12l39 184h274l-55 -266q-37 -166 -221 -166h-88l20 94
h86q48 0 70 18q23 18 30 60z" />
    <glyph glyph-name="uni0237" unicode="&#x237;" horiz-adv-x="518" 
d="M-98 -418h-142l43 207h62q65 0 97 24q32 25 44 85l246 1159h240l-248 -1168q-37 -169 -111 -238q-73 -69 -231 -69z" />
    <glyph glyph-name="uni0259" unicode="&#x259;" horiz-adv-x="1193" 
d="M668 1087q215 0 333 -124q117 -128 117 -322q0 -79 -16 -149q-52 -240 -207 -377q-159 -142 -381 -142q-205 0 -324 113q-118 112 -118 313q0 100 26 195h785q4 59 4 68q0 108 -62 172q-62 63 -170 63q-181 0 -280 -172l-225 20q79 169 210 255q134 87 308 87zM524 158
q115 0 199 71q86 73 125 199h-545q-2 -14 -2 -43q0 -111 58 -169t165 -58z" />
    <glyph glyph-name="h.sups" unicode="&#x2b0;" horiz-adv-x="991" 
d="M770 1479q102 0 166 -55q63 -54 63 -152q0 -47 -14 -109l-86 -401h-199l78 358q15 66 15 97q0 98 -113 98q-73 0 -130 -45t-81 -129l-80 -379h-196l204 962h197l-76 -360q109 115 252 115z" />
    <glyph glyph-name="r.sups" unicode="&#x2b3;" horiz-adv-x="698" 
d="M766 1475h61l-39 -189h-65q-201 0 -256 -166l-76 -358h-196l147 696h176l-16 -139q88 156 264 156z" />
    <glyph glyph-name="circumflex" unicode="&#x2c6;" horiz-adv-x="1024" 
d="M535 1190h-242l309 309h234l178 -309h-213l-94 186z" />
    <glyph glyph-name="caron" unicode="&#x2c7;" horiz-adv-x="1024" 
d="M768 1180h-233l-179 309h215l93 -186l172 186h241z" />
    <glyph glyph-name="uni02C9" unicode="&#x2c9;" horiz-adv-x="1024" 
d="M1014 1247h-701l39 180h701z" />
    <glyph glyph-name="breve" unicode="&#x2d8;" horiz-adv-x="1024" 
d="M674 1214q-305 0 -305 226q0 45 8 82h147q-2 -10 -2 -35q0 -117 164 -117q191 0 229 152h154q-39 -158 -131 -233t-264 -75z" />
    <glyph glyph-name="dotaccent" unicode="&#x2d9;" horiz-adv-x="1024" 
d="M780 1225h-239l49 233h239z" />
    <glyph glyph-name="ring" unicode="&#x2da;" horiz-adv-x="1024" 
d="M924 1266q-82 -82 -211 -82q-127 0 -211 84t-84 207q0 127 84 211q83 83 211 83t211 -83q82 -82 82 -211q0 -127 -82 -209zM608 1368q47 -39 106 -41t104 41q47 44 42 107q0 67 -42 109t-105 42q-64 0 -106 -42t-42 -109t43 -107z" />
    <glyph glyph-name="ogonek" unicode="&#x2db;" horiz-adv-x="1024" 
d="M502 -432h-142q-106 0 -163 45q-58 46 -58 119t44 123q42 48 149 106l125 70l151 -31l-141 -92q-59 -39 -79 -63q-21 -25 -21 -56q0 -65 88 -65h80z" />
    <glyph glyph-name="tilde" unicode="&#x2dc;" horiz-adv-x="1024" 
d="M444 1292h-184q69 340 307 340q81 0 166 -69q87 -70 125 -70q85 0 119 139h184q-73 -340 -309 -340q-69 0 -118 35q-42 30 -87 70q-40 35 -84 35q-89 0 -119 -140z" />
    <glyph glyph-name="hungarumlaut" unicode="&#x2dd;" horiz-adv-x="1024" 
d="M496 1180h-179l152 323h268zM893 1180h-178l162 323h266z" />
    <glyph glyph-name="s.sups" unicode="&#x2e2;" horiz-adv-x="874" 
d="M541 739q-158 0 -250 62q-93 62 -109 178l195 6q15 -102 178 -102q154 0 154 82q0 48 -97 65l-145 23q-219 35 -219 194q0 108 86 170t241 62q147 0 234 -58q85 -57 100 -164l-184 -6q-17 90 -164 90q-129 0 -129 -75q0 -50 76 -62l164 -24q213 -34 213 -195
q0 -113 -91 -179q-93 -67 -253 -67z" />
    <glyph glyph-name="gravecomb" unicode="&#x300;" horiz-adv-x="0" 
d="M223 1180h-160l-200 303h284z" />
    <glyph glyph-name="acutecomb" unicode="&#x301;" horiz-adv-x="0" 
d="M150 1180h-181l137 303h308z" />
    <glyph glyph-name="uni0302" unicode="&#x302;" horiz-adv-x="0" 
d="M8 1190h-241l309 309h233l178 -309h-213l-94 186z" />
    <glyph glyph-name="tildecomb" unicode="&#x303;" horiz-adv-x="0" 
d="M-68 1292h-184q69 340 307 340q80 0 166 -69q87 -70 125 -70q85 0 119 139h184q-73 -340 -309 -340q-69 0 -118 35q-42 30 -87 70q-40 35 -84 35q-89 0 -119 -140z" />
    <glyph glyph-name="uni0304" unicode="&#x304;" horiz-adv-x="0" 
d="M502 1247h-701l39 180h701z" />
    <glyph glyph-name="uni0306" unicode="&#x306;" horiz-adv-x="0" 
d="M162 1214q-305 0 -305 226q0 45 8 82h147q-2 -10 -2 -35q0 -117 164 -117q191 0 229 152h154q-39 -158 -131 -233t-264 -75z" />
    <glyph glyph-name="uni0307" unicode="&#x307;" horiz-adv-x="0" 
d="M268 1225h-239l49 233h239z" />
    <glyph glyph-name="uni0308" unicode="&#x308;" horiz-adv-x="0" 
d="M49 1225h-239l51 233h239zM485 1225h-239l51 233h240z" />
    <glyph glyph-name="uni030A" unicode="&#x30a;" horiz-adv-x="0" 
d="M412 1266q-82 -82 -211 -82q-127 0 -211 84t-84 207q0 127 84 211q83 83 211 83t211 -83q82 -82 82 -211q0 -127 -82 -209zM96 1368q47 -39 106 -41t104 41q47 44 42 107q0 67 -42 109t-105 42q-64 0 -106 -42t-42 -109t43 -107z" />
    <glyph glyph-name="uni030B" unicode="&#x30b;" horiz-adv-x="0" 
d="M2 1180h-178l151 323h269zM399 1180h-178l162 323h266z" />
    <glyph glyph-name="uni030C" unicode="&#x30c;" horiz-adv-x="0" 
d="M248 1180h-232l-178 309h213l92 -186l174 186h240z" />
    <glyph glyph-name="uni0312" unicode="&#x312;" horiz-adv-x="0" 
d="M287 1225h-275l49 229q35 164 222 164h88l-21 -92h-88q-46 0 -69 -18q-24 -19 -31 -60l-10 -51l174 12z" />
    <glyph glyph-name="uni0313" unicode="&#x313;" horiz-adv-x="0" 
d="M98 1225h-88l21 92h86q50 0 71 17q24 19 31 61l10 51l-174 -12l39 184h275l-50 -229q-35 -164 -221 -164z" />
    <glyph glyph-name="dotbelowcomb" unicode="&#x323;" horiz-adv-x="0" 
d="M-78 -401h-239l49 233h239z" />
    <glyph glyph-name="uni0324" unicode="&#x324;" horiz-adv-x="0" 
d="M-295 -393h-240l52 233h239zM141 -393h-239l49 233h239z" />
    <glyph glyph-name="uni0325" unicode="&#x325;" horiz-adv-x="0" 
d="M-201 -713q-129 0 -212 84q-83 85 -83 211t83 209q82 82 212 82q128 0 210 -82q83 -83 83 -209t-83 -211q-83 -84 -210 -84zM-201 -569q65 0 105 42q41 43 41 109q0 67 -41 108q-40 40 -105 40q-66 0 -106 -40q-41 -41 -41 -108q0 -69 41 -110t106 -41z" />
    <glyph glyph-name="uni0326" unicode="&#x326;" horiz-adv-x="0" 
d="M-279 -561h-88l21 94h86q49 0 70 17q23 18 30 61l21 88l-176 -12l39 184h274l-55 -266q-37 -166 -222 -166z" />
    <glyph glyph-name="uni0327" unicode="&#x327;" horiz-adv-x="0" 
d="M-264 -510h-94l26 123h66q147 0 147 76q0 53 -74 53h-57l-69 100l133 158h159l-106 -121h22q87 0 134 -44t47 -118q0 -103 -93 -166q-91 -61 -241 -61z" />
    <glyph glyph-name="uni0328" unicode="&#x328;" horiz-adv-x="0" 
d="M-217 -432h-143q-104 0 -163 45t-59 119q0 73 44 123q42 48 151 106l125 70l149 -31l-139 -92q-59 -39 -79 -63q-21 -25 -21 -56q0 -65 88 -65h80z" />
    <glyph glyph-name="uni032E" unicode="&#x32e;" horiz-adv-x="0" 
d="M-188 -432q-306 0 -306 223q0 43 9 84h147q-2 -10 -2 -35q0 -116 166 -116q190 0 227 151h154q-39 -156 -131 -232q-92 -75 -264 -75z" />
    <glyph glyph-name="uni0331" unicode="&#x331;" horiz-adv-x="0" 
d="M160 -371h-701l39 181h701z" />
    <glyph glyph-name="uni0335" unicode="&#x335;" horiz-adv-x="0" 
d="M35 684l-309 -10l38 180l304 -10l307 10l-39 -180z" />
    <glyph glyph-name="uni0337" unicode="&#x337;" horiz-adv-x="0" 
d="M627 1047l-1139 -1121l-109 107l1139 1122z" />
    <glyph glyph-name="uni0338" unicode="&#x338;" horiz-adv-x="0" 
d="M840 1395l-1495 -1471l-107 109l1493 1470z" />
    <glyph glyph-name="uni0394" unicode="&#x394;" horiz-adv-x="1478" 
d="M494 1458h284l533 -1458h-1358zM547 936l-256 -727h680l-250 727l-86 283z" />
    <glyph glyph-name="uni03A9" unicode="&#x3a9;" horiz-adv-x="1796" 
d="M784 0h-612v205h309v4q-299 209 -299 588q0 312 191 503q192 189 501 189q313 0 502 -189q187 -187 187 -503q0 -386 -295 -588v-4h311v-205h-610v190q344 183 344 590q0 240 -117 366t-322 126q-206 0 -324 -126q-118 -125 -118 -366q0 -404 352 -590v-190z" />
    <glyph glyph-name="uni03BC" unicode="&#x3bc;" horiz-adv-x="1425" 
d="M496 -416h-240v1473h240v-662q0 -209 182 -209q113 0 182 77q70 78 70 218v576h239v-1057h-231v150q-45 -86 -122 -130q-80 -45 -177 -45q-109 0 -186 60l-4 -4l47 -256v-191z" />
    <glyph glyph-name="pi" unicode="&#x3c0;" horiz-adv-x="1583" 
d="M1444 1057v-221h-238v-502q0 -73 29 -104q28 -29 102 -29h52v-201h-97q-160 0 -236 81q-77 82 -77 251v504h-350v-836h-228v836h-233v221h1276z" />
    <glyph glyph-name="d.sups" unicode="&#x1d48;" horiz-adv-x="983" 
d="M823 1372l74 352h195l-205 -962h-176l10 98q-102 -117 -252 -117q-123 0 -195 78q-71 77 -71 213q0 186 119 320q117 133 284 133q144 0 217 -115zM547 905q96 0 164 80q65 81 65 182q0 77 -41 121q-40 43 -108 43q-95 0 -158 -78t-63 -188q0 -79 37 -119q38 -41 104 -41
z" />
    <glyph glyph-name="t.sups" unicode="&#x1d57;" horiz-adv-x="638" 
d="M723 1307l-162 4l-61 -285q-11 -53 -11 -63q0 -52 72 -52h76l-31 -149h-147q-176 0 -176 131q0 34 14 96l68 322l-144 -4l33 153l141 -4l45 211h197l-45 -211l164 4z" />
    <glyph glyph-name="Wgrave" unicode="&#x1e80;" horiz-adv-x="1982" 
d="M1190 1884l76 -303h-160l-201 303h285zM1479 659l383 799h264l-723 -1458h-236l-53 1130l-506 -1130h-241l-103 1458h242l39 -799l6 -309l135 312l369 796h250l36 -799v-309z" />
    <glyph glyph-name="wgrave" unicode="&#x1e81;" horiz-adv-x="1581" 
d="M915 1483l76 -303h-160l-200 303h284zM1112 518l260 539h260l-553 -1057h-235l-23 608l-4 183l-76 -183l-278 -608h-238l-98 1057h233l37 -539l9 -246l100 246l250 539h231l21 -537l4 -244z" />
    <glyph glyph-name="Wacute" unicode="&#x1e82;" horiz-adv-x="1982" 
d="M1149 1884h307l-264 -303h-180zM1479 659l383 799h264l-723 -1458h-236l-53 1130l-506 -1130h-241l-103 1458h242l39 -799l6 -309l135 312l369 796h250l36 -799v-309z" />
    <glyph glyph-name="wacute" unicode="&#x1e83;" horiz-adv-x="1581" 
d="M874 1483h308l-264 -303h-181zM1112 518l260 539h260l-553 -1057h-235l-23 608l-4 183l-76 -183l-278 -608h-238l-98 1057h233l37 -539l9 -246l100 246l250 539h231l21 -537l4 -244z" />
    <glyph glyph-name="Wdieresis" unicode="&#x1e84;" horiz-adv-x="1982" 
d="M903 1851h240l-51 -233h-240zM1337 1851h240l-51 -233h-240zM1479 659l383 799h264l-723 -1458h-236l-53 1130l-506 -1130h-241l-103 1458h242l39 -799l6 -309l135 312l369 796h250l36 -799v-309z" />
    <glyph glyph-name="wdieresis" unicode="&#x1e85;" horiz-adv-x="1581" 
d="M629 1458h239l-51 -233h-239zM1065 1458h240l-52 -233h-239zM1112 518l260 539h260l-553 -1057h-235l-23 608l-4 183l-76 -183l-278 -608h-238l-98 1057h233l37 -539l9 -246l100 246l250 539h231l21 -537l4 -244z" />
    <glyph glyph-name="uni1E9E" unicode="&#x1e9e;" horiz-adv-x="1472" 
d="M1520 1462l-41 -186l-424 -410q154 -24 239 -111q86 -88 86 -218q0 -242 -184 -398q-185 -155 -471 -155q-103 0 -223 22l45 209q98 -22 207 -22q167 0 266 80q100 81 100 219q0 86 -69 133q-70 47 -197 47q-68 0 -123 -6l39 180l426 426q-94 12 -231 12q-208 0 -315 -91
t-146 -275l-195 -918h-248l195 915q60 283 252 433q191 149 498 149q242 0 514 -35z" />
    <glyph glyph-name="Ygrave" unicode="&#x1ef2;" horiz-adv-x="1378" 
d="M926 1884l75 -303h-159l-201 303h285zM1243 1458h295l-707 -876l-122 -582h-248l123 582l-338 876h260l186 -524l41 -158l105 158z" />
    <glyph glyph-name="ygrave" unicode="&#x1ef3;" horiz-adv-x="1116" 
d="M686 1483l76 -303h-160l-201 303h285zM479 266l426 791h262l-712 -1245q-77 -132 -150 -181t-194 -49h-191l45 203h119q66 0 105 25q38 24 77 92l51 88l-190 1067h244l100 -660z" />
    <glyph glyph-name="thinspace" unicode="&#x2009;" horiz-adv-x="518" 
 />
    <glyph glyph-name="uni2011" unicode="&#x2011;" horiz-adv-x="778" 
d="M657 440h-573l45 211h573z" />
    <glyph glyph-name="endash" unicode="&#x2013;" horiz-adv-x="1095" 
d="M975 440h-891l45 211h891z" />
    <glyph glyph-name="emdash" unicode="&#x2014;" horiz-adv-x="1697" 
d="M1577 440h-1493l45 211h1493z" />
    <glyph glyph-name="quoteleft" unicode="&#x2018;" horiz-adv-x="610" 
d="M526 874h-293l64 306q60 262 332 262h18l-24 -121h-19q-78 0 -120 -36q-41 -35 -58 -116l-8 -41l164 5z" />
    <glyph glyph-name="quoteright" unicode="&#x2019;" horiz-adv-x="610" 
d="M252 877h-19l25 120h18q144 0 177 152l8 43l-162 -6l55 258h293l-65 -305q-27 -128 -112 -195t-218 -67z" />
    <glyph glyph-name="quotesinglbase" unicode="&#x201a;" horiz-adv-x="610" 
d="M-2 -309h-18l26 121h19q76 0 117 35q42 36 59 116l8 41l-164 -4l55 258h295l-65 -305q-27 -128 -112 -195t-220 -67z" />
    <glyph glyph-name="quotedblleft" unicode="&#x201c;" horiz-adv-x="1009" 
d="M526 874h-293l64 306q60 262 332 262h18l-24 -121h-19q-78 0 -120 -36q-41 -35 -58 -116l-8 -41l164 5zM926 874h-295l65 306q60 262 332 262h19l-27 -121h-19q-75 0 -117 -36t-59 -116l-8 -41l164 5z" />
    <glyph glyph-name="quotedblright" unicode="&#x201d;" horiz-adv-x="1009" 
d="M252 877h-19l25 120h18q144 0 177 152l8 43l-162 -6l55 258h293l-65 -305q-27 -128 -112 -195t-218 -67zM649 877h-18l26 120h19q143 0 176 152l8 43l-164 -6l58 258h293l-66 -305q-27 -128 -112 -195t-220 -67z" />
    <glyph glyph-name="quotedblbase" unicode="&#x201e;" horiz-adv-x="1009" 
d="M-2 -309h-18l26 121h19q76 0 117 35q42 36 59 116l8 41l-164 -4l55 258h295l-65 -305q-27 -128 -112 -195t-220 -67zM397 -309h-18l24 121h19q79 0 120 35t58 116l8 41l-164 -4l56 258h295l-66 -305q-60 -262 -332 -262z" />
    <glyph glyph-name="dagger" unicode="&#x2020;" horiz-adv-x="1312" 
d="M922 1237l368 10l-45 -213l-364 10l-269 -1259h-227l268 1259l-372 -10l45 213l368 -10l107 504h227z" />
    <glyph glyph-name="daggerdbl" unicode="&#x2021;" horiz-adv-x="1314" 
d="M1292 1247l-45 -213l-366 10l-119 -555l371 11l-46 -213l-366 10l-109 -512h-225l109 512l-373 -10l45 213l369 -11l118 555l-372 -10l45 213l368 -10l107 504h225l-106 -504z" />
    <glyph glyph-name="bullet" unicode="&#x2022;" horiz-adv-x="802" 
d="M592 354h-455l96 449h455z" />
    <glyph glyph-name="ellipsis" unicode="&#x2026;" horiz-adv-x="1738" 
d="M317 0h-286l55 258h285zM899 0h-285l54 258h286zM1483 0h-287l55 258h285z" />
    <glyph glyph-name="perthousand" unicode="&#x2030;" horiz-adv-x="3543" 
d="M594 594q-154 0 -237 87q-83 88 -83 245q0 68 17 153q95 443 444 443q150 0 234 -87t84 -241q0 -50 -17 -152q-90 -448 -442 -448zM811 -31h-213l1231 1520h211zM600 752q100 0 159 74q60 75 93 237q16 74 16 133q0 168 -141 168q-99 0 -159 -75t-93 -236
q-16 -74 -16 -138q0 -163 141 -163zM1942 -33q-156 0 -239 87q-83 88 -83 245q0 69 18 154q94 442 443 442q151 0 234 -87q83 -88 83 -241q0 -75 -16 -151q-89 -449 -440 -449zM2904 -33q-156 0 -239 87q-82 86 -82 245q0 69 18 154q94 442 442 442q153 0 235 -87
q83 -88 83 -241q0 -71 -17 -151q-90 -449 -440 -449zM1948 125q188 0 250 309q16 76 16 135q0 168 -141 168q-100 0 -159 -74q-60 -75 -93 -237q-17 -79 -17 -137q0 -164 144 -164zM2910 125q188 0 250 309q16 76 16 135q0 168 -141 168q-100 0 -159 -74q-60 -75 -93 -237
q-16 -74 -16 -137q0 -164 143 -164z" />
    <glyph glyph-name="guilsinglleft" unicode="&#x2039;" horiz-adv-x="819" 
d="M614 238l-53 -258l-442 436l47 221l627 436l-64 -291l-395 -272z" />
    <glyph glyph-name="guilsinglright" unicode="&#x203a;" horiz-adv-x="819" 
d="M651 416l-624 -436l61 292l397 273l-280 270l55 258l438 -436z" />
    <glyph glyph-name="uni203D" unicode="&#x203d;" horiz-adv-x="1277" 
d="M784 1489q228 0 367 -100q139 -102 139 -275q0 -241 -284 -387l-107 -55q-94 -49 -139 -102q-47 -55 -76 -148h-156l60 498l35 159h247l-34 -159l-33 -109q3 3 35 20q111 60 160 121q51 63 51 140q0 192 -277 192q-154 0 -236 -67q-84 -69 -108 -209h-242q38 232 190 356
q154 125 408 125zM649 0h-262l53 258h262z" />
    <glyph glyph-name="fraction" unicode="&#x2044;" horiz-adv-x="747" 
d="M-92 -31h-213l1233 1520h211z" />
    <glyph glyph-name="zero.sups" unicode="&#x2070;" horiz-adv-x="905" 
d="M526 729q-156 0 -238 87q-83 88 -83 245q0 67 18 153q96 443 443 443q152 0 234 -87q83 -88 83 -241q0 -75 -16 -151q-90 -449 -441 -449zM532 887q94 0 156 75t96 234q15 72 15 135q0 168 -142 168q-98 0 -158 -75t-93 -236q-17 -94 -17 -137q0 -164 143 -164z" />
    <glyph glyph-name="four.sups" unicode="&#x2074;" horiz-adv-x="927" 
d="M745 762h-178l39 178l-432 -6l31 151l524 543h201l-117 -543l150 7l-35 -158l-146 6zM700 1417l-311 -327l248 -5l70 330z" />
    <glyph glyph-name="five.sups" unicode="&#x2075;" horiz-adv-x="911" 
d="M510 729q-130 0 -215 55q-86 56 -113 150l189 49q30 -98 155 -98q92 0 149 48q56 47 56 124q0 59 -40 93t-109 34q-92 0 -158 -60l-166 58l184 454h553l-37 -157h-419l-78 -193l4 -2q91 49 197 49q122 0 194 -69t72 -185q0 -150 -115 -250q-113 -100 -303 -100z" />
    <glyph glyph-name="six.sups" unicode="&#x2076;" horiz-adv-x="931" 
d="M557 729q-157 0 -242 88q-86 89 -86 254q0 239 127 412q127 172 340 172q228 0 301 -189l-180 -36q-34 79 -135 79q-186 0 -252 -270q92 102 244 102q123 0 200 -70q78 -70 78 -186q0 -147 -110 -251q-112 -105 -285 -105zM565 879q86 0 143 54q56 53 56 134q0 59 -39 93
q-38 34 -107 34q-86 0 -147 -53q-59 -52 -59 -129q0 -62 43 -98q42 -35 110 -35z" />
    <glyph glyph-name="seven.sups" unicode="&#x2077;" horiz-adv-x="802" 
d="M451 762h-193q117 418 469 715h-459l35 159h670l-33 -149q-197 -153 -308 -320q-114 -170 -181 -405z" />
    <glyph glyph-name="eight.sups" unicode="&#x2078;" horiz-adv-x="952" 
d="M547 735q-164 0 -260 69q-97 70 -97 179q0 90 65 160q65 69 169 90v6q-98 46 -98 156q0 113 102 186q103 74 266 74q141 0 227 -59q85 -58 85 -152q0 -73 -50 -131t-129 -74v-6q138 -52 138 -197q0 -134 -117 -217q-118 -84 -301 -84zM641 1292q83 0 132 36q50 36 50 95
q0 93 -137 93q-84 0 -134 -36t-50 -96q0 -92 139 -92zM559 877q97 0 157 45t60 114q0 119 -168 119q-102 0 -163 -44q-60 -43 -60 -114q0 -60 46 -90t128 -30z" />
    <glyph glyph-name="nine.sups" unicode="&#x2079;" horiz-adv-x="929" 
d="M516 731q-227 0 -301 187l180 36q40 -77 137 -77q184 0 250 268q-95 -101 -243 -101q-122 0 -201 70q-78 69 -78 184q0 149 113 254q111 105 282 105q156 0 243 -89q87 -88 87 -255q0 -237 -127 -410q-124 -172 -342 -172zM596 1190q85 0 145 54t60 130q0 59 -42 95
t-110 36q-86 0 -143 -54t-57 -132q0 -61 39 -94q41 -35 108 -35z" />
    <glyph glyph-name="plus.sups" unicode="&#x207a;" horiz-adv-x="987" 
d="M555 1206h322v-141h-322v-303h-149v303h-320v141h320v305h149v-305z" />
    <glyph glyph-name="minus.sups" unicode="&#x207b;" horiz-adv-x="974" 
d="M864 1067h-778v141h778v-141z" />
    <glyph glyph-name="parenleft.sups" unicode="&#x207d;" horiz-adv-x="622" 
d="M518 485h-196q-95 198 -95 435q0 235 97 462t272 390h197q-171 -186 -259 -414q-90 -233 -90 -473q0 -213 74 -400z" />
    <glyph glyph-name="parenright.sups" unicode="&#x207e;" horiz-adv-x="622" 
d="M283 485h-195q171 186 259 414q89 231 89 473q0 213 -74 400h195q94 -195 94 -435q0 -239 -97 -463q-98 -227 -271 -389z" />
    <glyph glyph-name="n.sups" unicode="&#x207f;" horiz-adv-x="993" 
d="M772 1479q102 0 166 -55q63 -54 63 -152q0 -47 -14 -109l-86 -401h-199l78 358q15 66 15 97q0 98 -113 98q-78 0 -137 -52q-60 -52 -78 -143l-76 -358h-196l147 696h178l-18 -112q114 133 270 133z" />
    <glyph glyph-name="zero.subs" unicode="&#x2080;" horiz-adv-x="905" 
d="M289 -391q-157 0 -239 87q-83 88 -83 245q0 63 19 153q96 443 442 443q152 0 235 -87q82 -86 82 -241q0 -76 -16 -152q-90 -448 -440 -448zM295 -233q95 0 156 74q61 75 96 235q14 67 14 135q0 168 -141 168q-99 0 -159 -75t-93 -236q-16 -89 -16 -138q0 -163 143 -163z
" />
    <glyph glyph-name="one.subs" unicode="&#x2081;" horiz-adv-x="610" 
d="M279 -358h-183l125 579h-215l29 137h67q160 0 193 123l10 27h160z" />
    <glyph glyph-name="two.subs" unicode="&#x2082;" horiz-adv-x="884" 
d="M592 -358h-676q29 154 94 243q67 91 180 142l211 94q144 63 144 153q0 105 -135 105q-147 0 -177 -146h-186q29 147 127 224q99 78 256 78q136 0 220 -64q83 -63 83 -172q0 -184 -248 -295l-182 -86q-115 -52 -137 -115h461z" />
    <glyph glyph-name="three.subs" unicode="&#x2083;" horiz-adv-x="913" 
d="M295 -391q-301 0 -328 276l183 21q2 -144 155 -144q87 0 137 40q52 41 52 104q0 98 -150 98h-59l32 158h62q77 0 124 33q46 33 46 88q0 98 -141 98q-149 0 -183 -121l-178 29q30 113 130 180q99 66 249 66q138 0 225 -61q86 -60 86 -159q0 -79 -51 -139q-50 -59 -137 -82
l-2 -2q61 -16 97 -64t36 -116q0 -131 -107 -217t-278 -86z" />
    <glyph glyph-name="four.subs" unicode="&#x2084;" horiz-adv-x="927" 
d="M508 -358h-178l39 178l-432 -6l30 151l525 543h200l-117 -543l150 6l-35 -157l-145 6zM463 297l-311 -328l247 -4l70 330z" />
    <glyph glyph-name="five.subs" unicode="&#x2085;" horiz-adv-x="911" 
d="M272 -391q-130 0 -215 55t-112 150l188 49q30 -99 156 -99q90 0 148 49q57 48 57 124q0 59 -40 93q-39 33 -110 33q-93 0 -158 -59l-166 57l185 455h553l-37 -158h-420l-78 -192l4 -2q91 49 197 49q121 0 194 -70q72 -69 72 -184q0 -149 -115 -252q-116 -98 -303 -98z
" />
    <glyph glyph-name="six.subs" unicode="&#x2086;" horiz-adv-x="931" 
d="M319 -391q-156 0 -241 88q-86 89 -86 254q0 238 127 411q125 173 340 173q227 0 301 -189l-180 -37q-35 80 -136 80q-185 0 -251 -270q91 102 243 102q124 0 201 -70q78 -71 78 -186q0 -147 -111 -252q-111 -104 -285 -104zM328 -242q84 0 142 55q56 53 56 134
q0 58 -39 93q-38 34 -106 34q-86 0 -148 -54q-59 -52 -59 -129q0 -61 43 -97t111 -36z" />
    <glyph glyph-name="seven.subs" unicode="&#x2087;" horiz-adv-x="802" 
d="M213 -358h-193q117 417 469 714h-458l35 160h669l-33 -149q-197 -153 -308 -320q-114 -170 -181 -405z" />
    <glyph glyph-name="eight.subs" unicode="&#x2088;" horiz-adv-x="952" 
d="M309 -385q-164 0 -260 69t-96 179q0 92 64 160q65 69 169 90v6q-98 46 -98 155q0 113 102 187q103 74 267 74q140 0 226 -59q85 -58 85 -152q0 -75 -49 -131q-50 -58 -129 -74v-6q137 -51 137 -197q0 -133 -117 -217q-119 -84 -301 -84zM403 172q83 0 133 36t50 95
q0 92 -137 92q-85 0 -135 -36t-50 -95q0 -92 139 -92zM322 -244q96 0 156 45q61 46 61 115q0 119 -168 119q-102 0 -163 -44t-61 -114q0 -60 47 -90q48 -31 128 -31z" />
    <glyph glyph-name="nine.subs" unicode="&#x2089;" horiz-adv-x="929" 
d="M279 -389q-229 0 -302 186l181 37q41 -78 137 -78q184 0 250 269q-95 -101 -244 -101q-122 0 -201 70q-77 68 -77 184q0 149 112 254q111 105 283 105q154 0 242 -90t88 -254q0 -237 -127 -410q-124 -172 -342 -172zM358 70q86 0 146 54q59 53 59 130q0 59 -42 95
t-109 36q-87 0 -144 -54t-57 -132q0 -61 40 -95t107 -34z" />
    <glyph glyph-name="plus.subs" unicode="&#x208a;" horiz-adv-x="987" 
d="M330 141h321v-141h-321v-303h-150v303h-319v141h319v305h150v-305z" />
    <glyph glyph-name="minus.subs" unicode="&#x208b;" horiz-adv-x="974" 
d="M639 2h-778v141h778v-141z" />
    <glyph glyph-name="equal.subs" unicode="&#x208c;" horiz-adv-x="974" 
d="M639 172h-778v139h778v-139zM639 -172h-778v141h778v-141z" />
    <glyph glyph-name="uni208D" unicode="&#x208d;" horiz-adv-x="622" 
d="M281 -635h-197q-94 200 -94 434q0 238 96 463t272 389h197q-173 -186 -259 -412q-89 -232 -89 -475q0 -209 74 -399z" />
    <glyph glyph-name="uni208E" unicode="&#x208e;" horiz-adv-x="622" 
d="M43 -635h-195q173 189 260 415q89 232 89 474q0 216 -74 397h194q95 -198 95 -432q0 -238 -97 -465q-96 -225 -272 -389z" />
    <glyph glyph-name="n.subs" unicode="&#x2099;" horiz-adv-x="991" 
d="M532 358q103 0 166 -54q64 -55 64 -152q0 -47 -14 -109l-86 -401h-199l78 358q14 62 14 96q0 99 -113 99q-76 0 -137 -53q-60 -53 -78 -142l-75 -358h-197l147 696h179l-19 -113q114 133 270 133z" />
    <glyph glyph-name="Euro" unicode="&#x20ac;" 
d="M1157 1272q-314 0 -477 -256h670l-41 -189h-715q-22 -69 -33 -120l-12 -68h721l-41 -188h-686q29 -269 352 -269q142 0 289 45l-51 -225q-137 -35 -271 -35q-250 0 -395 127q-145 128 -168 357h-274l41 188h235q10 88 39 188h-236l41 189h267q111 224 302 348
q193 125 433 125q147 0 295 -53l-49 -207q-105 43 -236 43z" />
    <glyph glyph-name="uni20B8" unicode="&#x20b8;" horiz-adv-x="1286" 
d="M209 1239l45 219h1171l-45 -219h-1171zM584 829h-463l47 220h1171l-47 -220h-458l-179 -829h-247z" />
    <glyph glyph-name="uni20B9" unicode="&#x20b9;" 
d="M1448 1458l-39 -184h-459q53 -65 54 -156h372l-39 -184h-364q-74 -191 -307 -240q83 -22 124 -84q39 -60 50 -176l37 -434h-254l-21 406q-4 111 -48 149q-43 37 -167 37h-291l39 186h320q193 0 272 156h-559l39 184h563v15q0 141 -172 141h-358l39 184h1169z" />
    <glyph glyph-name="uni20BA" unicode="&#x20ba;" 
d="M1026 514h234q-78 -249 -266 -382q-188 -132 -453 -132h-344l84 393l-312 -145l43 221l320 149l41 193l-316 -147l45 219l316 149l90 426h248l-64 -297l457 215l-43 -219l-461 -217l-41 -195l457 216l-43 -220l-463 -219l-63 -301h65q346 0 469 293z" />
    <glyph glyph-name="uni20BC" unicode="&#x20bc;" 
d="M961 1458l-80 -377q381 -17 381 -354q0 -87 -21 -170l-119 -557h-235l129 602q14 67 14 115q0 83 -44 121q-43 37 -148 43l-142 -664h-235l141 662q-128 -15 -199 -85q-72 -70 -102 -212l-123 -582h-237l125 588q52 247 193 368q140 120 386 125l80 377h236z" />
    <glyph glyph-name="uni20BF" unicode="&#x20bf;" horiz-adv-x="1464" 
d="M1096 774q211 -76 211 -297q0 -194 -126 -320q-127 -127 -337 -151l-64 -301h-194l63 295h-180l-63 -295h-193l63 295h-215l312 1458h211l59 277h193l-58 -277h178l60 277h194l-61 -291q116 -28 181 -108t65 -189q0 -136 -79 -233q-79 -96 -220 -140zM496 868h362
q128 0 204 66q77 66 77 170q0 147 -199 147h-365zM354 211h394q148 0 231 76q84 77 84 207q0 170 -219 170h-393z" />
    <glyph glyph-name="uni2105" unicode="&#x2105;" horiz-adv-x="2543" 
d="M821 -31h-215l1233 1520h211zM639 750q-159 0 -251 84q-91 84 -91 231q0 178 125 297q122 119 317 119q147 0 238 -68q90 -68 102 -184l-205 -21q-10 121 -147 121q-108 0 -167 -74q-58 -73 -58 -184q0 -170 160 -170q129 0 186 129l201 -29q-45 -114 -153 -183
q-106 -68 -257 -68zM1894 -29q-167 0 -262 85q-96 85 -96 233q0 187 121 301q118 112 315 112q166 0 261 -84q96 -85 96 -231q0 -188 -119 -302q-118 -114 -316 -114zM1911 123q100 0 157 66q58 67 58 184q0 178 -170 178q-103 0 -160 -68q-57 -67 -57 -182q0 -85 45 -132
q45 -46 127 -46z" />
    <glyph glyph-name="uni2113" unicode="&#x2113;" horiz-adv-x="1140" 
d="M637 168q99 0 188 92l121 -151q-136 -144 -334 -144q-146 0 -231 78q-86 78 -86 215v131l-166 -78l-80 187l246 96v584q0 149 83 230q82 81 240 81q343 0 343 -389q0 -231 -103 -376q-103 -146 -334 -237v-198q0 -121 113 -121zM623 1290q-99 0 -99 -116v-472
q118 73 167 157q48 83 48 216q0 215 -116 215z" />
    <glyph glyph-name="uni2116" unicode="&#x2116;" horiz-adv-x="2441" 
d="M2126 1481q167 0 261 -85q95 -86 95 -231q0 -188 -119 -301q-121 -114 -315 -114q-167 0 -262 85q-96 85 -96 232q0 188 120 301q119 113 316 113zM608 1458l463 -1073l227 1073h242l-311 -1458h-238l-459 1067l-227 -1067h-244l312 1458h235zM2064 901q98 0 157 67
q58 65 58 183q0 85 -45 132q-45 46 -125 46q-102 0 -160 -67q-59 -68 -59 -183q0 -86 46 -132t128 -46z" />
    <glyph glyph-name="uni2117" unicode="&#x2117;" horiz-adv-x="1787" 
d="M383 1278q220 215 553 215t553 -215q217 -214 217 -549q0 -331 -217 -545q-217 -217 -553 -217q-334 0 -551 217q-219 214 -219 545q0 335 217 549zM936 123q264 0 432 172q168 168 168 434t-168 436q-170 170 -432 170q-260 0 -430 -170q-170 -175 -170 -436
q0 -264 170 -434q169 -172 430 -172zM684 1120h324q120 0 192 -72t72 -190q0 -119 -76 -191q-78 -73 -199 -73h-139v-246h-174v772zM858 741h117q123 0 123 117q0 115 -119 115h-121v-232z" />
    <glyph glyph-name="trademark" unicode="&#x2122;" horiz-adv-x="2203" 
d="M711 676h-185v624h-243v158h669v-158h-241v-624zM1290 676h-170v782h324l153 -655h21l143 655h330v-782h-174v655h-23l-145 -655h-285l-151 655h-23v-655z" />
    <glyph glyph-name="uni2126" unicode="&#x2126;" horiz-adv-x="1796" 
d="M784 0h-612v205h309v4q-299 209 -299 588q0 312 191 503q192 189 501 189q313 0 502 -189q187 -187 187 -503q0 -386 -295 -588v-4h311v-205h-610v190q344 183 344 590q0 240 -117 366t-322 126q-206 0 -324 -126q-118 -125 -118 -366q0 -404 352 -590v-190z" />
    <glyph glyph-name="estimated" unicode="&#x212e;" horiz-adv-x="1861" 
d="M328 1272q226 215 604 215q377 0 602 -225q223 -224 223 -555h-1319q-28 0 -28 -27v-358q0 -68 32 -97q200 -196 490 -196q152 0 289 63q135 62 225 172h149q-89 -126 -263 -209q-171 -82 -400 -82q-370 0 -600 213q-230 212 -230 541q0 330 226 545zM932 1430
q-289 0 -490 -201q-32 -29 -32 -88v-361q0 -26 28 -26h981q29 0 29 26v361q0 58 -33 88q-205 201 -483 201z" />
    <glyph glyph-name="uni2153" unicode="&#x2153;" horiz-adv-x="2267" 
d="M592 627h-184l124 579h-213l29 137h66q160 0 194 123l8 29h160zM549 -31h-213l1231 1520h211zM1647 -33q-151 0 -233 72q-83 72 -93 205l180 20q1 -143 156 -143q87 0 137 40q51 40 51 103q0 98 -149 98h-60l33 158h64q77 0 122 33q46 34 46 88q0 98 -142 98
q-148 0 -182 -121l-176 29q30 114 129 180t248 66q140 0 226 -60q85 -60 85 -159q0 -79 -51 -139q-50 -59 -137 -82v-2q131 -38 131 -181q0 -131 -107 -217t-278 -86z" />
    <glyph glyph-name="uni2154" unicode="&#x2154;" horiz-adv-x="2543" 
d="M872 627h-675q52 286 276 385l211 94q143 63 143 156q0 102 -137 102q-146 0 -174 -145h-188q28 143 127 222q98 79 256 79q139 0 221 -63t82 -171q0 -186 -246 -297l-184 -86q-113 -50 -135 -115h458zM825 -31h-215l1233 1520h211zM1923 -33q-301 0 -328 277l183 20
q1 -143 155 -143q88 0 138 40q51 40 51 103q0 98 -150 98h-59l33 158h61q77 0 124 33q46 33 46 88q0 98 -141 98q-149 0 -183 -121l-178 29q30 113 130 180q99 66 249 66q140 0 225 -60q86 -60 86 -159q0 -79 -51 -139q-50 -59 -137 -82l-2 -2q60 -16 97 -65q36 -48 36 -116
q0 -132 -106 -217q-107 -86 -279 -86z" />
    <glyph glyph-name="uni2155" unicode="&#x2155;" horiz-adv-x="2310" 
d="M592 627h-184l124 579h-213l29 137h66q160 0 194 123l8 29h160zM549 -31h-213l1231 1520h211zM1665 -33q-127 0 -213 55q-85 55 -115 150l189 49q30 -98 155 -98q92 0 149 48q56 47 56 124q0 59 -40 93t-109 34q-92 0 -158 -60l-166 58l186 454h551l-36 -157h-420
l-78 -193l4 -2q91 49 197 49q122 0 194 -69t72 -185q0 -149 -115 -249q-115 -101 -303 -101z" />
    <glyph glyph-name="uni2156" unicode="&#x2156;" horiz-adv-x="2560" 
d="M872 627h-675q52 286 276 385l211 94q143 63 143 156q0 102 -137 102q-146 0 -174 -145h-188q28 143 127 222q98 79 256 79q139 0 221 -63t82 -171q0 -186 -246 -297l-184 -86q-113 -50 -135 -115h458zM799 -31h-213l1233 1520h211zM1917 -33q-131 0 -216 54
q-85 53 -112 151l187 49q30 -98 157 -98q92 0 149 48q56 47 56 124q0 59 -40 93t-109 34q-94 0 -160 -60l-164 58l184 454h553l-37 -157h-421l-78 -193l4 -2q91 49 196 49q125 0 197 -69t72 -185q0 -150 -117 -249q-115 -101 -301 -101z" />
    <glyph glyph-name="uni2157" unicode="&#x2157;" horiz-adv-x="2525" 
d="M578 594q-148 0 -231 72q-83 73 -95 204l182 21q1 -143 154 -143q87 0 138 39q52 40 52 104q0 100 -149 100h-60l33 156h62q77 0 123 34q47 35 47 87q0 100 -142 100q-148 0 -182 -123l-178 29q30 113 130 180q99 66 249 66q138 0 225 -61q86 -60 86 -156q0 -80 -51 -140
q-50 -59 -137 -82l-3 -4q63 -17 98 -64q36 -48 36 -116q0 -132 -107 -218q-106 -85 -280 -85zM764 -31h-213l1231 1520h211zM1880 -33q-127 0 -213 55q-85 55 -115 150l189 49q30 -98 155 -98q92 0 149 48q56 47 56 124q0 59 -40 93t-109 34q-92 0 -158 -60l-166 58l187 454
h550l-36 -157h-420l-78 -193l4 -2q91 49 197 49q122 0 194 -69t72 -185q0 -149 -115 -249q-115 -101 -303 -101z" />
    <glyph glyph-name="uni2158" unicode="&#x2158;" horiz-adv-x="2600" 
d="M803 627h-176l37 178l-433 -6l33 151l522 545h201l-115 -545l148 6l-33 -157l-145 6zM840 -31h-213l1231 1520h210zM760 1282l-311 -328l245 -4l72 330zM1956 -33q-127 0 -213 55q-85 55 -115 150l189 49q30 -98 155 -98q92 0 149 48q56 47 56 124q0 59 -40 93t-109 34
q-92 0 -158 -60l-166 58l186 454h551l-37 -157h-419l-78 -193l4 -2q91 49 196 49q123 0 195 -69t72 -185q0 -149 -115 -249q-115 -101 -303 -101z" />
    <glyph glyph-name="uni2159" unicode="&#x2159;" horiz-adv-x="2244" 
d="M592 627h-184l124 579h-213l29 137h66q160 0 194 123l8 29h160zM549 -31h-213l1231 1520h211zM1626 -33q-159 0 -244 88q-86 89 -86 254q0 239 127 412q127 172 340 172q228 0 301 -188l-180 -37q-33 80 -135 80q-189 0 -252 -271q92 103 244 103q122 0 201 -71
q77 -70 77 -185q0 -148 -110 -252q-114 -105 -283 -105zM1632 117q87 0 144 54t57 134q0 59 -40 93t-107 34q-87 0 -148 -53q-59 -52 -59 -129q0 -61 43 -97q44 -36 110 -36z" />
    <glyph glyph-name="uni215A" unicode="&#x215a;" horiz-adv-x="2447" 
d="M559 594q-129 0 -214 54t-114 153l189 47q30 -98 155 -98q92 0 149 48q56 47 56 124q0 59 -40 93t-109 34q-97 0 -158 -58l-166 56l187 454h553l-39 -158h-420l-78 -192l4 -2q91 49 197 49q121 0 194 -70q72 -69 72 -182q0 -152 -115 -252q-113 -100 -303 -100zM750 -31
h-213l1232 1520h211zM1827 -33q-159 0 -244 88q-86 89 -86 254q0 239 127 412q124 172 342 172q109 0 188 -50q78 -49 111 -138l-178 -37q-39 80 -137 80q-189 0 -252 -271q97 103 246 103q121 0 200 -71q78 -70 78 -185q0 -147 -111 -252q-113 -105 -284 -105zM1833 117
q86 0 143 54q58 55 58 134q0 59 -40 93t-108 34q-86 0 -147 -53q-60 -53 -60 -129q0 -61 43 -97q44 -36 111 -36z" />
    <glyph glyph-name="oneeighth" unicode="&#x215b;" horiz-adv-x="2291" 
d="M592 627h-184l124 579h-213l29 137h66q160 0 194 123l8 29h160zM549 -31h-213l1231 1520h211zM1640 -27q-163 0 -260 68q-96 67 -96 180q0 90 65 160q65 69 169 90v6q-99 45 -99 156q0 112 103 186t266 74q141 0 226 -58t85 -153q0 -71 -50 -130q-49 -58 -128 -75l-2 -6
q139 -52 139 -197q0 -135 -116 -217q-118 -84 -302 -84zM1733 530q83 0 133 37q51 37 51 95q0 92 -139 92q-84 0 -134 -36q-51 -37 -51 -95q0 -93 140 -93zM1651 115q98 0 158 45q61 46 61 114q0 119 -170 119q-102 0 -163 -44q-60 -43 -60 -113q0 -61 46 -91
q47 -30 128 -30z" />
    <glyph glyph-name="threeeighths" unicode="&#x215c;" horiz-adv-x="2506" 
d="M578 594q-148 0 -231 72q-83 73 -95 204l182 21q1 -143 154 -143q87 0 138 39q52 40 52 104q0 100 -149 100h-60l33 156h62q77 0 123 34q47 35 47 87q0 100 -142 100q-148 0 -182 -123l-178 29q30 113 130 180q99 66 249 66q138 0 225 -61q86 -60 86 -156q0 -80 -51 -140
q-50 -59 -137 -82l-3 -4q63 -17 98 -64q36 -48 36 -116q0 -132 -107 -218q-106 -85 -280 -85zM764 -31h-213l1231 1520h211zM1855 -27q-163 0 -260 68q-96 67 -96 180q0 90 65 160q65 69 169 90v6q-99 45 -99 156q0 112 103 186t266 74q141 0 226 -58t85 -153
q0 -71 -50 -130q-49 -58 -128 -75l-2 -6q139 -52 139 -197q0 -135 -116 -217q-119 -84 -302 -84zM1948 530q83 0 133 37q51 37 51 95q0 92 -139 92q-85 0 -134 -36q-51 -37 -51 -95q0 -93 140 -93zM1866 115q98 0 158 45q61 46 61 114q0 119 -170 119q-102 0 -163 -44
q-60 -43 -60 -113q0 -61 46 -91t128 -30z" />
    <glyph glyph-name="fiveeighths" unicode="&#x215d;" horiz-adv-x="2492" 
d="M559 594q-129 0 -214 54t-114 153l189 47q30 -98 155 -98q92 0 149 48q56 47 56 124q0 59 -40 93t-109 34q-97 0 -158 -58l-166 56l187 454h553l-39 -158h-420l-78 -192l4 -2q91 49 197 49q121 0 194 -70q72 -69 72 -182q0 -152 -115 -252q-113 -100 -303 -100zM750 -31
h-213l1232 1520h211zM1841 -27q-164 0 -259 68t-95 180q0 92 63 161q62 68 168 89l2 6q-100 43 -100 156t102 186q101 74 267 74q141 0 226 -58t85 -153q0 -75 -49 -131q-50 -58 -129 -74v-6q137 -51 137 -197q0 -134 -117 -217q-118 -84 -301 -84zM1935 530q83 0 132 36
q51 37 51 96q0 92 -138 92q-84 0 -134 -36t-50 -95q0 -93 139 -93zM1853 115q99 0 159 45q61 46 61 114q0 119 -170 119q-102 0 -163 -44t-61 -113q0 -61 46 -91t128 -30z" />
    <glyph glyph-name="seveneighths" unicode="&#x215e;" horiz-adv-x="2279" 
d="M528 627h-192q122 421 471 714h-461l35 160h670l-33 -149q-197 -153 -308 -320q-115 -173 -182 -405zM537 -31h-215l1232 1520h211zM1628 -27q-163 0 -260 68q-96 67 -96 180q0 92 64 160q64 69 167 90l2 6q-98 45 -98 156q0 113 102 186q103 74 267 74q141 0 226 -58
t85 -153q0 -71 -50 -130q-49 -58 -128 -75l-2 -6q139 -52 139 -197q0 -134 -117 -217q-119 -84 -301 -84zM1720 530q83 0 133 37q52 38 52 95q0 92 -140 92q-85 0 -134 -36q-50 -36 -50 -95q0 -93 139 -93zM1638 115q99 0 159 45q61 46 61 114q0 119 -170 119
q-102 0 -163 -44t-61 -113q0 -61 46 -91t128 -30z" />
    <glyph glyph-name="arrowleft" unicode="&#x2190;" horiz-adv-x="2048" 
d="M655 846h1145v-234h-1143l217 -274l254 -338h-270l-551 729l551 729h270l-254 -336z" />
    <glyph glyph-name="arrowup" unicode="&#x2191;" horiz-adv-x="2048" 
d="M354 942l729 551l729 -551v-270l-337 254l-273 215v-1141h-239v1141l-271 -215l-338 -254v270z" />
    <glyph glyph-name="arrowright" unicode="&#x2192;" horiz-adv-x="2045" 
d="M1006 1458h268l551 -729l-551 -729h-268l254 338l215 274h-1141v234h1143l-217 276z" />
    <glyph glyph-name="arrowdown" unicode="&#x2193;" horiz-adv-x="2048" 
d="M1169 315l275 217l338 254v-270l-731 -551l-729 551v270l337 -254l271 -215v1141h239v-1143z" />
    <glyph glyph-name="arrowboth" unicode="&#x2194;" horiz-adv-x="2740" 
d="M1698 1458h268l551 -729l-551 -729h-268l254 338l215 274h-1510l217 -274l254 -338h-270l-551 729l551 729h270l-254 -336l-219 -276h1514l-217 276z" />
    <glyph glyph-name="arrowupdn" unicode="&#x2195;" horiz-adv-x="2228" 
d="M1278 -10l274 217l338 254v-268l-729 -551l-729 551v268l338 -254l274 -217v1513l-276 -217l-338 -254v268l729 551l729 -551v-268l-338 254l-272 215v-1511z" />
    <glyph glyph-name="uni2196" unicode="&#x2196;" horiz-adv-x="2115" 
d="M807 1147l991 -979l-172 -168l-987 983l12 -377v-520h-233v1282h1296v-233h-524z" />
    <glyph glyph-name="uni2197" unicode="&#x2197;" horiz-adv-x="2048" 
d="M420 1135v233h1294v-1282h-233v520l12 377l-987 -983l-172 168l991 979l-383 -12h-522z" />
    <glyph glyph-name="uni2198" unicode="&#x2198;" horiz-adv-x="2115" 
d="M1530 762v520h233v-1282h-1294v233h524l383 -12l-993 979l172 168l987 -983z" />
    <glyph glyph-name="uni2199" unicode="&#x2199;" horiz-adv-x="2050" 
d="M1780 1200l-992 -979l383 12h525v-233h-1295v1282h234v-520l-12 -375l987 981z" />
    <glyph glyph-name="partialdiff" unicode="&#x2202;" horiz-adv-x="1300" 
d="M647 1477q555 0 555 -744q0 -758 -530 -758q-220 0 -348 128q-127 127 -127 350q0 222 122 348q123 127 332 127q182 0 310 -107q-15 237 -95 344t-235 107q-113 0 -266 -62l-74 193q186 74 356 74zM680 178q130 0 196 91q65 91 82 286q-47 80 -120 125q-74 45 -160 45
q-110 0 -176 -71q-66 -70 -66 -201q0 -129 64 -202t180 -73z" />
    <glyph glyph-name="uni2206" unicode="&#x2206;" horiz-adv-x="1478" 
d="M494 1458h284l533 -1458h-1358zM547 936l-256 -727h680l-250 727l-86 283z" />
    <glyph glyph-name="product" unicode="&#x220f;" horiz-adv-x="1910" 
d="M373 1458h1165v-1876h-250v1653h-667v-1653h-248v1876z" />
    <glyph glyph-name="summation" unicode="&#x2211;" horiz-adv-x="1736" 
d="M303 1458h1131v-219h-824l568 -709l-584 -729h838v-219h-1156v197l609 758l-582 725v196z" />
    <glyph glyph-name="minus" unicode="&#x2212;" 
d="M1235 528h-1096v207h1096v-207z" />
    <glyph glyph-name="uni2215" unicode="&#x2215;" horiz-adv-x="747" 
d="M-92 -31h-213l1233 1520h211z" />
    <glyph glyph-name="uni2219" unicode="&#x2219;" horiz-adv-x="741" 
d="M561 354h-455l97 449h454z" />
    <glyph glyph-name="radical" unicode="&#x221a;" 
d="M942 -418h-321l-222 608l-219 -84l-74 201l433 160l225 -653l352 1716h230z" />
    <glyph glyph-name="infinity" unicode="&#x221e;" horiz-adv-x="1632" 
d="M471 346q-158 0 -249 97t-91 259q0 164 92 262q91 97 246 97q105 0 194 -54q90 -55 191 -171q105 118 193 173q83 52 188 52q154 0 247 -97q93 -98 93 -259q0 -163 -92 -263q-91 -98 -248 -98q-104 0 -192 53q-84 51 -189 168q-106 -115 -195 -168q-85 -51 -188 -51z
M1235 535q67 0 108 45q41 46 41 122q0 81 -41 127q-40 45 -112 45q-111 0 -252 -174q126 -165 256 -165zM475 532q117 0 252 168q-140 170 -256 170q-69 0 -109 -46t-40 -122q0 -77 40 -123q41 -47 113 -47z" />
    <glyph glyph-name="integral" unicode="&#x222b;" 
d="M477 -418h-90v195h53q69 0 98 29t29 98v1298q0 328 328 328h92v-195h-55q-68 0 -96 -29q-29 -31 -29 -98v-1298q0 -328 -330 -328z" />
    <glyph glyph-name="approxequal" unicode="&#x2248;" 
d="M358 715h-204q0 381 297 381q78 2 170 -39q86 -38 169 -82q76 -41 117 -39q107 0 107 160h207q0 -189 -78 -285t-221 -96q-136 0 -254 82q-124 80 -201 80q-109 0 -109 -162zM358 203h-204q0 381 297 381q78 2 170 -39q86 -38 169 -82q76 -41 117 -39q107 0 107 160h207
q0 -189 -78 -285t-221 -96q-136 0 -254 82q-124 80 -201 80q-109 0 -109 -162z" />
    <glyph glyph-name="notequal" unicode="&#x2260;" 
d="M1235 971v-205h-395l-117 -264h512v-205h-604l-166 -373l-141 68l135 305h-320v205h412l119 264h-531v205h621l170 381l141 -68l-139 -313h303z" />
    <glyph glyph-name="lessequal" unicode="&#x2264;" 
d="M131 891l1112 338v-236l-856 -219l856 -215v-237l-1112 335v234zM1243 0h-1112v205h1112v-205z" />
    <glyph glyph-name="greaterequal" unicode="&#x2265;" 
d="M131 993v236l1112 -338v-234l-1112 -335v237l856 215zM1243 0h-1112v205h1112v-205z" />
    <glyph glyph-name="uni2460" unicode="&#x2460;" horiz-adv-x="2322" 
d="M1954 63q-289 -286 -740 -286q-450 0 -739 286q-293 287 -293 719q0 434 293 721q291 285 739 285q449 0 740 -285q293 -287 293 -721q0 -432 -293 -719zM647 219q223 -223 567 -223q345 0 568 223q225 225 225 563q0 339 -225 564q-223 223 -568 223q-344 0 -567 -223
q-225 -225 -225 -564q0 -338 225 -563zM1350 348h-181v584h-215v137h66q72 0 118 34q47 35 48 91l2 29h162v-875z" />
    <glyph glyph-name="uni2461" unicode="&#x2461;" horiz-adv-x="2322" 
d="M1954 63q-289 -286 -740 -286q-450 0 -739 286q-293 287 -293 719q0 434 293 721q291 285 739 285q449 0 740 -285q293 -287 293 -721q0 -432 -293 -719zM647 219q223 -223 567 -223q345 0 568 223q225 225 225 563q0 339 -225 564q-223 223 -568 223q-344 0 -567 -223
q-225 -225 -225 -564q0 -338 225 -563zM1561 365h-676q0 146 46 235q47 90 150 145l187 99q108 56 108 137q0 55 -40 88t-111 33q-79 0 -116 -35q-35 -34 -40 -111h-180q4 144 91 223q85 78 245 78q155 0 246 -73q92 -74 92 -201q0 -164 -195 -260l-156 -82q-59 -31 -82 -54
q-24 -24 -30 -61h461v-161z" />
    <glyph glyph-name="uni2462" unicode="&#x2462;" horiz-adv-x="2322" 
d="M1954 63q-289 -286 -740 -286q-450 0 -739 286q-293 287 -293 719q0 434 293 721q291 285 739 285q449 0 740 -285q293 -287 293 -721q0 -432 -293 -719zM647 219q223 -223 567 -223q345 0 568 223q225 225 225 563q0 339 -225 564q-223 223 -568 223q-344 0 -567 -223
q-225 -225 -225 -564q0 -338 225 -563zM1483 397q-93 -75 -260 -75q-163 0 -258 77t-99 220h181q6 -144 176 -144q168 0 168 125q0 119 -170 119h-76v156h78q143 0 143 106q0 115 -156 115q-148 0 -159 -123h-181q2 129 94 202q92 72 246 72q158 0 248 -66t90 -180
q0 -68 -38 -120t-105 -70v-4q78 -18 125 -76t47 -139q0 -119 -94 -195z" />
    <glyph glyph-name="uni2463" unicode="&#x2463;" horiz-adv-x="2322" 
d="M1954 63q-289 -286 -740 -286q-450 0 -739 286q-293 287 -293 719q0 434 293 721q291 285 739 285q449 0 740 -285q293 -287 293 -721q0 -432 -293 -719zM647 219q223 -223 567 -223q345 0 568 223q225 225 225 563q0 339 -225 564q-223 223 -568 223q-344 0 -567 -223
q-225 -225 -225 -564q0 -338 225 -563zM1430 360h-177v181l-432 -6v151l408 549h201v-549l149 4v-155l-149 6v-181zM1247 1020l-243 -330l249 -4v334h-6z" />
    <glyph glyph-name="uni2464" unicode="&#x2464;" horiz-adv-x="2322" 
d="M1954 63q-289 -286 -740 -286q-450 0 -739 286q-293 287 -293 719q0 434 293 721q291 285 739 285q449 0 740 -285q293 -287 293 -721q0 -432 -293 -719zM647 219q223 -223 567 -223q345 0 568 223q225 225 225 563q0 339 -225 564q-223 223 -568 223q-344 0 -567 -223
q-225 -225 -225 -564q0 -338 225 -563zM1225 324q-138 0 -228 59q-92 60 -120 164l184 28q40 -98 166 -98q83 0 127 40q45 41 45 110q0 71 -45 113t-127 42q-95 0 -150 -61l-180 31l82 481h543v-156h-414l-35 -196l4 -2q83 51 193 51q144 0 230 -81q85 -81 85 -212
q0 -139 -96 -226t-264 -87z" />
    <glyph glyph-name="uni2465" unicode="&#x2465;" horiz-adv-x="2322" 
d="M1954 63q-289 -286 -740 -286q-450 0 -739 286q-293 287 -293 719q0 434 293 721q291 285 739 285q449 0 740 -285q293 -287 293 -721q0 -432 -293 -719zM647 219q223 -223 567 -223q345 0 568 223q225 225 225 563q0 339 -225 564q-223 223 -568 223q-344 0 -567 -223
q-225 -225 -225 -564q0 -338 225 -563zM1237 330q-189 0 -286 116t-97 332q0 235 97 356t286 121q123 0 207 -51q85 -52 115 -137l-183 -35q-40 78 -143 78q-191 0 -203 -270q86 102 242 102q144 0 229 -82q86 -83 86 -219q0 -140 -95 -226q-94 -85 -255 -85zM1233 481
q79 0 126 44q46 43 46 116q0 72 -46 114q-47 42 -126 42q-80 0 -129 -43t-49 -111q0 -75 49 -118q50 -44 129 -44z" />
    <glyph glyph-name="uni2466" unicode="&#x2466;" horiz-adv-x="2322" 
d="M1954 63q-289 -286 -740 -286q-450 0 -739 286q-293 287 -293 719q0 434 293 721q291 285 739 285q449 0 740 -285q293 -287 293 -721q0 -432 -293 -719zM647 219q223 -223 567 -223q345 0 568 223q225 225 225 563q0 339 -225 564q-223 223 -568 223q-344 0 -567 -223
q-225 -225 -225 -564q0 -338 225 -563zM1243 322h-190q29 416 315 714h-459v160h670v-149q-162 -150 -240 -320q-81 -169 -96 -405z" />
    <glyph glyph-name="uni2467" unicode="&#x2467;" horiz-adv-x="2322" 
d="M1954 63q-289 -286 -740 -286q-450 0 -739 286q-293 287 -293 719q0 434 293 721q291 285 739 285q449 0 740 -285q293 -287 293 -721q0 -432 -293 -719zM647 219q223 -223 567 -223q345 0 568 223q225 225 225 563q0 339 -225 564q-223 223 -568 223q-344 0 -567 -223
q-225 -225 -225 -564q0 -338 225 -563zM1495 403q-101 -73 -278 -73q-178 0 -279 73q-102 73 -102 201q0 79 48 139t130 82v6q-61 22 -98 73q-35 48 -35 114q0 106 89 168q88 61 247 61q157 0 245 -61t88 -168q0 -138 -133 -187v-6q82 -22 130 -82t48 -139q0 -128 -100 -201
zM1217 885q74 0 115 29q42 30 42 83q0 111 -157 111q-160 0 -160 -111q0 -112 160 -112zM1217 469q91 0 141 37q51 38 51 104q0 138 -192 138q-195 0 -195 -138q0 -66 51 -104q50 -37 144 -37z" />
    <glyph glyph-name="uni2468" unicode="&#x2468;" horiz-adv-x="2322" 
d="M1954 63q-289 -286 -740 -286q-450 0 -739 286q-293 287 -293 719q0 434 293 721q291 285 739 285q449 0 740 -285q293 -287 293 -721q0 -432 -293 -719zM647 219q223 -223 567 -223q345 0 568 223q225 225 225 563q0 339 -225 564q-223 223 -568 223q-344 0 -567 -223
q-225 -225 -225 -564q0 -338 225 -563zM1214 319q-120 0 -206 52q-85 52 -115 137l180 33q43 -76 146 -76q190 0 202 268q-85 -100 -241 -100q-144 0 -230 81t-86 218q0 143 94 228t256 85q188 0 286 -117q97 -116 97 -333q0 -231 -97 -353q-98 -123 -286 -123zM1094 821
q46 -43 125 -43q80 0 129 43t49 111q0 75 -49 118q-50 44 -129 44t-126 -44q-46 -43 -46 -116q0 -72 47 -113z" />
    <glyph glyph-name="uni24EA" unicode="&#x24ea;" horiz-adv-x="2322" 
d="M1954 63q-289 -286 -740 -286q-450 0 -739 286q-293 287 -293 719q0 434 293 721q291 285 739 285q449 0 740 -285q293 -287 293 -721q0 -432 -293 -719zM647 219q223 -223 567 -223q345 0 568 223q225 225 225 563q0 339 -225 564q-223 223 -568 223q-344 0 -567 -223
q-225 -225 -225 -564q0 -338 225 -563zM1214 322q-185 0 -281 120q-97 121 -97 346q0 222 97 341q97 120 281 120t283 -120q98 -119 98 -341q0 -225 -97 -346q-96 -120 -284 -120zM1077 559q46 -70 137 -70q92 0 138 70q45 69 45 227q0 159 -45 228t-138 69q-92 0 -137 -69
t-45 -228q0 -158 45 -227z" />
    <glyph glyph-name="uni24FF" unicode="&#x24ff;" horiz-adv-x="2322" 
d="M1954 63q-289 -286 -740 -286q-450 0 -739 286q-293 287 -293 719q0 434 293 721q291 285 739 285q449 0 740 -285q293 -287 293 -721q0 -432 -293 -719zM1214 322q188 0 284 120q97 121 97 346q0 222 -98 341q-99 120 -283 120t-281 -120q-97 -119 -97 -341
q0 -225 97 -346q96 -120 281 -120zM1352 559q-46 -70 -138 -70q-91 0 -137 70q-45 69 -45 227q0 159 45 228t137 69q93 0 138 -69t45 -228q0 -158 -45 -227z" />
    <glyph glyph-name="filledbox" unicode="&#x25a0;" horiz-adv-x="2594" 
d="M2269 -180h-1859v1818h1859v-1818z" />
    <glyph glyph-name="uni25A1" unicode="&#x25a1;" horiz-adv-x="2594" 
d="M2269 -180h-1859v1818h1859v-1818zM649 1419v-1380h1379v1380h-1379z" />
    <glyph glyph-name="lozenge" unicode="&#x25ca;" horiz-adv-x="1198" 
d="M485 1458h314l356 -729l-356 -729h-314l-356 729zM365 729l278 -598l277 598l-277 598z" />
    <glyph glyph-name="circle" unicode="&#x25cb;" horiz-adv-x="2322" 
d="M1954 63q-289 -286 -740 -286q-450 0 -739 286q-293 287 -293 719q0 434 293 721q291 285 739 285q449 0 740 -285q293 -287 293 -721q0 -432 -293 -719zM647 219q223 -223 567 -223q345 0 568 223q225 225 225 563q0 339 -225 564q-223 223 -568 223q-344 0 -567 -223
q-225 -225 -225 -564q0 -338 225 -563z" />
    <glyph glyph-name="uni25CF" unicode="&#x25cf;" horiz-adv-x="2322" 
d="M1954 63q-289 -286 -740 -286q-450 0 -739 286q-293 287 -293 719q0 434 293 721q291 285 739 285q449 0 740 -285q293 -287 293 -721q0 -432 -293 -719z" />
    <glyph glyph-name="uni2776" unicode="&#x2776;" horiz-adv-x="2322" 
d="M1954 63q-289 -286 -740 -286q-450 0 -739 286q-293 287 -293 719q0 434 293 721q291 285 739 285q449 0 740 -285q293 -287 293 -721q0 -432 -293 -719zM1153 942v-586h180v875h-159l-5 -27q-1 -56 -47 -91q-44 -34 -116 -34h-68v-137h215z" />
    <glyph glyph-name="uni2777" unicode="&#x2777;" horiz-adv-x="2322" 
d="M475 1503q291 285 739 285q449 0 740 -285q293 -287 293 -721q0 -432 -293 -719q-289 -286 -740 -286q-450 0 -739 286q-293 287 -293 719q0 434 293 721zM1554 365v161h-460q6 36 30 60q25 25 82 55l158 82q192 99 192 260q0 128 -91 201t-244 73q-162 0 -246 -78
q-86 -80 -90 -223h180q5 77 40 111q37 35 114 35q73 0 113 -33t40 -88q0 -81 -108 -137l-189 -99q-103 -55 -150 -145q-46 -89 -46 -235h675z" />
    <glyph glyph-name="uni2778" unicode="&#x2778;" horiz-adv-x="2322" 
d="M1954 63q-289 -286 -740 -286q-450 0 -739 286q-293 287 -293 719q0 434 293 721q291 285 739 285q449 0 740 -285q293 -287 293 -721q0 -432 -293 -719zM958 399q95 -77 259 -77q167 0 260 75q94 76 94 195q0 81 -47 139t-125 76v4q67 18 105 70t38 120q0 114 -90 180
t-248 66q-156 0 -247 -72t-93 -202h180q8 123 160 123q156 0 156 -115q0 -107 -143 -107h-78v-155h75q170 0 170 -119q0 -125 -167 -125q-171 0 -177 143h-180q4 -143 98 -219z" />
    <glyph glyph-name="uni2779" unicode="&#x2779;" horiz-adv-x="2322" 
d="M1954 63q-289 -286 -740 -286q-450 0 -739 286q-293 287 -293 719q0 434 293 721q291 285 739 285q449 0 740 -285q293 -287 293 -721q0 -432 -293 -719zM1241 547v-180h176v180l148 -4v155l-148 -4v547h-200l-410 -547v-151zM1241 694l-250 4l244 330h6v-334z" />
    <glyph glyph-name="uni277A" unicode="&#x277a;" horiz-adv-x="2322" 
d="M475 1503q291 285 739 285q449 0 740 -285q293 -287 293 -721q0 -432 -293 -719q-289 -286 -740 -286q-450 0 -739 286q-293 287 -293 719q0 434 293 721zM1225 317q168 0 264 87t96 225q0 131 -85 212t-228 81q-109 0 -193 -52l-4 2l33 197h416v156h-543l-84 -482
l180 -28q59 59 152 59q79 0 125 -41q45 -41 45 -115q0 -69 -44 -108q-43 -39 -128 -39q-127 0 -164 96l-184 -28q29 -105 119 -163q92 -59 227 -59z" />
    <glyph glyph-name="uni277B" unicode="&#x277b;" horiz-adv-x="2322" 
d="M1954 63q-289 -286 -740 -286q-450 0 -739 286q-293 287 -293 719q0 434 293 721q291 285 739 285q449 0 740 -285q293 -287 293 -721q0 -432 -293 -719zM1231 330q163 0 257 85q95 86 95 226q0 137 -87 219q-86 82 -230 82q-156 0 -240 -102q12 270 201 270
q105 0 145 -78l182 35q-30 87 -115 137q-85 51 -208 51q-189 0 -286 -121t-97 -356q0 -216 97 -332t286 -116zM1229 481q-79 0 -129 44q-49 43 -49 118q0 68 49 111t129 43t125 -42t45 -114q0 -70 -46 -115q-47 -45 -124 -45z" />
    <glyph glyph-name="uni277C" unicode="&#x277c;" horiz-adv-x="2322" 
d="M1954 63q-289 -286 -740 -286q-450 0 -739 286q-293 287 -293 719q0 434 293 721q291 285 739 285q449 0 740 -285q293 -287 293 -721q0 -432 -293 -719zM1057 322h190q15 236 96 405q78 170 240 320v149h-670v-160h459q-291 -303 -315 -714z" />
    <glyph glyph-name="uni277D" unicode="&#x277d;" horiz-adv-x="2322" 
d="M1954 63q-289 -286 -740 -286q-450 0 -739 286q-293 287 -293 719q0 434 293 721q291 285 739 285q449 0 740 -285q293 -287 293 -721q0 -432 -293 -719zM938 403q101 -73 279 -73q177 0 278 73q100 73 100 201q0 79 -48 139t-130 82v6q133 49 133 187q0 107 -88 168
t-245 61q-159 0 -247 -61q-89 -62 -89 -168q0 -66 35 -114q37 -51 98 -73v-6q-82 -22 -130 -82t-48 -139q0 -128 102 -201zM1217 885q-160 0 -160 112q0 111 160 111q157 0 157 -111q0 -53 -42 -83q-41 -29 -115 -29zM1217 469q-94 0 -144 37q-51 38 -51 104q0 138 195 138
q192 0 192 -138q0 -66 -51 -104q-50 -37 -141 -37z" />
    <glyph glyph-name="uni277E" unicode="&#x277e;" horiz-adv-x="2322" 
d="M1954 63q-289 -286 -740 -286q-450 0 -739 286q-293 287 -293 719q0 434 293 721q291 285 739 285q449 0 740 -285q293 -287 293 -721q0 -432 -293 -719zM1214 317q188 0 286 122q97 121 97 356q0 215 -97 331q-98 117 -286 117q-161 0 -255 -85q-95 -86 -95 -226
q0 -137 86 -218t230 -81q159 0 241 100q-12 -270 -202 -270q-103 0 -146 78l-180 -35q30 -85 115 -137q86 -52 206 -52zM1348 819q-49 -43 -129 -43q-79 0 -125 43q-47 41 -47 113q0 75 46 118q47 44 126 44q77 0 127 -44q49 -43 49 -120q0 -67 -47 -111z" />
    <glyph glyph-name="uni2E18" unicode="&#x2e18;" horiz-adv-x="1277" 
d="M629 1057h262l-53 -258h-263zM850 49h242q-38 -232 -190 -356q-154 -125 -408 -125q-229 0 -365 100q-141 100 -141 275q0 241 284 387l107 55q95 50 139 101q46 54 76 149h156l-60 -498l-35 -160h-247l34 160l33 109q-5 -5 -35 -21q-111 -60 -160 -121q-51 -63 -51 -139
q0 -192 277 -192q154 0 236 67q84 69 108 209z" />
    <glyph glyph-name="uniF8FF" unicode="&#xf8ff;" horiz-adv-x="2172" 
d="M788 1356q-23 26 -71 26q-60 0 -97 -40q-38 -41 -38 -115v-307h-127v778h127v-289q57 88 172 88q86 0 139 -53q49 -50 49 -154v-370h-129v352q0 59 -25 84zM1647 1698h127v-778h-127v778zM1303 903q-128 0 -205 83q-76 82 -76 218q0 130 74 212q74 81 196 81
q125 0 200 -80q75 -79 75 -219v-33h-416q12 -159 152 -159q97 0 131 90l122 -11q-27 -89 -93 -135q-67 -47 -160 -47zM1296 1399q-60 0 -100 -38q-39 -37 -45 -106h287q-15 144 -142 144zM1548 276q-128 0 -205 83q-75 81 -75 219q0 132 73 212t197 80q125 0 200 -79
q74 -78 74 -220v-32h-415q12 -160 151 -160q101 0 131 90l123 -10q-27 -89 -93 -135q-68 -48 -161 -48zM743 856h136l79 -246q35 -116 54 -190q21 114 49 190l80 246h129l-197 -563h-127zM1542 772q-60 0 -100 -38q-39 -38 -45 -105h289q-15 143 -144 143zM649 313h-129v125
h129v-125zM317 397v-176l117 2v-96l-117 4v-313q0 -28 13 -41t41 -13h63v-104h-102q-76 0 -110 34t-34 107v330l-79 -4v96l79 -2v176h129zM997 135q-145 0 -145 -194q0 -92 38 -144q38 -51 107 -51q101 0 125 109h123q-16 -98 -82 -155q-65 -56 -170 -56q-123 0 -194 78
q-72 79 -72 217q0 139 72 219t196 80q102 0 170 -54q65 -52 80 -151h-123q-24 102 -125 102zM1815 -340h-129l-13 66q-61 -82 -184 -82q-88 0 -140 46q-53 47 -53 124q0 142 181 172l176 28q15 6 16 6v48q0 73 -110 73q-57 0 -83 -19q-27 -20 -32 -67h-121q17 183 238 183
q231 0 231 -195v-252q0 -56 23 -131zM649 -340h-129v563h129v-563zM1520 -260q63 0 106 37t43 94v59l-156 -28q-92 -17 -92 -82q0 -38 27 -59t72 -21z" />
    <glyph glyph-name="uniFEFF" unicode="&#xfeff;" horiz-adv-x="0" 
 />
    <glyph glyph-name="null" horiz-adv-x="0" 
 />
    <glyph glyph-name="Adieresis.ss01" horiz-adv-x="1478" 
d="M887 1651q-63 -68 -161 -30q-97 37 -89 134q0 64 41 105t104 41q64 6 106 -41q42 -46 40 -105q-1 -57 -41 -104zM1237 1901q63 0 104 -41t41 -105q0 -63 -41 -104t-104 -41t-104 41t-41 104q0 65 40 105q41 41 105 41zM-47 0l848 1458h289l221 -1458h-254l-51 365h-572
l-205 -365h-276zM754 936l-203 -363h426l-49 363l-27 285z" />
    <glyph glyph-name="Cdotaccent.ss01" horiz-adv-x="1466" 
d="M1096 1663q-41 -41 -105 -41q-63 0 -104 41q-43 40 -43 104t41 105t107 41q67 0 106 -41q42 -42 40 -105q-2 -64 -42 -104zM694 -41q-261 0 -413 164q-150 162 -150 434q0 95 25 207q72 339 284 530q213 195 508 195q226 0 377 -121q150 -123 150 -373h-238
q-5 130 -85 203q-82 74 -220 74q-197 0 -339 -142q-141 -141 -192 -387q-20 -84 -20 -178q0 -183 86 -286t246 -103q151 0 264 86q112 85 168 242h241q-72 -256 -256 -400q-188 -145 -436 -145z" />
    <glyph glyph-name="Edieresis.ss01" horiz-adv-x="1347" 
d="M840 1651q-41 -41 -105 -41q-63 0 -104 41t-41 104q0 64 41 105t104 41q64 0 105 -41t41 -105q0 -63 -41 -104zM1294 1651q-41 -41 -104 -41q-64 0 -105 41t-41 104q0 64 41 105t105 41q63 0 104 -41t41 -105q0 -63 -41 -104zM1419 1458l-47 -211h-797l-81 -387h727
l-45 -213h-730l-92 -436h820l-46 -211h-1067l312 1458h1046z" />
    <glyph glyph-name="Edotaccent.ss01" horiz-adv-x="1347" 
d="M1055 1651q-66 -67 -163 -30t-89 134q0 64 41 105t104 41q99 7 136 -90q38 -98 -29 -160zM1419 1458l-47 -211h-797l-81 -387h727l-45 -213h-730l-92 -436h820l-46 -211h-1067l312 1458h1046z" />
    <glyph glyph-name="uni0122.ss01" horiz-adv-x="1609" 
d="M872 784h553l-4 -12l70 12l-168 -784h-168l-6 164q-174 -197 -461 -197q-247 0 -401 160q-156 157 -156 428q0 96 25 207q69 336 295 534q223 195 524 195q252 0 400 -128q147 -128 147 -353l-244 -11q0 134 -82 204q-83 71 -231 71q-210 0 -363 -148
q-152 -147 -203 -395q-18 -96 -18 -172q0 -180 91 -281q92 -102 261 -102q168 0 294 98q130 101 192 277l4 22h-396zM635 -131q74 0 117 -37t43 -100q0 -26 -7 -70l-10 -41q-21 -90 -95 -139t-185 -49h-64l23 100h63q120 0 142 98l4 19q-30 -15 -76 -15q-57 0 -88 29t-31 78
q0 61 44 94q43 33 120 33z" />
    <glyph glyph-name="Gdotaccent.ss01" horiz-adv-x="1609" 
d="M1126 1667q-61 -67 -160 -30q-100 38 -92 135q0 63 41 104t107 41q97 8 134 -89q38 -98 -30 -161zM872 784h553l-4 -12l70 12l-168 -784h-168l-6 164q-174 -197 -461 -197q-247 0 -401 160q-156 157 -156 428q0 96 25 207q69 336 295 534q223 195 524 195q252 0 400 -128
q147 -128 147 -353l-244 -11q0 134 -82 204q-83 71 -231 71q-210 0 -363 -148q-152 -147 -203 -395q-18 -96 -18 -172q0 -180 91 -281q92 -102 261 -102q168 0 294 98q130 101 192 277l4 22h-396z" />
    <glyph glyph-name="Idieresis.ss01" horiz-adv-x="595" 
d="M436 1651q-41 -41 -104 -41q-64 0 -105 41t-41 104q0 64 41 105q39 41 106 41q66 0 105 -41q42 -42 40 -105q-2 -64 -42 -104zM891 1651q-66 -67 -163 -30t-89 134q0 64 41 105t104 41q99 8 137 -90q37 -97 -30 -160zM309 0h-248l312 1458h248z" />
    <glyph glyph-name="Idotaccent.ss01" horiz-adv-x="595" 
d="M664 1651q-62 -68 -161 -30q-99 37 -91 134q0 64 41 105t106 41q94 7 133 -90t-28 -160zM309 0h-248l312 1458h248z" />
    <glyph glyph-name="uni0136.ss01" horiz-adv-x="1460" 
d="M1227 1458h342l-715 -602l459 -856h-289l-373 707l-231 -187l-111 -520h-248l312 1458h248l-136 -633zM616 -125q75 0 116 -37q42 -38 42 -100q0 -46 -6 -70l-8 -41q-21 -90 -95 -139t-188 -49h-63l22 100h66q120 0 141 99l4 18q-35 -14 -76 -14q-59 0 -88 28
q-30 28 -30 78q0 127 163 127z" />
    <glyph glyph-name="uni013B.ss01" horiz-adv-x="1218" 
d="M621 1458l-265 -1239h736l-48 -219h-983l312 1458h248zM524 -125q75 0 116 -37q42 -38 42 -100q0 -46 -6 -70l-8 -41q-21 -89 -96 -139q-74 -49 -187 -49h-63l22 100h66q118 0 141 99l4 18q-35 -14 -76 -14q-59 0 -88 28q-31 29 -31 78q0 127 164 127z" />
    <glyph glyph-name="Ldot.ss01" horiz-adv-x="1218" 
d="M621 1458l-265 -1239h736l-48 -219h-983l312 1458h248zM1001 676q-52 -42 -114 -43q-65 -2 -115 43q-51 45 -45 110q0 66 45 109q44 43 115 43q70 0 114 -43q46 -44 46 -109q0 -66 -46 -110z" />
    <glyph glyph-name="uni0145.ss01" horiz-adv-x="1515" 
d="M1071 385l227 1073h242l-311 -1458h-238l-459 1067l-227 -1067h-244l312 1458h235zM596 -125q75 0 116 -37q42 -38 42 -100q0 -46 -6 -70l-9 -41q-21 -90 -95 -139t-187 -49h-64l23 100h65q121 0 142 99l4 18q-35 -14 -76 -14q-59 0 -88 28q-31 29 -31 78q0 127 164 127z
" />
    <glyph glyph-name="Odieresis.ss01" horiz-adv-x="1591" 
d="M893 1663q-41 -41 -105 -41q-63 0 -104 41t-41 104q0 64 41 105t104 41q64 0 105 -41t41 -105q0 -63 -41 -104zM1348 1663q-41 -41 -105 -41q-63 0 -104 41t-41 104q0 64 41 105t104 41q64 0 105 -41t41 -105q0 -63 -41 -104zM719 -41q-265 0 -424 164q-162 162 -162 434
q0 107 21 197q72 338 292 534q223 201 523 201q259 0 417 -160q158 -163 158 -430q0 -106 -20 -192q-69 -351 -283 -549q-214 -199 -522 -199zM735 176q199 0 346 152q148 154 199 403q14 62 14 150q0 181 -94 285q-95 106 -256 106q-201 0 -352 -148q-149 -147 -195 -393
q-16 -96 -16 -162q0 -184 94 -288q95 -105 260 -105z" />
    <glyph glyph-name="uni0156.ss01" horiz-adv-x="1445" 
d="M1421 1122q0 -160 -94 -273q-95 -114 -254 -149q162 -50 162 -237q0 -17 -4 -72l-35 -391h-246l37 362q4 55 4 72q0 90 -43 126t-147 36h-365l-127 -596h-248l312 1458h643q197 0 301 -91t104 -245zM481 803h350q153 0 245 77q91 76 91 205q0 162 -217 162h-375z
M588 -125q74 0 115 -37q42 -38 42 -100q0 -46 -6 -70l-8 -41q-21 -90 -95 -139t-187 -49h-64l23 100h65q120 0 141 99l4 18q-35 -14 -75 -14q-59 0 -88 28q-31 29 -31 78q0 127 164 127z" />
    <glyph glyph-name="uni0218.ss01" horiz-adv-x="1388" 
d="M1352 1030h-236q2 14 2 33q0 106 -75 166q-74 59 -212 59q-152 0 -238 -64q-87 -64 -87 -173q0 -123 168 -162l252 -64q329 -84 329 -368q0 -238 -168 -367t-460 -129q-253 0 -398 112q-143 110 -143 318q0 43 4 72h238q-4 -33 -4 -49q0 -122 82 -186t231 -64
q172 0 269 67q98 68 98 191q0 73 -48 115q-47 41 -163 69l-207 56q-154 39 -242 130t-88 228q0 222 160 347q158 124 434 124q233 0 369 -110q135 -109 135 -302q0 -35 -2 -49zM561 -143q75 0 116 -37q42 -38 42 -101q0 -45 -6 -69l-8 -41q-21 -89 -96 -139
q-76 -50 -187 -50h-64l23 101h65q120 0 142 98l4 19q-38 -15 -76 -15q-57 0 -88 29t-31 78q0 127 164 127z" />
    <glyph glyph-name="uni021A.ss01" horiz-adv-x="1284" 
d="M254 1458h1171l-47 -219h-460l-265 -1239h-247l264 1239h-463zM475 -125q75 0 116 -37q42 -38 42 -100q0 -46 -6 -70l-9 -41q-21 -90 -95 -139t-187 -49h-64l23 100h65q120 0 142 99l4 18q-35 -14 -76 -14q-59 0 -88 28q-31 29 -31 78q0 127 164 127z" />
    <glyph glyph-name="Udieresis.ss01" horiz-adv-x="1476" 
d="M854 1651q-63 -68 -161 -30q-97 37 -89 134q0 64 41 105t105 41q63 6 105 -41q42 -46 40 -105q-1 -57 -41 -104zM1309 1651q-63 -68 -161 -30q-97 37 -89 134q0 65 40 105q41 41 105 41q94 7 133 -90t-28 -160zM655 -41q-236 0 -370 103q-135 104 -135 288q0 54 12 115
l211 993h248l-215 -1009q-9 -36 -9 -76q0 -197 269 -197q315 0 372 273l215 1009h248l-213 -1003q-108 -496 -633 -496z" />
    <glyph glyph-name="Wdieresis.ss01" horiz-adv-x="1982" 
d="M1094 1651q-41 -41 -105 -41q-63 0 -104 41t-41 104q0 64 41 105t104 41q64 0 105 -41t41 -105q0 -63 -41 -104zM1548 1651q-41 -41 -104 -41q-64 0 -105 41t-41 104q0 64 41 105t105 41q63 0 104 -41t41 -105q0 -63 -41 -104zM1479 659l383 799h264l-723 -1458h-236
l-53 1130l-506 -1130h-241l-103 1458h242l39 -799l6 -309l135 312l369 796h250l36 -799v-309z" />
    <glyph glyph-name="Ydieresis.ss01" horiz-adv-x="1378" 
d="M829 1651q-63 -67 -160 -30t-89 134q0 64 41 105t104 41q63 6 105 -41q42 -46 40 -105q-1 -57 -41 -104zM1284 1651q-63 -68 -161 -30q-97 37 -89 134q0 65 40 105q41 41 106 41q94 7 133 -90t-29 -160zM1243 1458h295l-707 -876l-122 -582h-248l123 582l-338 876h260
l186 -524l41 -158l105 158z" />
    <glyph glyph-name="Zdotaccent.ss01" horiz-adv-x="1419" 
d="M1075 1651q-41 -41 -104 -41q-64 0 -105 41q-43 40 -43 104t41 105t107 41q65 0 106 -41q42 -42 40 -105q-2 -64 -42 -104zM375 1458h1106l-43 -194l-1061 -1049h854l-47 -215h-1176l47 211l1049 1032h-774z" />
    <glyph glyph-name="G.ss03" horiz-adv-x="1579" 
d="M1229 571h-422l47 217h674q-63 -389 -283 -604q-217 -217 -543 -217q-269 0 -421 152t-152 416q0 107 23 217q74 342 297 540q225 201 542 201q256 0 402 -131q145 -130 145 -365h-235q-1 132 -89 206q-87 73 -235 73q-214 0 -371 -148q-155 -146 -215 -417
q-20 -80 -20 -179q0 -169 88 -258q89 -90 258 -90q373 0 510 387z" />
    <glyph glyph-name="uni01F4.ss03" horiz-adv-x="1579" 
d="M1006 1919h307l-264 -303h-181zM1229 571h-422l47 217h674q-63 -389 -283 -604q-217 -217 -543 -217q-269 0 -421 152t-152 416q0 107 23 217q74 342 297 540q225 201 542 201q256 0 402 -131q145 -130 145 -365h-235q-1 132 -89 206q-87 73 -235 73q-214 0 -371 -148
q-155 -146 -215 -417q-20 -80 -20 -179q0 -169 88 -258q89 -90 258 -90q373 0 510 387z" />
    <glyph glyph-name="Gbreve.ss03" horiz-adv-x="1579" 
d="M1055 1618q-305 0 -305 225q0 45 8 82h147q-2 -10 -2 -35q0 -116 164 -116q192 0 229 151h154q-39 -156 -131 -232q-91 -75 -264 -75zM1229 571h-422l47 217h674q-63 -389 -283 -604q-217 -217 -543 -217q-269 0 -421 152t-152 416q0 107 23 217q74 342 297 540
q225 201 542 201q256 0 402 -131q145 -130 145 -365h-235q-1 132 -89 206q-87 73 -235 73q-214 0 -371 -148q-155 -146 -215 -417q-20 -80 -20 -179q0 -169 88 -258q89 -90 258 -90q373 0 510 387z" />
    <glyph glyph-name="Gcircumflex.ss03" horiz-adv-x="1579" 
d="M1171 1626l-94 186l-172 -186h-241l309 309h233l178 -309h-213zM1229 571h-422l47 217h674q-63 -389 -283 -604q-217 -217 -543 -217q-269 0 -421 152t-152 416q0 107 23 217q74 342 297 540q225 201 542 201q256 0 402 -131q145 -130 145 -365h-235q-1 132 -89 206
q-87 73 -235 73q-214 0 -371 -148q-155 -146 -215 -417q-20 -80 -20 -179q0 -169 88 -258q89 -90 258 -90q373 0 510 387z" />
    <glyph glyph-name="uni0122.ss03" horiz-adv-x="1579" 
d="M1229 571h-422l47 217h674q-63 -389 -283 -604q-217 -217 -543 -217q-269 0 -421 152t-152 416q0 107 23 217q74 342 297 540q225 201 542 201q256 0 402 -131q145 -130 145 -365h-235q-1 132 -89 206q-87 73 -235 73q-214 0 -371 -148q-155 -146 -215 -417
q-20 -80 -20 -179q0 -169 88 -258q89 -90 258 -90q373 0 510 387zM643 -301l-176 -12l39 184h276l-57 -266q-33 -166 -221 -166h-88l20 94h86q48 0 71 17q25 19 32 61z" />
    <glyph glyph-name="Gdotaccent.ss03" horiz-adv-x="1579" 
d="M977 1894h240l-50 -233h-239zM1229 571h-422l47 217h674q-63 -389 -283 -604q-217 -217 -543 -217q-269 0 -421 152t-152 416q0 107 23 217q74 342 297 540q225 201 542 201q256 0 402 -131q145 -130 145 -365h-235q-1 132 -89 206q-87 73 -235 73q-214 0 -371 -148
q-155 -146 -215 -417q-20 -80 -20 -179q0 -169 88 -258q89 -90 258 -90q373 0 510 387z" />
    <glyph glyph-name="uni0122.ss01.ss03" horiz-adv-x="1579" 
d="M1229 571h-422l47 217h674q-63 -389 -283 -604q-217 -217 -543 -217q-269 0 -421 152t-152 416q0 107 23 217q74 342 297 540q225 201 542 201q256 0 402 -131q145 -130 145 -365h-235q-1 132 -89 206q-87 73 -235 73q-214 0 -371 -148q-155 -146 -215 -417
q-20 -80 -20 -179q0 -169 88 -258q89 -90 258 -90q373 0 510 387zM614 -125q74 0 117 -37t43 -100q0 -32 -6 -70l-10 -41q-21 -90 -95 -139t-186 -49h-63l22 100h64q118 0 141 99l4 18q-28 -14 -76 -14q-59 0 -88 28q-30 28 -30 78q0 61 44 94q43 33 119 33z" />
    <glyph glyph-name="Gdotaccent.ss01.ss03" horiz-adv-x="1579" 
d="M1178 1686q-41 -41 -105 -41q-63 0 -104 41q-43 40 -43 104q0 63 41 104q40 40 107 42q66 2 106 -40q39 -39 39 -106q0 -63 -41 -104zM1229 571h-422l47 217h674q-63 -389 -283 -604q-217 -217 -543 -217q-269 0 -421 152t-152 416q0 107 23 217q74 342 297 540
q225 201 542 201q256 0 402 -131q145 -130 145 -365h-235q-1 132 -89 206q-87 73 -235 73q-214 0 -371 -148q-155 -146 -215 -417q-20 -80 -20 -179q0 -169 88 -258q89 -90 258 -90q373 0 510 387z" />
    <glyph glyph-name="R.ss04" horiz-adv-x="1394" 
d="M1411 1079q0 -186 -119 -317q-121 -133 -317 -176l260 -586h-256l-248 569h-301l-121 -569h-248l312 1458h596q215 0 328 -100q114 -100 114 -279zM475 780h354q152 0 243 76t91 199q0 93 -56 142q-58 50 -167 50h-365z" />
    <glyph glyph-name="Racute.ss04" horiz-adv-x="1394" 
d="M889 1884h307l-264 -303h-180zM1411 1079q0 -186 -119 -317q-121 -133 -317 -176l260 -586h-256l-248 569h-301l-121 -569h-248l312 1458h596q215 0 328 -100q114 -100 114 -279zM475 780h354q152 0 243 76t91 199q0 93 -56 142q-58 50 -167 50h-365z" />
    <glyph glyph-name="Rcaron.ss04" horiz-adv-x="1394" 
d="M1339 1890l-309 -309h-231l-178 309h213l92 -186l174 186h239zM1411 1079q0 -186 -119 -317q-121 -133 -317 -176l260 -586h-256l-248 569h-301l-121 -569h-248l312 1458h596q215 0 328 -100q114 -100 114 -279zM475 780h354q152 0 243 76t91 199q0 93 -56 142
q-58 50 -167 50h-365z" />
    <glyph glyph-name="uni0156.ss04" horiz-adv-x="1394" 
d="M1411 1079q0 -186 -119 -317q-121 -133 -317 -176l260 -586h-256l-248 569h-301l-121 -569h-248l312 1458h596q215 0 328 -100q114 -100 114 -279zM475 780h354q152 0 243 76t91 199q0 93 -56 142q-58 50 -167 50h-365zM598 -301l-176 -12l39 184h274l-55 -266
q-37 -166 -221 -166h-88l20 94h86q49 0 70 17q24 19 31 61z" />
    <glyph glyph-name="uni0156.ss01.ss04" horiz-adv-x="1394" 
d="M1411 1079q0 -186 -119 -317q-121 -133 -317 -176l260 -586h-256l-248 569h-301l-121 -569h-248l312 1458h596q215 0 328 -100q114 -100 114 -279zM475 780h354q152 0 243 76t91 199q0 93 -56 142q-58 50 -167 50h-365zM569 -125q75 0 116 -37q42 -38 42 -100
q0 -46 -6 -70l-8 -41q-21 -89 -96 -139q-74 -49 -187 -49h-63l22 100h66q119 0 141 99l4 18q-35 -14 -76 -14q-59 0 -88 28q-30 28 -30 78q0 127 163 127z" />
    <glyph glyph-name="i.loclTRK" horiz-adv-x="518" 
d="M526 1225h-239l51 233h240zM266 0h-239l225 1057h240z" />
    <glyph glyph-name="adieresis.ss01" horiz-adv-x="1153" 
d="M623 1251q-41 -41 -105 -41q-63 0 -104 41t-41 105q0 63 41 104q47 40 104 41q59 2 105 -40q47 -42 41 -105q0 -64 -41 -105zM868 1462q42 42 105 40q64 -2 104 -42q41 -41 41 -104q0 -64 -41 -105q-63 -67 -161 -28q-96 39 -89 133q0 65 41 106zM678 1083q188 0 286 -70
q99 -71 99 -200q0 -31 -12 -94l-103 -475q-18 -82 -18 -156q0 -50 12 -88h-227v129q-134 -158 -363 -158q-148 0 -236 75q-89 75 -89 202q0 149 107 240q109 92 304 122l330 49q19 1 39 13l12 63q6 39 6 49q0 121 -178 121q-102 0 -160 -38t-88 -128l-223 9q90 335 502 335z
M446 152q106 0 186 59q80 60 109 156l29 139l-16 -4l-285 -47q-199 -33 -199 -174q0 -129 176 -129z" />
    <glyph glyph-name="cdotaccent.ss01" horiz-adv-x="1134" 
d="M860 1251q-63 -67 -161 -28q-96 39 -89 133q0 64 41 105q40 40 105 40q64 0 104 -40q41 -41 41 -105t-41 -105zM827 74q-139 -105 -331 -105q-193 0 -308 115q-116 112 -116 313q0 84 14 146q50 253 208 396q159 144 382 144q200 0 308 -102t108 -283h-232
q-2 193 -203 193q-125 0 -216 -98q-92 -100 -122 -271q-12 -63 -12 -119q0 -115 53 -179q52 -62 152 -62q194 0 279 205h235q-61 -190 -199 -293z" />
    <glyph glyph-name="edieresis.ss01" horiz-adv-x="1193" 
d="M653 1251q-63 -67 -160 -28t-90 133q0 63 41 104t105 41q65 0 105 -40t40 -105q0 -64 -41 -105zM1108 1251q-63 -67 -161 -28q-96 39 -89 133q0 65 40 105t106 40q97 8 134 -89q38 -98 -30 -161zM680 1083q206 0 324 -112t118 -314q0 -99 -26 -194h-785q-4 -59 -4 -68
q0 -108 62 -172q61 -63 170 -63q181 0 280 172l225 -21q-79 -169 -210 -255q-134 -87 -308 -87q-214 0 -331 125q-119 125 -119 322q0 79 16 149q53 238 209 379q157 139 379 139zM670 899q-114 0 -199 -72q-87 -73 -125 -198h545q2 14 2 43q0 111 -59 169t-164 58z" />
    <glyph glyph-name="edotaccent.ss01" horiz-adv-x="1193" 
d="M877 1251q-63 -67 -161 -28q-96 39 -89 133q0 64 41 105q40 40 104 40q65 0 105 -40q41 -41 41 -105t-41 -105zM1096 463h-785q-4 -59 -4 -68q0 -108 62 -172q61 -63 170 -63q181 0 280 172l225 -21q-79 -169 -210 -255q-134 -87 -308 -87q-214 0 -331 125
q-119 125 -119 322q0 79 16 149q53 238 209 379q157 139 379 139q206 0 324 -112t118 -314q0 -99 -26 -194zM670 899q-114 0 -199 -72q-87 -73 -125 -198h545q2 14 2 43q0 111 -59 169t-164 58z" />
    <glyph glyph-name="uni0123.ss01" horiz-adv-x="1224" 
d="M774 1210q-68 0 -109 35q-40 34 -40 94q0 44 6 68l8 39q18 86 89 133t177 47h60l-21 -96h-59q-116 0 -137 -94l-5 -17q50 13 74 13q52 0 83 -28q30 -27 30 -73q0 -57 -41 -89t-115 -32zM942 887l41 170h211l-221 -1047q-50 -234 -182 -343q-133 -109 -367 -109
q-213 0 -326 83q-112 82 -112 246l225 4q4 -151 221 -151q252 0 303 246l33 151q-135 -147 -317 -147q-172 0 -274 112q-101 111 -101 301q0 273 153 476q151 202 394 202q111 0 193 -52q83 -53 126 -142zM518 195q158 0 254 135q96 137 96 313q0 115 -57 178
q-58 64 -158 64q-151 0 -247 -140q-95 -140 -95 -325q0 -105 55 -166q53 -59 152 -59z" />
    <glyph glyph-name="gdotaccent.ss01" horiz-adv-x="1224" 
d="M887 1251q-63 -67 -161 -28q-96 39 -89 133q0 65 40 105t105 40q66 0 106 -40t40 -105q0 -64 -41 -105zM942 887l41 170h211l-221 -1047q-50 -234 -182 -343q-133 -109 -367 -109q-213 0 -326 83q-112 82 -112 246l225 4q4 -151 221 -151q252 0 303 246l33 151
q-135 -147 -317 -147q-172 0 -274 112q-101 111 -101 301q0 273 153 476q151 202 394 202q111 0 193 -52q83 -53 126 -142zM518 195q158 0 254 135q96 137 96 313q0 115 -57 178q-58 64 -158 64q-151 0 -247 -140q-95 -140 -95 -325q0 -105 55 -166q53 -59 152 -59z" />
    <glyph glyph-name="i.ss01" horiz-adv-x="518" 
d="M541 1251q-61 -67 -160 -29q-98 37 -90 132q0 63 40 103t105 40q64 0 104 -40t40 -103q0 -64 -39 -103zM266 0h-239l225 1057h240z" />
    <glyph glyph-name="idieresis.ss01" horiz-adv-x="518" 
d="M313 1251q-63 -67 -160 -28t-90 133q0 65 40 105t106 40q94 7 133 -89q39 -98 -29 -161zM768 1251q-46 -38 -105 -40t-106 41q-47 42 -41 104q0 63 41 104t105 41q99 7 136 -89q38 -98 -30 -161zM266 0h-239l225 1057h240z" />
    <glyph glyph-name="i.loclTRK.ss01" horiz-adv-x="518" 
d="M541 1251q-61 -67 -160 -29q-98 37 -90 132q0 63 40 103t105 40q64 0 104 -40t40 -103q0 -64 -39 -103zM266 0h-239l225 1057h240z" />
    <glyph glyph-name="ij.ss01" horiz-adv-x="1034" 
d="M1063 1253q-39 -41 -104 -41q-64 0 -105 41q-41 39 -41 104q0 64 41 103q40 39 105 39t104 -39t39 -102q0 -64 -39 -105zM541 1251q-61 -67 -160 -29q-98 37 -90 132q0 63 40 103t105 40q64 0 104 -40t40 -103q0 -64 -39 -103zM266 0h-239l225 1057h240zM420 -418h-141
l43 207h61q65 0 97 24q32 25 44 85l246 1159h240l-248 -1168q-37 -169 -111 -238q-73 -69 -231 -69z" />
    <glyph glyph-name="iogonek.ss01" horiz-adv-x="518" 
d="M436 1497q64 0 104 -40t40 -103t-40 -103q-41 -41 -104 -41t-104 41t-41 103q0 63 40 103t105 40zM72 0h-45l225 1057h240l-226 -1057l-166 -143q-41 -35 -41 -70q0 -28 23 -46q21 -17 59 -17h68l-33 -156h-131q-100 0 -158 44q-57 44 -57 120q0 101 104 174z" />
    <glyph glyph-name="j.ss01" horiz-adv-x="518" 
d="M545 1253q-41 -41 -105 -41q-63 0 -104 41t-41 105q0 63 41 102t104 39q64 0 105 -39t41 -102q0 -64 -41 -105zM-98 -418h-142l43 207h62q65 0 97 24q32 25 44 85l246 1159h240l-248 -1168q-37 -169 -111 -238q-73 -69 -231 -69z" />
    <glyph glyph-name="uni0137.ss01" horiz-adv-x="1163" 
d="M897 1057h311l-514 -420l307 -637h-260l-233 506l-156 -127l-82 -379h-239l311 1458h240l-172 -809zM444 -125q75 0 116 -37q42 -38 42 -100q0 -46 -6 -70l-8 -41q-21 -90 -95 -139t-188 -49h-63l22 100h66q120 0 141 99l4 18q-35 -14 -76 -14q-59 0 -88 28
q-30 28 -30 78q0 127 163 127z" />
    <glyph glyph-name="uni013C.ss01" horiz-adv-x="526" 
d="M31 0l311 1458h240l-312 -1458h-239zM96 -125q75 0 116 -37q42 -38 42 -100q0 -46 -6 -70l-8 -41q-21 -89 -96 -139q-74 -49 -187 -49h-63l22 100h66q120 0 141 99l4 18q-35 -14 -76 -14q-59 0 -88 28q-31 29 -31 78q0 127 164 127z" />
    <glyph glyph-name="ldot.ss01" horiz-adv-x="878" 
d="M270 0h-239l311 1458h240zM831 623q-52 -42 -114 -43q-65 -2 -115 43q-51 45 -45 110q0 65 45 109q44 43 115 43q70 0 114 -43q46 -44 46 -109q0 -66 -46 -110z" />
    <glyph glyph-name="napostrophe.ss01" horiz-adv-x="1808" 
d="M655 1321q0 -51 -14 -104l-10 -54q-24 -120 -113 -190q-90 -70 -219 -70h-18l26 121h19q141 0 176 152l2 6h-21q-68 0 -111 38q-42 38 -42 101q0 69 47 118q46 48 121 48q73 0 115 -45t42 -121zM1407 1083q144 0 224 -77q81 -78 81 -211q0 -40 -10 -99l-150 -696h-239
l141 662q8 37 8 75q0 133 -147 133q-112 0 -196 -74q-85 -75 -115 -214l-123 -582h-240l223 1057h232l-33 -152q136 178 344 178z" />
    <glyph glyph-name="uni0146.ss01" horiz-adv-x="1200" 
d="M799 1083q144 0 224 -77q81 -78 81 -211q0 -40 -10 -99l-150 -696h-239l139 662q10 49 10 75q0 133 -147 133q-112 0 -196 -74q-86 -76 -116 -214l-123 -582h-239l223 1057h231l-32 -152q139 178 344 178zM444 -125q75 0 116 -37q42 -38 42 -100q0 -46 -6 -70l-8 -41
q-21 -90 -95 -139t-188 -49h-63l22 100h66q120 0 141 99l4 18q-35 -14 -76 -14q-59 0 -88 28q-30 28 -30 78q0 127 163 127z" />
    <glyph glyph-name="odieresis.ss01" horiz-adv-x="1220" 
d="M668 1251q-41 -41 -105 -41q-63 0 -104 41t-41 105q0 63 41 104q47 40 104 41q59 2 105 -40q47 -42 41 -105q0 -64 -41 -105zM1122 1251q-63 -67 -160 -28t-90 133q-6 63 41 105q46 42 105 40q57 -1 104 -41q41 -41 41 -104q0 -64 -41 -105zM524 -31q-207 0 -328 121
q-122 122 -122 324q0 77 14 133q45 239 213 389q162 147 399 147q206 0 326 -119q121 -120 121 -321q0 -61 -12 -133q-51 -257 -211 -399t-400 -142zM541 162q139 0 235 99q97 100 125 269q10 63 10 99q0 124 -60 193t-173 69q-136 0 -232 -99q-97 -100 -127 -266
q-10 -64 -10 -106q0 -122 61 -191q60 -67 171 -67z" />
    <glyph glyph-name="uni0157.ss01" horiz-adv-x="802" 
d="M770 1090q42 0 78 -11l-49 -225q-30 6 -64 6q-125 0 -217 -80t-129 -225l-117 -555h-239l223 1057h225l-32 -176q125 209 321 209zM92 -125q75 0 116 -37q42 -38 42 -100q0 -46 -6 -70l-8 -41q-21 -89 -96 -139q-74 -49 -187 -49h-64l23 100h65q121 0 142 99l4 18
q-35 -14 -76 -14q-59 0 -88 28q-31 29 -31 78q0 127 164 127z" />
    <glyph glyph-name="uni0219.ss01" horiz-adv-x="1071" 
d="M502 653l174 -39q274 -60 274 -274q0 -181 -131 -277t-360 -96q-209 0 -313 91q-105 92 -105 266l221 6q0 -187 217 -187q114 0 177 42t63 116q0 45 -30 71t-97 42l-178 43q-127 30 -195 101q-67 70 -67 171q0 171 122 262q124 92 332 92q186 0 290 -89q103 -88 103 -246
l-217 -5q0 77 -51 121q-50 43 -145 43t-151 -37t-56 -104q0 -89 123 -113zM395 -125q74 0 117 -37t43 -100q0 -32 -6 -70l-10 -41q-21 -89 -96 -139q-74 -49 -185 -49h-65l24 100h64q120 0 141 99l4 18q-32 -14 -76 -14q-59 0 -88 28q-31 29 -31 78q0 61 44 94q43 33 120 33
z" />
    <glyph glyph-name="uni021B.ss01" horiz-adv-x="745" 
d="M522 885l-18 -90l-105 -490q-8 -29 -8 -49q0 -61 86 -61h117l-43 -195h-170q-238 0 -238 193q0 23 11 83l110 521l19 86l-152 -6l37 180l151 -6l19 94l51 237h240l-51 -235l-21 -96l219 6l-37 -180zM178 -117q75 0 116 -37q42 -38 42 -100q0 -46 -6 -70l-8 -41
q-21 -89 -96 -139q-74 -49 -187 -49h-64l23 100h65q121 0 142 99l4 18q-35 -14 -76 -14q-59 0 -88 28q-31 29 -31 78q0 127 164 127z" />
    <glyph glyph-name="udieresis.ss01" horiz-adv-x="1200" 
d="M633 1251q-63 -67 -161 -28q-96 39 -89 133q0 63 41 104t104 41q66 0 106 -40t40 -105q0 -64 -41 -105zM1087 1251q-63 -67 -160 -28q-96 39 -89 133q0 65 40 105t105 40q97 8 134 -89q38 -98 -30 -161zM805 475l123 582h239l-223 -1057h-231l32 152q-140 -179 -344 -179
q-143 0 -224 78t-81 211q0 34 11 98l149 697h240l-142 -662q-8 -37 -8 -76q0 -133 148 -133q110 0 195 75q86 76 116 214z" />
    <glyph glyph-name="wdieresis.ss01" horiz-adv-x="1581" 
d="M821 1251q-63 -67 -161 -28q-96 39 -89 133q0 63 41 104t105 41q65 0 105 -40t40 -105q0 -64 -41 -105zM1276 1251q-63 -67 -161 -28q-96 39 -89 133q0 65 40 105t105 40q95 8 134 -89q39 -98 -29 -161zM1112 518l260 539h260l-553 -1057h-235l-23 608l-4 183l-76 -183
l-278 -608h-238l-98 1057h233l37 -539l9 -246l100 246l250 539h231l21 -537l4 -244z" />
    <glyph glyph-name="ydieresis.ss01" horiz-adv-x="1116" 
d="M592 1251q-63 -67 -161 -28q-96 39 -89 133q0 63 41 104t104 41q66 0 106 -40t40 -105q0 -64 -41 -105zM1047 1251q-63 -67 -161 -28q-96 39 -89 133q0 65 40 105t105 40q97 8 134 -89q38 -99 -29 -161zM479 266l426 791h262l-712 -1245q-77 -132 -150 -181t-194 -49
h-191l45 203h119q66 0 105 25q38 24 77 92l51 88l-190 1067h244l100 -660z" />
    <glyph glyph-name="zdotaccent.ss01" horiz-adv-x="1048" 
d="M809 1251q-63 -67 -161 -28q-96 39 -89 133q0 65 40 105t106 40q65 0 105 -40t40 -105q0 -64 -41 -105zM229 1057h828l-37 -176l-725 -691h606l-41 -190h-901l39 182l721 684h-531z" />
    <glyph glyph-name="a.ss02" horiz-adv-x="1228" 
d="M956 924l37 133h205l-225 -1057h-205l27 156q-136 -181 -361 -181q-173 0 -271 103q-97 101 -97 284q0 191 75 347q78 168 219 270t310 102q213 0 286 -157zM514 164q166 0 266 153q99 151 99 349q0 233 -211 233q-167 0 -267 -154q-98 -151 -98 -354q0 -227 211 -227z
" />
    <glyph glyph-name="aacute.ss02" horiz-adv-x="1228" 
d="M713 1483h307l-264 -303h-181zM956 924l37 133h205l-225 -1057h-205l27 156q-136 -181 -361 -181q-173 0 -271 103q-97 101 -97 284q0 191 75 347q78 168 219 270t310 102q213 0 286 -157zM514 164q166 0 266 153q99 151 99 349q0 233 -211 233q-167 0 -267 -154
q-98 -151 -98 -354q0 -227 211 -227z" />
    <glyph glyph-name="abreve.ss02" horiz-adv-x="1228" 
d="M764 1182q-305 0 -305 225q0 45 8 82h147q-2 -10 -2 -35q0 -117 164 -117q192 0 230 152h153q-39 -158 -131 -233q-90 -74 -264 -74zM956 924l37 133h205l-225 -1057h-205l27 156q-136 -181 -361 -181q-173 0 -271 103q-97 101 -97 284q0 191 75 347q78 168 219 270
t310 102q213 0 286 -157zM514 164q166 0 266 153q99 151 99 349q0 233 -211 233q-167 0 -267 -154q-98 -151 -98 -354q0 -227 211 -227z" />
    <glyph glyph-name="acircumflex.ss02" horiz-adv-x="1228" 
d="M881 1190l-95 186l-172 -186h-241l309 309h233l179 -309h-213zM956 924l37 133h205l-225 -1057h-205l27 156q-136 -181 -361 -181q-173 0 -271 103q-97 101 -97 284q0 191 75 347q78 168 219 270t310 102q213 0 286 -157zM514 164q166 0 266 153q99 151 99 349
q0 233 -211 233q-167 0 -267 -154q-98 -151 -98 -354q0 -227 211 -227z" />
    <glyph glyph-name="adieresis.ss02" horiz-adv-x="1228" 
d="M467 1458h240l-52 -233h-239zM903 1458h240l-51 -233h-240zM956 924l37 133h205l-225 -1057h-205l27 156q-136 -181 -361 -181q-173 0 -271 103q-97 101 -97 284q0 191 75 347q78 168 219 270t310 102q213 0 286 -157zM514 164q166 0 266 153q99 151 99 349
q0 233 -211 233q-167 0 -267 -154q-98 -151 -98 -354q0 -227 211 -227z" />
    <glyph glyph-name="agrave.ss02" horiz-adv-x="1228" 
d="M754 1483l75 -303h-159l-201 303h285zM956 924l37 133h205l-225 -1057h-205l27 156q-136 -181 -361 -181q-173 0 -271 103q-97 101 -97 284q0 191 75 347q78 168 219 270t310 102q213 0 286 -157zM514 164q166 0 266 153q99 151 99 349q0 233 -211 233q-167 0 -267 -154
q-98 -151 -98 -354q0 -227 211 -227z" />
    <glyph glyph-name="amacron.ss02" horiz-adv-x="1228" 
d="M449 1427h700l-39 -180h-700zM956 924l37 133h205l-225 -1057h-205l27 156q-136 -181 -361 -181q-173 0 -271 103q-97 101 -97 284q0 191 75 347q78 168 219 270t310 102q213 0 286 -157zM514 164q166 0 266 153q99 151 99 349q0 233 -211 233q-167 0 -267 -154
q-98 -151 -98 -354q0 -227 211 -227z" />
    <glyph glyph-name="aogonek.ss02" horiz-adv-x="1222" 
d="M965 0l-166 -143q-41 -35 -41 -70q0 -28 22 -46q21 -17 60 -17h67l-33 -156h-131q-99 0 -158 44t-59 120q0 96 105 174l157 108l11 174q-131 -192 -359 -192q-163 0 -264 113q-100 112 -100 303q-8 254 148 462q156 209 386 207q114 0 200 -54q85 -54 124 -148l49 178
h207zM522 190q156 0 252 138q94 136 94 313q0 111 -59 176q-60 66 -164 66q-147 0 -239 -142q-93 -146 -93 -317q0 -108 57 -171t152 -63z" />
    <glyph glyph-name="aring.ss02" horiz-adv-x="1228" 
d="M1020 1266q-82 -82 -211 -82q-127 0 -211 84t-84 207q0 127 85 211q84 83 210 83q128 0 211 -83q82 -82 82 -211q0 -127 -82 -209zM915 1585q-47 40 -105 41q-60 2 -105 -41q-48 -45 -44 -110q0 -67 42 -107q43 -41 106 -41q62 0 105 41q42 40 42 107q0 69 -41 110z
M956 924l37 133h205l-225 -1057h-205l27 156q-136 -181 -361 -181q-173 0 -271 103q-97 101 -97 284q0 191 75 347q78 168 219 270t310 102q213 0 286 -157zM514 164q166 0 266 153q99 151 99 349q0 233 -211 233q-167 0 -267 -154q-98 -151 -98 -354q0 -227 211 -227z" />
    <glyph glyph-name="aringacute.ss02" horiz-adv-x="1228" 
d="M897 2144h305l-264 -301h-178zM1006 1251q-82 -82 -211 -82q-127 0 -209 82q-84 84 -84 209q0 127 84 211t209 84q127 0 211 -84q81 -81 81 -211q0 -128 -81 -209zM795 1612q-64 0 -106 -42t-42 -110q0 -66 42 -106q43 -41 106 -41q66 0 106 40q41 41 41 107
q0 70 -41 111t-106 41zM956 924l37 133h205l-225 -1057h-205l27 156q-136 -181 -361 -181q-173 0 -271 103q-97 101 -97 284q0 191 75 347q78 168 219 270t310 102q213 0 286 -157zM514 164q166 0 266 153q99 151 99 349q0 233 -211 233q-167 0 -267 -154q-98 -151 -98 -354
q0 -227 211 -227z" />
    <glyph glyph-name="atilde.ss02" horiz-adv-x="1228" 
d="M608 1350q-89 0 -119 -140h-184q69 340 307 340q80 0 166 -69q87 -70 125 -70q85 0 119 139h184q-73 -340 -309 -340q-69 0 -118 35q-42 30 -87 70q-40 35 -84 35zM956 924l37 133h205l-225 -1057h-205l27 156q-136 -181 -361 -181q-173 0 -271 103q-97 101 -97 284
q0 191 75 347q78 168 219 270t310 102q213 0 286 -157zM514 164q166 0 266 153q99 151 99 349q0 233 -211 233q-167 0 -267 -154q-98 -151 -98 -354q0 -227 211 -227z" />
    <glyph glyph-name="adieresis.ss01.ss02" horiz-adv-x="1228" 
d="M659 1251q-41 -41 -104 -41t-104 41t-41 105q0 63 41 104q47 40 104 41q58 2 104 -40q47 -42 41 -105q0 -64 -41 -105zM1114 1251q-63 -67 -161 -28q-96 39 -89 133q-6 63 41 105q46 42 105 40q57 -1 104 -41q41 -41 41 -104q0 -64 -41 -105zM956 924l37 133h205
l-225 -1057h-205l27 156q-136 -181 -361 -181q-173 0 -271 103q-97 101 -97 284q0 191 75 347q78 168 219 270t310 102q213 0 286 -157zM514 164q166 0 266 153q99 151 99 349q0 233 -211 233q-167 0 -267 -154q-98 -151 -98 -354q0 -227 211 -227z" />
    <glyph glyph-name="uni021B.ss01.ss05" horiz-adv-x="720" 
d="M592 1051l184 6l-37 -180l-182 8l-188 -885h-240l188 885l-186 -8l37 180l184 -6l72 331h240zM193 -125q74 0 115 -37q42 -38 42 -100q0 -46 -6 -70l-8 -41q-21 -90 -95 -139t-188 -49h-63l22 100h66q118 0 141 99l4 18q-35 -14 -76 -14q-59 0 -88 28q-30 28 -30 78
q0 127 164 127z" />
    <glyph glyph-name="udieresis.ss01.ss05" horiz-adv-x="1200" 
d="M633 1251q-63 -67 -161 -28q-96 39 -89 133q0 63 41 104t104 41q66 0 106 -40t40 -105q0 -64 -41 -105zM1087 1251q-63 -67 -160 -28q-96 39 -89 133q0 65 40 105t105 40q97 8 134 -89q38 -98 -30 -161zM805 475l123 582h239l-223 -1057h-231l32 152q-140 -179 -344 -179
q-143 0 -224 78t-81 211q0 34 11 98l149 697h240l-142 -662q-8 -37 -8 -76q0 -133 148 -133q110 0 195 75q86 76 116 214z" />
    <glyph glyph-name="t.ss05" horiz-adv-x="720" 
d="M592 1051l184 6l-37 -180l-182 8l-188 -885h-240l188 885l-186 -8l37 180l184 -6l72 331h240z" />
    <glyph glyph-name="tbar.ss05" horiz-adv-x="720" 
d="M776 1057l-37 -180l-182 8l-65 -305l188 6l-39 -180l-184 8l-88 -414h-240l88 414l-186 -8l39 180l182 -6l65 305l-186 -8l37 180l184 -6l72 331h240l-72 -331z" />
    <glyph glyph-name="tcaron.ss05" horiz-adv-x="860" 
d="M723 1171l190 428h267l-275 -428h-182zM424 1382h240l-72 -331l184 6l-37 -180l-182 8l-188 -885h-240l188 885l-186 -8l37 180l184 -6z" />
    <glyph glyph-name="uni0163.ss05" horiz-adv-x="720" 
d="M557 885l-188 -885h-35l-107 -121h23q86 0 133 -44t47 -118q0 -104 -92 -166q-91 -61 -242 -61h-94l27 123h65q148 0 148 76q0 53 -74 53h-57l-70 100l133 158h-45l188 885l-186 -8l37 180l184 -6l72 331h240l-72 -331l184 6l-37 -180z" />
    <glyph glyph-name="uni021B.ss05" horiz-adv-x="720" 
d="M592 1051l184 6l-37 -180l-182 8l-188 -885h-240l188 885l-186 -8l37 180l184 -6l72 331h240zM221 -301l-176 -12l39 184h274l-55 -266q-37 -166 -221 -166h-88l20 94h86q49 0 70 17q24 19 31 61z" />
    <glyph glyph-name="udieresis.ss01.ss06" horiz-adv-x="1200" 
d="M633 1251q-63 -67 -161 -28q-96 39 -89 133q0 63 41 104t104 41q66 0 106 -40t40 -105q0 -64 -41 -105zM1087 1251q-63 -67 -160 -28q-96 39 -89 133q0 65 40 105t105 40q97 8 134 -89q38 -98 -30 -161zM516 -27q-193 0 -302 85q-110 86 -110 239q0 44 13 104l139 656
h240l-142 -664q-8 -32 -8 -69q0 -158 189 -158q208 0 253 223l142 668h239l-143 -676q-82 -408 -510 -408z" />
    <glyph glyph-name="u.ss06" horiz-adv-x="1200" 
d="M516 -27q-193 0 -302 85q-110 86 -110 239q0 44 13 104l139 656h240l-142 -664q-8 -32 -8 -69q0 -158 189 -158q208 0 253 223l142 668h239l-143 -676q-82 -408 -510 -408z" />
    <glyph glyph-name="uacute.ss06" horiz-adv-x="1200" 
d="M729 1180h-180l137 303h307zM516 -27q-193 0 -302 85q-110 86 -110 239q0 44 13 104l139 656h240l-142 -664q-8 -32 -8 -69q0 -158 189 -158q208 0 253 223l142 668h239l-143 -676q-82 -408 -510 -408z" />
    <glyph glyph-name="ubreve.ss06" horiz-adv-x="1200" 
d="M735 1182q-305 0 -305 225q0 45 8 82h148q-2 -10 -2 -35q0 -117 164 -117q191 0 229 152h153q-39 -158 -131 -233q-90 -74 -264 -74zM516 -27q-193 0 -302 85q-110 86 -110 239q0 44 13 104l139 656h240l-142 -664q-8 -32 -8 -69q0 -158 189 -158q208 0 253 223l142 668
h239l-143 -676q-82 -408 -510 -408z" />
    <glyph glyph-name="ucircumflex.ss06" horiz-adv-x="1200" 
d="M586 1190h-242l309 309h234l178 -309h-213l-94 186zM516 -27q-193 0 -302 85q-110 86 -110 239q0 44 13 104l139 656h240l-142 -664q-8 -32 -8 -69q0 -158 189 -158q208 0 253 223l142 668h239l-143 -676q-82 -408 -510 -408z" />
    <glyph glyph-name="udieresis.ss06" horiz-adv-x="1200" 
d="M629 1225h-240l51 233h240zM1065 1225h-240l52 233h239zM516 -27q-193 0 -302 85q-110 86 -110 239q0 44 13 104l139 656h240l-142 -664q-8 -32 -8 -69q0 -158 189 -158q208 0 253 223l142 668h239l-143 -676q-82 -408 -510 -408z" />
    <glyph glyph-name="ugrave.ss06" horiz-adv-x="1200" 
d="M803 1180h-160l-201 303h285zM516 -27q-193 0 -302 85q-110 86 -110 239q0 44 13 104l139 656h240l-142 -664q-8 -32 -8 -69q0 -158 189 -158q208 0 253 223l142 668h239l-143 -676q-82 -408 -510 -408z" />
    <glyph glyph-name="uhungarumlaut.ss06" horiz-adv-x="1200" 
d="M582 1180h-179l152 323h268zM979 1180h-178l162 323h266zM516 -27q-193 0 -302 85q-110 86 -110 239q0 44 13 104l139 656h240l-142 -664q-8 -32 -8 -69q0 -158 189 -158q208 0 253 223l142 668h239l-143 -676q-82 -408 -510 -408z" />
    <glyph glyph-name="umacron.ss06" horiz-adv-x="1200" 
d="M1081 1247h-700l39 180h700zM516 -27q-193 0 -302 85q-110 86 -110 239q0 44 13 104l139 656h240l-142 -664q-8 -32 -8 -69q0 -158 189 -158q208 0 253 223l142 668h239l-143 -676q-82 -408 -510 -408z" />
    <glyph glyph-name="uogonek.ss06" horiz-adv-x="1200" 
d="M788 389l142 668h239l-143 -676q-63 -313 -338 -387l-125 -82q-59 -39 -79 -63q-21 -26 -21 -56q0 -65 88 -65h80l-33 -156h-143q-105 0 -163 45q-59 45 -59 119q0 72 45 123q43 49 150 106l21 10q-163 16 -254 100q-91 83 -91 222q0 44 13 104l139 656h240l-142 -664
q-8 -32 -8 -69q0 -158 189 -158q208 0 253 223z" />
    <glyph glyph-name="uring.ss06" horiz-adv-x="1200" 
d="M993 1266q-82 -82 -211 -82q-127 0 -211 84t-84 207q0 127 84 211q83 83 211 83t211 -83q82 -82 82 -211q0 -127 -82 -209zM678 1368q47 -40 105 -41q60 -2 105 41q47 44 42 107q0 67 -42 109t-106 42q-63 0 -105 -42t-42 -109t43 -107zM516 -27q-193 0 -302 85
q-110 86 -110 239q0 44 13 104l139 656h240l-142 -664q-8 -32 -8 -69q0 -158 189 -158q208 0 253 223l142 668h239l-143 -676q-82 -408 -510 -408z" />
    <glyph glyph-name="utilde.ss06" horiz-adv-x="1200" 
d="M461 1210h-185q69 340 308 340q80 0 166 -69q87 -70 125 -70q84 0 118 139h185q-73 -340 -310 -340q-68 0 -117 35q-42 30 -87 70q-40 35 -84 35q-89 0 -119 -140zM516 -27q-193 0 -302 85q-110 86 -110 239q0 44 13 104l139 656h240l-142 -664q-8 -32 -8 -69
q0 -158 189 -158q208 0 253 223l142 668h239l-143 -676q-82 -408 -510 -408z" />
    <glyph glyph-name="ydieresis.ss01.ss07" horiz-adv-x="1116" 
d="M590 1251q-41 -41 -105 -41q-63 0 -104 41t-41 105q0 63 41 104q47 40 104 41q59 2 105 -40q47 -42 41 -105q0 -64 -41 -105zM1044 1251q-63 -67 -160 -28q-96 39 -89 133q-6 63 41 105q46 42 104 40q57 -1 104 -41q41 -41 41 -104q0 -64 -41 -105zM492 281l419 776h256
l-850 -1475h-235l235 398l-190 1077h258l92 -660q5 -19 15 -116z" />
    <glyph glyph-name="y.ss07" horiz-adv-x="1116" 
d="M492 281l419 776h256l-850 -1475h-235l235 398l-190 1077h258l92 -660q5 -19 15 -116z" />
    <glyph glyph-name="yacute.ss07" horiz-adv-x="1116" 
d="M643 1483h307l-264 -303h-180zM492 281l419 776h256l-850 -1475h-235l235 398l-190 1077h258l92 -660q5 -19 15 -116z" />
    <glyph glyph-name="ycircumflex.ss07" horiz-adv-x="1116" 
d="M809 1190l-94 186l-172 -186h-242l309 309h234l178 -309h-213zM492 281l419 776h256l-850 -1475h-235l235 398l-190 1077h258l92 -660q5 -19 15 -116z" />
    <glyph glyph-name="ydieresis.ss07" horiz-adv-x="1116" 
d="M397 1458h240l-51 -233h-240zM834 1458h239l-51 -233h-240zM492 281l419 776h256l-850 -1475h-235l235 398l-190 1077h258l92 -660q5 -19 15 -116z" />
    <glyph glyph-name="ygrave.ss07" horiz-adv-x="1116" 
d="M684 1483l76 -303h-160l-201 303h285zM492 281l419 776h256l-850 -1475h-235l235 398l-190 1077h258l92 -660q5 -19 15 -116z" />
    <glyph glyph-name="l.ss08" horiz-adv-x="620" 
d="M457 0h-140q-237 0 -237 193q0 29 10 83l252 1182h240l-246 -1153q-6 -35 -6 -49q0 -61 84 -61h86z" />
    <glyph glyph-name="lacute.ss08" horiz-adv-x="620" 
d="M500 1581h-181l138 303h307zM457 0h-140q-237 0 -237 193q0 29 10 83l252 1182h240l-246 -1153q-6 -35 -6 -49q0 -61 84 -61h86z" />
    <glyph glyph-name="lcaron.ss08" horiz-adv-x="909" 
d="M457 0h-140q-237 0 -237 193q0 29 10 83l252 1182h240l-246 -1153q-6 -35 -6 -49q0 -61 84 -61h86zM836 1032h-185l191 426h266z" />
    <glyph glyph-name="uni013C.ss08" horiz-adv-x="620" 
d="M457 0h-140q-237 0 -237 193q0 29 10 83l252 1182h240l-246 -1153q-6 -35 -6 -49q0 -61 84 -61h86zM-14 -561h-88l20 94h86q49 0 70 17q23 18 30 61l21 88l-176 -12l39 184h274l-55 -266q-37 -166 -221 -166z" />
    <glyph glyph-name="ldot.ss08" horiz-adv-x="815" 
d="M457 0h-140q-237 0 -237 193q0 29 10 83l252 1182h240l-246 -1153q-6 -35 -6 -49q0 -61 84 -61h86zM788 602h-262l56 258h262z" />
    <glyph glyph-name="lslash.ss08" horiz-adv-x="884" 
d="M866 842l-256 -117l-90 -420q-6 -35 -6 -49q0 -61 84 -61h86l-43 -195h-139q-238 0 -238 193q0 29 10 83l68 318l-274 -141l49 227l270 121l139 657h240l-113 -524l265 135z" />
    <glyph glyph-name="uni013C.ss01.ss08" horiz-adv-x="620" 
d="M330 256q0 -61 84 -61h86l-43 -195h-140q-237 0 -237 193q0 29 10 83l252 1182h240l-246 -1153q-6 -35 -6 -49zM96 -125q75 0 116 -37q42 -38 42 -100q0 -46 -6 -70l-8 -41q-21 -89 -96 -139q-74 -49 -187 -49h-63l22 100h66q120 0 141 99l4 18q-35 -14 -76 -14
q-59 0 -88 28q-31 29 -31 78q0 127 164 127z" />
    <glyph glyph-name="ldot.ss01.ss08" horiz-adv-x="878" 
d="M457 0h-140q-237 0 -237 193q0 29 10 83l252 1182h240l-246 -1153q-6 -35 -6 -49q0 -61 84 -61h86zM831 623q-52 -42 -114 -43q-65 -2 -115 43q-51 45 -45 110q0 65 45 109q44 43 115 43q70 0 114 -43q46 -44 46 -109q0 -66 -46 -110z" />
    <glyph glyph-name="fi.ss01" horiz-adv-x="1226" 
d="M1147 1497q63 0 103 -40t40 -103t-40 -103q-41 -41 -103 -41q-64 0 -105 41t-41 103q0 63 40 103t106 40zM786 1057l-38 -180l-218 8l-18 -78l-170 -807h-240l174 817l15 66l-160 -6l37 180l158 -6l20 92q34 165 123 240t252 75h151l-43 -194h-92q-67 0 -103 -30
q-35 -29 -50 -97l-19 -86zM977 0h-240l226 1057h239z" />
    <glyph glyph-name="fl.ss08" 
d="M584 1137l-19 -86l221 6l-38 -180l-218 8l-18 -78l-170 -807h-240l174 817l15 66l-160 -6l37 180l158 -6l20 92q34 165 123 240t252 75h151l-43 -194h-92q-67 0 -103 -30q-35 -29 -50 -97zM1040 256q0 -61 84 -61h86l-43 -195h-139q-237 0 -237 193q0 29 10 83l252 1182
h239l-245 -1153q-7 -40 -7 -49z" />
    <glyph glyph-name="ordfeminine.ss02" horiz-adv-x="980" 
d="M827 1362l31 98h178l-149 -698h-176l10 98q-102 -117 -252 -117q-123 0 -195 78q-71 77 -71 213q0 186 119 320q117 133 284 133q153 0 221 -125zM547 905q96 0 164 80q65 81 65 182q0 77 -41 121q-40 43 -108 43q-95 0 -158 -78t-63 -188q0 -79 37 -119q38 -41 104 -41z
" />
    <glyph glyph-name="t.sups.ss05" horiz-adv-x="632" 
d="M614 1456l162 4l-33 -153l-159 4l-117 -549h-199l117 549l-164 -4l33 153l162 -4l45 211h198z" />
    <glyph glyph-name="zero.ss09" horiz-adv-x="2594" 
d="M2269 -180h-1859v1818h1859v-1818zM1059 410q96 -121 280 -121t283 121q96 122 96 346t-97 342q-98 119 -282 119q-183 0 -281 -119q-97 -118 -97 -342q0 -229 98 -346zM1477 526q-45 -69 -138 -69q-92 0 -137 69t-45 228q0 158 45 227q46 70 137 70q92 0 138 -70
q45 -69 45 -227q0 -159 -45 -228z" />
    <glyph glyph-name="one.ss09" horiz-adv-x="2594" 
d="M2269 -180h-1859v1818h1859v-1818zM1290 907v-585h183v874h-162l-2 -27q-4 -57 -49 -91q-44 -34 -117 -34h-66v-137h213z" />
    <glyph glyph-name="two.ss09" horiz-adv-x="2594" 
d="M410 -180v1818h1859v-1818h-1859zM1675 328v161h-458q6 37 30 61q23 23 82 54l156 82q192 99 192 260q0 128 -91 201q-92 74 -245 74q-160 0 -245 -79q-86 -80 -90 -222h180q4 76 40 110q37 35 113 35q73 0 114 -33q40 -33 40 -88q0 -81 -109 -137l-186 -96
q-104 -56 -151 -148q-48 -93 -48 -235h676z" />
    <glyph glyph-name="three.ss09" horiz-adv-x="2594" 
d="M2269 -180h-1859v1818h1859v-1818zM1081 367q96 -78 258 -78q166 0 260 76q97 79 97 194q0 81 -46 137q-46 57 -126 78v4q65 17 104 70q37 50 37 121q0 113 -90 179t-246 66q-159 0 -248 -71q-89 -72 -94 -203h182q11 123 160 123q156 0 156 -115q0 -106 -144 -106h-79
v-156h75q172 0 172 -119q0 -125 -168 -125q-170 0 -176 144h-182q4 -143 98 -219z" />
    <glyph glyph-name="four.ss09" horiz-adv-x="2594" 
d="M2269 -180h-1859v1818h1859v-1818zM1389 500v-181h178v181l147 -6v155l-147 -4v549h-201l-410 -549v-151zM1389 645l-248 4l241 330h7v-334z" />
    <glyph glyph-name="five.ss09" horiz-adv-x="2594" 
d="M410 -180v1818h1859v-1818h-1859zM1339 283q169 0 265 87t96 224q0 134 -85 213q-86 80 -231 80q-116 0 -192 -51l-4 4l35 196h413v156h-542l-82 -481l180 -31q55 61 149 61q82 0 127 -42t45 -113q0 -70 -45 -110q-44 -40 -127 -40q-124 0 -163 99l-187 -31
q30 -104 122 -163q91 -58 226 -58z" />
    <glyph glyph-name="six.ss09" horiz-adv-x="2594" 
d="M2269 -180h-1859v1818h1859v-1818zM1368 295q163 0 257 85q95 86 95 226q0 137 -86 218t-231 81q-158 0 -240 -100q12 270 201 270q104 0 145 -78l183 35q-30 85 -115 137q-86 52 -209 52q-185 0 -284 -124q-99 -125 -99 -354q0 -215 97 -331q98 -117 286 -117zM1366 444
q-79 0 -129 44q-49 43 -49 118q0 70 49 113t129 43q78 0 125 -41q45 -44 45 -115q0 -72 -45 -117t-125 -45z" />
    <glyph glyph-name="seven.ss09" horiz-adv-x="2594" 
d="M2269 -180h-1859v1818h1859v-1818zM1159 309h193q15 237 96 406q76 169 240 319v150h-670v-160h459q-290 -302 -318 -715z" />
    <glyph glyph-name="eight.ss09" horiz-adv-x="2594" 
d="M2269 -180h-1859v1818h1859v-1818zM1061 371q103 -74 278 -74q180 0 281 74q100 73 100 200q0 80 -48 140t-130 82v6q133 49 133 186q0 106 -89 168q-88 61 -247 61q-158 0 -246 -61q-89 -62 -89 -168q0 -64 36 -112q38 -50 99 -74v-6q-85 -23 -132 -82q-49 -61 -49 -140
q0 -126 103 -200zM1339 852q-157 0 -157 113q0 110 157 110q158 0 158 -110q0 -53 -42 -83t-116 -30zM1481 473q-50 -37 -142 -37q-91 0 -141 37q-51 37 -51 105q0 137 192 137q193 0 193 -137q0 -68 -51 -105z" />
    <glyph glyph-name="nine.ss09" horiz-adv-x="2594" 
d="M2269 -180h-1859v1818h1859v-1818zM1325 289q185 0 284 124q99 125 99 353q0 216 -97 332t-286 116q-163 0 -257 -85q-95 -86 -95 -226q0 -137 87 -218t230 -81q157 0 240 101q-12 -269 -201 -269q-106 0 -145 76l-183 -33q30 -85 116 -138q85 -52 208 -52zM1456 791
q-49 -43 -129 -43q-79 0 -125 43q-45 43 -45 114q0 70 46 115q47 45 124 45q79 0 129 -44q49 -43 49 -118q0 -69 -49 -112z" />
    <glyph glyph-name="zero.ss10" horiz-adv-x="2594" 
d="M2269 -180h-1859v1818h1859v-1818zM649 1419v-1380h1379v1380h-1379zM1622 410q-99 -121 -283 -121t-280 121q-98 117 -98 346q0 224 97 342q98 119 281 119q184 0 282 -119q97 -118 97 -342t-96 -346zM1202 526q45 -69 137 -69q93 0 138 69t45 228q0 158 -45 227
q-46 70 -138 70q-91 0 -137 -70q-45 -69 -45 -227q0 -159 45 -228z" />
    <glyph glyph-name="one.ss10" horiz-adv-x="2594" 
d="M2269 -180h-1859v1818h1859v-1818zM649 1419v-1380h1379v1380h-1379zM1468 313h-182v584h-215v137h68q72 0 116 34q47 36 48 91l4 29h161v-875z" />
    <glyph glyph-name="two.ss10" horiz-adv-x="2594" 
d="M2269 -180h-1859v1818h1859v-1818zM649 1419v-1380h1379v1380h-1379zM1677 317h-676q0 143 48 236q46 90 151 145l186 99q109 56 109 137q0 55 -40 88q-41 33 -114 33q-76 0 -113 -35q-35 -34 -40 -111h-180q4 144 91 223q85 78 244 78q154 0 245 -73t91 -201
q0 -166 -192 -260l-156 -82q-59 -31 -82 -54q-24 -24 -30 -61h458v-162z" />
    <glyph glyph-name="three.ss10" horiz-adv-x="2594" 
d="M2269 -180h-1859v1818h1859v-1818zM649 1419v-1380h1379v1380h-1379zM1602 362q-93 -75 -261 -75q-162 0 -258 78q-97 78 -98 217h180q5 -74 46 -108t132 -34q168 0 168 123q0 119 -172 119h-75v158h79q144 0 144 106q0 113 -156 113q-150 0 -160 -121h-182q5 131 94 203
q89 71 248 71q154 0 245 -67t91 -180q0 -71 -37 -120q-38 -51 -104 -71v-2q79 -21 125 -79q47 -59 47 -138q0 -119 -96 -193z" />
    <glyph glyph-name="four.ss10" horiz-adv-x="2594" 
d="M2269 -180h-1859v1818h1859v-1818zM649 1419v-1380h1379v1380h-1379zM1567 317h-176v181l-433 -4v151l410 547h199v-549l149 6v-155l-149 4v-181zM1384 979l-241 -332l248 -4v336h-7z" />
    <glyph glyph-name="five.ss10" horiz-adv-x="2594" 
d="M2269 -180h-1859v1818h1859v-1818zM649 1419v-1380h1379v1380h-1379zM1337 283q-135 0 -226 58q-92 59 -120 163l185 31q38 -99 163 -99q84 0 129 39t45 109q0 71 -45 113t-127 42q-92 0 -151 -59l-180 29l84 481h542v-156h-415l-33 -196l4 -2q82 51 192 51
q144 0 229 -81t85 -212q0 -137 -96 -224t-265 -87z" />
    <glyph glyph-name="six.ss10" horiz-adv-x="2594" 
d="M2269 -180h-1859v1818h1859v-1818zM649 1419v-1380h1379v1380h-1379zM1364 283q-189 0 -286 116t-97 332q0 234 97 355q98 122 286 122q125 0 209 -51q85 -52 115 -137l-183 -35q-41 78 -145 78q-189 0 -201 -270q82 100 242 100q143 0 229 -81t86 -218q0 -140 -95 -226
q-94 -85 -257 -85zM1362 432q79 0 125 44q45 44 45 118q0 72 -45 115q-47 41 -125 41q-80 0 -129 -43t-49 -113q0 -75 49 -118q50 -44 129 -44z" />
    <glyph glyph-name="seven.ss10" horiz-adv-x="2594" 
d="M2269 -180h-1859v1818h1859v-1818zM649 1419v-1380h1379v1380h-1379zM1362 301h-193q28 419 318 715h-461v160h670v-150q-163 -151 -240 -317q-79 -173 -94 -408z" />
    </font>
</defs>
</svg>
